%TF.GenerationSoftware,KiCad,Pcbnew,9.0.2*%
%TF.CreationDate,2025-11-10T16:04:38+08:00*%
%TF.ProjectId,TrlBoard,54726c42-6f61-4726-942e-6b696361645f,rev?*%
%TF.SameCoordinates,Original*%
%TF.FileFunction,Soldermask,Top*%
%TF.FilePolarity,Negative*%
%FSLAX46Y46*%
G04 Gerber Fmt 4.6, Leading zero omitted, Abs format (unit mm)*
G04 Created by KiCad (PCBNEW 9.0.2) date 2025-11-10 16:04:38*
%MOMM*%
%LPD*%
G01*
G04 APERTURE LIST*
G04 Aperture macros list*
%AMRoundRect*
0 Rectangle with rounded corners*
0 $1 Rounding radius*
0 $2 $3 $4 $5 $6 $7 $8 $9 X,Y pos of 4 corners*
0 Add a 4 corners polygon primitive as box body*
4,1,4,$2,$3,$4,$5,$6,$7,$8,$9,$2,$3,0*
0 Add four circle primitives for the rounded corners*
1,1,$1+$1,$2,$3*
1,1,$1+$1,$4,$5*
1,1,$1+$1,$6,$7*
1,1,$1+$1,$8,$9*
0 Add four rect primitives between the rounded corners*
20,1,$1+$1,$2,$3,$4,$5,0*
20,1,$1+$1,$4,$5,$6,$7,0*
20,1,$1+$1,$6,$7,$8,$9,0*
20,1,$1+$1,$8,$9,$2,$3,0*%
G04 Aperture macros list end*
%ADD10C,0.250000*%
%ADD11C,0.010000*%
%ADD12RoundRect,0.135000X-0.185000X0.135000X-0.185000X-0.135000X0.185000X-0.135000X0.185000X0.135000X0*%
%ADD13RoundRect,0.160000X-0.222500X-0.160000X0.222500X-0.160000X0.222500X0.160000X-0.222500X0.160000X0*%
%ADD14RoundRect,0.140000X-0.140000X-0.170000X0.140000X-0.170000X0.140000X0.170000X-0.140000X0.170000X0*%
%ADD15RoundRect,0.140000X0.140000X0.170000X-0.140000X0.170000X-0.140000X-0.170000X0.140000X-0.170000X0*%
%ADD16RoundRect,0.200000X0.200000X0.275000X-0.200000X0.275000X-0.200000X-0.275000X0.200000X-0.275000X0*%
%ADD17RoundRect,0.225000X0.225000X0.250000X-0.225000X0.250000X-0.225000X-0.250000X0.225000X-0.250000X0*%
%ADD18RoundRect,0.140000X-0.170000X0.140000X-0.170000X-0.140000X0.170000X-0.140000X0.170000X0.140000X0*%
%ADD19RoundRect,0.225000X0.250000X-0.225000X0.250000X0.225000X-0.250000X0.225000X-0.250000X-0.225000X0*%
%ADD20R,0.900000X1.500000*%
%ADD21R,1.500000X0.900000*%
%ADD22C,0.600000*%
%ADD23R,3.900000X3.900000*%
%ADD24RoundRect,0.135000X0.185000X-0.135000X0.185000X0.135000X-0.185000X0.135000X-0.185000X-0.135000X0*%
%ADD25RoundRect,0.225000X-0.250000X0.225000X-0.250000X-0.225000X0.250000X-0.225000X0.250000X0.225000X0*%
%ADD26RoundRect,0.103000X-0.309000X0.654000X-0.309000X-0.654000X0.309000X-0.654000X0.309000X0.654000X0*%
%ADD27C,0.650000*%
%ADD28R,1.450000X0.600000*%
%ADD29R,1.450000X0.300000*%
%ADD30O,2.100000X1.000000*%
%ADD31O,1.600000X1.000000*%
%ADD32RoundRect,0.102000X0.400000X0.300000X-0.400000X0.300000X-0.400000X-0.300000X0.400000X-0.300000X0*%
%ADD33RoundRect,0.135000X0.135000X0.185000X-0.135000X0.185000X-0.135000X-0.185000X0.135000X-0.185000X0*%
%ADD34RoundRect,0.135000X-0.135000X-0.185000X0.135000X-0.185000X0.135000X0.185000X-0.135000X0.185000X0*%
%ADD35RoundRect,0.102000X-0.787500X-0.787500X0.787500X-0.787500X0.787500X0.787500X-0.787500X0.787500X0*%
%ADD36C,1.779000*%
%ADD37RoundRect,0.062500X-0.062500X0.375000X-0.062500X-0.375000X0.062500X-0.375000X0.062500X0.375000X0*%
%ADD38RoundRect,0.062500X-0.375000X0.062500X-0.375000X-0.062500X0.375000X-0.062500X0.375000X0.062500X0*%
%ADD39R,1.600000X1.600000*%
%ADD40R,0.280000X0.280000*%
%ADD41O,0.850000X0.280000*%
%ADD42R,0.230000X0.600000*%
%ADD43R,0.250000X0.700000*%
%ADD44R,0.650000X0.900000*%
%ADD45R,1.700000X2.150000*%
%ADD46RoundRect,0.147500X-0.147500X-0.172500X0.147500X-0.172500X0.147500X0.172500X-0.147500X0.172500X0*%
%ADD47R,1.700000X1.700000*%
%ADD48C,1.700000*%
G04 APERTURE END LIST*
D10*
G36*
X189123347Y-80535444D02*
G01*
X189146350Y-80550941D01*
X189162044Y-80573608D01*
X189167233Y-80600156D01*
X189167233Y-80859297D01*
X189025572Y-80859297D01*
X189025572Y-80600156D01*
X189030774Y-80573613D01*
X189046516Y-80550941D01*
X189069468Y-80535446D01*
X189096402Y-80530302D01*
X189123347Y-80535444D01*
G37*
G36*
X189809539Y-82031244D02*
G01*
X188711528Y-82031244D01*
X188711528Y-81906244D01*
X188836528Y-81906244D01*
X189025572Y-81906244D01*
X189025572Y-81601429D01*
X189684539Y-81601429D01*
X189684539Y-81412263D01*
X189025572Y-81412263D01*
X189025572Y-81105128D01*
X188836528Y-81105128D01*
X188836528Y-81906244D01*
X188711528Y-81906244D01*
X188711528Y-80599912D01*
X188836528Y-80599912D01*
X188836528Y-80600156D01*
X188836528Y-81048464D01*
X189684539Y-81048464D01*
X189684539Y-80859297D01*
X189356277Y-80859297D01*
X189356277Y-80632213D01*
X189684539Y-80511923D01*
X189684539Y-80319826D01*
X189312740Y-80455564D01*
X189286889Y-80422736D01*
X189256150Y-80394935D01*
X189220050Y-80371850D01*
X189180681Y-80354766D01*
X189139785Y-80344568D01*
X189096830Y-80341136D01*
X189044048Y-80345981D01*
X188996386Y-80360121D01*
X188952783Y-80383515D01*
X188912487Y-80416852D01*
X188878989Y-80457055D01*
X188855527Y-80500422D01*
X188841371Y-80547692D01*
X188836528Y-80599912D01*
X188711528Y-80599912D01*
X188711528Y-80073812D01*
X188836528Y-80073812D01*
X188836528Y-80262979D01*
X189684539Y-80262979D01*
X189684539Y-79588868D01*
X189495495Y-79588868D01*
X189495495Y-80073812D01*
X188836528Y-80073812D01*
X188711528Y-80073812D01*
X188711528Y-79463868D01*
X189809539Y-79463868D01*
X189809539Y-82031244D01*
G37*
G36*
X189123881Y-67999529D02*
G01*
X189146655Y-68014793D01*
X189151234Y-68021449D01*
X189162099Y-68037243D01*
X189167233Y-68063825D01*
X189167233Y-68311670D01*
X189025572Y-68311670D01*
X189025572Y-68063825D01*
X189030705Y-68037243D01*
X189046149Y-68014793D01*
X189068923Y-67999529D01*
X189096402Y-67994399D01*
X189123881Y-67999529D01*
G37*
G36*
X189452669Y-67956603D02*
G01*
X189475223Y-67972112D01*
X189490437Y-67994791D01*
X189495495Y-68021449D01*
X189495495Y-68311670D01*
X189356277Y-68311670D01*
X189356277Y-68021449D01*
X189361388Y-67994270D01*
X189376610Y-67971745D01*
X189398981Y-67956492D01*
X189425519Y-67951412D01*
X189452669Y-67956603D01*
G37*
G36*
X189307996Y-67050534D02*
G01*
X189350745Y-67063433D01*
X189390086Y-67084852D01*
X189426680Y-67115491D01*
X189457055Y-67152316D01*
X189478311Y-67191881D01*
X189491119Y-67234842D01*
X189495495Y-67282126D01*
X189491114Y-67329412D01*
X189478299Y-67372308D01*
X189457044Y-67411748D01*
X189426680Y-67448394D01*
X189390108Y-67478856D01*
X189350774Y-67500165D01*
X189308016Y-67513004D01*
X189260900Y-67517393D01*
X189213754Y-67513008D01*
X189170921Y-67500172D01*
X189131473Y-67478863D01*
X189094754Y-67448394D01*
X189064213Y-67411726D01*
X189042847Y-67372279D01*
X189029972Y-67329392D01*
X189025572Y-67282126D01*
X189029967Y-67234862D01*
X189042835Y-67191909D01*
X189064201Y-67152338D01*
X189094754Y-67115491D01*
X189131495Y-67084846D01*
X189170949Y-67063426D01*
X189213774Y-67050530D01*
X189260900Y-67046126D01*
X189307996Y-67050534D01*
G37*
G36*
X189123347Y-65489701D02*
G01*
X189146350Y-65505198D01*
X189162044Y-65527865D01*
X189167233Y-65554413D01*
X189167233Y-65813554D01*
X189025572Y-65813554D01*
X189025572Y-65554413D01*
X189030774Y-65527870D01*
X189046516Y-65505198D01*
X189069468Y-65489703D01*
X189096402Y-65484559D01*
X189123347Y-65489701D01*
G37*
G36*
X189307759Y-64686232D02*
G01*
X189350605Y-64699034D01*
X189390004Y-64720271D01*
X189426618Y-64750610D01*
X189456998Y-64787139D01*
X189478273Y-64826515D01*
X189491105Y-64869406D01*
X189495495Y-64916756D01*
X189495495Y-65028069D01*
X189025572Y-65028069D01*
X189025572Y-64916756D01*
X189029965Y-64869410D01*
X189042807Y-64826520D01*
X189064100Y-64787143D01*
X189094509Y-64750610D01*
X189131094Y-64720273D01*
X189170472Y-64699036D01*
X189213308Y-64686233D01*
X189260533Y-64681855D01*
X189307759Y-64686232D01*
G37*
G36*
X189809539Y-68625836D02*
G01*
X188707681Y-68625836D01*
X188707681Y-68064863D01*
X188836528Y-68064863D01*
X188836528Y-68500836D01*
X189684539Y-68500836D01*
X189684539Y-68021388D01*
X189679700Y-67969134D01*
X189665556Y-67921809D01*
X189642112Y-67878371D01*
X189608640Y-67838083D01*
X189568294Y-67804625D01*
X189524853Y-67781200D01*
X189477585Y-67767076D01*
X189425458Y-67762246D01*
X189371790Y-67767806D01*
X189321045Y-67784411D01*
X189274965Y-67810875D01*
X189236292Y-67845472D01*
X189193808Y-67823242D01*
X189147642Y-67809822D01*
X189096830Y-67805233D01*
X189044084Y-67810079D01*
X188996433Y-67824226D01*
X188952817Y-67847639D01*
X188912487Y-67881009D01*
X188879019Y-67921264D01*
X188855553Y-67964774D01*
X188841381Y-68012288D01*
X188836624Y-68063825D01*
X188836528Y-68064863D01*
X188707681Y-68064863D01*
X188707681Y-67281759D01*
X188836528Y-67281759D01*
X188836559Y-67282126D01*
X188842936Y-67357233D01*
X188861876Y-67427894D01*
X188893497Y-67494861D01*
X188936050Y-67555508D01*
X188987260Y-67606800D01*
X189047859Y-67649467D01*
X189114751Y-67681164D01*
X189185291Y-67700140D01*
X189260594Y-67706559D01*
X189335858Y-67700141D01*
X189406377Y-67681166D01*
X189473269Y-67649467D01*
X189533834Y-67606806D01*
X189585045Y-67555515D01*
X189627630Y-67494861D01*
X189659216Y-67427898D01*
X189678137Y-67357236D01*
X189684539Y-67281759D01*
X189678136Y-67206284D01*
X189659215Y-67135643D01*
X189627630Y-67068718D01*
X189585042Y-67008026D01*
X189533830Y-66956716D01*
X189473269Y-66914052D01*
X189406377Y-66882353D01*
X189335858Y-66863377D01*
X189260594Y-66856960D01*
X189185291Y-66863378D01*
X189114751Y-66882355D01*
X189047859Y-66914052D01*
X188987264Y-66956722D01*
X188936053Y-67008033D01*
X188893497Y-67068718D01*
X188861878Y-67135646D01*
X188842937Y-67206287D01*
X188836528Y-67281759D01*
X188707681Y-67281759D01*
X188707681Y-66508792D01*
X188832681Y-66508792D01*
X189684539Y-66958443D01*
X189684539Y-66736609D01*
X189251008Y-66509463D01*
X189684539Y-66288546D01*
X189684539Y-66059202D01*
X188832681Y-66508792D01*
X188707681Y-66508792D01*
X188707681Y-65554169D01*
X188836528Y-65554169D01*
X188836528Y-65554413D01*
X188836528Y-66002721D01*
X189684539Y-66002721D01*
X189684539Y-65813554D01*
X189356277Y-65813554D01*
X189356277Y-65586470D01*
X189684539Y-65466180D01*
X189684539Y-65274083D01*
X189312740Y-65409821D01*
X189286889Y-65376993D01*
X189256150Y-65349192D01*
X189220050Y-65326107D01*
X189180681Y-65309023D01*
X189139785Y-65298825D01*
X189096830Y-65295393D01*
X189044048Y-65300238D01*
X188996386Y-65314378D01*
X188952783Y-65337772D01*
X188912487Y-65371109D01*
X188878989Y-65411312D01*
X188855527Y-65454679D01*
X188841371Y-65501949D01*
X188836528Y-65554169D01*
X188707681Y-65554169D01*
X188707681Y-64917122D01*
X188836528Y-64917122D01*
X188836528Y-65217236D01*
X189684539Y-65217236D01*
X189684539Y-64917122D01*
X189680791Y-64860573D01*
X189669624Y-64805922D01*
X189650956Y-64752686D01*
X189611228Y-64678928D01*
X189560708Y-64617009D01*
X189520903Y-64581869D01*
X189476028Y-64551673D01*
X189425580Y-64526334D01*
X189372381Y-64507632D01*
X189317751Y-64496444D01*
X189261205Y-64492689D01*
X189205139Y-64496268D01*
X189151213Y-64506905D01*
X189098967Y-64524624D01*
X189049490Y-64549021D01*
X189003768Y-64579708D01*
X188961458Y-64617009D01*
X188924210Y-64659407D01*
X188893432Y-64705429D01*
X188868829Y-64755433D01*
X188850845Y-64808198D01*
X188840117Y-64861947D01*
X188836552Y-64916756D01*
X188836528Y-64917122D01*
X188707681Y-64917122D01*
X188707681Y-64367689D01*
X189809539Y-64367689D01*
X189809539Y-68625836D01*
G37*
D11*
%TO.C,MT1*%
X158925000Y-74450000D02*
X158575000Y-74450000D01*
X158575000Y-73875000D01*
X158925000Y-73875000D01*
X158925000Y-74450000D01*
G36*
X158925000Y-74450000D02*
G01*
X158575000Y-74450000D01*
X158575000Y-73875000D01*
X158925000Y-73875000D01*
X158925000Y-74450000D01*
G37*
X159925000Y-74450000D02*
X159575000Y-74450000D01*
X159575000Y-73875000D01*
X159925000Y-73875000D01*
X159925000Y-74450000D01*
G36*
X159925000Y-74450000D02*
G01*
X159575000Y-74450000D01*
X159575000Y-73875000D01*
X159925000Y-73875000D01*
X159925000Y-74450000D01*
G37*
X159425000Y-74450000D02*
X159075000Y-74450000D01*
X159075000Y-73875000D01*
X159425000Y-73875000D01*
X159425000Y-74450000D01*
G36*
X159425000Y-74450000D02*
G01*
X159075000Y-74450000D01*
X159075000Y-73875000D01*
X159425000Y-73875000D01*
X159425000Y-74450000D01*
G37*
X158925000Y-72625000D02*
X158575000Y-72625000D01*
X158575000Y-72050000D01*
X158925000Y-72050000D01*
X158925000Y-72625000D01*
G36*
X158925000Y-72625000D02*
G01*
X158575000Y-72625000D01*
X158575000Y-72050000D01*
X158925000Y-72050000D01*
X158925000Y-72625000D01*
G37*
X159925000Y-72625000D02*
X159575000Y-72625000D01*
X159575000Y-72050000D01*
X159925000Y-72050000D01*
X159925000Y-72625000D01*
G36*
X159925000Y-72625000D02*
G01*
X159575000Y-72625000D01*
X159575000Y-72050000D01*
X159925000Y-72050000D01*
X159925000Y-72625000D01*
G37*
X159425000Y-72625000D02*
X159075000Y-72625000D01*
X159075000Y-72050000D01*
X159425000Y-72050000D01*
X159425000Y-72625000D01*
G36*
X159425000Y-72625000D02*
G01*
X159075000Y-72625000D01*
X159075000Y-72050000D01*
X159425000Y-72050000D01*
X159425000Y-72625000D01*
G37*
X160700000Y-74175000D02*
X160125000Y-74175000D01*
X160125000Y-73825000D01*
X160700000Y-73825000D01*
X160700000Y-74175000D01*
G36*
X160700000Y-74175000D02*
G01*
X160125000Y-74175000D01*
X160125000Y-73825000D01*
X160700000Y-73825000D01*
X160700000Y-74175000D01*
G37*
X160700000Y-72675000D02*
X160125000Y-72675000D01*
X160125000Y-72325000D01*
X160700000Y-72325000D01*
X160700000Y-72675000D01*
G36*
X160700000Y-72675000D02*
G01*
X160125000Y-72675000D01*
X160125000Y-72325000D01*
X160700000Y-72325000D01*
X160700000Y-72675000D01*
G37*
X160700000Y-73675000D02*
X160125000Y-73675000D01*
X160125000Y-73325000D01*
X160700000Y-73325000D01*
X160700000Y-73675000D01*
G36*
X160700000Y-73675000D02*
G01*
X160125000Y-73675000D01*
X160125000Y-73325000D01*
X160700000Y-73325000D01*
X160700000Y-73675000D01*
G37*
X160700000Y-73175000D02*
X160125000Y-73175000D01*
X160125000Y-72825000D01*
X160700000Y-72825000D01*
X160700000Y-73175000D01*
G36*
X160700000Y-73175000D02*
G01*
X160125000Y-73175000D01*
X160125000Y-72825000D01*
X160700000Y-72825000D01*
X160700000Y-73175000D01*
G37*
X158375000Y-74175000D02*
X157800000Y-74175000D01*
X157800000Y-73825000D01*
X158375000Y-73825000D01*
X158375000Y-74175000D01*
G36*
X158375000Y-74175000D02*
G01*
X157800000Y-74175000D01*
X157800000Y-73825000D01*
X158375000Y-73825000D01*
X158375000Y-74175000D01*
G37*
X158375000Y-72675000D02*
X157800000Y-72675000D01*
X157800000Y-72325000D01*
X158375000Y-72325000D01*
X158375000Y-72675000D01*
G36*
X158375000Y-72675000D02*
G01*
X157800000Y-72675000D01*
X157800000Y-72325000D01*
X158375000Y-72325000D01*
X158375000Y-72675000D01*
G37*
X158375000Y-73675000D02*
X157800000Y-73675000D01*
X157800000Y-73325000D01*
X158375000Y-73325000D01*
X158375000Y-73675000D01*
G36*
X158375000Y-73675000D02*
G01*
X157800000Y-73675000D01*
X157800000Y-73325000D01*
X158375000Y-73325000D01*
X158375000Y-73675000D01*
G37*
X158375000Y-73175000D02*
X157800000Y-73175000D01*
X157800000Y-72825000D01*
X158375000Y-72825000D01*
X158375000Y-73175000D01*
G36*
X158375000Y-73175000D02*
G01*
X157800000Y-73175000D01*
X157800000Y-72825000D01*
X158375000Y-72825000D01*
X158375000Y-73175000D01*
G37*
%TD*%
D12*
%TO.C,R14*%
X157250000Y-75480000D03*
X157250000Y-76500000D03*
%TD*%
D13*
%TO.C,D1*%
X180500000Y-78001000D03*
X179355000Y-78001000D03*
%TD*%
%TO.C,D2*%
X180500000Y-69501000D03*
X179355000Y-69501000D03*
%TD*%
D14*
%TO.C,C16*%
X160710000Y-78750000D03*
X159750000Y-78750000D03*
%TD*%
%TO.C,C15*%
X159750000Y-77500000D03*
X160710000Y-77500000D03*
%TD*%
D15*
%TO.C,C13*%
X157270000Y-77500000D03*
X158230000Y-77500000D03*
%TD*%
D16*
%TO.C,R3*%
X171065000Y-82601000D03*
X169415000Y-82601000D03*
%TD*%
D17*
%TO.C,C12*%
X172275000Y-65001000D03*
X170725000Y-65001000D03*
%TD*%
D15*
%TO.C,C8*%
X172730000Y-79351000D03*
X171770000Y-79351000D03*
%TD*%
D18*
%TO.C,C7*%
X166750000Y-81245000D03*
X166750000Y-82205000D03*
%TD*%
D19*
%TO.C,C9*%
X164750000Y-82525000D03*
X164750000Y-80975000D03*
%TD*%
D15*
%TO.C,C4*%
X171500000Y-63501000D03*
X170540000Y-63501000D03*
%TD*%
D18*
%TO.C,C14*%
X155750000Y-81020000D03*
X155750000Y-81980000D03*
%TD*%
D20*
%TO.C,U2*%
X135750000Y-82390000D03*
X137020000Y-82390000D03*
X138290000Y-82390000D03*
X139560000Y-82390000D03*
X140830000Y-82390000D03*
X142100000Y-82390000D03*
X143370000Y-82390000D03*
X144640000Y-82390000D03*
X145910000Y-82390000D03*
X147180000Y-82390000D03*
X148450000Y-82390000D03*
X149720000Y-82390000D03*
X150990000Y-82390000D03*
X152260000Y-82390000D03*
D21*
X153510000Y-80625000D03*
X153510000Y-79355000D03*
X153510000Y-78085000D03*
X153510000Y-76815000D03*
X153510000Y-75545000D03*
X153510000Y-74275000D03*
X153510000Y-73005000D03*
X153510000Y-71735000D03*
X153510000Y-70465000D03*
X153510000Y-69195000D03*
X153510000Y-67925000D03*
X153510000Y-66655000D03*
D20*
X152260000Y-64890000D03*
X150990000Y-64890000D03*
X149720000Y-64890000D03*
X148450000Y-64890000D03*
X147180000Y-64890000D03*
X145910000Y-64890000D03*
X144640000Y-64890000D03*
X143370000Y-64890000D03*
X142100000Y-64890000D03*
X140830000Y-64890000D03*
X139560000Y-64890000D03*
X138290000Y-64890000D03*
X137020000Y-64890000D03*
X135750000Y-64890000D03*
D22*
X142770000Y-76540000D03*
X144170000Y-76540000D03*
X142070000Y-75840000D03*
X143470000Y-75840000D03*
X144870000Y-75840000D03*
X142770000Y-75140000D03*
D23*
X143470000Y-75140000D03*
D22*
X144170000Y-75140000D03*
X142070000Y-74440000D03*
X143470000Y-74440000D03*
X144870000Y-74440000D03*
X142770000Y-73740000D03*
X144170000Y-73740000D03*
%TD*%
D24*
%TO.C,R13*%
X167770000Y-73011000D03*
X167770000Y-71991000D03*
%TD*%
D25*
%TO.C,C2*%
X158500000Y-80975000D03*
X158500000Y-82525000D03*
%TD*%
%TO.C,C5*%
X179625000Y-80801000D03*
X179625000Y-82351000D03*
%TD*%
D26*
%TO.C,U4*%
X178215000Y-71041000D03*
X176945000Y-71041000D03*
X175675000Y-71041000D03*
X174405000Y-71041000D03*
X173135000Y-71041000D03*
X171865000Y-71041000D03*
X170595000Y-71041000D03*
X169325000Y-71041000D03*
X169325000Y-76541000D03*
X170595000Y-76541000D03*
X171865000Y-76541000D03*
X173135000Y-76541000D03*
X174405000Y-76541000D03*
X175675000Y-76541000D03*
X176945000Y-76541000D03*
X178215000Y-76541000D03*
%TD*%
D27*
%TO.C,J5*%
X185850000Y-76881000D03*
X185850000Y-71101000D03*
D28*
X184405000Y-77241000D03*
X184405000Y-76441000D03*
D29*
X184405000Y-75241000D03*
X184405000Y-74241000D03*
X184405000Y-73741000D03*
X184405000Y-72741000D03*
D28*
X184405000Y-71541000D03*
X184405000Y-70741000D03*
X184405000Y-70741000D03*
X184405000Y-71541000D03*
D29*
X184405000Y-72241000D03*
X184405000Y-73241000D03*
X184405000Y-74741000D03*
X184405000Y-75741000D03*
D28*
X184405000Y-76441000D03*
X184405000Y-77241000D03*
D30*
X185320000Y-78311000D03*
D31*
X189500000Y-78311000D03*
D30*
X185320000Y-69671000D03*
D31*
X189500000Y-69671000D03*
%TD*%
D32*
%TO.C,Q2*%
X166270000Y-73251000D03*
X166270000Y-71351000D03*
X164250000Y-72301000D03*
%TD*%
D19*
%TO.C,C10*%
X162750000Y-82535000D03*
X162750000Y-80985000D03*
%TD*%
D32*
%TO.C,Q1*%
X166270000Y-77501000D03*
X166270000Y-75601000D03*
X164250000Y-76551000D03*
%TD*%
D33*
%TO.C,R11*%
X156760000Y-79500000D03*
X155740000Y-79500000D03*
%TD*%
D12*
%TO.C,R12*%
X167770000Y-76241000D03*
X167770000Y-77261000D03*
%TD*%
D33*
%TO.C,R1*%
X170750000Y-81351000D03*
X169730000Y-81351000D03*
%TD*%
D34*
%TO.C,R4*%
X179240000Y-64250000D03*
X180260000Y-64250000D03*
%TD*%
D12*
%TO.C,R9*%
X180500000Y-74991000D03*
X180500000Y-76011000D03*
%TD*%
D24*
%TO.C,R8*%
X170750000Y-67261000D03*
X170750000Y-66241000D03*
%TD*%
%TO.C,R7*%
X172000000Y-67261000D03*
X172000000Y-66241000D03*
%TD*%
D34*
%TO.C,R2*%
X171740000Y-81351000D03*
X172760000Y-81351000D03*
%TD*%
D33*
%TO.C,R6*%
X180260000Y-65250000D03*
X179240000Y-65250000D03*
%TD*%
D15*
%TO.C,C3*%
X180250000Y-66251000D03*
X179290000Y-66251000D03*
%TD*%
D35*
%TO.C,J1*%
X163500000Y-67000000D03*
D36*
X161000000Y-67000000D03*
%TD*%
D19*
%TO.C,C11*%
X160750000Y-82525000D03*
X160750000Y-80975000D03*
%TD*%
D24*
%TO.C,R10*%
X180500000Y-72521000D03*
X180500000Y-71501000D03*
%TD*%
D37*
%TO.C,U1*%
X176810000Y-64376000D03*
X176310000Y-64376000D03*
X175810000Y-64376000D03*
X175310000Y-64376000D03*
D38*
X174622500Y-65063500D03*
X174622500Y-65563500D03*
X174622500Y-66063500D03*
X174622500Y-66563500D03*
D37*
X175310000Y-67251000D03*
X175810000Y-67251000D03*
X176310000Y-67251000D03*
X176810000Y-67251000D03*
D38*
X177497500Y-66563500D03*
X177497500Y-66063500D03*
X177497500Y-65563500D03*
X177497500Y-65063500D03*
D39*
X176060000Y-65813500D03*
%TD*%
D33*
%TO.C,R5*%
X179260000Y-68251000D03*
X178240000Y-68251000D03*
%TD*%
D40*
%TO.C,U3*%
X178010000Y-81561000D03*
D41*
X177725000Y-81561000D03*
D40*
X178010000Y-81061000D03*
D41*
X177725000Y-81061000D03*
D40*
X178010000Y-80561000D03*
D41*
X177725000Y-80561000D03*
D40*
X178010000Y-80061000D03*
D41*
X177725000Y-80061000D03*
D40*
X178010000Y-79561000D03*
D41*
X177725000Y-79561000D03*
X174775000Y-79561000D03*
D40*
X174490000Y-79561000D03*
D41*
X174775000Y-80061000D03*
D40*
X174490000Y-80061000D03*
D41*
X174775000Y-80561000D03*
D40*
X174490000Y-80561000D03*
D41*
X174775000Y-81061000D03*
D40*
X174490000Y-81061000D03*
D41*
X174775000Y-81561000D03*
D40*
X174490000Y-81561000D03*
D42*
X176850000Y-81986000D03*
D43*
X176850000Y-81986000D03*
D42*
X176850000Y-79136000D03*
D43*
X176850000Y-79136000D03*
D22*
X176750000Y-81061000D03*
X176750000Y-80061000D03*
D44*
X176685000Y-81121000D03*
X176685000Y-80001000D03*
D42*
X176450000Y-81986000D03*
D43*
X176450000Y-81986000D03*
D42*
X176450000Y-79136000D03*
D43*
X176450000Y-79136000D03*
D22*
X176250000Y-80561000D03*
D45*
X176250000Y-80561000D03*
D42*
X176050000Y-81986000D03*
D43*
X176050000Y-81986000D03*
D42*
X176050000Y-79136000D03*
D43*
X176050000Y-79136000D03*
D44*
X175815000Y-81121000D03*
X175815000Y-80001000D03*
D22*
X175750000Y-81061000D03*
X175750000Y-80061000D03*
D42*
X175650000Y-81986000D03*
D43*
X175650000Y-81986000D03*
D42*
X175650000Y-79136000D03*
D43*
X175650000Y-79136000D03*
%TD*%
D18*
%TO.C,C1*%
X157000000Y-81020000D03*
X157000000Y-81980000D03*
%TD*%
D46*
%TO.C,L1*%
X175800000Y-83601000D03*
X176770000Y-83601000D03*
%TD*%
D25*
%TO.C,C6*%
X181500000Y-80801000D03*
X181500000Y-82351000D03*
%TD*%
D47*
%TO.C,J4*%
X135740000Y-61230000D03*
D48*
X138280000Y-61230000D03*
X140820000Y-61230000D03*
X143360000Y-61230000D03*
X145900000Y-61230000D03*
X148440000Y-61230000D03*
X150980000Y-61230000D03*
X153520000Y-61230000D03*
X156060000Y-61230000D03*
X158600000Y-61230000D03*
X161140000Y-61230000D03*
X163680000Y-61230000D03*
X166220000Y-61230000D03*
X168760000Y-61230000D03*
X171300000Y-61230000D03*
X173840000Y-61230000D03*
X176380000Y-61230000D03*
X178920000Y-61230000D03*
X181460000Y-61230000D03*
X184000000Y-61230000D03*
X186540000Y-61230000D03*
X189080000Y-61230000D03*
%TD*%
D47*
%TO.C,J2*%
X135740000Y-85950000D03*
D48*
X138280000Y-85950000D03*
X140820000Y-85950000D03*
X143360000Y-85950000D03*
X145900000Y-85950000D03*
X148440000Y-85950000D03*
X150980000Y-85950000D03*
X153520000Y-85950000D03*
X156060000Y-85950000D03*
X158600000Y-85950000D03*
X161140000Y-85950000D03*
X163680000Y-85950000D03*
X166220000Y-85950000D03*
X168760000Y-85950000D03*
X171300000Y-85950000D03*
X173840000Y-85950000D03*
X176380000Y-85950000D03*
X178920000Y-85950000D03*
X181460000Y-85950000D03*
X184000000Y-85950000D03*
X186540000Y-85950000D03*
X189080000Y-85950000D03*
%TD*%
M02*
