M48
; DRILL file {KiCad 9.0.2} date 2025-11-07T15:55:15+0800
; FORMAT={-:-/ absolute / metric / decimal}
; #@! TF.CreationDate,2025-11-07T15:55:15+08:00
; #@! TF.GenerationSoftware,Kicad,Pcbnew,9.0.2
; #@! TF.FileFunction,Plated,1,2,PTH
FMAT,2
METRIC
; #@! TA.AperFunction,Plated,PTH,ViaDrill
T1C0.200
; #@! TA.AperFunction,Plated,PTH,ComponentDrill
T2C0.200
; #@! TA.AperFunction,Plated,PTH,ViaDrill
T3C0.300
; #@! TA.AperFunction,Plated,PTH,ComponentDrill
T4C0.300
; #@! TA.AperFunction,Plated,PTH,ViaDrill
T5C0.400
; #@! TA.AperFunction,Plated,PTH,ComponentDrill
T6C0.600
; #@! TA.AperFunction,Plated,PTH,ComponentDrill
T7C1.000
; #@! TA.AperFunction,Plated,PTH,ComponentDrill
T8C1.050
%
G90
G05
T1
X174.685Y-64.501
T2
X142.07Y-74.44
X142.07Y-75.84
X142.77Y-73.74
X142.77Y-75.14
X142.77Y-76.54
X143.47Y-74.44
X143.47Y-75.84
X144.17Y-73.74
X144.17Y-75.14
X144.17Y-76.54
X144.87Y-74.44
X144.87Y-75.84
T3
X138.38Y-81.0
X142.25Y-66.5
X143.5Y-66.5
X144.75Y-66.5
X146.0Y-66.5
X146.0Y-81.0
X147.25Y-66.5
X147.25Y-81.0
X148.5Y-81.0
X149.25Y-79.5
X149.75Y-81.0
X150.75Y-77.75
X151.5Y-78.299
X153.704Y-81.65
X154.5Y-81.575
X154.75Y-65.5
X154.75Y-80.75
X154.97Y-79.5
X155.0Y-66.5
X155.0Y-67.75
X155.0Y-69.0
X155.0Y-70.25
X155.0Y-71.5
X155.0Y-72.75
X155.0Y-74.0
X155.0Y-75.25
X155.0Y-76.5
X155.04Y-77.6
X156.748Y-71.45
X156.75Y-72.25
X156.75Y-73.75
X157.5Y-75.5
X161.75Y-81.65
X163.25Y-70.95
X163.25Y-71.75
X168.0Y-65.75
X168.4Y-80.25
X169.6Y-80.25
X171.5Y-68.5
X173.15Y-66.611
X173.75Y-67.751
X176.0Y-73.25
X176.5Y-68.501
X177.5Y-74.851
X178.0Y-72.196
X178.75Y-83.622
X179.355Y-75.856
X180.5Y-79.601
T4
X175.75Y-80.061
X175.75Y-81.061
X176.25Y-80.561
X176.75Y-80.061
X176.75Y-81.061
T5
X174.5Y-68.368
T7
X135.74Y-61.23
X135.74Y-85.95
X138.28Y-61.23
X138.28Y-85.95
X140.82Y-61.23
X140.82Y-85.95
X143.36Y-61.23
X143.36Y-85.95
X145.9Y-61.23
X145.9Y-85.95
X148.44Y-61.23
X148.44Y-85.95
X150.98Y-61.23
X150.98Y-85.95
X153.52Y-61.23
X153.52Y-85.95
X156.06Y-61.23
X156.06Y-85.95
X158.6Y-61.23
X158.6Y-85.95
X161.14Y-61.23
X161.14Y-85.95
X163.68Y-61.23
X163.68Y-85.95
X166.22Y-61.23
X166.22Y-85.95
X168.76Y-61.23
X168.76Y-85.95
X171.3Y-61.23
X171.3Y-85.95
X173.84Y-61.23
X173.84Y-85.95
X176.38Y-61.23
X176.38Y-85.95
X178.92Y-61.23
X178.92Y-85.95
X181.46Y-61.23
X181.46Y-85.95
X184.0Y-61.23
X184.0Y-85.95
X186.54Y-61.23
X186.54Y-85.95
X189.08Y-61.23
X189.08Y-85.95
T8
X161.0Y-67.0
X163.5Y-67.0
T6
G00X184.77Y-69.671
M15
G01X185.87Y-69.671
M16
G05
G00X184.77Y-78.311
M15
G01X185.87Y-78.311
M16
G05
G00X189.2Y-69.671
M15
G01X189.8Y-69.671
M16
G05
G00X189.2Y-78.311
M15
G01X189.8Y-78.311
M16
G05
M30
