%TF.GenerationSoftware,KiCad,Pcbnew,9.0.2*%
%TF.CreationDate,2025-11-07T15:55:15+08:00*%
%TF.ProjectId,TrlBoard,54726c42-6f61-4726-942e-6b696361645f,rev?*%
%TF.SameCoordinates,Original*%
%TF.FileFunction,Drillmap*%
%TF.FilePolarity,Positive*%
%FSLAX45Y45*%
G04 Gerber Fmt 4.5, Leading zero omitted, Abs format (unit mm)*
G04 Created by KiCad (PCBNEW 9.0.2) date 2025-11-07 15:55:15*
%MOMM*%
%LPD*%
G01*
G04 APERTURE LIST*
%ADD10C,0.050000*%
%ADD11C,0.200000*%
%ADD12C,0.100000*%
G04 APERTURE END LIST*
D10*
X19075000Y-8556000D02*
X19075000Y-8756000D01*
X13425000Y-8756000D02*
X13425000Y-5962000D01*
X18825000Y-5962000D02*
X13425000Y-5962000D01*
X19075000Y-8756000D02*
X13425000Y-8756000D01*
X19075000Y-5962000D02*
X19075000Y-8556000D01*
X18825000Y-5962000D02*
X19075000Y-5962000D01*
D11*
D12*
X18552500Y-7077600D02*
X18617500Y-7142600D01*
X18617500Y-7077600D02*
X18552500Y-7142600D01*
X18552500Y-7655600D02*
X18617500Y-7720600D01*
X18617500Y-7655600D02*
X18552500Y-7720600D01*
D11*
X13683277Y-9069984D02*
X13683277Y-8869984D01*
X13683277Y-8869984D02*
X13730896Y-8869984D01*
X13730896Y-8869984D02*
X13759467Y-8879508D01*
X13759467Y-8879508D02*
X13778515Y-8898555D01*
X13778515Y-8898555D02*
X13788039Y-8917603D01*
X13788039Y-8917603D02*
X13797562Y-8955698D01*
X13797562Y-8955698D02*
X13797562Y-8984270D01*
X13797562Y-8984270D02*
X13788039Y-9022365D01*
X13788039Y-9022365D02*
X13778515Y-9041412D01*
X13778515Y-9041412D02*
X13759467Y-9060460D01*
X13759467Y-9060460D02*
X13730896Y-9069984D01*
X13730896Y-9069984D02*
X13683277Y-9069984D01*
X13883277Y-9069984D02*
X13883277Y-8936650D01*
X13883277Y-8974746D02*
X13892801Y-8955698D01*
X13892801Y-8955698D02*
X13902324Y-8946174D01*
X13902324Y-8946174D02*
X13921372Y-8936650D01*
X13921372Y-8936650D02*
X13940420Y-8936650D01*
X14007086Y-9069984D02*
X14007086Y-8936650D01*
X14007086Y-8869984D02*
X13997562Y-8879508D01*
X13997562Y-8879508D02*
X14007086Y-8889031D01*
X14007086Y-8889031D02*
X14016610Y-8879508D01*
X14016610Y-8879508D02*
X14007086Y-8869984D01*
X14007086Y-8869984D02*
X14007086Y-8889031D01*
X14130896Y-9069984D02*
X14111848Y-9060460D01*
X14111848Y-9060460D02*
X14102324Y-9041412D01*
X14102324Y-9041412D02*
X14102324Y-8869984D01*
X14235658Y-9069984D02*
X14216610Y-9060460D01*
X14216610Y-9060460D02*
X14207086Y-9041412D01*
X14207086Y-9041412D02*
X14207086Y-8869984D01*
X14464229Y-9069984D02*
X14464229Y-8869984D01*
X14464229Y-8869984D02*
X14530896Y-9012841D01*
X14530896Y-9012841D02*
X14597562Y-8869984D01*
X14597562Y-8869984D02*
X14597562Y-9069984D01*
X14778515Y-9069984D02*
X14778515Y-8965222D01*
X14778515Y-8965222D02*
X14768991Y-8946174D01*
X14768991Y-8946174D02*
X14749943Y-8936650D01*
X14749943Y-8936650D02*
X14711848Y-8936650D01*
X14711848Y-8936650D02*
X14692801Y-8946174D01*
X14778515Y-9060460D02*
X14759467Y-9069984D01*
X14759467Y-9069984D02*
X14711848Y-9069984D01*
X14711848Y-9069984D02*
X14692801Y-9060460D01*
X14692801Y-9060460D02*
X14683277Y-9041412D01*
X14683277Y-9041412D02*
X14683277Y-9022365D01*
X14683277Y-9022365D02*
X14692801Y-9003317D01*
X14692801Y-9003317D02*
X14711848Y-8993793D01*
X14711848Y-8993793D02*
X14759467Y-8993793D01*
X14759467Y-8993793D02*
X14778515Y-8984270D01*
X14873753Y-8936650D02*
X14873753Y-9136650D01*
X14873753Y-8946174D02*
X14892801Y-8936650D01*
X14892801Y-8936650D02*
X14930896Y-8936650D01*
X14930896Y-8936650D02*
X14949943Y-8946174D01*
X14949943Y-8946174D02*
X14959467Y-8955698D01*
X14959467Y-8955698D02*
X14968991Y-8974746D01*
X14968991Y-8974746D02*
X14968991Y-9031889D01*
X14968991Y-9031889D02*
X14959467Y-9050936D01*
X14959467Y-9050936D02*
X14949943Y-9060460D01*
X14949943Y-9060460D02*
X14930896Y-9069984D01*
X14930896Y-9069984D02*
X14892801Y-9069984D01*
X14892801Y-9069984D02*
X14873753Y-9060460D01*
X15054705Y-9050936D02*
X15064229Y-9060460D01*
X15064229Y-9060460D02*
X15054705Y-9069984D01*
X15054705Y-9069984D02*
X15045182Y-9060460D01*
X15045182Y-9060460D02*
X15054705Y-9050936D01*
X15054705Y-9050936D02*
X15054705Y-9069984D01*
X15054705Y-8946174D02*
X15064229Y-8955698D01*
X15064229Y-8955698D02*
X15054705Y-8965222D01*
X15054705Y-8965222D02*
X15045182Y-8955698D01*
X15045182Y-8955698D02*
X15054705Y-8946174D01*
X15054705Y-8946174D02*
X15054705Y-8965222D01*
D12*
X13357500Y-9366000D02*
X13422500Y-9431000D01*
X13422500Y-9366000D02*
X13357500Y-9431000D01*
D11*
X13721372Y-9289984D02*
X13740420Y-9289984D01*
X13740420Y-9289984D02*
X13759467Y-9299508D01*
X13759467Y-9299508D02*
X13768991Y-9309031D01*
X13768991Y-9309031D02*
X13778515Y-9328079D01*
X13778515Y-9328079D02*
X13788039Y-9366174D01*
X13788039Y-9366174D02*
X13788039Y-9413793D01*
X13788039Y-9413793D02*
X13778515Y-9451889D01*
X13778515Y-9451889D02*
X13768991Y-9470936D01*
X13768991Y-9470936D02*
X13759467Y-9480460D01*
X13759467Y-9480460D02*
X13740420Y-9489984D01*
X13740420Y-9489984D02*
X13721372Y-9489984D01*
X13721372Y-9489984D02*
X13702324Y-9480460D01*
X13702324Y-9480460D02*
X13692801Y-9470936D01*
X13692801Y-9470936D02*
X13683277Y-9451889D01*
X13683277Y-9451889D02*
X13673753Y-9413793D01*
X13673753Y-9413793D02*
X13673753Y-9366174D01*
X13673753Y-9366174D02*
X13683277Y-9328079D01*
X13683277Y-9328079D02*
X13692801Y-9309031D01*
X13692801Y-9309031D02*
X13702324Y-9299508D01*
X13702324Y-9299508D02*
X13721372Y-9289984D01*
X13873753Y-9470936D02*
X13883277Y-9480460D01*
X13883277Y-9480460D02*
X13873753Y-9489984D01*
X13873753Y-9489984D02*
X13864229Y-9480460D01*
X13864229Y-9480460D02*
X13873753Y-9470936D01*
X13873753Y-9470936D02*
X13873753Y-9489984D01*
X14054705Y-9289984D02*
X14016610Y-9289984D01*
X14016610Y-9289984D02*
X13997562Y-9299508D01*
X13997562Y-9299508D02*
X13988039Y-9309031D01*
X13988039Y-9309031D02*
X13968991Y-9337603D01*
X13968991Y-9337603D02*
X13959467Y-9375698D01*
X13959467Y-9375698D02*
X13959467Y-9451889D01*
X13959467Y-9451889D02*
X13968991Y-9470936D01*
X13968991Y-9470936D02*
X13978515Y-9480460D01*
X13978515Y-9480460D02*
X13997562Y-9489984D01*
X13997562Y-9489984D02*
X14035658Y-9489984D01*
X14035658Y-9489984D02*
X14054705Y-9480460D01*
X14054705Y-9480460D02*
X14064229Y-9470936D01*
X14064229Y-9470936D02*
X14073753Y-9451889D01*
X14073753Y-9451889D02*
X14073753Y-9404270D01*
X14073753Y-9404270D02*
X14064229Y-9385222D01*
X14064229Y-9385222D02*
X14054705Y-9375698D01*
X14054705Y-9375698D02*
X14035658Y-9366174D01*
X14035658Y-9366174D02*
X13997562Y-9366174D01*
X13997562Y-9366174D02*
X13978515Y-9375698D01*
X13978515Y-9375698D02*
X13968991Y-9385222D01*
X13968991Y-9385222D02*
X13959467Y-9404270D01*
X14254705Y-9289984D02*
X14159467Y-9289984D01*
X14159467Y-9289984D02*
X14149943Y-9385222D01*
X14149943Y-9385222D02*
X14159467Y-9375698D01*
X14159467Y-9375698D02*
X14178515Y-9366174D01*
X14178515Y-9366174D02*
X14226134Y-9366174D01*
X14226134Y-9366174D02*
X14245182Y-9375698D01*
X14245182Y-9375698D02*
X14254705Y-9385222D01*
X14254705Y-9385222D02*
X14264229Y-9404270D01*
X14264229Y-9404270D02*
X14264229Y-9451889D01*
X14264229Y-9451889D02*
X14254705Y-9470936D01*
X14254705Y-9470936D02*
X14245182Y-9480460D01*
X14245182Y-9480460D02*
X14226134Y-9489984D01*
X14226134Y-9489984D02*
X14178515Y-9489984D01*
X14178515Y-9489984D02*
X14159467Y-9480460D01*
X14159467Y-9480460D02*
X14149943Y-9470936D01*
X14388039Y-9289984D02*
X14407086Y-9289984D01*
X14407086Y-9289984D02*
X14426134Y-9299508D01*
X14426134Y-9299508D02*
X14435658Y-9309031D01*
X14435658Y-9309031D02*
X14445182Y-9328079D01*
X14445182Y-9328079D02*
X14454705Y-9366174D01*
X14454705Y-9366174D02*
X14454705Y-9413793D01*
X14454705Y-9413793D02*
X14445182Y-9451889D01*
X14445182Y-9451889D02*
X14435658Y-9470936D01*
X14435658Y-9470936D02*
X14426134Y-9480460D01*
X14426134Y-9480460D02*
X14407086Y-9489984D01*
X14407086Y-9489984D02*
X14388039Y-9489984D01*
X14388039Y-9489984D02*
X14368991Y-9480460D01*
X14368991Y-9480460D02*
X14359467Y-9470936D01*
X14359467Y-9470936D02*
X14349943Y-9451889D01*
X14349943Y-9451889D02*
X14340420Y-9413793D01*
X14340420Y-9413793D02*
X14340420Y-9366174D01*
X14340420Y-9366174D02*
X14349943Y-9328079D01*
X14349943Y-9328079D02*
X14359467Y-9309031D01*
X14359467Y-9309031D02*
X14368991Y-9299508D01*
X14368991Y-9299508D02*
X14388039Y-9289984D01*
X14540420Y-9489984D02*
X14540420Y-9356650D01*
X14540420Y-9375698D02*
X14549943Y-9366174D01*
X14549943Y-9366174D02*
X14568991Y-9356650D01*
X14568991Y-9356650D02*
X14597563Y-9356650D01*
X14597563Y-9356650D02*
X14616610Y-9366174D01*
X14616610Y-9366174D02*
X14626134Y-9385222D01*
X14626134Y-9385222D02*
X14626134Y-9489984D01*
X14626134Y-9385222D02*
X14635658Y-9366174D01*
X14635658Y-9366174D02*
X14654705Y-9356650D01*
X14654705Y-9356650D02*
X14683277Y-9356650D01*
X14683277Y-9356650D02*
X14702324Y-9366174D01*
X14702324Y-9366174D02*
X14711848Y-9385222D01*
X14711848Y-9385222D02*
X14711848Y-9489984D01*
X14807086Y-9489984D02*
X14807086Y-9356650D01*
X14807086Y-9375698D02*
X14816610Y-9366174D01*
X14816610Y-9366174D02*
X14835658Y-9356650D01*
X14835658Y-9356650D02*
X14864229Y-9356650D01*
X14864229Y-9356650D02*
X14883277Y-9366174D01*
X14883277Y-9366174D02*
X14892801Y-9385222D01*
X14892801Y-9385222D02*
X14892801Y-9489984D01*
X14892801Y-9385222D02*
X14902324Y-9366174D01*
X14902324Y-9366174D02*
X14921372Y-9356650D01*
X14921372Y-9356650D02*
X14949943Y-9356650D01*
X14949943Y-9356650D02*
X14968991Y-9366174D01*
X14968991Y-9366174D02*
X14978515Y-9385222D01*
X14978515Y-9385222D02*
X14978515Y-9489984D01*
X15368991Y-9280460D02*
X15197563Y-9537603D01*
X15626134Y-9289984D02*
X15645182Y-9289984D01*
X15645182Y-9289984D02*
X15664229Y-9299508D01*
X15664229Y-9299508D02*
X15673753Y-9309031D01*
X15673753Y-9309031D02*
X15683277Y-9328079D01*
X15683277Y-9328079D02*
X15692801Y-9366174D01*
X15692801Y-9366174D02*
X15692801Y-9413793D01*
X15692801Y-9413793D02*
X15683277Y-9451889D01*
X15683277Y-9451889D02*
X15673753Y-9470936D01*
X15673753Y-9470936D02*
X15664229Y-9480460D01*
X15664229Y-9480460D02*
X15645182Y-9489984D01*
X15645182Y-9489984D02*
X15626134Y-9489984D01*
X15626134Y-9489984D02*
X15607086Y-9480460D01*
X15607086Y-9480460D02*
X15597563Y-9470936D01*
X15597563Y-9470936D02*
X15588039Y-9451889D01*
X15588039Y-9451889D02*
X15578515Y-9413793D01*
X15578515Y-9413793D02*
X15578515Y-9366174D01*
X15578515Y-9366174D02*
X15588039Y-9328079D01*
X15588039Y-9328079D02*
X15597563Y-9309031D01*
X15597563Y-9309031D02*
X15607086Y-9299508D01*
X15607086Y-9299508D02*
X15626134Y-9289984D01*
X15778515Y-9470936D02*
X15788039Y-9480460D01*
X15788039Y-9480460D02*
X15778515Y-9489984D01*
X15778515Y-9489984D02*
X15768991Y-9480460D01*
X15768991Y-9480460D02*
X15778515Y-9470936D01*
X15778515Y-9470936D02*
X15778515Y-9489984D01*
X15911848Y-9289984D02*
X15930896Y-9289984D01*
X15930896Y-9289984D02*
X15949944Y-9299508D01*
X15949944Y-9299508D02*
X15959467Y-9309031D01*
X15959467Y-9309031D02*
X15968991Y-9328079D01*
X15968991Y-9328079D02*
X15978515Y-9366174D01*
X15978515Y-9366174D02*
X15978515Y-9413793D01*
X15978515Y-9413793D02*
X15968991Y-9451889D01*
X15968991Y-9451889D02*
X15959467Y-9470936D01*
X15959467Y-9470936D02*
X15949944Y-9480460D01*
X15949944Y-9480460D02*
X15930896Y-9489984D01*
X15930896Y-9489984D02*
X15911848Y-9489984D01*
X15911848Y-9489984D02*
X15892801Y-9480460D01*
X15892801Y-9480460D02*
X15883277Y-9470936D01*
X15883277Y-9470936D02*
X15873753Y-9451889D01*
X15873753Y-9451889D02*
X15864229Y-9413793D01*
X15864229Y-9413793D02*
X15864229Y-9366174D01*
X15864229Y-9366174D02*
X15873753Y-9328079D01*
X15873753Y-9328079D02*
X15883277Y-9309031D01*
X15883277Y-9309031D02*
X15892801Y-9299508D01*
X15892801Y-9299508D02*
X15911848Y-9289984D01*
X16054706Y-9309031D02*
X16064229Y-9299508D01*
X16064229Y-9299508D02*
X16083277Y-9289984D01*
X16083277Y-9289984D02*
X16130896Y-9289984D01*
X16130896Y-9289984D02*
X16149944Y-9299508D01*
X16149944Y-9299508D02*
X16159467Y-9309031D01*
X16159467Y-9309031D02*
X16168991Y-9328079D01*
X16168991Y-9328079D02*
X16168991Y-9347127D01*
X16168991Y-9347127D02*
X16159467Y-9375698D01*
X16159467Y-9375698D02*
X16045182Y-9489984D01*
X16045182Y-9489984D02*
X16168991Y-9489984D01*
X16349944Y-9289984D02*
X16254706Y-9289984D01*
X16254706Y-9289984D02*
X16245182Y-9385222D01*
X16245182Y-9385222D02*
X16254706Y-9375698D01*
X16254706Y-9375698D02*
X16273753Y-9366174D01*
X16273753Y-9366174D02*
X16321372Y-9366174D01*
X16321372Y-9366174D02*
X16340420Y-9375698D01*
X16340420Y-9375698D02*
X16349944Y-9385222D01*
X16349944Y-9385222D02*
X16359467Y-9404270D01*
X16359467Y-9404270D02*
X16359467Y-9451889D01*
X16359467Y-9451889D02*
X16349944Y-9470936D01*
X16349944Y-9470936D02*
X16340420Y-9480460D01*
X16340420Y-9480460D02*
X16321372Y-9489984D01*
X16321372Y-9489984D02*
X16273753Y-9489984D01*
X16273753Y-9489984D02*
X16254706Y-9480460D01*
X16254706Y-9480460D02*
X16245182Y-9470936D01*
X16530896Y-9289984D02*
X16492801Y-9289984D01*
X16492801Y-9289984D02*
X16473753Y-9299508D01*
X16473753Y-9299508D02*
X16464229Y-9309031D01*
X16464229Y-9309031D02*
X16445182Y-9337603D01*
X16445182Y-9337603D02*
X16435658Y-9375698D01*
X16435658Y-9375698D02*
X16435658Y-9451889D01*
X16435658Y-9451889D02*
X16445182Y-9470936D01*
X16445182Y-9470936D02*
X16454706Y-9480460D01*
X16454706Y-9480460D02*
X16473753Y-9489984D01*
X16473753Y-9489984D02*
X16511848Y-9489984D01*
X16511848Y-9489984D02*
X16530896Y-9480460D01*
X16530896Y-9480460D02*
X16540420Y-9470936D01*
X16540420Y-9470936D02*
X16549944Y-9451889D01*
X16549944Y-9451889D02*
X16549944Y-9404270D01*
X16549944Y-9404270D02*
X16540420Y-9385222D01*
X16540420Y-9385222D02*
X16530896Y-9375698D01*
X16530896Y-9375698D02*
X16511848Y-9366174D01*
X16511848Y-9366174D02*
X16473753Y-9366174D01*
X16473753Y-9366174D02*
X16454706Y-9375698D01*
X16454706Y-9375698D02*
X16445182Y-9385222D01*
X16445182Y-9385222D02*
X16435658Y-9404270D01*
X16626134Y-9289984D02*
X16626134Y-9328079D01*
X16702325Y-9289984D02*
X16702325Y-9328079D01*
X16997563Y-9566174D02*
X16988039Y-9556650D01*
X16988039Y-9556650D02*
X16968991Y-9528079D01*
X16968991Y-9528079D02*
X16959468Y-9509031D01*
X16959468Y-9509031D02*
X16949944Y-9480460D01*
X16949944Y-9480460D02*
X16940420Y-9432841D01*
X16940420Y-9432841D02*
X16940420Y-9394746D01*
X16940420Y-9394746D02*
X16949944Y-9347127D01*
X16949944Y-9347127D02*
X16959468Y-9318555D01*
X16959468Y-9318555D02*
X16968991Y-9299508D01*
X16968991Y-9299508D02*
X16988039Y-9270936D01*
X16988039Y-9270936D02*
X16997563Y-9261412D01*
X17064230Y-9309031D02*
X17073753Y-9299508D01*
X17073753Y-9299508D02*
X17092801Y-9289984D01*
X17092801Y-9289984D02*
X17140420Y-9289984D01*
X17140420Y-9289984D02*
X17159468Y-9299508D01*
X17159468Y-9299508D02*
X17168991Y-9309031D01*
X17168991Y-9309031D02*
X17178515Y-9328079D01*
X17178515Y-9328079D02*
X17178515Y-9347127D01*
X17178515Y-9347127D02*
X17168991Y-9375698D01*
X17168991Y-9375698D02*
X17054706Y-9489984D01*
X17054706Y-9489984D02*
X17178515Y-9489984D01*
X17416611Y-9489984D02*
X17416611Y-9289984D01*
X17502325Y-9489984D02*
X17502325Y-9385222D01*
X17502325Y-9385222D02*
X17492801Y-9366174D01*
X17492801Y-9366174D02*
X17473753Y-9356650D01*
X17473753Y-9356650D02*
X17445182Y-9356650D01*
X17445182Y-9356650D02*
X17426134Y-9366174D01*
X17426134Y-9366174D02*
X17416611Y-9375698D01*
X17626134Y-9489984D02*
X17607087Y-9480460D01*
X17607087Y-9480460D02*
X17597563Y-9470936D01*
X17597563Y-9470936D02*
X17588039Y-9451889D01*
X17588039Y-9451889D02*
X17588039Y-9394746D01*
X17588039Y-9394746D02*
X17597563Y-9375698D01*
X17597563Y-9375698D02*
X17607087Y-9366174D01*
X17607087Y-9366174D02*
X17626134Y-9356650D01*
X17626134Y-9356650D02*
X17654706Y-9356650D01*
X17654706Y-9356650D02*
X17673753Y-9366174D01*
X17673753Y-9366174D02*
X17683277Y-9375698D01*
X17683277Y-9375698D02*
X17692801Y-9394746D01*
X17692801Y-9394746D02*
X17692801Y-9451889D01*
X17692801Y-9451889D02*
X17683277Y-9470936D01*
X17683277Y-9470936D02*
X17673753Y-9480460D01*
X17673753Y-9480460D02*
X17654706Y-9489984D01*
X17654706Y-9489984D02*
X17626134Y-9489984D01*
X17807087Y-9489984D02*
X17788039Y-9480460D01*
X17788039Y-9480460D02*
X17778515Y-9461412D01*
X17778515Y-9461412D02*
X17778515Y-9289984D01*
X17959468Y-9480460D02*
X17940420Y-9489984D01*
X17940420Y-9489984D02*
X17902325Y-9489984D01*
X17902325Y-9489984D02*
X17883277Y-9480460D01*
X17883277Y-9480460D02*
X17873753Y-9461412D01*
X17873753Y-9461412D02*
X17873753Y-9385222D01*
X17873753Y-9385222D02*
X17883277Y-9366174D01*
X17883277Y-9366174D02*
X17902325Y-9356650D01*
X17902325Y-9356650D02*
X17940420Y-9356650D01*
X17940420Y-9356650D02*
X17959468Y-9366174D01*
X17959468Y-9366174D02*
X17968992Y-9385222D01*
X17968992Y-9385222D02*
X17968992Y-9404270D01*
X17968992Y-9404270D02*
X17873753Y-9423317D01*
X18045182Y-9480460D02*
X18064230Y-9489984D01*
X18064230Y-9489984D02*
X18102325Y-9489984D01*
X18102325Y-9489984D02*
X18121373Y-9480460D01*
X18121373Y-9480460D02*
X18130896Y-9461412D01*
X18130896Y-9461412D02*
X18130896Y-9451889D01*
X18130896Y-9451889D02*
X18121373Y-9432841D01*
X18121373Y-9432841D02*
X18102325Y-9423317D01*
X18102325Y-9423317D02*
X18073753Y-9423317D01*
X18073753Y-9423317D02*
X18054706Y-9413793D01*
X18054706Y-9413793D02*
X18045182Y-9394746D01*
X18045182Y-9394746D02*
X18045182Y-9385222D01*
X18045182Y-9385222D02*
X18054706Y-9366174D01*
X18054706Y-9366174D02*
X18073753Y-9356650D01*
X18073753Y-9356650D02*
X18102325Y-9356650D01*
X18102325Y-9356650D02*
X18121373Y-9366174D01*
X18197563Y-9566174D02*
X18207087Y-9556650D01*
X18207087Y-9556650D02*
X18226134Y-9528079D01*
X18226134Y-9528079D02*
X18235658Y-9509031D01*
X18235658Y-9509031D02*
X18245182Y-9480460D01*
X18245182Y-9480460D02*
X18254706Y-9432841D01*
X18254706Y-9432841D02*
X18254706Y-9394746D01*
X18254706Y-9394746D02*
X18245182Y-9347127D01*
X18245182Y-9347127D02*
X18235658Y-9318555D01*
X18235658Y-9318555D02*
X18226134Y-9299508D01*
X18226134Y-9299508D02*
X18207087Y-9270936D01*
X18207087Y-9270936D02*
X18197563Y-9261412D01*
X18559468Y-9566174D02*
X18549944Y-9556650D01*
X18549944Y-9556650D02*
X18530896Y-9528079D01*
X18530896Y-9528079D02*
X18521373Y-9509031D01*
X18521373Y-9509031D02*
X18511849Y-9480460D01*
X18511849Y-9480460D02*
X18502325Y-9432841D01*
X18502325Y-9432841D02*
X18502325Y-9394746D01*
X18502325Y-9394746D02*
X18511849Y-9347127D01*
X18511849Y-9347127D02*
X18521373Y-9318555D01*
X18521373Y-9318555D02*
X18530896Y-9299508D01*
X18530896Y-9299508D02*
X18549944Y-9270936D01*
X18549944Y-9270936D02*
X18559468Y-9261412D01*
X18635658Y-9356650D02*
X18635658Y-9489984D01*
X18635658Y-9375698D02*
X18645182Y-9366174D01*
X18645182Y-9366174D02*
X18664230Y-9356650D01*
X18664230Y-9356650D02*
X18692801Y-9356650D01*
X18692801Y-9356650D02*
X18711849Y-9366174D01*
X18711849Y-9366174D02*
X18721373Y-9385222D01*
X18721373Y-9385222D02*
X18721373Y-9489984D01*
X18845182Y-9489984D02*
X18826134Y-9480460D01*
X18826134Y-9480460D02*
X18816611Y-9470936D01*
X18816611Y-9470936D02*
X18807087Y-9451889D01*
X18807087Y-9451889D02*
X18807087Y-9394746D01*
X18807087Y-9394746D02*
X18816611Y-9375698D01*
X18816611Y-9375698D02*
X18826134Y-9366174D01*
X18826134Y-9366174D02*
X18845182Y-9356650D01*
X18845182Y-9356650D02*
X18873754Y-9356650D01*
X18873754Y-9356650D02*
X18892801Y-9366174D01*
X18892801Y-9366174D02*
X18902325Y-9375698D01*
X18902325Y-9375698D02*
X18911849Y-9394746D01*
X18911849Y-9394746D02*
X18911849Y-9451889D01*
X18911849Y-9451889D02*
X18902325Y-9470936D01*
X18902325Y-9470936D02*
X18892801Y-9480460D01*
X18892801Y-9480460D02*
X18873754Y-9489984D01*
X18873754Y-9489984D02*
X18845182Y-9489984D01*
X18968992Y-9356650D02*
X19045182Y-9356650D01*
X18997563Y-9289984D02*
X18997563Y-9461412D01*
X18997563Y-9461412D02*
X19007087Y-9480460D01*
X19007087Y-9480460D02*
X19026134Y-9489984D01*
X19026134Y-9489984D02*
X19045182Y-9489984D01*
X19264230Y-9356650D02*
X19264230Y-9556650D01*
X19264230Y-9366174D02*
X19283277Y-9356650D01*
X19283277Y-9356650D02*
X19321373Y-9356650D01*
X19321373Y-9356650D02*
X19340420Y-9366174D01*
X19340420Y-9366174D02*
X19349944Y-9375698D01*
X19349944Y-9375698D02*
X19359468Y-9394746D01*
X19359468Y-9394746D02*
X19359468Y-9451889D01*
X19359468Y-9451889D02*
X19349944Y-9470936D01*
X19349944Y-9470936D02*
X19340420Y-9480460D01*
X19340420Y-9480460D02*
X19321373Y-9489984D01*
X19321373Y-9489984D02*
X19283277Y-9489984D01*
X19283277Y-9489984D02*
X19264230Y-9480460D01*
X19473754Y-9489984D02*
X19454706Y-9480460D01*
X19454706Y-9480460D02*
X19445182Y-9461412D01*
X19445182Y-9461412D02*
X19445182Y-9289984D01*
X19635658Y-9489984D02*
X19635658Y-9385222D01*
X19635658Y-9385222D02*
X19626135Y-9366174D01*
X19626135Y-9366174D02*
X19607087Y-9356650D01*
X19607087Y-9356650D02*
X19568992Y-9356650D01*
X19568992Y-9356650D02*
X19549944Y-9366174D01*
X19635658Y-9480460D02*
X19616611Y-9489984D01*
X19616611Y-9489984D02*
X19568992Y-9489984D01*
X19568992Y-9489984D02*
X19549944Y-9480460D01*
X19549944Y-9480460D02*
X19540420Y-9461412D01*
X19540420Y-9461412D02*
X19540420Y-9442365D01*
X19540420Y-9442365D02*
X19549944Y-9423317D01*
X19549944Y-9423317D02*
X19568992Y-9413793D01*
X19568992Y-9413793D02*
X19616611Y-9413793D01*
X19616611Y-9413793D02*
X19635658Y-9404270D01*
X19702325Y-9356650D02*
X19778515Y-9356650D01*
X19730896Y-9289984D02*
X19730896Y-9461412D01*
X19730896Y-9461412D02*
X19740420Y-9480460D01*
X19740420Y-9480460D02*
X19759468Y-9489984D01*
X19759468Y-9489984D02*
X19778515Y-9489984D01*
X19921373Y-9480460D02*
X19902325Y-9489984D01*
X19902325Y-9489984D02*
X19864230Y-9489984D01*
X19864230Y-9489984D02*
X19845182Y-9480460D01*
X19845182Y-9480460D02*
X19835658Y-9461412D01*
X19835658Y-9461412D02*
X19835658Y-9385222D01*
X19835658Y-9385222D02*
X19845182Y-9366174D01*
X19845182Y-9366174D02*
X19864230Y-9356650D01*
X19864230Y-9356650D02*
X19902325Y-9356650D01*
X19902325Y-9356650D02*
X19921373Y-9366174D01*
X19921373Y-9366174D02*
X19930896Y-9385222D01*
X19930896Y-9385222D02*
X19930896Y-9404270D01*
X19930896Y-9404270D02*
X19835658Y-9423317D01*
X20102325Y-9489984D02*
X20102325Y-9289984D01*
X20102325Y-9480460D02*
X20083277Y-9489984D01*
X20083277Y-9489984D02*
X20045182Y-9489984D01*
X20045182Y-9489984D02*
X20026135Y-9480460D01*
X20026135Y-9480460D02*
X20016611Y-9470936D01*
X20016611Y-9470936D02*
X20007087Y-9451889D01*
X20007087Y-9451889D02*
X20007087Y-9394746D01*
X20007087Y-9394746D02*
X20016611Y-9375698D01*
X20016611Y-9375698D02*
X20026135Y-9366174D01*
X20026135Y-9366174D02*
X20045182Y-9356650D01*
X20045182Y-9356650D02*
X20083277Y-9356650D01*
X20083277Y-9356650D02*
X20102325Y-9366174D01*
X20178516Y-9566174D02*
X20188039Y-9556650D01*
X20188039Y-9556650D02*
X20207087Y-9528079D01*
X20207087Y-9528079D02*
X20216611Y-9509031D01*
X20216611Y-9509031D02*
X20226135Y-9480460D01*
X20226135Y-9480460D02*
X20235658Y-9432841D01*
X20235658Y-9432841D02*
X20235658Y-9394746D01*
X20235658Y-9394746D02*
X20226135Y-9347127D01*
X20226135Y-9347127D02*
X20216611Y-9318555D01*
X20216611Y-9318555D02*
X20207087Y-9299508D01*
X20207087Y-9299508D02*
X20188039Y-9270936D01*
X20188039Y-9270936D02*
X20178516Y-9261412D01*
M02*
