%TF.GenerationSoftware,KiCad,Pcbnew,9.0.2*%
%TF.CreationDate,2025-11-07T15:55:12+08:00*%
%TF.ProjectId,TrlBoard,54726c42-6f61-4726-942e-6b696361645f,rev?*%
%TF.SameCoordinates,Original*%
%TF.FileFunction,Copper,L2,Bot*%
%TF.FilePolarity,Positive*%
%FSLAX46Y46*%
G04 Gerber Fmt 4.6, Leading zero omitted, Abs format (unit mm)*
G04 Created by KiCad (PCBNEW 9.0.2) date 2025-11-07 15:55:12*
%MOMM*%
%LPD*%
G01*
G04 APERTURE LIST*
%TA.AperFunction,HeatsinkPad*%
%ADD10C,0.600000*%
%TD*%
%TA.AperFunction,ComponentPad*%
%ADD11O,2.100000X1.000000*%
%TD*%
%TA.AperFunction,ComponentPad*%
%ADD12O,1.600000X1.000000*%
%TD*%
%TA.AperFunction,ComponentPad*%
%ADD13R,1.575000X1.575000*%
%TD*%
%TA.AperFunction,ComponentPad*%
%ADD14C,1.575000*%
%TD*%
%TA.AperFunction,ComponentPad*%
%ADD15C,0.600000*%
%TD*%
%TA.AperFunction,SMDPad,CuDef*%
%ADD16R,2.300000X2.300000*%
%TD*%
%TA.AperFunction,ComponentPad*%
%ADD17R,1.700000X1.700000*%
%TD*%
%TA.AperFunction,ComponentPad*%
%ADD18C,1.700000*%
%TD*%
%TA.AperFunction,ViaPad*%
%ADD19C,0.600000*%
%TD*%
%TA.AperFunction,ViaPad*%
%ADD20C,0.400000*%
%TD*%
%TA.AperFunction,Conductor*%
%ADD21C,0.400000*%
%TD*%
%TA.AperFunction,Conductor*%
%ADD22C,0.200000*%
%TD*%
G04 APERTURE END LIST*
D10*
%TO.P,U2,41,GND*%
%TO.N,GND*%
X142770000Y-76540000D03*
X144170000Y-76540000D03*
X142070000Y-75840000D03*
X143470000Y-75840000D03*
X144870000Y-75840000D03*
X142770000Y-75140000D03*
X144170000Y-75140000D03*
X142070000Y-74440000D03*
X143470000Y-74440000D03*
X144870000Y-74440000D03*
X142770000Y-73740000D03*
X144170000Y-73740000D03*
%TD*%
D11*
%TO.P,J5,S1,SHIELD*%
%TO.N,GND*%
X185320000Y-78311000D03*
D12*
X189500000Y-78311000D03*
D11*
X185320000Y-69671000D03*
D12*
X189500000Y-69671000D03*
%TD*%
D13*
%TO.P,J1,1,1*%
%TO.N,Net-(C4-Pad1)*%
X163500000Y-67000000D03*
D14*
%TO.P,J1,2,2*%
%TO.N,GND*%
X161000000Y-67000000D03*
%TD*%
D15*
%TO.P,U3,11,PGND*%
%TO.N,GND*%
X176750000Y-81061000D03*
X176750000Y-80061000D03*
D16*
X176251000Y-80561000D03*
D15*
X176250000Y-80561000D03*
X175750000Y-81061000D03*
X175750000Y-80061000D03*
%TD*%
D17*
%TO.P,J4,1,Pin_1*%
%TO.N,GND*%
X135740000Y-61230000D03*
D18*
%TO.P,J4,2,Pin_2*%
%TO.N,/GPIO1*%
X138280000Y-61230000D03*
%TO.P,J4,3,Pin_3*%
%TO.N,/GPIO2*%
X140820000Y-61230000D03*
%TO.P,J4,4,Pin_4*%
%TO.N,GND*%
X143360000Y-61230000D03*
%TO.P,J4,5,Pin_5*%
X145900000Y-61230000D03*
%TO.P,J4,6,Pin_6*%
%TO.N,/GPIO24*%
X148440000Y-61230000D03*
%TO.P,J4,7,Pin_7*%
%TO.N,/GPIO23*%
X150980000Y-61230000D03*
%TO.P,J4,8,Pin_8*%
%TO.N,/GPIO22*%
X153520000Y-61230000D03*
%TO.P,J4,9,Pin_9*%
%TO.N,/GPIO21*%
X156060000Y-61230000D03*
%TO.P,J4,10,Pin_10*%
%TO.N,/GPIO20*%
X158600000Y-61230000D03*
%TO.P,J4,11,Pin_11*%
%TO.N,/GPIO0*%
X161140000Y-61230000D03*
%TO.P,J4,12,Pin_12*%
%TO.N,/GPIO25*%
X163680000Y-61230000D03*
%TO.P,J4,13,Pin_13*%
%TO.N,/GPIO28*%
X166220000Y-61230000D03*
%TO.P,J4,14,Pin_14*%
%TO.N,/GPIO27*%
X168760000Y-61230000D03*
%TO.P,J4,15,Pin_15*%
%TO.N,/GPIO19*%
X171300000Y-61230000D03*
%TO.P,J4,16,Pin_16*%
%TO.N,/GPIO14*%
X173840000Y-61230000D03*
%TO.P,J4,17,Pin_17*%
%TO.N,/GPIO13*%
X176380000Y-61230000D03*
%TO.P,J4,18,Pin_18*%
%TO.N,VCC*%
X178920000Y-61230000D03*
%TO.P,J4,19,Pin_19*%
X181460000Y-61230000D03*
%TO.P,J4,20,Pin_20*%
%TO.N,+3.3V*%
X184000000Y-61230000D03*
%TO.P,J4,21,Pin_21*%
%TO.N,GND*%
X186540000Y-61230000D03*
%TO.P,J4,22,Pin_22*%
X189080000Y-61230000D03*
%TD*%
D17*
%TO.P,J2,1,Pin_1*%
%TO.N,+3.3V*%
X135740000Y-85950000D03*
D18*
%TO.P,J2,2,Pin_2*%
X138280000Y-85950000D03*
%TO.P,J2,3,Pin_3*%
%TO.N,/EN*%
X140820000Y-85950000D03*
%TO.P,J2,4,Pin_4*%
%TO.N,/GPIO4*%
X143360000Y-85950000D03*
%TO.P,J2,5,Pin_5*%
%TO.N,/GPIO5*%
X145900000Y-85950000D03*
%TO.P,J2,6,Pin_6*%
%TO.N,/GPIO6*%
X148440000Y-85950000D03*
%TO.P,J2,7,Pin_7*%
%TO.N,/GPIO7*%
X150980000Y-85950000D03*
%TO.P,J2,8,Pin_8*%
%TO.N,/GPIO15*%
X153520000Y-85950000D03*
%TO.P,J2,9,Pin_9*%
%TO.N,/GPIO16*%
X156060000Y-85950000D03*
%TO.P,J2,10,Pin_10*%
%TO.N,/GPIO17*%
X158600000Y-85950000D03*
%TO.P,J2,11,Pin_11*%
%TO.N,/GPIO18*%
X161140000Y-85950000D03*
%TO.P,J2,12,Pin_12*%
%TO.N,/GPIO8*%
X163680000Y-85950000D03*
%TO.P,J2,13,Pin_13*%
%TO.N,/GPIO3*%
X166220000Y-85950000D03*
%TO.P,J2,14,Pin_14*%
%TO.N,/GPIO26*%
X168760000Y-85950000D03*
%TO.P,J2,15,Pin_15*%
%TO.N,/D+*%
X171300000Y-85950000D03*
%TO.P,J2,16,Pin_16*%
%TO.N,/D-*%
X173840000Y-85950000D03*
%TO.P,J2,17,Pin_17*%
%TO.N,VCC*%
X176380000Y-85950000D03*
%TO.P,J2,18,Pin_18*%
X178920000Y-85950000D03*
%TO.P,J2,19,Pin_19*%
%TO.N,+3.3V*%
X181460000Y-85950000D03*
%TO.P,J2,20,Pin_20*%
%TO.N,GND*%
X184000000Y-85950000D03*
%TO.P,J2,21,Pin_21*%
X186540000Y-85950000D03*
%TO.P,J2,22,Pin_22*%
X189080000Y-85950000D03*
%TD*%
D19*
%TO.N,+3.3V*%
X177500000Y-74851000D03*
X153703523Y-81650000D03*
X157500000Y-75500000D03*
X156748472Y-71450001D03*
X176000000Y-73250000D03*
X149250000Y-79500000D03*
%TO.N,Net-(C4-Pad1)*%
X168000000Y-65750000D03*
%TO.N,Net-(U3-FB)*%
X168400000Y-80250000D03*
X169600000Y-80250000D03*
D20*
%TO.N,VCC*%
X174685000Y-64501000D03*
D19*
X176500000Y-68501000D03*
X178750000Y-83622000D03*
X173150000Y-66611000D03*
%TO.N,/EN*%
X138380000Y-81000000D03*
X154500000Y-81575002D03*
X161750000Y-81650000D03*
%TO.N,Net-(D1-A)*%
X180500000Y-79601000D03*
X174500000Y-68368100D03*
%TO.N,Net-(D1-K)*%
X173750000Y-67751000D03*
X179355000Y-75856000D03*
%TO.N,Net-(D2-A)*%
X171500000Y-68500000D03*
X178000000Y-72196000D03*
%TO.N,/GPIO16*%
X146000000Y-81000000D03*
%TO.N,/GPIO9*%
X163250000Y-71750000D03*
X155040000Y-77600000D03*
%TO.N,/GPIO18*%
X148500000Y-81000000D03*
%TO.N,/GPIO17*%
X147250000Y-81000000D03*
%TO.N,/GPIO8*%
X149750000Y-81000000D03*
%TO.N,/GPIO12*%
X155000000Y-74000000D03*
X156750000Y-72250000D03*
%TO.N,/GPIO11*%
X156750000Y-73750000D03*
X155000000Y-75250000D03*
%TO.N,/GPIO10*%
X163250000Y-70949997D03*
X155000000Y-76500000D03*
%TO.N,/GPIO25*%
X155000000Y-66500000D03*
%TO.N,/GPIO3*%
X154750000Y-80750000D03*
%TO.N,/GPIO23*%
X143500000Y-66500000D03*
%TO.N,/GPIO24*%
X142250000Y-66500000D03*
%TO.N,/GPIO0*%
X154750000Y-65500000D03*
%TO.N,/GPIO19*%
X155000000Y-70250000D03*
%TO.N,/GPIO20*%
X147250000Y-66500000D03*
%TO.N,/GPIO14*%
X155000000Y-71500000D03*
%TO.N,/GPIO26*%
X154970000Y-79500000D03*
%TO.N,/GPIO21*%
X146000000Y-66500000D03*
%TO.N,/GPIO13*%
X155000000Y-72750000D03*
%TO.N,/GPIO27*%
X155000000Y-69000000D03*
%TO.N,/GPIO22*%
X144750000Y-66500000D03*
%TO.N,/D-*%
X150750000Y-77750000D03*
%TO.N,/D+*%
X151500000Y-78299000D03*
%TO.N,/GPIO28*%
X155000000Y-67750000D03*
%TD*%
D21*
%TO.N,+3.3V*%
X153703523Y-81650000D02*
X153622911Y-81650000D01*
X176250000Y-73501000D02*
X176250000Y-73500000D01*
X177500000Y-74751000D02*
X176250000Y-73501000D01*
X151472911Y-79500000D02*
X149250000Y-79500000D01*
D22*
X157199997Y-71449997D02*
X157500000Y-71750000D01*
X157500000Y-71750000D02*
X157500000Y-75500000D01*
X156748472Y-71450001D02*
X156748476Y-71449997D01*
D21*
X176250000Y-73500000D02*
X176000000Y-73250000D01*
X177500000Y-74851000D02*
X177500000Y-74751000D01*
D22*
X156748476Y-71449997D02*
X157199997Y-71449997D01*
D21*
X153622911Y-81650000D02*
X151472911Y-79500000D01*
D22*
%TO.N,Net-(C4-Pad1)*%
X168000000Y-65750000D02*
X166750000Y-67000000D01*
X166750000Y-67000000D02*
X163500000Y-67000000D01*
%TO.N,Net-(U3-FB)*%
X168400000Y-80250000D02*
X169600000Y-80250000D01*
D21*
%TO.N,VCC*%
X176500000Y-68501000D02*
X175000000Y-67001000D01*
X177378000Y-83622000D02*
X176380000Y-84620000D01*
X178750000Y-83622000D02*
X178750000Y-85780000D01*
X174610000Y-66611000D02*
X175000000Y-67001000D01*
X176380000Y-84620000D02*
X176380000Y-85950000D01*
X178750000Y-83622000D02*
X177378000Y-83622000D01*
D22*
X174685000Y-64501000D02*
X174750000Y-64566000D01*
D21*
X173150000Y-66611000D02*
X174610000Y-66611000D01*
D22*
X174750000Y-64566000D02*
X174750000Y-66751000D01*
X174750000Y-66751000D02*
X175000000Y-67001000D01*
%TO.N,/EN*%
X154500000Y-81575002D02*
X151823998Y-78899000D01*
X154574998Y-81650000D02*
X154500000Y-81575002D01*
X138380000Y-80370000D02*
X138380000Y-81000000D01*
X161750000Y-81650000D02*
X154574998Y-81650000D01*
X139851000Y-78899000D02*
X138380000Y-80370000D01*
X151823998Y-78899000D02*
X139851000Y-78899000D01*
%TO.N,Net-(D1-A)*%
X174750000Y-68368100D02*
X174500000Y-68368100D01*
X180500000Y-79601000D02*
X181400000Y-80501000D01*
X187100000Y-79001000D02*
X187100000Y-69251000D01*
X185600000Y-80501000D02*
X187100000Y-79001000D01*
X186600000Y-68751000D02*
X183600000Y-68751000D01*
X175483900Y-69102000D02*
X174750000Y-68368100D01*
X183600000Y-68751000D02*
X183249000Y-69102000D01*
X181400000Y-80501000D02*
X185600000Y-80501000D01*
X183249000Y-69102000D02*
X175483900Y-69102000D01*
X187100000Y-69251000D02*
X186600000Y-68751000D01*
%TO.N,Net-(D1-K)*%
X179250000Y-70251000D02*
X179250000Y-72001000D01*
X179750000Y-72501000D02*
X179750000Y-75461000D01*
X179000000Y-70001000D02*
X179250000Y-70251000D01*
X173750000Y-67751000D02*
X173750000Y-69501000D01*
X179750000Y-75461000D02*
X179355000Y-75856000D01*
X174250000Y-70001000D02*
X179000000Y-70001000D01*
X173750000Y-69501000D02*
X174250000Y-70001000D01*
X179250000Y-72001000D02*
X179750000Y-72501000D01*
%TO.N,Net-(D2-A)*%
X176804000Y-71000000D02*
X178000000Y-72196000D01*
X171500000Y-68500000D02*
X174000000Y-71000000D01*
X174000000Y-71000000D02*
X176804000Y-71000000D01*
%TO.N,/GPIO16*%
X154860000Y-84750000D02*
X156060000Y-85950000D01*
X146500000Y-84750000D02*
X154860000Y-84750000D01*
X146000000Y-84250000D02*
X146500000Y-84750000D01*
X146000000Y-81000000D02*
X146000000Y-84250000D01*
%TO.N,/GPIO9*%
X162750000Y-72250000D02*
X162750000Y-75250000D01*
X162750000Y-75250000D02*
X160400000Y-77600000D01*
X163250000Y-71750000D02*
X162750000Y-72250000D01*
X160400000Y-77600000D02*
X155040000Y-77600000D01*
%TO.N,/GPIO18*%
X148500000Y-81000000D02*
X148500000Y-83750000D01*
X148500000Y-83750000D02*
X148698000Y-83948000D01*
X148698000Y-83948000D02*
X159138000Y-83948000D01*
X159138000Y-83948000D02*
X161140000Y-85950000D01*
%TO.N,/GPIO17*%
X147250000Y-81000000D02*
X147250000Y-83932900D01*
X147250000Y-83932900D02*
X147666100Y-84349000D01*
X147666100Y-84349000D02*
X156999000Y-84349000D01*
X156999000Y-84349000D02*
X158600000Y-85950000D01*
%TO.N,/GPIO8*%
X150047000Y-83547000D02*
X161277000Y-83547000D01*
X149750000Y-83250000D02*
X150047000Y-83547000D01*
X149750000Y-81000000D02*
X149750000Y-83250000D01*
X161277000Y-83547000D02*
X163680000Y-85950000D01*
%TO.N,/GPIO12*%
X155000000Y-74000000D02*
X156750000Y-72250000D01*
%TO.N,/GPIO11*%
X156750000Y-73750000D02*
X156500000Y-73750000D01*
X156500000Y-73750000D02*
X155000000Y-75250000D01*
%TO.N,/GPIO10*%
X163200060Y-70949997D02*
X162349000Y-71801057D01*
X161683957Y-75748943D02*
X159001057Y-75748943D01*
X159001057Y-75748943D02*
X158250000Y-76500000D01*
X162349000Y-75083900D02*
X161683957Y-75748943D01*
X158250000Y-76500000D02*
X155000000Y-76500000D01*
X162349000Y-71801057D02*
X162349000Y-75083900D01*
X163250000Y-70949997D02*
X163200060Y-70949997D01*
%TO.N,/GPIO25*%
X161901000Y-64849000D02*
X163680000Y-63070000D01*
X163680000Y-63070000D02*
X163680000Y-61230000D01*
X156651000Y-64849000D02*
X161901000Y-64849000D01*
X155000000Y-66500000D02*
X156651000Y-64849000D01*
%TO.N,/GPIO3*%
X161699943Y-80750000D02*
X166220000Y-85270057D01*
X154750000Y-80750000D02*
X161699943Y-80750000D01*
%TO.N,/GPIO23*%
X150401000Y-63099000D02*
X146651000Y-63099000D01*
X150980000Y-62520000D02*
X150401000Y-63099000D01*
X143500000Y-66250000D02*
X143500000Y-66500000D01*
X146651000Y-63099000D02*
X143500000Y-66250000D01*
X150980000Y-61230000D02*
X150980000Y-62520000D01*
%TO.N,/GPIO24*%
X147802000Y-62698000D02*
X146302000Y-62698000D01*
X142851000Y-65899000D02*
X142250000Y-66500000D01*
X143101000Y-65899000D02*
X142851000Y-65899000D01*
X148440000Y-61230000D02*
X148440000Y-62060000D01*
X146302000Y-62698000D02*
X143101000Y-65899000D01*
X148440000Y-62060000D02*
X147802000Y-62698000D01*
%TO.N,/GPIO0*%
X154750000Y-65500000D02*
X156000000Y-64250000D01*
X161140000Y-62860000D02*
X161140000Y-61230000D01*
X156000000Y-64250000D02*
X159750000Y-64250000D01*
X159750000Y-64250000D02*
X161140000Y-62860000D01*
%TO.N,/GPIO19*%
X167250000Y-68500000D02*
X171250000Y-64500000D01*
X155000000Y-70250000D02*
X155643528Y-70250000D01*
X157393528Y-68500000D02*
X167250000Y-68500000D01*
X171250000Y-64500000D02*
X171250000Y-61280000D01*
X155643528Y-70250000D02*
X157393528Y-68500000D01*
%TO.N,/GPIO20*%
X158600000Y-62900000D02*
X158600000Y-61230000D01*
X155833900Y-63849000D02*
X157651000Y-63849000D01*
X155182900Y-64500000D02*
X155833900Y-63849000D01*
X157651000Y-63849000D02*
X158600000Y-62900000D01*
X147250000Y-65500000D02*
X148250000Y-64500000D01*
X147250000Y-66500000D02*
X147250000Y-65500000D01*
X148250000Y-64500000D02*
X155182900Y-64500000D01*
%TO.N,/GPIO14*%
X168289396Y-69000000D02*
X173840000Y-63449396D01*
X173840000Y-63449396D02*
X173840000Y-61230000D01*
X155000000Y-71460628D02*
X157460628Y-69000000D01*
X157460628Y-69000000D02*
X168289396Y-69000000D01*
X155000000Y-71500000D02*
X155000000Y-71460628D01*
%TO.N,/GPIO26*%
X162310000Y-79500000D02*
X168760000Y-85950000D01*
X154970000Y-79500000D02*
X162310000Y-79500000D01*
%TO.N,/GPIO21*%
X146000000Y-65750000D02*
X147750000Y-64000000D01*
X147750000Y-64000000D02*
X155000000Y-64000000D01*
X146000000Y-66500000D02*
X146000000Y-65750000D01*
X156060000Y-62940000D02*
X156060000Y-61230000D01*
X155000000Y-64000000D02*
X156060000Y-62940000D01*
%TO.N,/GPIO13*%
X176380000Y-61894572D02*
X168774572Y-69500000D01*
X168774572Y-69500000D02*
X157849944Y-69500000D01*
X157849944Y-69500000D02*
X155000000Y-72349944D01*
X155000000Y-72349944D02*
X155000000Y-72750000D01*
%TO.N,/GPIO27*%
X166338500Y-65911500D02*
X158088500Y-65911500D01*
X158088500Y-65911500D02*
X155000000Y-69000000D01*
X168760000Y-61230000D02*
X168760000Y-63490000D01*
X168760000Y-63490000D02*
X166338500Y-65911500D01*
%TO.N,/GPIO22*%
X147000000Y-63500000D02*
X152750000Y-63500000D01*
X152750000Y-63500000D02*
X153520000Y-62730000D01*
X144750000Y-66500000D02*
X144750000Y-65750000D01*
X153520000Y-62730000D02*
X153520000Y-61230000D01*
X144750000Y-65750000D02*
X147000000Y-63500000D01*
%TO.N,/D-*%
X151000000Y-77500000D02*
X154090057Y-77500000D01*
X154939057Y-78349000D02*
X165649057Y-78349000D01*
X154090057Y-77500000D02*
X154939057Y-78349000D01*
X150750000Y-77750000D02*
X151000000Y-77500000D01*
X165649057Y-78349000D02*
X173250057Y-85950000D01*
%TO.N,/D+*%
X151791098Y-78299000D02*
X152242098Y-78750000D01*
X152242098Y-78750000D02*
X164100000Y-78750000D01*
X164100000Y-78750000D02*
X171300000Y-85950000D01*
X151500000Y-78299000D02*
X151791098Y-78299000D01*
%TO.N,/GPIO28*%
X166220000Y-63530000D02*
X166220000Y-61230000D01*
X157500000Y-65250000D02*
X164500000Y-65250000D01*
X164500000Y-65250000D02*
X166220000Y-63530000D01*
X155000000Y-67750000D02*
X157500000Y-65250000D01*
%TD*%
%TA.AperFunction,Conductor*%
%TO.N,GND*%
G36*
X190527826Y-59842174D02*
G01*
X190549500Y-59894500D01*
X190549500Y-87285500D01*
X190527826Y-87337826D01*
X190475500Y-87359500D01*
X134524500Y-87359500D01*
X134472174Y-87337826D01*
X134450500Y-87285500D01*
X134450500Y-85080253D01*
X134689500Y-85080253D01*
X134689500Y-86819746D01*
X134701133Y-86878232D01*
X134730608Y-86922343D01*
X134745448Y-86944552D01*
X134789560Y-86974027D01*
X134811767Y-86988866D01*
X134811768Y-86988866D01*
X134811769Y-86988867D01*
X134870252Y-87000500D01*
X134870254Y-87000500D01*
X136609746Y-87000500D01*
X136609748Y-87000500D01*
X136668231Y-86988867D01*
X136734552Y-86944552D01*
X136778867Y-86878231D01*
X136790500Y-86819748D01*
X136790500Y-85846535D01*
X137229500Y-85846535D01*
X137229500Y-86053464D01*
X137269868Y-86256413D01*
X137269870Y-86256420D01*
X137349059Y-86447598D01*
X137464023Y-86619655D01*
X137610345Y-86765977D01*
X137782402Y-86880941D01*
X137973580Y-86960130D01*
X138176535Y-87000500D01*
X138176536Y-87000500D01*
X138383464Y-87000500D01*
X138383465Y-87000500D01*
X138586420Y-86960130D01*
X138777598Y-86880941D01*
X138949655Y-86765977D01*
X139095977Y-86619655D01*
X139210941Y-86447598D01*
X139290130Y-86256420D01*
X139330500Y-86053465D01*
X139330500Y-85846535D01*
X139769500Y-85846535D01*
X139769500Y-86053464D01*
X139809868Y-86256413D01*
X139809870Y-86256420D01*
X139889059Y-86447598D01*
X140004023Y-86619655D01*
X140150345Y-86765977D01*
X140322402Y-86880941D01*
X140513580Y-86960130D01*
X140716535Y-87000500D01*
X140716536Y-87000500D01*
X140923464Y-87000500D01*
X140923465Y-87000500D01*
X141126420Y-86960130D01*
X141317598Y-86880941D01*
X141489655Y-86765977D01*
X141635977Y-86619655D01*
X141750941Y-86447598D01*
X141830130Y-86256420D01*
X141870500Y-86053465D01*
X141870500Y-85846535D01*
X142309500Y-85846535D01*
X142309500Y-86053464D01*
X142349868Y-86256413D01*
X142349870Y-86256420D01*
X142429059Y-86447598D01*
X142544023Y-86619655D01*
X142690345Y-86765977D01*
X142862402Y-86880941D01*
X143053580Y-86960130D01*
X143256535Y-87000500D01*
X143256536Y-87000500D01*
X143463464Y-87000500D01*
X143463465Y-87000500D01*
X143666420Y-86960130D01*
X143857598Y-86880941D01*
X144029655Y-86765977D01*
X144175977Y-86619655D01*
X144290941Y-86447598D01*
X144370130Y-86256420D01*
X144410500Y-86053465D01*
X144410500Y-85846535D01*
X144849500Y-85846535D01*
X144849500Y-86053464D01*
X144889868Y-86256413D01*
X144889870Y-86256420D01*
X144969059Y-86447598D01*
X145084023Y-86619655D01*
X145230345Y-86765977D01*
X145402402Y-86880941D01*
X145593580Y-86960130D01*
X145796535Y-87000500D01*
X145796536Y-87000500D01*
X146003464Y-87000500D01*
X146003465Y-87000500D01*
X146206420Y-86960130D01*
X146397598Y-86880941D01*
X146569655Y-86765977D01*
X146715977Y-86619655D01*
X146830941Y-86447598D01*
X146910130Y-86256420D01*
X146950500Y-86053465D01*
X146950500Y-85846535D01*
X146910130Y-85643580D01*
X146830941Y-85452402D01*
X146715977Y-85280345D01*
X146612458Y-85176826D01*
X146590784Y-85124500D01*
X146612458Y-85072174D01*
X146664784Y-85050500D01*
X147675216Y-85050500D01*
X147727542Y-85072174D01*
X147749216Y-85124500D01*
X147727542Y-85176826D01*
X147624024Y-85280344D01*
X147624022Y-85280345D01*
X147509059Y-85452401D01*
X147429870Y-85643579D01*
X147429868Y-85643586D01*
X147389500Y-85846535D01*
X147389500Y-86053464D01*
X147429868Y-86256413D01*
X147429870Y-86256420D01*
X147509059Y-86447598D01*
X147624023Y-86619655D01*
X147770345Y-86765977D01*
X147942402Y-86880941D01*
X148133580Y-86960130D01*
X148336535Y-87000500D01*
X148336536Y-87000500D01*
X148543464Y-87000500D01*
X148543465Y-87000500D01*
X148746420Y-86960130D01*
X148937598Y-86880941D01*
X149109655Y-86765977D01*
X149255977Y-86619655D01*
X149370941Y-86447598D01*
X149450130Y-86256420D01*
X149490500Y-86053465D01*
X149490500Y-85846535D01*
X149450130Y-85643580D01*
X149370941Y-85452402D01*
X149255977Y-85280345D01*
X149152458Y-85176826D01*
X149130784Y-85124500D01*
X149152458Y-85072174D01*
X149204784Y-85050500D01*
X150215216Y-85050500D01*
X150267542Y-85072174D01*
X150289216Y-85124500D01*
X150267542Y-85176826D01*
X150164024Y-85280344D01*
X150164022Y-85280345D01*
X150049059Y-85452401D01*
X149969870Y-85643579D01*
X149969868Y-85643586D01*
X149929500Y-85846535D01*
X149929500Y-86053464D01*
X149969868Y-86256413D01*
X149969870Y-86256420D01*
X150049059Y-86447598D01*
X150164023Y-86619655D01*
X150310345Y-86765977D01*
X150482402Y-86880941D01*
X150673580Y-86960130D01*
X150876535Y-87000500D01*
X150876536Y-87000500D01*
X151083464Y-87000500D01*
X151083465Y-87000500D01*
X151286420Y-86960130D01*
X151477598Y-86880941D01*
X151649655Y-86765977D01*
X151795977Y-86619655D01*
X151910941Y-86447598D01*
X151990130Y-86256420D01*
X152030500Y-86053465D01*
X152030500Y-85846535D01*
X151990130Y-85643580D01*
X151910941Y-85452402D01*
X151795977Y-85280345D01*
X151692458Y-85176826D01*
X151670784Y-85124500D01*
X151692458Y-85072174D01*
X151744784Y-85050500D01*
X152755216Y-85050500D01*
X152807542Y-85072174D01*
X152829216Y-85124500D01*
X152807542Y-85176826D01*
X152704024Y-85280344D01*
X152704022Y-85280345D01*
X152589059Y-85452401D01*
X152509870Y-85643579D01*
X152509868Y-85643586D01*
X152469500Y-85846535D01*
X152469500Y-86053464D01*
X152509868Y-86256413D01*
X152509870Y-86256420D01*
X152589059Y-86447598D01*
X152704023Y-86619655D01*
X152850345Y-86765977D01*
X153022402Y-86880941D01*
X153213580Y-86960130D01*
X153416535Y-87000500D01*
X153416536Y-87000500D01*
X153623464Y-87000500D01*
X153623465Y-87000500D01*
X153826420Y-86960130D01*
X154017598Y-86880941D01*
X154189655Y-86765977D01*
X154335977Y-86619655D01*
X154450941Y-86447598D01*
X154530130Y-86256420D01*
X154570500Y-86053465D01*
X154570500Y-85846535D01*
X154530130Y-85643580D01*
X154450941Y-85452402D01*
X154335977Y-85280345D01*
X154232458Y-85176826D01*
X154210784Y-85124500D01*
X154232458Y-85072174D01*
X154284784Y-85050500D01*
X154704877Y-85050500D01*
X154757203Y-85072174D01*
X155096548Y-85411519D01*
X155118222Y-85463845D01*
X155112589Y-85492164D01*
X155049870Y-85643579D01*
X155049868Y-85643586D01*
X155009500Y-85846535D01*
X155009500Y-86053464D01*
X155049868Y-86256413D01*
X155049870Y-86256420D01*
X155129059Y-86447598D01*
X155244023Y-86619655D01*
X155390345Y-86765977D01*
X155562402Y-86880941D01*
X155753580Y-86960130D01*
X155956535Y-87000500D01*
X155956536Y-87000500D01*
X156163464Y-87000500D01*
X156163465Y-87000500D01*
X156366420Y-86960130D01*
X156557598Y-86880941D01*
X156729655Y-86765977D01*
X156875977Y-86619655D01*
X156990941Y-86447598D01*
X157070130Y-86256420D01*
X157110500Y-86053465D01*
X157110500Y-85846535D01*
X157070130Y-85643580D01*
X156990941Y-85452402D01*
X156875977Y-85280345D01*
X156729655Y-85134023D01*
X156726663Y-85132024D01*
X156557598Y-85019059D01*
X156366420Y-84939870D01*
X156366413Y-84939868D01*
X156200160Y-84906799D01*
X156163465Y-84899500D01*
X155956535Y-84899500D01*
X155919840Y-84906799D01*
X155753586Y-84939868D01*
X155753579Y-84939870D01*
X155602164Y-85002589D01*
X155545526Y-85002589D01*
X155521519Y-84986548D01*
X155310797Y-84775826D01*
X155289123Y-84723500D01*
X155310797Y-84671174D01*
X155363123Y-84649500D01*
X156843877Y-84649500D01*
X156896203Y-84671174D01*
X157636548Y-85411519D01*
X157658222Y-85463845D01*
X157652589Y-85492164D01*
X157589870Y-85643579D01*
X157589868Y-85643586D01*
X157549500Y-85846535D01*
X157549500Y-86053464D01*
X157589868Y-86256413D01*
X157589870Y-86256420D01*
X157669059Y-86447598D01*
X157784023Y-86619655D01*
X157930345Y-86765977D01*
X158102402Y-86880941D01*
X158293580Y-86960130D01*
X158496535Y-87000500D01*
X158496536Y-87000500D01*
X158703464Y-87000500D01*
X158703465Y-87000500D01*
X158906420Y-86960130D01*
X159097598Y-86880941D01*
X159269655Y-86765977D01*
X159415977Y-86619655D01*
X159530941Y-86447598D01*
X159610130Y-86256420D01*
X159650500Y-86053465D01*
X159650500Y-85846535D01*
X159610130Y-85643580D01*
X159530941Y-85452402D01*
X159415977Y-85280345D01*
X159269655Y-85134023D01*
X159266663Y-85132024D01*
X159097598Y-85019059D01*
X158906420Y-84939870D01*
X158906413Y-84939868D01*
X158740160Y-84906799D01*
X158703465Y-84899500D01*
X158496535Y-84899500D01*
X158459840Y-84906799D01*
X158293586Y-84939868D01*
X158293579Y-84939870D01*
X158142164Y-85002589D01*
X158085526Y-85002589D01*
X158061519Y-84986548D01*
X157449797Y-84374826D01*
X157428123Y-84322500D01*
X157449797Y-84270174D01*
X157502123Y-84248500D01*
X158982877Y-84248500D01*
X159035203Y-84270174D01*
X160176548Y-85411519D01*
X160198222Y-85463845D01*
X160192589Y-85492164D01*
X160129870Y-85643579D01*
X160129868Y-85643586D01*
X160089500Y-85846535D01*
X160089500Y-86053464D01*
X160129868Y-86256413D01*
X160129870Y-86256420D01*
X160209059Y-86447598D01*
X160324023Y-86619655D01*
X160470345Y-86765977D01*
X160642402Y-86880941D01*
X160833580Y-86960130D01*
X161036535Y-87000500D01*
X161036536Y-87000500D01*
X161243464Y-87000500D01*
X161243465Y-87000500D01*
X161446420Y-86960130D01*
X161637598Y-86880941D01*
X161809655Y-86765977D01*
X161955977Y-86619655D01*
X162070941Y-86447598D01*
X162150130Y-86256420D01*
X162190500Y-86053465D01*
X162190500Y-85846535D01*
X162150130Y-85643580D01*
X162070941Y-85452402D01*
X161955977Y-85280345D01*
X161809655Y-85134023D01*
X161806663Y-85132024D01*
X161637598Y-85019059D01*
X161446420Y-84939870D01*
X161446413Y-84939868D01*
X161280160Y-84906799D01*
X161243465Y-84899500D01*
X161036535Y-84899500D01*
X160999840Y-84906799D01*
X160833586Y-84939868D01*
X160833579Y-84939870D01*
X160682164Y-85002589D01*
X160625526Y-85002589D01*
X160601519Y-84986548D01*
X159588797Y-83973826D01*
X159567123Y-83921500D01*
X159588797Y-83869174D01*
X159641123Y-83847500D01*
X161121877Y-83847500D01*
X161174203Y-83869174D01*
X162716548Y-85411519D01*
X162738222Y-85463845D01*
X162732589Y-85492164D01*
X162669870Y-85643579D01*
X162669868Y-85643586D01*
X162629500Y-85846535D01*
X162629500Y-86053464D01*
X162669868Y-86256413D01*
X162669870Y-86256420D01*
X162749059Y-86447598D01*
X162864023Y-86619655D01*
X163010345Y-86765977D01*
X163182402Y-86880941D01*
X163373580Y-86960130D01*
X163576535Y-87000500D01*
X163576536Y-87000500D01*
X163783464Y-87000500D01*
X163783465Y-87000500D01*
X163986420Y-86960130D01*
X164177598Y-86880941D01*
X164349655Y-86765977D01*
X164495977Y-86619655D01*
X164610941Y-86447598D01*
X164690130Y-86256420D01*
X164730500Y-86053465D01*
X164730500Y-85846535D01*
X164690130Y-85643580D01*
X164610941Y-85452402D01*
X164495977Y-85280345D01*
X164349655Y-85134023D01*
X164346663Y-85132024D01*
X164177598Y-85019059D01*
X163986420Y-84939870D01*
X163986413Y-84939868D01*
X163820160Y-84906799D01*
X163783465Y-84899500D01*
X163576535Y-84899500D01*
X163539840Y-84906799D01*
X163373586Y-84939868D01*
X163373579Y-84939870D01*
X163222164Y-85002589D01*
X163165526Y-85002589D01*
X163141519Y-84986548D01*
X161461511Y-83306540D01*
X161452816Y-83301520D01*
X161392990Y-83266979D01*
X161392985Y-83266977D01*
X161316564Y-83246500D01*
X161316562Y-83246500D01*
X150202123Y-83246500D01*
X150149797Y-83224826D01*
X150072174Y-83147203D01*
X150050500Y-83094877D01*
X150050500Y-81437966D01*
X150072174Y-81385640D01*
X150110832Y-81346982D01*
X150150500Y-81307314D01*
X150216392Y-81193186D01*
X150250499Y-81065894D01*
X150250500Y-81065894D01*
X150250500Y-80934106D01*
X150250499Y-80934105D01*
X150216393Y-80806818D01*
X150216392Y-80806814D01*
X150150500Y-80692686D01*
X150057314Y-80599500D01*
X149983380Y-80556814D01*
X149943190Y-80533610D01*
X149943181Y-80533606D01*
X149815894Y-80499500D01*
X149815892Y-80499500D01*
X149684108Y-80499500D01*
X149684106Y-80499500D01*
X149556818Y-80533606D01*
X149556809Y-80533610D01*
X149442685Y-80599500D01*
X149349500Y-80692685D01*
X149283610Y-80806809D01*
X149283606Y-80806818D01*
X149249500Y-80934105D01*
X149249500Y-81065894D01*
X149283606Y-81193181D01*
X149283610Y-81193190D01*
X149349500Y-81307314D01*
X149427826Y-81385640D01*
X149449500Y-81437966D01*
X149449500Y-83289564D01*
X149469978Y-83365988D01*
X149493533Y-83406788D01*
X149493534Y-83406788D01*
X149509537Y-83434507D01*
X149509538Y-83434508D01*
X149509540Y-83434511D01*
X149596204Y-83521175D01*
X149617878Y-83573500D01*
X149596204Y-83625826D01*
X149543878Y-83647500D01*
X148874500Y-83647500D01*
X148822174Y-83625826D01*
X148800500Y-83573500D01*
X148800500Y-81437966D01*
X148822174Y-81385640D01*
X148860832Y-81346982D01*
X148900500Y-81307314D01*
X148966392Y-81193186D01*
X149000499Y-81065894D01*
X149000500Y-81065894D01*
X149000500Y-80934106D01*
X149000499Y-80934105D01*
X148966393Y-80806818D01*
X148966392Y-80806814D01*
X148900500Y-80692686D01*
X148807314Y-80599500D01*
X148733380Y-80556814D01*
X148693190Y-80533610D01*
X148693181Y-80533606D01*
X148565894Y-80499500D01*
X148565892Y-80499500D01*
X148434108Y-80499500D01*
X148434106Y-80499500D01*
X148306818Y-80533606D01*
X148306809Y-80533610D01*
X148192685Y-80599500D01*
X148099500Y-80692685D01*
X148033610Y-80806809D01*
X148033606Y-80806818D01*
X147999500Y-80934105D01*
X147999500Y-81065894D01*
X148033606Y-81193181D01*
X148033610Y-81193190D01*
X148099500Y-81307314D01*
X148177826Y-81385640D01*
X148199500Y-81437966D01*
X148199500Y-83789564D01*
X148219977Y-83865985D01*
X148219978Y-83865987D01*
X148219979Y-83865989D01*
X148221090Y-83867913D01*
X148256540Y-83929314D01*
X148261266Y-83937500D01*
X148268658Y-83993653D01*
X148234180Y-84038586D01*
X148197180Y-84048500D01*
X147821223Y-84048500D01*
X147768897Y-84026826D01*
X147572174Y-83830103D01*
X147550500Y-83777777D01*
X147550500Y-81437966D01*
X147572174Y-81385640D01*
X147610832Y-81346982D01*
X147650500Y-81307314D01*
X147716392Y-81193186D01*
X147750499Y-81065894D01*
X147750500Y-81065894D01*
X147750500Y-80934106D01*
X147750499Y-80934105D01*
X147716393Y-80806818D01*
X147716392Y-80806814D01*
X147650500Y-80692686D01*
X147557314Y-80599500D01*
X147483380Y-80556814D01*
X147443190Y-80533610D01*
X147443181Y-80533606D01*
X147315894Y-80499500D01*
X147315892Y-80499500D01*
X147184108Y-80499500D01*
X147184106Y-80499500D01*
X147056818Y-80533606D01*
X147056809Y-80533610D01*
X146942685Y-80599500D01*
X146849500Y-80692685D01*
X146783610Y-80806809D01*
X146783606Y-80806818D01*
X146749500Y-80934105D01*
X146749500Y-81065894D01*
X146783606Y-81193181D01*
X146783610Y-81193190D01*
X146849500Y-81307314D01*
X146927826Y-81385640D01*
X146949500Y-81437966D01*
X146949500Y-83972464D01*
X146969977Y-84048885D01*
X146969979Y-84048890D01*
X146978697Y-84063989D01*
X147009540Y-84117411D01*
X147215303Y-84323174D01*
X147236977Y-84375500D01*
X147215303Y-84427826D01*
X147162977Y-84449500D01*
X146655123Y-84449500D01*
X146602797Y-84427826D01*
X146322174Y-84147203D01*
X146300500Y-84094877D01*
X146300500Y-81437966D01*
X146322174Y-81385640D01*
X146360832Y-81346982D01*
X146400500Y-81307314D01*
X146466392Y-81193186D01*
X146500499Y-81065894D01*
X146500500Y-81065894D01*
X146500500Y-80934106D01*
X146500499Y-80934105D01*
X146466393Y-80806818D01*
X146466392Y-80806814D01*
X146400500Y-80692686D01*
X146307314Y-80599500D01*
X146233380Y-80556814D01*
X146193190Y-80533610D01*
X146193181Y-80533606D01*
X146065894Y-80499500D01*
X146065892Y-80499500D01*
X145934108Y-80499500D01*
X145934106Y-80499500D01*
X145806818Y-80533606D01*
X145806809Y-80533610D01*
X145692685Y-80599500D01*
X145599500Y-80692685D01*
X145533610Y-80806809D01*
X145533606Y-80806818D01*
X145499500Y-80934105D01*
X145499500Y-81065894D01*
X145533606Y-81193181D01*
X145533610Y-81193190D01*
X145599500Y-81307314D01*
X145677826Y-81385640D01*
X145699500Y-81437966D01*
X145699500Y-84289564D01*
X145719977Y-84365985D01*
X145719979Y-84365990D01*
X145759540Y-84434511D01*
X146106924Y-84781895D01*
X146128598Y-84834221D01*
X146106924Y-84886547D01*
X146054598Y-84908221D01*
X146040162Y-84906799D01*
X146003465Y-84899500D01*
X145796535Y-84899500D01*
X145759840Y-84906799D01*
X145593586Y-84939868D01*
X145593579Y-84939870D01*
X145402401Y-85019059D01*
X145230345Y-85134022D01*
X145230344Y-85134024D01*
X145084024Y-85280344D01*
X145084022Y-85280345D01*
X144969059Y-85452401D01*
X144889870Y-85643579D01*
X144889868Y-85643586D01*
X144849500Y-85846535D01*
X144410500Y-85846535D01*
X144370130Y-85643580D01*
X144290941Y-85452402D01*
X144175977Y-85280345D01*
X144029655Y-85134023D01*
X144026663Y-85132024D01*
X143857598Y-85019059D01*
X143666420Y-84939870D01*
X143666413Y-84939868D01*
X143500160Y-84906799D01*
X143463465Y-84899500D01*
X143256535Y-84899500D01*
X143219840Y-84906799D01*
X143053586Y-84939868D01*
X143053579Y-84939870D01*
X142862401Y-85019059D01*
X142690345Y-85134022D01*
X142690344Y-85134024D01*
X142544024Y-85280344D01*
X142544022Y-85280345D01*
X142429059Y-85452401D01*
X142349870Y-85643579D01*
X142349868Y-85643586D01*
X142309500Y-85846535D01*
X141870500Y-85846535D01*
X141830130Y-85643580D01*
X141750941Y-85452402D01*
X141635977Y-85280345D01*
X141489655Y-85134023D01*
X141486663Y-85132024D01*
X141317598Y-85019059D01*
X141126420Y-84939870D01*
X141126413Y-84939868D01*
X140960160Y-84906799D01*
X140923465Y-84899500D01*
X140716535Y-84899500D01*
X140679840Y-84906799D01*
X140513586Y-84939868D01*
X140513579Y-84939870D01*
X140322401Y-85019059D01*
X140150345Y-85134022D01*
X140150344Y-85134024D01*
X140004024Y-85280344D01*
X140004022Y-85280345D01*
X139889059Y-85452401D01*
X139809870Y-85643579D01*
X139809868Y-85643586D01*
X139769500Y-85846535D01*
X139330500Y-85846535D01*
X139290130Y-85643580D01*
X139210941Y-85452402D01*
X139095977Y-85280345D01*
X138949655Y-85134023D01*
X138946663Y-85132024D01*
X138777598Y-85019059D01*
X138586420Y-84939870D01*
X138586413Y-84939868D01*
X138420160Y-84906799D01*
X138383465Y-84899500D01*
X138176535Y-84899500D01*
X138139840Y-84906799D01*
X137973586Y-84939868D01*
X137973579Y-84939870D01*
X137782401Y-85019059D01*
X137610345Y-85134022D01*
X137610344Y-85134024D01*
X137464024Y-85280344D01*
X137464022Y-85280345D01*
X137349059Y-85452401D01*
X137269870Y-85643579D01*
X137269868Y-85643586D01*
X137229500Y-85846535D01*
X136790500Y-85846535D01*
X136790500Y-85080252D01*
X136778867Y-85021769D01*
X136777056Y-85019059D01*
X136755870Y-84987352D01*
X136734552Y-84955448D01*
X136711235Y-84939868D01*
X136668232Y-84911133D01*
X136668233Y-84911133D01*
X136638152Y-84905150D01*
X136609748Y-84899500D01*
X134870252Y-84899500D01*
X134841848Y-84905150D01*
X134811767Y-84911133D01*
X134745449Y-84955447D01*
X134745447Y-84955449D01*
X134701133Y-85021767D01*
X134689500Y-85080253D01*
X134450500Y-85080253D01*
X134450500Y-80934105D01*
X137879500Y-80934105D01*
X137879500Y-81065894D01*
X137913606Y-81193181D01*
X137913607Y-81193184D01*
X137913608Y-81193186D01*
X137979500Y-81307314D01*
X138072686Y-81400500D01*
X138186814Y-81466392D01*
X138314105Y-81500499D01*
X138314106Y-81500500D01*
X138314108Y-81500500D01*
X138445894Y-81500500D01*
X138445894Y-81500499D01*
X138573186Y-81466392D01*
X138687314Y-81400500D01*
X138780500Y-81307314D01*
X138846392Y-81193186D01*
X138880499Y-81065894D01*
X138880500Y-81065894D01*
X138880500Y-80934106D01*
X138880499Y-80934105D01*
X138846393Y-80806818D01*
X138846392Y-80806814D01*
X138780500Y-80692686D01*
X138702174Y-80614360D01*
X138680500Y-80562034D01*
X138680500Y-80525123D01*
X138702174Y-80472797D01*
X139953797Y-79221174D01*
X140006123Y-79199500D01*
X148717394Y-79199500D01*
X148769720Y-79221174D01*
X148791394Y-79273500D01*
X148783844Y-79301657D01*
X148785466Y-79302329D01*
X148783606Y-79306818D01*
X148749500Y-79434105D01*
X148749500Y-79565894D01*
X148783606Y-79693181D01*
X148783610Y-79693190D01*
X148841923Y-79794190D01*
X148849500Y-79807314D01*
X148942686Y-79900500D01*
X149056814Y-79966392D01*
X149184105Y-80000499D01*
X149184106Y-80000500D01*
X149184108Y-80000500D01*
X149315894Y-80000500D01*
X149315894Y-80000499D01*
X149443186Y-79966392D01*
X149519774Y-79922174D01*
X149540143Y-79910414D01*
X149577143Y-79900500D01*
X151276366Y-79900500D01*
X151328692Y-79922174D01*
X153218508Y-81811990D01*
X153234194Y-81839155D01*
X153235276Y-81838707D01*
X153237131Y-81843187D01*
X153277227Y-81912634D01*
X153303023Y-81957314D01*
X153396209Y-82050500D01*
X153510337Y-82116392D01*
X153637628Y-82150499D01*
X153637629Y-82150500D01*
X153637631Y-82150500D01*
X153769417Y-82150500D01*
X153769417Y-82150499D01*
X153896709Y-82116392D01*
X154010837Y-82050500D01*
X154086935Y-81974401D01*
X154139260Y-81952728D01*
X154188421Y-81973091D01*
X154188837Y-81972549D01*
X154190860Y-81974101D01*
X154191586Y-81974402D01*
X154192686Y-81975502D01*
X154306814Y-82041394D01*
X154434105Y-82075501D01*
X154434106Y-82075502D01*
X154434108Y-82075502D01*
X154565894Y-82075502D01*
X154565894Y-82075501D01*
X154693186Y-82041394D01*
X154807314Y-81975502D01*
X154810642Y-81972174D01*
X154862968Y-81950500D01*
X161312034Y-81950500D01*
X161364360Y-81972174D01*
X161442686Y-82050500D01*
X161556814Y-82116392D01*
X161684105Y-82150499D01*
X161684106Y-82150500D01*
X161684108Y-82150500D01*
X161815894Y-82150500D01*
X161815894Y-82150499D01*
X161943186Y-82116392D01*
X162057314Y-82050500D01*
X162150500Y-81957314D01*
X162216392Y-81843186D01*
X162216393Y-81843179D01*
X162218247Y-81838706D01*
X162221035Y-81839860D01*
X162249657Y-81802427D01*
X162305796Y-81794936D01*
X162339094Y-81814122D01*
X165552344Y-85027372D01*
X165574018Y-85079698D01*
X165552344Y-85132024D01*
X165404024Y-85280344D01*
X165404022Y-85280345D01*
X165289059Y-85452401D01*
X165209870Y-85643579D01*
X165209868Y-85643586D01*
X165169500Y-85846535D01*
X165169500Y-86053464D01*
X165209868Y-86256413D01*
X165209870Y-86256420D01*
X165289059Y-86447598D01*
X165404023Y-86619655D01*
X165550345Y-86765977D01*
X165722402Y-86880941D01*
X165913580Y-86960130D01*
X166116535Y-87000500D01*
X166116536Y-87000500D01*
X166323464Y-87000500D01*
X166323465Y-87000500D01*
X166526420Y-86960130D01*
X166717598Y-86880941D01*
X166889655Y-86765977D01*
X167035977Y-86619655D01*
X167150941Y-86447598D01*
X167230130Y-86256420D01*
X167270500Y-86053465D01*
X167270500Y-85846535D01*
X167230130Y-85643580D01*
X167150941Y-85452402D01*
X167035977Y-85280345D01*
X166889655Y-85134023D01*
X166886663Y-85132024D01*
X166717598Y-85019059D01*
X166526420Y-84939870D01*
X166526413Y-84939868D01*
X166360160Y-84906799D01*
X166323465Y-84899500D01*
X166323464Y-84899500D01*
X166305066Y-84899500D01*
X166252740Y-84877826D01*
X161884454Y-80509540D01*
X161851406Y-80490460D01*
X161815933Y-80469979D01*
X161815928Y-80469977D01*
X161739507Y-80449500D01*
X161739505Y-80449500D01*
X155187966Y-80449500D01*
X155135640Y-80427826D01*
X155057314Y-80349500D01*
X154943190Y-80283610D01*
X154943181Y-80283606D01*
X154815894Y-80249500D01*
X154815892Y-80249500D01*
X154684108Y-80249500D01*
X154684106Y-80249500D01*
X154556818Y-80283606D01*
X154556809Y-80283610D01*
X154442685Y-80349500D01*
X154349500Y-80442685D01*
X154283610Y-80556809D01*
X154283606Y-80556818D01*
X154249500Y-80684105D01*
X154249500Y-80720879D01*
X154227826Y-80773205D01*
X154175500Y-80794879D01*
X154123174Y-80773205D01*
X152526795Y-79176826D01*
X152505121Y-79124500D01*
X152526795Y-79072174D01*
X152579121Y-79050500D01*
X154533034Y-79050500D01*
X154585360Y-79072174D01*
X154607034Y-79124500D01*
X154585360Y-79176826D01*
X154569500Y-79192685D01*
X154503610Y-79306809D01*
X154503606Y-79306818D01*
X154469500Y-79434105D01*
X154469500Y-79565894D01*
X154503606Y-79693181D01*
X154503610Y-79693190D01*
X154561923Y-79794190D01*
X154569500Y-79807314D01*
X154662686Y-79900500D01*
X154776814Y-79966392D01*
X154904105Y-80000499D01*
X154904106Y-80000500D01*
X154904108Y-80000500D01*
X155035894Y-80000500D01*
X155035894Y-80000499D01*
X155163186Y-79966392D01*
X155277314Y-79900500D01*
X155355640Y-79822174D01*
X155407966Y-79800500D01*
X162154877Y-79800500D01*
X162207203Y-79822174D01*
X167796548Y-85411519D01*
X167818222Y-85463845D01*
X167812589Y-85492164D01*
X167749870Y-85643579D01*
X167749868Y-85643586D01*
X167709500Y-85846535D01*
X167709500Y-86053464D01*
X167749868Y-86256413D01*
X167749870Y-86256420D01*
X167829059Y-86447598D01*
X167944023Y-86619655D01*
X168090345Y-86765977D01*
X168262402Y-86880941D01*
X168453580Y-86960130D01*
X168656535Y-87000500D01*
X168656536Y-87000500D01*
X168863464Y-87000500D01*
X168863465Y-87000500D01*
X169066420Y-86960130D01*
X169257598Y-86880941D01*
X169429655Y-86765977D01*
X169575977Y-86619655D01*
X169690941Y-86447598D01*
X169770130Y-86256420D01*
X169810500Y-86053465D01*
X169810500Y-85846535D01*
X169770130Y-85643580D01*
X169690941Y-85452402D01*
X169575977Y-85280345D01*
X169429655Y-85134023D01*
X169426663Y-85132024D01*
X169257598Y-85019059D01*
X169066420Y-84939870D01*
X169066413Y-84939868D01*
X168900160Y-84906799D01*
X168863465Y-84899500D01*
X168656535Y-84899500D01*
X168619840Y-84906799D01*
X168453586Y-84939868D01*
X168453579Y-84939870D01*
X168302164Y-85002589D01*
X168245526Y-85002589D01*
X168221519Y-84986548D01*
X162494511Y-79259540D01*
X162463195Y-79241460D01*
X162425990Y-79219979D01*
X162425985Y-79219977D01*
X162349564Y-79199500D01*
X162349562Y-79199500D01*
X155407966Y-79199500D01*
X155355640Y-79177826D01*
X155354640Y-79176826D01*
X155332966Y-79124500D01*
X155354640Y-79072174D01*
X155406966Y-79050500D01*
X163944877Y-79050500D01*
X163997203Y-79072174D01*
X170336548Y-85411519D01*
X170358222Y-85463845D01*
X170352589Y-85492164D01*
X170289870Y-85643579D01*
X170289868Y-85643586D01*
X170249500Y-85846535D01*
X170249500Y-86053464D01*
X170289868Y-86256413D01*
X170289870Y-86256420D01*
X170369059Y-86447598D01*
X170484023Y-86619655D01*
X170630345Y-86765977D01*
X170802402Y-86880941D01*
X170993580Y-86960130D01*
X171196535Y-87000500D01*
X171196536Y-87000500D01*
X171403464Y-87000500D01*
X171403465Y-87000500D01*
X171606420Y-86960130D01*
X171797598Y-86880941D01*
X171969655Y-86765977D01*
X172115977Y-86619655D01*
X172230941Y-86447598D01*
X172310130Y-86256420D01*
X172350500Y-86053465D01*
X172350500Y-85846535D01*
X172310130Y-85643580D01*
X172305039Y-85631291D01*
X172305038Y-85574655D01*
X172345086Y-85534606D01*
X172401723Y-85534604D01*
X172425732Y-85550646D01*
X172767826Y-85892740D01*
X172789500Y-85945066D01*
X172789500Y-86053464D01*
X172829868Y-86256413D01*
X172829870Y-86256420D01*
X172909059Y-86447598D01*
X173024023Y-86619655D01*
X173170345Y-86765977D01*
X173342402Y-86880941D01*
X173533580Y-86960130D01*
X173736535Y-87000500D01*
X173736536Y-87000500D01*
X173943464Y-87000500D01*
X173943465Y-87000500D01*
X174146420Y-86960130D01*
X174337598Y-86880941D01*
X174509655Y-86765977D01*
X174655977Y-86619655D01*
X174770941Y-86447598D01*
X174850130Y-86256420D01*
X174890500Y-86053465D01*
X174890500Y-85846535D01*
X175329500Y-85846535D01*
X175329500Y-86053464D01*
X175369868Y-86256413D01*
X175369870Y-86256420D01*
X175449059Y-86447598D01*
X175564023Y-86619655D01*
X175710345Y-86765977D01*
X175882402Y-86880941D01*
X176073580Y-86960130D01*
X176276535Y-87000500D01*
X176276536Y-87000500D01*
X176483464Y-87000500D01*
X176483465Y-87000500D01*
X176686420Y-86960130D01*
X176877598Y-86880941D01*
X177049655Y-86765977D01*
X177195977Y-86619655D01*
X177310941Y-86447598D01*
X177390130Y-86256420D01*
X177430500Y-86053465D01*
X177430500Y-85846535D01*
X177390130Y-85643580D01*
X177310941Y-85452402D01*
X177195977Y-85280345D01*
X177049655Y-85134023D01*
X177046663Y-85132024D01*
X176968351Y-85079698D01*
X176877598Y-85019059D01*
X176877595Y-85019057D01*
X176877594Y-85019057D01*
X176826181Y-84997761D01*
X176815773Y-84987352D01*
X176802174Y-84981720D01*
X176796540Y-84968119D01*
X176786133Y-84957712D01*
X176780500Y-84929394D01*
X176780500Y-84816545D01*
X176802174Y-84764219D01*
X177522219Y-84044174D01*
X177574545Y-84022500D01*
X178275500Y-84022500D01*
X178327826Y-84044174D01*
X178349500Y-84096500D01*
X178349500Y-85028216D01*
X178327826Y-85080542D01*
X178316612Y-85089745D01*
X178250345Y-85134022D01*
X178250344Y-85134024D01*
X178104024Y-85280344D01*
X178104022Y-85280345D01*
X177989059Y-85452401D01*
X177909870Y-85643579D01*
X177909868Y-85643586D01*
X177869500Y-85846535D01*
X177869500Y-86053464D01*
X177909868Y-86256413D01*
X177909870Y-86256420D01*
X177989059Y-86447598D01*
X178104023Y-86619655D01*
X178250345Y-86765977D01*
X178422402Y-86880941D01*
X178613580Y-86960130D01*
X178816535Y-87000500D01*
X178816536Y-87000500D01*
X179023464Y-87000500D01*
X179023465Y-87000500D01*
X179226420Y-86960130D01*
X179417598Y-86880941D01*
X179589655Y-86765977D01*
X179735977Y-86619655D01*
X179850941Y-86447598D01*
X179930130Y-86256420D01*
X179970500Y-86053465D01*
X179970500Y-85846535D01*
X180409500Y-85846535D01*
X180409500Y-86053464D01*
X180449868Y-86256413D01*
X180449870Y-86256420D01*
X180529059Y-86447598D01*
X180644023Y-86619655D01*
X180790345Y-86765977D01*
X180962402Y-86880941D01*
X181153580Y-86960130D01*
X181356535Y-87000500D01*
X181356536Y-87000500D01*
X181563464Y-87000500D01*
X181563465Y-87000500D01*
X181766420Y-86960130D01*
X181957598Y-86880941D01*
X182129655Y-86765977D01*
X182275977Y-86619655D01*
X182390941Y-86447598D01*
X182470130Y-86256420D01*
X182510500Y-86053465D01*
X182510500Y-85846535D01*
X182470130Y-85643580D01*
X182390941Y-85452402D01*
X182275977Y-85280345D01*
X182129655Y-85134023D01*
X182126663Y-85132024D01*
X181957598Y-85019059D01*
X181766420Y-84939870D01*
X181766413Y-84939868D01*
X181600160Y-84906799D01*
X181563465Y-84899500D01*
X181356535Y-84899500D01*
X181319840Y-84906799D01*
X181153586Y-84939868D01*
X181153579Y-84939870D01*
X180962401Y-85019059D01*
X180790345Y-85134022D01*
X180790344Y-85134024D01*
X180644024Y-85280344D01*
X180644022Y-85280345D01*
X180529059Y-85452401D01*
X180449870Y-85643579D01*
X180449868Y-85643586D01*
X180409500Y-85846535D01*
X179970500Y-85846535D01*
X179930130Y-85643580D01*
X179850941Y-85452402D01*
X179735977Y-85280345D01*
X179589655Y-85134023D01*
X179586663Y-85132024D01*
X179417598Y-85019059D01*
X179226418Y-84939869D01*
X179226415Y-84939868D01*
X179210063Y-84936616D01*
X179162971Y-84905150D01*
X179150500Y-84864038D01*
X179150500Y-83949142D01*
X179160414Y-83912142D01*
X179216392Y-83815186D01*
X179250499Y-83687894D01*
X179250500Y-83687894D01*
X179250500Y-83556106D01*
X179250499Y-83556105D01*
X179241139Y-83521174D01*
X179216392Y-83428814D01*
X179150500Y-83314686D01*
X179057314Y-83221500D01*
X178943190Y-83155610D01*
X178943181Y-83155606D01*
X178815894Y-83121500D01*
X178815892Y-83121500D01*
X178684108Y-83121500D01*
X178684106Y-83121500D01*
X178556818Y-83155606D01*
X178556809Y-83155610D01*
X178459857Y-83211586D01*
X178422857Y-83221500D01*
X177430727Y-83221500D01*
X177325273Y-83221500D01*
X177274342Y-83235146D01*
X177223411Y-83248793D01*
X177223407Y-83248795D01*
X177132090Y-83301517D01*
X176059517Y-84374090D01*
X176006793Y-84465410D01*
X176006791Y-84465415D01*
X175988545Y-84533509D01*
X175988546Y-84533510D01*
X175979500Y-84567272D01*
X175979500Y-84929394D01*
X175957826Y-84981720D01*
X175933819Y-84997761D01*
X175882405Y-85019057D01*
X175710345Y-85134022D01*
X175710344Y-85134024D01*
X175564024Y-85280344D01*
X175564022Y-85280345D01*
X175449059Y-85452401D01*
X175369870Y-85643579D01*
X175369868Y-85643586D01*
X175329500Y-85846535D01*
X174890500Y-85846535D01*
X174850130Y-85643580D01*
X174770941Y-85452402D01*
X174655977Y-85280345D01*
X174509655Y-85134023D01*
X174506663Y-85132024D01*
X174337598Y-85019059D01*
X174146420Y-84939870D01*
X174146413Y-84939868D01*
X173980160Y-84906799D01*
X173943465Y-84899500D01*
X173736535Y-84899500D01*
X173699840Y-84906799D01*
X173533586Y-84939868D01*
X173533579Y-84939870D01*
X173342401Y-85019059D01*
X173170345Y-85134022D01*
X173170344Y-85134024D01*
X173067024Y-85237344D01*
X173014698Y-85259018D01*
X172962372Y-85237344D01*
X168564122Y-80839094D01*
X168542448Y-80786768D01*
X168564122Y-80734442D01*
X168589384Y-80719885D01*
X168588706Y-80718247D01*
X168593179Y-80716393D01*
X168593186Y-80716392D01*
X168707314Y-80650500D01*
X168785640Y-80572174D01*
X168837966Y-80550500D01*
X169162034Y-80550500D01*
X169214360Y-80572174D01*
X169292686Y-80650500D01*
X169406814Y-80716392D01*
X169534105Y-80750499D01*
X169534106Y-80750500D01*
X169534108Y-80750500D01*
X169665894Y-80750500D01*
X169665894Y-80750499D01*
X169793186Y-80716392D01*
X169907314Y-80650500D01*
X170000500Y-80557314D01*
X170066392Y-80443186D01*
X170100499Y-80315894D01*
X170100500Y-80315894D01*
X170100500Y-80184106D01*
X170100499Y-80184105D01*
X170098463Y-80176508D01*
X170066392Y-80056814D01*
X170000500Y-79942686D01*
X169907314Y-79849500D01*
X169811499Y-79794181D01*
X169793190Y-79783610D01*
X169793181Y-79783606D01*
X169665894Y-79749500D01*
X169665892Y-79749500D01*
X169534108Y-79749500D01*
X169534106Y-79749500D01*
X169406818Y-79783606D01*
X169406809Y-79783610D01*
X169292685Y-79849500D01*
X169214360Y-79927826D01*
X169162034Y-79949500D01*
X168837966Y-79949500D01*
X168785640Y-79927826D01*
X168707314Y-79849500D01*
X168593190Y-79783610D01*
X168593181Y-79783606D01*
X168465894Y-79749500D01*
X168465892Y-79749500D01*
X168334108Y-79749500D01*
X168334106Y-79749500D01*
X168206818Y-79783606D01*
X168206809Y-79783610D01*
X168092685Y-79849500D01*
X167999500Y-79942685D01*
X167933608Y-80056812D01*
X167931753Y-80061293D01*
X167929029Y-80060164D01*
X167900105Y-80097708D01*
X167843938Y-80104991D01*
X167810904Y-80085876D01*
X165833568Y-78108540D01*
X165819642Y-78100500D01*
X165765047Y-78068979D01*
X165765042Y-78068977D01*
X165688621Y-78048500D01*
X165688619Y-78048500D01*
X160444412Y-78048500D01*
X160392086Y-78026826D01*
X160370412Y-77974500D01*
X160392086Y-77922174D01*
X160434755Y-77901133D01*
X160439556Y-77900500D01*
X160439562Y-77900500D01*
X160515989Y-77880021D01*
X160584511Y-77840460D01*
X160640460Y-77784511D01*
X161613157Y-76811814D01*
X185324500Y-76811814D01*
X185324500Y-76950185D01*
X185360310Y-77083831D01*
X185360312Y-77083836D01*
X185429495Y-77203665D01*
X185527335Y-77301505D01*
X185647164Y-77370688D01*
X185780814Y-77406499D01*
X185780815Y-77406500D01*
X185780817Y-77406500D01*
X185919185Y-77406500D01*
X185919185Y-77406499D01*
X186052836Y-77370688D01*
X186172665Y-77301505D01*
X186270505Y-77203665D01*
X186339688Y-77083836D01*
X186375499Y-76950185D01*
X186375500Y-76950185D01*
X186375500Y-76811815D01*
X186375499Y-76811814D01*
X186372467Y-76800500D01*
X186339688Y-76678164D01*
X186270505Y-76558335D01*
X186172665Y-76460495D01*
X186052836Y-76391312D01*
X186052831Y-76391310D01*
X185919185Y-76355500D01*
X185919183Y-76355500D01*
X185780817Y-76355500D01*
X185780815Y-76355500D01*
X185647168Y-76391310D01*
X185647163Y-76391312D01*
X185527334Y-76460495D01*
X185429495Y-76558334D01*
X185360312Y-76678163D01*
X185360310Y-76678168D01*
X185324500Y-76811814D01*
X161613157Y-76811814D01*
X162990460Y-75434511D01*
X162998008Y-75421438D01*
X163030021Y-75365989D01*
X163050499Y-75289564D01*
X163050500Y-75289564D01*
X163050500Y-73184105D01*
X175499500Y-73184105D01*
X175499500Y-73315894D01*
X175533606Y-73443181D01*
X175533610Y-73443190D01*
X175582161Y-73527282D01*
X175599500Y-73557314D01*
X175692686Y-73650500D01*
X175806814Y-73716392D01*
X175913588Y-73745001D01*
X175946760Y-73764153D01*
X176977826Y-74795219D01*
X176999500Y-74847545D01*
X176999500Y-74916894D01*
X177033606Y-75044181D01*
X177033607Y-75044184D01*
X177033608Y-75044186D01*
X177099500Y-75158314D01*
X177192686Y-75251500D01*
X177306814Y-75317392D01*
X177434105Y-75351499D01*
X177434106Y-75351500D01*
X177434108Y-75351500D01*
X177565894Y-75351500D01*
X177565894Y-75351499D01*
X177693186Y-75317392D01*
X177807314Y-75251500D01*
X177900500Y-75158314D01*
X177966392Y-75044186D01*
X178000499Y-74916894D01*
X178000500Y-74916894D01*
X178000500Y-74785106D01*
X178000499Y-74785105D01*
X178000098Y-74783610D01*
X177966392Y-74657814D01*
X177900500Y-74543686D01*
X177807314Y-74450500D01*
X177807311Y-74450498D01*
X177807310Y-74450497D01*
X177717747Y-74398788D01*
X177702421Y-74387028D01*
X176577207Y-73261814D01*
X176576795Y-73261398D01*
X176571730Y-73256252D01*
X176570480Y-73254087D01*
X176514357Y-73197964D01*
X176514107Y-73197710D01*
X176513703Y-73196713D01*
X176495367Y-73164954D01*
X176466392Y-73056814D01*
X176400500Y-72942686D01*
X176307314Y-72849500D01*
X176249107Y-72815894D01*
X176193190Y-72783610D01*
X176193181Y-72783606D01*
X176065894Y-72749500D01*
X176065892Y-72749500D01*
X175934108Y-72749500D01*
X175934106Y-72749500D01*
X175806818Y-72783606D01*
X175806809Y-72783610D01*
X175692685Y-72849500D01*
X175599500Y-72942685D01*
X175533610Y-73056809D01*
X175533606Y-73056818D01*
X175499500Y-73184105D01*
X163050500Y-73184105D01*
X163050500Y-72405122D01*
X163072173Y-72352797D01*
X163152796Y-72272173D01*
X163205122Y-72250500D01*
X163315894Y-72250500D01*
X163315894Y-72250499D01*
X163443186Y-72216392D01*
X163557314Y-72150500D01*
X163650500Y-72057314D01*
X163716392Y-71943186D01*
X163750499Y-71815894D01*
X163750500Y-71815894D01*
X163750500Y-71684106D01*
X163750499Y-71684105D01*
X163739534Y-71643184D01*
X163716392Y-71556814D01*
X163650500Y-71442686D01*
X163610138Y-71402324D01*
X163588464Y-71349998D01*
X163610137Y-71297672D01*
X163650500Y-71257311D01*
X163716392Y-71143183D01*
X163750499Y-71015891D01*
X163750500Y-71015891D01*
X163750500Y-70884103D01*
X163750499Y-70884102D01*
X163716393Y-70756815D01*
X163716392Y-70756811D01*
X163650500Y-70642683D01*
X163557314Y-70549497D01*
X163443190Y-70483607D01*
X163443181Y-70483603D01*
X163315894Y-70449497D01*
X163315892Y-70449497D01*
X163184108Y-70449497D01*
X163184106Y-70449497D01*
X163056818Y-70483603D01*
X163056809Y-70483607D01*
X162942685Y-70549497D01*
X162849500Y-70642682D01*
X162783610Y-70756806D01*
X162783606Y-70756815D01*
X162749500Y-70884102D01*
X162749500Y-70944934D01*
X162727826Y-70997260D01*
X162626326Y-71098760D01*
X162574000Y-71120434D01*
X162521674Y-71098760D01*
X162500000Y-71046434D01*
X162500000Y-69874500D01*
X162521674Y-69822174D01*
X162574000Y-69800500D01*
X168814136Y-69800500D01*
X168814136Y-69800499D01*
X168890561Y-69780021D01*
X168959083Y-69740460D01*
X169015032Y-69684511D01*
X170265438Y-68434105D01*
X170999500Y-68434105D01*
X170999500Y-68565894D01*
X171033606Y-68693181D01*
X171033610Y-68693190D01*
X171068861Y-68754246D01*
X171099500Y-68807314D01*
X171192686Y-68900500D01*
X171306814Y-68966392D01*
X171434105Y-69000499D01*
X171434106Y-69000500D01*
X171544877Y-69000500D01*
X171597203Y-69022174D01*
X173759540Y-71184511D01*
X173815489Y-71240460D01*
X173884011Y-71280021D01*
X173884012Y-71280021D01*
X173884014Y-71280022D01*
X173922224Y-71290260D01*
X173960435Y-71300499D01*
X173960436Y-71300500D01*
X173960438Y-71300500D01*
X176648877Y-71300500D01*
X176701203Y-71322174D01*
X177477826Y-72098797D01*
X177499500Y-72151123D01*
X177499500Y-72261894D01*
X177533606Y-72389181D01*
X177533610Y-72389190D01*
X177564496Y-72442685D01*
X177599500Y-72503314D01*
X177692686Y-72596500D01*
X177806814Y-72662392D01*
X177934105Y-72696499D01*
X177934106Y-72696500D01*
X177934108Y-72696500D01*
X178065894Y-72696500D01*
X178065894Y-72696499D01*
X178193186Y-72662392D01*
X178307314Y-72596500D01*
X178400500Y-72503314D01*
X178466392Y-72389186D01*
X178500499Y-72261894D01*
X178500500Y-72261894D01*
X178500500Y-72130106D01*
X178500499Y-72130105D01*
X178494973Y-72109483D01*
X178466392Y-72002814D01*
X178400500Y-71888686D01*
X178307314Y-71795500D01*
X178241176Y-71757315D01*
X178193190Y-71729610D01*
X178193181Y-71729606D01*
X178065894Y-71695500D01*
X178065892Y-71695500D01*
X177955123Y-71695500D01*
X177902797Y-71673826D01*
X176988511Y-70759540D01*
X176972853Y-70750500D01*
X176919990Y-70719979D01*
X176919985Y-70719977D01*
X176843564Y-70699500D01*
X176843562Y-70699500D01*
X174155123Y-70699500D01*
X174102797Y-70677826D01*
X172022174Y-68597203D01*
X172000500Y-68544877D01*
X172000500Y-68434106D01*
X172000499Y-68434105D01*
X171966393Y-68306818D01*
X171966392Y-68306814D01*
X171900500Y-68192686D01*
X171807314Y-68099500D01*
X171734246Y-68057314D01*
X171693190Y-68033610D01*
X171693181Y-68033606D01*
X171565894Y-67999500D01*
X171565892Y-67999500D01*
X171434108Y-67999500D01*
X171434106Y-67999500D01*
X171306818Y-68033606D01*
X171306809Y-68033610D01*
X171192685Y-68099500D01*
X171099500Y-68192685D01*
X171033610Y-68306809D01*
X171033606Y-68306818D01*
X170999500Y-68434105D01*
X170265438Y-68434105D01*
X174164562Y-64534979D01*
X174216887Y-64513306D01*
X174269213Y-64534980D01*
X174288364Y-64568151D01*
X174311793Y-64655587D01*
X174311794Y-64655589D01*
X174311795Y-64655591D01*
X174328492Y-64684511D01*
X174364520Y-64746913D01*
X174427826Y-64810219D01*
X174449500Y-64862543D01*
X174449500Y-66136500D01*
X174427826Y-66188826D01*
X174375500Y-66210500D01*
X173477143Y-66210500D01*
X173440143Y-66200586D01*
X173343190Y-66144610D01*
X173343181Y-66144606D01*
X173215894Y-66110500D01*
X173215892Y-66110500D01*
X173084108Y-66110500D01*
X173084106Y-66110500D01*
X172956818Y-66144606D01*
X172956809Y-66144610D01*
X172842685Y-66210500D01*
X172749500Y-66303685D01*
X172683610Y-66417809D01*
X172683606Y-66417818D01*
X172649500Y-66545105D01*
X172649500Y-66676894D01*
X172683606Y-66804181D01*
X172683607Y-66804184D01*
X172683608Y-66804186D01*
X172749500Y-66918314D01*
X172842686Y-67011500D01*
X172956814Y-67077392D01*
X173084105Y-67111499D01*
X173084106Y-67111500D01*
X173084108Y-67111500D01*
X173215894Y-67111500D01*
X173215894Y-67111499D01*
X173343186Y-67077392D01*
X173425902Y-67029636D01*
X173440143Y-67021414D01*
X173477143Y-67011500D01*
X174413455Y-67011500D01*
X174465781Y-67033174D01*
X175985478Y-68552871D01*
X176004412Y-68585246D01*
X176004543Y-68585716D01*
X176033608Y-68694186D01*
X176036141Y-68698573D01*
X176038654Y-68707549D01*
X176036301Y-68727103D01*
X176038879Y-68746627D01*
X176033036Y-68754246D01*
X176031890Y-68763781D01*
X176016400Y-68775944D01*
X176004417Y-68791573D01*
X175992391Y-68794797D01*
X175987345Y-68798760D01*
X175980626Y-68797951D01*
X175967394Y-68801500D01*
X175639023Y-68801500D01*
X175586697Y-68779826D01*
X174952252Y-68145381D01*
X174940492Y-68130055D01*
X174900500Y-68060786D01*
X174807314Y-67967600D01*
X174765019Y-67943181D01*
X174693190Y-67901710D01*
X174693181Y-67901706D01*
X174565894Y-67867600D01*
X174565892Y-67867600D01*
X174434108Y-67867600D01*
X174343652Y-67891837D01*
X174287500Y-67884444D01*
X174253021Y-67839510D01*
X174250500Y-67820358D01*
X174250500Y-67685106D01*
X174250499Y-67685105D01*
X174216393Y-67557818D01*
X174216392Y-67557814D01*
X174150500Y-67443686D01*
X174057314Y-67350500D01*
X173970710Y-67300499D01*
X173943190Y-67284610D01*
X173943181Y-67284606D01*
X173815894Y-67250500D01*
X173815892Y-67250500D01*
X173684108Y-67250500D01*
X173684106Y-67250500D01*
X173556818Y-67284606D01*
X173556809Y-67284610D01*
X173442685Y-67350500D01*
X173349500Y-67443685D01*
X173283610Y-67557809D01*
X173283606Y-67557818D01*
X173249500Y-67685105D01*
X173249500Y-67816894D01*
X173283606Y-67944181D01*
X173283610Y-67944190D01*
X173349500Y-68058314D01*
X173427826Y-68136640D01*
X173449500Y-68188966D01*
X173449500Y-69540564D01*
X173469977Y-69616985D01*
X173469979Y-69616990D01*
X173508953Y-69684493D01*
X173508956Y-69684505D01*
X173508959Y-69684504D01*
X173508963Y-69684511D01*
X173509540Y-69685511D01*
X174065489Y-70241460D01*
X174134012Y-70281022D01*
X174210438Y-70301500D01*
X174289562Y-70301500D01*
X178844877Y-70301500D01*
X178897203Y-70323174D01*
X178927826Y-70353797D01*
X178949500Y-70406123D01*
X178949500Y-72040564D01*
X178969977Y-72116985D01*
X178969979Y-72116990D01*
X178992751Y-72156432D01*
X178992752Y-72156434D01*
X178992755Y-72156438D01*
X179008730Y-72184108D01*
X179009541Y-72185512D01*
X179427826Y-72603797D01*
X179449500Y-72656123D01*
X179449500Y-75281500D01*
X179427826Y-75333826D01*
X179375500Y-75355500D01*
X179289106Y-75355500D01*
X179161818Y-75389606D01*
X179161809Y-75389610D01*
X179047685Y-75455500D01*
X178954500Y-75548685D01*
X178888610Y-75662809D01*
X178888606Y-75662818D01*
X178854500Y-75790105D01*
X178854500Y-75921894D01*
X178888606Y-76049181D01*
X178888607Y-76049184D01*
X178888608Y-76049186D01*
X178954500Y-76163314D01*
X179047686Y-76256500D01*
X179161814Y-76322392D01*
X179289105Y-76356499D01*
X179289106Y-76356500D01*
X179289108Y-76356500D01*
X179420894Y-76356500D01*
X179420894Y-76356499D01*
X179548186Y-76322392D01*
X179662314Y-76256500D01*
X179755500Y-76163314D01*
X179821392Y-76049186D01*
X179855499Y-75921894D01*
X179855500Y-75921894D01*
X179855500Y-75811122D01*
X179877174Y-75758796D01*
X179919581Y-75716389D01*
X179990460Y-75645511D01*
X180016447Y-75600500D01*
X180030021Y-75576989D01*
X180050499Y-75500564D01*
X180050500Y-75500564D01*
X180050500Y-72461438D01*
X180037042Y-72411211D01*
X180037042Y-72411210D01*
X180031140Y-72389186D01*
X180030022Y-72385012D01*
X179990460Y-72316489D01*
X179572174Y-71898203D01*
X179550500Y-71845877D01*
X179550500Y-71031814D01*
X185324500Y-71031814D01*
X185324500Y-71170185D01*
X185360310Y-71303831D01*
X185360312Y-71303836D01*
X185429495Y-71423665D01*
X185527335Y-71521505D01*
X185647164Y-71590688D01*
X185780814Y-71626499D01*
X185780815Y-71626500D01*
X185780817Y-71626500D01*
X185919185Y-71626500D01*
X185919185Y-71626499D01*
X186052836Y-71590688D01*
X186172665Y-71521505D01*
X186270505Y-71423665D01*
X186339688Y-71303836D01*
X186375499Y-71170185D01*
X186375500Y-71170185D01*
X186375500Y-71031815D01*
X186375499Y-71031814D01*
X186371232Y-71015891D01*
X186339688Y-70898164D01*
X186270505Y-70778335D01*
X186172665Y-70680495D01*
X186052836Y-70611312D01*
X186052831Y-70611310D01*
X185919185Y-70575500D01*
X185919183Y-70575500D01*
X185780817Y-70575500D01*
X185780815Y-70575500D01*
X185647168Y-70611310D01*
X185647163Y-70611312D01*
X185527334Y-70680495D01*
X185429495Y-70778334D01*
X185360312Y-70898163D01*
X185360310Y-70898168D01*
X185324500Y-71031814D01*
X179550500Y-71031814D01*
X179550500Y-70211436D01*
X179550499Y-70211435D01*
X179530022Y-70135014D01*
X179530020Y-70135009D01*
X179490459Y-70066488D01*
X179184511Y-69760540D01*
X179149731Y-69740460D01*
X179115990Y-69720979D01*
X179115985Y-69720977D01*
X179039564Y-69700500D01*
X179039562Y-69700500D01*
X174405123Y-69700500D01*
X174352797Y-69678826D01*
X174072174Y-69398203D01*
X174050500Y-69345877D01*
X174050500Y-68805066D01*
X174072174Y-68752740D01*
X174124500Y-68731066D01*
X174176826Y-68752740D01*
X174192686Y-68768600D01*
X174306814Y-68834492D01*
X174434105Y-68868599D01*
X174434106Y-68868600D01*
X174434108Y-68868600D01*
X174565891Y-68868600D01*
X174565892Y-68868600D01*
X174693186Y-68834492D01*
X174706287Y-68826927D01*
X174762438Y-68819533D01*
X174795615Y-68838686D01*
X175243440Y-69286511D01*
X175299389Y-69342460D01*
X175349549Y-69371420D01*
X175358398Y-69376529D01*
X175367911Y-69382021D01*
X175367912Y-69382021D01*
X175367914Y-69382022D01*
X175406124Y-69392260D01*
X175444335Y-69402499D01*
X175444336Y-69402500D01*
X175444338Y-69402500D01*
X183288564Y-69402500D01*
X183288564Y-69402499D01*
X183364989Y-69382021D01*
X183433511Y-69342460D01*
X183489460Y-69286511D01*
X183702797Y-69073174D01*
X183755123Y-69051500D01*
X186444877Y-69051500D01*
X186497203Y-69073174D01*
X186777826Y-69353797D01*
X186799500Y-69406123D01*
X186799500Y-78845877D01*
X186777826Y-78898203D01*
X185497203Y-80178826D01*
X185444877Y-80200500D01*
X181555123Y-80200500D01*
X181502797Y-80178826D01*
X181022174Y-79698203D01*
X181000500Y-79645877D01*
X181000500Y-79535106D01*
X181000499Y-79535105D01*
X180973436Y-79434105D01*
X180966392Y-79407814D01*
X180900500Y-79293686D01*
X180807314Y-79200500D01*
X180766310Y-79176826D01*
X180693190Y-79134610D01*
X180693181Y-79134606D01*
X180565894Y-79100500D01*
X180565892Y-79100500D01*
X180434108Y-79100500D01*
X180434106Y-79100500D01*
X180306818Y-79134606D01*
X180306809Y-79134610D01*
X180192685Y-79200500D01*
X180099500Y-79293685D01*
X180033610Y-79407809D01*
X180033606Y-79407818D01*
X179999500Y-79535105D01*
X179999500Y-79666894D01*
X180033606Y-79794181D01*
X180033610Y-79794190D01*
X180094988Y-79900499D01*
X180099500Y-79908314D01*
X180192686Y-80001500D01*
X180306814Y-80067392D01*
X180434105Y-80101499D01*
X180434106Y-80101500D01*
X180544877Y-80101500D01*
X180597203Y-80123174D01*
X181159540Y-80685511D01*
X181215489Y-80741460D01*
X181284011Y-80781021D01*
X181284012Y-80781021D01*
X181284014Y-80781022D01*
X181322224Y-80791260D01*
X181360435Y-80801499D01*
X181360436Y-80801500D01*
X181360438Y-80801500D01*
X185639564Y-80801500D01*
X185639564Y-80801499D01*
X185715989Y-80781021D01*
X185784511Y-80741460D01*
X185840460Y-80685511D01*
X187340460Y-79185511D01*
X187367047Y-79139460D01*
X187380021Y-79116989D01*
X187400499Y-79040564D01*
X187400500Y-79040564D01*
X187400500Y-69211438D01*
X187393285Y-69184511D01*
X187393285Y-69184510D01*
X187380023Y-69135016D01*
X187380022Y-69135012D01*
X187340460Y-69066489D01*
X186784511Y-68510540D01*
X186738696Y-68484089D01*
X186715990Y-68470979D01*
X186715985Y-68470977D01*
X186639564Y-68450500D01*
X186639562Y-68450500D01*
X183560438Y-68450500D01*
X183560436Y-68450500D01*
X183484014Y-68470977D01*
X183484009Y-68470979D01*
X183461304Y-68484089D01*
X183415488Y-68510540D01*
X183146203Y-68779826D01*
X183093877Y-68801500D01*
X177032606Y-68801500D01*
X176980280Y-68779826D01*
X176958606Y-68727500D01*
X176966155Y-68699342D01*
X176964534Y-68698671D01*
X176966388Y-68694192D01*
X176966392Y-68694186D01*
X177000499Y-68566894D01*
X177000500Y-68566894D01*
X177000500Y-68435106D01*
X177000499Y-68435105D01*
X177000231Y-68434106D01*
X176966392Y-68307814D01*
X176900500Y-68193686D01*
X176807314Y-68100500D01*
X176738526Y-68060785D01*
X176693187Y-68034608D01*
X176693182Y-68034606D01*
X176585044Y-68005630D01*
X176551871Y-67986478D01*
X175072174Y-66506781D01*
X175050500Y-66454455D01*
X175050500Y-64688763D01*
X175058019Y-64660757D01*
X175056351Y-64660067D01*
X175058205Y-64655590D01*
X175058204Y-64655590D01*
X175058207Y-64655587D01*
X175085500Y-64553727D01*
X175085500Y-64448273D01*
X175085500Y-64448271D01*
X175085499Y-64448270D01*
X175081812Y-64434511D01*
X175058207Y-64346413D01*
X175005480Y-64255087D01*
X174930913Y-64180520D01*
X174839591Y-64127795D01*
X174839589Y-64127794D01*
X174839588Y-64127793D01*
X174839587Y-64127793D01*
X174752151Y-64104365D01*
X174707220Y-64069887D01*
X174699827Y-64013734D01*
X174718978Y-63980563D01*
X176397369Y-62302174D01*
X176449695Y-62280500D01*
X176483464Y-62280500D01*
X176483465Y-62280500D01*
X176686420Y-62240130D01*
X176877598Y-62160941D01*
X177049655Y-62045977D01*
X177195977Y-61899655D01*
X177310941Y-61727598D01*
X177390130Y-61536420D01*
X177430500Y-61333465D01*
X177430500Y-61126535D01*
X177869500Y-61126535D01*
X177869500Y-61333464D01*
X177909868Y-61536413D01*
X177909870Y-61536420D01*
X177989059Y-61727598D01*
X178104023Y-61899655D01*
X178250345Y-62045977D01*
X178422402Y-62160941D01*
X178613580Y-62240130D01*
X178816535Y-62280500D01*
X178816536Y-62280500D01*
X179023464Y-62280500D01*
X179023465Y-62280500D01*
X179226420Y-62240130D01*
X179417598Y-62160941D01*
X179589655Y-62045977D01*
X179735977Y-61899655D01*
X179850941Y-61727598D01*
X179930130Y-61536420D01*
X179970500Y-61333465D01*
X179970500Y-61126535D01*
X180409500Y-61126535D01*
X180409500Y-61333464D01*
X180449868Y-61536413D01*
X180449870Y-61536420D01*
X180529059Y-61727598D01*
X180644023Y-61899655D01*
X180790345Y-62045977D01*
X180962402Y-62160941D01*
X181153580Y-62240130D01*
X181356535Y-62280500D01*
X181356536Y-62280500D01*
X181563464Y-62280500D01*
X181563465Y-62280500D01*
X181766420Y-62240130D01*
X181957598Y-62160941D01*
X182129655Y-62045977D01*
X182275977Y-61899655D01*
X182390941Y-61727598D01*
X182470130Y-61536420D01*
X182510500Y-61333465D01*
X182510500Y-61126535D01*
X182949500Y-61126535D01*
X182949500Y-61333464D01*
X182989868Y-61536413D01*
X182989870Y-61536420D01*
X183069059Y-61727598D01*
X183184023Y-61899655D01*
X183330345Y-62045977D01*
X183502402Y-62160941D01*
X183693580Y-62240130D01*
X183896535Y-62280500D01*
X183896536Y-62280500D01*
X184103464Y-62280500D01*
X184103465Y-62280500D01*
X184306420Y-62240130D01*
X184497598Y-62160941D01*
X184669655Y-62045977D01*
X184815977Y-61899655D01*
X184930941Y-61727598D01*
X185010130Y-61536420D01*
X185050500Y-61333465D01*
X185050500Y-61126535D01*
X185010130Y-60923580D01*
X184930941Y-60732402D01*
X184815977Y-60560345D01*
X184669655Y-60414023D01*
X184497598Y-60299059D01*
X184306420Y-60219870D01*
X184306413Y-60219868D01*
X184153516Y-60189455D01*
X184103465Y-60179500D01*
X183896535Y-60179500D01*
X183856385Y-60187486D01*
X183693586Y-60219868D01*
X183693579Y-60219870D01*
X183502401Y-60299059D01*
X183330345Y-60414022D01*
X183330344Y-60414024D01*
X183184024Y-60560344D01*
X183184022Y-60560345D01*
X183069059Y-60732401D01*
X182989870Y-60923579D01*
X182989868Y-60923586D01*
X182949500Y-61126535D01*
X182510500Y-61126535D01*
X182470130Y-60923580D01*
X182390941Y-60732402D01*
X182275977Y-60560345D01*
X182129655Y-60414023D01*
X181957598Y-60299059D01*
X181766420Y-60219870D01*
X181766413Y-60219868D01*
X181613516Y-60189455D01*
X181563465Y-60179500D01*
X181356535Y-60179500D01*
X181316385Y-60187486D01*
X181153586Y-60219868D01*
X181153579Y-60219870D01*
X180962401Y-60299059D01*
X180790345Y-60414022D01*
X180790344Y-60414024D01*
X180644024Y-60560344D01*
X180644022Y-60560345D01*
X180529059Y-60732401D01*
X180449870Y-60923579D01*
X180449868Y-60923586D01*
X180409500Y-61126535D01*
X179970500Y-61126535D01*
X179930130Y-60923580D01*
X179850941Y-60732402D01*
X179735977Y-60560345D01*
X179589655Y-60414023D01*
X179417598Y-60299059D01*
X179226420Y-60219870D01*
X179226413Y-60219868D01*
X179073516Y-60189455D01*
X179023465Y-60179500D01*
X178816535Y-60179500D01*
X178776385Y-60187486D01*
X178613586Y-60219868D01*
X178613579Y-60219870D01*
X178422401Y-60299059D01*
X178250345Y-60414022D01*
X178250344Y-60414024D01*
X178104024Y-60560344D01*
X178104022Y-60560345D01*
X177989059Y-60732401D01*
X177909870Y-60923579D01*
X177909868Y-60923586D01*
X177869500Y-61126535D01*
X177430500Y-61126535D01*
X177390130Y-60923580D01*
X177310941Y-60732402D01*
X177195977Y-60560345D01*
X177049655Y-60414023D01*
X176877598Y-60299059D01*
X176686420Y-60219870D01*
X176686413Y-60219868D01*
X176533516Y-60189455D01*
X176483465Y-60179500D01*
X176276535Y-60179500D01*
X176236385Y-60187486D01*
X176073586Y-60219868D01*
X176073579Y-60219870D01*
X175882401Y-60299059D01*
X175710345Y-60414022D01*
X175710344Y-60414024D01*
X175564024Y-60560344D01*
X175564022Y-60560345D01*
X175449059Y-60732401D01*
X175369870Y-60923579D01*
X175369868Y-60923586D01*
X175329500Y-61126535D01*
X175329500Y-61333464D01*
X175369868Y-61536413D01*
X175369870Y-61536420D01*
X175449059Y-61727598D01*
X175564023Y-61899655D01*
X175704658Y-62040290D01*
X175726332Y-62092615D01*
X175704658Y-62144941D01*
X174255205Y-63594394D01*
X174202879Y-63616068D01*
X174150553Y-63594394D01*
X174128879Y-63542068D01*
X174131401Y-63522914D01*
X174140500Y-63488959D01*
X174140500Y-62292027D01*
X174162174Y-62239701D01*
X174186179Y-62223660D01*
X174337598Y-62160941D01*
X174509655Y-62045977D01*
X174655977Y-61899655D01*
X174770941Y-61727598D01*
X174850130Y-61536420D01*
X174890500Y-61333465D01*
X174890500Y-61126535D01*
X174850130Y-60923580D01*
X174770941Y-60732402D01*
X174655977Y-60560345D01*
X174509655Y-60414023D01*
X174337598Y-60299059D01*
X174146420Y-60219870D01*
X174146413Y-60219868D01*
X173993516Y-60189455D01*
X173943465Y-60179500D01*
X173736535Y-60179500D01*
X173696385Y-60187486D01*
X173533586Y-60219868D01*
X173533579Y-60219870D01*
X173342401Y-60299059D01*
X173170345Y-60414022D01*
X173170344Y-60414024D01*
X173024024Y-60560344D01*
X173024022Y-60560345D01*
X172909059Y-60732401D01*
X172829870Y-60923579D01*
X172829868Y-60923586D01*
X172789500Y-61126535D01*
X172789500Y-61333464D01*
X172829868Y-61536413D01*
X172829870Y-61536420D01*
X172909059Y-61727598D01*
X173024023Y-61899655D01*
X173170345Y-62045977D01*
X173342402Y-62160941D01*
X173493819Y-62223660D01*
X173533867Y-62263708D01*
X173539500Y-62292027D01*
X173539500Y-63294273D01*
X173517826Y-63346599D01*
X168186599Y-68677826D01*
X168134273Y-68699500D01*
X167654123Y-68699500D01*
X167601797Y-68677826D01*
X167580123Y-68625500D01*
X167601797Y-68573174D01*
X169522538Y-66652433D01*
X171490460Y-64684511D01*
X171491917Y-64681988D01*
X171530021Y-64615989D01*
X171550499Y-64539564D01*
X171550500Y-64539564D01*
X171550500Y-62311975D01*
X171572174Y-62259649D01*
X171603019Y-62241161D01*
X171606406Y-62240132D01*
X171606420Y-62240130D01*
X171797598Y-62160941D01*
X171969655Y-62045977D01*
X172115977Y-61899655D01*
X172230941Y-61727598D01*
X172310130Y-61536420D01*
X172350500Y-61333465D01*
X172350500Y-61126535D01*
X172310130Y-60923580D01*
X172230941Y-60732402D01*
X172115977Y-60560345D01*
X171969655Y-60414023D01*
X171797598Y-60299059D01*
X171606420Y-60219870D01*
X171606413Y-60219868D01*
X171453516Y-60189455D01*
X171403465Y-60179500D01*
X171196535Y-60179500D01*
X171156385Y-60187486D01*
X170993586Y-60219868D01*
X170993579Y-60219870D01*
X170802401Y-60299059D01*
X170630345Y-60414022D01*
X170630344Y-60414024D01*
X170484024Y-60560344D01*
X170484022Y-60560345D01*
X170369059Y-60732401D01*
X170289870Y-60923579D01*
X170289868Y-60923586D01*
X170249500Y-61126535D01*
X170249500Y-61333464D01*
X170289868Y-61536413D01*
X170289870Y-61536420D01*
X170369059Y-61727598D01*
X170484022Y-61899654D01*
X170630345Y-62045977D01*
X170802402Y-62160941D01*
X170903818Y-62202949D01*
X170943867Y-62242997D01*
X170949500Y-62271316D01*
X170949500Y-64344877D01*
X170927826Y-64397203D01*
X167147203Y-68177826D01*
X167094877Y-68199500D01*
X157433090Y-68199500D01*
X157353966Y-68199500D01*
X157277540Y-68219978D01*
X157277539Y-68219978D01*
X157277537Y-68219979D01*
X157277535Y-68219980D01*
X157209020Y-68259537D01*
X155540731Y-69927826D01*
X155488405Y-69949500D01*
X155437966Y-69949500D01*
X155385640Y-69927826D01*
X155307314Y-69849500D01*
X155193190Y-69783610D01*
X155193181Y-69783606D01*
X155065894Y-69749500D01*
X155065892Y-69749500D01*
X154934108Y-69749500D01*
X154934106Y-69749500D01*
X154806818Y-69783606D01*
X154806809Y-69783610D01*
X154692685Y-69849500D01*
X154599500Y-69942685D01*
X154533610Y-70056809D01*
X154533606Y-70056818D01*
X154499500Y-70184105D01*
X154499500Y-70315894D01*
X154533606Y-70443181D01*
X154533610Y-70443190D01*
X154556943Y-70483603D01*
X154599500Y-70557314D01*
X154692686Y-70650500D01*
X154806814Y-70716392D01*
X154934105Y-70750499D01*
X154934106Y-70750500D01*
X154934108Y-70750500D01*
X155065893Y-70750500D01*
X155075960Y-70747802D01*
X155098651Y-70741722D01*
X155154803Y-70749113D01*
X155189282Y-70794046D01*
X155181891Y-70850199D01*
X155170130Y-70865526D01*
X155057831Y-70977826D01*
X155005505Y-70999500D01*
X154934106Y-70999500D01*
X154806818Y-71033606D01*
X154806809Y-71033610D01*
X154692685Y-71099500D01*
X154599500Y-71192685D01*
X154533610Y-71306809D01*
X154533606Y-71306818D01*
X154499500Y-71434105D01*
X154499500Y-71565894D01*
X154533606Y-71693181D01*
X154533607Y-71693184D01*
X154533608Y-71693186D01*
X154599500Y-71807314D01*
X154692686Y-71900500D01*
X154806814Y-71966392D01*
X154806818Y-71966393D01*
X154811294Y-71968247D01*
X154810153Y-71970999D01*
X154818039Y-71977054D01*
X154835876Y-71984442D01*
X154839707Y-71993692D01*
X154847649Y-71999790D01*
X154850162Y-72018930D01*
X154857551Y-72036767D01*
X154853719Y-72046017D01*
X154855023Y-72055945D01*
X154835878Y-72089094D01*
X154815490Y-72109483D01*
X154815489Y-72109484D01*
X154759540Y-72165432D01*
X154719979Y-72233953D01*
X154719977Y-72233958D01*
X154699500Y-72310379D01*
X154699500Y-72312034D01*
X154699180Y-72312804D01*
X154698867Y-72315189D01*
X154698228Y-72315104D01*
X154677826Y-72364360D01*
X154599500Y-72442685D01*
X154533610Y-72556809D01*
X154533606Y-72556818D01*
X154499500Y-72684105D01*
X154499500Y-72815894D01*
X154533606Y-72943181D01*
X154533610Y-72943190D01*
X154563861Y-72995586D01*
X154599500Y-73057314D01*
X154692686Y-73150500D01*
X154806814Y-73216392D01*
X154934105Y-73250499D01*
X154934106Y-73250500D01*
X154934108Y-73250500D01*
X155065894Y-73250500D01*
X155065894Y-73250499D01*
X155152434Y-73227311D01*
X155208585Y-73234703D01*
X155243064Y-73279636D01*
X155235672Y-73335788D01*
X155223912Y-73351115D01*
X155097202Y-73477826D01*
X155044876Y-73499500D01*
X154934106Y-73499500D01*
X154806818Y-73533606D01*
X154806809Y-73533610D01*
X154692685Y-73599500D01*
X154599500Y-73692685D01*
X154533610Y-73806809D01*
X154533606Y-73806818D01*
X154499500Y-73934105D01*
X154499500Y-74065894D01*
X154533606Y-74193181D01*
X154533610Y-74193190D01*
X154556895Y-74233521D01*
X154599500Y-74307314D01*
X154692686Y-74400500D01*
X154806814Y-74466392D01*
X154934105Y-74500499D01*
X154934106Y-74500500D01*
X154934108Y-74500500D01*
X155065894Y-74500500D01*
X155065894Y-74500499D01*
X155152434Y-74477311D01*
X155208585Y-74484703D01*
X155243064Y-74529636D01*
X155235672Y-74585788D01*
X155223912Y-74601115D01*
X155097202Y-74727826D01*
X155044876Y-74749500D01*
X154934106Y-74749500D01*
X154806818Y-74783606D01*
X154806809Y-74783610D01*
X154692685Y-74849500D01*
X154599500Y-74942685D01*
X154533610Y-75056809D01*
X154533606Y-75056818D01*
X154499500Y-75184105D01*
X154499500Y-75315894D01*
X154533606Y-75443181D01*
X154533610Y-75443190D01*
X154560902Y-75490460D01*
X154599500Y-75557314D01*
X154692686Y-75650500D01*
X154806814Y-75716392D01*
X154934105Y-75750499D01*
X154934106Y-75750500D01*
X154934108Y-75750500D01*
X155065894Y-75750500D01*
X155065894Y-75750499D01*
X155193186Y-75716392D01*
X155307314Y-75650500D01*
X155400500Y-75557314D01*
X155466392Y-75443186D01*
X155500499Y-75315894D01*
X155500500Y-75315894D01*
X155500500Y-75205122D01*
X155522174Y-75152796D01*
X155947144Y-74727826D01*
X156454384Y-74220585D01*
X156506709Y-74198912D01*
X156543709Y-74208826D01*
X156556814Y-74216392D01*
X156684105Y-74250499D01*
X156684106Y-74250500D01*
X156684108Y-74250500D01*
X156815894Y-74250500D01*
X156815894Y-74250499D01*
X156906847Y-74226129D01*
X156963000Y-74233521D01*
X156997478Y-74278454D01*
X157000000Y-74297607D01*
X157000000Y-75250000D01*
X157008301Y-75258301D01*
X157029975Y-75310627D01*
X157027454Y-75329779D01*
X156999500Y-75434108D01*
X156999500Y-75565894D01*
X157033606Y-75693181D01*
X157033610Y-75693190D01*
X157066698Y-75750499D01*
X157099500Y-75807314D01*
X157192686Y-75900500D01*
X157306814Y-75966392D01*
X157434105Y-76000499D01*
X157434106Y-76000500D01*
X157434108Y-76000500D01*
X157565894Y-76000500D01*
X157565894Y-76000499D01*
X157693186Y-75966392D01*
X157807314Y-75900500D01*
X157900500Y-75807314D01*
X157966392Y-75693186D01*
X158000499Y-75565894D01*
X158000500Y-75565894D01*
X158000500Y-75434106D01*
X158000499Y-75434105D01*
X157998533Y-75426769D01*
X157979437Y-75355500D01*
X157976129Y-75343153D01*
X157983521Y-75287000D01*
X158028454Y-75252522D01*
X158047607Y-75250000D01*
X161579277Y-75250000D01*
X161631603Y-75271674D01*
X161653277Y-75324000D01*
X161631603Y-75376326D01*
X161581160Y-75426769D01*
X161528834Y-75448443D01*
X158961493Y-75448443D01*
X158885071Y-75468920D01*
X158885066Y-75468922D01*
X158847763Y-75490460D01*
X158816545Y-75508483D01*
X158147203Y-76177826D01*
X158094877Y-76199500D01*
X155437966Y-76199500D01*
X155385640Y-76177826D01*
X155307314Y-76099500D01*
X155193190Y-76033610D01*
X155193181Y-76033606D01*
X155065894Y-75999500D01*
X155065892Y-75999500D01*
X154934108Y-75999500D01*
X154934106Y-75999500D01*
X154806818Y-76033606D01*
X154806809Y-76033610D01*
X154692685Y-76099500D01*
X154599500Y-76192685D01*
X154533610Y-76306809D01*
X154533606Y-76306818D01*
X154499500Y-76434105D01*
X154499500Y-76565894D01*
X154533606Y-76693181D01*
X154533607Y-76693184D01*
X154533608Y-76693186D01*
X154599500Y-76807314D01*
X154692686Y-76900500D01*
X154806814Y-76966392D01*
X154806818Y-76966393D01*
X154872083Y-76983881D01*
X154917016Y-77018359D01*
X154924408Y-77074512D01*
X154889930Y-77119445D01*
X154872083Y-77126837D01*
X154846818Y-77133606D01*
X154846809Y-77133610D01*
X154732685Y-77199500D01*
X154639500Y-77292685D01*
X154573608Y-77406812D01*
X154571753Y-77411293D01*
X154569029Y-77410164D01*
X154540105Y-77447708D01*
X154483938Y-77454991D01*
X154450904Y-77435876D01*
X154274568Y-77259540D01*
X154257178Y-77249500D01*
X154206047Y-77219979D01*
X154206042Y-77219977D01*
X154129621Y-77199500D01*
X154129619Y-77199500D01*
X150960438Y-77199500D01*
X150960436Y-77199500D01*
X150884014Y-77219977D01*
X150884009Y-77219979D01*
X150850051Y-77239586D01*
X150813051Y-77249500D01*
X150684106Y-77249500D01*
X150556818Y-77283606D01*
X150556809Y-77283610D01*
X150442685Y-77349500D01*
X150349500Y-77442685D01*
X150283610Y-77556809D01*
X150283606Y-77556818D01*
X150249500Y-77684105D01*
X150249500Y-77815894D01*
X150283606Y-77943181D01*
X150283610Y-77943190D01*
X150316698Y-78000500D01*
X150349500Y-78057314D01*
X150442686Y-78150500D01*
X150556814Y-78216392D01*
X150684105Y-78250499D01*
X150684106Y-78250500D01*
X150684108Y-78250500D01*
X150815894Y-78250500D01*
X150815894Y-78250499D01*
X150906347Y-78226263D01*
X150962500Y-78233655D01*
X150996978Y-78278588D01*
X150999500Y-78297741D01*
X150999500Y-78364892D01*
X151033608Y-78492186D01*
X151033609Y-78492189D01*
X151035263Y-78496181D01*
X151035263Y-78552818D01*
X150995215Y-78592867D01*
X150966896Y-78598500D01*
X139811436Y-78598500D01*
X139735014Y-78618977D01*
X139735009Y-78618979D01*
X139682147Y-78649500D01*
X139666488Y-78658540D01*
X138139540Y-80185488D01*
X138099979Y-80254009D01*
X138099977Y-80254014D01*
X138079500Y-80330435D01*
X138079500Y-80562034D01*
X138057826Y-80614360D01*
X137979500Y-80692685D01*
X137913610Y-80806809D01*
X137913606Y-80806818D01*
X137879500Y-80934105D01*
X134450500Y-80934105D01*
X134450500Y-66434105D01*
X141749500Y-66434105D01*
X141749500Y-66565894D01*
X141783606Y-66693181D01*
X141783610Y-66693190D01*
X141813861Y-66745586D01*
X141849500Y-66807314D01*
X141942686Y-66900500D01*
X142056814Y-66966392D01*
X142184105Y-67000499D01*
X142184106Y-67000500D01*
X142184108Y-67000500D01*
X142315894Y-67000500D01*
X142315894Y-67000499D01*
X142443186Y-66966392D01*
X142557314Y-66900500D01*
X142650500Y-66807314D01*
X142716392Y-66693186D01*
X142750499Y-66565894D01*
X142750500Y-66565894D01*
X142750500Y-66455122D01*
X142772174Y-66402796D01*
X142846558Y-66328412D01*
X142898885Y-66276085D01*
X142951210Y-66254412D01*
X143003536Y-66276086D01*
X143025210Y-66328412D01*
X143022689Y-66347564D01*
X142999500Y-66434108D01*
X142999500Y-66565894D01*
X143033606Y-66693181D01*
X143033610Y-66693190D01*
X143063861Y-66745586D01*
X143099500Y-66807314D01*
X143192686Y-66900500D01*
X143306814Y-66966392D01*
X143434105Y-67000499D01*
X143434106Y-67000500D01*
X143434108Y-67000500D01*
X143565894Y-67000500D01*
X143565894Y-67000499D01*
X143693186Y-66966392D01*
X143807314Y-66900500D01*
X143900500Y-66807314D01*
X143966392Y-66693186D01*
X144000499Y-66565894D01*
X144000500Y-66565894D01*
X144000500Y-66434106D01*
X144000499Y-66434105D01*
X143966393Y-66306818D01*
X143966392Y-66306814D01*
X143958826Y-66293709D01*
X143951434Y-66237556D01*
X143970584Y-66204385D01*
X144323175Y-65851795D01*
X144375500Y-65830122D01*
X144427826Y-65851796D01*
X144449500Y-65904122D01*
X144449500Y-66062034D01*
X144427826Y-66114360D01*
X144349500Y-66192685D01*
X144283610Y-66306809D01*
X144283606Y-66306818D01*
X144249500Y-66434105D01*
X144249500Y-66565894D01*
X144283606Y-66693181D01*
X144283610Y-66693190D01*
X144313861Y-66745586D01*
X144349500Y-66807314D01*
X144442686Y-66900500D01*
X144556814Y-66966392D01*
X144684105Y-67000499D01*
X144684106Y-67000500D01*
X144684108Y-67000500D01*
X144815894Y-67000500D01*
X144815894Y-67000499D01*
X144943186Y-66966392D01*
X145057314Y-66900500D01*
X145150500Y-66807314D01*
X145216392Y-66693186D01*
X145250499Y-66565894D01*
X145250500Y-66565894D01*
X145250500Y-66434106D01*
X145250499Y-66434105D01*
X145216393Y-66306818D01*
X145216392Y-66306814D01*
X145150500Y-66192686D01*
X145072174Y-66114360D01*
X145050500Y-66062034D01*
X145050500Y-65905123D01*
X145072174Y-65852797D01*
X147102797Y-63822174D01*
X147155123Y-63800500D01*
X147345877Y-63800500D01*
X147398203Y-63822174D01*
X147419877Y-63874500D01*
X147398203Y-63926826D01*
X145759540Y-65565488D01*
X145719979Y-65634009D01*
X145719977Y-65634014D01*
X145699500Y-65710435D01*
X145699500Y-66062034D01*
X145677826Y-66114360D01*
X145599500Y-66192685D01*
X145533610Y-66306809D01*
X145533606Y-66306818D01*
X145499500Y-66434105D01*
X145499500Y-66565894D01*
X145533606Y-66693181D01*
X145533610Y-66693190D01*
X145563861Y-66745586D01*
X145599500Y-66807314D01*
X145692686Y-66900500D01*
X145806814Y-66966392D01*
X145934105Y-67000499D01*
X145934106Y-67000500D01*
X145934108Y-67000500D01*
X146065894Y-67000500D01*
X146065894Y-67000499D01*
X146193186Y-66966392D01*
X146307314Y-66900500D01*
X146400500Y-66807314D01*
X146466392Y-66693186D01*
X146500499Y-66565894D01*
X146500500Y-66565894D01*
X146500500Y-66434106D01*
X146500499Y-66434105D01*
X146466393Y-66306818D01*
X146466392Y-66306814D01*
X146400500Y-66192686D01*
X146322174Y-66114360D01*
X146300500Y-66062034D01*
X146300500Y-65905123D01*
X146322174Y-65852797D01*
X146576471Y-65598500D01*
X146840222Y-65334748D01*
X146892547Y-65313075D01*
X146944873Y-65334749D01*
X146966547Y-65387075D01*
X146964025Y-65406228D01*
X146949500Y-65460435D01*
X146949500Y-66062034D01*
X146927826Y-66114360D01*
X146849500Y-66192685D01*
X146783610Y-66306809D01*
X146783606Y-66306818D01*
X146749500Y-66434105D01*
X146749500Y-66565894D01*
X146783606Y-66693181D01*
X146783610Y-66693190D01*
X146813861Y-66745586D01*
X146849500Y-66807314D01*
X146942686Y-66900500D01*
X147056814Y-66966392D01*
X147184105Y-67000499D01*
X147184106Y-67000500D01*
X147184108Y-67000500D01*
X147315894Y-67000500D01*
X147315894Y-67000499D01*
X147443186Y-66966392D01*
X147557314Y-66900500D01*
X147650500Y-66807314D01*
X147716392Y-66693186D01*
X147750499Y-66565894D01*
X147750500Y-66565894D01*
X147750500Y-66434106D01*
X147750499Y-66434105D01*
X147716393Y-66306818D01*
X147716392Y-66306814D01*
X147650500Y-66192686D01*
X147572174Y-66114360D01*
X147550500Y-66062034D01*
X147550500Y-65655123D01*
X147572174Y-65602797D01*
X148352797Y-64822174D01*
X148405123Y-64800500D01*
X154845876Y-64800500D01*
X154898202Y-64822174D01*
X154919876Y-64874500D01*
X154898202Y-64926826D01*
X154847202Y-64977826D01*
X154794876Y-64999500D01*
X154684106Y-64999500D01*
X154556818Y-65033606D01*
X154556809Y-65033610D01*
X154442685Y-65099500D01*
X154349500Y-65192685D01*
X154283610Y-65306809D01*
X154283606Y-65306818D01*
X154249500Y-65434105D01*
X154249500Y-65565894D01*
X154283606Y-65693181D01*
X154283610Y-65693190D01*
X154302248Y-65725471D01*
X154349500Y-65807314D01*
X154442686Y-65900500D01*
X154556814Y-65966392D01*
X154556818Y-65966393D01*
X154645147Y-65990061D01*
X154690080Y-66024539D01*
X154697472Y-66080692D01*
X154678320Y-66113865D01*
X154599500Y-66192685D01*
X154533610Y-66306809D01*
X154533606Y-66306818D01*
X154499500Y-66434105D01*
X154499500Y-66565894D01*
X154533606Y-66693181D01*
X154533610Y-66693190D01*
X154563861Y-66745586D01*
X154599500Y-66807314D01*
X154692686Y-66900500D01*
X154806814Y-66966392D01*
X154934105Y-67000499D01*
X154934106Y-67000500D01*
X154934108Y-67000500D01*
X155065894Y-67000500D01*
X155065894Y-67000499D01*
X155152434Y-66977311D01*
X155208585Y-66984703D01*
X155243064Y-67029636D01*
X155235672Y-67085788D01*
X155223912Y-67101115D01*
X155097202Y-67227826D01*
X155044876Y-67249500D01*
X154934106Y-67249500D01*
X154806818Y-67283606D01*
X154806809Y-67283610D01*
X154692685Y-67349500D01*
X154599500Y-67442685D01*
X154533610Y-67556809D01*
X154533606Y-67556818D01*
X154499500Y-67684105D01*
X154499500Y-67815894D01*
X154533606Y-67943181D01*
X154533610Y-67943190D01*
X154552765Y-67976367D01*
X154599500Y-68057314D01*
X154692686Y-68150500D01*
X154806814Y-68216392D01*
X154934105Y-68250499D01*
X154934106Y-68250500D01*
X154934108Y-68250500D01*
X155065894Y-68250500D01*
X155065894Y-68250499D01*
X155152434Y-68227311D01*
X155208585Y-68234703D01*
X155243064Y-68279636D01*
X155235672Y-68335788D01*
X155223912Y-68351115D01*
X155097202Y-68477826D01*
X155044876Y-68499500D01*
X154934106Y-68499500D01*
X154806818Y-68533606D01*
X154806809Y-68533610D01*
X154692685Y-68599500D01*
X154599500Y-68692685D01*
X154533610Y-68806809D01*
X154533606Y-68806818D01*
X154499500Y-68934105D01*
X154499500Y-69065894D01*
X154533606Y-69193181D01*
X154533607Y-69193184D01*
X154533608Y-69193186D01*
X154599500Y-69307314D01*
X154692686Y-69400500D01*
X154806814Y-69466392D01*
X154934105Y-69500499D01*
X154934106Y-69500500D01*
X154934108Y-69500500D01*
X155065894Y-69500500D01*
X155065894Y-69500499D01*
X155193186Y-69466392D01*
X155307314Y-69400500D01*
X155400500Y-69307314D01*
X155466392Y-69193186D01*
X155500499Y-69065894D01*
X155500500Y-69065894D01*
X155500500Y-68955122D01*
X155522174Y-68902796D01*
X158191297Y-66233674D01*
X158243623Y-66212000D01*
X162438000Y-66212000D01*
X162490326Y-66233674D01*
X162512000Y-66286000D01*
X162512000Y-67807248D01*
X162513919Y-67816894D01*
X162523633Y-67865732D01*
X162547671Y-67901706D01*
X162567948Y-67932052D01*
X162586108Y-67944186D01*
X162634267Y-67976366D01*
X162634268Y-67976366D01*
X162634269Y-67976367D01*
X162692752Y-67988000D01*
X162692754Y-67988000D01*
X164307246Y-67988000D01*
X164307248Y-67988000D01*
X164365731Y-67976367D01*
X164432052Y-67932052D01*
X164476367Y-67865731D01*
X164488000Y-67807248D01*
X164488000Y-67374500D01*
X164509674Y-67322174D01*
X164562000Y-67300500D01*
X166789564Y-67300500D01*
X166789564Y-67300499D01*
X166865989Y-67280021D01*
X166934511Y-67240460D01*
X166990460Y-67184511D01*
X167902796Y-66272173D01*
X167955122Y-66250500D01*
X168065894Y-66250500D01*
X168065894Y-66250499D01*
X168193186Y-66216392D01*
X168307314Y-66150500D01*
X168400500Y-66057314D01*
X168466392Y-65943186D01*
X168500499Y-65815894D01*
X168500500Y-65815894D01*
X168500500Y-65684106D01*
X168500499Y-65684105D01*
X168492733Y-65655123D01*
X168466392Y-65556814D01*
X168400500Y-65442686D01*
X168307314Y-65349500D01*
X168281765Y-65334749D01*
X168193190Y-65283610D01*
X168193181Y-65283606D01*
X168065894Y-65249500D01*
X168065892Y-65249500D01*
X167934108Y-65249500D01*
X167934106Y-65249500D01*
X167806818Y-65283606D01*
X167806809Y-65283610D01*
X167692685Y-65349500D01*
X167599500Y-65442685D01*
X167533610Y-65556809D01*
X167533606Y-65556818D01*
X167499500Y-65684105D01*
X167499500Y-65794876D01*
X167477826Y-65847202D01*
X166647203Y-66677826D01*
X166594877Y-66699500D01*
X164562000Y-66699500D01*
X164509674Y-66677826D01*
X164488000Y-66625500D01*
X164488000Y-66286000D01*
X164509674Y-66233674D01*
X164562000Y-66212000D01*
X166378064Y-66212000D01*
X166378064Y-66211999D01*
X166454489Y-66191521D01*
X166523011Y-66151960D01*
X166578960Y-66096011D01*
X169000460Y-63674511D01*
X169016927Y-63645989D01*
X169040021Y-63605989D01*
X169060499Y-63529564D01*
X169060500Y-63529564D01*
X169060500Y-62292027D01*
X169082174Y-62239701D01*
X169106179Y-62223660D01*
X169257598Y-62160941D01*
X169429655Y-62045977D01*
X169575977Y-61899655D01*
X169690941Y-61727598D01*
X169770130Y-61536420D01*
X169810500Y-61333465D01*
X169810500Y-61126535D01*
X169770130Y-60923580D01*
X169690941Y-60732402D01*
X169575977Y-60560345D01*
X169429655Y-60414023D01*
X169257598Y-60299059D01*
X169066420Y-60219870D01*
X169066413Y-60219868D01*
X168913516Y-60189455D01*
X168863465Y-60179500D01*
X168656535Y-60179500D01*
X168616385Y-60187486D01*
X168453586Y-60219868D01*
X168453579Y-60219870D01*
X168262401Y-60299059D01*
X168090345Y-60414022D01*
X168090344Y-60414024D01*
X167944024Y-60560344D01*
X167944022Y-60560345D01*
X167829059Y-60732401D01*
X167749870Y-60923579D01*
X167749868Y-60923586D01*
X167709500Y-61126535D01*
X167709500Y-61333464D01*
X167749868Y-61536413D01*
X167749870Y-61536420D01*
X167829059Y-61727598D01*
X167944023Y-61899655D01*
X168090345Y-62045977D01*
X168262402Y-62160941D01*
X168413819Y-62223660D01*
X168453867Y-62263708D01*
X168459500Y-62292027D01*
X168459500Y-63334877D01*
X168437826Y-63387203D01*
X166235703Y-65589326D01*
X166183377Y-65611000D01*
X164742623Y-65611000D01*
X164690297Y-65589326D01*
X164668623Y-65537000D01*
X164690297Y-65484674D01*
X165566431Y-64608540D01*
X166460460Y-63714511D01*
X166500021Y-63645989D01*
X166520499Y-63569564D01*
X166520500Y-63569564D01*
X166520500Y-62292027D01*
X166542174Y-62239701D01*
X166566179Y-62223660D01*
X166717598Y-62160941D01*
X166889655Y-62045977D01*
X167035977Y-61899655D01*
X167150941Y-61727598D01*
X167230130Y-61536420D01*
X167270500Y-61333465D01*
X167270500Y-61126535D01*
X167230130Y-60923580D01*
X167150941Y-60732402D01*
X167035977Y-60560345D01*
X166889655Y-60414023D01*
X166717598Y-60299059D01*
X166526420Y-60219870D01*
X166526413Y-60219868D01*
X166373516Y-60189455D01*
X166323465Y-60179500D01*
X166116535Y-60179500D01*
X166076385Y-60187486D01*
X165913586Y-60219868D01*
X165913579Y-60219870D01*
X165722401Y-60299059D01*
X165550345Y-60414022D01*
X165550344Y-60414024D01*
X165404024Y-60560344D01*
X165404022Y-60560345D01*
X165289059Y-60732401D01*
X165209870Y-60923579D01*
X165209868Y-60923586D01*
X165169500Y-61126535D01*
X165169500Y-61333464D01*
X165209868Y-61536413D01*
X165209870Y-61536420D01*
X165289059Y-61727598D01*
X165404023Y-61899655D01*
X165550345Y-62045977D01*
X165722402Y-62160941D01*
X165873819Y-62223660D01*
X165913867Y-62263708D01*
X165919500Y-62292027D01*
X165919500Y-63374877D01*
X165897826Y-63427203D01*
X164397203Y-64927826D01*
X164344877Y-64949500D01*
X162404123Y-64949500D01*
X162351797Y-64927826D01*
X162330123Y-64875500D01*
X162351797Y-64823174D01*
X163105084Y-64069887D01*
X163920460Y-63254511D01*
X163934900Y-63229500D01*
X163960021Y-63185989D01*
X163980499Y-63109564D01*
X163980500Y-63109564D01*
X163980500Y-62292027D01*
X164002174Y-62239701D01*
X164026179Y-62223660D01*
X164177598Y-62160941D01*
X164349655Y-62045977D01*
X164495977Y-61899655D01*
X164610941Y-61727598D01*
X164690130Y-61536420D01*
X164730500Y-61333465D01*
X164730500Y-61126535D01*
X164690130Y-60923580D01*
X164610941Y-60732402D01*
X164495977Y-60560345D01*
X164349655Y-60414023D01*
X164177598Y-60299059D01*
X163986420Y-60219870D01*
X163986413Y-60219868D01*
X163833516Y-60189455D01*
X163783465Y-60179500D01*
X163576535Y-60179500D01*
X163536385Y-60187486D01*
X163373586Y-60219868D01*
X163373579Y-60219870D01*
X163182401Y-60299059D01*
X163010345Y-60414022D01*
X163010344Y-60414024D01*
X162864024Y-60560344D01*
X162864022Y-60560345D01*
X162749059Y-60732401D01*
X162669870Y-60923579D01*
X162669868Y-60923586D01*
X162629500Y-61126535D01*
X162629500Y-61333464D01*
X162669868Y-61536413D01*
X162669870Y-61536420D01*
X162749059Y-61727598D01*
X162864023Y-61899655D01*
X163010345Y-62045977D01*
X163182402Y-62160941D01*
X163333819Y-62223660D01*
X163373867Y-62263708D01*
X163379500Y-62292027D01*
X163379500Y-62914877D01*
X163357826Y-62967203D01*
X161798203Y-64526826D01*
X161745877Y-64548500D01*
X160055123Y-64548500D01*
X160002797Y-64526826D01*
X159981123Y-64474500D01*
X160002797Y-64422174D01*
X160624471Y-63800500D01*
X161380460Y-63044511D01*
X161396927Y-63015989D01*
X161420021Y-62975989D01*
X161440499Y-62899564D01*
X161440500Y-62899564D01*
X161440500Y-62292027D01*
X161462174Y-62239701D01*
X161486179Y-62223660D01*
X161637598Y-62160941D01*
X161809655Y-62045977D01*
X161955977Y-61899655D01*
X162070941Y-61727598D01*
X162150130Y-61536420D01*
X162190500Y-61333465D01*
X162190500Y-61126535D01*
X162150130Y-60923580D01*
X162070941Y-60732402D01*
X161955977Y-60560345D01*
X161809655Y-60414023D01*
X161637598Y-60299059D01*
X161446420Y-60219870D01*
X161446413Y-60219868D01*
X161293516Y-60189455D01*
X161243465Y-60179500D01*
X161036535Y-60179500D01*
X160996385Y-60187486D01*
X160833586Y-60219868D01*
X160833579Y-60219870D01*
X160642401Y-60299059D01*
X160470345Y-60414022D01*
X160470344Y-60414024D01*
X160324024Y-60560344D01*
X160324022Y-60560345D01*
X160209059Y-60732401D01*
X160129870Y-60923579D01*
X160129868Y-60923586D01*
X160089500Y-61126535D01*
X160089500Y-61333464D01*
X160129868Y-61536413D01*
X160129870Y-61536420D01*
X160209059Y-61727598D01*
X160324023Y-61899655D01*
X160470345Y-62045977D01*
X160642402Y-62160941D01*
X160793819Y-62223660D01*
X160833867Y-62263708D01*
X160839500Y-62292027D01*
X160839500Y-62704877D01*
X160817826Y-62757203D01*
X159647203Y-63927826D01*
X159594877Y-63949500D01*
X158154123Y-63949500D01*
X158101797Y-63927826D01*
X158080123Y-63875500D01*
X158101797Y-63823174D01*
X158278986Y-63645985D01*
X158840460Y-63084511D01*
X158880022Y-63015988D01*
X158900500Y-62939562D01*
X158900500Y-62860438D01*
X158900500Y-62292027D01*
X158922174Y-62239701D01*
X158946179Y-62223660D01*
X159097598Y-62160941D01*
X159269655Y-62045977D01*
X159415977Y-61899655D01*
X159530941Y-61727598D01*
X159610130Y-61536420D01*
X159650500Y-61333465D01*
X159650500Y-61126535D01*
X159610130Y-60923580D01*
X159530941Y-60732402D01*
X159415977Y-60560345D01*
X159269655Y-60414023D01*
X159097598Y-60299059D01*
X158906420Y-60219870D01*
X158906413Y-60219868D01*
X158753516Y-60189455D01*
X158703465Y-60179500D01*
X158496535Y-60179500D01*
X158456385Y-60187486D01*
X158293586Y-60219868D01*
X158293579Y-60219870D01*
X158102401Y-60299059D01*
X157930345Y-60414022D01*
X157930344Y-60414024D01*
X157784024Y-60560344D01*
X157784022Y-60560345D01*
X157669059Y-60732401D01*
X157589870Y-60923579D01*
X157589868Y-60923586D01*
X157549500Y-61126535D01*
X157549500Y-61333464D01*
X157589868Y-61536413D01*
X157589870Y-61536420D01*
X157669059Y-61727598D01*
X157784023Y-61899655D01*
X157930345Y-62045977D01*
X158102402Y-62160941D01*
X158253819Y-62223660D01*
X158293867Y-62263708D01*
X158299500Y-62292027D01*
X158299500Y-62744877D01*
X158277826Y-62797203D01*
X157548203Y-63526826D01*
X157495877Y-63548500D01*
X156055123Y-63548500D01*
X156002797Y-63526826D01*
X155981123Y-63474500D01*
X156002797Y-63422174D01*
X156130698Y-63294273D01*
X156300460Y-63124511D01*
X156323554Y-63084511D01*
X156340021Y-63055989D01*
X156360499Y-62979564D01*
X156360500Y-62979564D01*
X156360500Y-62292027D01*
X156382174Y-62239701D01*
X156406179Y-62223660D01*
X156557598Y-62160941D01*
X156729655Y-62045977D01*
X156875977Y-61899655D01*
X156990941Y-61727598D01*
X157070130Y-61536420D01*
X157110500Y-61333465D01*
X157110500Y-61126535D01*
X157070130Y-60923580D01*
X156990941Y-60732402D01*
X156875977Y-60560345D01*
X156729655Y-60414023D01*
X156557598Y-60299059D01*
X156366420Y-60219870D01*
X156366413Y-60219868D01*
X156213516Y-60189455D01*
X156163465Y-60179500D01*
X155956535Y-60179500D01*
X155916385Y-60187486D01*
X155753586Y-60219868D01*
X155753579Y-60219870D01*
X155562401Y-60299059D01*
X155390345Y-60414022D01*
X155390344Y-60414024D01*
X155244024Y-60560344D01*
X155244022Y-60560345D01*
X155129059Y-60732401D01*
X155049870Y-60923579D01*
X155049868Y-60923586D01*
X155009500Y-61126535D01*
X155009500Y-61333464D01*
X155049868Y-61536413D01*
X155049870Y-61536420D01*
X155129059Y-61727598D01*
X155244023Y-61899655D01*
X155390345Y-62045977D01*
X155562402Y-62160941D01*
X155713819Y-62223660D01*
X155753867Y-62263708D01*
X155759500Y-62292027D01*
X155759500Y-62784877D01*
X155737826Y-62837203D01*
X154897203Y-63677826D01*
X154844877Y-63699500D01*
X153154123Y-63699500D01*
X153101797Y-63677826D01*
X153080123Y-63625500D01*
X153101797Y-63573174D01*
X153420460Y-63254511D01*
X153760460Y-62914511D01*
X153778935Y-62882511D01*
X153800021Y-62845989D01*
X153820499Y-62769564D01*
X153820500Y-62769564D01*
X153820500Y-62292027D01*
X153842174Y-62239701D01*
X153866179Y-62223660D01*
X154017598Y-62160941D01*
X154189655Y-62045977D01*
X154335977Y-61899655D01*
X154450941Y-61727598D01*
X154530130Y-61536420D01*
X154570500Y-61333465D01*
X154570500Y-61126535D01*
X154530130Y-60923580D01*
X154450941Y-60732402D01*
X154335977Y-60560345D01*
X154189655Y-60414023D01*
X154017598Y-60299059D01*
X153826420Y-60219870D01*
X153826413Y-60219868D01*
X153673516Y-60189455D01*
X153623465Y-60179500D01*
X153416535Y-60179500D01*
X153376385Y-60187486D01*
X153213586Y-60219868D01*
X153213579Y-60219870D01*
X153022401Y-60299059D01*
X152850345Y-60414022D01*
X152850344Y-60414024D01*
X152704024Y-60560344D01*
X152704022Y-60560345D01*
X152589059Y-60732401D01*
X152509870Y-60923579D01*
X152509868Y-60923586D01*
X152469500Y-61126535D01*
X152469500Y-61333464D01*
X152509868Y-61536413D01*
X152509870Y-61536420D01*
X152589059Y-61727598D01*
X152704023Y-61899655D01*
X152850345Y-62045977D01*
X153022402Y-62160941D01*
X153173819Y-62223660D01*
X153213867Y-62263708D01*
X153219500Y-62292027D01*
X153219500Y-62574877D01*
X153197826Y-62627203D01*
X152647203Y-63177826D01*
X152594877Y-63199500D01*
X150904123Y-63199500D01*
X150851797Y-63177826D01*
X150830123Y-63125500D01*
X150851797Y-63073174D01*
X150908983Y-63015988D01*
X151220460Y-62704511D01*
X151260022Y-62635988D01*
X151280500Y-62559562D01*
X151280500Y-62480438D01*
X151280500Y-62292027D01*
X151302174Y-62239701D01*
X151326179Y-62223660D01*
X151477598Y-62160941D01*
X151649655Y-62045977D01*
X151795977Y-61899655D01*
X151910941Y-61727598D01*
X151990130Y-61536420D01*
X152030500Y-61333465D01*
X152030500Y-61126535D01*
X151990130Y-60923580D01*
X151910941Y-60732402D01*
X151795977Y-60560345D01*
X151649655Y-60414023D01*
X151477598Y-60299059D01*
X151286420Y-60219870D01*
X151286413Y-60219868D01*
X151133516Y-60189455D01*
X151083465Y-60179500D01*
X150876535Y-60179500D01*
X150836385Y-60187486D01*
X150673586Y-60219868D01*
X150673579Y-60219870D01*
X150482401Y-60299059D01*
X150310345Y-60414022D01*
X150310344Y-60414024D01*
X150164024Y-60560344D01*
X150164022Y-60560345D01*
X150049059Y-60732401D01*
X149969870Y-60923579D01*
X149969868Y-60923586D01*
X149929500Y-61126535D01*
X149929500Y-61333464D01*
X149969868Y-61536413D01*
X149969870Y-61536420D01*
X150049059Y-61727598D01*
X150164023Y-61899655D01*
X150310345Y-62045977D01*
X150482402Y-62160941D01*
X150633819Y-62223660D01*
X150644227Y-62234068D01*
X150657826Y-62239701D01*
X150663458Y-62253299D01*
X150673867Y-62263708D01*
X150679500Y-62292027D01*
X150679500Y-62364877D01*
X150657826Y-62417203D01*
X150298203Y-62776826D01*
X150245877Y-62798500D01*
X148305123Y-62798500D01*
X148252797Y-62776826D01*
X148231123Y-62724500D01*
X148252797Y-62672174D01*
X148350094Y-62574877D01*
X148653679Y-62271290D01*
X148691566Y-62251040D01*
X148741237Y-62241161D01*
X148746411Y-62240132D01*
X148746412Y-62240131D01*
X148746420Y-62240130D01*
X148937598Y-62160941D01*
X149109655Y-62045977D01*
X149255977Y-61899655D01*
X149370941Y-61727598D01*
X149450130Y-61536420D01*
X149490500Y-61333465D01*
X149490500Y-61126535D01*
X149450130Y-60923580D01*
X149370941Y-60732402D01*
X149255977Y-60560345D01*
X149109655Y-60414023D01*
X148937598Y-60299059D01*
X148746420Y-60219870D01*
X148746413Y-60219868D01*
X148593516Y-60189455D01*
X148543465Y-60179500D01*
X148336535Y-60179500D01*
X148296385Y-60187486D01*
X148133586Y-60219868D01*
X148133579Y-60219870D01*
X147942401Y-60299059D01*
X147770345Y-60414022D01*
X147770344Y-60414024D01*
X147624024Y-60560344D01*
X147624022Y-60560345D01*
X147509059Y-60732401D01*
X147429870Y-60923579D01*
X147429868Y-60923586D01*
X147389500Y-61126535D01*
X147389500Y-61333464D01*
X147429868Y-61536413D01*
X147429870Y-61536420D01*
X147509059Y-61727598D01*
X147624022Y-61899654D01*
X147770345Y-62045977D01*
X147850454Y-62099504D01*
X147881920Y-62146596D01*
X147870871Y-62202145D01*
X147861668Y-62213359D01*
X147699203Y-62375826D01*
X147646877Y-62397500D01*
X146341562Y-62397500D01*
X146262438Y-62397500D01*
X146186012Y-62417978D01*
X146186011Y-62417978D01*
X146186009Y-62417979D01*
X146186007Y-62417980D01*
X146117492Y-62457537D01*
X142998203Y-65576826D01*
X142945877Y-65598500D01*
X142811436Y-65598500D01*
X142735014Y-65618977D01*
X142735009Y-65618979D01*
X142706763Y-65635288D01*
X142666488Y-65658540D01*
X142347202Y-65977826D01*
X142294876Y-65999500D01*
X142184106Y-65999500D01*
X142056818Y-66033606D01*
X142056809Y-66033610D01*
X141942685Y-66099500D01*
X141849500Y-66192685D01*
X141783610Y-66306809D01*
X141783606Y-66306818D01*
X141749500Y-66434105D01*
X134450500Y-66434105D01*
X134450500Y-61126535D01*
X137229500Y-61126535D01*
X137229500Y-61333464D01*
X137269868Y-61536413D01*
X137269870Y-61536420D01*
X137349059Y-61727598D01*
X137464023Y-61899655D01*
X137610345Y-62045977D01*
X137782402Y-62160941D01*
X137973580Y-62240130D01*
X138176535Y-62280500D01*
X138176536Y-62280500D01*
X138383464Y-62280500D01*
X138383465Y-62280500D01*
X138586420Y-62240130D01*
X138777598Y-62160941D01*
X138949655Y-62045977D01*
X139095977Y-61899655D01*
X139210941Y-61727598D01*
X139290130Y-61536420D01*
X139330500Y-61333465D01*
X139330500Y-61126535D01*
X139769500Y-61126535D01*
X139769500Y-61333464D01*
X139809868Y-61536413D01*
X139809870Y-61536420D01*
X139889059Y-61727598D01*
X140004023Y-61899655D01*
X140150345Y-62045977D01*
X140322402Y-62160941D01*
X140513580Y-62240130D01*
X140716535Y-62280500D01*
X140716536Y-62280500D01*
X140923464Y-62280500D01*
X140923465Y-62280500D01*
X141126420Y-62240130D01*
X141317598Y-62160941D01*
X141489655Y-62045977D01*
X141635977Y-61899655D01*
X141750941Y-61727598D01*
X141830130Y-61536420D01*
X141870500Y-61333465D01*
X141870500Y-61126535D01*
X141830130Y-60923580D01*
X141750941Y-60732402D01*
X141635977Y-60560345D01*
X141489655Y-60414023D01*
X141317598Y-60299059D01*
X141126420Y-60219870D01*
X141126413Y-60219868D01*
X140973516Y-60189455D01*
X140923465Y-60179500D01*
X140716535Y-60179500D01*
X140676385Y-60187486D01*
X140513586Y-60219868D01*
X140513579Y-60219870D01*
X140322401Y-60299059D01*
X140150345Y-60414022D01*
X140150344Y-60414024D01*
X140004024Y-60560344D01*
X140004022Y-60560345D01*
X139889059Y-60732401D01*
X139809870Y-60923579D01*
X139809868Y-60923586D01*
X139769500Y-61126535D01*
X139330500Y-61126535D01*
X139290130Y-60923580D01*
X139210941Y-60732402D01*
X139095977Y-60560345D01*
X138949655Y-60414023D01*
X138777598Y-60299059D01*
X138586420Y-60219870D01*
X138586413Y-60219868D01*
X138433516Y-60189455D01*
X138383465Y-60179500D01*
X138176535Y-60179500D01*
X138136385Y-60187486D01*
X137973586Y-60219868D01*
X137973579Y-60219870D01*
X137782401Y-60299059D01*
X137610345Y-60414022D01*
X137610344Y-60414024D01*
X137464024Y-60560344D01*
X137464022Y-60560345D01*
X137349059Y-60732401D01*
X137269870Y-60923579D01*
X137269868Y-60923586D01*
X137229500Y-61126535D01*
X134450500Y-61126535D01*
X134450500Y-59894500D01*
X134472174Y-59842174D01*
X134524500Y-59820500D01*
X188210118Y-59820500D01*
X190475500Y-59820500D01*
X190527826Y-59842174D01*
G37*
%TD.AperFunction*%
%TD*%
M02*
