%TF.GenerationSoftware,KiCad,Pcbnew,9.0.2*%
%TF.CreationDate,2025-11-07T15:55:12+08:00*%
%TF.ProjectId,TrlBoard,54726c42-6f61-4726-942e-6b696361645f,rev?*%
%TF.SameCoordinates,Original*%
%TF.FileFunction,Paste,Top*%
%TF.FilePolarity,Positive*%
%FSLAX46Y46*%
G04 Gerber Fmt 4.6, Leading zero omitted, Abs format (unit mm)*
G04 Created by KiCad (PCBNEW 9.0.2) date 2025-11-07 15:55:12*
%MOMM*%
%LPD*%
G01*
G04 APERTURE LIST*
G04 Aperture macros list*
%AMRoundRect*
0 Rectangle with rounded corners*
0 $1 Rounding radius*
0 $2 $3 $4 $5 $6 $7 $8 $9 X,Y pos of 4 corners*
0 Add a 4 corners polygon primitive as box body*
4,1,4,$2,$3,$4,$5,$6,$7,$8,$9,$2,$3,0*
0 Add four circle primitives for the rounded corners*
1,1,$1+$1,$2,$3*
1,1,$1+$1,$4,$5*
1,1,$1+$1,$6,$7*
1,1,$1+$1,$8,$9*
0 Add four rect primitives between the rounded corners*
20,1,$1+$1,$2,$3,$4,$5,0*
20,1,$1+$1,$4,$5,$6,$7,0*
20,1,$1+$1,$6,$7,$8,$9,0*
20,1,$1+$1,$8,$9,$2,$3,0*%
G04 Aperture macros list end*
%ADD10RoundRect,0.225000X0.250000X-0.225000X0.250000X0.225000X-0.250000X0.225000X-0.250000X-0.225000X0*%
%ADD11RoundRect,0.140000X0.140000X0.170000X-0.140000X0.170000X-0.140000X-0.170000X0.140000X-0.170000X0*%
%ADD12RoundRect,0.140000X-0.170000X0.140000X-0.170000X-0.140000X0.170000X-0.140000X0.170000X0.140000X0*%
%ADD13R,0.900000X0.900000*%
%ADD14R,0.900000X1.500000*%
%ADD15R,1.500000X0.900000*%
%ADD16RoundRect,0.135000X0.185000X-0.135000X0.185000X0.135000X-0.185000X0.135000X-0.185000X-0.135000X0*%
%ADD17RoundRect,0.225000X0.225000X0.250000X-0.225000X0.250000X-0.225000X-0.250000X0.225000X-0.250000X0*%
%ADD18RoundRect,0.135000X0.135000X0.185000X-0.135000X0.185000X-0.135000X-0.185000X0.135000X-0.185000X0*%
%ADD19RoundRect,0.225000X-0.250000X0.225000X-0.250000X-0.225000X0.250000X-0.225000X0.250000X0.225000X0*%
%ADD20RoundRect,0.077500X-0.232500X0.577500X-0.232500X-0.577500X0.232500X-0.577500X0.232500X0.577500X0*%
%ADD21R,1.450000X0.600000*%
%ADD22R,1.450000X0.300000*%
%ADD23R,0.800000X0.600000*%
%ADD24RoundRect,0.135000X-0.185000X0.135000X-0.185000X-0.135000X0.185000X-0.135000X0.185000X0.135000X0*%
%ADD25RoundRect,0.135000X-0.135000X-0.185000X0.135000X-0.185000X0.135000X0.185000X-0.135000X0.185000X0*%
%ADD26RoundRect,0.075000X-0.075000X0.350000X-0.075000X-0.350000X0.075000X-0.350000X0.075000X0.350000X0*%
%ADD27RoundRect,0.075000X-0.350000X-0.075000X0.350000X-0.075000X0.350000X0.075000X-0.350000X0.075000X0*%
%ADD28RoundRect,0.160000X-0.160000X0.160000X-0.160000X-0.160000X0.160000X-0.160000X0.160000X0.160000X0*%
%ADD29RoundRect,0.062500X-0.062500X0.375000X-0.062500X-0.375000X0.062500X-0.375000X0.062500X0.375000X0*%
%ADD30RoundRect,0.062500X-0.375000X0.062500X-0.375000X-0.062500X0.375000X-0.062500X0.375000X0.062500X0*%
%ADD31RoundRect,0.160000X-0.222500X-0.160000X0.222500X-0.160000X0.222500X0.160000X-0.222500X0.160000X0*%
%ADD32R,0.230000X0.230000*%
%ADD33O,0.800000X0.230000*%
%ADD34R,0.230000X0.600000*%
%ADD35R,0.150000X0.600000*%
%ADD36R,0.650000X0.900000*%
%ADD37RoundRect,0.147500X-0.147500X-0.172500X0.147500X-0.172500X0.147500X0.172500X-0.147500X0.172500X0*%
G04 APERTURE END LIST*
D10*
%TO.C,C9*%
X164750000Y-82525000D03*
X164750000Y-80975000D03*
%TD*%
D11*
%TO.C,C4*%
X172000000Y-63501000D03*
X171040000Y-63501000D03*
%TD*%
%TO.C,C12*%
X171980000Y-65001000D03*
X171020000Y-65001000D03*
%TD*%
D12*
%TO.C,C14*%
X155750000Y-81020000D03*
X155750000Y-81980000D03*
%TD*%
D13*
%TO.C,U2*%
X142070000Y-76540000D03*
X143470000Y-76540000D03*
X144870000Y-76540000D03*
X142070000Y-75140000D03*
X143470000Y-75140000D03*
X144870000Y-75140000D03*
X142070000Y-73740000D03*
X143470000Y-73740000D03*
X144870000Y-73740000D03*
D14*
X135750000Y-82390000D03*
X137020000Y-82390000D03*
X138290000Y-82390000D03*
X139560000Y-82390000D03*
X140830000Y-82390000D03*
X142100000Y-82390000D03*
X143370000Y-82390000D03*
X144640000Y-82390000D03*
X145910000Y-82390000D03*
X147180000Y-82390000D03*
X148450000Y-82390000D03*
X149720000Y-82390000D03*
X150990000Y-82390000D03*
X152260000Y-82390000D03*
D15*
X153510000Y-80625000D03*
X153510000Y-79355000D03*
X153510000Y-78085000D03*
X153510000Y-76815000D03*
X153510000Y-75545000D03*
X153510000Y-74275000D03*
X153510000Y-73005000D03*
X153510000Y-71735000D03*
X153510000Y-70465000D03*
X153510000Y-69195000D03*
X153510000Y-67925000D03*
X153510000Y-66655000D03*
D14*
X152260000Y-64890000D03*
X150990000Y-64890000D03*
X149720000Y-64890000D03*
X148450000Y-64890000D03*
X147180000Y-64890000D03*
X145910000Y-64890000D03*
X144640000Y-64890000D03*
X143370000Y-64890000D03*
X142100000Y-64890000D03*
X140830000Y-64890000D03*
X139560000Y-64890000D03*
X138290000Y-64890000D03*
X137020000Y-64890000D03*
X135750000Y-64890000D03*
%TD*%
D16*
%TO.C,R13*%
X167770000Y-73011000D03*
X167770000Y-71991000D03*
%TD*%
D12*
%TO.C,C17*%
X156500000Y-74750000D03*
X156500000Y-75710000D03*
%TD*%
D17*
%TO.C,C8*%
X173025000Y-79351000D03*
X171475000Y-79351000D03*
%TD*%
D18*
%TO.C,R15*%
X156760000Y-77000000D03*
X155740000Y-77000000D03*
%TD*%
D19*
%TO.C,C2*%
X158500000Y-80975000D03*
X158500000Y-82525000D03*
%TD*%
%TO.C,C5*%
X179625000Y-80801000D03*
X179625000Y-82351000D03*
%TD*%
D11*
%TO.C,C16*%
X160730000Y-77500000D03*
X159770000Y-77500000D03*
%TD*%
D19*
%TO.C,C7*%
X166750000Y-80950000D03*
X166750000Y-82500000D03*
%TD*%
D20*
%TO.C,U4*%
X178215000Y-71041000D03*
X176945000Y-71041000D03*
X175675000Y-71041000D03*
X174405000Y-71041000D03*
X173135000Y-71041000D03*
X171865000Y-71041000D03*
X170595000Y-71041000D03*
X169325000Y-71041000D03*
X169325000Y-76541000D03*
X170595000Y-76541000D03*
X171865000Y-76541000D03*
X173135000Y-76541000D03*
X174405000Y-76541000D03*
X175675000Y-76541000D03*
X176945000Y-76541000D03*
X178215000Y-76541000D03*
%TD*%
D11*
%TO.C,C18*%
X160730000Y-76250000D03*
X159770000Y-76250000D03*
%TD*%
D21*
%TO.C,J5*%
X184405000Y-77241000D03*
X184405000Y-76441000D03*
D22*
X184405000Y-75241000D03*
X184405000Y-74241000D03*
X184405000Y-73741000D03*
X184405000Y-72741000D03*
D21*
X184405000Y-71541000D03*
X184405000Y-70741000D03*
X184405000Y-70741000D03*
X184405000Y-71541000D03*
D22*
X184405000Y-72241000D03*
X184405000Y-73241000D03*
X184405000Y-74741000D03*
X184405000Y-75741000D03*
D21*
X184405000Y-76441000D03*
X184405000Y-77241000D03*
%TD*%
D23*
%TO.C,Q2*%
X166270000Y-73251000D03*
X166270000Y-71351000D03*
X164250000Y-72301000D03*
%TD*%
D10*
%TO.C,C10*%
X162750000Y-82535000D03*
X162750000Y-80985000D03*
%TD*%
D23*
%TO.C,Q1*%
X166270000Y-77501000D03*
X166270000Y-75601000D03*
X164250000Y-76551000D03*
%TD*%
D18*
%TO.C,R11*%
X156760000Y-79500000D03*
X155740000Y-79500000D03*
%TD*%
D24*
%TO.C,R12*%
X167770000Y-76241000D03*
X167770000Y-77261000D03*
%TD*%
D18*
%TO.C,R1*%
X170750000Y-81351000D03*
X169730000Y-81351000D03*
%TD*%
D25*
%TO.C,R4*%
X179240000Y-63750000D03*
X180260000Y-63750000D03*
%TD*%
D24*
%TO.C,R9*%
X180500000Y-74991000D03*
X180500000Y-76011000D03*
%TD*%
D16*
%TO.C,R8*%
X170750000Y-67261000D03*
X170750000Y-66241000D03*
%TD*%
%TO.C,R7*%
X172000000Y-67261000D03*
X172000000Y-66241000D03*
%TD*%
D25*
%TO.C,R2*%
X171740000Y-81351000D03*
X172760000Y-81351000D03*
%TD*%
D18*
%TO.C,R6*%
X180260000Y-64750000D03*
X179240000Y-64750000D03*
%TD*%
D26*
%TO.C,U5*%
X161000000Y-70550000D03*
X160500000Y-70550000D03*
X160000000Y-70550000D03*
X159500000Y-70550000D03*
X159000000Y-70550000D03*
X158500000Y-70550000D03*
D27*
X157800000Y-71250000D03*
X157800000Y-71750000D03*
X157800000Y-72250000D03*
X157800000Y-72750000D03*
X157800000Y-73250000D03*
X157800000Y-73750000D03*
D26*
X158500000Y-74450000D03*
X159000000Y-74450000D03*
X159500000Y-74450000D03*
X160000000Y-74450000D03*
X160500000Y-74450000D03*
X161000000Y-74450000D03*
D27*
X161700000Y-73750000D03*
X161700000Y-73250000D03*
X161700000Y-72750000D03*
X161700000Y-72250000D03*
X161700000Y-71750000D03*
X161700000Y-71250000D03*
%TD*%
D11*
%TO.C,C3*%
X180250000Y-65751000D03*
X179290000Y-65751000D03*
%TD*%
%TO.C,C15*%
X160730000Y-78750000D03*
X159770000Y-78750000D03*
%TD*%
D10*
%TO.C,C11*%
X160750000Y-82525000D03*
X160750000Y-80975000D03*
%TD*%
D16*
%TO.C,R10*%
X180500000Y-72521000D03*
X180500000Y-71501000D03*
%TD*%
D28*
%TO.C,U1*%
X176460000Y-65413500D03*
X175660000Y-65413500D03*
X176460000Y-66213500D03*
X175660000Y-66213500D03*
D29*
X176810000Y-64376000D03*
X176310000Y-64376000D03*
X175810000Y-64376000D03*
X175310000Y-64376000D03*
D30*
X174622500Y-65063500D03*
X174622500Y-65563500D03*
X174622500Y-66063500D03*
X174622500Y-66563500D03*
D29*
X175310000Y-67251000D03*
X175810000Y-67251000D03*
X176310000Y-67251000D03*
X176810000Y-67251000D03*
D30*
X177497500Y-66563500D03*
X177497500Y-66063500D03*
X177497500Y-65563500D03*
X177497500Y-65063500D03*
%TD*%
D31*
%TO.C,D2*%
X179355000Y-69501000D03*
X180500000Y-69501000D03*
%TD*%
%TO.C,D1*%
X179355000Y-78001000D03*
X180500000Y-78001000D03*
%TD*%
D18*
%TO.C,R5*%
X179260000Y-68251000D03*
X178240000Y-68251000D03*
%TD*%
%TO.C,R14*%
X156760000Y-78250000D03*
X155740000Y-78250000D03*
%TD*%
%TO.C,R3*%
X170750000Y-82601000D03*
X169730000Y-82601000D03*
%TD*%
D32*
%TO.C,U3*%
X178010000Y-81561000D03*
D33*
X177725000Y-81561000D03*
D32*
X178010000Y-81061000D03*
D33*
X177725000Y-81061000D03*
D32*
X178010000Y-80561000D03*
D33*
X177725000Y-80561000D03*
D32*
X178010000Y-80061000D03*
D33*
X177725000Y-80061000D03*
D32*
X178010000Y-79561000D03*
D33*
X177725000Y-79561000D03*
X174775000Y-79561000D03*
D32*
X174490000Y-79561000D03*
D33*
X174775000Y-80061000D03*
D32*
X174490000Y-80061000D03*
D33*
X174775000Y-80561000D03*
D32*
X174490000Y-80561000D03*
D33*
X174775000Y-81061000D03*
D32*
X174490000Y-81061000D03*
D33*
X174775000Y-81561000D03*
D32*
X174490000Y-81561000D03*
D34*
X176850000Y-81986000D03*
D35*
X176850000Y-81986000D03*
D34*
X176850000Y-79136000D03*
D35*
X176850000Y-79136000D03*
D36*
X176685000Y-81121000D03*
X176685000Y-80001000D03*
D34*
X176450000Y-81986000D03*
D35*
X176450000Y-81986000D03*
D34*
X176450000Y-79136000D03*
D35*
X176450000Y-79136000D03*
D34*
X176050000Y-81986000D03*
D35*
X176050000Y-81986000D03*
D34*
X176050000Y-79136000D03*
D35*
X176050000Y-79136000D03*
D36*
X175815000Y-81121000D03*
X175815000Y-80001000D03*
D34*
X175650000Y-81986000D03*
D35*
X175650000Y-81986000D03*
D34*
X175650000Y-79136000D03*
D35*
X175650000Y-79136000D03*
%TD*%
D12*
%TO.C,C1*%
X157000000Y-81020000D03*
X157000000Y-81980000D03*
%TD*%
D37*
%TO.C,L1*%
X175800000Y-83601000D03*
X176770000Y-83601000D03*
%TD*%
D19*
%TO.C,C6*%
X181500000Y-80801000D03*
X181500000Y-82351000D03*
%TD*%
M02*
