%TF.GenerationSoftware,KiCad,Pcbnew,9.0.2*%
%TF.CreationDate,2025-11-07T15:55:15+08:00*%
%TF.ProjectId,TrlBoard,54726c42-6f61-4726-942e-6b696361645f,rev?*%
%TF.SameCoordinates,Original*%
%TF.FileFunction,Drillmap*%
%TF.FilePolarity,Positive*%
%FSLAX45Y45*%
G04 Gerber Fmt 4.5, Leading zero omitted, Abs format (unit mm)*
G04 Created by KiCad (PCBNEW 9.0.2) date 2025-11-07 15:55:15*
%MOMM*%
%LPD*%
G01*
G04 APERTURE LIST*
%ADD10C,0.050000*%
%ADD11C,0.200000*%
%ADD12C,0.100000*%
%ADD13C,0.105000*%
G04 APERTURE END LIST*
D10*
X19075000Y-8556000D02*
X19075000Y-8756000D01*
X13425000Y-8756000D02*
X13425000Y-5962000D01*
X18825000Y-5962000D02*
X13425000Y-5962000D01*
X19075000Y-8756000D02*
X13425000Y-8756000D01*
X19075000Y-5962000D02*
X19075000Y-8556000D01*
X18825000Y-5962000D02*
X19075000Y-5962000D01*
D11*
D12*
X17458500Y-6440100D02*
X17478500Y-6460100D01*
X17478500Y-6440100D02*
X17458500Y-6460100D01*
X14217000Y-7444000D02*
G75*
G02*
X14197000Y-7444000I-10000J0D01*
G01*
X14197000Y-7444000D02*
G75*
G02*
X14217000Y-7444000I10000J0D01*
G01*
X14217000Y-7584000D02*
G75*
G02*
X14197000Y-7584000I-10000J0D01*
G01*
X14197000Y-7584000D02*
G75*
G02*
X14217000Y-7584000I10000J0D01*
G01*
X14287000Y-7374000D02*
G75*
G02*
X14267000Y-7374000I-10000J0D01*
G01*
X14267000Y-7374000D02*
G75*
G02*
X14287000Y-7374000I10000J0D01*
G01*
X14287000Y-7514000D02*
G75*
G02*
X14267000Y-7514000I-10000J0D01*
G01*
X14267000Y-7514000D02*
G75*
G02*
X14287000Y-7514000I10000J0D01*
G01*
X14287000Y-7654000D02*
G75*
G02*
X14267000Y-7654000I-10000J0D01*
G01*
X14267000Y-7654000D02*
G75*
G02*
X14287000Y-7654000I10000J0D01*
G01*
X14357000Y-7444000D02*
G75*
G02*
X14337000Y-7444000I-10000J0D01*
G01*
X14337000Y-7444000D02*
G75*
G02*
X14357000Y-7444000I10000J0D01*
G01*
X14357000Y-7584000D02*
G75*
G02*
X14337000Y-7584000I-10000J0D01*
G01*
X14337000Y-7584000D02*
G75*
G02*
X14357000Y-7584000I10000J0D01*
G01*
X14427000Y-7374000D02*
G75*
G02*
X14407000Y-7374000I-10000J0D01*
G01*
X14407000Y-7374000D02*
G75*
G02*
X14427000Y-7374000I10000J0D01*
G01*
X14427000Y-7514000D02*
G75*
G02*
X14407000Y-7514000I-10000J0D01*
G01*
X14407000Y-7514000D02*
G75*
G02*
X14427000Y-7514000I10000J0D01*
G01*
X14427000Y-7654000D02*
G75*
G02*
X14407000Y-7654000I-10000J0D01*
G01*
X14407000Y-7654000D02*
G75*
G02*
X14427000Y-7654000I10000J0D01*
G01*
X14497000Y-7444000D02*
G75*
G02*
X14477000Y-7444000I-10000J0D01*
G01*
X14477000Y-7444000D02*
G75*
G02*
X14497000Y-7444000I10000J0D01*
G01*
X14497000Y-7584000D02*
G75*
G02*
X14477000Y-7584000I-10000J0D01*
G01*
X14477000Y-7584000D02*
G75*
G02*
X14497000Y-7584000I10000J0D01*
G01*
X13838000Y-8085000D02*
X13838000Y-8115000D01*
X13823000Y-8100000D02*
X13853000Y-8100000D01*
X14225000Y-6635000D02*
X14225000Y-6665000D01*
X14210000Y-6650000D02*
X14240000Y-6650000D01*
X14350000Y-6635000D02*
X14350000Y-6665000D01*
X14335000Y-6650000D02*
X14365000Y-6650000D01*
X14475000Y-6635000D02*
X14475000Y-6665000D01*
X14460000Y-6650000D02*
X14490000Y-6650000D01*
X14600000Y-6635000D02*
X14600000Y-6665000D01*
X14585000Y-6650000D02*
X14615000Y-6650000D01*
X14600000Y-8085000D02*
X14600000Y-8115000D01*
X14585000Y-8100000D02*
X14615000Y-8100000D01*
X14725000Y-6635000D02*
X14725000Y-6665000D01*
X14710000Y-6650000D02*
X14740000Y-6650000D01*
X14725000Y-8085000D02*
X14725000Y-8115000D01*
X14710000Y-8100000D02*
X14740000Y-8100000D01*
X14850000Y-8085000D02*
X14850000Y-8115000D01*
X14835000Y-8100000D02*
X14865000Y-8100000D01*
X14925000Y-7935000D02*
X14925000Y-7965000D01*
X14910000Y-7950000D02*
X14940000Y-7950000D01*
X14975000Y-8085000D02*
X14975000Y-8115000D01*
X14960000Y-8100000D02*
X14990000Y-8100000D01*
X15075000Y-7760000D02*
X15075000Y-7790000D01*
X15060000Y-7775000D02*
X15090000Y-7775000D01*
X15150000Y-7814900D02*
X15150000Y-7844900D01*
X15135000Y-7829900D02*
X15165000Y-7829900D01*
X15370352Y-8150000D02*
X15370352Y-8180000D01*
X15355352Y-8165000D02*
X15385352Y-8165000D01*
X15450000Y-8142500D02*
X15450000Y-8172500D01*
X15435000Y-8157500D02*
X15465000Y-8157500D01*
X15475000Y-6535000D02*
X15475000Y-6565000D01*
X15460000Y-6550000D02*
X15490000Y-6550000D01*
X15475000Y-8060000D02*
X15475000Y-8090000D01*
X15460000Y-8075000D02*
X15490000Y-8075000D01*
X15497000Y-7935000D02*
X15497000Y-7965000D01*
X15482000Y-7950000D02*
X15512000Y-7950000D01*
X15500000Y-6635000D02*
X15500000Y-6665000D01*
X15485000Y-6650000D02*
X15515000Y-6650000D01*
X15500000Y-6760000D02*
X15500000Y-6790000D01*
X15485000Y-6775000D02*
X15515000Y-6775000D01*
X15500000Y-6885000D02*
X15500000Y-6915000D01*
X15485000Y-6900000D02*
X15515000Y-6900000D01*
X15500000Y-7010000D02*
X15500000Y-7040000D01*
X15485000Y-7025000D02*
X15515000Y-7025000D01*
X15500000Y-7135000D02*
X15500000Y-7165000D01*
X15485000Y-7150000D02*
X15515000Y-7150000D01*
X15500000Y-7260000D02*
X15500000Y-7290000D01*
X15485000Y-7275000D02*
X15515000Y-7275000D01*
X15500000Y-7385000D02*
X15500000Y-7415000D01*
X15485000Y-7400000D02*
X15515000Y-7400000D01*
X15500000Y-7510000D02*
X15500000Y-7540000D01*
X15485000Y-7525000D02*
X15515000Y-7525000D01*
X15500000Y-7635000D02*
X15500000Y-7665000D01*
X15485000Y-7650000D02*
X15515000Y-7650000D01*
X15504000Y-7745000D02*
X15504000Y-7775000D01*
X15489000Y-7760000D02*
X15519000Y-7760000D01*
X15674847Y-7130000D02*
X15674847Y-7160000D01*
X15659847Y-7145000D02*
X15689847Y-7145000D01*
X15675000Y-7210000D02*
X15675000Y-7240000D01*
X15660000Y-7225000D02*
X15690000Y-7225000D01*
X15675000Y-7360000D02*
X15675000Y-7390000D01*
X15660000Y-7375000D02*
X15690000Y-7375000D01*
X15750000Y-7535000D02*
X15750000Y-7565000D01*
X15735000Y-7550000D02*
X15765000Y-7550000D01*
X16175000Y-8150000D02*
X16175000Y-8180000D01*
X16160000Y-8165000D02*
X16190000Y-8165000D01*
X16325000Y-7080000D02*
X16325000Y-7110000D01*
X16310000Y-7095000D02*
X16340000Y-7095000D01*
X16325000Y-7160000D02*
X16325000Y-7190000D01*
X16310000Y-7175000D02*
X16340000Y-7175000D01*
X16800000Y-6560000D02*
X16800000Y-6590000D01*
X16785000Y-6575000D02*
X16815000Y-6575000D01*
X16840000Y-8010000D02*
X16840000Y-8040000D01*
X16825000Y-8025000D02*
X16855000Y-8025000D01*
X16960000Y-8010000D02*
X16960000Y-8040000D01*
X16945000Y-8025000D02*
X16975000Y-8025000D01*
X17150000Y-6835000D02*
X17150000Y-6865000D01*
X17135000Y-6850000D02*
X17165000Y-6850000D01*
X17315000Y-6646100D02*
X17315000Y-6676100D01*
X17300000Y-6661100D02*
X17330000Y-6661100D01*
X17375000Y-6760100D02*
X17375000Y-6790100D01*
X17360000Y-6775100D02*
X17390000Y-6775100D01*
X17600000Y-7310000D02*
X17600000Y-7340000D01*
X17585000Y-7325000D02*
X17615000Y-7325000D01*
X17650000Y-6835100D02*
X17650000Y-6865100D01*
X17635000Y-6850100D02*
X17665000Y-6850100D01*
X17750000Y-7470100D02*
X17750000Y-7500100D01*
X17735000Y-7485100D02*
X17765000Y-7485100D01*
X17800000Y-7204600D02*
X17800000Y-7234600D01*
X17785000Y-7219600D02*
X17815000Y-7219600D01*
X17875000Y-8347200D02*
X17875000Y-8377200D01*
X17860000Y-8362200D02*
X17890000Y-8362200D01*
X17935500Y-7570600D02*
X17935500Y-7600600D01*
X17920500Y-7585600D02*
X17950500Y-7585600D01*
X18050000Y-7945100D02*
X18050000Y-7975100D01*
X18035000Y-7960100D02*
X18065000Y-7960100D01*
X17585607Y-8016707D02*
X17585607Y-7995493D01*
X17564393Y-7995493D01*
X17564393Y-8016707D01*
X17585607Y-8016707D01*
X17585607Y-8116707D02*
X17585607Y-8095493D01*
X17564393Y-8095493D01*
X17564393Y-8116707D01*
X17585607Y-8116707D01*
X17635607Y-8066707D02*
X17635607Y-8045493D01*
X17614393Y-8045493D01*
X17614393Y-8066707D01*
X17635607Y-8066707D01*
X17685607Y-8016707D02*
X17685607Y-7995493D01*
X17664393Y-7995493D01*
X17664393Y-8016707D01*
X17685607Y-8016707D01*
X17685607Y-8116707D02*
X17685607Y-8095493D01*
X17664393Y-8095493D01*
X17664393Y-8116707D01*
X17685607Y-8116707D01*
X17450000Y-6856810D02*
X17470000Y-6836810D01*
X17450000Y-6816810D01*
X17430000Y-6836810D01*
X17450000Y-6856810D01*
X18502000Y-6937100D02*
X18562000Y-6997100D01*
X18562000Y-6937100D02*
X18502000Y-6997100D01*
X18562000Y-6967100D02*
G75*
G02*
X18502000Y-6967100I-30000J0D01*
G01*
X18502000Y-6967100D02*
G75*
G02*
X18562000Y-6967100I30000J0D01*
G01*
X18477000Y-6997100D02*
X18587000Y-6997100D01*
X18587000Y-6937100D02*
G75*
G02*
X18587000Y-6997100I0J-30000D01*
G01*
X18587000Y-6937100D02*
X18477000Y-6937100D01*
X18477000Y-6937100D02*
G75*
G03*
X18477000Y-6997100I0J-30000D01*
G01*
X18502000Y-7801100D02*
X18562000Y-7861100D01*
X18562000Y-7801100D02*
X18502000Y-7861100D01*
X18562000Y-7831100D02*
G75*
G02*
X18502000Y-7831100I-30000J0D01*
G01*
X18502000Y-7831100D02*
G75*
G02*
X18562000Y-7831100I30000J0D01*
G01*
X18477000Y-7861100D02*
X18587000Y-7861100D01*
X18587000Y-7801100D02*
G75*
G02*
X18587000Y-7861100I0J-30000D01*
G01*
X18587000Y-7801100D02*
X18477000Y-7801100D01*
X18477000Y-7801100D02*
G75*
G03*
X18477000Y-7861100I0J-30000D01*
G01*
X18920000Y-6937100D02*
X18980000Y-6997100D01*
X18980000Y-6937100D02*
X18920000Y-6997100D01*
X18980000Y-6967100D02*
G75*
G02*
X18920000Y-6967100I-30000J0D01*
G01*
X18920000Y-6967100D02*
G75*
G02*
X18980000Y-6967100I30000J0D01*
G01*
X18920000Y-6997100D02*
X18980000Y-6997100D01*
X18980000Y-6937100D02*
G75*
G02*
X18980000Y-6997100I0J-30000D01*
G01*
X18980000Y-6937100D02*
X18920000Y-6937100D01*
X18920000Y-6937100D02*
G75*
G03*
X18920000Y-6997100I0J-30000D01*
G01*
X18920000Y-7801100D02*
X18980000Y-7861100D01*
X18980000Y-7801100D02*
X18920000Y-7861100D01*
X18980000Y-7831100D02*
G75*
G02*
X18920000Y-7831100I-30000J0D01*
G01*
X18920000Y-7831100D02*
G75*
G02*
X18980000Y-7831100I30000J0D01*
G01*
X18920000Y-7861100D02*
X18980000Y-7861100D01*
X18980000Y-7801100D02*
G75*
G02*
X18980000Y-7861100I0J-30000D01*
G01*
X18980000Y-7801100D02*
X18920000Y-7801100D01*
X18920000Y-7801100D02*
G75*
G03*
X18920000Y-7861100I0J-30000D01*
G01*
X13524000Y-6073000D02*
X13624000Y-6173000D01*
X13624000Y-6073000D02*
X13524000Y-6173000D01*
X13574000Y-6073000D02*
X13574000Y-6173000D01*
X13524000Y-6123000D02*
X13624000Y-6123000D01*
X13524000Y-8545000D02*
X13624000Y-8645000D01*
X13624000Y-8545000D02*
X13524000Y-8645000D01*
X13574000Y-8545000D02*
X13574000Y-8645000D01*
X13524000Y-8595000D02*
X13624000Y-8595000D01*
X13778000Y-6073000D02*
X13878000Y-6173000D01*
X13878000Y-6073000D02*
X13778000Y-6173000D01*
X13828000Y-6073000D02*
X13828000Y-6173000D01*
X13778000Y-6123000D02*
X13878000Y-6123000D01*
X13778000Y-8545000D02*
X13878000Y-8645000D01*
X13878000Y-8545000D02*
X13778000Y-8645000D01*
X13828000Y-8545000D02*
X13828000Y-8645000D01*
X13778000Y-8595000D02*
X13878000Y-8595000D01*
X14032000Y-6073000D02*
X14132000Y-6173000D01*
X14132000Y-6073000D02*
X14032000Y-6173000D01*
X14082000Y-6073000D02*
X14082000Y-6173000D01*
X14032000Y-6123000D02*
X14132000Y-6123000D01*
X14032000Y-8545000D02*
X14132000Y-8645000D01*
X14132000Y-8545000D02*
X14032000Y-8645000D01*
X14082000Y-8545000D02*
X14082000Y-8645000D01*
X14032000Y-8595000D02*
X14132000Y-8595000D01*
X14286000Y-6073000D02*
X14386000Y-6173000D01*
X14386000Y-6073000D02*
X14286000Y-6173000D01*
X14336000Y-6073000D02*
X14336000Y-6173000D01*
X14286000Y-6123000D02*
X14386000Y-6123000D01*
X14286000Y-8545000D02*
X14386000Y-8645000D01*
X14386000Y-8545000D02*
X14286000Y-8645000D01*
X14336000Y-8545000D02*
X14336000Y-8645000D01*
X14286000Y-8595000D02*
X14386000Y-8595000D01*
X14540000Y-6073000D02*
X14640000Y-6173000D01*
X14640000Y-6073000D02*
X14540000Y-6173000D01*
X14590000Y-6073000D02*
X14590000Y-6173000D01*
X14540000Y-6123000D02*
X14640000Y-6123000D01*
X14540000Y-8545000D02*
X14640000Y-8645000D01*
X14640000Y-8545000D02*
X14540000Y-8645000D01*
X14590000Y-8545000D02*
X14590000Y-8645000D01*
X14540000Y-8595000D02*
X14640000Y-8595000D01*
X14794000Y-6073000D02*
X14894000Y-6173000D01*
X14894000Y-6073000D02*
X14794000Y-6173000D01*
X14844000Y-6073000D02*
X14844000Y-6173000D01*
X14794000Y-6123000D02*
X14894000Y-6123000D01*
X14794000Y-8545000D02*
X14894000Y-8645000D01*
X14894000Y-8545000D02*
X14794000Y-8645000D01*
X14844000Y-8545000D02*
X14844000Y-8645000D01*
X14794000Y-8595000D02*
X14894000Y-8595000D01*
X15048000Y-6073000D02*
X15148000Y-6173000D01*
X15148000Y-6073000D02*
X15048000Y-6173000D01*
X15098000Y-6073000D02*
X15098000Y-6173000D01*
X15048000Y-6123000D02*
X15148000Y-6123000D01*
X15048000Y-8545000D02*
X15148000Y-8645000D01*
X15148000Y-8545000D02*
X15048000Y-8645000D01*
X15098000Y-8545000D02*
X15098000Y-8645000D01*
X15048000Y-8595000D02*
X15148000Y-8595000D01*
X15302000Y-6073000D02*
X15402000Y-6173000D01*
X15402000Y-6073000D02*
X15302000Y-6173000D01*
X15352000Y-6073000D02*
X15352000Y-6173000D01*
X15302000Y-6123000D02*
X15402000Y-6123000D01*
X15302000Y-8545000D02*
X15402000Y-8645000D01*
X15402000Y-8545000D02*
X15302000Y-8645000D01*
X15352000Y-8545000D02*
X15352000Y-8645000D01*
X15302000Y-8595000D02*
X15402000Y-8595000D01*
X15556000Y-6073000D02*
X15656000Y-6173000D01*
X15656000Y-6073000D02*
X15556000Y-6173000D01*
X15606000Y-6073000D02*
X15606000Y-6173000D01*
X15556000Y-6123000D02*
X15656000Y-6123000D01*
X15556000Y-8545000D02*
X15656000Y-8645000D01*
X15656000Y-8545000D02*
X15556000Y-8645000D01*
X15606000Y-8545000D02*
X15606000Y-8645000D01*
X15556000Y-8595000D02*
X15656000Y-8595000D01*
X15810000Y-6073000D02*
X15910000Y-6173000D01*
X15910000Y-6073000D02*
X15810000Y-6173000D01*
X15860000Y-6073000D02*
X15860000Y-6173000D01*
X15810000Y-6123000D02*
X15910000Y-6123000D01*
X15810000Y-8545000D02*
X15910000Y-8645000D01*
X15910000Y-8545000D02*
X15810000Y-8645000D01*
X15860000Y-8545000D02*
X15860000Y-8645000D01*
X15810000Y-8595000D02*
X15910000Y-8595000D01*
X16064000Y-6073000D02*
X16164000Y-6173000D01*
X16164000Y-6073000D02*
X16064000Y-6173000D01*
X16114000Y-6073000D02*
X16114000Y-6173000D01*
X16064000Y-6123000D02*
X16164000Y-6123000D01*
X16064000Y-8545000D02*
X16164000Y-8645000D01*
X16164000Y-8545000D02*
X16064000Y-8645000D01*
X16114000Y-8545000D02*
X16114000Y-8645000D01*
X16064000Y-8595000D02*
X16164000Y-8595000D01*
X16318000Y-6073000D02*
X16418000Y-6173000D01*
X16418000Y-6073000D02*
X16318000Y-6173000D01*
X16368000Y-6073000D02*
X16368000Y-6173000D01*
X16318000Y-6123000D02*
X16418000Y-6123000D01*
X16318000Y-8545000D02*
X16418000Y-8645000D01*
X16418000Y-8545000D02*
X16318000Y-8645000D01*
X16368000Y-8545000D02*
X16368000Y-8645000D01*
X16318000Y-8595000D02*
X16418000Y-8595000D01*
X16572000Y-6073000D02*
X16672000Y-6173000D01*
X16672000Y-6073000D02*
X16572000Y-6173000D01*
X16622000Y-6073000D02*
X16622000Y-6173000D01*
X16572000Y-6123000D02*
X16672000Y-6123000D01*
X16572000Y-8545000D02*
X16672000Y-8645000D01*
X16672000Y-8545000D02*
X16572000Y-8645000D01*
X16622000Y-8545000D02*
X16622000Y-8645000D01*
X16572000Y-8595000D02*
X16672000Y-8595000D01*
X16826000Y-6073000D02*
X16926000Y-6173000D01*
X16926000Y-6073000D02*
X16826000Y-6173000D01*
X16876000Y-6073000D02*
X16876000Y-6173000D01*
X16826000Y-6123000D02*
X16926000Y-6123000D01*
X16826000Y-8545000D02*
X16926000Y-8645000D01*
X16926000Y-8545000D02*
X16826000Y-8645000D01*
X16876000Y-8545000D02*
X16876000Y-8645000D01*
X16826000Y-8595000D02*
X16926000Y-8595000D01*
X17080000Y-6073000D02*
X17180000Y-6173000D01*
X17180000Y-6073000D02*
X17080000Y-6173000D01*
X17130000Y-6073000D02*
X17130000Y-6173000D01*
X17080000Y-6123000D02*
X17180000Y-6123000D01*
X17080000Y-8545000D02*
X17180000Y-8645000D01*
X17180000Y-8545000D02*
X17080000Y-8645000D01*
X17130000Y-8545000D02*
X17130000Y-8645000D01*
X17080000Y-8595000D02*
X17180000Y-8595000D01*
X17334000Y-6073000D02*
X17434000Y-6173000D01*
X17434000Y-6073000D02*
X17334000Y-6173000D01*
X17384000Y-6073000D02*
X17384000Y-6173000D01*
X17334000Y-6123000D02*
X17434000Y-6123000D01*
X17334000Y-8545000D02*
X17434000Y-8645000D01*
X17434000Y-8545000D02*
X17334000Y-8645000D01*
X17384000Y-8545000D02*
X17384000Y-8645000D01*
X17334000Y-8595000D02*
X17434000Y-8595000D01*
X17588000Y-6073000D02*
X17688000Y-6173000D01*
X17688000Y-6073000D02*
X17588000Y-6173000D01*
X17638000Y-6073000D02*
X17638000Y-6173000D01*
X17588000Y-6123000D02*
X17688000Y-6123000D01*
X17588000Y-8545000D02*
X17688000Y-8645000D01*
X17688000Y-8545000D02*
X17588000Y-8645000D01*
X17638000Y-8545000D02*
X17638000Y-8645000D01*
X17588000Y-8595000D02*
X17688000Y-8595000D01*
X17842000Y-6073000D02*
X17942000Y-6173000D01*
X17942000Y-6073000D02*
X17842000Y-6173000D01*
X17892000Y-6073000D02*
X17892000Y-6173000D01*
X17842000Y-6123000D02*
X17942000Y-6123000D01*
X17842000Y-8545000D02*
X17942000Y-8645000D01*
X17942000Y-8545000D02*
X17842000Y-8645000D01*
X17892000Y-8545000D02*
X17892000Y-8645000D01*
X17842000Y-8595000D02*
X17942000Y-8595000D01*
X18096000Y-6073000D02*
X18196000Y-6173000D01*
X18196000Y-6073000D02*
X18096000Y-6173000D01*
X18146000Y-6073000D02*
X18146000Y-6173000D01*
X18096000Y-6123000D02*
X18196000Y-6123000D01*
X18096000Y-8545000D02*
X18196000Y-8645000D01*
X18196000Y-8545000D02*
X18096000Y-8645000D01*
X18146000Y-8545000D02*
X18146000Y-8645000D01*
X18096000Y-8595000D02*
X18196000Y-8595000D01*
X18350000Y-6073000D02*
X18450000Y-6173000D01*
X18450000Y-6073000D02*
X18350000Y-6173000D01*
X18400000Y-6073000D02*
X18400000Y-6173000D01*
X18350000Y-6123000D02*
X18450000Y-6123000D01*
X18350000Y-8545000D02*
X18450000Y-8645000D01*
X18450000Y-8545000D02*
X18350000Y-8645000D01*
X18400000Y-8545000D02*
X18400000Y-8645000D01*
X18350000Y-8595000D02*
X18450000Y-8595000D01*
X18604000Y-6073000D02*
X18704000Y-6173000D01*
X18704000Y-6073000D02*
X18604000Y-6173000D01*
X18654000Y-6073000D02*
X18654000Y-6173000D01*
X18604000Y-6123000D02*
X18704000Y-6123000D01*
X18604000Y-8545000D02*
X18704000Y-8645000D01*
X18704000Y-8545000D02*
X18604000Y-8645000D01*
X18654000Y-8545000D02*
X18654000Y-8645000D01*
X18604000Y-8595000D02*
X18704000Y-8595000D01*
X18858000Y-6073000D02*
X18958000Y-6173000D01*
X18958000Y-6073000D02*
X18858000Y-6173000D01*
X18908000Y-6073000D02*
X18908000Y-6173000D01*
X18858000Y-6123000D02*
X18958000Y-6123000D01*
X18858000Y-8545000D02*
X18958000Y-8645000D01*
X18958000Y-8545000D02*
X18858000Y-8645000D01*
X18908000Y-8545000D02*
X18908000Y-8645000D01*
X18858000Y-8595000D02*
X18958000Y-8595000D01*
D13*
X16047500Y-6647500D02*
X16152500Y-6752500D01*
X16152500Y-6647500D02*
X16047500Y-6752500D01*
X16137123Y-6737123D02*
X16137123Y-6662876D01*
X16062876Y-6662876D01*
X16062876Y-6737123D01*
X16137123Y-6737123D01*
X16297500Y-6647500D02*
X16402500Y-6752500D01*
X16402500Y-6647500D02*
X16297500Y-6752500D01*
X16387123Y-6737123D02*
X16387123Y-6662876D01*
X16312876Y-6662876D01*
X16312876Y-6737123D01*
X16387123Y-6737123D01*
D11*
X13683277Y-9069984D02*
X13683277Y-8869984D01*
X13683277Y-8869984D02*
X13730896Y-8869984D01*
X13730896Y-8869984D02*
X13759467Y-8879508D01*
X13759467Y-8879508D02*
X13778515Y-8898555D01*
X13778515Y-8898555D02*
X13788039Y-8917603D01*
X13788039Y-8917603D02*
X13797562Y-8955698D01*
X13797562Y-8955698D02*
X13797562Y-8984270D01*
X13797562Y-8984270D02*
X13788039Y-9022365D01*
X13788039Y-9022365D02*
X13778515Y-9041412D01*
X13778515Y-9041412D02*
X13759467Y-9060460D01*
X13759467Y-9060460D02*
X13730896Y-9069984D01*
X13730896Y-9069984D02*
X13683277Y-9069984D01*
X13883277Y-9069984D02*
X13883277Y-8936650D01*
X13883277Y-8974746D02*
X13892801Y-8955698D01*
X13892801Y-8955698D02*
X13902324Y-8946174D01*
X13902324Y-8946174D02*
X13921372Y-8936650D01*
X13921372Y-8936650D02*
X13940420Y-8936650D01*
X14007086Y-9069984D02*
X14007086Y-8936650D01*
X14007086Y-8869984D02*
X13997562Y-8879508D01*
X13997562Y-8879508D02*
X14007086Y-8889031D01*
X14007086Y-8889031D02*
X14016610Y-8879508D01*
X14016610Y-8879508D02*
X14007086Y-8869984D01*
X14007086Y-8869984D02*
X14007086Y-8889031D01*
X14130896Y-9069984D02*
X14111848Y-9060460D01*
X14111848Y-9060460D02*
X14102324Y-9041412D01*
X14102324Y-9041412D02*
X14102324Y-8869984D01*
X14235658Y-9069984D02*
X14216610Y-9060460D01*
X14216610Y-9060460D02*
X14207086Y-9041412D01*
X14207086Y-9041412D02*
X14207086Y-8869984D01*
X14464229Y-9069984D02*
X14464229Y-8869984D01*
X14464229Y-8869984D02*
X14530896Y-9012841D01*
X14530896Y-9012841D02*
X14597562Y-8869984D01*
X14597562Y-8869984D02*
X14597562Y-9069984D01*
X14778515Y-9069984D02*
X14778515Y-8965222D01*
X14778515Y-8965222D02*
X14768991Y-8946174D01*
X14768991Y-8946174D02*
X14749943Y-8936650D01*
X14749943Y-8936650D02*
X14711848Y-8936650D01*
X14711848Y-8936650D02*
X14692801Y-8946174D01*
X14778515Y-9060460D02*
X14759467Y-9069984D01*
X14759467Y-9069984D02*
X14711848Y-9069984D01*
X14711848Y-9069984D02*
X14692801Y-9060460D01*
X14692801Y-9060460D02*
X14683277Y-9041412D01*
X14683277Y-9041412D02*
X14683277Y-9022365D01*
X14683277Y-9022365D02*
X14692801Y-9003317D01*
X14692801Y-9003317D02*
X14711848Y-8993793D01*
X14711848Y-8993793D02*
X14759467Y-8993793D01*
X14759467Y-8993793D02*
X14778515Y-8984270D01*
X14873753Y-8936650D02*
X14873753Y-9136650D01*
X14873753Y-8946174D02*
X14892801Y-8936650D01*
X14892801Y-8936650D02*
X14930896Y-8936650D01*
X14930896Y-8936650D02*
X14949943Y-8946174D01*
X14949943Y-8946174D02*
X14959467Y-8955698D01*
X14959467Y-8955698D02*
X14968991Y-8974746D01*
X14968991Y-8974746D02*
X14968991Y-9031889D01*
X14968991Y-9031889D02*
X14959467Y-9050936D01*
X14959467Y-9050936D02*
X14949943Y-9060460D01*
X14949943Y-9060460D02*
X14930896Y-9069984D01*
X14930896Y-9069984D02*
X14892801Y-9069984D01*
X14892801Y-9069984D02*
X14873753Y-9060460D01*
X15054705Y-9050936D02*
X15064229Y-9060460D01*
X15064229Y-9060460D02*
X15054705Y-9069984D01*
X15054705Y-9069984D02*
X15045182Y-9060460D01*
X15045182Y-9060460D02*
X15054705Y-9050936D01*
X15054705Y-9050936D02*
X15054705Y-9069984D01*
X15054705Y-8946174D02*
X15064229Y-8955698D01*
X15064229Y-8955698D02*
X15054705Y-8965222D01*
X15054705Y-8965222D02*
X15045182Y-8955698D01*
X15045182Y-8955698D02*
X15054705Y-8946174D01*
X15054705Y-8946174D02*
X15054705Y-8965222D01*
D12*
X13402500Y-9388500D02*
X13422500Y-9408500D01*
X13422500Y-9388500D02*
X13402500Y-9408500D01*
D11*
X13721372Y-9289984D02*
X13740420Y-9289984D01*
X13740420Y-9289984D02*
X13759467Y-9299508D01*
X13759467Y-9299508D02*
X13768991Y-9309031D01*
X13768991Y-9309031D02*
X13778515Y-9328079D01*
X13778515Y-9328079D02*
X13788039Y-9366174D01*
X13788039Y-9366174D02*
X13788039Y-9413793D01*
X13788039Y-9413793D02*
X13778515Y-9451889D01*
X13778515Y-9451889D02*
X13768991Y-9470936D01*
X13768991Y-9470936D02*
X13759467Y-9480460D01*
X13759467Y-9480460D02*
X13740420Y-9489984D01*
X13740420Y-9489984D02*
X13721372Y-9489984D01*
X13721372Y-9489984D02*
X13702324Y-9480460D01*
X13702324Y-9480460D02*
X13692801Y-9470936D01*
X13692801Y-9470936D02*
X13683277Y-9451889D01*
X13683277Y-9451889D02*
X13673753Y-9413793D01*
X13673753Y-9413793D02*
X13673753Y-9366174D01*
X13673753Y-9366174D02*
X13683277Y-9328079D01*
X13683277Y-9328079D02*
X13692801Y-9309031D01*
X13692801Y-9309031D02*
X13702324Y-9299508D01*
X13702324Y-9299508D02*
X13721372Y-9289984D01*
X13873753Y-9470936D02*
X13883277Y-9480460D01*
X13883277Y-9480460D02*
X13873753Y-9489984D01*
X13873753Y-9489984D02*
X13864229Y-9480460D01*
X13864229Y-9480460D02*
X13873753Y-9470936D01*
X13873753Y-9470936D02*
X13873753Y-9489984D01*
X13959467Y-9309031D02*
X13968991Y-9299508D01*
X13968991Y-9299508D02*
X13988039Y-9289984D01*
X13988039Y-9289984D02*
X14035658Y-9289984D01*
X14035658Y-9289984D02*
X14054705Y-9299508D01*
X14054705Y-9299508D02*
X14064229Y-9309031D01*
X14064229Y-9309031D02*
X14073753Y-9328079D01*
X14073753Y-9328079D02*
X14073753Y-9347127D01*
X14073753Y-9347127D02*
X14064229Y-9375698D01*
X14064229Y-9375698D02*
X13949943Y-9489984D01*
X13949943Y-9489984D02*
X14073753Y-9489984D01*
X14197562Y-9289984D02*
X14216610Y-9289984D01*
X14216610Y-9289984D02*
X14235658Y-9299508D01*
X14235658Y-9299508D02*
X14245182Y-9309031D01*
X14245182Y-9309031D02*
X14254705Y-9328079D01*
X14254705Y-9328079D02*
X14264229Y-9366174D01*
X14264229Y-9366174D02*
X14264229Y-9413793D01*
X14264229Y-9413793D02*
X14254705Y-9451889D01*
X14254705Y-9451889D02*
X14245182Y-9470936D01*
X14245182Y-9470936D02*
X14235658Y-9480460D01*
X14235658Y-9480460D02*
X14216610Y-9489984D01*
X14216610Y-9489984D02*
X14197562Y-9489984D01*
X14197562Y-9489984D02*
X14178515Y-9480460D01*
X14178515Y-9480460D02*
X14168991Y-9470936D01*
X14168991Y-9470936D02*
X14159467Y-9451889D01*
X14159467Y-9451889D02*
X14149943Y-9413793D01*
X14149943Y-9413793D02*
X14149943Y-9366174D01*
X14149943Y-9366174D02*
X14159467Y-9328079D01*
X14159467Y-9328079D02*
X14168991Y-9309031D01*
X14168991Y-9309031D02*
X14178515Y-9299508D01*
X14178515Y-9299508D02*
X14197562Y-9289984D01*
X14388039Y-9289984D02*
X14407086Y-9289984D01*
X14407086Y-9289984D02*
X14426134Y-9299508D01*
X14426134Y-9299508D02*
X14435658Y-9309031D01*
X14435658Y-9309031D02*
X14445182Y-9328079D01*
X14445182Y-9328079D02*
X14454705Y-9366174D01*
X14454705Y-9366174D02*
X14454705Y-9413793D01*
X14454705Y-9413793D02*
X14445182Y-9451889D01*
X14445182Y-9451889D02*
X14435658Y-9470936D01*
X14435658Y-9470936D02*
X14426134Y-9480460D01*
X14426134Y-9480460D02*
X14407086Y-9489984D01*
X14407086Y-9489984D02*
X14388039Y-9489984D01*
X14388039Y-9489984D02*
X14368991Y-9480460D01*
X14368991Y-9480460D02*
X14359467Y-9470936D01*
X14359467Y-9470936D02*
X14349943Y-9451889D01*
X14349943Y-9451889D02*
X14340420Y-9413793D01*
X14340420Y-9413793D02*
X14340420Y-9366174D01*
X14340420Y-9366174D02*
X14349943Y-9328079D01*
X14349943Y-9328079D02*
X14359467Y-9309031D01*
X14359467Y-9309031D02*
X14368991Y-9299508D01*
X14368991Y-9299508D02*
X14388039Y-9289984D01*
X14540420Y-9489984D02*
X14540420Y-9356650D01*
X14540420Y-9375698D02*
X14549943Y-9366174D01*
X14549943Y-9366174D02*
X14568991Y-9356650D01*
X14568991Y-9356650D02*
X14597563Y-9356650D01*
X14597563Y-9356650D02*
X14616610Y-9366174D01*
X14616610Y-9366174D02*
X14626134Y-9385222D01*
X14626134Y-9385222D02*
X14626134Y-9489984D01*
X14626134Y-9385222D02*
X14635658Y-9366174D01*
X14635658Y-9366174D02*
X14654705Y-9356650D01*
X14654705Y-9356650D02*
X14683277Y-9356650D01*
X14683277Y-9356650D02*
X14702324Y-9366174D01*
X14702324Y-9366174D02*
X14711848Y-9385222D01*
X14711848Y-9385222D02*
X14711848Y-9489984D01*
X14807086Y-9489984D02*
X14807086Y-9356650D01*
X14807086Y-9375698D02*
X14816610Y-9366174D01*
X14816610Y-9366174D02*
X14835658Y-9356650D01*
X14835658Y-9356650D02*
X14864229Y-9356650D01*
X14864229Y-9356650D02*
X14883277Y-9366174D01*
X14883277Y-9366174D02*
X14892801Y-9385222D01*
X14892801Y-9385222D02*
X14892801Y-9489984D01*
X14892801Y-9385222D02*
X14902324Y-9366174D01*
X14902324Y-9366174D02*
X14921372Y-9356650D01*
X14921372Y-9356650D02*
X14949943Y-9356650D01*
X14949943Y-9356650D02*
X14968991Y-9366174D01*
X14968991Y-9366174D02*
X14978515Y-9385222D01*
X14978515Y-9385222D02*
X14978515Y-9489984D01*
X15368991Y-9280460D02*
X15197563Y-9537603D01*
X15626134Y-9289984D02*
X15645182Y-9289984D01*
X15645182Y-9289984D02*
X15664229Y-9299508D01*
X15664229Y-9299508D02*
X15673753Y-9309031D01*
X15673753Y-9309031D02*
X15683277Y-9328079D01*
X15683277Y-9328079D02*
X15692801Y-9366174D01*
X15692801Y-9366174D02*
X15692801Y-9413793D01*
X15692801Y-9413793D02*
X15683277Y-9451889D01*
X15683277Y-9451889D02*
X15673753Y-9470936D01*
X15673753Y-9470936D02*
X15664229Y-9480460D01*
X15664229Y-9480460D02*
X15645182Y-9489984D01*
X15645182Y-9489984D02*
X15626134Y-9489984D01*
X15626134Y-9489984D02*
X15607086Y-9480460D01*
X15607086Y-9480460D02*
X15597563Y-9470936D01*
X15597563Y-9470936D02*
X15588039Y-9451889D01*
X15588039Y-9451889D02*
X15578515Y-9413793D01*
X15578515Y-9413793D02*
X15578515Y-9366174D01*
X15578515Y-9366174D02*
X15588039Y-9328079D01*
X15588039Y-9328079D02*
X15597563Y-9309031D01*
X15597563Y-9309031D02*
X15607086Y-9299508D01*
X15607086Y-9299508D02*
X15626134Y-9289984D01*
X15778515Y-9470936D02*
X15788039Y-9480460D01*
X15788039Y-9480460D02*
X15778515Y-9489984D01*
X15778515Y-9489984D02*
X15768991Y-9480460D01*
X15768991Y-9480460D02*
X15778515Y-9470936D01*
X15778515Y-9470936D02*
X15778515Y-9489984D01*
X15911848Y-9289984D02*
X15930896Y-9289984D01*
X15930896Y-9289984D02*
X15949944Y-9299508D01*
X15949944Y-9299508D02*
X15959467Y-9309031D01*
X15959467Y-9309031D02*
X15968991Y-9328079D01*
X15968991Y-9328079D02*
X15978515Y-9366174D01*
X15978515Y-9366174D02*
X15978515Y-9413793D01*
X15978515Y-9413793D02*
X15968991Y-9451889D01*
X15968991Y-9451889D02*
X15959467Y-9470936D01*
X15959467Y-9470936D02*
X15949944Y-9480460D01*
X15949944Y-9480460D02*
X15930896Y-9489984D01*
X15930896Y-9489984D02*
X15911848Y-9489984D01*
X15911848Y-9489984D02*
X15892801Y-9480460D01*
X15892801Y-9480460D02*
X15883277Y-9470936D01*
X15883277Y-9470936D02*
X15873753Y-9451889D01*
X15873753Y-9451889D02*
X15864229Y-9413793D01*
X15864229Y-9413793D02*
X15864229Y-9366174D01*
X15864229Y-9366174D02*
X15873753Y-9328079D01*
X15873753Y-9328079D02*
X15883277Y-9309031D01*
X15883277Y-9309031D02*
X15892801Y-9299508D01*
X15892801Y-9299508D02*
X15911848Y-9289984D01*
X16102325Y-9289984D02*
X16121372Y-9289984D01*
X16121372Y-9289984D02*
X16140420Y-9299508D01*
X16140420Y-9299508D02*
X16149944Y-9309031D01*
X16149944Y-9309031D02*
X16159467Y-9328079D01*
X16159467Y-9328079D02*
X16168991Y-9366174D01*
X16168991Y-9366174D02*
X16168991Y-9413793D01*
X16168991Y-9413793D02*
X16159467Y-9451889D01*
X16159467Y-9451889D02*
X16149944Y-9470936D01*
X16149944Y-9470936D02*
X16140420Y-9480460D01*
X16140420Y-9480460D02*
X16121372Y-9489984D01*
X16121372Y-9489984D02*
X16102325Y-9489984D01*
X16102325Y-9489984D02*
X16083277Y-9480460D01*
X16083277Y-9480460D02*
X16073753Y-9470936D01*
X16073753Y-9470936D02*
X16064229Y-9451889D01*
X16064229Y-9451889D02*
X16054706Y-9413793D01*
X16054706Y-9413793D02*
X16054706Y-9366174D01*
X16054706Y-9366174D02*
X16064229Y-9328079D01*
X16064229Y-9328079D02*
X16073753Y-9309031D01*
X16073753Y-9309031D02*
X16083277Y-9299508D01*
X16083277Y-9299508D02*
X16102325Y-9289984D01*
X16235658Y-9289984D02*
X16368991Y-9289984D01*
X16368991Y-9289984D02*
X16283277Y-9489984D01*
X16454706Y-9489984D02*
X16492801Y-9489984D01*
X16492801Y-9489984D02*
X16511848Y-9480460D01*
X16511848Y-9480460D02*
X16521372Y-9470936D01*
X16521372Y-9470936D02*
X16540420Y-9442365D01*
X16540420Y-9442365D02*
X16549944Y-9404270D01*
X16549944Y-9404270D02*
X16549944Y-9328079D01*
X16549944Y-9328079D02*
X16540420Y-9309031D01*
X16540420Y-9309031D02*
X16530896Y-9299508D01*
X16530896Y-9299508D02*
X16511848Y-9289984D01*
X16511848Y-9289984D02*
X16473753Y-9289984D01*
X16473753Y-9289984D02*
X16454706Y-9299508D01*
X16454706Y-9299508D02*
X16445182Y-9309031D01*
X16445182Y-9309031D02*
X16435658Y-9328079D01*
X16435658Y-9328079D02*
X16435658Y-9375698D01*
X16435658Y-9375698D02*
X16445182Y-9394746D01*
X16445182Y-9394746D02*
X16454706Y-9404270D01*
X16454706Y-9404270D02*
X16473753Y-9413793D01*
X16473753Y-9413793D02*
X16511848Y-9413793D01*
X16511848Y-9413793D02*
X16530896Y-9404270D01*
X16530896Y-9404270D02*
X16540420Y-9394746D01*
X16540420Y-9394746D02*
X16549944Y-9375698D01*
X16626134Y-9289984D02*
X16626134Y-9328079D01*
X16702325Y-9289984D02*
X16702325Y-9328079D01*
X16997563Y-9566174D02*
X16988039Y-9556650D01*
X16988039Y-9556650D02*
X16968991Y-9528079D01*
X16968991Y-9528079D02*
X16959468Y-9509031D01*
X16959468Y-9509031D02*
X16949944Y-9480460D01*
X16949944Y-9480460D02*
X16940420Y-9432841D01*
X16940420Y-9432841D02*
X16940420Y-9394746D01*
X16940420Y-9394746D02*
X16949944Y-9347127D01*
X16949944Y-9347127D02*
X16959468Y-9318555D01*
X16959468Y-9318555D02*
X16968991Y-9299508D01*
X16968991Y-9299508D02*
X16988039Y-9270936D01*
X16988039Y-9270936D02*
X16997563Y-9261412D01*
X17178515Y-9489984D02*
X17064230Y-9489984D01*
X17121372Y-9489984D02*
X17121372Y-9289984D01*
X17121372Y-9289984D02*
X17102325Y-9318555D01*
X17102325Y-9318555D02*
X17083277Y-9337603D01*
X17083277Y-9337603D02*
X17064230Y-9347127D01*
X17416611Y-9489984D02*
X17416611Y-9289984D01*
X17502325Y-9489984D02*
X17502325Y-9385222D01*
X17502325Y-9385222D02*
X17492801Y-9366174D01*
X17492801Y-9366174D02*
X17473753Y-9356650D01*
X17473753Y-9356650D02*
X17445182Y-9356650D01*
X17445182Y-9356650D02*
X17426134Y-9366174D01*
X17426134Y-9366174D02*
X17416611Y-9375698D01*
X17626134Y-9489984D02*
X17607087Y-9480460D01*
X17607087Y-9480460D02*
X17597563Y-9470936D01*
X17597563Y-9470936D02*
X17588039Y-9451889D01*
X17588039Y-9451889D02*
X17588039Y-9394746D01*
X17588039Y-9394746D02*
X17597563Y-9375698D01*
X17597563Y-9375698D02*
X17607087Y-9366174D01*
X17607087Y-9366174D02*
X17626134Y-9356650D01*
X17626134Y-9356650D02*
X17654706Y-9356650D01*
X17654706Y-9356650D02*
X17673753Y-9366174D01*
X17673753Y-9366174D02*
X17683277Y-9375698D01*
X17683277Y-9375698D02*
X17692801Y-9394746D01*
X17692801Y-9394746D02*
X17692801Y-9451889D01*
X17692801Y-9451889D02*
X17683277Y-9470936D01*
X17683277Y-9470936D02*
X17673753Y-9480460D01*
X17673753Y-9480460D02*
X17654706Y-9489984D01*
X17654706Y-9489984D02*
X17626134Y-9489984D01*
X17807087Y-9489984D02*
X17788039Y-9480460D01*
X17788039Y-9480460D02*
X17778515Y-9461412D01*
X17778515Y-9461412D02*
X17778515Y-9289984D01*
X17959468Y-9480460D02*
X17940420Y-9489984D01*
X17940420Y-9489984D02*
X17902325Y-9489984D01*
X17902325Y-9489984D02*
X17883277Y-9480460D01*
X17883277Y-9480460D02*
X17873753Y-9461412D01*
X17873753Y-9461412D02*
X17873753Y-9385222D01*
X17873753Y-9385222D02*
X17883277Y-9366174D01*
X17883277Y-9366174D02*
X17902325Y-9356650D01*
X17902325Y-9356650D02*
X17940420Y-9356650D01*
X17940420Y-9356650D02*
X17959468Y-9366174D01*
X17959468Y-9366174D02*
X17968992Y-9385222D01*
X17968992Y-9385222D02*
X17968992Y-9404270D01*
X17968992Y-9404270D02*
X17873753Y-9423317D01*
X18035658Y-9566174D02*
X18045182Y-9556650D01*
X18045182Y-9556650D02*
X18064230Y-9528079D01*
X18064230Y-9528079D02*
X18073753Y-9509031D01*
X18073753Y-9509031D02*
X18083277Y-9480460D01*
X18083277Y-9480460D02*
X18092801Y-9432841D01*
X18092801Y-9432841D02*
X18092801Y-9394746D01*
X18092801Y-9394746D02*
X18083277Y-9347127D01*
X18083277Y-9347127D02*
X18073753Y-9318555D01*
X18073753Y-9318555D02*
X18064230Y-9299508D01*
X18064230Y-9299508D02*
X18045182Y-9270936D01*
X18045182Y-9270936D02*
X18035658Y-9261412D01*
D12*
X13422500Y-9662500D02*
G75*
G02*
X13402500Y-9662500I-10000J0D01*
G01*
X13402500Y-9662500D02*
G75*
G02*
X13422500Y-9662500I10000J0D01*
G01*
D11*
X13721372Y-9553984D02*
X13740420Y-9553984D01*
X13740420Y-9553984D02*
X13759467Y-9563508D01*
X13759467Y-9563508D02*
X13768991Y-9573031D01*
X13768991Y-9573031D02*
X13778515Y-9592079D01*
X13778515Y-9592079D02*
X13788039Y-9630174D01*
X13788039Y-9630174D02*
X13788039Y-9677793D01*
X13788039Y-9677793D02*
X13778515Y-9715889D01*
X13778515Y-9715889D02*
X13768991Y-9734936D01*
X13768991Y-9734936D02*
X13759467Y-9744460D01*
X13759467Y-9744460D02*
X13740420Y-9753984D01*
X13740420Y-9753984D02*
X13721372Y-9753984D01*
X13721372Y-9753984D02*
X13702324Y-9744460D01*
X13702324Y-9744460D02*
X13692801Y-9734936D01*
X13692801Y-9734936D02*
X13683277Y-9715889D01*
X13683277Y-9715889D02*
X13673753Y-9677793D01*
X13673753Y-9677793D02*
X13673753Y-9630174D01*
X13673753Y-9630174D02*
X13683277Y-9592079D01*
X13683277Y-9592079D02*
X13692801Y-9573031D01*
X13692801Y-9573031D02*
X13702324Y-9563508D01*
X13702324Y-9563508D02*
X13721372Y-9553984D01*
X13873753Y-9734936D02*
X13883277Y-9744460D01*
X13883277Y-9744460D02*
X13873753Y-9753984D01*
X13873753Y-9753984D02*
X13864229Y-9744460D01*
X13864229Y-9744460D02*
X13873753Y-9734936D01*
X13873753Y-9734936D02*
X13873753Y-9753984D01*
X13959467Y-9573031D02*
X13968991Y-9563508D01*
X13968991Y-9563508D02*
X13988039Y-9553984D01*
X13988039Y-9553984D02*
X14035658Y-9553984D01*
X14035658Y-9553984D02*
X14054705Y-9563508D01*
X14054705Y-9563508D02*
X14064229Y-9573031D01*
X14064229Y-9573031D02*
X14073753Y-9592079D01*
X14073753Y-9592079D02*
X14073753Y-9611127D01*
X14073753Y-9611127D02*
X14064229Y-9639698D01*
X14064229Y-9639698D02*
X13949943Y-9753984D01*
X13949943Y-9753984D02*
X14073753Y-9753984D01*
X14197562Y-9553984D02*
X14216610Y-9553984D01*
X14216610Y-9553984D02*
X14235658Y-9563508D01*
X14235658Y-9563508D02*
X14245182Y-9573031D01*
X14245182Y-9573031D02*
X14254705Y-9592079D01*
X14254705Y-9592079D02*
X14264229Y-9630174D01*
X14264229Y-9630174D02*
X14264229Y-9677793D01*
X14264229Y-9677793D02*
X14254705Y-9715889D01*
X14254705Y-9715889D02*
X14245182Y-9734936D01*
X14245182Y-9734936D02*
X14235658Y-9744460D01*
X14235658Y-9744460D02*
X14216610Y-9753984D01*
X14216610Y-9753984D02*
X14197562Y-9753984D01*
X14197562Y-9753984D02*
X14178515Y-9744460D01*
X14178515Y-9744460D02*
X14168991Y-9734936D01*
X14168991Y-9734936D02*
X14159467Y-9715889D01*
X14159467Y-9715889D02*
X14149943Y-9677793D01*
X14149943Y-9677793D02*
X14149943Y-9630174D01*
X14149943Y-9630174D02*
X14159467Y-9592079D01*
X14159467Y-9592079D02*
X14168991Y-9573031D01*
X14168991Y-9573031D02*
X14178515Y-9563508D01*
X14178515Y-9563508D02*
X14197562Y-9553984D01*
X14388039Y-9553984D02*
X14407086Y-9553984D01*
X14407086Y-9553984D02*
X14426134Y-9563508D01*
X14426134Y-9563508D02*
X14435658Y-9573031D01*
X14435658Y-9573031D02*
X14445182Y-9592079D01*
X14445182Y-9592079D02*
X14454705Y-9630174D01*
X14454705Y-9630174D02*
X14454705Y-9677793D01*
X14454705Y-9677793D02*
X14445182Y-9715889D01*
X14445182Y-9715889D02*
X14435658Y-9734936D01*
X14435658Y-9734936D02*
X14426134Y-9744460D01*
X14426134Y-9744460D02*
X14407086Y-9753984D01*
X14407086Y-9753984D02*
X14388039Y-9753984D01*
X14388039Y-9753984D02*
X14368991Y-9744460D01*
X14368991Y-9744460D02*
X14359467Y-9734936D01*
X14359467Y-9734936D02*
X14349943Y-9715889D01*
X14349943Y-9715889D02*
X14340420Y-9677793D01*
X14340420Y-9677793D02*
X14340420Y-9630174D01*
X14340420Y-9630174D02*
X14349943Y-9592079D01*
X14349943Y-9592079D02*
X14359467Y-9573031D01*
X14359467Y-9573031D02*
X14368991Y-9563508D01*
X14368991Y-9563508D02*
X14388039Y-9553984D01*
X14540420Y-9753984D02*
X14540420Y-9620650D01*
X14540420Y-9639698D02*
X14549943Y-9630174D01*
X14549943Y-9630174D02*
X14568991Y-9620650D01*
X14568991Y-9620650D02*
X14597563Y-9620650D01*
X14597563Y-9620650D02*
X14616610Y-9630174D01*
X14616610Y-9630174D02*
X14626134Y-9649222D01*
X14626134Y-9649222D02*
X14626134Y-9753984D01*
X14626134Y-9649222D02*
X14635658Y-9630174D01*
X14635658Y-9630174D02*
X14654705Y-9620650D01*
X14654705Y-9620650D02*
X14683277Y-9620650D01*
X14683277Y-9620650D02*
X14702324Y-9630174D01*
X14702324Y-9630174D02*
X14711848Y-9649222D01*
X14711848Y-9649222D02*
X14711848Y-9753984D01*
X14807086Y-9753984D02*
X14807086Y-9620650D01*
X14807086Y-9639698D02*
X14816610Y-9630174D01*
X14816610Y-9630174D02*
X14835658Y-9620650D01*
X14835658Y-9620650D02*
X14864229Y-9620650D01*
X14864229Y-9620650D02*
X14883277Y-9630174D01*
X14883277Y-9630174D02*
X14892801Y-9649222D01*
X14892801Y-9649222D02*
X14892801Y-9753984D01*
X14892801Y-9649222D02*
X14902324Y-9630174D01*
X14902324Y-9630174D02*
X14921372Y-9620650D01*
X14921372Y-9620650D02*
X14949943Y-9620650D01*
X14949943Y-9620650D02*
X14968991Y-9630174D01*
X14968991Y-9630174D02*
X14978515Y-9649222D01*
X14978515Y-9649222D02*
X14978515Y-9753984D01*
X15368991Y-9544460D02*
X15197563Y-9801603D01*
X15626134Y-9553984D02*
X15645182Y-9553984D01*
X15645182Y-9553984D02*
X15664229Y-9563508D01*
X15664229Y-9563508D02*
X15673753Y-9573031D01*
X15673753Y-9573031D02*
X15683277Y-9592079D01*
X15683277Y-9592079D02*
X15692801Y-9630174D01*
X15692801Y-9630174D02*
X15692801Y-9677793D01*
X15692801Y-9677793D02*
X15683277Y-9715889D01*
X15683277Y-9715889D02*
X15673753Y-9734936D01*
X15673753Y-9734936D02*
X15664229Y-9744460D01*
X15664229Y-9744460D02*
X15645182Y-9753984D01*
X15645182Y-9753984D02*
X15626134Y-9753984D01*
X15626134Y-9753984D02*
X15607086Y-9744460D01*
X15607086Y-9744460D02*
X15597563Y-9734936D01*
X15597563Y-9734936D02*
X15588039Y-9715889D01*
X15588039Y-9715889D02*
X15578515Y-9677793D01*
X15578515Y-9677793D02*
X15578515Y-9630174D01*
X15578515Y-9630174D02*
X15588039Y-9592079D01*
X15588039Y-9592079D02*
X15597563Y-9573031D01*
X15597563Y-9573031D02*
X15607086Y-9563508D01*
X15607086Y-9563508D02*
X15626134Y-9553984D01*
X15778515Y-9734936D02*
X15788039Y-9744460D01*
X15788039Y-9744460D02*
X15778515Y-9753984D01*
X15778515Y-9753984D02*
X15768991Y-9744460D01*
X15768991Y-9744460D02*
X15778515Y-9734936D01*
X15778515Y-9734936D02*
X15778515Y-9753984D01*
X15911848Y-9553984D02*
X15930896Y-9553984D01*
X15930896Y-9553984D02*
X15949944Y-9563508D01*
X15949944Y-9563508D02*
X15959467Y-9573031D01*
X15959467Y-9573031D02*
X15968991Y-9592079D01*
X15968991Y-9592079D02*
X15978515Y-9630174D01*
X15978515Y-9630174D02*
X15978515Y-9677793D01*
X15978515Y-9677793D02*
X15968991Y-9715889D01*
X15968991Y-9715889D02*
X15959467Y-9734936D01*
X15959467Y-9734936D02*
X15949944Y-9744460D01*
X15949944Y-9744460D02*
X15930896Y-9753984D01*
X15930896Y-9753984D02*
X15911848Y-9753984D01*
X15911848Y-9753984D02*
X15892801Y-9744460D01*
X15892801Y-9744460D02*
X15883277Y-9734936D01*
X15883277Y-9734936D02*
X15873753Y-9715889D01*
X15873753Y-9715889D02*
X15864229Y-9677793D01*
X15864229Y-9677793D02*
X15864229Y-9630174D01*
X15864229Y-9630174D02*
X15873753Y-9592079D01*
X15873753Y-9592079D02*
X15883277Y-9573031D01*
X15883277Y-9573031D02*
X15892801Y-9563508D01*
X15892801Y-9563508D02*
X15911848Y-9553984D01*
X16102325Y-9553984D02*
X16121372Y-9553984D01*
X16121372Y-9553984D02*
X16140420Y-9563508D01*
X16140420Y-9563508D02*
X16149944Y-9573031D01*
X16149944Y-9573031D02*
X16159467Y-9592079D01*
X16159467Y-9592079D02*
X16168991Y-9630174D01*
X16168991Y-9630174D02*
X16168991Y-9677793D01*
X16168991Y-9677793D02*
X16159467Y-9715889D01*
X16159467Y-9715889D02*
X16149944Y-9734936D01*
X16149944Y-9734936D02*
X16140420Y-9744460D01*
X16140420Y-9744460D02*
X16121372Y-9753984D01*
X16121372Y-9753984D02*
X16102325Y-9753984D01*
X16102325Y-9753984D02*
X16083277Y-9744460D01*
X16083277Y-9744460D02*
X16073753Y-9734936D01*
X16073753Y-9734936D02*
X16064229Y-9715889D01*
X16064229Y-9715889D02*
X16054706Y-9677793D01*
X16054706Y-9677793D02*
X16054706Y-9630174D01*
X16054706Y-9630174D02*
X16064229Y-9592079D01*
X16064229Y-9592079D02*
X16073753Y-9573031D01*
X16073753Y-9573031D02*
X16083277Y-9563508D01*
X16083277Y-9563508D02*
X16102325Y-9553984D01*
X16235658Y-9553984D02*
X16368991Y-9553984D01*
X16368991Y-9553984D02*
X16283277Y-9753984D01*
X16454706Y-9753984D02*
X16492801Y-9753984D01*
X16492801Y-9753984D02*
X16511848Y-9744460D01*
X16511848Y-9744460D02*
X16521372Y-9734936D01*
X16521372Y-9734936D02*
X16540420Y-9706365D01*
X16540420Y-9706365D02*
X16549944Y-9668270D01*
X16549944Y-9668270D02*
X16549944Y-9592079D01*
X16549944Y-9592079D02*
X16540420Y-9573031D01*
X16540420Y-9573031D02*
X16530896Y-9563508D01*
X16530896Y-9563508D02*
X16511848Y-9553984D01*
X16511848Y-9553984D02*
X16473753Y-9553984D01*
X16473753Y-9553984D02*
X16454706Y-9563508D01*
X16454706Y-9563508D02*
X16445182Y-9573031D01*
X16445182Y-9573031D02*
X16435658Y-9592079D01*
X16435658Y-9592079D02*
X16435658Y-9639698D01*
X16435658Y-9639698D02*
X16445182Y-9658746D01*
X16445182Y-9658746D02*
X16454706Y-9668270D01*
X16454706Y-9668270D02*
X16473753Y-9677793D01*
X16473753Y-9677793D02*
X16511848Y-9677793D01*
X16511848Y-9677793D02*
X16530896Y-9668270D01*
X16530896Y-9668270D02*
X16540420Y-9658746D01*
X16540420Y-9658746D02*
X16549944Y-9639698D01*
X16626134Y-9553984D02*
X16626134Y-9592079D01*
X16702325Y-9553984D02*
X16702325Y-9592079D01*
X16997563Y-9830174D02*
X16988039Y-9820650D01*
X16988039Y-9820650D02*
X16968991Y-9792079D01*
X16968991Y-9792079D02*
X16959468Y-9773031D01*
X16959468Y-9773031D02*
X16949944Y-9744460D01*
X16949944Y-9744460D02*
X16940420Y-9696841D01*
X16940420Y-9696841D02*
X16940420Y-9658746D01*
X16940420Y-9658746D02*
X16949944Y-9611127D01*
X16949944Y-9611127D02*
X16959468Y-9582555D01*
X16959468Y-9582555D02*
X16968991Y-9563508D01*
X16968991Y-9563508D02*
X16988039Y-9534936D01*
X16988039Y-9534936D02*
X16997563Y-9525412D01*
X17178515Y-9753984D02*
X17064230Y-9753984D01*
X17121372Y-9753984D02*
X17121372Y-9553984D01*
X17121372Y-9553984D02*
X17102325Y-9582555D01*
X17102325Y-9582555D02*
X17083277Y-9601603D01*
X17083277Y-9601603D02*
X17064230Y-9611127D01*
X17254706Y-9573031D02*
X17264230Y-9563508D01*
X17264230Y-9563508D02*
X17283277Y-9553984D01*
X17283277Y-9553984D02*
X17330896Y-9553984D01*
X17330896Y-9553984D02*
X17349944Y-9563508D01*
X17349944Y-9563508D02*
X17359468Y-9573031D01*
X17359468Y-9573031D02*
X17368991Y-9592079D01*
X17368991Y-9592079D02*
X17368991Y-9611127D01*
X17368991Y-9611127D02*
X17359468Y-9639698D01*
X17359468Y-9639698D02*
X17245182Y-9753984D01*
X17245182Y-9753984D02*
X17368991Y-9753984D01*
X17607087Y-9753984D02*
X17607087Y-9553984D01*
X17692801Y-9753984D02*
X17692801Y-9649222D01*
X17692801Y-9649222D02*
X17683277Y-9630174D01*
X17683277Y-9630174D02*
X17664230Y-9620650D01*
X17664230Y-9620650D02*
X17635658Y-9620650D01*
X17635658Y-9620650D02*
X17616611Y-9630174D01*
X17616611Y-9630174D02*
X17607087Y-9639698D01*
X17816611Y-9753984D02*
X17797563Y-9744460D01*
X17797563Y-9744460D02*
X17788039Y-9734936D01*
X17788039Y-9734936D02*
X17778515Y-9715889D01*
X17778515Y-9715889D02*
X17778515Y-9658746D01*
X17778515Y-9658746D02*
X17788039Y-9639698D01*
X17788039Y-9639698D02*
X17797563Y-9630174D01*
X17797563Y-9630174D02*
X17816611Y-9620650D01*
X17816611Y-9620650D02*
X17845182Y-9620650D01*
X17845182Y-9620650D02*
X17864230Y-9630174D01*
X17864230Y-9630174D02*
X17873753Y-9639698D01*
X17873753Y-9639698D02*
X17883277Y-9658746D01*
X17883277Y-9658746D02*
X17883277Y-9715889D01*
X17883277Y-9715889D02*
X17873753Y-9734936D01*
X17873753Y-9734936D02*
X17864230Y-9744460D01*
X17864230Y-9744460D02*
X17845182Y-9753984D01*
X17845182Y-9753984D02*
X17816611Y-9753984D01*
X17997563Y-9753984D02*
X17978515Y-9744460D01*
X17978515Y-9744460D02*
X17968992Y-9725412D01*
X17968992Y-9725412D02*
X17968992Y-9553984D01*
X18149944Y-9744460D02*
X18130896Y-9753984D01*
X18130896Y-9753984D02*
X18092801Y-9753984D01*
X18092801Y-9753984D02*
X18073753Y-9744460D01*
X18073753Y-9744460D02*
X18064230Y-9725412D01*
X18064230Y-9725412D02*
X18064230Y-9649222D01*
X18064230Y-9649222D02*
X18073753Y-9630174D01*
X18073753Y-9630174D02*
X18092801Y-9620650D01*
X18092801Y-9620650D02*
X18130896Y-9620650D01*
X18130896Y-9620650D02*
X18149944Y-9630174D01*
X18149944Y-9630174D02*
X18159468Y-9649222D01*
X18159468Y-9649222D02*
X18159468Y-9668270D01*
X18159468Y-9668270D02*
X18064230Y-9687317D01*
X18235658Y-9744460D02*
X18254706Y-9753984D01*
X18254706Y-9753984D02*
X18292801Y-9753984D01*
X18292801Y-9753984D02*
X18311849Y-9744460D01*
X18311849Y-9744460D02*
X18321373Y-9725412D01*
X18321373Y-9725412D02*
X18321373Y-9715889D01*
X18321373Y-9715889D02*
X18311849Y-9696841D01*
X18311849Y-9696841D02*
X18292801Y-9687317D01*
X18292801Y-9687317D02*
X18264230Y-9687317D01*
X18264230Y-9687317D02*
X18245182Y-9677793D01*
X18245182Y-9677793D02*
X18235658Y-9658746D01*
X18235658Y-9658746D02*
X18235658Y-9649222D01*
X18235658Y-9649222D02*
X18245182Y-9630174D01*
X18245182Y-9630174D02*
X18264230Y-9620650D01*
X18264230Y-9620650D02*
X18292801Y-9620650D01*
X18292801Y-9620650D02*
X18311849Y-9630174D01*
X18388039Y-9830174D02*
X18397563Y-9820650D01*
X18397563Y-9820650D02*
X18416611Y-9792079D01*
X18416611Y-9792079D02*
X18426134Y-9773031D01*
X18426134Y-9773031D02*
X18435658Y-9744460D01*
X18435658Y-9744460D02*
X18445182Y-9696841D01*
X18445182Y-9696841D02*
X18445182Y-9658746D01*
X18445182Y-9658746D02*
X18435658Y-9611127D01*
X18435658Y-9611127D02*
X18426134Y-9582555D01*
X18426134Y-9582555D02*
X18416611Y-9563508D01*
X18416611Y-9563508D02*
X18397563Y-9534936D01*
X18397563Y-9534936D02*
X18388039Y-9525412D01*
D12*
X13407500Y-9911500D02*
X13407500Y-9941500D01*
X13392500Y-9926500D02*
X13422500Y-9926500D01*
D11*
X13721372Y-9817984D02*
X13740420Y-9817984D01*
X13740420Y-9817984D02*
X13759467Y-9827508D01*
X13759467Y-9827508D02*
X13768991Y-9837031D01*
X13768991Y-9837031D02*
X13778515Y-9856079D01*
X13778515Y-9856079D02*
X13788039Y-9894174D01*
X13788039Y-9894174D02*
X13788039Y-9941793D01*
X13788039Y-9941793D02*
X13778515Y-9979889D01*
X13778515Y-9979889D02*
X13768991Y-9998936D01*
X13768991Y-9998936D02*
X13759467Y-10008460D01*
X13759467Y-10008460D02*
X13740420Y-10017984D01*
X13740420Y-10017984D02*
X13721372Y-10017984D01*
X13721372Y-10017984D02*
X13702324Y-10008460D01*
X13702324Y-10008460D02*
X13692801Y-9998936D01*
X13692801Y-9998936D02*
X13683277Y-9979889D01*
X13683277Y-9979889D02*
X13673753Y-9941793D01*
X13673753Y-9941793D02*
X13673753Y-9894174D01*
X13673753Y-9894174D02*
X13683277Y-9856079D01*
X13683277Y-9856079D02*
X13692801Y-9837031D01*
X13692801Y-9837031D02*
X13702324Y-9827508D01*
X13702324Y-9827508D02*
X13721372Y-9817984D01*
X13873753Y-9998936D02*
X13883277Y-10008460D01*
X13883277Y-10008460D02*
X13873753Y-10017984D01*
X13873753Y-10017984D02*
X13864229Y-10008460D01*
X13864229Y-10008460D02*
X13873753Y-9998936D01*
X13873753Y-9998936D02*
X13873753Y-10017984D01*
X13949943Y-9817984D02*
X14073753Y-9817984D01*
X14073753Y-9817984D02*
X14007086Y-9894174D01*
X14007086Y-9894174D02*
X14035658Y-9894174D01*
X14035658Y-9894174D02*
X14054705Y-9903698D01*
X14054705Y-9903698D02*
X14064229Y-9913222D01*
X14064229Y-9913222D02*
X14073753Y-9932270D01*
X14073753Y-9932270D02*
X14073753Y-9979889D01*
X14073753Y-9979889D02*
X14064229Y-9998936D01*
X14064229Y-9998936D02*
X14054705Y-10008460D01*
X14054705Y-10008460D02*
X14035658Y-10017984D01*
X14035658Y-10017984D02*
X13978515Y-10017984D01*
X13978515Y-10017984D02*
X13959467Y-10008460D01*
X13959467Y-10008460D02*
X13949943Y-9998936D01*
X14197562Y-9817984D02*
X14216610Y-9817984D01*
X14216610Y-9817984D02*
X14235658Y-9827508D01*
X14235658Y-9827508D02*
X14245182Y-9837031D01*
X14245182Y-9837031D02*
X14254705Y-9856079D01*
X14254705Y-9856079D02*
X14264229Y-9894174D01*
X14264229Y-9894174D02*
X14264229Y-9941793D01*
X14264229Y-9941793D02*
X14254705Y-9979889D01*
X14254705Y-9979889D02*
X14245182Y-9998936D01*
X14245182Y-9998936D02*
X14235658Y-10008460D01*
X14235658Y-10008460D02*
X14216610Y-10017984D01*
X14216610Y-10017984D02*
X14197562Y-10017984D01*
X14197562Y-10017984D02*
X14178515Y-10008460D01*
X14178515Y-10008460D02*
X14168991Y-9998936D01*
X14168991Y-9998936D02*
X14159467Y-9979889D01*
X14159467Y-9979889D02*
X14149943Y-9941793D01*
X14149943Y-9941793D02*
X14149943Y-9894174D01*
X14149943Y-9894174D02*
X14159467Y-9856079D01*
X14159467Y-9856079D02*
X14168991Y-9837031D01*
X14168991Y-9837031D02*
X14178515Y-9827508D01*
X14178515Y-9827508D02*
X14197562Y-9817984D01*
X14388039Y-9817984D02*
X14407086Y-9817984D01*
X14407086Y-9817984D02*
X14426134Y-9827508D01*
X14426134Y-9827508D02*
X14435658Y-9837031D01*
X14435658Y-9837031D02*
X14445182Y-9856079D01*
X14445182Y-9856079D02*
X14454705Y-9894174D01*
X14454705Y-9894174D02*
X14454705Y-9941793D01*
X14454705Y-9941793D02*
X14445182Y-9979889D01*
X14445182Y-9979889D02*
X14435658Y-9998936D01*
X14435658Y-9998936D02*
X14426134Y-10008460D01*
X14426134Y-10008460D02*
X14407086Y-10017984D01*
X14407086Y-10017984D02*
X14388039Y-10017984D01*
X14388039Y-10017984D02*
X14368991Y-10008460D01*
X14368991Y-10008460D02*
X14359467Y-9998936D01*
X14359467Y-9998936D02*
X14349943Y-9979889D01*
X14349943Y-9979889D02*
X14340420Y-9941793D01*
X14340420Y-9941793D02*
X14340420Y-9894174D01*
X14340420Y-9894174D02*
X14349943Y-9856079D01*
X14349943Y-9856079D02*
X14359467Y-9837031D01*
X14359467Y-9837031D02*
X14368991Y-9827508D01*
X14368991Y-9827508D02*
X14388039Y-9817984D01*
X14540420Y-10017984D02*
X14540420Y-9884650D01*
X14540420Y-9903698D02*
X14549943Y-9894174D01*
X14549943Y-9894174D02*
X14568991Y-9884650D01*
X14568991Y-9884650D02*
X14597563Y-9884650D01*
X14597563Y-9884650D02*
X14616610Y-9894174D01*
X14616610Y-9894174D02*
X14626134Y-9913222D01*
X14626134Y-9913222D02*
X14626134Y-10017984D01*
X14626134Y-9913222D02*
X14635658Y-9894174D01*
X14635658Y-9894174D02*
X14654705Y-9884650D01*
X14654705Y-9884650D02*
X14683277Y-9884650D01*
X14683277Y-9884650D02*
X14702324Y-9894174D01*
X14702324Y-9894174D02*
X14711848Y-9913222D01*
X14711848Y-9913222D02*
X14711848Y-10017984D01*
X14807086Y-10017984D02*
X14807086Y-9884650D01*
X14807086Y-9903698D02*
X14816610Y-9894174D01*
X14816610Y-9894174D02*
X14835658Y-9884650D01*
X14835658Y-9884650D02*
X14864229Y-9884650D01*
X14864229Y-9884650D02*
X14883277Y-9894174D01*
X14883277Y-9894174D02*
X14892801Y-9913222D01*
X14892801Y-9913222D02*
X14892801Y-10017984D01*
X14892801Y-9913222D02*
X14902324Y-9894174D01*
X14902324Y-9894174D02*
X14921372Y-9884650D01*
X14921372Y-9884650D02*
X14949943Y-9884650D01*
X14949943Y-9884650D02*
X14968991Y-9894174D01*
X14968991Y-9894174D02*
X14978515Y-9913222D01*
X14978515Y-9913222D02*
X14978515Y-10017984D01*
X15368991Y-9808460D02*
X15197563Y-10065603D01*
X15626134Y-9817984D02*
X15645182Y-9817984D01*
X15645182Y-9817984D02*
X15664229Y-9827508D01*
X15664229Y-9827508D02*
X15673753Y-9837031D01*
X15673753Y-9837031D02*
X15683277Y-9856079D01*
X15683277Y-9856079D02*
X15692801Y-9894174D01*
X15692801Y-9894174D02*
X15692801Y-9941793D01*
X15692801Y-9941793D02*
X15683277Y-9979889D01*
X15683277Y-9979889D02*
X15673753Y-9998936D01*
X15673753Y-9998936D02*
X15664229Y-10008460D01*
X15664229Y-10008460D02*
X15645182Y-10017984D01*
X15645182Y-10017984D02*
X15626134Y-10017984D01*
X15626134Y-10017984D02*
X15607086Y-10008460D01*
X15607086Y-10008460D02*
X15597563Y-9998936D01*
X15597563Y-9998936D02*
X15588039Y-9979889D01*
X15588039Y-9979889D02*
X15578515Y-9941793D01*
X15578515Y-9941793D02*
X15578515Y-9894174D01*
X15578515Y-9894174D02*
X15588039Y-9856079D01*
X15588039Y-9856079D02*
X15597563Y-9837031D01*
X15597563Y-9837031D02*
X15607086Y-9827508D01*
X15607086Y-9827508D02*
X15626134Y-9817984D01*
X15778515Y-9998936D02*
X15788039Y-10008460D01*
X15788039Y-10008460D02*
X15778515Y-10017984D01*
X15778515Y-10017984D02*
X15768991Y-10008460D01*
X15768991Y-10008460D02*
X15778515Y-9998936D01*
X15778515Y-9998936D02*
X15778515Y-10017984D01*
X15911848Y-9817984D02*
X15930896Y-9817984D01*
X15930896Y-9817984D02*
X15949944Y-9827508D01*
X15949944Y-9827508D02*
X15959467Y-9837031D01*
X15959467Y-9837031D02*
X15968991Y-9856079D01*
X15968991Y-9856079D02*
X15978515Y-9894174D01*
X15978515Y-9894174D02*
X15978515Y-9941793D01*
X15978515Y-9941793D02*
X15968991Y-9979889D01*
X15968991Y-9979889D02*
X15959467Y-9998936D01*
X15959467Y-9998936D02*
X15949944Y-10008460D01*
X15949944Y-10008460D02*
X15930896Y-10017984D01*
X15930896Y-10017984D02*
X15911848Y-10017984D01*
X15911848Y-10017984D02*
X15892801Y-10008460D01*
X15892801Y-10008460D02*
X15883277Y-9998936D01*
X15883277Y-9998936D02*
X15873753Y-9979889D01*
X15873753Y-9979889D02*
X15864229Y-9941793D01*
X15864229Y-9941793D02*
X15864229Y-9894174D01*
X15864229Y-9894174D02*
X15873753Y-9856079D01*
X15873753Y-9856079D02*
X15883277Y-9837031D01*
X15883277Y-9837031D02*
X15892801Y-9827508D01*
X15892801Y-9827508D02*
X15911848Y-9817984D01*
X16168991Y-10017984D02*
X16054706Y-10017984D01*
X16111848Y-10017984D02*
X16111848Y-9817984D01*
X16111848Y-9817984D02*
X16092801Y-9846555D01*
X16092801Y-9846555D02*
X16073753Y-9865603D01*
X16073753Y-9865603D02*
X16054706Y-9875127D01*
X16359467Y-10017984D02*
X16245182Y-10017984D01*
X16302325Y-10017984D02*
X16302325Y-9817984D01*
X16302325Y-9817984D02*
X16283277Y-9846555D01*
X16283277Y-9846555D02*
X16264229Y-9865603D01*
X16264229Y-9865603D02*
X16245182Y-9875127D01*
X16473753Y-9903698D02*
X16454706Y-9894174D01*
X16454706Y-9894174D02*
X16445182Y-9884650D01*
X16445182Y-9884650D02*
X16435658Y-9865603D01*
X16435658Y-9865603D02*
X16435658Y-9856079D01*
X16435658Y-9856079D02*
X16445182Y-9837031D01*
X16445182Y-9837031D02*
X16454706Y-9827508D01*
X16454706Y-9827508D02*
X16473753Y-9817984D01*
X16473753Y-9817984D02*
X16511848Y-9817984D01*
X16511848Y-9817984D02*
X16530896Y-9827508D01*
X16530896Y-9827508D02*
X16540420Y-9837031D01*
X16540420Y-9837031D02*
X16549944Y-9856079D01*
X16549944Y-9856079D02*
X16549944Y-9865603D01*
X16549944Y-9865603D02*
X16540420Y-9884650D01*
X16540420Y-9884650D02*
X16530896Y-9894174D01*
X16530896Y-9894174D02*
X16511848Y-9903698D01*
X16511848Y-9903698D02*
X16473753Y-9903698D01*
X16473753Y-9903698D02*
X16454706Y-9913222D01*
X16454706Y-9913222D02*
X16445182Y-9922746D01*
X16445182Y-9922746D02*
X16435658Y-9941793D01*
X16435658Y-9941793D02*
X16435658Y-9979889D01*
X16435658Y-9979889D02*
X16445182Y-9998936D01*
X16445182Y-9998936D02*
X16454706Y-10008460D01*
X16454706Y-10008460D02*
X16473753Y-10017984D01*
X16473753Y-10017984D02*
X16511848Y-10017984D01*
X16511848Y-10017984D02*
X16530896Y-10008460D01*
X16530896Y-10008460D02*
X16540420Y-9998936D01*
X16540420Y-9998936D02*
X16549944Y-9979889D01*
X16549944Y-9979889D02*
X16549944Y-9941793D01*
X16549944Y-9941793D02*
X16540420Y-9922746D01*
X16540420Y-9922746D02*
X16530896Y-9913222D01*
X16530896Y-9913222D02*
X16511848Y-9903698D01*
X16626134Y-9817984D02*
X16626134Y-9856079D01*
X16702325Y-9817984D02*
X16702325Y-9856079D01*
X16997563Y-10094174D02*
X16988039Y-10084650D01*
X16988039Y-10084650D02*
X16968991Y-10056079D01*
X16968991Y-10056079D02*
X16959468Y-10037031D01*
X16959468Y-10037031D02*
X16949944Y-10008460D01*
X16949944Y-10008460D02*
X16940420Y-9960841D01*
X16940420Y-9960841D02*
X16940420Y-9922746D01*
X16940420Y-9922746D02*
X16949944Y-9875127D01*
X16949944Y-9875127D02*
X16959468Y-9846555D01*
X16959468Y-9846555D02*
X16968991Y-9827508D01*
X16968991Y-9827508D02*
X16988039Y-9798936D01*
X16988039Y-9798936D02*
X16997563Y-9789412D01*
X17159468Y-9884650D02*
X17159468Y-10017984D01*
X17111849Y-9808460D02*
X17064230Y-9951317D01*
X17064230Y-9951317D02*
X17188039Y-9951317D01*
X17292801Y-9903698D02*
X17273753Y-9894174D01*
X17273753Y-9894174D02*
X17264230Y-9884650D01*
X17264230Y-9884650D02*
X17254706Y-9865603D01*
X17254706Y-9865603D02*
X17254706Y-9856079D01*
X17254706Y-9856079D02*
X17264230Y-9837031D01*
X17264230Y-9837031D02*
X17273753Y-9827508D01*
X17273753Y-9827508D02*
X17292801Y-9817984D01*
X17292801Y-9817984D02*
X17330896Y-9817984D01*
X17330896Y-9817984D02*
X17349944Y-9827508D01*
X17349944Y-9827508D02*
X17359468Y-9837031D01*
X17359468Y-9837031D02*
X17368991Y-9856079D01*
X17368991Y-9856079D02*
X17368991Y-9865603D01*
X17368991Y-9865603D02*
X17359468Y-9884650D01*
X17359468Y-9884650D02*
X17349944Y-9894174D01*
X17349944Y-9894174D02*
X17330896Y-9903698D01*
X17330896Y-9903698D02*
X17292801Y-9903698D01*
X17292801Y-9903698D02*
X17273753Y-9913222D01*
X17273753Y-9913222D02*
X17264230Y-9922746D01*
X17264230Y-9922746D02*
X17254706Y-9941793D01*
X17254706Y-9941793D02*
X17254706Y-9979889D01*
X17254706Y-9979889D02*
X17264230Y-9998936D01*
X17264230Y-9998936D02*
X17273753Y-10008460D01*
X17273753Y-10008460D02*
X17292801Y-10017984D01*
X17292801Y-10017984D02*
X17330896Y-10017984D01*
X17330896Y-10017984D02*
X17349944Y-10008460D01*
X17349944Y-10008460D02*
X17359468Y-9998936D01*
X17359468Y-9998936D02*
X17368991Y-9979889D01*
X17368991Y-9979889D02*
X17368991Y-9941793D01*
X17368991Y-9941793D02*
X17359468Y-9922746D01*
X17359468Y-9922746D02*
X17349944Y-9913222D01*
X17349944Y-9913222D02*
X17330896Y-9903698D01*
X17607087Y-10017984D02*
X17607087Y-9817984D01*
X17692801Y-10017984D02*
X17692801Y-9913222D01*
X17692801Y-9913222D02*
X17683277Y-9894174D01*
X17683277Y-9894174D02*
X17664230Y-9884650D01*
X17664230Y-9884650D02*
X17635658Y-9884650D01*
X17635658Y-9884650D02*
X17616611Y-9894174D01*
X17616611Y-9894174D02*
X17607087Y-9903698D01*
X17816611Y-10017984D02*
X17797563Y-10008460D01*
X17797563Y-10008460D02*
X17788039Y-9998936D01*
X17788039Y-9998936D02*
X17778515Y-9979889D01*
X17778515Y-9979889D02*
X17778515Y-9922746D01*
X17778515Y-9922746D02*
X17788039Y-9903698D01*
X17788039Y-9903698D02*
X17797563Y-9894174D01*
X17797563Y-9894174D02*
X17816611Y-9884650D01*
X17816611Y-9884650D02*
X17845182Y-9884650D01*
X17845182Y-9884650D02*
X17864230Y-9894174D01*
X17864230Y-9894174D02*
X17873753Y-9903698D01*
X17873753Y-9903698D02*
X17883277Y-9922746D01*
X17883277Y-9922746D02*
X17883277Y-9979889D01*
X17883277Y-9979889D02*
X17873753Y-9998936D01*
X17873753Y-9998936D02*
X17864230Y-10008460D01*
X17864230Y-10008460D02*
X17845182Y-10017984D01*
X17845182Y-10017984D02*
X17816611Y-10017984D01*
X17997563Y-10017984D02*
X17978515Y-10008460D01*
X17978515Y-10008460D02*
X17968992Y-9989412D01*
X17968992Y-9989412D02*
X17968992Y-9817984D01*
X18149944Y-10008460D02*
X18130896Y-10017984D01*
X18130896Y-10017984D02*
X18092801Y-10017984D01*
X18092801Y-10017984D02*
X18073753Y-10008460D01*
X18073753Y-10008460D02*
X18064230Y-9989412D01*
X18064230Y-9989412D02*
X18064230Y-9913222D01*
X18064230Y-9913222D02*
X18073753Y-9894174D01*
X18073753Y-9894174D02*
X18092801Y-9884650D01*
X18092801Y-9884650D02*
X18130896Y-9884650D01*
X18130896Y-9884650D02*
X18149944Y-9894174D01*
X18149944Y-9894174D02*
X18159468Y-9913222D01*
X18159468Y-9913222D02*
X18159468Y-9932270D01*
X18159468Y-9932270D02*
X18064230Y-9951317D01*
X18235658Y-10008460D02*
X18254706Y-10017984D01*
X18254706Y-10017984D02*
X18292801Y-10017984D01*
X18292801Y-10017984D02*
X18311849Y-10008460D01*
X18311849Y-10008460D02*
X18321373Y-9989412D01*
X18321373Y-9989412D02*
X18321373Y-9979889D01*
X18321373Y-9979889D02*
X18311849Y-9960841D01*
X18311849Y-9960841D02*
X18292801Y-9951317D01*
X18292801Y-9951317D02*
X18264230Y-9951317D01*
X18264230Y-9951317D02*
X18245182Y-9941793D01*
X18245182Y-9941793D02*
X18235658Y-9922746D01*
X18235658Y-9922746D02*
X18235658Y-9913222D01*
X18235658Y-9913222D02*
X18245182Y-9894174D01*
X18245182Y-9894174D02*
X18264230Y-9884650D01*
X18264230Y-9884650D02*
X18292801Y-9884650D01*
X18292801Y-9884650D02*
X18311849Y-9894174D01*
X18388039Y-10094174D02*
X18397563Y-10084650D01*
X18397563Y-10084650D02*
X18416611Y-10056079D01*
X18416611Y-10056079D02*
X18426134Y-10037031D01*
X18426134Y-10037031D02*
X18435658Y-10008460D01*
X18435658Y-10008460D02*
X18445182Y-9960841D01*
X18445182Y-9960841D02*
X18445182Y-9922746D01*
X18445182Y-9922746D02*
X18435658Y-9875127D01*
X18435658Y-9875127D02*
X18426134Y-9846555D01*
X18426134Y-9846555D02*
X18416611Y-9827508D01*
X18416611Y-9827508D02*
X18397563Y-9798936D01*
X18397563Y-9798936D02*
X18388039Y-9789412D01*
D12*
X13418107Y-10201107D02*
X13418107Y-10179893D01*
X13396893Y-10179893D01*
X13396893Y-10201107D01*
X13418107Y-10201107D01*
D11*
X13721372Y-10081984D02*
X13740420Y-10081984D01*
X13740420Y-10081984D02*
X13759467Y-10091508D01*
X13759467Y-10091508D02*
X13768991Y-10101031D01*
X13768991Y-10101031D02*
X13778515Y-10120079D01*
X13778515Y-10120079D02*
X13788039Y-10158174D01*
X13788039Y-10158174D02*
X13788039Y-10205793D01*
X13788039Y-10205793D02*
X13778515Y-10243889D01*
X13778515Y-10243889D02*
X13768991Y-10262936D01*
X13768991Y-10262936D02*
X13759467Y-10272460D01*
X13759467Y-10272460D02*
X13740420Y-10281984D01*
X13740420Y-10281984D02*
X13721372Y-10281984D01*
X13721372Y-10281984D02*
X13702324Y-10272460D01*
X13702324Y-10272460D02*
X13692801Y-10262936D01*
X13692801Y-10262936D02*
X13683277Y-10243889D01*
X13683277Y-10243889D02*
X13673753Y-10205793D01*
X13673753Y-10205793D02*
X13673753Y-10158174D01*
X13673753Y-10158174D02*
X13683277Y-10120079D01*
X13683277Y-10120079D02*
X13692801Y-10101031D01*
X13692801Y-10101031D02*
X13702324Y-10091508D01*
X13702324Y-10091508D02*
X13721372Y-10081984D01*
X13873753Y-10262936D02*
X13883277Y-10272460D01*
X13883277Y-10272460D02*
X13873753Y-10281984D01*
X13873753Y-10281984D02*
X13864229Y-10272460D01*
X13864229Y-10272460D02*
X13873753Y-10262936D01*
X13873753Y-10262936D02*
X13873753Y-10281984D01*
X13949943Y-10081984D02*
X14073753Y-10081984D01*
X14073753Y-10081984D02*
X14007086Y-10158174D01*
X14007086Y-10158174D02*
X14035658Y-10158174D01*
X14035658Y-10158174D02*
X14054705Y-10167698D01*
X14054705Y-10167698D02*
X14064229Y-10177222D01*
X14064229Y-10177222D02*
X14073753Y-10196270D01*
X14073753Y-10196270D02*
X14073753Y-10243889D01*
X14073753Y-10243889D02*
X14064229Y-10262936D01*
X14064229Y-10262936D02*
X14054705Y-10272460D01*
X14054705Y-10272460D02*
X14035658Y-10281984D01*
X14035658Y-10281984D02*
X13978515Y-10281984D01*
X13978515Y-10281984D02*
X13959467Y-10272460D01*
X13959467Y-10272460D02*
X13949943Y-10262936D01*
X14197562Y-10081984D02*
X14216610Y-10081984D01*
X14216610Y-10081984D02*
X14235658Y-10091508D01*
X14235658Y-10091508D02*
X14245182Y-10101031D01*
X14245182Y-10101031D02*
X14254705Y-10120079D01*
X14254705Y-10120079D02*
X14264229Y-10158174D01*
X14264229Y-10158174D02*
X14264229Y-10205793D01*
X14264229Y-10205793D02*
X14254705Y-10243889D01*
X14254705Y-10243889D02*
X14245182Y-10262936D01*
X14245182Y-10262936D02*
X14235658Y-10272460D01*
X14235658Y-10272460D02*
X14216610Y-10281984D01*
X14216610Y-10281984D02*
X14197562Y-10281984D01*
X14197562Y-10281984D02*
X14178515Y-10272460D01*
X14178515Y-10272460D02*
X14168991Y-10262936D01*
X14168991Y-10262936D02*
X14159467Y-10243889D01*
X14159467Y-10243889D02*
X14149943Y-10205793D01*
X14149943Y-10205793D02*
X14149943Y-10158174D01*
X14149943Y-10158174D02*
X14159467Y-10120079D01*
X14159467Y-10120079D02*
X14168991Y-10101031D01*
X14168991Y-10101031D02*
X14178515Y-10091508D01*
X14178515Y-10091508D02*
X14197562Y-10081984D01*
X14388039Y-10081984D02*
X14407086Y-10081984D01*
X14407086Y-10081984D02*
X14426134Y-10091508D01*
X14426134Y-10091508D02*
X14435658Y-10101031D01*
X14435658Y-10101031D02*
X14445182Y-10120079D01*
X14445182Y-10120079D02*
X14454705Y-10158174D01*
X14454705Y-10158174D02*
X14454705Y-10205793D01*
X14454705Y-10205793D02*
X14445182Y-10243889D01*
X14445182Y-10243889D02*
X14435658Y-10262936D01*
X14435658Y-10262936D02*
X14426134Y-10272460D01*
X14426134Y-10272460D02*
X14407086Y-10281984D01*
X14407086Y-10281984D02*
X14388039Y-10281984D01*
X14388039Y-10281984D02*
X14368991Y-10272460D01*
X14368991Y-10272460D02*
X14359467Y-10262936D01*
X14359467Y-10262936D02*
X14349943Y-10243889D01*
X14349943Y-10243889D02*
X14340420Y-10205793D01*
X14340420Y-10205793D02*
X14340420Y-10158174D01*
X14340420Y-10158174D02*
X14349943Y-10120079D01*
X14349943Y-10120079D02*
X14359467Y-10101031D01*
X14359467Y-10101031D02*
X14368991Y-10091508D01*
X14368991Y-10091508D02*
X14388039Y-10081984D01*
X14540420Y-10281984D02*
X14540420Y-10148650D01*
X14540420Y-10167698D02*
X14549943Y-10158174D01*
X14549943Y-10158174D02*
X14568991Y-10148650D01*
X14568991Y-10148650D02*
X14597563Y-10148650D01*
X14597563Y-10148650D02*
X14616610Y-10158174D01*
X14616610Y-10158174D02*
X14626134Y-10177222D01*
X14626134Y-10177222D02*
X14626134Y-10281984D01*
X14626134Y-10177222D02*
X14635658Y-10158174D01*
X14635658Y-10158174D02*
X14654705Y-10148650D01*
X14654705Y-10148650D02*
X14683277Y-10148650D01*
X14683277Y-10148650D02*
X14702324Y-10158174D01*
X14702324Y-10158174D02*
X14711848Y-10177222D01*
X14711848Y-10177222D02*
X14711848Y-10281984D01*
X14807086Y-10281984D02*
X14807086Y-10148650D01*
X14807086Y-10167698D02*
X14816610Y-10158174D01*
X14816610Y-10158174D02*
X14835658Y-10148650D01*
X14835658Y-10148650D02*
X14864229Y-10148650D01*
X14864229Y-10148650D02*
X14883277Y-10158174D01*
X14883277Y-10158174D02*
X14892801Y-10177222D01*
X14892801Y-10177222D02*
X14892801Y-10281984D01*
X14892801Y-10177222D02*
X14902324Y-10158174D01*
X14902324Y-10158174D02*
X14921372Y-10148650D01*
X14921372Y-10148650D02*
X14949943Y-10148650D01*
X14949943Y-10148650D02*
X14968991Y-10158174D01*
X14968991Y-10158174D02*
X14978515Y-10177222D01*
X14978515Y-10177222D02*
X14978515Y-10281984D01*
X15368991Y-10072460D02*
X15197563Y-10329603D01*
X15626134Y-10081984D02*
X15645182Y-10081984D01*
X15645182Y-10081984D02*
X15664229Y-10091508D01*
X15664229Y-10091508D02*
X15673753Y-10101031D01*
X15673753Y-10101031D02*
X15683277Y-10120079D01*
X15683277Y-10120079D02*
X15692801Y-10158174D01*
X15692801Y-10158174D02*
X15692801Y-10205793D01*
X15692801Y-10205793D02*
X15683277Y-10243889D01*
X15683277Y-10243889D02*
X15673753Y-10262936D01*
X15673753Y-10262936D02*
X15664229Y-10272460D01*
X15664229Y-10272460D02*
X15645182Y-10281984D01*
X15645182Y-10281984D02*
X15626134Y-10281984D01*
X15626134Y-10281984D02*
X15607086Y-10272460D01*
X15607086Y-10272460D02*
X15597563Y-10262936D01*
X15597563Y-10262936D02*
X15588039Y-10243889D01*
X15588039Y-10243889D02*
X15578515Y-10205793D01*
X15578515Y-10205793D02*
X15578515Y-10158174D01*
X15578515Y-10158174D02*
X15588039Y-10120079D01*
X15588039Y-10120079D02*
X15597563Y-10101031D01*
X15597563Y-10101031D02*
X15607086Y-10091508D01*
X15607086Y-10091508D02*
X15626134Y-10081984D01*
X15778515Y-10262936D02*
X15788039Y-10272460D01*
X15788039Y-10272460D02*
X15778515Y-10281984D01*
X15778515Y-10281984D02*
X15768991Y-10272460D01*
X15768991Y-10272460D02*
X15778515Y-10262936D01*
X15778515Y-10262936D02*
X15778515Y-10281984D01*
X15911848Y-10081984D02*
X15930896Y-10081984D01*
X15930896Y-10081984D02*
X15949944Y-10091508D01*
X15949944Y-10091508D02*
X15959467Y-10101031D01*
X15959467Y-10101031D02*
X15968991Y-10120079D01*
X15968991Y-10120079D02*
X15978515Y-10158174D01*
X15978515Y-10158174D02*
X15978515Y-10205793D01*
X15978515Y-10205793D02*
X15968991Y-10243889D01*
X15968991Y-10243889D02*
X15959467Y-10262936D01*
X15959467Y-10262936D02*
X15949944Y-10272460D01*
X15949944Y-10272460D02*
X15930896Y-10281984D01*
X15930896Y-10281984D02*
X15911848Y-10281984D01*
X15911848Y-10281984D02*
X15892801Y-10272460D01*
X15892801Y-10272460D02*
X15883277Y-10262936D01*
X15883277Y-10262936D02*
X15873753Y-10243889D01*
X15873753Y-10243889D02*
X15864229Y-10205793D01*
X15864229Y-10205793D02*
X15864229Y-10158174D01*
X15864229Y-10158174D02*
X15873753Y-10120079D01*
X15873753Y-10120079D02*
X15883277Y-10101031D01*
X15883277Y-10101031D02*
X15892801Y-10091508D01*
X15892801Y-10091508D02*
X15911848Y-10081984D01*
X16168991Y-10281984D02*
X16054706Y-10281984D01*
X16111848Y-10281984D02*
X16111848Y-10081984D01*
X16111848Y-10081984D02*
X16092801Y-10110555D01*
X16092801Y-10110555D02*
X16073753Y-10129603D01*
X16073753Y-10129603D02*
X16054706Y-10139127D01*
X16359467Y-10281984D02*
X16245182Y-10281984D01*
X16302325Y-10281984D02*
X16302325Y-10081984D01*
X16302325Y-10081984D02*
X16283277Y-10110555D01*
X16283277Y-10110555D02*
X16264229Y-10129603D01*
X16264229Y-10129603D02*
X16245182Y-10139127D01*
X16473753Y-10167698D02*
X16454706Y-10158174D01*
X16454706Y-10158174D02*
X16445182Y-10148650D01*
X16445182Y-10148650D02*
X16435658Y-10129603D01*
X16435658Y-10129603D02*
X16435658Y-10120079D01*
X16435658Y-10120079D02*
X16445182Y-10101031D01*
X16445182Y-10101031D02*
X16454706Y-10091508D01*
X16454706Y-10091508D02*
X16473753Y-10081984D01*
X16473753Y-10081984D02*
X16511848Y-10081984D01*
X16511848Y-10081984D02*
X16530896Y-10091508D01*
X16530896Y-10091508D02*
X16540420Y-10101031D01*
X16540420Y-10101031D02*
X16549944Y-10120079D01*
X16549944Y-10120079D02*
X16549944Y-10129603D01*
X16549944Y-10129603D02*
X16540420Y-10148650D01*
X16540420Y-10148650D02*
X16530896Y-10158174D01*
X16530896Y-10158174D02*
X16511848Y-10167698D01*
X16511848Y-10167698D02*
X16473753Y-10167698D01*
X16473753Y-10167698D02*
X16454706Y-10177222D01*
X16454706Y-10177222D02*
X16445182Y-10186746D01*
X16445182Y-10186746D02*
X16435658Y-10205793D01*
X16435658Y-10205793D02*
X16435658Y-10243889D01*
X16435658Y-10243889D02*
X16445182Y-10262936D01*
X16445182Y-10262936D02*
X16454706Y-10272460D01*
X16454706Y-10272460D02*
X16473753Y-10281984D01*
X16473753Y-10281984D02*
X16511848Y-10281984D01*
X16511848Y-10281984D02*
X16530896Y-10272460D01*
X16530896Y-10272460D02*
X16540420Y-10262936D01*
X16540420Y-10262936D02*
X16549944Y-10243889D01*
X16549944Y-10243889D02*
X16549944Y-10205793D01*
X16549944Y-10205793D02*
X16540420Y-10186746D01*
X16540420Y-10186746D02*
X16530896Y-10177222D01*
X16530896Y-10177222D02*
X16511848Y-10167698D01*
X16626134Y-10081984D02*
X16626134Y-10120079D01*
X16702325Y-10081984D02*
X16702325Y-10120079D01*
X16997563Y-10358174D02*
X16988039Y-10348650D01*
X16988039Y-10348650D02*
X16968991Y-10320079D01*
X16968991Y-10320079D02*
X16959468Y-10301031D01*
X16959468Y-10301031D02*
X16949944Y-10272460D01*
X16949944Y-10272460D02*
X16940420Y-10224841D01*
X16940420Y-10224841D02*
X16940420Y-10186746D01*
X16940420Y-10186746D02*
X16949944Y-10139127D01*
X16949944Y-10139127D02*
X16959468Y-10110555D01*
X16959468Y-10110555D02*
X16968991Y-10091508D01*
X16968991Y-10091508D02*
X16988039Y-10062936D01*
X16988039Y-10062936D02*
X16997563Y-10053412D01*
X17168991Y-10081984D02*
X17073753Y-10081984D01*
X17073753Y-10081984D02*
X17064230Y-10177222D01*
X17064230Y-10177222D02*
X17073753Y-10167698D01*
X17073753Y-10167698D02*
X17092801Y-10158174D01*
X17092801Y-10158174D02*
X17140420Y-10158174D01*
X17140420Y-10158174D02*
X17159468Y-10167698D01*
X17159468Y-10167698D02*
X17168991Y-10177222D01*
X17168991Y-10177222D02*
X17178515Y-10196270D01*
X17178515Y-10196270D02*
X17178515Y-10243889D01*
X17178515Y-10243889D02*
X17168991Y-10262936D01*
X17168991Y-10262936D02*
X17159468Y-10272460D01*
X17159468Y-10272460D02*
X17140420Y-10281984D01*
X17140420Y-10281984D02*
X17092801Y-10281984D01*
X17092801Y-10281984D02*
X17073753Y-10272460D01*
X17073753Y-10272460D02*
X17064230Y-10262936D01*
X17416611Y-10281984D02*
X17416611Y-10081984D01*
X17502325Y-10281984D02*
X17502325Y-10177222D01*
X17502325Y-10177222D02*
X17492801Y-10158174D01*
X17492801Y-10158174D02*
X17473753Y-10148650D01*
X17473753Y-10148650D02*
X17445182Y-10148650D01*
X17445182Y-10148650D02*
X17426134Y-10158174D01*
X17426134Y-10158174D02*
X17416611Y-10167698D01*
X17626134Y-10281984D02*
X17607087Y-10272460D01*
X17607087Y-10272460D02*
X17597563Y-10262936D01*
X17597563Y-10262936D02*
X17588039Y-10243889D01*
X17588039Y-10243889D02*
X17588039Y-10186746D01*
X17588039Y-10186746D02*
X17597563Y-10167698D01*
X17597563Y-10167698D02*
X17607087Y-10158174D01*
X17607087Y-10158174D02*
X17626134Y-10148650D01*
X17626134Y-10148650D02*
X17654706Y-10148650D01*
X17654706Y-10148650D02*
X17673753Y-10158174D01*
X17673753Y-10158174D02*
X17683277Y-10167698D01*
X17683277Y-10167698D02*
X17692801Y-10186746D01*
X17692801Y-10186746D02*
X17692801Y-10243889D01*
X17692801Y-10243889D02*
X17683277Y-10262936D01*
X17683277Y-10262936D02*
X17673753Y-10272460D01*
X17673753Y-10272460D02*
X17654706Y-10281984D01*
X17654706Y-10281984D02*
X17626134Y-10281984D01*
X17807087Y-10281984D02*
X17788039Y-10272460D01*
X17788039Y-10272460D02*
X17778515Y-10253412D01*
X17778515Y-10253412D02*
X17778515Y-10081984D01*
X17959468Y-10272460D02*
X17940420Y-10281984D01*
X17940420Y-10281984D02*
X17902325Y-10281984D01*
X17902325Y-10281984D02*
X17883277Y-10272460D01*
X17883277Y-10272460D02*
X17873753Y-10253412D01*
X17873753Y-10253412D02*
X17873753Y-10177222D01*
X17873753Y-10177222D02*
X17883277Y-10158174D01*
X17883277Y-10158174D02*
X17902325Y-10148650D01*
X17902325Y-10148650D02*
X17940420Y-10148650D01*
X17940420Y-10148650D02*
X17959468Y-10158174D01*
X17959468Y-10158174D02*
X17968992Y-10177222D01*
X17968992Y-10177222D02*
X17968992Y-10196270D01*
X17968992Y-10196270D02*
X17873753Y-10215317D01*
X18045182Y-10272460D02*
X18064230Y-10281984D01*
X18064230Y-10281984D02*
X18102325Y-10281984D01*
X18102325Y-10281984D02*
X18121373Y-10272460D01*
X18121373Y-10272460D02*
X18130896Y-10253412D01*
X18130896Y-10253412D02*
X18130896Y-10243889D01*
X18130896Y-10243889D02*
X18121373Y-10224841D01*
X18121373Y-10224841D02*
X18102325Y-10215317D01*
X18102325Y-10215317D02*
X18073753Y-10215317D01*
X18073753Y-10215317D02*
X18054706Y-10205793D01*
X18054706Y-10205793D02*
X18045182Y-10186746D01*
X18045182Y-10186746D02*
X18045182Y-10177222D01*
X18045182Y-10177222D02*
X18054706Y-10158174D01*
X18054706Y-10158174D02*
X18073753Y-10148650D01*
X18073753Y-10148650D02*
X18102325Y-10148650D01*
X18102325Y-10148650D02*
X18121373Y-10158174D01*
X18197563Y-10358174D02*
X18207087Y-10348650D01*
X18207087Y-10348650D02*
X18226134Y-10320079D01*
X18226134Y-10320079D02*
X18235658Y-10301031D01*
X18235658Y-10301031D02*
X18245182Y-10272460D01*
X18245182Y-10272460D02*
X18254706Y-10224841D01*
X18254706Y-10224841D02*
X18254706Y-10186746D01*
X18254706Y-10186746D02*
X18245182Y-10139127D01*
X18245182Y-10139127D02*
X18235658Y-10110555D01*
X18235658Y-10110555D02*
X18226134Y-10091508D01*
X18226134Y-10091508D02*
X18207087Y-10062936D01*
X18207087Y-10062936D02*
X18197563Y-10053412D01*
D12*
X13402500Y-10474500D02*
X13422500Y-10454500D01*
X13402500Y-10434500D01*
X13382500Y-10454500D01*
X13402500Y-10474500D01*
D11*
X13721372Y-10345984D02*
X13740420Y-10345984D01*
X13740420Y-10345984D02*
X13759467Y-10355508D01*
X13759467Y-10355508D02*
X13768991Y-10365031D01*
X13768991Y-10365031D02*
X13778515Y-10384079D01*
X13778515Y-10384079D02*
X13788039Y-10422174D01*
X13788039Y-10422174D02*
X13788039Y-10469793D01*
X13788039Y-10469793D02*
X13778515Y-10507889D01*
X13778515Y-10507889D02*
X13768991Y-10526936D01*
X13768991Y-10526936D02*
X13759467Y-10536460D01*
X13759467Y-10536460D02*
X13740420Y-10545984D01*
X13740420Y-10545984D02*
X13721372Y-10545984D01*
X13721372Y-10545984D02*
X13702324Y-10536460D01*
X13702324Y-10536460D02*
X13692801Y-10526936D01*
X13692801Y-10526936D02*
X13683277Y-10507889D01*
X13683277Y-10507889D02*
X13673753Y-10469793D01*
X13673753Y-10469793D02*
X13673753Y-10422174D01*
X13673753Y-10422174D02*
X13683277Y-10384079D01*
X13683277Y-10384079D02*
X13692801Y-10365031D01*
X13692801Y-10365031D02*
X13702324Y-10355508D01*
X13702324Y-10355508D02*
X13721372Y-10345984D01*
X13873753Y-10526936D02*
X13883277Y-10536460D01*
X13883277Y-10536460D02*
X13873753Y-10545984D01*
X13873753Y-10545984D02*
X13864229Y-10536460D01*
X13864229Y-10536460D02*
X13873753Y-10526936D01*
X13873753Y-10526936D02*
X13873753Y-10545984D01*
X14054705Y-10412650D02*
X14054705Y-10545984D01*
X14007086Y-10336460D02*
X13959467Y-10479317D01*
X13959467Y-10479317D02*
X14083277Y-10479317D01*
X14197562Y-10345984D02*
X14216610Y-10345984D01*
X14216610Y-10345984D02*
X14235658Y-10355508D01*
X14235658Y-10355508D02*
X14245182Y-10365031D01*
X14245182Y-10365031D02*
X14254705Y-10384079D01*
X14254705Y-10384079D02*
X14264229Y-10422174D01*
X14264229Y-10422174D02*
X14264229Y-10469793D01*
X14264229Y-10469793D02*
X14254705Y-10507889D01*
X14254705Y-10507889D02*
X14245182Y-10526936D01*
X14245182Y-10526936D02*
X14235658Y-10536460D01*
X14235658Y-10536460D02*
X14216610Y-10545984D01*
X14216610Y-10545984D02*
X14197562Y-10545984D01*
X14197562Y-10545984D02*
X14178515Y-10536460D01*
X14178515Y-10536460D02*
X14168991Y-10526936D01*
X14168991Y-10526936D02*
X14159467Y-10507889D01*
X14159467Y-10507889D02*
X14149943Y-10469793D01*
X14149943Y-10469793D02*
X14149943Y-10422174D01*
X14149943Y-10422174D02*
X14159467Y-10384079D01*
X14159467Y-10384079D02*
X14168991Y-10365031D01*
X14168991Y-10365031D02*
X14178515Y-10355508D01*
X14178515Y-10355508D02*
X14197562Y-10345984D01*
X14388039Y-10345984D02*
X14407086Y-10345984D01*
X14407086Y-10345984D02*
X14426134Y-10355508D01*
X14426134Y-10355508D02*
X14435658Y-10365031D01*
X14435658Y-10365031D02*
X14445182Y-10384079D01*
X14445182Y-10384079D02*
X14454705Y-10422174D01*
X14454705Y-10422174D02*
X14454705Y-10469793D01*
X14454705Y-10469793D02*
X14445182Y-10507889D01*
X14445182Y-10507889D02*
X14435658Y-10526936D01*
X14435658Y-10526936D02*
X14426134Y-10536460D01*
X14426134Y-10536460D02*
X14407086Y-10545984D01*
X14407086Y-10545984D02*
X14388039Y-10545984D01*
X14388039Y-10545984D02*
X14368991Y-10536460D01*
X14368991Y-10536460D02*
X14359467Y-10526936D01*
X14359467Y-10526936D02*
X14349943Y-10507889D01*
X14349943Y-10507889D02*
X14340420Y-10469793D01*
X14340420Y-10469793D02*
X14340420Y-10422174D01*
X14340420Y-10422174D02*
X14349943Y-10384079D01*
X14349943Y-10384079D02*
X14359467Y-10365031D01*
X14359467Y-10365031D02*
X14368991Y-10355508D01*
X14368991Y-10355508D02*
X14388039Y-10345984D01*
X14540420Y-10545984D02*
X14540420Y-10412650D01*
X14540420Y-10431698D02*
X14549943Y-10422174D01*
X14549943Y-10422174D02*
X14568991Y-10412650D01*
X14568991Y-10412650D02*
X14597563Y-10412650D01*
X14597563Y-10412650D02*
X14616610Y-10422174D01*
X14616610Y-10422174D02*
X14626134Y-10441222D01*
X14626134Y-10441222D02*
X14626134Y-10545984D01*
X14626134Y-10441222D02*
X14635658Y-10422174D01*
X14635658Y-10422174D02*
X14654705Y-10412650D01*
X14654705Y-10412650D02*
X14683277Y-10412650D01*
X14683277Y-10412650D02*
X14702324Y-10422174D01*
X14702324Y-10422174D02*
X14711848Y-10441222D01*
X14711848Y-10441222D02*
X14711848Y-10545984D01*
X14807086Y-10545984D02*
X14807086Y-10412650D01*
X14807086Y-10431698D02*
X14816610Y-10422174D01*
X14816610Y-10422174D02*
X14835658Y-10412650D01*
X14835658Y-10412650D02*
X14864229Y-10412650D01*
X14864229Y-10412650D02*
X14883277Y-10422174D01*
X14883277Y-10422174D02*
X14892801Y-10441222D01*
X14892801Y-10441222D02*
X14892801Y-10545984D01*
X14892801Y-10441222D02*
X14902324Y-10422174D01*
X14902324Y-10422174D02*
X14921372Y-10412650D01*
X14921372Y-10412650D02*
X14949943Y-10412650D01*
X14949943Y-10412650D02*
X14968991Y-10422174D01*
X14968991Y-10422174D02*
X14978515Y-10441222D01*
X14978515Y-10441222D02*
X14978515Y-10545984D01*
X15368991Y-10336460D02*
X15197563Y-10593603D01*
X15626134Y-10345984D02*
X15645182Y-10345984D01*
X15645182Y-10345984D02*
X15664229Y-10355508D01*
X15664229Y-10355508D02*
X15673753Y-10365031D01*
X15673753Y-10365031D02*
X15683277Y-10384079D01*
X15683277Y-10384079D02*
X15692801Y-10422174D01*
X15692801Y-10422174D02*
X15692801Y-10469793D01*
X15692801Y-10469793D02*
X15683277Y-10507889D01*
X15683277Y-10507889D02*
X15673753Y-10526936D01*
X15673753Y-10526936D02*
X15664229Y-10536460D01*
X15664229Y-10536460D02*
X15645182Y-10545984D01*
X15645182Y-10545984D02*
X15626134Y-10545984D01*
X15626134Y-10545984D02*
X15607086Y-10536460D01*
X15607086Y-10536460D02*
X15597563Y-10526936D01*
X15597563Y-10526936D02*
X15588039Y-10507889D01*
X15588039Y-10507889D02*
X15578515Y-10469793D01*
X15578515Y-10469793D02*
X15578515Y-10422174D01*
X15578515Y-10422174D02*
X15588039Y-10384079D01*
X15588039Y-10384079D02*
X15597563Y-10365031D01*
X15597563Y-10365031D02*
X15607086Y-10355508D01*
X15607086Y-10355508D02*
X15626134Y-10345984D01*
X15778515Y-10526936D02*
X15788039Y-10536460D01*
X15788039Y-10536460D02*
X15778515Y-10545984D01*
X15778515Y-10545984D02*
X15768991Y-10536460D01*
X15768991Y-10536460D02*
X15778515Y-10526936D01*
X15778515Y-10526936D02*
X15778515Y-10545984D01*
X15911848Y-10345984D02*
X15930896Y-10345984D01*
X15930896Y-10345984D02*
X15949944Y-10355508D01*
X15949944Y-10355508D02*
X15959467Y-10365031D01*
X15959467Y-10365031D02*
X15968991Y-10384079D01*
X15968991Y-10384079D02*
X15978515Y-10422174D01*
X15978515Y-10422174D02*
X15978515Y-10469793D01*
X15978515Y-10469793D02*
X15968991Y-10507889D01*
X15968991Y-10507889D02*
X15959467Y-10526936D01*
X15959467Y-10526936D02*
X15949944Y-10536460D01*
X15949944Y-10536460D02*
X15930896Y-10545984D01*
X15930896Y-10545984D02*
X15911848Y-10545984D01*
X15911848Y-10545984D02*
X15892801Y-10536460D01*
X15892801Y-10536460D02*
X15883277Y-10526936D01*
X15883277Y-10526936D02*
X15873753Y-10507889D01*
X15873753Y-10507889D02*
X15864229Y-10469793D01*
X15864229Y-10469793D02*
X15864229Y-10422174D01*
X15864229Y-10422174D02*
X15873753Y-10384079D01*
X15873753Y-10384079D02*
X15883277Y-10365031D01*
X15883277Y-10365031D02*
X15892801Y-10355508D01*
X15892801Y-10355508D02*
X15911848Y-10345984D01*
X16168991Y-10545984D02*
X16054706Y-10545984D01*
X16111848Y-10545984D02*
X16111848Y-10345984D01*
X16111848Y-10345984D02*
X16092801Y-10374555D01*
X16092801Y-10374555D02*
X16073753Y-10393603D01*
X16073753Y-10393603D02*
X16054706Y-10403127D01*
X16349944Y-10345984D02*
X16254706Y-10345984D01*
X16254706Y-10345984D02*
X16245182Y-10441222D01*
X16245182Y-10441222D02*
X16254706Y-10431698D01*
X16254706Y-10431698D02*
X16273753Y-10422174D01*
X16273753Y-10422174D02*
X16321372Y-10422174D01*
X16321372Y-10422174D02*
X16340420Y-10431698D01*
X16340420Y-10431698D02*
X16349944Y-10441222D01*
X16349944Y-10441222D02*
X16359467Y-10460270D01*
X16359467Y-10460270D02*
X16359467Y-10507889D01*
X16359467Y-10507889D02*
X16349944Y-10526936D01*
X16349944Y-10526936D02*
X16340420Y-10536460D01*
X16340420Y-10536460D02*
X16321372Y-10545984D01*
X16321372Y-10545984D02*
X16273753Y-10545984D01*
X16273753Y-10545984D02*
X16254706Y-10536460D01*
X16254706Y-10536460D02*
X16245182Y-10526936D01*
X16426134Y-10345984D02*
X16559467Y-10345984D01*
X16559467Y-10345984D02*
X16473753Y-10545984D01*
X16626134Y-10345984D02*
X16626134Y-10384079D01*
X16702325Y-10345984D02*
X16702325Y-10384079D01*
X16997563Y-10622174D02*
X16988039Y-10612650D01*
X16988039Y-10612650D02*
X16968991Y-10584079D01*
X16968991Y-10584079D02*
X16959468Y-10565031D01*
X16959468Y-10565031D02*
X16949944Y-10536460D01*
X16949944Y-10536460D02*
X16940420Y-10488841D01*
X16940420Y-10488841D02*
X16940420Y-10450746D01*
X16940420Y-10450746D02*
X16949944Y-10403127D01*
X16949944Y-10403127D02*
X16959468Y-10374555D01*
X16959468Y-10374555D02*
X16968991Y-10355508D01*
X16968991Y-10355508D02*
X16988039Y-10326936D01*
X16988039Y-10326936D02*
X16997563Y-10317412D01*
X17178515Y-10545984D02*
X17064230Y-10545984D01*
X17121372Y-10545984D02*
X17121372Y-10345984D01*
X17121372Y-10345984D02*
X17102325Y-10374555D01*
X17102325Y-10374555D02*
X17083277Y-10393603D01*
X17083277Y-10393603D02*
X17064230Y-10403127D01*
X17416611Y-10545984D02*
X17416611Y-10345984D01*
X17502325Y-10545984D02*
X17502325Y-10441222D01*
X17502325Y-10441222D02*
X17492801Y-10422174D01*
X17492801Y-10422174D02*
X17473753Y-10412650D01*
X17473753Y-10412650D02*
X17445182Y-10412650D01*
X17445182Y-10412650D02*
X17426134Y-10422174D01*
X17426134Y-10422174D02*
X17416611Y-10431698D01*
X17626134Y-10545984D02*
X17607087Y-10536460D01*
X17607087Y-10536460D02*
X17597563Y-10526936D01*
X17597563Y-10526936D02*
X17588039Y-10507889D01*
X17588039Y-10507889D02*
X17588039Y-10450746D01*
X17588039Y-10450746D02*
X17597563Y-10431698D01*
X17597563Y-10431698D02*
X17607087Y-10422174D01*
X17607087Y-10422174D02*
X17626134Y-10412650D01*
X17626134Y-10412650D02*
X17654706Y-10412650D01*
X17654706Y-10412650D02*
X17673753Y-10422174D01*
X17673753Y-10422174D02*
X17683277Y-10431698D01*
X17683277Y-10431698D02*
X17692801Y-10450746D01*
X17692801Y-10450746D02*
X17692801Y-10507889D01*
X17692801Y-10507889D02*
X17683277Y-10526936D01*
X17683277Y-10526936D02*
X17673753Y-10536460D01*
X17673753Y-10536460D02*
X17654706Y-10545984D01*
X17654706Y-10545984D02*
X17626134Y-10545984D01*
X17807087Y-10545984D02*
X17788039Y-10536460D01*
X17788039Y-10536460D02*
X17778515Y-10517412D01*
X17778515Y-10517412D02*
X17778515Y-10345984D01*
X17959468Y-10536460D02*
X17940420Y-10545984D01*
X17940420Y-10545984D02*
X17902325Y-10545984D01*
X17902325Y-10545984D02*
X17883277Y-10536460D01*
X17883277Y-10536460D02*
X17873753Y-10517412D01*
X17873753Y-10517412D02*
X17873753Y-10441222D01*
X17873753Y-10441222D02*
X17883277Y-10422174D01*
X17883277Y-10422174D02*
X17902325Y-10412650D01*
X17902325Y-10412650D02*
X17940420Y-10412650D01*
X17940420Y-10412650D02*
X17959468Y-10422174D01*
X17959468Y-10422174D02*
X17968992Y-10441222D01*
X17968992Y-10441222D02*
X17968992Y-10460270D01*
X17968992Y-10460270D02*
X17873753Y-10479317D01*
X18035658Y-10622174D02*
X18045182Y-10612650D01*
X18045182Y-10612650D02*
X18064230Y-10584079D01*
X18064230Y-10584079D02*
X18073753Y-10565031D01*
X18073753Y-10565031D02*
X18083277Y-10536460D01*
X18083277Y-10536460D02*
X18092801Y-10488841D01*
X18092801Y-10488841D02*
X18092801Y-10450746D01*
X18092801Y-10450746D02*
X18083277Y-10403127D01*
X18083277Y-10403127D02*
X18073753Y-10374555D01*
X18073753Y-10374555D02*
X18064230Y-10355508D01*
X18064230Y-10355508D02*
X18045182Y-10326936D01*
X18045182Y-10326936D02*
X18035658Y-10317412D01*
D12*
X13362500Y-10688500D02*
X13422500Y-10748500D01*
X13422500Y-10688500D02*
X13362500Y-10748500D01*
X13422500Y-10718500D02*
G75*
G02*
X13362500Y-10718500I-30000J0D01*
G01*
X13362500Y-10718500D02*
G75*
G02*
X13422500Y-10718500I30000J0D01*
G01*
D11*
X13721372Y-10609984D02*
X13740420Y-10609984D01*
X13740420Y-10609984D02*
X13759467Y-10619508D01*
X13759467Y-10619508D02*
X13768991Y-10629031D01*
X13768991Y-10629031D02*
X13778515Y-10648079D01*
X13778515Y-10648079D02*
X13788039Y-10686174D01*
X13788039Y-10686174D02*
X13788039Y-10733793D01*
X13788039Y-10733793D02*
X13778515Y-10771889D01*
X13778515Y-10771889D02*
X13768991Y-10790936D01*
X13768991Y-10790936D02*
X13759467Y-10800460D01*
X13759467Y-10800460D02*
X13740420Y-10809984D01*
X13740420Y-10809984D02*
X13721372Y-10809984D01*
X13721372Y-10809984D02*
X13702324Y-10800460D01*
X13702324Y-10800460D02*
X13692801Y-10790936D01*
X13692801Y-10790936D02*
X13683277Y-10771889D01*
X13683277Y-10771889D02*
X13673753Y-10733793D01*
X13673753Y-10733793D02*
X13673753Y-10686174D01*
X13673753Y-10686174D02*
X13683277Y-10648079D01*
X13683277Y-10648079D02*
X13692801Y-10629031D01*
X13692801Y-10629031D02*
X13702324Y-10619508D01*
X13702324Y-10619508D02*
X13721372Y-10609984D01*
X13873753Y-10790936D02*
X13883277Y-10800460D01*
X13883277Y-10800460D02*
X13873753Y-10809984D01*
X13873753Y-10809984D02*
X13864229Y-10800460D01*
X13864229Y-10800460D02*
X13873753Y-10790936D01*
X13873753Y-10790936D02*
X13873753Y-10809984D01*
X14054705Y-10609984D02*
X14016610Y-10609984D01*
X14016610Y-10609984D02*
X13997562Y-10619508D01*
X13997562Y-10619508D02*
X13988039Y-10629031D01*
X13988039Y-10629031D02*
X13968991Y-10657603D01*
X13968991Y-10657603D02*
X13959467Y-10695698D01*
X13959467Y-10695698D02*
X13959467Y-10771889D01*
X13959467Y-10771889D02*
X13968991Y-10790936D01*
X13968991Y-10790936D02*
X13978515Y-10800460D01*
X13978515Y-10800460D02*
X13997562Y-10809984D01*
X13997562Y-10809984D02*
X14035658Y-10809984D01*
X14035658Y-10809984D02*
X14054705Y-10800460D01*
X14054705Y-10800460D02*
X14064229Y-10790936D01*
X14064229Y-10790936D02*
X14073753Y-10771889D01*
X14073753Y-10771889D02*
X14073753Y-10724270D01*
X14073753Y-10724270D02*
X14064229Y-10705222D01*
X14064229Y-10705222D02*
X14054705Y-10695698D01*
X14054705Y-10695698D02*
X14035658Y-10686174D01*
X14035658Y-10686174D02*
X13997562Y-10686174D01*
X13997562Y-10686174D02*
X13978515Y-10695698D01*
X13978515Y-10695698D02*
X13968991Y-10705222D01*
X13968991Y-10705222D02*
X13959467Y-10724270D01*
X14197562Y-10609984D02*
X14216610Y-10609984D01*
X14216610Y-10609984D02*
X14235658Y-10619508D01*
X14235658Y-10619508D02*
X14245182Y-10629031D01*
X14245182Y-10629031D02*
X14254705Y-10648079D01*
X14254705Y-10648079D02*
X14264229Y-10686174D01*
X14264229Y-10686174D02*
X14264229Y-10733793D01*
X14264229Y-10733793D02*
X14254705Y-10771889D01*
X14254705Y-10771889D02*
X14245182Y-10790936D01*
X14245182Y-10790936D02*
X14235658Y-10800460D01*
X14235658Y-10800460D02*
X14216610Y-10809984D01*
X14216610Y-10809984D02*
X14197562Y-10809984D01*
X14197562Y-10809984D02*
X14178515Y-10800460D01*
X14178515Y-10800460D02*
X14168991Y-10790936D01*
X14168991Y-10790936D02*
X14159467Y-10771889D01*
X14159467Y-10771889D02*
X14149943Y-10733793D01*
X14149943Y-10733793D02*
X14149943Y-10686174D01*
X14149943Y-10686174D02*
X14159467Y-10648079D01*
X14159467Y-10648079D02*
X14168991Y-10629031D01*
X14168991Y-10629031D02*
X14178515Y-10619508D01*
X14178515Y-10619508D02*
X14197562Y-10609984D01*
X14388039Y-10609984D02*
X14407086Y-10609984D01*
X14407086Y-10609984D02*
X14426134Y-10619508D01*
X14426134Y-10619508D02*
X14435658Y-10629031D01*
X14435658Y-10629031D02*
X14445182Y-10648079D01*
X14445182Y-10648079D02*
X14454705Y-10686174D01*
X14454705Y-10686174D02*
X14454705Y-10733793D01*
X14454705Y-10733793D02*
X14445182Y-10771889D01*
X14445182Y-10771889D02*
X14435658Y-10790936D01*
X14435658Y-10790936D02*
X14426134Y-10800460D01*
X14426134Y-10800460D02*
X14407086Y-10809984D01*
X14407086Y-10809984D02*
X14388039Y-10809984D01*
X14388039Y-10809984D02*
X14368991Y-10800460D01*
X14368991Y-10800460D02*
X14359467Y-10790936D01*
X14359467Y-10790936D02*
X14349943Y-10771889D01*
X14349943Y-10771889D02*
X14340420Y-10733793D01*
X14340420Y-10733793D02*
X14340420Y-10686174D01*
X14340420Y-10686174D02*
X14349943Y-10648079D01*
X14349943Y-10648079D02*
X14359467Y-10629031D01*
X14359467Y-10629031D02*
X14368991Y-10619508D01*
X14368991Y-10619508D02*
X14388039Y-10609984D01*
X14540420Y-10809984D02*
X14540420Y-10676650D01*
X14540420Y-10695698D02*
X14549943Y-10686174D01*
X14549943Y-10686174D02*
X14568991Y-10676650D01*
X14568991Y-10676650D02*
X14597563Y-10676650D01*
X14597563Y-10676650D02*
X14616610Y-10686174D01*
X14616610Y-10686174D02*
X14626134Y-10705222D01*
X14626134Y-10705222D02*
X14626134Y-10809984D01*
X14626134Y-10705222D02*
X14635658Y-10686174D01*
X14635658Y-10686174D02*
X14654705Y-10676650D01*
X14654705Y-10676650D02*
X14683277Y-10676650D01*
X14683277Y-10676650D02*
X14702324Y-10686174D01*
X14702324Y-10686174D02*
X14711848Y-10705222D01*
X14711848Y-10705222D02*
X14711848Y-10809984D01*
X14807086Y-10809984D02*
X14807086Y-10676650D01*
X14807086Y-10695698D02*
X14816610Y-10686174D01*
X14816610Y-10686174D02*
X14835658Y-10676650D01*
X14835658Y-10676650D02*
X14864229Y-10676650D01*
X14864229Y-10676650D02*
X14883277Y-10686174D01*
X14883277Y-10686174D02*
X14892801Y-10705222D01*
X14892801Y-10705222D02*
X14892801Y-10809984D01*
X14892801Y-10705222D02*
X14902324Y-10686174D01*
X14902324Y-10686174D02*
X14921372Y-10676650D01*
X14921372Y-10676650D02*
X14949943Y-10676650D01*
X14949943Y-10676650D02*
X14968991Y-10686174D01*
X14968991Y-10686174D02*
X14978515Y-10705222D01*
X14978515Y-10705222D02*
X14978515Y-10809984D01*
X15368991Y-10600460D02*
X15197563Y-10857603D01*
X15626134Y-10609984D02*
X15645182Y-10609984D01*
X15645182Y-10609984D02*
X15664229Y-10619508D01*
X15664229Y-10619508D02*
X15673753Y-10629031D01*
X15673753Y-10629031D02*
X15683277Y-10648079D01*
X15683277Y-10648079D02*
X15692801Y-10686174D01*
X15692801Y-10686174D02*
X15692801Y-10733793D01*
X15692801Y-10733793D02*
X15683277Y-10771889D01*
X15683277Y-10771889D02*
X15673753Y-10790936D01*
X15673753Y-10790936D02*
X15664229Y-10800460D01*
X15664229Y-10800460D02*
X15645182Y-10809984D01*
X15645182Y-10809984D02*
X15626134Y-10809984D01*
X15626134Y-10809984D02*
X15607086Y-10800460D01*
X15607086Y-10800460D02*
X15597563Y-10790936D01*
X15597563Y-10790936D02*
X15588039Y-10771889D01*
X15588039Y-10771889D02*
X15578515Y-10733793D01*
X15578515Y-10733793D02*
X15578515Y-10686174D01*
X15578515Y-10686174D02*
X15588039Y-10648079D01*
X15588039Y-10648079D02*
X15597563Y-10629031D01*
X15597563Y-10629031D02*
X15607086Y-10619508D01*
X15607086Y-10619508D02*
X15626134Y-10609984D01*
X15778515Y-10790936D02*
X15788039Y-10800460D01*
X15788039Y-10800460D02*
X15778515Y-10809984D01*
X15778515Y-10809984D02*
X15768991Y-10800460D01*
X15768991Y-10800460D02*
X15778515Y-10790936D01*
X15778515Y-10790936D02*
X15778515Y-10809984D01*
X15911848Y-10609984D02*
X15930896Y-10609984D01*
X15930896Y-10609984D02*
X15949944Y-10619508D01*
X15949944Y-10619508D02*
X15959467Y-10629031D01*
X15959467Y-10629031D02*
X15968991Y-10648079D01*
X15968991Y-10648079D02*
X15978515Y-10686174D01*
X15978515Y-10686174D02*
X15978515Y-10733793D01*
X15978515Y-10733793D02*
X15968991Y-10771889D01*
X15968991Y-10771889D02*
X15959467Y-10790936D01*
X15959467Y-10790936D02*
X15949944Y-10800460D01*
X15949944Y-10800460D02*
X15930896Y-10809984D01*
X15930896Y-10809984D02*
X15911848Y-10809984D01*
X15911848Y-10809984D02*
X15892801Y-10800460D01*
X15892801Y-10800460D02*
X15883277Y-10790936D01*
X15883277Y-10790936D02*
X15873753Y-10771889D01*
X15873753Y-10771889D02*
X15864229Y-10733793D01*
X15864229Y-10733793D02*
X15864229Y-10686174D01*
X15864229Y-10686174D02*
X15873753Y-10648079D01*
X15873753Y-10648079D02*
X15883277Y-10629031D01*
X15883277Y-10629031D02*
X15892801Y-10619508D01*
X15892801Y-10619508D02*
X15911848Y-10609984D01*
X16054706Y-10629031D02*
X16064229Y-10619508D01*
X16064229Y-10619508D02*
X16083277Y-10609984D01*
X16083277Y-10609984D02*
X16130896Y-10609984D01*
X16130896Y-10609984D02*
X16149944Y-10619508D01*
X16149944Y-10619508D02*
X16159467Y-10629031D01*
X16159467Y-10629031D02*
X16168991Y-10648079D01*
X16168991Y-10648079D02*
X16168991Y-10667127D01*
X16168991Y-10667127D02*
X16159467Y-10695698D01*
X16159467Y-10695698D02*
X16045182Y-10809984D01*
X16045182Y-10809984D02*
X16168991Y-10809984D01*
X16235658Y-10609984D02*
X16359467Y-10609984D01*
X16359467Y-10609984D02*
X16292801Y-10686174D01*
X16292801Y-10686174D02*
X16321372Y-10686174D01*
X16321372Y-10686174D02*
X16340420Y-10695698D01*
X16340420Y-10695698D02*
X16349944Y-10705222D01*
X16349944Y-10705222D02*
X16359467Y-10724270D01*
X16359467Y-10724270D02*
X16359467Y-10771889D01*
X16359467Y-10771889D02*
X16349944Y-10790936D01*
X16349944Y-10790936D02*
X16340420Y-10800460D01*
X16340420Y-10800460D02*
X16321372Y-10809984D01*
X16321372Y-10809984D02*
X16264229Y-10809984D01*
X16264229Y-10809984D02*
X16245182Y-10800460D01*
X16245182Y-10800460D02*
X16235658Y-10790936D01*
X16530896Y-10609984D02*
X16492801Y-10609984D01*
X16492801Y-10609984D02*
X16473753Y-10619508D01*
X16473753Y-10619508D02*
X16464229Y-10629031D01*
X16464229Y-10629031D02*
X16445182Y-10657603D01*
X16445182Y-10657603D02*
X16435658Y-10695698D01*
X16435658Y-10695698D02*
X16435658Y-10771889D01*
X16435658Y-10771889D02*
X16445182Y-10790936D01*
X16445182Y-10790936D02*
X16454706Y-10800460D01*
X16454706Y-10800460D02*
X16473753Y-10809984D01*
X16473753Y-10809984D02*
X16511848Y-10809984D01*
X16511848Y-10809984D02*
X16530896Y-10800460D01*
X16530896Y-10800460D02*
X16540420Y-10790936D01*
X16540420Y-10790936D02*
X16549944Y-10771889D01*
X16549944Y-10771889D02*
X16549944Y-10724270D01*
X16549944Y-10724270D02*
X16540420Y-10705222D01*
X16540420Y-10705222D02*
X16530896Y-10695698D01*
X16530896Y-10695698D02*
X16511848Y-10686174D01*
X16511848Y-10686174D02*
X16473753Y-10686174D01*
X16473753Y-10686174D02*
X16454706Y-10695698D01*
X16454706Y-10695698D02*
X16445182Y-10705222D01*
X16445182Y-10705222D02*
X16435658Y-10724270D01*
X16626134Y-10609984D02*
X16626134Y-10648079D01*
X16702325Y-10609984D02*
X16702325Y-10648079D01*
X16997563Y-10886174D02*
X16988039Y-10876650D01*
X16988039Y-10876650D02*
X16968991Y-10848079D01*
X16968991Y-10848079D02*
X16959468Y-10829031D01*
X16959468Y-10829031D02*
X16949944Y-10800460D01*
X16949944Y-10800460D02*
X16940420Y-10752841D01*
X16940420Y-10752841D02*
X16940420Y-10714746D01*
X16940420Y-10714746D02*
X16949944Y-10667127D01*
X16949944Y-10667127D02*
X16959468Y-10638555D01*
X16959468Y-10638555D02*
X16968991Y-10619508D01*
X16968991Y-10619508D02*
X16988039Y-10590936D01*
X16988039Y-10590936D02*
X16997563Y-10581412D01*
X17111849Y-10609984D02*
X17130896Y-10609984D01*
X17130896Y-10609984D02*
X17149944Y-10619508D01*
X17149944Y-10619508D02*
X17159468Y-10629031D01*
X17159468Y-10629031D02*
X17168991Y-10648079D01*
X17168991Y-10648079D02*
X17178515Y-10686174D01*
X17178515Y-10686174D02*
X17178515Y-10733793D01*
X17178515Y-10733793D02*
X17168991Y-10771889D01*
X17168991Y-10771889D02*
X17159468Y-10790936D01*
X17159468Y-10790936D02*
X17149944Y-10800460D01*
X17149944Y-10800460D02*
X17130896Y-10809984D01*
X17130896Y-10809984D02*
X17111849Y-10809984D01*
X17111849Y-10809984D02*
X17092801Y-10800460D01*
X17092801Y-10800460D02*
X17083277Y-10790936D01*
X17083277Y-10790936D02*
X17073753Y-10771889D01*
X17073753Y-10771889D02*
X17064230Y-10733793D01*
X17064230Y-10733793D02*
X17064230Y-10686174D01*
X17064230Y-10686174D02*
X17073753Y-10648079D01*
X17073753Y-10648079D02*
X17083277Y-10629031D01*
X17083277Y-10629031D02*
X17092801Y-10619508D01*
X17092801Y-10619508D02*
X17111849Y-10609984D01*
X17416611Y-10809984D02*
X17416611Y-10609984D01*
X17502325Y-10809984D02*
X17502325Y-10705222D01*
X17502325Y-10705222D02*
X17492801Y-10686174D01*
X17492801Y-10686174D02*
X17473753Y-10676650D01*
X17473753Y-10676650D02*
X17445182Y-10676650D01*
X17445182Y-10676650D02*
X17426134Y-10686174D01*
X17426134Y-10686174D02*
X17416611Y-10695698D01*
X17626134Y-10809984D02*
X17607087Y-10800460D01*
X17607087Y-10800460D02*
X17597563Y-10790936D01*
X17597563Y-10790936D02*
X17588039Y-10771889D01*
X17588039Y-10771889D02*
X17588039Y-10714746D01*
X17588039Y-10714746D02*
X17597563Y-10695698D01*
X17597563Y-10695698D02*
X17607087Y-10686174D01*
X17607087Y-10686174D02*
X17626134Y-10676650D01*
X17626134Y-10676650D02*
X17654706Y-10676650D01*
X17654706Y-10676650D02*
X17673753Y-10686174D01*
X17673753Y-10686174D02*
X17683277Y-10695698D01*
X17683277Y-10695698D02*
X17692801Y-10714746D01*
X17692801Y-10714746D02*
X17692801Y-10771889D01*
X17692801Y-10771889D02*
X17683277Y-10790936D01*
X17683277Y-10790936D02*
X17673753Y-10800460D01*
X17673753Y-10800460D02*
X17654706Y-10809984D01*
X17654706Y-10809984D02*
X17626134Y-10809984D01*
X17807087Y-10809984D02*
X17788039Y-10800460D01*
X17788039Y-10800460D02*
X17778515Y-10781412D01*
X17778515Y-10781412D02*
X17778515Y-10609984D01*
X17959468Y-10800460D02*
X17940420Y-10809984D01*
X17940420Y-10809984D02*
X17902325Y-10809984D01*
X17902325Y-10809984D02*
X17883277Y-10800460D01*
X17883277Y-10800460D02*
X17873753Y-10781412D01*
X17873753Y-10781412D02*
X17873753Y-10705222D01*
X17873753Y-10705222D02*
X17883277Y-10686174D01*
X17883277Y-10686174D02*
X17902325Y-10676650D01*
X17902325Y-10676650D02*
X17940420Y-10676650D01*
X17940420Y-10676650D02*
X17959468Y-10686174D01*
X17959468Y-10686174D02*
X17968992Y-10705222D01*
X17968992Y-10705222D02*
X17968992Y-10724270D01*
X17968992Y-10724270D02*
X17873753Y-10743317D01*
X18045182Y-10800460D02*
X18064230Y-10809984D01*
X18064230Y-10809984D02*
X18102325Y-10809984D01*
X18102325Y-10809984D02*
X18121373Y-10800460D01*
X18121373Y-10800460D02*
X18130896Y-10781412D01*
X18130896Y-10781412D02*
X18130896Y-10771889D01*
X18130896Y-10771889D02*
X18121373Y-10752841D01*
X18121373Y-10752841D02*
X18102325Y-10743317D01*
X18102325Y-10743317D02*
X18073753Y-10743317D01*
X18073753Y-10743317D02*
X18054706Y-10733793D01*
X18054706Y-10733793D02*
X18045182Y-10714746D01*
X18045182Y-10714746D02*
X18045182Y-10705222D01*
X18045182Y-10705222D02*
X18054706Y-10686174D01*
X18054706Y-10686174D02*
X18073753Y-10676650D01*
X18073753Y-10676650D02*
X18102325Y-10676650D01*
X18102325Y-10676650D02*
X18121373Y-10686174D01*
X18368992Y-10733793D02*
X18521373Y-10733793D01*
X18445182Y-10809984D02*
X18445182Y-10657603D01*
X18854706Y-10676650D02*
X18854706Y-10809984D01*
X18807087Y-10600460D02*
X18759468Y-10743317D01*
X18759468Y-10743317D02*
X18883277Y-10743317D01*
X19102325Y-10800460D02*
X19121373Y-10809984D01*
X19121373Y-10809984D02*
X19159468Y-10809984D01*
X19159468Y-10809984D02*
X19178516Y-10800460D01*
X19178516Y-10800460D02*
X19188039Y-10781412D01*
X19188039Y-10781412D02*
X19188039Y-10771889D01*
X19188039Y-10771889D02*
X19178516Y-10752841D01*
X19178516Y-10752841D02*
X19159468Y-10743317D01*
X19159468Y-10743317D02*
X19130896Y-10743317D01*
X19130896Y-10743317D02*
X19111849Y-10733793D01*
X19111849Y-10733793D02*
X19102325Y-10714746D01*
X19102325Y-10714746D02*
X19102325Y-10705222D01*
X19102325Y-10705222D02*
X19111849Y-10686174D01*
X19111849Y-10686174D02*
X19130896Y-10676650D01*
X19130896Y-10676650D02*
X19159468Y-10676650D01*
X19159468Y-10676650D02*
X19178516Y-10686174D01*
X19302325Y-10809984D02*
X19283277Y-10800460D01*
X19283277Y-10800460D02*
X19273754Y-10781412D01*
X19273754Y-10781412D02*
X19273754Y-10609984D01*
X19407087Y-10809984D02*
X19388039Y-10800460D01*
X19388039Y-10800460D02*
X19378516Y-10790936D01*
X19378516Y-10790936D02*
X19368992Y-10771889D01*
X19368992Y-10771889D02*
X19368992Y-10714746D01*
X19368992Y-10714746D02*
X19378516Y-10695698D01*
X19378516Y-10695698D02*
X19388039Y-10686174D01*
X19388039Y-10686174D02*
X19407087Y-10676650D01*
X19407087Y-10676650D02*
X19435658Y-10676650D01*
X19435658Y-10676650D02*
X19454706Y-10686174D01*
X19454706Y-10686174D02*
X19464230Y-10695698D01*
X19464230Y-10695698D02*
X19473754Y-10714746D01*
X19473754Y-10714746D02*
X19473754Y-10771889D01*
X19473754Y-10771889D02*
X19464230Y-10790936D01*
X19464230Y-10790936D02*
X19454706Y-10800460D01*
X19454706Y-10800460D02*
X19435658Y-10809984D01*
X19435658Y-10809984D02*
X19407087Y-10809984D01*
X19530897Y-10676650D02*
X19607087Y-10676650D01*
X19559468Y-10609984D02*
X19559468Y-10781412D01*
X19559468Y-10781412D02*
X19568992Y-10800460D01*
X19568992Y-10800460D02*
X19588039Y-10809984D01*
X19588039Y-10809984D02*
X19607087Y-10809984D01*
X19664230Y-10800460D02*
X19683277Y-10809984D01*
X19683277Y-10809984D02*
X19721373Y-10809984D01*
X19721373Y-10809984D02*
X19740420Y-10800460D01*
X19740420Y-10800460D02*
X19749944Y-10781412D01*
X19749944Y-10781412D02*
X19749944Y-10771889D01*
X19749944Y-10771889D02*
X19740420Y-10752841D01*
X19740420Y-10752841D02*
X19721373Y-10743317D01*
X19721373Y-10743317D02*
X19692801Y-10743317D01*
X19692801Y-10743317D02*
X19673754Y-10733793D01*
X19673754Y-10733793D02*
X19664230Y-10714746D01*
X19664230Y-10714746D02*
X19664230Y-10705222D01*
X19664230Y-10705222D02*
X19673754Y-10686174D01*
X19673754Y-10686174D02*
X19692801Y-10676650D01*
X19692801Y-10676650D02*
X19721373Y-10676650D01*
X19721373Y-10676650D02*
X19740420Y-10686174D01*
X19816611Y-10886174D02*
X19826135Y-10876650D01*
X19826135Y-10876650D02*
X19845182Y-10848079D01*
X19845182Y-10848079D02*
X19854706Y-10829031D01*
X19854706Y-10829031D02*
X19864230Y-10800460D01*
X19864230Y-10800460D02*
X19873754Y-10752841D01*
X19873754Y-10752841D02*
X19873754Y-10714746D01*
X19873754Y-10714746D02*
X19864230Y-10667127D01*
X19864230Y-10667127D02*
X19854706Y-10638555D01*
X19854706Y-10638555D02*
X19845182Y-10619508D01*
X19845182Y-10619508D02*
X19826135Y-10590936D01*
X19826135Y-10590936D02*
X19816611Y-10581412D01*
D12*
X13322500Y-10932500D02*
X13422500Y-11032500D01*
X13422500Y-10932500D02*
X13322500Y-11032500D01*
X13372500Y-10932500D02*
X13372500Y-11032500D01*
X13322500Y-10982500D02*
X13422500Y-10982500D01*
D11*
X13788039Y-11073984D02*
X13673753Y-11073984D01*
X13730896Y-11073984D02*
X13730896Y-10873984D01*
X13730896Y-10873984D02*
X13711848Y-10902555D01*
X13711848Y-10902555D02*
X13692801Y-10921603D01*
X13692801Y-10921603D02*
X13673753Y-10931127D01*
X13873753Y-11054936D02*
X13883277Y-11064460D01*
X13883277Y-11064460D02*
X13873753Y-11073984D01*
X13873753Y-11073984D02*
X13864229Y-11064460D01*
X13864229Y-11064460D02*
X13873753Y-11054936D01*
X13873753Y-11054936D02*
X13873753Y-11073984D01*
X14007086Y-10873984D02*
X14026134Y-10873984D01*
X14026134Y-10873984D02*
X14045182Y-10883508D01*
X14045182Y-10883508D02*
X14054705Y-10893031D01*
X14054705Y-10893031D02*
X14064229Y-10912079D01*
X14064229Y-10912079D02*
X14073753Y-10950174D01*
X14073753Y-10950174D02*
X14073753Y-10997793D01*
X14073753Y-10997793D02*
X14064229Y-11035889D01*
X14064229Y-11035889D02*
X14054705Y-11054936D01*
X14054705Y-11054936D02*
X14045182Y-11064460D01*
X14045182Y-11064460D02*
X14026134Y-11073984D01*
X14026134Y-11073984D02*
X14007086Y-11073984D01*
X14007086Y-11073984D02*
X13988039Y-11064460D01*
X13988039Y-11064460D02*
X13978515Y-11054936D01*
X13978515Y-11054936D02*
X13968991Y-11035889D01*
X13968991Y-11035889D02*
X13959467Y-10997793D01*
X13959467Y-10997793D02*
X13959467Y-10950174D01*
X13959467Y-10950174D02*
X13968991Y-10912079D01*
X13968991Y-10912079D02*
X13978515Y-10893031D01*
X13978515Y-10893031D02*
X13988039Y-10883508D01*
X13988039Y-10883508D02*
X14007086Y-10873984D01*
X14197562Y-10873984D02*
X14216610Y-10873984D01*
X14216610Y-10873984D02*
X14235658Y-10883508D01*
X14235658Y-10883508D02*
X14245182Y-10893031D01*
X14245182Y-10893031D02*
X14254705Y-10912079D01*
X14254705Y-10912079D02*
X14264229Y-10950174D01*
X14264229Y-10950174D02*
X14264229Y-10997793D01*
X14264229Y-10997793D02*
X14254705Y-11035889D01*
X14254705Y-11035889D02*
X14245182Y-11054936D01*
X14245182Y-11054936D02*
X14235658Y-11064460D01*
X14235658Y-11064460D02*
X14216610Y-11073984D01*
X14216610Y-11073984D02*
X14197562Y-11073984D01*
X14197562Y-11073984D02*
X14178515Y-11064460D01*
X14178515Y-11064460D02*
X14168991Y-11054936D01*
X14168991Y-11054936D02*
X14159467Y-11035889D01*
X14159467Y-11035889D02*
X14149943Y-10997793D01*
X14149943Y-10997793D02*
X14149943Y-10950174D01*
X14149943Y-10950174D02*
X14159467Y-10912079D01*
X14159467Y-10912079D02*
X14168991Y-10893031D01*
X14168991Y-10893031D02*
X14178515Y-10883508D01*
X14178515Y-10883508D02*
X14197562Y-10873984D01*
X14388039Y-10873984D02*
X14407086Y-10873984D01*
X14407086Y-10873984D02*
X14426134Y-10883508D01*
X14426134Y-10883508D02*
X14435658Y-10893031D01*
X14435658Y-10893031D02*
X14445182Y-10912079D01*
X14445182Y-10912079D02*
X14454705Y-10950174D01*
X14454705Y-10950174D02*
X14454705Y-10997793D01*
X14454705Y-10997793D02*
X14445182Y-11035889D01*
X14445182Y-11035889D02*
X14435658Y-11054936D01*
X14435658Y-11054936D02*
X14426134Y-11064460D01*
X14426134Y-11064460D02*
X14407086Y-11073984D01*
X14407086Y-11073984D02*
X14388039Y-11073984D01*
X14388039Y-11073984D02*
X14368991Y-11064460D01*
X14368991Y-11064460D02*
X14359467Y-11054936D01*
X14359467Y-11054936D02*
X14349943Y-11035889D01*
X14349943Y-11035889D02*
X14340420Y-10997793D01*
X14340420Y-10997793D02*
X14340420Y-10950174D01*
X14340420Y-10950174D02*
X14349943Y-10912079D01*
X14349943Y-10912079D02*
X14359467Y-10893031D01*
X14359467Y-10893031D02*
X14368991Y-10883508D01*
X14368991Y-10883508D02*
X14388039Y-10873984D01*
X14540420Y-11073984D02*
X14540420Y-10940650D01*
X14540420Y-10959698D02*
X14549943Y-10950174D01*
X14549943Y-10950174D02*
X14568991Y-10940650D01*
X14568991Y-10940650D02*
X14597563Y-10940650D01*
X14597563Y-10940650D02*
X14616610Y-10950174D01*
X14616610Y-10950174D02*
X14626134Y-10969222D01*
X14626134Y-10969222D02*
X14626134Y-11073984D01*
X14626134Y-10969222D02*
X14635658Y-10950174D01*
X14635658Y-10950174D02*
X14654705Y-10940650D01*
X14654705Y-10940650D02*
X14683277Y-10940650D01*
X14683277Y-10940650D02*
X14702324Y-10950174D01*
X14702324Y-10950174D02*
X14711848Y-10969222D01*
X14711848Y-10969222D02*
X14711848Y-11073984D01*
X14807086Y-11073984D02*
X14807086Y-10940650D01*
X14807086Y-10959698D02*
X14816610Y-10950174D01*
X14816610Y-10950174D02*
X14835658Y-10940650D01*
X14835658Y-10940650D02*
X14864229Y-10940650D01*
X14864229Y-10940650D02*
X14883277Y-10950174D01*
X14883277Y-10950174D02*
X14892801Y-10969222D01*
X14892801Y-10969222D02*
X14892801Y-11073984D01*
X14892801Y-10969222D02*
X14902324Y-10950174D01*
X14902324Y-10950174D02*
X14921372Y-10940650D01*
X14921372Y-10940650D02*
X14949943Y-10940650D01*
X14949943Y-10940650D02*
X14968991Y-10950174D01*
X14968991Y-10950174D02*
X14978515Y-10969222D01*
X14978515Y-10969222D02*
X14978515Y-11073984D01*
X15368991Y-10864460D02*
X15197563Y-11121603D01*
X15626134Y-10873984D02*
X15645182Y-10873984D01*
X15645182Y-10873984D02*
X15664229Y-10883508D01*
X15664229Y-10883508D02*
X15673753Y-10893031D01*
X15673753Y-10893031D02*
X15683277Y-10912079D01*
X15683277Y-10912079D02*
X15692801Y-10950174D01*
X15692801Y-10950174D02*
X15692801Y-10997793D01*
X15692801Y-10997793D02*
X15683277Y-11035889D01*
X15683277Y-11035889D02*
X15673753Y-11054936D01*
X15673753Y-11054936D02*
X15664229Y-11064460D01*
X15664229Y-11064460D02*
X15645182Y-11073984D01*
X15645182Y-11073984D02*
X15626134Y-11073984D01*
X15626134Y-11073984D02*
X15607086Y-11064460D01*
X15607086Y-11064460D02*
X15597563Y-11054936D01*
X15597563Y-11054936D02*
X15588039Y-11035889D01*
X15588039Y-11035889D02*
X15578515Y-10997793D01*
X15578515Y-10997793D02*
X15578515Y-10950174D01*
X15578515Y-10950174D02*
X15588039Y-10912079D01*
X15588039Y-10912079D02*
X15597563Y-10893031D01*
X15597563Y-10893031D02*
X15607086Y-10883508D01*
X15607086Y-10883508D02*
X15626134Y-10873984D01*
X15778515Y-11054936D02*
X15788039Y-11064460D01*
X15788039Y-11064460D02*
X15778515Y-11073984D01*
X15778515Y-11073984D02*
X15768991Y-11064460D01*
X15768991Y-11064460D02*
X15778515Y-11054936D01*
X15778515Y-11054936D02*
X15778515Y-11073984D01*
X15911848Y-10873984D02*
X15930896Y-10873984D01*
X15930896Y-10873984D02*
X15949944Y-10883508D01*
X15949944Y-10883508D02*
X15959467Y-10893031D01*
X15959467Y-10893031D02*
X15968991Y-10912079D01*
X15968991Y-10912079D02*
X15978515Y-10950174D01*
X15978515Y-10950174D02*
X15978515Y-10997793D01*
X15978515Y-10997793D02*
X15968991Y-11035889D01*
X15968991Y-11035889D02*
X15959467Y-11054936D01*
X15959467Y-11054936D02*
X15949944Y-11064460D01*
X15949944Y-11064460D02*
X15930896Y-11073984D01*
X15930896Y-11073984D02*
X15911848Y-11073984D01*
X15911848Y-11073984D02*
X15892801Y-11064460D01*
X15892801Y-11064460D02*
X15883277Y-11054936D01*
X15883277Y-11054936D02*
X15873753Y-11035889D01*
X15873753Y-11035889D02*
X15864229Y-10997793D01*
X15864229Y-10997793D02*
X15864229Y-10950174D01*
X15864229Y-10950174D02*
X15873753Y-10912079D01*
X15873753Y-10912079D02*
X15883277Y-10893031D01*
X15883277Y-10893031D02*
X15892801Y-10883508D01*
X15892801Y-10883508D02*
X15911848Y-10873984D01*
X16045182Y-10873984D02*
X16168991Y-10873984D01*
X16168991Y-10873984D02*
X16102325Y-10950174D01*
X16102325Y-10950174D02*
X16130896Y-10950174D01*
X16130896Y-10950174D02*
X16149944Y-10959698D01*
X16149944Y-10959698D02*
X16159467Y-10969222D01*
X16159467Y-10969222D02*
X16168991Y-10988270D01*
X16168991Y-10988270D02*
X16168991Y-11035889D01*
X16168991Y-11035889D02*
X16159467Y-11054936D01*
X16159467Y-11054936D02*
X16149944Y-11064460D01*
X16149944Y-11064460D02*
X16130896Y-11073984D01*
X16130896Y-11073984D02*
X16073753Y-11073984D01*
X16073753Y-11073984D02*
X16054706Y-11064460D01*
X16054706Y-11064460D02*
X16045182Y-11054936D01*
X16264229Y-11073984D02*
X16302325Y-11073984D01*
X16302325Y-11073984D02*
X16321372Y-11064460D01*
X16321372Y-11064460D02*
X16330896Y-11054936D01*
X16330896Y-11054936D02*
X16349944Y-11026365D01*
X16349944Y-11026365D02*
X16359467Y-10988270D01*
X16359467Y-10988270D02*
X16359467Y-10912079D01*
X16359467Y-10912079D02*
X16349944Y-10893031D01*
X16349944Y-10893031D02*
X16340420Y-10883508D01*
X16340420Y-10883508D02*
X16321372Y-10873984D01*
X16321372Y-10873984D02*
X16283277Y-10873984D01*
X16283277Y-10873984D02*
X16264229Y-10883508D01*
X16264229Y-10883508D02*
X16254706Y-10893031D01*
X16254706Y-10893031D02*
X16245182Y-10912079D01*
X16245182Y-10912079D02*
X16245182Y-10959698D01*
X16245182Y-10959698D02*
X16254706Y-10978746D01*
X16254706Y-10978746D02*
X16264229Y-10988270D01*
X16264229Y-10988270D02*
X16283277Y-10997793D01*
X16283277Y-10997793D02*
X16321372Y-10997793D01*
X16321372Y-10997793D02*
X16340420Y-10988270D01*
X16340420Y-10988270D02*
X16349944Y-10978746D01*
X16349944Y-10978746D02*
X16359467Y-10959698D01*
X16530896Y-10940650D02*
X16530896Y-11073984D01*
X16483277Y-10864460D02*
X16435658Y-11007317D01*
X16435658Y-11007317D02*
X16559467Y-11007317D01*
X16626134Y-10873984D02*
X16626134Y-10912079D01*
X16702325Y-10873984D02*
X16702325Y-10912079D01*
X16997563Y-11150174D02*
X16988039Y-11140650D01*
X16988039Y-11140650D02*
X16968991Y-11112079D01*
X16968991Y-11112079D02*
X16959468Y-11093031D01*
X16959468Y-11093031D02*
X16949944Y-11064460D01*
X16949944Y-11064460D02*
X16940420Y-11016841D01*
X16940420Y-11016841D02*
X16940420Y-10978746D01*
X16940420Y-10978746D02*
X16949944Y-10931127D01*
X16949944Y-10931127D02*
X16959468Y-10902555D01*
X16959468Y-10902555D02*
X16968991Y-10883508D01*
X16968991Y-10883508D02*
X16988039Y-10854936D01*
X16988039Y-10854936D02*
X16997563Y-10845412D01*
X17159468Y-10940650D02*
X17159468Y-11073984D01*
X17111849Y-10864460D02*
X17064230Y-11007317D01*
X17064230Y-11007317D02*
X17188039Y-11007317D01*
X17349944Y-10940650D02*
X17349944Y-11073984D01*
X17302325Y-10864460D02*
X17254706Y-11007317D01*
X17254706Y-11007317D02*
X17378515Y-11007317D01*
X17607087Y-11073984D02*
X17607087Y-10873984D01*
X17692801Y-11073984D02*
X17692801Y-10969222D01*
X17692801Y-10969222D02*
X17683277Y-10950174D01*
X17683277Y-10950174D02*
X17664230Y-10940650D01*
X17664230Y-10940650D02*
X17635658Y-10940650D01*
X17635658Y-10940650D02*
X17616611Y-10950174D01*
X17616611Y-10950174D02*
X17607087Y-10959698D01*
X17816611Y-11073984D02*
X17797563Y-11064460D01*
X17797563Y-11064460D02*
X17788039Y-11054936D01*
X17788039Y-11054936D02*
X17778515Y-11035889D01*
X17778515Y-11035889D02*
X17778515Y-10978746D01*
X17778515Y-10978746D02*
X17788039Y-10959698D01*
X17788039Y-10959698D02*
X17797563Y-10950174D01*
X17797563Y-10950174D02*
X17816611Y-10940650D01*
X17816611Y-10940650D02*
X17845182Y-10940650D01*
X17845182Y-10940650D02*
X17864230Y-10950174D01*
X17864230Y-10950174D02*
X17873753Y-10959698D01*
X17873753Y-10959698D02*
X17883277Y-10978746D01*
X17883277Y-10978746D02*
X17883277Y-11035889D01*
X17883277Y-11035889D02*
X17873753Y-11054936D01*
X17873753Y-11054936D02*
X17864230Y-11064460D01*
X17864230Y-11064460D02*
X17845182Y-11073984D01*
X17845182Y-11073984D02*
X17816611Y-11073984D01*
X17997563Y-11073984D02*
X17978515Y-11064460D01*
X17978515Y-11064460D02*
X17968992Y-11045412D01*
X17968992Y-11045412D02*
X17968992Y-10873984D01*
X18149944Y-11064460D02*
X18130896Y-11073984D01*
X18130896Y-11073984D02*
X18092801Y-11073984D01*
X18092801Y-11073984D02*
X18073753Y-11064460D01*
X18073753Y-11064460D02*
X18064230Y-11045412D01*
X18064230Y-11045412D02*
X18064230Y-10969222D01*
X18064230Y-10969222D02*
X18073753Y-10950174D01*
X18073753Y-10950174D02*
X18092801Y-10940650D01*
X18092801Y-10940650D02*
X18130896Y-10940650D01*
X18130896Y-10940650D02*
X18149944Y-10950174D01*
X18149944Y-10950174D02*
X18159468Y-10969222D01*
X18159468Y-10969222D02*
X18159468Y-10988270D01*
X18159468Y-10988270D02*
X18064230Y-11007317D01*
X18235658Y-11064460D02*
X18254706Y-11073984D01*
X18254706Y-11073984D02*
X18292801Y-11073984D01*
X18292801Y-11073984D02*
X18311849Y-11064460D01*
X18311849Y-11064460D02*
X18321373Y-11045412D01*
X18321373Y-11045412D02*
X18321373Y-11035889D01*
X18321373Y-11035889D02*
X18311849Y-11016841D01*
X18311849Y-11016841D02*
X18292801Y-11007317D01*
X18292801Y-11007317D02*
X18264230Y-11007317D01*
X18264230Y-11007317D02*
X18245182Y-10997793D01*
X18245182Y-10997793D02*
X18235658Y-10978746D01*
X18235658Y-10978746D02*
X18235658Y-10969222D01*
X18235658Y-10969222D02*
X18245182Y-10950174D01*
X18245182Y-10950174D02*
X18264230Y-10940650D01*
X18264230Y-10940650D02*
X18292801Y-10940650D01*
X18292801Y-10940650D02*
X18311849Y-10950174D01*
X18388039Y-11150174D02*
X18397563Y-11140650D01*
X18397563Y-11140650D02*
X18416611Y-11112079D01*
X18416611Y-11112079D02*
X18426134Y-11093031D01*
X18426134Y-11093031D02*
X18435658Y-11064460D01*
X18435658Y-11064460D02*
X18445182Y-11016841D01*
X18445182Y-11016841D02*
X18445182Y-10978746D01*
X18445182Y-10978746D02*
X18435658Y-10931127D01*
X18435658Y-10931127D02*
X18426134Y-10902555D01*
X18426134Y-10902555D02*
X18416611Y-10883508D01*
X18416611Y-10883508D02*
X18397563Y-10854936D01*
X18397563Y-10854936D02*
X18388039Y-10845412D01*
D13*
X13317500Y-11194000D02*
X13422500Y-11299000D01*
X13422500Y-11194000D02*
X13317500Y-11299000D01*
X13407123Y-11283623D02*
X13407123Y-11209376D01*
X13332876Y-11209376D01*
X13332876Y-11283623D01*
X13407123Y-11283623D01*
D11*
X13788039Y-11337984D02*
X13673753Y-11337984D01*
X13730896Y-11337984D02*
X13730896Y-11137984D01*
X13730896Y-11137984D02*
X13711848Y-11166555D01*
X13711848Y-11166555D02*
X13692801Y-11185603D01*
X13692801Y-11185603D02*
X13673753Y-11195127D01*
X13873753Y-11318936D02*
X13883277Y-11328460D01*
X13883277Y-11328460D02*
X13873753Y-11337984D01*
X13873753Y-11337984D02*
X13864229Y-11328460D01*
X13864229Y-11328460D02*
X13873753Y-11318936D01*
X13873753Y-11318936D02*
X13873753Y-11337984D01*
X14007086Y-11137984D02*
X14026134Y-11137984D01*
X14026134Y-11137984D02*
X14045182Y-11147508D01*
X14045182Y-11147508D02*
X14054705Y-11157031D01*
X14054705Y-11157031D02*
X14064229Y-11176079D01*
X14064229Y-11176079D02*
X14073753Y-11214174D01*
X14073753Y-11214174D02*
X14073753Y-11261793D01*
X14073753Y-11261793D02*
X14064229Y-11299888D01*
X14064229Y-11299888D02*
X14054705Y-11318936D01*
X14054705Y-11318936D02*
X14045182Y-11328460D01*
X14045182Y-11328460D02*
X14026134Y-11337984D01*
X14026134Y-11337984D02*
X14007086Y-11337984D01*
X14007086Y-11337984D02*
X13988039Y-11328460D01*
X13988039Y-11328460D02*
X13978515Y-11318936D01*
X13978515Y-11318936D02*
X13968991Y-11299888D01*
X13968991Y-11299888D02*
X13959467Y-11261793D01*
X13959467Y-11261793D02*
X13959467Y-11214174D01*
X13959467Y-11214174D02*
X13968991Y-11176079D01*
X13968991Y-11176079D02*
X13978515Y-11157031D01*
X13978515Y-11157031D02*
X13988039Y-11147508D01*
X13988039Y-11147508D02*
X14007086Y-11137984D01*
X14254705Y-11137984D02*
X14159467Y-11137984D01*
X14159467Y-11137984D02*
X14149943Y-11233222D01*
X14149943Y-11233222D02*
X14159467Y-11223698D01*
X14159467Y-11223698D02*
X14178515Y-11214174D01*
X14178515Y-11214174D02*
X14226134Y-11214174D01*
X14226134Y-11214174D02*
X14245182Y-11223698D01*
X14245182Y-11223698D02*
X14254705Y-11233222D01*
X14254705Y-11233222D02*
X14264229Y-11252269D01*
X14264229Y-11252269D02*
X14264229Y-11299888D01*
X14264229Y-11299888D02*
X14254705Y-11318936D01*
X14254705Y-11318936D02*
X14245182Y-11328460D01*
X14245182Y-11328460D02*
X14226134Y-11337984D01*
X14226134Y-11337984D02*
X14178515Y-11337984D01*
X14178515Y-11337984D02*
X14159467Y-11328460D01*
X14159467Y-11328460D02*
X14149943Y-11318936D01*
X14388039Y-11137984D02*
X14407086Y-11137984D01*
X14407086Y-11137984D02*
X14426134Y-11147508D01*
X14426134Y-11147508D02*
X14435658Y-11157031D01*
X14435658Y-11157031D02*
X14445182Y-11176079D01*
X14445182Y-11176079D02*
X14454705Y-11214174D01*
X14454705Y-11214174D02*
X14454705Y-11261793D01*
X14454705Y-11261793D02*
X14445182Y-11299888D01*
X14445182Y-11299888D02*
X14435658Y-11318936D01*
X14435658Y-11318936D02*
X14426134Y-11328460D01*
X14426134Y-11328460D02*
X14407086Y-11337984D01*
X14407086Y-11337984D02*
X14388039Y-11337984D01*
X14388039Y-11337984D02*
X14368991Y-11328460D01*
X14368991Y-11328460D02*
X14359467Y-11318936D01*
X14359467Y-11318936D02*
X14349943Y-11299888D01*
X14349943Y-11299888D02*
X14340420Y-11261793D01*
X14340420Y-11261793D02*
X14340420Y-11214174D01*
X14340420Y-11214174D02*
X14349943Y-11176079D01*
X14349943Y-11176079D02*
X14359467Y-11157031D01*
X14359467Y-11157031D02*
X14368991Y-11147508D01*
X14368991Y-11147508D02*
X14388039Y-11137984D01*
X14540420Y-11337984D02*
X14540420Y-11204650D01*
X14540420Y-11223698D02*
X14549943Y-11214174D01*
X14549943Y-11214174D02*
X14568991Y-11204650D01*
X14568991Y-11204650D02*
X14597563Y-11204650D01*
X14597563Y-11204650D02*
X14616610Y-11214174D01*
X14616610Y-11214174D02*
X14626134Y-11233222D01*
X14626134Y-11233222D02*
X14626134Y-11337984D01*
X14626134Y-11233222D02*
X14635658Y-11214174D01*
X14635658Y-11214174D02*
X14654705Y-11204650D01*
X14654705Y-11204650D02*
X14683277Y-11204650D01*
X14683277Y-11204650D02*
X14702324Y-11214174D01*
X14702324Y-11214174D02*
X14711848Y-11233222D01*
X14711848Y-11233222D02*
X14711848Y-11337984D01*
X14807086Y-11337984D02*
X14807086Y-11204650D01*
X14807086Y-11223698D02*
X14816610Y-11214174D01*
X14816610Y-11214174D02*
X14835658Y-11204650D01*
X14835658Y-11204650D02*
X14864229Y-11204650D01*
X14864229Y-11204650D02*
X14883277Y-11214174D01*
X14883277Y-11214174D02*
X14892801Y-11233222D01*
X14892801Y-11233222D02*
X14892801Y-11337984D01*
X14892801Y-11233222D02*
X14902324Y-11214174D01*
X14902324Y-11214174D02*
X14921372Y-11204650D01*
X14921372Y-11204650D02*
X14949943Y-11204650D01*
X14949943Y-11204650D02*
X14968991Y-11214174D01*
X14968991Y-11214174D02*
X14978515Y-11233222D01*
X14978515Y-11233222D02*
X14978515Y-11337984D01*
X15368991Y-11128460D02*
X15197563Y-11385603D01*
X15626134Y-11137984D02*
X15645182Y-11137984D01*
X15645182Y-11137984D02*
X15664229Y-11147508D01*
X15664229Y-11147508D02*
X15673753Y-11157031D01*
X15673753Y-11157031D02*
X15683277Y-11176079D01*
X15683277Y-11176079D02*
X15692801Y-11214174D01*
X15692801Y-11214174D02*
X15692801Y-11261793D01*
X15692801Y-11261793D02*
X15683277Y-11299888D01*
X15683277Y-11299888D02*
X15673753Y-11318936D01*
X15673753Y-11318936D02*
X15664229Y-11328460D01*
X15664229Y-11328460D02*
X15645182Y-11337984D01*
X15645182Y-11337984D02*
X15626134Y-11337984D01*
X15626134Y-11337984D02*
X15607086Y-11328460D01*
X15607086Y-11328460D02*
X15597563Y-11318936D01*
X15597563Y-11318936D02*
X15588039Y-11299888D01*
X15588039Y-11299888D02*
X15578515Y-11261793D01*
X15578515Y-11261793D02*
X15578515Y-11214174D01*
X15578515Y-11214174D02*
X15588039Y-11176079D01*
X15588039Y-11176079D02*
X15597563Y-11157031D01*
X15597563Y-11157031D02*
X15607086Y-11147508D01*
X15607086Y-11147508D02*
X15626134Y-11137984D01*
X15778515Y-11318936D02*
X15788039Y-11328460D01*
X15788039Y-11328460D02*
X15778515Y-11337984D01*
X15778515Y-11337984D02*
X15768991Y-11328460D01*
X15768991Y-11328460D02*
X15778515Y-11318936D01*
X15778515Y-11318936D02*
X15778515Y-11337984D01*
X15911848Y-11137984D02*
X15930896Y-11137984D01*
X15930896Y-11137984D02*
X15949944Y-11147508D01*
X15949944Y-11147508D02*
X15959467Y-11157031D01*
X15959467Y-11157031D02*
X15968991Y-11176079D01*
X15968991Y-11176079D02*
X15978515Y-11214174D01*
X15978515Y-11214174D02*
X15978515Y-11261793D01*
X15978515Y-11261793D02*
X15968991Y-11299888D01*
X15968991Y-11299888D02*
X15959467Y-11318936D01*
X15959467Y-11318936D02*
X15949944Y-11328460D01*
X15949944Y-11328460D02*
X15930896Y-11337984D01*
X15930896Y-11337984D02*
X15911848Y-11337984D01*
X15911848Y-11337984D02*
X15892801Y-11328460D01*
X15892801Y-11328460D02*
X15883277Y-11318936D01*
X15883277Y-11318936D02*
X15873753Y-11299888D01*
X15873753Y-11299888D02*
X15864229Y-11261793D01*
X15864229Y-11261793D02*
X15864229Y-11214174D01*
X15864229Y-11214174D02*
X15873753Y-11176079D01*
X15873753Y-11176079D02*
X15883277Y-11157031D01*
X15883277Y-11157031D02*
X15892801Y-11147508D01*
X15892801Y-11147508D02*
X15911848Y-11137984D01*
X16149944Y-11204650D02*
X16149944Y-11337984D01*
X16102325Y-11128460D02*
X16054706Y-11271317D01*
X16054706Y-11271317D02*
X16178515Y-11271317D01*
X16359467Y-11337984D02*
X16245182Y-11337984D01*
X16302325Y-11337984D02*
X16302325Y-11137984D01*
X16302325Y-11137984D02*
X16283277Y-11166555D01*
X16283277Y-11166555D02*
X16264229Y-11185603D01*
X16264229Y-11185603D02*
X16245182Y-11195127D01*
X16426134Y-11137984D02*
X16549944Y-11137984D01*
X16549944Y-11137984D02*
X16483277Y-11214174D01*
X16483277Y-11214174D02*
X16511848Y-11214174D01*
X16511848Y-11214174D02*
X16530896Y-11223698D01*
X16530896Y-11223698D02*
X16540420Y-11233222D01*
X16540420Y-11233222D02*
X16549944Y-11252269D01*
X16549944Y-11252269D02*
X16549944Y-11299888D01*
X16549944Y-11299888D02*
X16540420Y-11318936D01*
X16540420Y-11318936D02*
X16530896Y-11328460D01*
X16530896Y-11328460D02*
X16511848Y-11337984D01*
X16511848Y-11337984D02*
X16454706Y-11337984D01*
X16454706Y-11337984D02*
X16435658Y-11328460D01*
X16435658Y-11328460D02*
X16426134Y-11318936D01*
X16626134Y-11137984D02*
X16626134Y-11176079D01*
X16702325Y-11137984D02*
X16702325Y-11176079D01*
X16997563Y-11414174D02*
X16988039Y-11404650D01*
X16988039Y-11404650D02*
X16968991Y-11376079D01*
X16968991Y-11376079D02*
X16959468Y-11357031D01*
X16959468Y-11357031D02*
X16949944Y-11328460D01*
X16949944Y-11328460D02*
X16940420Y-11280841D01*
X16940420Y-11280841D02*
X16940420Y-11242746D01*
X16940420Y-11242746D02*
X16949944Y-11195127D01*
X16949944Y-11195127D02*
X16959468Y-11166555D01*
X16959468Y-11166555D02*
X16968991Y-11147508D01*
X16968991Y-11147508D02*
X16988039Y-11118936D01*
X16988039Y-11118936D02*
X16997563Y-11109412D01*
X17064230Y-11157031D02*
X17073753Y-11147508D01*
X17073753Y-11147508D02*
X17092801Y-11137984D01*
X17092801Y-11137984D02*
X17140420Y-11137984D01*
X17140420Y-11137984D02*
X17159468Y-11147508D01*
X17159468Y-11147508D02*
X17168991Y-11157031D01*
X17168991Y-11157031D02*
X17178515Y-11176079D01*
X17178515Y-11176079D02*
X17178515Y-11195127D01*
X17178515Y-11195127D02*
X17168991Y-11223698D01*
X17168991Y-11223698D02*
X17054706Y-11337984D01*
X17054706Y-11337984D02*
X17178515Y-11337984D01*
X17416611Y-11337984D02*
X17416611Y-11137984D01*
X17502325Y-11337984D02*
X17502325Y-11233222D01*
X17502325Y-11233222D02*
X17492801Y-11214174D01*
X17492801Y-11214174D02*
X17473753Y-11204650D01*
X17473753Y-11204650D02*
X17445182Y-11204650D01*
X17445182Y-11204650D02*
X17426134Y-11214174D01*
X17426134Y-11214174D02*
X17416611Y-11223698D01*
X17626134Y-11337984D02*
X17607087Y-11328460D01*
X17607087Y-11328460D02*
X17597563Y-11318936D01*
X17597563Y-11318936D02*
X17588039Y-11299888D01*
X17588039Y-11299888D02*
X17588039Y-11242746D01*
X17588039Y-11242746D02*
X17597563Y-11223698D01*
X17597563Y-11223698D02*
X17607087Y-11214174D01*
X17607087Y-11214174D02*
X17626134Y-11204650D01*
X17626134Y-11204650D02*
X17654706Y-11204650D01*
X17654706Y-11204650D02*
X17673753Y-11214174D01*
X17673753Y-11214174D02*
X17683277Y-11223698D01*
X17683277Y-11223698D02*
X17692801Y-11242746D01*
X17692801Y-11242746D02*
X17692801Y-11299888D01*
X17692801Y-11299888D02*
X17683277Y-11318936D01*
X17683277Y-11318936D02*
X17673753Y-11328460D01*
X17673753Y-11328460D02*
X17654706Y-11337984D01*
X17654706Y-11337984D02*
X17626134Y-11337984D01*
X17807087Y-11337984D02*
X17788039Y-11328460D01*
X17788039Y-11328460D02*
X17778515Y-11309412D01*
X17778515Y-11309412D02*
X17778515Y-11137984D01*
X17959468Y-11328460D02*
X17940420Y-11337984D01*
X17940420Y-11337984D02*
X17902325Y-11337984D01*
X17902325Y-11337984D02*
X17883277Y-11328460D01*
X17883277Y-11328460D02*
X17873753Y-11309412D01*
X17873753Y-11309412D02*
X17873753Y-11233222D01*
X17873753Y-11233222D02*
X17883277Y-11214174D01*
X17883277Y-11214174D02*
X17902325Y-11204650D01*
X17902325Y-11204650D02*
X17940420Y-11204650D01*
X17940420Y-11204650D02*
X17959468Y-11214174D01*
X17959468Y-11214174D02*
X17968992Y-11233222D01*
X17968992Y-11233222D02*
X17968992Y-11252269D01*
X17968992Y-11252269D02*
X17873753Y-11271317D01*
X18045182Y-11328460D02*
X18064230Y-11337984D01*
X18064230Y-11337984D02*
X18102325Y-11337984D01*
X18102325Y-11337984D02*
X18121373Y-11328460D01*
X18121373Y-11328460D02*
X18130896Y-11309412D01*
X18130896Y-11309412D02*
X18130896Y-11299888D01*
X18130896Y-11299888D02*
X18121373Y-11280841D01*
X18121373Y-11280841D02*
X18102325Y-11271317D01*
X18102325Y-11271317D02*
X18073753Y-11271317D01*
X18073753Y-11271317D02*
X18054706Y-11261793D01*
X18054706Y-11261793D02*
X18045182Y-11242746D01*
X18045182Y-11242746D02*
X18045182Y-11233222D01*
X18045182Y-11233222D02*
X18054706Y-11214174D01*
X18054706Y-11214174D02*
X18073753Y-11204650D01*
X18073753Y-11204650D02*
X18102325Y-11204650D01*
X18102325Y-11204650D02*
X18121373Y-11214174D01*
X18197563Y-11414174D02*
X18207087Y-11404650D01*
X18207087Y-11404650D02*
X18226134Y-11376079D01*
X18226134Y-11376079D02*
X18235658Y-11357031D01*
X18235658Y-11357031D02*
X18245182Y-11328460D01*
X18245182Y-11328460D02*
X18254706Y-11280841D01*
X18254706Y-11280841D02*
X18254706Y-11242746D01*
X18254706Y-11242746D02*
X18245182Y-11195127D01*
X18245182Y-11195127D02*
X18235658Y-11166555D01*
X18235658Y-11166555D02*
X18226134Y-11147508D01*
X18226134Y-11147508D02*
X18207087Y-11118936D01*
X18207087Y-11118936D02*
X18197563Y-11109412D01*
M02*
