%TF.GenerationSoftware,KiCad,Pcbnew,9.0.2*%
%TF.CreationDate,2025-11-07T15:55:13+08:00*%
%TF.ProjectId,TrlBoard,54726c42-6f61-4726-942e-6b696361645f,rev?*%
%TF.SameCoordinates,Original*%
%TF.FileFunction,Soldermask,Bot*%
%TF.FilePolarity,Negative*%
%FSLAX46Y46*%
G04 Gerber Fmt 4.6, Leading zero omitted, Abs format (unit mm)*
G04 Created by KiCad (PCBNEW 9.0.2) date 2025-11-07 15:55:13*
%MOMM*%
%LPD*%
G01*
G04 APERTURE LIST*
G04 Aperture macros list*
%AMRoundRect*
0 Rectangle with rounded corners*
0 $1 Rounding radius*
0 $2 $3 $4 $5 $6 $7 $8 $9 X,Y pos of 4 corners*
0 Add a 4 corners polygon primitive as box body*
4,1,4,$2,$3,$4,$5,$6,$7,$8,$9,$2,$3,0*
0 Add four circle primitives for the rounded corners*
1,1,$1+$1,$2,$3*
1,1,$1+$1,$4,$5*
1,1,$1+$1,$6,$7*
1,1,$1+$1,$8,$9*
0 Add four rect primitives between the rounded corners*
20,1,$1+$1,$2,$3,$4,$5,0*
20,1,$1+$1,$4,$5,$6,$7,0*
20,1,$1+$1,$6,$7,$8,$9,0*
20,1,$1+$1,$8,$9,$2,$3,0*%
G04 Aperture macros list end*
%ADD10C,0.200000*%
%ADD11C,0.300000*%
%ADD12C,0.000000*%
%ADD13C,0.650000*%
%ADD14O,2.100000X1.000000*%
%ADD15O,1.600000X1.000000*%
%ADD16RoundRect,0.102000X-0.787500X-0.787500X0.787500X-0.787500X0.787500X0.787500X-0.787500X0.787500X0*%
%ADD17C,1.779000*%
%ADD18C,0.600000*%
%ADD19R,1.700000X1.700000*%
%ADD20C,1.700000*%
G04 APERTURE END LIST*
D10*
X169132780Y-75439850D02*
X169132780Y-75344612D01*
X169132780Y-75344612D02*
X169085161Y-75249374D01*
X169085161Y-75249374D02*
X169037542Y-75201755D01*
X169037542Y-75201755D02*
X168942304Y-75154136D01*
X168942304Y-75154136D02*
X168751828Y-75106517D01*
X168751828Y-75106517D02*
X168513733Y-75106517D01*
X168513733Y-75106517D02*
X168323257Y-75154136D01*
X168323257Y-75154136D02*
X168228019Y-75201755D01*
X168228019Y-75201755D02*
X168180400Y-75249374D01*
X168180400Y-75249374D02*
X168132780Y-75344612D01*
X168132780Y-75344612D02*
X168132780Y-75439850D01*
X168132780Y-75439850D02*
X168180400Y-75535088D01*
X168180400Y-75535088D02*
X168228019Y-75582707D01*
X168228019Y-75582707D02*
X168323257Y-75630326D01*
X168323257Y-75630326D02*
X168513733Y-75677945D01*
X168513733Y-75677945D02*
X168751828Y-75677945D01*
X168751828Y-75677945D02*
X168942304Y-75630326D01*
X168942304Y-75630326D02*
X169037542Y-75582707D01*
X169037542Y-75582707D02*
X169085161Y-75535088D01*
X169085161Y-75535088D02*
X169132780Y-75439850D01*
X168132780Y-74154136D02*
X168132780Y-74725564D01*
X168132780Y-74439850D02*
X169132780Y-74439850D01*
X169132780Y-74439850D02*
X168989923Y-74535088D01*
X168989923Y-74535088D02*
X168894685Y-74630326D01*
X168894685Y-74630326D02*
X168847066Y-74725564D01*
X169180400Y-73011279D02*
X167894685Y-73868421D01*
X169132780Y-72487469D02*
X169132780Y-72392231D01*
X169132780Y-72392231D02*
X169085161Y-72296993D01*
X169085161Y-72296993D02*
X169037542Y-72249374D01*
X169037542Y-72249374D02*
X168942304Y-72201755D01*
X168942304Y-72201755D02*
X168751828Y-72154136D01*
X168751828Y-72154136D02*
X168513733Y-72154136D01*
X168513733Y-72154136D02*
X168323257Y-72201755D01*
X168323257Y-72201755D02*
X168228019Y-72249374D01*
X168228019Y-72249374D02*
X168180400Y-72296993D01*
X168180400Y-72296993D02*
X168132780Y-72392231D01*
X168132780Y-72392231D02*
X168132780Y-72487469D01*
X168132780Y-72487469D02*
X168180400Y-72582707D01*
X168180400Y-72582707D02*
X168228019Y-72630326D01*
X168228019Y-72630326D02*
X168323257Y-72677945D01*
X168323257Y-72677945D02*
X168513733Y-72725564D01*
X168513733Y-72725564D02*
X168751828Y-72725564D01*
X168751828Y-72725564D02*
X168942304Y-72677945D01*
X168942304Y-72677945D02*
X169037542Y-72630326D01*
X169037542Y-72630326D02*
X169085161Y-72582707D01*
X169085161Y-72582707D02*
X169132780Y-72487469D01*
X169037542Y-71773183D02*
X169085161Y-71725564D01*
X169085161Y-71725564D02*
X169132780Y-71630326D01*
X169132780Y-71630326D02*
X169132780Y-71392231D01*
X169132780Y-71392231D02*
X169085161Y-71296993D01*
X169085161Y-71296993D02*
X169037542Y-71249374D01*
X169037542Y-71249374D02*
X168942304Y-71201755D01*
X168942304Y-71201755D02*
X168847066Y-71201755D01*
X168847066Y-71201755D02*
X168704209Y-71249374D01*
X168704209Y-71249374D02*
X168132780Y-71820802D01*
X168132780Y-71820802D02*
X168132780Y-71201755D01*
D11*
G36*
X137520123Y-76555088D02*
G01*
X137639555Y-76587816D01*
X137754161Y-76642812D01*
X137832520Y-76696927D01*
X137902989Y-76762109D01*
X137966059Y-76839217D01*
X138021882Y-76929492D01*
X138064838Y-77024598D01*
X138096339Y-77129393D01*
X138115929Y-77245221D01*
X138122724Y-77373617D01*
X138115818Y-77502715D01*
X138095777Y-77620830D01*
X138063324Y-77729296D01*
X138018768Y-77829282D01*
X137961194Y-77924251D01*
X137896120Y-78005902D01*
X137823415Y-78075468D01*
X137742621Y-78133823D01*
X137654044Y-78181131D01*
X137563790Y-78214371D01*
X137471095Y-78234230D01*
X137375066Y-78240893D01*
X137089485Y-78240893D01*
X136975453Y-78233741D01*
X136872845Y-78213092D01*
X136780055Y-78179723D01*
X136695735Y-78133823D01*
X136618516Y-78075455D01*
X136551505Y-78007524D01*
X136494042Y-77929334D01*
X136445874Y-77839815D01*
X136399505Y-77712588D01*
X136370760Y-77571249D01*
X136360786Y-77413459D01*
X136365757Y-77296721D01*
X136379746Y-77196205D01*
X136402313Y-77097566D01*
X136434334Y-76989301D01*
X136581338Y-77039676D01*
X136543608Y-77165652D01*
X136521422Y-77289302D01*
X136514110Y-77411444D01*
X136521908Y-77536021D01*
X136544291Y-77646642D01*
X136580239Y-77745293D01*
X136632155Y-77835394D01*
X136698270Y-77910465D01*
X136779724Y-77972073D01*
X136871945Y-78016362D01*
X136979720Y-78044144D01*
X137106338Y-78053955D01*
X137375066Y-78053955D01*
X137477899Y-78044953D01*
X137575401Y-78018183D01*
X137669073Y-77973172D01*
X137753071Y-77912050D01*
X137826021Y-77834336D01*
X137888525Y-77737966D01*
X137933586Y-77632114D01*
X137961676Y-77511593D01*
X137971507Y-77373617D01*
X137962394Y-77238099D01*
X137936636Y-77122243D01*
X137895853Y-77022915D01*
X137838037Y-76933138D01*
X137768015Y-76860588D01*
X137684827Y-76803462D01*
X137591905Y-76762692D01*
X137488632Y-76737596D01*
X137372959Y-76728907D01*
X137215514Y-76728907D01*
X137129135Y-76734207D01*
X137062521Y-76748477D01*
X137011724Y-76769849D01*
X136969929Y-76802069D01*
X136946294Y-76840221D01*
X136938268Y-76886444D01*
X136945698Y-76946253D01*
X136965328Y-76986784D01*
X136995970Y-77013481D01*
X137061620Y-77036664D01*
X137167154Y-77045996D01*
X137616591Y-77043889D01*
X137668691Y-77144121D01*
X137700274Y-77253939D01*
X137711113Y-77375723D01*
X137703141Y-77478560D01*
X137681007Y-77562196D01*
X137646429Y-77630255D01*
X137599739Y-77685484D01*
X137541452Y-77729343D01*
X137472129Y-77761663D01*
X137389599Y-77782147D01*
X137291077Y-77789440D01*
X137169261Y-77789440D01*
X137081927Y-77783366D01*
X137008638Y-77766321D01*
X136947033Y-77739512D01*
X136895220Y-77703345D01*
X136852349Y-77656983D01*
X136821504Y-77602475D01*
X136802272Y-77538193D01*
X136795478Y-77461819D01*
X136797344Y-77442860D01*
X136946694Y-77442860D01*
X136953221Y-77496274D01*
X136970963Y-77535315D01*
X136999176Y-77563668D01*
X137036438Y-77582106D01*
X137093544Y-77595237D01*
X137177687Y-77600396D01*
X137280635Y-77600396D01*
X137376241Y-77593263D01*
X137445119Y-77574516D01*
X137493768Y-77546907D01*
X137529955Y-77506220D01*
X137553291Y-77448982D01*
X137562003Y-77369404D01*
X137554502Y-77294142D01*
X137532602Y-77226613D01*
X137032790Y-77226613D01*
X136984448Y-77293577D01*
X136956198Y-77364980D01*
X136946694Y-77442860D01*
X136797344Y-77442860D01*
X136804284Y-77372368D01*
X136830001Y-77291959D01*
X136872725Y-77218602D01*
X136934055Y-77150959D01*
X136875472Y-77112752D01*
X136826985Y-77054422D01*
X136804461Y-77007825D01*
X136790150Y-76951819D01*
X136785036Y-76884337D01*
X136791309Y-76817447D01*
X136809543Y-76757730D01*
X136839624Y-76703720D01*
X136879882Y-76656300D01*
X136928537Y-76616860D01*
X136986628Y-76585018D01*
X137082559Y-76554555D01*
X137190327Y-76544077D01*
X137394025Y-76544077D01*
X137520123Y-76555088D01*
G37*
G36*
X136627500Y-75580355D02*
G01*
X136608444Y-75672365D01*
X136602312Y-75758866D01*
X136611672Y-75862589D01*
X136636802Y-75939599D01*
X136675126Y-75996224D01*
X136726790Y-76036657D01*
X136794629Y-76062350D01*
X136883680Y-76071741D01*
X137578764Y-76071741D01*
X137578764Y-76248146D01*
X137738408Y-76248146D01*
X137738408Y-76067528D01*
X138011441Y-76050767D01*
X138011441Y-75861723D01*
X137738408Y-75861723D01*
X137738408Y-75613969D01*
X137578764Y-75613969D01*
X137578764Y-75861723D01*
X136894213Y-75861723D01*
X136835563Y-75852252D01*
X136798592Y-75827102D01*
X136776763Y-75786083D01*
X136768183Y-75718933D01*
X136771503Y-75657666D01*
X136780823Y-75605543D01*
X136627500Y-75580355D01*
G37*
G36*
X137759382Y-74810990D02*
G01*
X137753921Y-74739772D01*
X137738408Y-74678641D01*
X137541029Y-74716468D01*
X137547257Y-74783696D01*
X137540861Y-74854748D01*
X137522509Y-74916434D01*
X137492669Y-74970542D01*
X137451141Y-75016017D01*
X137391732Y-75056766D01*
X137310036Y-75092358D01*
X136627500Y-75092358D01*
X136627500Y-75302376D01*
X137738408Y-75302376D01*
X137738408Y-75142733D01*
X137557790Y-75109119D01*
X137623671Y-75074369D01*
X137673973Y-75033132D01*
X137711113Y-74985288D01*
X137737945Y-74930384D01*
X137753969Y-74872601D01*
X137759382Y-74810990D01*
G37*
G36*
X136862705Y-74258971D02*
G01*
X136816816Y-74253754D01*
X136791264Y-74241111D01*
X136776222Y-74218645D01*
X136770290Y-74179195D01*
X136772397Y-74151901D01*
X136776610Y-74128820D01*
X136627500Y-74103633D01*
X136608418Y-74172869D01*
X136602312Y-74237997D01*
X136609439Y-74307089D01*
X136629330Y-74362445D01*
X136661113Y-74407074D01*
X136704072Y-74440453D01*
X136758885Y-74461416D01*
X136829091Y-74468989D01*
X138181525Y-74468989D01*
X138181525Y-74258971D01*
X136862705Y-74258971D01*
G37*
G36*
X136322959Y-72827952D02*
G01*
X136322959Y-73871632D01*
X136493044Y-73871632D01*
X136493044Y-72827952D01*
X136322959Y-72827952D01*
G37*
G36*
X137759382Y-72064724D02*
G01*
X137753921Y-71993506D01*
X137738408Y-71932375D01*
X137541029Y-71970202D01*
X137547257Y-72037430D01*
X137540861Y-72108482D01*
X137522509Y-72170168D01*
X137492669Y-72224275D01*
X137451141Y-72269750D01*
X137391732Y-72310500D01*
X137310036Y-72346092D01*
X136627500Y-72346092D01*
X136627500Y-72556110D01*
X137738408Y-72556110D01*
X137738408Y-72396467D01*
X137557790Y-72362853D01*
X137623671Y-72328102D01*
X137673973Y-72286865D01*
X137711113Y-72239022D01*
X137737945Y-72184118D01*
X137753969Y-72126335D01*
X137759382Y-72064724D01*
G37*
G36*
X136627500Y-71449690D02*
G01*
X136627500Y-71659708D01*
X137578764Y-71659708D01*
X137578764Y-71834006D01*
X137738408Y-71834006D01*
X137738408Y-71449690D01*
X136627500Y-71449690D01*
G37*
G36*
X137929467Y-71565186D02*
G01*
X137938973Y-71615705D01*
X137967294Y-71657601D01*
X138009191Y-71685922D01*
X138059709Y-71695429D01*
X138110400Y-71685955D01*
X138153132Y-71657601D01*
X138182241Y-71615625D01*
X138191967Y-71565186D01*
X138182273Y-71514573D01*
X138153132Y-71471763D01*
X138110322Y-71442622D01*
X138059709Y-71432929D01*
X138009270Y-71442655D01*
X137967294Y-71471763D01*
X137938940Y-71514495D01*
X137929467Y-71565186D01*
G37*
G36*
X137587191Y-70379265D02*
G01*
X136795478Y-70942092D01*
X136795478Y-70364519D01*
X136627500Y-70364519D01*
X136627500Y-71173085D01*
X136785036Y-71173085D01*
X137572536Y-70608151D01*
X137572536Y-71143684D01*
X137738408Y-71143684D01*
X137738408Y-70379265D01*
X137587191Y-70379265D01*
G37*
G36*
X137738408Y-69220363D02*
G01*
X136627500Y-69220363D01*
X136627500Y-69398783D01*
X136761864Y-69413529D01*
X136690940Y-69488342D01*
X136641816Y-69569211D01*
X136612373Y-69657610D01*
X136602312Y-69755805D01*
X136613092Y-69854414D01*
X136643977Y-69938042D01*
X136694727Y-70009970D01*
X136744145Y-70053723D01*
X136800230Y-70084869D01*
X136864308Y-70104035D01*
X136938268Y-70110720D01*
X137738408Y-70110720D01*
X137738408Y-69900702D01*
X136946694Y-69900702D01*
X136891204Y-69894888D01*
X136848027Y-69878848D01*
X136814345Y-69853441D01*
X136789623Y-69819192D01*
X136773903Y-69775038D01*
X136768183Y-69718069D01*
X136778885Y-69636614D01*
X136811231Y-69559525D01*
X136862580Y-69490868D01*
X136934055Y-69430290D01*
X137738408Y-69430290D01*
X137738408Y-69220363D01*
G37*
G36*
X190341689Y-76820792D02*
G01*
X188191188Y-76820792D01*
X188191188Y-76343631D01*
X188627500Y-76343631D01*
X189870207Y-76343631D01*
X189870207Y-76654125D01*
X190133989Y-76488162D01*
X190133989Y-76058783D01*
X188627500Y-76058783D01*
X188627500Y-76343631D01*
X188191188Y-76343631D01*
X188191188Y-75168335D01*
X188627500Y-75168335D01*
X189870207Y-75168335D01*
X189870207Y-75478829D01*
X190133989Y-75312866D01*
X190133989Y-74883487D01*
X188627500Y-74883487D01*
X188627500Y-75168335D01*
X188191188Y-75168335D01*
X188191188Y-74240059D01*
X188357855Y-74240059D01*
X188357855Y-74437805D01*
X190175022Y-73760489D01*
X190175022Y-73561644D01*
X188357855Y-74240059D01*
X188191188Y-74240059D01*
X188191188Y-73472068D01*
X188627500Y-73472068D01*
X188764337Y-73472068D01*
X189237954Y-73005778D01*
X189356232Y-72895089D01*
X189445668Y-72823311D01*
X189512086Y-72780922D01*
X189582903Y-72748380D01*
X189644773Y-72730577D01*
X189699390Y-72725052D01*
X189754835Y-72731717D01*
X189801999Y-72750936D01*
X189842821Y-72782937D01*
X189873946Y-72824554D01*
X189892885Y-72873550D01*
X189899516Y-72932047D01*
X189891712Y-72990434D01*
X189868896Y-73040980D01*
X189830090Y-73085737D01*
X189780547Y-73119233D01*
X189718763Y-73141441D01*
X189641596Y-73151316D01*
X189641596Y-73431036D01*
X189763254Y-73416148D01*
X189866289Y-73385038D01*
X189953816Y-73338956D01*
X190028202Y-73277895D01*
X190089302Y-73202756D01*
X190132950Y-73118313D01*
X190159814Y-73022742D01*
X190169160Y-72913546D01*
X190162415Y-72823510D01*
X190142952Y-72743297D01*
X190111366Y-72671288D01*
X190067415Y-72606247D01*
X190012208Y-72550449D01*
X189944579Y-72503218D01*
X189869975Y-72467620D01*
X189796510Y-72446981D01*
X189723112Y-72440203D01*
X189635265Y-72448015D01*
X189539652Y-72472650D01*
X189434508Y-72516590D01*
X189335887Y-72574359D01*
X189215549Y-72664632D01*
X189069335Y-72795760D01*
X188891282Y-72964837D01*
X188891282Y-72427930D01*
X188627500Y-72427930D01*
X188627500Y-73472068D01*
X188191188Y-73472068D01*
X188191188Y-71780290D01*
X188592329Y-71780290D01*
X188599513Y-71875348D01*
X188620371Y-71961228D01*
X188654443Y-72039474D01*
X188702055Y-72111300D01*
X188761234Y-72173800D01*
X188830172Y-72224611D01*
X188910071Y-72264284D01*
X189002657Y-72292650D01*
X189002657Y-71991407D01*
X188940781Y-71950255D01*
X188897602Y-71899724D01*
X188870931Y-71840073D01*
X188861973Y-71774153D01*
X188869642Y-71713505D01*
X188892115Y-71660197D01*
X188930208Y-71612312D01*
X188979241Y-71575682D01*
X189036796Y-71553419D01*
X189105330Y-71545633D01*
X189172131Y-71552911D01*
X189228198Y-71573670D01*
X189275873Y-71607641D01*
X189313326Y-71652452D01*
X189335216Y-71701890D01*
X189342643Y-71757758D01*
X189336882Y-71803976D01*
X189319104Y-71850448D01*
X189290690Y-71894355D01*
X189248395Y-71940116D01*
X189300419Y-72173765D01*
X190133989Y-71991407D01*
X190133989Y-71285423D01*
X189870207Y-71285423D01*
X189870207Y-71777267D01*
X189597998Y-71838725D01*
X189608715Y-71788533D01*
X189612287Y-71741364D01*
X189603202Y-71641388D01*
X189576888Y-71552653D01*
X189533686Y-71472955D01*
X189472519Y-71400736D01*
X189398717Y-71341940D01*
X189315752Y-71299860D01*
X189221844Y-71273932D01*
X189114581Y-71264907D01*
X189007187Y-71274592D01*
X188910884Y-71302760D01*
X188823468Y-71349169D01*
X188743362Y-71415025D01*
X188676845Y-71494794D01*
X188630187Y-71581157D01*
X188601991Y-71675615D01*
X188592329Y-71780290D01*
X188191188Y-71780290D01*
X188191188Y-71098240D01*
X190341689Y-71098240D01*
X190341689Y-76820792D01*
G37*
D12*
%TO.C,G\u002A\u002A\u002A*%
G36*
X164656621Y-72069302D02*
G01*
X164750732Y-72142634D01*
X164761372Y-72156307D01*
X164794593Y-72234527D01*
X164818678Y-72366646D01*
X164835713Y-72567953D01*
X164847784Y-72853734D01*
X164854284Y-73044847D01*
X164865870Y-73256929D01*
X164884463Y-73412807D01*
X164915107Y-73538345D01*
X164962850Y-73659410D01*
X165032736Y-73801867D01*
X165128678Y-73980338D01*
X165231910Y-74156198D01*
X165314842Y-74281357D01*
X165353076Y-74330450D01*
X165427977Y-74399000D01*
X165520499Y-74421865D01*
X165671128Y-74414134D01*
X165911001Y-74391783D01*
X166417346Y-74907739D01*
X166529563Y-75022263D01*
X166694859Y-75194143D01*
X166807560Y-75321132D01*
X166879099Y-75420374D01*
X166920912Y-75509017D01*
X166944433Y-75604207D01*
X166961098Y-75723090D01*
X166981802Y-75862489D01*
X167014025Y-75973836D01*
X167072136Y-76074475D01*
X167171637Y-76190875D01*
X167328034Y-76349502D01*
X167409436Y-76427651D01*
X167742922Y-76691475D01*
X168068390Y-76857189D01*
X168384913Y-76924424D01*
X168691566Y-76892810D01*
X168721833Y-76883770D01*
X168820029Y-76840533D01*
X168931340Y-76766893D01*
X169069216Y-76651939D01*
X169247107Y-76484758D01*
X169478462Y-76254440D01*
X169581163Y-76150488D01*
X169917455Y-75808188D01*
X170190649Y-75526187D01*
X170407315Y-75297097D01*
X170574024Y-75113532D01*
X170697346Y-74968103D01*
X170783851Y-74853422D01*
X170840109Y-74762102D01*
X170872691Y-74686756D01*
X170897620Y-74625732D01*
X171018014Y-74470536D01*
X171182901Y-74377722D01*
X171364170Y-74365653D01*
X171469095Y-74362474D01*
X171594799Y-74277638D01*
X171611555Y-74262287D01*
X171707913Y-74187990D01*
X171872135Y-74069681D01*
X172093036Y-73915136D01*
X172359433Y-73732129D01*
X172660143Y-73528435D01*
X172983980Y-73311831D01*
X173005112Y-73297787D01*
X173377108Y-73051723D01*
X173679180Y-72855047D01*
X173923067Y-72700983D01*
X174120511Y-72582759D01*
X174283250Y-72493598D01*
X174423025Y-72426726D01*
X174551575Y-72375369D01*
X174680640Y-72332752D01*
X174974356Y-72250839D01*
X175412694Y-72164337D01*
X175825405Y-72134101D01*
X176245072Y-72156461D01*
X176560045Y-72195874D01*
X176888877Y-72254296D01*
X177183539Y-72332826D01*
X177461763Y-72439592D01*
X177741283Y-72582724D01*
X178039829Y-72770350D01*
X178375134Y-73010599D01*
X178764931Y-73311600D01*
X178795277Y-73335672D01*
X179014187Y-73519370D01*
X179157019Y-73665069D01*
X179231924Y-73785362D01*
X179247053Y-73892842D01*
X179210556Y-74000103D01*
X179142145Y-74076506D01*
X179010924Y-74184333D01*
X178842887Y-74305299D01*
X178663604Y-74421924D01*
X178498645Y-74516730D01*
X178373580Y-74572238D01*
X178315652Y-74593284D01*
X178289612Y-74633636D01*
X178336153Y-74714689D01*
X178393796Y-74836540D01*
X178401550Y-75009182D01*
X178328807Y-75157761D01*
X178312985Y-75173359D01*
X178276080Y-75196612D01*
X178218425Y-75214572D01*
X178128727Y-75227914D01*
X177995692Y-75237315D01*
X177808028Y-75243449D01*
X177554440Y-75246994D01*
X177223637Y-75248625D01*
X176804325Y-75249019D01*
X176610289Y-75248920D01*
X176196532Y-75247288D01*
X175867421Y-75242350D01*
X175612172Y-75232448D01*
X175419999Y-75215923D01*
X175280117Y-75191120D01*
X175181740Y-75156379D01*
X175114083Y-75110042D01*
X175066361Y-75050453D01*
X175027789Y-74975953D01*
X175011578Y-74931153D01*
X174980508Y-74776410D01*
X174968172Y-74601196D01*
X174968165Y-74595809D01*
X174943180Y-74327787D01*
X174860607Y-74112884D01*
X174706724Y-73915086D01*
X174561667Y-73790972D01*
X174319919Y-73680621D01*
X174057159Y-73666417D01*
X173776758Y-73748328D01*
X173482087Y-73926324D01*
X173472443Y-73933596D01*
X173283618Y-74082120D01*
X173068952Y-74259491D01*
X172873053Y-74428900D01*
X172546899Y-74697754D01*
X172190210Y-74941336D01*
X171774459Y-75176827D01*
X171715059Y-75208647D01*
X171246369Y-75503152D01*
X170759726Y-75881142D01*
X170266355Y-76332449D01*
X169777478Y-76846906D01*
X169304321Y-77414346D01*
X169244769Y-77489615D01*
X169078064Y-77690684D01*
X168929639Y-77856312D01*
X168813253Y-77971617D01*
X168742668Y-78021720D01*
X168702376Y-78023466D01*
X168567252Y-77985477D01*
X168370153Y-77897857D01*
X168122817Y-77767763D01*
X167836977Y-77602352D01*
X167524370Y-77408782D01*
X167196731Y-77194209D01*
X166865796Y-76965791D01*
X166543301Y-76730684D01*
X166240980Y-76496046D01*
X166060037Y-76346451D01*
X165562551Y-75890048D01*
X165118395Y-75413785D01*
X164735636Y-74928526D01*
X164422341Y-74445135D01*
X164186578Y-73974474D01*
X164036414Y-73527408D01*
X163957417Y-73315119D01*
X163833140Y-73143482D01*
X163790360Y-73100963D01*
X163713344Y-72993721D01*
X163699613Y-72903230D01*
X163868313Y-72903230D01*
X164023783Y-73040663D01*
X164139639Y-73178195D01*
X164236769Y-73422385D01*
X164319349Y-73707025D01*
X164536513Y-74209807D01*
X164844007Y-74721225D01*
X165237015Y-75234575D01*
X165710723Y-75743149D01*
X166260313Y-76240243D01*
X166444781Y-76388056D01*
X166745384Y-76612967D01*
X167084145Y-76852841D01*
X167437925Y-77092119D01*
X167783584Y-77315240D01*
X168097982Y-77506645D01*
X168357980Y-77650774D01*
X168686294Y-77818960D01*
X168795701Y-77688260D01*
X168861920Y-77608305D01*
X168979178Y-77465619D01*
X169126508Y-77285669D01*
X169286705Y-77089439D01*
X169729654Y-76571992D01*
X170216656Y-76068941D01*
X170704127Y-75639120D01*
X171206101Y-75270274D01*
X171736611Y-74950151D01*
X171861368Y-74878462D01*
X172178015Y-74673003D01*
X172530084Y-74417226D01*
X172895265Y-74126979D01*
X172939300Y-74090597D01*
X173218932Y-73867142D01*
X173455904Y-73691341D01*
X173640319Y-73570223D01*
X173762282Y-73510824D01*
X173846357Y-73488350D01*
X174179572Y-73454694D01*
X174486957Y-73512467D01*
X174757980Y-73658403D01*
X174982110Y-73889235D01*
X175059416Y-74007564D01*
X175112165Y-74131192D01*
X175144042Y-74285592D01*
X175165311Y-74505280D01*
X175177907Y-74651248D01*
X175202781Y-74817668D01*
X175238463Y-74919772D01*
X175290734Y-74979414D01*
X175336404Y-74995623D01*
X175473074Y-75015654D01*
X175679540Y-75031746D01*
X175940391Y-75043908D01*
X176240215Y-75052147D01*
X176563601Y-75056473D01*
X176895137Y-75056893D01*
X177219412Y-75053416D01*
X177521015Y-75046049D01*
X177784534Y-75034802D01*
X177994558Y-75019682D01*
X178135676Y-75000698D01*
X178192475Y-74977858D01*
X178194045Y-74965937D01*
X178160261Y-74878953D01*
X178070581Y-74741727D01*
X177935829Y-74571405D01*
X177795612Y-74398227D01*
X177633874Y-74160028D01*
X177542135Y-73956906D01*
X177513162Y-73775239D01*
X177521085Y-73719505D01*
X177715942Y-73719505D01*
X177739106Y-73847988D01*
X177809842Y-74026425D01*
X177904297Y-74226032D01*
X177908337Y-74035620D01*
X177908471Y-74014433D01*
X177894243Y-73862502D01*
X177860719Y-73748685D01*
X177820264Y-73691028D01*
X177760915Y-73652162D01*
X177742337Y-73656183D01*
X177715942Y-73719505D01*
X177521085Y-73719505D01*
X177536081Y-73614016D01*
X177619580Y-73493696D01*
X177760805Y-73452555D01*
X177853350Y-73466987D01*
X177989841Y-73558982D01*
X178080053Y-73723449D01*
X178113570Y-73945827D01*
X178114779Y-73989029D01*
X178147248Y-74179049D01*
X178217503Y-74305077D01*
X178317092Y-74350313D01*
X178328087Y-74349530D01*
X178432025Y-74313053D01*
X178573300Y-74234904D01*
X178726834Y-74132815D01*
X178867550Y-74024517D01*
X178970369Y-73927742D01*
X179010215Y-73860222D01*
X178986516Y-73800857D01*
X178893892Y-73692775D01*
X178748231Y-73568705D01*
X178726931Y-73552628D01*
X178548588Y-73417593D01*
X178338218Y-73257786D01*
X178136934Y-73104433D01*
X177854279Y-72905888D01*
X177363190Y-72641773D01*
X176847617Y-72466693D01*
X176294743Y-72376787D01*
X175691748Y-72368195D01*
X175635791Y-72371078D01*
X175377863Y-72390392D01*
X175145713Y-72422130D01*
X174926000Y-72472035D01*
X174705384Y-72545853D01*
X174470524Y-72649327D01*
X174208076Y-72788200D01*
X173904702Y-72968216D01*
X173547059Y-73195121D01*
X173121806Y-73474656D01*
X173058641Y-73516663D01*
X172741815Y-73729332D01*
X172447334Y-73930126D01*
X172187431Y-74110486D01*
X171974335Y-74261853D01*
X171820276Y-74375669D01*
X171737487Y-74443375D01*
X171677199Y-74497900D01*
X171540922Y-74578283D01*
X171381809Y-74600296D01*
X171214120Y-74621714D01*
X171112850Y-74699633D01*
X171051508Y-74854501D01*
X171011982Y-74919922D01*
X170908219Y-75049041D01*
X170748491Y-75231133D01*
X170540649Y-75457482D01*
X170292546Y-75719376D01*
X170012034Y-76008098D01*
X169926123Y-76095450D01*
X169646174Y-76378661D01*
X169423546Y-76600318D01*
X169248874Y-76768600D01*
X169112797Y-76891690D01*
X169005951Y-76977768D01*
X168918972Y-77035013D01*
X168842497Y-77071607D01*
X168767164Y-77095729D01*
X168500445Y-77134691D01*
X168152370Y-77098761D01*
X167800550Y-76970478D01*
X167453172Y-76753051D01*
X167118426Y-76449688D01*
X166979159Y-76299200D01*
X166874862Y-76172299D01*
X166813173Y-76066576D01*
X166779233Y-75955796D01*
X166758180Y-75813723D01*
X166756771Y-75801788D01*
X166739890Y-75683228D01*
X166713474Y-75587733D01*
X166665322Y-75496569D01*
X166583234Y-75391000D01*
X166455009Y-75252294D01*
X166268448Y-75061715D01*
X165812826Y-74599952D01*
X165587454Y-74627052D01*
X165524092Y-74632841D01*
X165384899Y-74632287D01*
X165301201Y-74612729D01*
X165239784Y-74544944D01*
X165146116Y-74409074D01*
X165034815Y-74229122D01*
X164919185Y-74028226D01*
X164812529Y-73829524D01*
X164728151Y-73656153D01*
X164679356Y-73531251D01*
X164664152Y-73460695D01*
X164641227Y-73279649D01*
X164624694Y-73051081D01*
X164617380Y-72807999D01*
X164614861Y-72670361D01*
X164603811Y-72465334D01*
X164585814Y-72326724D01*
X164562570Y-72271193D01*
X164542581Y-72275824D01*
X164460090Y-72331904D01*
X164336441Y-72437905D01*
X164189949Y-72578710D01*
X163868313Y-72903230D01*
X163699613Y-72903230D01*
X163697059Y-72886398D01*
X163746178Y-72763906D01*
X163865373Y-72611153D01*
X164059317Y-72413051D01*
X164247622Y-72239831D01*
X164417035Y-72113220D01*
X164549378Y-72057937D01*
X164656621Y-72069302D01*
G37*
G36*
X139472408Y-70924014D02*
G01*
X139564041Y-71002542D01*
X139575385Y-71015562D01*
X139622223Y-71069614D01*
X139683471Y-71140555D01*
X139748887Y-71216532D01*
X139777247Y-71249493D01*
X139834007Y-71315300D01*
X139877867Y-71365932D01*
X139901113Y-71392475D01*
X139902588Y-71394128D01*
X139927881Y-71423090D01*
X139974577Y-71476963D01*
X140036559Y-71548680D01*
X140107706Y-71631169D01*
X140184587Y-71719991D01*
X140263343Y-71810246D01*
X140332260Y-71888521D01*
X140382113Y-71944290D01*
X140436177Y-72006867D01*
X140501256Y-72100111D01*
X140533760Y-72182630D01*
X140536261Y-72262442D01*
X140511326Y-72347568D01*
X140462404Y-72420774D01*
X140383119Y-72477477D01*
X140288235Y-72506592D01*
X140189487Y-72504686D01*
X140098612Y-72468324D01*
X140075415Y-72450891D01*
X140018255Y-72397647D01*
X139963383Y-72335796D01*
X139907152Y-72266588D01*
X139814798Y-72156907D01*
X139699257Y-72022856D01*
X139564041Y-71868546D01*
X139467234Y-71758481D01*
X139338344Y-71610584D01*
X139232639Y-71487470D01*
X139151662Y-71390963D01*
X139096960Y-71322891D01*
X139070077Y-71285076D01*
X139059694Y-71263864D01*
X139042068Y-71172125D01*
X139058577Y-71076309D01*
X139105494Y-70988821D01*
X139179095Y-70922065D01*
X139269072Y-70885776D01*
X139372150Y-70884687D01*
X139472408Y-70924014D01*
G37*
G36*
X145815749Y-74166945D02*
G01*
X145830235Y-74178557D01*
X145872113Y-74221827D01*
X145935925Y-74293168D01*
X146018649Y-74389022D01*
X146117262Y-74505832D01*
X146228740Y-74640041D01*
X146350060Y-74788091D01*
X146478200Y-74946426D01*
X146569075Y-75059317D01*
X146690919Y-75210399D01*
X146803079Y-75349153D01*
X146902632Y-75471980D01*
X146986655Y-75575281D01*
X147052225Y-75655458D01*
X147096419Y-75708911D01*
X147116314Y-75732043D01*
X147117629Y-75733385D01*
X147149975Y-75775874D01*
X147183396Y-75832218D01*
X147192807Y-75852060D01*
X147216491Y-75952490D01*
X147204394Y-76047899D01*
X147162501Y-76131874D01*
X147096794Y-76198004D01*
X147013258Y-76239877D01*
X146917877Y-76251081D01*
X146816636Y-76225204D01*
X146812077Y-76221893D01*
X146781724Y-76190893D01*
X146728639Y-76131292D01*
X146656109Y-76047106D01*
X146567425Y-75942356D01*
X146465875Y-75821057D01*
X146354747Y-75687228D01*
X146237332Y-75544888D01*
X146116917Y-75398053D01*
X145996792Y-75250743D01*
X145880245Y-75106974D01*
X145770566Y-74970766D01*
X145671042Y-74846135D01*
X145584964Y-74737100D01*
X145515620Y-74647679D01*
X145466299Y-74581890D01*
X145440289Y-74543750D01*
X145422612Y-74493025D01*
X145414531Y-74428501D01*
X145421446Y-74363834D01*
X145461281Y-74271509D01*
X145529120Y-74200121D01*
X145616473Y-74155207D01*
X145714847Y-74142303D01*
X145815749Y-74166945D01*
G37*
G36*
X146832303Y-70945771D02*
G01*
X146941432Y-70971097D01*
X147021770Y-71028592D01*
X147071388Y-71116326D01*
X147088356Y-71232368D01*
X147088362Y-71239144D01*
X147087841Y-71270100D01*
X147084202Y-71298109D01*
X147074436Y-71327780D01*
X147055533Y-71363728D01*
X147024486Y-71410562D01*
X146978284Y-71472896D01*
X146913919Y-71555341D01*
X146828382Y-71662508D01*
X146718665Y-71799011D01*
X146685941Y-71839789D01*
X146601746Y-71945170D01*
X146497300Y-72076353D01*
X146377054Y-72227728D01*
X146245456Y-72393686D01*
X146106957Y-72568618D01*
X145966007Y-72746914D01*
X145827055Y-72922966D01*
X145721118Y-73057236D01*
X145560397Y-73260748D01*
X145383346Y-73484753D01*
X145196102Y-73721499D01*
X145004800Y-73963231D01*
X144815574Y-74202193D01*
X144634560Y-74430632D01*
X144467894Y-74640794D01*
X144414734Y-74707806D01*
X144269967Y-74890419D01*
X144129347Y-75067969D01*
X143996147Y-75236315D01*
X143873639Y-75391314D01*
X143765095Y-75528825D01*
X143673789Y-75644706D01*
X143602991Y-75734816D01*
X143555975Y-75795012D01*
X143533234Y-75823945D01*
X143422370Y-75951617D01*
X143322681Y-76039456D01*
X143230312Y-76088050D01*
X143141407Y-76097987D01*
X143052109Y-76069857D01*
X142958565Y-76004248D01*
X142856917Y-75901749D01*
X142782059Y-75817285D01*
X142666111Y-75686613D01*
X142570872Y-75579552D01*
X142491155Y-75490298D01*
X142421769Y-75413049D01*
X142357526Y-75342000D01*
X142293236Y-75271350D01*
X142253261Y-75227447D01*
X142124034Y-75083909D01*
X142023195Y-74968900D01*
X141949090Y-74880462D01*
X141900065Y-74816635D01*
X141874465Y-74775462D01*
X141864975Y-74749967D01*
X141855642Y-74662372D01*
X141870790Y-74569244D01*
X141907978Y-74491281D01*
X141916174Y-74481032D01*
X141991595Y-74422385D01*
X142087585Y-74390452D01*
X142188492Y-74390838D01*
X142198535Y-74392704D01*
X142220684Y-74397468D01*
X142241942Y-74404911D01*
X142265312Y-74417996D01*
X142293799Y-74439680D01*
X142330406Y-74472925D01*
X142378138Y-74520691D01*
X142439998Y-74585937D01*
X142518989Y-74671624D01*
X142618117Y-74780713D01*
X142740385Y-74916162D01*
X142888796Y-75080932D01*
X143157148Y-75378901D01*
X143696352Y-74700367D01*
X143829321Y-74532989D01*
X143988315Y-74332742D01*
X144152889Y-74125360D01*
X144320715Y-73913787D01*
X144489463Y-73700965D01*
X144656801Y-73489837D01*
X144820400Y-73283347D01*
X144977930Y-73084436D01*
X145127061Y-72896048D01*
X145265462Y-72721126D01*
X145390804Y-72562613D01*
X145500757Y-72423451D01*
X145592989Y-72306584D01*
X145665172Y-72214954D01*
X145714975Y-72151504D01*
X145740069Y-72119177D01*
X145741811Y-72116887D01*
X145772003Y-72077950D01*
X145824721Y-72010632D01*
X145895912Y-71920081D01*
X145981523Y-71811446D01*
X146077503Y-71689874D01*
X146179797Y-71560516D01*
X146197524Y-71538111D01*
X146296294Y-71413026D01*
X146385984Y-71299034D01*
X146463003Y-71200729D01*
X146523758Y-71122707D01*
X146564657Y-71069562D01*
X146582109Y-71045888D01*
X146627116Y-70998823D01*
X146706855Y-70959388D01*
X146800696Y-70944692D01*
X146832303Y-70945771D01*
G37*
G36*
X143330612Y-71055128D02*
G01*
X143368104Y-71083469D01*
X143419612Y-71136310D01*
X143473515Y-71201917D01*
X143523875Y-71267287D01*
X143584401Y-71342934D01*
X143633537Y-71401370D01*
X143666585Y-71440055D01*
X143722498Y-71506997D01*
X143794619Y-71594218D01*
X143877239Y-71694811D01*
X143964646Y-71801868D01*
X144030659Y-71882860D01*
X144136191Y-72011983D01*
X144242382Y-72141553D01*
X144339880Y-72260163D01*
X144419329Y-72356405D01*
X144440803Y-72382461D01*
X144529930Y-72495463D01*
X144591369Y-72585434D01*
X144627655Y-72658825D01*
X144641323Y-72722086D01*
X144634906Y-72781667D01*
X144610941Y-72844018D01*
X144609541Y-72846879D01*
X144544776Y-72936964D01*
X144461724Y-72991699D01*
X144367448Y-73010943D01*
X144269009Y-72994558D01*
X144173470Y-72942404D01*
X144087892Y-72854342D01*
X144065795Y-72825485D01*
X144020041Y-72767421D01*
X143958074Y-72689714D01*
X143884716Y-72598319D01*
X143804789Y-72499191D01*
X143723115Y-72398285D01*
X143644515Y-72301556D01*
X143573810Y-72214960D01*
X143515823Y-72144450D01*
X143475375Y-72095984D01*
X143457288Y-72075514D01*
X143447649Y-72065137D01*
X143414509Y-72026475D01*
X143364726Y-71966959D01*
X143304795Y-71894306D01*
X143279815Y-71864062D01*
X143221750Y-71797040D01*
X143182770Y-71759400D01*
X143157918Y-71746902D01*
X143142235Y-71755305D01*
X143139974Y-71758318D01*
X143111470Y-71793539D01*
X143064700Y-71849229D01*
X143008567Y-71914767D01*
X143002014Y-71922353D01*
X142942125Y-71991998D01*
X142864700Y-72082408D01*
X142779022Y-72182729D01*
X142694375Y-72282106D01*
X142605083Y-72387099D01*
X142499360Y-72511407D01*
X142395223Y-72633846D01*
X142305967Y-72738784D01*
X142231351Y-72826331D01*
X142144346Y-72928057D01*
X142063790Y-73021909D01*
X142000523Y-73095237D01*
X141978842Y-73120333D01*
X141901842Y-73210271D01*
X141816871Y-73310423D01*
X141738699Y-73403405D01*
X141725473Y-73419197D01*
X141663842Y-73492297D01*
X141580948Y-73590115D01*
X141482253Y-73706242D01*
X141373220Y-73834268D01*
X141259311Y-73967783D01*
X141145989Y-74100376D01*
X141038717Y-74225638D01*
X140942958Y-74337158D01*
X140901983Y-74384863D01*
X140807449Y-74495324D01*
X140705691Y-74614659D01*
X140603821Y-74734494D01*
X140508951Y-74846455D01*
X140428195Y-74942169D01*
X140368665Y-75013263D01*
X140352241Y-75032971D01*
X140275197Y-75124624D01*
X140189346Y-75225810D01*
X140110396Y-75317997D01*
X140099089Y-75331114D01*
X140043049Y-75396141D01*
X139996275Y-75450491D01*
X139953418Y-75500423D01*
X139909132Y-75552197D01*
X139858070Y-75612073D01*
X139794884Y-75686311D01*
X139714226Y-75781170D01*
X139610750Y-75902911D01*
X139524859Y-76002478D01*
X139442576Y-76095015D01*
X139371448Y-76172155D01*
X139317026Y-76227881D01*
X139284859Y-76256178D01*
X139222474Y-76285429D01*
X139125356Y-76296107D01*
X139030000Y-76272392D01*
X138947429Y-76217650D01*
X138888666Y-76135245D01*
X138876385Y-76107743D01*
X138855397Y-76057954D01*
X138846882Y-76033247D01*
X138846868Y-76025978D01*
X138863060Y-75963885D01*
X138908631Y-75879783D01*
X138984847Y-75771634D01*
X139092975Y-75637402D01*
X139144108Y-75576709D01*
X139262602Y-75436461D01*
X139390542Y-75285481D01*
X139520441Y-75132573D01*
X139644815Y-74986543D01*
X139756177Y-74856198D01*
X139847043Y-74750343D01*
X139882773Y-74708826D01*
X139989685Y-74584172D01*
X140102666Y-74451913D01*
X140214823Y-74320157D01*
X140319260Y-74197014D01*
X140409083Y-74090591D01*
X140477397Y-74008997D01*
X140493821Y-73989289D01*
X140570865Y-73897637D01*
X140656716Y-73796450D01*
X140735666Y-73704264D01*
X140766995Y-73667919D01*
X140812758Y-73614810D01*
X140852386Y-73568753D01*
X140890789Y-73524015D01*
X140932873Y-73474859D01*
X140983546Y-73415549D01*
X141047716Y-73340352D01*
X141130292Y-73243530D01*
X141236180Y-73119349D01*
X141320570Y-73020464D01*
X141403554Y-72923399D01*
X141475249Y-72839711D01*
X141530019Y-72775980D01*
X141562228Y-72738784D01*
X141596039Y-72699556D01*
X141651639Y-72634195D01*
X141719786Y-72553554D01*
X141792582Y-72466952D01*
X141797039Y-72461636D01*
X141863768Y-72382341D01*
X141920024Y-72316014D01*
X141960005Y-72269460D01*
X141977911Y-72249486D01*
X141978281Y-72249139D01*
X141997761Y-72227275D01*
X142038949Y-72179263D01*
X142096042Y-72111909D01*
X142163241Y-72032021D01*
X142231857Y-71950385D01*
X142300510Y-71869140D01*
X142357082Y-71802634D01*
X142393675Y-71760189D01*
X142420812Y-71728871D01*
X142473263Y-71667767D01*
X142542147Y-71587197D01*
X142621179Y-71494542D01*
X142704069Y-71397180D01*
X142784530Y-71302492D01*
X142856274Y-71217858D01*
X142913014Y-71150656D01*
X142934636Y-71128182D01*
X143021697Y-71071735D01*
X143126878Y-71038418D01*
X143234933Y-71031719D01*
X143330612Y-71055128D01*
G37*
G36*
X149658513Y-70495382D02*
G01*
X149684820Y-70509453D01*
X149703246Y-70535336D01*
X149700829Y-70580430D01*
X149688790Y-70634903D01*
X149670874Y-70692588D01*
X149651135Y-70743633D01*
X149555134Y-70703073D01*
X149516352Y-70685592D01*
X149475133Y-70663531D01*
X149459132Y-70649721D01*
X149466314Y-70636125D01*
X149492973Y-70600826D01*
X149532558Y-70554187D01*
X149573248Y-70510028D01*
X149602295Y-70487120D01*
X149627235Y-70483863D01*
X149658513Y-70495382D01*
G37*
G36*
X149792698Y-75538679D02*
G01*
X149840755Y-75544509D01*
X149858384Y-75555648D01*
X149848717Y-75568279D01*
X149813014Y-75598697D01*
X149757163Y-75640618D01*
X149687691Y-75688943D01*
X149672928Y-75698896D01*
X149601831Y-75746897D01*
X149555671Y-75774824D01*
X149527957Y-75782373D01*
X149512200Y-75769241D01*
X149501910Y-75735123D01*
X149490596Y-75679716D01*
X149489232Y-75673222D01*
X149479500Y-75611967D01*
X149486851Y-75577171D01*
X149517573Y-75559457D01*
X149577957Y-75549446D01*
X149634283Y-75543589D01*
X149721459Y-75538319D01*
X149792698Y-75538679D01*
G37*
G36*
X149302817Y-70351935D02*
G01*
X149341258Y-70369671D01*
X149344361Y-70373100D01*
X149360407Y-70413612D01*
X149361668Y-70468781D01*
X149350908Y-70528074D01*
X149330892Y-70580956D01*
X149304384Y-70616894D01*
X149274150Y-70625353D01*
X149272306Y-70624841D01*
X149229097Y-70614393D01*
X149173953Y-70602702D01*
X149166846Y-70601266D01*
X149120023Y-70590221D01*
X149093322Y-70581254D01*
X149089225Y-70575386D01*
X149092524Y-70543695D01*
X149110720Y-70495936D01*
X149138590Y-70442624D01*
X149170914Y-70394276D01*
X149202471Y-70361407D01*
X149206394Y-70358853D01*
X149250503Y-70347891D01*
X149302817Y-70351935D01*
G37*
G36*
X149900615Y-68786335D02*
G01*
X149905462Y-68826300D01*
X149909547Y-68896955D01*
X149912689Y-68993521D01*
X149914707Y-69111223D01*
X149915420Y-69245285D01*
X149915643Y-69333532D01*
X149916706Y-69451751D01*
X149918524Y-69552754D01*
X149920963Y-69631339D01*
X149923888Y-69682305D01*
X149927166Y-69700450D01*
X149935299Y-69697306D01*
X149972923Y-69679468D01*
X150036484Y-69647991D01*
X150121131Y-69605310D01*
X150222015Y-69553858D01*
X150334286Y-69496071D01*
X150404179Y-69460281D01*
X150510168Y-69407391D01*
X150602009Y-69363257D01*
X150674836Y-69330138D01*
X150723785Y-69310290D01*
X150743990Y-69305970D01*
X150745314Y-69319483D01*
X150732552Y-69358405D01*
X150706244Y-69410536D01*
X150692948Y-69434479D01*
X150659066Y-69498684D01*
X150615292Y-69584177D01*
X150565836Y-69682702D01*
X150514902Y-69786004D01*
X150398035Y-70038878D01*
X150233215Y-70456187D01*
X150101163Y-70876322D01*
X150002115Y-71296973D01*
X149936309Y-71715833D01*
X149903980Y-72130593D01*
X149905365Y-72538945D01*
X149940699Y-72938581D01*
X150010218Y-73327192D01*
X150114160Y-73702471D01*
X150137242Y-73768982D01*
X150181917Y-73887766D01*
X150235070Y-74020842D01*
X150291916Y-74156326D01*
X150347670Y-74282336D01*
X150511760Y-74656844D01*
X150652074Y-75011871D01*
X150767236Y-75345715D01*
X150858007Y-75661354D01*
X150925150Y-75961766D01*
X150969427Y-76249929D01*
X150991600Y-76528822D01*
X150992431Y-76801423D01*
X150984530Y-76961167D01*
X150971403Y-77103533D01*
X150951794Y-77227866D01*
X150924070Y-77344386D01*
X150886595Y-77463313D01*
X150881371Y-77478587D01*
X150863424Y-77540566D01*
X150860198Y-77580708D01*
X150870531Y-77609592D01*
X150871696Y-77611509D01*
X150879575Y-77633724D01*
X150874560Y-77656821D01*
X150853555Y-77682933D01*
X150813460Y-77714192D01*
X150751178Y-77752731D01*
X150663610Y-77800684D01*
X150547659Y-77860182D01*
X150400225Y-77933360D01*
X150092449Y-78079510D01*
X149718483Y-78241424D01*
X149422847Y-78353906D01*
X149359588Y-78377975D01*
X149010273Y-78491064D01*
X148665045Y-78582594D01*
X148318414Y-78654468D01*
X148228717Y-78669867D01*
X148099907Y-78690072D01*
X147968104Y-78708932D01*
X147841398Y-78725408D01*
X147727878Y-78738462D01*
X147635636Y-78747055D01*
X147572761Y-78750150D01*
X147500899Y-78750150D01*
X147500899Y-78610533D01*
X147500899Y-78470916D01*
X147800338Y-78458540D01*
X147812227Y-78458034D01*
X147943940Y-78450764D01*
X148082443Y-78440466D01*
X148222143Y-78427819D01*
X148357448Y-78413502D01*
X148482766Y-78398192D01*
X148592504Y-78382569D01*
X148681071Y-78367311D01*
X148742874Y-78353097D01*
X148772321Y-78340604D01*
X148776742Y-78332591D01*
X148786575Y-78290406D01*
X148795603Y-78220925D01*
X148803136Y-78131591D01*
X148808486Y-78029845D01*
X148810965Y-77923130D01*
X148810984Y-77882658D01*
X148806980Y-77749515D01*
X148796308Y-77609079D01*
X148778351Y-77458500D01*
X148752497Y-77294928D01*
X148718130Y-77115511D01*
X148674636Y-76917399D01*
X148621401Y-76697741D01*
X148601881Y-76622824D01*
X149063372Y-76622824D01*
X149080098Y-76667154D01*
X149130688Y-76698479D01*
X149144930Y-76702438D01*
X149192736Y-76704563D01*
X149264961Y-76695999D01*
X149367469Y-76676195D01*
X149423883Y-76664489D01*
X149493824Y-76651201D01*
X149542972Y-76643414D01*
X149563171Y-76642531D01*
X149576303Y-76665197D01*
X149596515Y-76712093D01*
X149619809Y-76772889D01*
X149642721Y-76837752D01*
X149661785Y-76896851D01*
X149673536Y-76940356D01*
X149674511Y-76958436D01*
X149669476Y-76960759D01*
X149636705Y-76978093D01*
X149582818Y-77007805D01*
X149516487Y-77045139D01*
X149456552Y-77081780D01*
X149362772Y-77156503D01*
X149306673Y-77231616D01*
X149288025Y-77307383D01*
X149288944Y-77323878D01*
X149307639Y-77369195D01*
X149351707Y-77393574D01*
X149422847Y-77397180D01*
X149522755Y-77380177D01*
X149653130Y-77342730D01*
X149670922Y-77336966D01*
X149962532Y-77252010D01*
X150267136Y-77181801D01*
X150357793Y-77158963D01*
X150442299Y-77122738D01*
X150490947Y-77078094D01*
X150504608Y-77024141D01*
X150484153Y-76959987D01*
X150469721Y-76940281D01*
X150414968Y-76900324D01*
X150337426Y-76868017D01*
X150247496Y-76846243D01*
X150155577Y-76837881D01*
X150072066Y-76845814D01*
X150057186Y-76848961D01*
X150003080Y-76854115D01*
X149975533Y-76842056D01*
X149975296Y-76841749D01*
X149960739Y-76814461D01*
X149940175Y-76766674D01*
X149917786Y-76709485D01*
X149897753Y-76653990D01*
X149884257Y-76611285D01*
X149881480Y-76592466D01*
X149881488Y-76592460D01*
X149899830Y-76583001D01*
X149945584Y-76560531D01*
X150011865Y-76528407D01*
X150091788Y-76489982D01*
X150171901Y-76450717D01*
X150238004Y-76414960D01*
X150281614Y-76385299D01*
X150309462Y-76357056D01*
X150328280Y-76325549D01*
X150334015Y-76313405D01*
X150349132Y-76273008D01*
X150345212Y-76243749D01*
X150321140Y-76207143D01*
X150318143Y-76203208D01*
X150283433Y-76170734D01*
X150238007Y-76153511D01*
X150175709Y-76151241D01*
X150090388Y-76163623D01*
X149975889Y-76190359D01*
X149945101Y-76198402D01*
X149833241Y-76229010D01*
X149713104Y-76263649D01*
X149591106Y-76300290D01*
X149473664Y-76336907D01*
X149367196Y-76371470D01*
X149278118Y-76401953D01*
X149212846Y-76426328D01*
X149177798Y-76442566D01*
X149174954Y-76444476D01*
X149134367Y-76482221D01*
X149097068Y-76531535D01*
X149079953Y-76562724D01*
X149079160Y-76565598D01*
X149063372Y-76622824D01*
X148601881Y-76622824D01*
X148557811Y-76453686D01*
X148522363Y-76324703D01*
X148483250Y-76182384D01*
X148397104Y-75880983D01*
X148337192Y-75677293D01*
X148795036Y-75677293D01*
X148816528Y-75723444D01*
X148822478Y-75728844D01*
X148850659Y-75742357D01*
X148892340Y-75743554D01*
X148954819Y-75731907D01*
X149045393Y-75706887D01*
X149053528Y-75704483D01*
X149117537Y-75686961D01*
X149164672Y-75676452D01*
X149185236Y-75675156D01*
X149190036Y-75691318D01*
X149197411Y-75736100D01*
X149204925Y-75798075D01*
X149210431Y-75861442D01*
X149208536Y-75899393D01*
X149196482Y-75920877D01*
X149171698Y-75936620D01*
X149153860Y-75947388D01*
X149105981Y-75983309D01*
X149055128Y-76028038D01*
X149014532Y-76073761D01*
X148985317Y-76131394D01*
X148986738Y-76178361D01*
X149018213Y-76209978D01*
X149079160Y-76221558D01*
X149084698Y-76220511D01*
X149121233Y-76205976D01*
X149183665Y-76176457D01*
X149266571Y-76134667D01*
X149364525Y-76083317D01*
X149472104Y-76025119D01*
X149489314Y-76015673D01*
X149605911Y-75951877D01*
X149719730Y-75889910D01*
X149823142Y-75833906D01*
X149908517Y-75787999D01*
X149968225Y-75756321D01*
X150067060Y-75698530D01*
X150144468Y-75635959D01*
X150187189Y-75574557D01*
X150196853Y-75512586D01*
X150177076Y-75454358D01*
X150126597Y-75407112D01*
X150044344Y-75373913D01*
X149928929Y-75354212D01*
X149778959Y-75347460D01*
X149698824Y-75348624D01*
X149518996Y-75361553D01*
X149327230Y-75389899D01*
X149112814Y-75435072D01*
X149068085Y-75446054D01*
X149026407Y-75456287D01*
X148960229Y-75475793D01*
X148914770Y-75495204D01*
X148881377Y-75518284D01*
X148851399Y-75548797D01*
X148847738Y-75553032D01*
X148805816Y-75618608D01*
X148795036Y-75677293D01*
X148337192Y-75677293D01*
X148298760Y-75546633D01*
X148270926Y-75452568D01*
X148183824Y-75149935D01*
X148109158Y-74875387D01*
X148091590Y-74805596D01*
X148570874Y-74805596D01*
X148570968Y-74872503D01*
X148594126Y-74957261D01*
X148619766Y-75011827D01*
X148688981Y-75090916D01*
X148787791Y-75148257D01*
X148914668Y-75183083D01*
X149068085Y-75194630D01*
X149157436Y-75190614D01*
X149311499Y-75166855D01*
X149459687Y-75124326D01*
X149595612Y-75065983D01*
X149712887Y-74994780D01*
X149805124Y-74913671D01*
X149865936Y-74825610D01*
X149881199Y-74783580D01*
X149894706Y-74694740D01*
X149890195Y-74603948D01*
X149867568Y-74528869D01*
X149828754Y-74479136D01*
X149768263Y-74438961D01*
X149700045Y-74417785D01*
X149635010Y-74418825D01*
X149584068Y-74445296D01*
X149576903Y-74452867D01*
X149556885Y-74489990D01*
X149565399Y-74531189D01*
X149603698Y-74585409D01*
X149636871Y-74638003D01*
X149640971Y-74691365D01*
X149609513Y-74742766D01*
X149541442Y-74795775D01*
X149533187Y-74800938D01*
X149385824Y-74873409D01*
X149225179Y-74920436D01*
X149066096Y-74937590D01*
X149019225Y-74936731D01*
X148929922Y-74924394D01*
X148868045Y-74894352D01*
X148827505Y-74842628D01*
X148802213Y-74765245D01*
X148796913Y-74742823D01*
X148775510Y-74687393D01*
X148748426Y-74665712D01*
X148714893Y-74662918D01*
X148649076Y-74682720D01*
X148598649Y-74736021D01*
X148594101Y-74743967D01*
X148570874Y-74805596D01*
X148091590Y-74805596D01*
X148045701Y-74623299D01*
X147992230Y-74388044D01*
X147947520Y-74163996D01*
X147910344Y-73945531D01*
X147883590Y-73756130D01*
X148303804Y-73756130D01*
X148306639Y-73814276D01*
X148342179Y-73869789D01*
X148349426Y-73876234D01*
X148383569Y-73896361D01*
X148437213Y-73915309D01*
X148516447Y-73934943D01*
X148627358Y-73957126D01*
X148708098Y-73972471D01*
X148782187Y-73987923D01*
X148829439Y-74000774D01*
X148855813Y-74013194D01*
X148867267Y-74027354D01*
X148869761Y-74045424D01*
X148862472Y-74073968D01*
X148834332Y-74097510D01*
X148777117Y-74121712D01*
X148691145Y-74159778D01*
X148604473Y-74214471D01*
X148534295Y-74276314D01*
X148485377Y-74340155D01*
X148462487Y-74400842D01*
X148470391Y-74453223D01*
X148490311Y-74477833D01*
X148522363Y-74488359D01*
X148570286Y-74480831D01*
X148639404Y-74454340D01*
X148735040Y-74407976D01*
X148767855Y-74391460D01*
X148917120Y-74324841D01*
X149060179Y-74277854D01*
X149211524Y-74246459D01*
X149385650Y-74226615D01*
X149432902Y-74222503D01*
X149542990Y-74209262D01*
X149620997Y-74192377D01*
X149671298Y-74170159D01*
X149698270Y-74140920D01*
X149706288Y-74102974D01*
X149706285Y-74102394D01*
X149689463Y-74055515D01*
X149671749Y-74035808D01*
X149644818Y-74005848D01*
X149633723Y-73996604D01*
X149606004Y-73976441D01*
X149577308Y-73964656D01*
X149538390Y-73959727D01*
X149480005Y-73960129D01*
X149392909Y-73964340D01*
X149341346Y-73967563D01*
X149261578Y-73974419D01*
X149199172Y-73982107D01*
X149164447Y-73989490D01*
X149159211Y-73986676D01*
X149173149Y-73962435D01*
X149207018Y-73919550D01*
X149257202Y-73862954D01*
X149310931Y-73802768D01*
X149384235Y-73709309D01*
X149426575Y-73636080D01*
X149437846Y-73583391D01*
X149417943Y-73551551D01*
X149366761Y-73540869D01*
X149363616Y-73540973D01*
X149315102Y-73555687D01*
X149249270Y-73591265D01*
X149174681Y-73641938D01*
X149099896Y-73701936D01*
X149033478Y-73765487D01*
X148978557Y-73824130D01*
X148906523Y-73787381D01*
X148892370Y-73780659D01*
X148831268Y-73756093D01*
X148821456Y-73752648D01*
X148751562Y-73728106D01*
X148666758Y-73701535D01*
X148660760Y-73699789D01*
X148544070Y-73671436D01*
X148454420Y-73662755D01*
X148386517Y-73673795D01*
X148335068Y-73704605D01*
X148334111Y-73705480D01*
X148303804Y-73756130D01*
X147883590Y-73756130D01*
X147879478Y-73727023D01*
X147853697Y-73502845D01*
X147846309Y-73426891D01*
X147832173Y-73250444D01*
X147821267Y-73068572D01*
X147813784Y-72888474D01*
X147809920Y-72717348D01*
X147809909Y-72683134D01*
X148263279Y-72683134D01*
X148295351Y-72781218D01*
X148359073Y-72866352D01*
X148451965Y-72932536D01*
X148551563Y-72970381D01*
X148680694Y-72996398D01*
X148821456Y-73007042D01*
X148962332Y-73002122D01*
X149091807Y-72981449D01*
X149198365Y-72944833D01*
X149242242Y-72919657D01*
X149314221Y-72855702D01*
X149360662Y-72780877D01*
X149380495Y-72701790D01*
X149372649Y-72625050D01*
X149336052Y-72557263D01*
X149295747Y-72525570D01*
X149269635Y-72505038D01*
X149219997Y-72484184D01*
X149163452Y-72477510D01*
X149130005Y-72497109D01*
X149123144Y-72540187D01*
X149146352Y-72603948D01*
X149147002Y-72605156D01*
X149168294Y-72650886D01*
X149170060Y-72683213D01*
X149153401Y-72720290D01*
X149129720Y-72753500D01*
X149072171Y-72795137D01*
X148989316Y-72818464D01*
X148876252Y-72825341D01*
X148872413Y-72825315D01*
X148782651Y-72820435D01*
X148710593Y-72804755D01*
X148637187Y-72774200D01*
X148624842Y-72768049D01*
X148549979Y-72721850D01*
X148507681Y-72671876D01*
X148493473Y-72609914D01*
X148502877Y-72527749D01*
X148512415Y-72466600D01*
X148507942Y-72415449D01*
X148482497Y-72388798D01*
X148433472Y-72381139D01*
X148431327Y-72381165D01*
X148373882Y-72400091D01*
X148321229Y-72448971D01*
X148281656Y-72520213D01*
X148265335Y-72578100D01*
X148263279Y-72683134D01*
X147809909Y-72683134D01*
X147809870Y-72562395D01*
X147813827Y-72430812D01*
X147821987Y-72329799D01*
X147824043Y-72313634D01*
X147871495Y-72056126D01*
X148404157Y-72056126D01*
X148405178Y-72115139D01*
X148420032Y-72154302D01*
X148449919Y-72178406D01*
X148496040Y-72192243D01*
X148559596Y-72200605D01*
X148564306Y-72201079D01*
X148636134Y-72209126D01*
X148732517Y-72220933D01*
X148841424Y-72234988D01*
X148950823Y-72249778D01*
X149025172Y-72259898D01*
X149142555Y-72274418D01*
X149230899Y-72282428D01*
X149295747Y-72283923D01*
X149342642Y-72278895D01*
X149377126Y-72267338D01*
X149404743Y-72249246D01*
X149419364Y-72236457D01*
X149437935Y-72207948D01*
X149428997Y-72177951D01*
X149421338Y-72167510D01*
X149399168Y-72151153D01*
X149381146Y-72137856D01*
X149314026Y-72111377D01*
X149217762Y-72087595D01*
X149090136Y-72066032D01*
X148928929Y-72046209D01*
X148731924Y-72027649D01*
X148603594Y-72016885D01*
X148603594Y-71938741D01*
X148604919Y-71905685D01*
X148612873Y-71830187D01*
X148625623Y-71753944D01*
X148636486Y-71678790D01*
X148635452Y-71608510D01*
X148620874Y-71561652D01*
X148593725Y-71544612D01*
X148559046Y-71554709D01*
X148520579Y-71596590D01*
X148486406Y-71672715D01*
X148455458Y-71784944D01*
X148438810Y-71859382D01*
X148415768Y-71972471D01*
X148404157Y-72056126D01*
X147871495Y-72056126D01*
X147877151Y-72025432D01*
X147963025Y-71721562D01*
X148080902Y-71404090D01*
X148149165Y-71253476D01*
X148664105Y-71253476D01*
X148691896Y-71348847D01*
X148744923Y-71433100D01*
X148819718Y-71496081D01*
X148843883Y-71508455D01*
X148914985Y-71537691D01*
X149007832Y-71570259D01*
X149112145Y-71603013D01*
X149217641Y-71632806D01*
X149314042Y-71656494D01*
X149391065Y-71670928D01*
X149399168Y-71671960D01*
X149473744Y-71670894D01*
X149519574Y-71647428D01*
X149535180Y-71602266D01*
X149534652Y-71593221D01*
X149522403Y-71562966D01*
X149490550Y-71535763D01*
X149434607Y-71509355D01*
X149350086Y-71481483D01*
X149232501Y-71449887D01*
X149106341Y-71416859D01*
X148998283Y-71385207D01*
X148921280Y-71357819D01*
X148871961Y-71333481D01*
X148846954Y-71310977D01*
X148832742Y-71268450D01*
X148839574Y-71218471D01*
X148868511Y-71184053D01*
X148904839Y-71172363D01*
X148981740Y-71165352D01*
X149083923Y-71168593D01*
X149204907Y-71181799D01*
X149338210Y-71204687D01*
X149439971Y-71222715D01*
X149528220Y-71230807D01*
X149587123Y-71224622D01*
X149620017Y-71203735D01*
X149630240Y-71167726D01*
X149617899Y-71125243D01*
X149574966Y-71083866D01*
X149499515Y-71047020D01*
X149389727Y-71013837D01*
X149243783Y-70983450D01*
X149195789Y-70975681D01*
X149045610Y-70962468D01*
X148915837Y-70968713D01*
X148809914Y-70993715D01*
X148731283Y-71036777D01*
X148683388Y-71097200D01*
X148665023Y-71157142D01*
X148664105Y-71253476D01*
X148149165Y-71253476D01*
X148230020Y-71075081D01*
X148409616Y-70736603D01*
X148425324Y-70709223D01*
X148478452Y-70621138D01*
X148928720Y-70621138D01*
X148931468Y-70673168D01*
X148950562Y-70697547D01*
X148955870Y-70699155D01*
X149000904Y-70712399D01*
X149072244Y-70733062D01*
X149161391Y-70758712D01*
X149259846Y-70786918D01*
X149359109Y-70815249D01*
X149450681Y-70841272D01*
X149526064Y-70862558D01*
X149576757Y-70876675D01*
X149631511Y-70890844D01*
X149671749Y-70896813D01*
X149697662Y-70891110D01*
X149721115Y-70873473D01*
X149742674Y-70849986D01*
X149786551Y-70781925D01*
X149826939Y-70696603D01*
X149857866Y-70607558D01*
X149873362Y-70528325D01*
X149875842Y-70492823D01*
X149874075Y-70446371D01*
X149860065Y-70416094D01*
X149829405Y-70387915D01*
X149792259Y-70367035D01*
X149717087Y-70348646D01*
X149636495Y-70348731D01*
X149568110Y-70368595D01*
X149563121Y-70371207D01*
X149532801Y-70380396D01*
X149518722Y-70364025D01*
X149487421Y-70312951D01*
X149427025Y-70261927D01*
X149351085Y-70222654D01*
X149271425Y-70201097D01*
X149199873Y-70203220D01*
X149190261Y-70206105D01*
X149128862Y-70242205D01*
X149065866Y-70304242D01*
X149009148Y-70383210D01*
X148966579Y-70470101D01*
X148941863Y-70547917D01*
X148928720Y-70621138D01*
X148478452Y-70621138D01*
X148519882Y-70552448D01*
X148632962Y-70375660D01*
X148759358Y-70186288D01*
X148893863Y-69991762D01*
X149031271Y-69799512D01*
X149166376Y-69616965D01*
X149293971Y-69451553D01*
X149408849Y-69310704D01*
X149482460Y-69224198D01*
X149596841Y-69091688D01*
X149695258Y-68980233D01*
X149776136Y-68891545D01*
X149837898Y-68827336D01*
X149878968Y-68789321D01*
X149897771Y-68779212D01*
X149900615Y-68786335D01*
G37*
%TD*%
D13*
%TO.C,J5*%
X185850000Y-76881000D03*
X185850000Y-71101000D03*
D14*
X185320000Y-78311000D03*
D15*
X189500000Y-78311000D03*
D14*
X185320000Y-69671000D03*
D15*
X189500000Y-69671000D03*
%TD*%
D16*
%TO.C,J1*%
X163500000Y-67000000D03*
D17*
X161000000Y-67000000D03*
%TD*%
D18*
%TO.C,U3*%
X176750000Y-81061000D03*
X176750000Y-80061000D03*
X176250000Y-80561000D03*
X175750000Y-81061000D03*
X175750000Y-80061000D03*
%TD*%
D19*
%TO.C,J4*%
X135740000Y-61230000D03*
D20*
X138280000Y-61230000D03*
X140820000Y-61230000D03*
X143360000Y-61230000D03*
X145900000Y-61230000D03*
X148440000Y-61230000D03*
X150980000Y-61230000D03*
X153520000Y-61230000D03*
X156060000Y-61230000D03*
X158600000Y-61230000D03*
X161140000Y-61230000D03*
X163680000Y-61230000D03*
X166220000Y-61230000D03*
X168760000Y-61230000D03*
X171300000Y-61230000D03*
X173840000Y-61230000D03*
X176380000Y-61230000D03*
X178920000Y-61230000D03*
X181460000Y-61230000D03*
X184000000Y-61230000D03*
X186540000Y-61230000D03*
X189080000Y-61230000D03*
%TD*%
D19*
%TO.C,J2*%
X135740000Y-85950000D03*
D20*
X138280000Y-85950000D03*
X140820000Y-85950000D03*
X143360000Y-85950000D03*
X145900000Y-85950000D03*
X148440000Y-85950000D03*
X150980000Y-85950000D03*
X153520000Y-85950000D03*
X156060000Y-85950000D03*
X158600000Y-85950000D03*
X161140000Y-85950000D03*
X163680000Y-85950000D03*
X166220000Y-85950000D03*
X168760000Y-85950000D03*
X171300000Y-85950000D03*
X173840000Y-85950000D03*
X176380000Y-85950000D03*
X178920000Y-85950000D03*
X181460000Y-85950000D03*
X184000000Y-85950000D03*
X186540000Y-85950000D03*
X189080000Y-85950000D03*
%TD*%
M02*
