%TF.GenerationSoftware,KiCad,Pcbnew,9.0.2*%
%TF.CreationDate,2025-11-07T15:55:12+08:00*%
%TF.ProjectId,TrlBoard,54726c42-6f61-4726-942e-6b696361645f,rev?*%
%TF.SameCoordinates,Original*%
%TF.FileFunction,Legend,Top*%
%TF.FilePolarity,Positive*%
%FSLAX46Y46*%
G04 Gerber Fmt 4.6, Leading zero omitted, Abs format (unit mm)*
G04 Created by KiCad (PCBNEW 9.0.2) date 2025-11-07 15:55:12*
%MOMM*%
%LPD*%
G01*
G04 APERTURE LIST*
%ADD10C,0.250000*%
%ADD11C,0.037500*%
%ADD12C,0.150000*%
%ADD13C,0.120000*%
%ADD14C,0.127000*%
%ADD15C,0.200000*%
%ADD16C,0.100000*%
G04 APERTURE END LIST*
D10*
G36*
X157481415Y-66299033D02*
G01*
X157507070Y-66310912D01*
X157527378Y-66329850D01*
X157541142Y-66354997D01*
X157548270Y-66388435D01*
X157551461Y-66454648D01*
X157551461Y-66515465D01*
X157344344Y-66515465D01*
X157344344Y-66461487D01*
X157347282Y-66401613D01*
X157354553Y-66363146D01*
X157364310Y-66339915D01*
X157385466Y-66315071D01*
X157413170Y-66300168D01*
X157449612Y-66294853D01*
X157481415Y-66299033D01*
G37*
G36*
X157854924Y-65395169D02*
G01*
X157906957Y-65414611D01*
X157951043Y-65446414D01*
X157985252Y-65488415D01*
X158005590Y-65536279D01*
X158012592Y-65591922D01*
X158005637Y-65647581D01*
X157985509Y-65695080D01*
X157951775Y-65736391D01*
X157908151Y-65767497D01*
X157855924Y-65786656D01*
X157792712Y-65793422D01*
X157731383Y-65786660D01*
X157679898Y-65767356D01*
X157636092Y-65735720D01*
X157602073Y-65693949D01*
X157581862Y-65646422D01*
X157574909Y-65591250D01*
X157581872Y-65534636D01*
X157601943Y-65486696D01*
X157635420Y-65445376D01*
X157678791Y-65414219D01*
X157730452Y-65395086D01*
X157792712Y-65388345D01*
X157854924Y-65395169D01*
G37*
G36*
X158309539Y-68368788D02*
G01*
X156988778Y-68368788D01*
X156988778Y-68052546D01*
X157160673Y-68052546D01*
X157160673Y-68243788D01*
X158165000Y-68243788D01*
X158165000Y-67773804D01*
X157981329Y-67773804D01*
X157981329Y-68052546D01*
X157160673Y-68052546D01*
X156988778Y-68052546D01*
X156988778Y-67575723D01*
X157113778Y-67575723D01*
X157117752Y-67607059D01*
X157129424Y-67634762D01*
X157149255Y-67659804D01*
X157174643Y-67679206D01*
X157202835Y-67690688D01*
X157234801Y-67694608D01*
X157268149Y-67690620D01*
X157297363Y-67678987D01*
X157310256Y-67669329D01*
X157422501Y-67669329D01*
X158165000Y-67669329D01*
X158165000Y-67482117D01*
X157422501Y-67482117D01*
X157422501Y-67669329D01*
X157310256Y-67669329D01*
X157323461Y-67659437D01*
X157343889Y-67634119D01*
X157355891Y-67606100D01*
X157359975Y-67574380D01*
X157355990Y-67543510D01*
X157344243Y-67516044D01*
X157324193Y-67491032D01*
X157298559Y-67471618D01*
X157270006Y-67460104D01*
X157237548Y-67456166D01*
X157204697Y-67460143D01*
X157175844Y-67471763D01*
X157149987Y-67491337D01*
X157129705Y-67516620D01*
X157117814Y-67544426D01*
X157113778Y-67575723D01*
X156988778Y-67575723D01*
X156988778Y-67287761D01*
X157707777Y-67287761D01*
X157879724Y-67287761D01*
X157879724Y-66940753D01*
X157707777Y-66940753D01*
X157707777Y-67287761D01*
X156988778Y-67287761D01*
X156988778Y-66503863D01*
X157160673Y-66503863D01*
X157160673Y-66706768D01*
X158165000Y-66706768D01*
X158165000Y-66515465D01*
X157735132Y-66515465D01*
X157730281Y-66380582D01*
X157719562Y-66313965D01*
X157696244Y-66254337D01*
X157664249Y-66205096D01*
X157623391Y-66164732D01*
X157574689Y-66134759D01*
X157517572Y-66116233D01*
X157449918Y-66109716D01*
X157388338Y-66114682D01*
X157334963Y-66128868D01*
X157288351Y-66151726D01*
X157247375Y-66183324D01*
X157215111Y-66221329D01*
X157190837Y-66266520D01*
X157175840Y-66316606D01*
X157164954Y-66392874D01*
X157162308Y-66461487D01*
X157160673Y-66503863D01*
X156988778Y-66503863D01*
X156988778Y-65593937D01*
X157402962Y-65593937D01*
X157409300Y-65664697D01*
X157428005Y-65730478D01*
X157459259Y-65792451D01*
X157504078Y-65851491D01*
X157553476Y-65897972D01*
X157606515Y-65933373D01*
X157663753Y-65958590D01*
X157726032Y-65973957D01*
X157794422Y-65979230D01*
X157873593Y-65971992D01*
X157945062Y-65950872D01*
X158010416Y-65915947D01*
X158070783Y-65866206D01*
X158120994Y-65806092D01*
X158156125Y-65741369D01*
X158177299Y-65670943D01*
X158184539Y-65593265D01*
X158178693Y-65522232D01*
X158161494Y-65456335D01*
X158132943Y-65394512D01*
X158094099Y-65338591D01*
X158046655Y-65291329D01*
X157989816Y-65252058D01*
X157927102Y-65222957D01*
X157861840Y-65205622D01*
X157793079Y-65199790D01*
X157724772Y-65205600D01*
X157660186Y-65222844D01*
X157598356Y-65251752D01*
X157542472Y-65290820D01*
X157495098Y-65338697D01*
X157455596Y-65396222D01*
X157426254Y-65459582D01*
X157408816Y-65525175D01*
X157403191Y-65591250D01*
X157402962Y-65593937D01*
X156988778Y-65593937D01*
X156988778Y-65074790D01*
X158309539Y-65074790D01*
X158309539Y-68368788D01*
G37*
D11*
X172250000Y-80736835D02*
X172150000Y-80593978D01*
X172078571Y-80736835D02*
X172078571Y-80436835D01*
X172078571Y-80436835D02*
X172192857Y-80436835D01*
X172192857Y-80436835D02*
X172221428Y-80451121D01*
X172221428Y-80451121D02*
X172235714Y-80465407D01*
X172235714Y-80465407D02*
X172250000Y-80493978D01*
X172250000Y-80493978D02*
X172250000Y-80536835D01*
X172250000Y-80536835D02*
X172235714Y-80565407D01*
X172235714Y-80565407D02*
X172221428Y-80579692D01*
X172221428Y-80579692D02*
X172192857Y-80593978D01*
X172192857Y-80593978D02*
X172078571Y-80593978D01*
X172364285Y-80465407D02*
X172378571Y-80451121D01*
X172378571Y-80451121D02*
X172407143Y-80436835D01*
X172407143Y-80436835D02*
X172478571Y-80436835D01*
X172478571Y-80436835D02*
X172507143Y-80451121D01*
X172507143Y-80451121D02*
X172521428Y-80465407D01*
X172521428Y-80465407D02*
X172535714Y-80493978D01*
X172535714Y-80493978D02*
X172535714Y-80522550D01*
X172535714Y-80522550D02*
X172521428Y-80565407D01*
X172521428Y-80565407D02*
X172350000Y-80736835D01*
X172350000Y-80736835D02*
X172535714Y-80736835D01*
X181450000Y-83359264D02*
X181435714Y-83373550D01*
X181435714Y-83373550D02*
X181392857Y-83387835D01*
X181392857Y-83387835D02*
X181364285Y-83387835D01*
X181364285Y-83387835D02*
X181321428Y-83373550D01*
X181321428Y-83373550D02*
X181292857Y-83344978D01*
X181292857Y-83344978D02*
X181278571Y-83316407D01*
X181278571Y-83316407D02*
X181264285Y-83259264D01*
X181264285Y-83259264D02*
X181264285Y-83216407D01*
X181264285Y-83216407D02*
X181278571Y-83159264D01*
X181278571Y-83159264D02*
X181292857Y-83130692D01*
X181292857Y-83130692D02*
X181321428Y-83102121D01*
X181321428Y-83102121D02*
X181364285Y-83087835D01*
X181364285Y-83087835D02*
X181392857Y-83087835D01*
X181392857Y-83087835D02*
X181435714Y-83102121D01*
X181435714Y-83102121D02*
X181450000Y-83116407D01*
X181707143Y-83087835D02*
X181650000Y-83087835D01*
X181650000Y-83087835D02*
X181621428Y-83102121D01*
X181621428Y-83102121D02*
X181607143Y-83116407D01*
X181607143Y-83116407D02*
X181578571Y-83159264D01*
X181578571Y-83159264D02*
X181564285Y-83216407D01*
X181564285Y-83216407D02*
X181564285Y-83330692D01*
X181564285Y-83330692D02*
X181578571Y-83359264D01*
X181578571Y-83359264D02*
X181592857Y-83373550D01*
X181592857Y-83373550D02*
X181621428Y-83387835D01*
X181621428Y-83387835D02*
X181678571Y-83387835D01*
X181678571Y-83387835D02*
X181707143Y-83373550D01*
X181707143Y-83373550D02*
X181721428Y-83359264D01*
X181721428Y-83359264D02*
X181735714Y-83330692D01*
X181735714Y-83330692D02*
X181735714Y-83259264D01*
X181735714Y-83259264D02*
X181721428Y-83230692D01*
X181721428Y-83230692D02*
X181707143Y-83216407D01*
X181707143Y-83216407D02*
X181678571Y-83202121D01*
X181678571Y-83202121D02*
X181621428Y-83202121D01*
X181621428Y-83202121D02*
X181592857Y-83216407D01*
X181592857Y-83216407D02*
X181578571Y-83230692D01*
X181578571Y-83230692D02*
X181564285Y-83259264D01*
D10*
G36*
X181731415Y-78457616D02*
G01*
X181757070Y-78469494D01*
X181777378Y-78488433D01*
X181791142Y-78513580D01*
X181798270Y-78547018D01*
X181801461Y-78613231D01*
X181801461Y-78674048D01*
X181594344Y-78674048D01*
X181594344Y-78620070D01*
X181597282Y-78560196D01*
X181604553Y-78521729D01*
X181614310Y-78498498D01*
X181635466Y-78473654D01*
X181663170Y-78458751D01*
X181699612Y-78453436D01*
X181731415Y-78457616D01*
G37*
G36*
X182563447Y-78990351D02*
G01*
X181262226Y-78990351D01*
X181262226Y-78662446D01*
X181410673Y-78662446D01*
X181410673Y-78865351D01*
X182415000Y-78865351D01*
X182415000Y-78674048D01*
X181985132Y-78674048D01*
X181980281Y-78539165D01*
X181969562Y-78472548D01*
X181946244Y-78412920D01*
X181914249Y-78363679D01*
X181873391Y-78323315D01*
X181824689Y-78293342D01*
X181767572Y-78274816D01*
X181699918Y-78268299D01*
X181638338Y-78273265D01*
X181584963Y-78287451D01*
X181538351Y-78310309D01*
X181497375Y-78341907D01*
X181465111Y-78379912D01*
X181440837Y-78425103D01*
X181425840Y-78475189D01*
X181414954Y-78551457D01*
X181412308Y-78620070D01*
X181410673Y-78662446D01*
X181262226Y-78662446D01*
X181262226Y-77587228D01*
X181387226Y-77587228D01*
X181394618Y-77686338D01*
X181415994Y-77775095D01*
X181450752Y-77855200D01*
X181499114Y-77927993D01*
X181562103Y-77994381D01*
X181623551Y-78042236D01*
X181688181Y-78078863D01*
X181756556Y-78104967D01*
X181829429Y-78120812D01*
X181907707Y-78126211D01*
X181979311Y-78121704D01*
X182047828Y-78108342D01*
X182113852Y-78086141D01*
X182177901Y-78054831D01*
X182237440Y-78015526D01*
X182289049Y-77970304D01*
X182333370Y-77918908D01*
X182370792Y-77860841D01*
X182399970Y-77798479D01*
X182421067Y-77731636D01*
X182434010Y-77659644D01*
X182438447Y-77581733D01*
X182431188Y-77485905D01*
X182410355Y-77401630D01*
X182376714Y-77326988D01*
X182329939Y-77259761D01*
X182270672Y-77200951D01*
X182197501Y-77150034D01*
X182117023Y-77111819D01*
X182034602Y-77089247D01*
X181949045Y-77081707D01*
X181906974Y-77083050D01*
X181906974Y-77588572D01*
X182086737Y-77588572D01*
X182086737Y-77297556D01*
X182141125Y-77329459D01*
X182182978Y-77365970D01*
X182214110Y-77407221D01*
X182236064Y-77454157D01*
X182249884Y-77509256D01*
X182254776Y-77574222D01*
X182248229Y-77648701D01*
X182229227Y-77715287D01*
X182198018Y-77775497D01*
X182153904Y-77830433D01*
X182100140Y-77876212D01*
X182041941Y-77908263D01*
X181978284Y-77927609D01*
X181907707Y-77934236D01*
X181839463Y-77927853D01*
X181777805Y-77909206D01*
X181721337Y-77878301D01*
X181669082Y-77834158D01*
X181626170Y-77781179D01*
X181595795Y-77722937D01*
X181577282Y-77658341D01*
X181570896Y-77585885D01*
X181576287Y-77519909D01*
X181592225Y-77457950D01*
X181618809Y-77399091D01*
X181656733Y-77342612D01*
X181707245Y-77288031D01*
X181575048Y-77153453D01*
X181513128Y-77218230D01*
X181467287Y-77280903D01*
X181435341Y-77342008D01*
X181408780Y-77419315D01*
X181392688Y-77500786D01*
X181387226Y-77587228D01*
X181262226Y-77587228D01*
X181262226Y-76956707D01*
X182563447Y-76956707D01*
X182563447Y-78990351D01*
G37*
G36*
X182813447Y-71169163D02*
G01*
X181512226Y-71169163D01*
X181512226Y-70508599D01*
X181637226Y-70508599D01*
X181641695Y-70580843D01*
X181654948Y-70650040D01*
X181676962Y-70716770D01*
X181707995Y-70781541D01*
X181746973Y-70842230D01*
X181791025Y-70894447D01*
X181840297Y-70938937D01*
X181895146Y-70976202D01*
X181954442Y-71005546D01*
X182018066Y-71026726D01*
X182086697Y-71039710D01*
X182161127Y-71044163D01*
X182253100Y-71037803D01*
X182335732Y-71019416D01*
X182410453Y-70989595D01*
X182478428Y-70948313D01*
X182540497Y-70894931D01*
X182593286Y-70832476D01*
X182634204Y-70763909D01*
X182663823Y-70688364D01*
X182682113Y-70604659D01*
X182688447Y-70511347D01*
X182683509Y-70427455D01*
X182669311Y-70352487D01*
X182646498Y-70285239D01*
X182613818Y-70222186D01*
X182564782Y-70152424D01*
X182496106Y-70074824D01*
X182361039Y-70204639D01*
X182413212Y-70262212D01*
X182449853Y-70312388D01*
X182473818Y-70356253D01*
X182490820Y-70403144D01*
X182501215Y-70453711D01*
X182504776Y-70508599D01*
X182499726Y-70572570D01*
X182484930Y-70631461D01*
X182460507Y-70686225D01*
X182427030Y-70735797D01*
X182386578Y-70776753D01*
X182338569Y-70809873D01*
X182285249Y-70833835D01*
X182226381Y-70848523D01*
X182160821Y-70853592D01*
X182090747Y-70847226D01*
X182027993Y-70828715D01*
X181971097Y-70798217D01*
X181919021Y-70754918D01*
X181875986Y-70702554D01*
X181845649Y-70645374D01*
X181827231Y-70582345D01*
X181820896Y-70512019D01*
X181826446Y-70446219D01*
X181842984Y-70383374D01*
X181870816Y-70322597D01*
X181910868Y-70263181D01*
X181964633Y-70204639D01*
X181837871Y-70070733D01*
X181778454Y-70130004D01*
X181729150Y-70195942D01*
X181689433Y-70269180D01*
X181660329Y-70347276D01*
X181643014Y-70426829D01*
X181637226Y-70508599D01*
X181512226Y-70508599D01*
X181512226Y-69373603D01*
X181660673Y-69373603D01*
X182039738Y-69373603D01*
X182039738Y-69709681D01*
X181660673Y-69709681D01*
X181660673Y-69903732D01*
X182665000Y-69903732D01*
X182665000Y-69709681D01*
X182223408Y-69709681D01*
X182223408Y-69373603D01*
X182665000Y-69373603D01*
X182665000Y-69180285D01*
X181660673Y-69180285D01*
X181660673Y-69373603D01*
X181512226Y-69373603D01*
X181512226Y-68457570D01*
X181637226Y-68457570D01*
X181644618Y-68556679D01*
X181665994Y-68645437D01*
X181700752Y-68725541D01*
X181749114Y-68798335D01*
X181812103Y-68864723D01*
X181873551Y-68912578D01*
X181938181Y-68949205D01*
X182006556Y-68975308D01*
X182079429Y-68991154D01*
X182157707Y-68996553D01*
X182229311Y-68992046D01*
X182297828Y-68978683D01*
X182363852Y-68956483D01*
X182427901Y-68925173D01*
X182487440Y-68885868D01*
X182539049Y-68840645D01*
X182583370Y-68789250D01*
X182620792Y-68731183D01*
X182649970Y-68668821D01*
X182671067Y-68601978D01*
X182684010Y-68529986D01*
X182688447Y-68452075D01*
X182681188Y-68356247D01*
X182660355Y-68271972D01*
X182626714Y-68197329D01*
X182579939Y-68130103D01*
X182520672Y-68071293D01*
X182447501Y-68020375D01*
X182367023Y-67982160D01*
X182284602Y-67959589D01*
X182199045Y-67952049D01*
X182156974Y-67953392D01*
X182156974Y-68458913D01*
X182336737Y-68458913D01*
X182336737Y-68167898D01*
X182391125Y-68199801D01*
X182432978Y-68236312D01*
X182464110Y-68277563D01*
X182486064Y-68324499D01*
X182499884Y-68379598D01*
X182504776Y-68444564D01*
X182498229Y-68519043D01*
X182479227Y-68585629D01*
X182448018Y-68645839D01*
X182403904Y-68700775D01*
X182350140Y-68746554D01*
X182291941Y-68778605D01*
X182228284Y-68797951D01*
X182157707Y-68804578D01*
X182089463Y-68798194D01*
X182027805Y-68779548D01*
X181971337Y-68748643D01*
X181919082Y-68704500D01*
X181876170Y-68651521D01*
X181845795Y-68593278D01*
X181827282Y-68528683D01*
X181820896Y-68456227D01*
X181826287Y-68390251D01*
X181842225Y-68328292D01*
X181868809Y-68269433D01*
X181906733Y-68212954D01*
X181957245Y-68158373D01*
X181825048Y-68023795D01*
X181763128Y-68088572D01*
X181717287Y-68151244D01*
X181685341Y-68212350D01*
X181658780Y-68289657D01*
X181642688Y-68371128D01*
X181637226Y-68457570D01*
X181512226Y-68457570D01*
X181512226Y-67827049D01*
X182813447Y-67827049D01*
X182813447Y-71169163D01*
G37*
D11*
X170150000Y-83487835D02*
X170050000Y-83344978D01*
X169978571Y-83487835D02*
X169978571Y-83187835D01*
X169978571Y-83187835D02*
X170092857Y-83187835D01*
X170092857Y-83187835D02*
X170121428Y-83202121D01*
X170121428Y-83202121D02*
X170135714Y-83216407D01*
X170135714Y-83216407D02*
X170150000Y-83244978D01*
X170150000Y-83244978D02*
X170150000Y-83287835D01*
X170150000Y-83287835D02*
X170135714Y-83316407D01*
X170135714Y-83316407D02*
X170121428Y-83330692D01*
X170121428Y-83330692D02*
X170092857Y-83344978D01*
X170092857Y-83344978D02*
X169978571Y-83344978D01*
X170250000Y-83187835D02*
X170435714Y-83187835D01*
X170435714Y-83187835D02*
X170335714Y-83302121D01*
X170335714Y-83302121D02*
X170378571Y-83302121D01*
X170378571Y-83302121D02*
X170407143Y-83316407D01*
X170407143Y-83316407D02*
X170421428Y-83330692D01*
X170421428Y-83330692D02*
X170435714Y-83359264D01*
X170435714Y-83359264D02*
X170435714Y-83430692D01*
X170435714Y-83430692D02*
X170421428Y-83459264D01*
X170421428Y-83459264D02*
X170407143Y-83473550D01*
X170407143Y-83473550D02*
X170378571Y-83487835D01*
X170378571Y-83487835D02*
X170292857Y-83487835D01*
X170292857Y-83487835D02*
X170264285Y-83473550D01*
X170264285Y-83473550D02*
X170250000Y-83459264D01*
D10*
G36*
X163790405Y-76563447D02*
G01*
X161203123Y-76563447D01*
X161203123Y-76415000D01*
X161328123Y-76415000D01*
X161518022Y-76415000D01*
X161656080Y-76415000D01*
X161842560Y-76415000D01*
X161952530Y-75780701D01*
X162163617Y-76415000D01*
X162332328Y-76415000D01*
X162546162Y-75780701D01*
X162654056Y-76415000D01*
X162838521Y-76415000D01*
X162769946Y-76008396D01*
X162985067Y-76008396D01*
X162990061Y-76129272D01*
X163002661Y-76210733D01*
X163019871Y-76262958D01*
X163047570Y-76309471D01*
X163085685Y-76351142D01*
X163135642Y-76388377D01*
X163191553Y-76415742D01*
X163254471Y-76432592D01*
X163325907Y-76438447D01*
X163405993Y-76431559D01*
X163472087Y-76412252D01*
X163512000Y-76391820D01*
X163548901Y-76365058D01*
X163583095Y-76331468D01*
X163624200Y-76274674D01*
X163648308Y-76218323D01*
X163660103Y-76148170D01*
X163665405Y-76008396D01*
X163665405Y-75410673D01*
X163473491Y-75410673D01*
X163473491Y-76035935D01*
X163469066Y-76128689D01*
X163459447Y-76172650D01*
X163440197Y-76204840D01*
X163408889Y-76231634D01*
X163369719Y-76248761D01*
X163321816Y-76254776D01*
X163276545Y-76249339D01*
X163240178Y-76234016D01*
X163210973Y-76209535D01*
X163191635Y-76178450D01*
X163181446Y-76137415D01*
X163176980Y-76059748D01*
X163176980Y-75410673D01*
X162985067Y-75410673D01*
X162985067Y-76008396D01*
X162769946Y-76008396D01*
X162669138Y-75410673D01*
X162484674Y-75410673D01*
X162248980Y-76111161D01*
X162016766Y-75410673D01*
X161829554Y-75410673D01*
X161656080Y-76415000D01*
X161518022Y-76415000D01*
X161518022Y-75410673D01*
X161328123Y-75410673D01*
X161328123Y-76415000D01*
X161203123Y-76415000D01*
X161203123Y-75285673D01*
X163790405Y-75285673D01*
X163790405Y-76563447D01*
G37*
D11*
X164700000Y-80108264D02*
X164685714Y-80122550D01*
X164685714Y-80122550D02*
X164642857Y-80136835D01*
X164642857Y-80136835D02*
X164614285Y-80136835D01*
X164614285Y-80136835D02*
X164571428Y-80122550D01*
X164571428Y-80122550D02*
X164542857Y-80093978D01*
X164542857Y-80093978D02*
X164528571Y-80065407D01*
X164528571Y-80065407D02*
X164514285Y-80008264D01*
X164514285Y-80008264D02*
X164514285Y-79965407D01*
X164514285Y-79965407D02*
X164528571Y-79908264D01*
X164528571Y-79908264D02*
X164542857Y-79879692D01*
X164542857Y-79879692D02*
X164571428Y-79851121D01*
X164571428Y-79851121D02*
X164614285Y-79836835D01*
X164614285Y-79836835D02*
X164642857Y-79836835D01*
X164642857Y-79836835D02*
X164685714Y-79851121D01*
X164685714Y-79851121D02*
X164700000Y-79865407D01*
X164842857Y-80136835D02*
X164900000Y-80136835D01*
X164900000Y-80136835D02*
X164928571Y-80122550D01*
X164928571Y-80122550D02*
X164942857Y-80108264D01*
X164942857Y-80108264D02*
X164971428Y-80065407D01*
X164971428Y-80065407D02*
X164985714Y-80008264D01*
X164985714Y-80008264D02*
X164985714Y-79893978D01*
X164985714Y-79893978D02*
X164971428Y-79865407D01*
X164971428Y-79865407D02*
X164957143Y-79851121D01*
X164957143Y-79851121D02*
X164928571Y-79836835D01*
X164928571Y-79836835D02*
X164871428Y-79836835D01*
X164871428Y-79836835D02*
X164842857Y-79851121D01*
X164842857Y-79851121D02*
X164828571Y-79865407D01*
X164828571Y-79865407D02*
X164814285Y-79893978D01*
X164814285Y-79893978D02*
X164814285Y-79965407D01*
X164814285Y-79965407D02*
X164828571Y-79993978D01*
X164828571Y-79993978D02*
X164842857Y-80008264D01*
X164842857Y-80008264D02*
X164871428Y-80022550D01*
X164871428Y-80022550D02*
X164928571Y-80022550D01*
X164928571Y-80022550D02*
X164957143Y-80008264D01*
X164957143Y-80008264D02*
X164971428Y-79993978D01*
X164971428Y-79993978D02*
X164985714Y-79965407D01*
X170200000Y-63609264D02*
X170185714Y-63623550D01*
X170185714Y-63623550D02*
X170142857Y-63637835D01*
X170142857Y-63637835D02*
X170114285Y-63637835D01*
X170114285Y-63637835D02*
X170071428Y-63623550D01*
X170071428Y-63623550D02*
X170042857Y-63594978D01*
X170042857Y-63594978D02*
X170028571Y-63566407D01*
X170028571Y-63566407D02*
X170014285Y-63509264D01*
X170014285Y-63509264D02*
X170014285Y-63466407D01*
X170014285Y-63466407D02*
X170028571Y-63409264D01*
X170028571Y-63409264D02*
X170042857Y-63380692D01*
X170042857Y-63380692D02*
X170071428Y-63352121D01*
X170071428Y-63352121D02*
X170114285Y-63337835D01*
X170114285Y-63337835D02*
X170142857Y-63337835D01*
X170142857Y-63337835D02*
X170185714Y-63352121D01*
X170185714Y-63352121D02*
X170200000Y-63366407D01*
X170457143Y-63437835D02*
X170457143Y-63637835D01*
X170385714Y-63323550D02*
X170314285Y-63537835D01*
X170314285Y-63537835D02*
X170500000Y-63537835D01*
X169807143Y-65108264D02*
X169792857Y-65122550D01*
X169792857Y-65122550D02*
X169750000Y-65136835D01*
X169750000Y-65136835D02*
X169721428Y-65136835D01*
X169721428Y-65136835D02*
X169678571Y-65122550D01*
X169678571Y-65122550D02*
X169650000Y-65093978D01*
X169650000Y-65093978D02*
X169635714Y-65065407D01*
X169635714Y-65065407D02*
X169621428Y-65008264D01*
X169621428Y-65008264D02*
X169621428Y-64965407D01*
X169621428Y-64965407D02*
X169635714Y-64908264D01*
X169635714Y-64908264D02*
X169650000Y-64879692D01*
X169650000Y-64879692D02*
X169678571Y-64851121D01*
X169678571Y-64851121D02*
X169721428Y-64836835D01*
X169721428Y-64836835D02*
X169750000Y-64836835D01*
X169750000Y-64836835D02*
X169792857Y-64851121D01*
X169792857Y-64851121D02*
X169807143Y-64865407D01*
X170092857Y-65136835D02*
X169921428Y-65136835D01*
X170007143Y-65136835D02*
X170007143Y-64836835D01*
X170007143Y-64836835D02*
X169978571Y-64879692D01*
X169978571Y-64879692D02*
X169950000Y-64908264D01*
X169950000Y-64908264D02*
X169921428Y-64922550D01*
X170207142Y-64865407D02*
X170221428Y-64851121D01*
X170221428Y-64851121D02*
X170250000Y-64836835D01*
X170250000Y-64836835D02*
X170321428Y-64836835D01*
X170321428Y-64836835D02*
X170350000Y-64851121D01*
X170350000Y-64851121D02*
X170364285Y-64865407D01*
X170364285Y-64865407D02*
X170378571Y-64893978D01*
X170378571Y-64893978D02*
X170378571Y-64922550D01*
X170378571Y-64922550D02*
X170364285Y-64965407D01*
X170364285Y-64965407D02*
X170192857Y-65136835D01*
X170192857Y-65136835D02*
X170378571Y-65136835D01*
X155557143Y-80408264D02*
X155542857Y-80422550D01*
X155542857Y-80422550D02*
X155500000Y-80436835D01*
X155500000Y-80436835D02*
X155471428Y-80436835D01*
X155471428Y-80436835D02*
X155428571Y-80422550D01*
X155428571Y-80422550D02*
X155400000Y-80393978D01*
X155400000Y-80393978D02*
X155385714Y-80365407D01*
X155385714Y-80365407D02*
X155371428Y-80308264D01*
X155371428Y-80308264D02*
X155371428Y-80265407D01*
X155371428Y-80265407D02*
X155385714Y-80208264D01*
X155385714Y-80208264D02*
X155400000Y-80179692D01*
X155400000Y-80179692D02*
X155428571Y-80151121D01*
X155428571Y-80151121D02*
X155471428Y-80136835D01*
X155471428Y-80136835D02*
X155500000Y-80136835D01*
X155500000Y-80136835D02*
X155542857Y-80151121D01*
X155542857Y-80151121D02*
X155557143Y-80165407D01*
X155842857Y-80436835D02*
X155671428Y-80436835D01*
X155757143Y-80436835D02*
X155757143Y-80136835D01*
X155757143Y-80136835D02*
X155728571Y-80179692D01*
X155728571Y-80179692D02*
X155700000Y-80208264D01*
X155700000Y-80208264D02*
X155671428Y-80222550D01*
X156100000Y-80236835D02*
X156100000Y-80436835D01*
X156028571Y-80122550D02*
X155957142Y-80336835D01*
X155957142Y-80336835D02*
X156142857Y-80336835D01*
D12*
X140074819Y-74851904D02*
X140884342Y-74851904D01*
X140884342Y-74851904D02*
X140979580Y-74804285D01*
X140979580Y-74804285D02*
X141027200Y-74756666D01*
X141027200Y-74756666D02*
X141074819Y-74661428D01*
X141074819Y-74661428D02*
X141074819Y-74470952D01*
X141074819Y-74470952D02*
X141027200Y-74375714D01*
X141027200Y-74375714D02*
X140979580Y-74328095D01*
X140979580Y-74328095D02*
X140884342Y-74280476D01*
X140884342Y-74280476D02*
X140074819Y-74280476D01*
X140170057Y-73851904D02*
X140122438Y-73804285D01*
X140122438Y-73804285D02*
X140074819Y-73709047D01*
X140074819Y-73709047D02*
X140074819Y-73470952D01*
X140074819Y-73470952D02*
X140122438Y-73375714D01*
X140122438Y-73375714D02*
X140170057Y-73328095D01*
X140170057Y-73328095D02*
X140265295Y-73280476D01*
X140265295Y-73280476D02*
X140360533Y-73280476D01*
X140360533Y-73280476D02*
X140503390Y-73328095D01*
X140503390Y-73328095D02*
X141074819Y-73899523D01*
X141074819Y-73899523D02*
X141074819Y-73280476D01*
D11*
X167557143Y-71136835D02*
X167457143Y-70993978D01*
X167385714Y-71136835D02*
X167385714Y-70836835D01*
X167385714Y-70836835D02*
X167500000Y-70836835D01*
X167500000Y-70836835D02*
X167528571Y-70851121D01*
X167528571Y-70851121D02*
X167542857Y-70865407D01*
X167542857Y-70865407D02*
X167557143Y-70893978D01*
X167557143Y-70893978D02*
X167557143Y-70936835D01*
X167557143Y-70936835D02*
X167542857Y-70965407D01*
X167542857Y-70965407D02*
X167528571Y-70979692D01*
X167528571Y-70979692D02*
X167500000Y-70993978D01*
X167500000Y-70993978D02*
X167385714Y-70993978D01*
X167842857Y-71136835D02*
X167671428Y-71136835D01*
X167757143Y-71136835D02*
X167757143Y-70836835D01*
X167757143Y-70836835D02*
X167728571Y-70879692D01*
X167728571Y-70879692D02*
X167700000Y-70908264D01*
X167700000Y-70908264D02*
X167671428Y-70922550D01*
X167942857Y-70836835D02*
X168128571Y-70836835D01*
X168128571Y-70836835D02*
X168028571Y-70951121D01*
X168028571Y-70951121D02*
X168071428Y-70951121D01*
X168071428Y-70951121D02*
X168100000Y-70965407D01*
X168100000Y-70965407D02*
X168114285Y-70979692D01*
X168114285Y-70979692D02*
X168128571Y-71008264D01*
X168128571Y-71008264D02*
X168128571Y-71079692D01*
X168128571Y-71079692D02*
X168114285Y-71108264D01*
X168114285Y-71108264D02*
X168100000Y-71122550D01*
X168100000Y-71122550D02*
X168071428Y-71136835D01*
X168071428Y-71136835D02*
X167985714Y-71136835D01*
X167985714Y-71136835D02*
X167957142Y-71122550D01*
X167957142Y-71122550D02*
X167942857Y-71108264D01*
X156307143Y-76408264D02*
X156292857Y-76422550D01*
X156292857Y-76422550D02*
X156250000Y-76436835D01*
X156250000Y-76436835D02*
X156221428Y-76436835D01*
X156221428Y-76436835D02*
X156178571Y-76422550D01*
X156178571Y-76422550D02*
X156150000Y-76393978D01*
X156150000Y-76393978D02*
X156135714Y-76365407D01*
X156135714Y-76365407D02*
X156121428Y-76308264D01*
X156121428Y-76308264D02*
X156121428Y-76265407D01*
X156121428Y-76265407D02*
X156135714Y-76208264D01*
X156135714Y-76208264D02*
X156150000Y-76179692D01*
X156150000Y-76179692D02*
X156178571Y-76151121D01*
X156178571Y-76151121D02*
X156221428Y-76136835D01*
X156221428Y-76136835D02*
X156250000Y-76136835D01*
X156250000Y-76136835D02*
X156292857Y-76151121D01*
X156292857Y-76151121D02*
X156307143Y-76165407D01*
X156592857Y-76436835D02*
X156421428Y-76436835D01*
X156507143Y-76436835D02*
X156507143Y-76136835D01*
X156507143Y-76136835D02*
X156478571Y-76179692D01*
X156478571Y-76179692D02*
X156450000Y-76208264D01*
X156450000Y-76208264D02*
X156421428Y-76222550D01*
X156692857Y-76136835D02*
X156892857Y-76136835D01*
X156892857Y-76136835D02*
X156764285Y-76436835D01*
X170200000Y-79459264D02*
X170185714Y-79473550D01*
X170185714Y-79473550D02*
X170142857Y-79487835D01*
X170142857Y-79487835D02*
X170114285Y-79487835D01*
X170114285Y-79487835D02*
X170071428Y-79473550D01*
X170071428Y-79473550D02*
X170042857Y-79444978D01*
X170042857Y-79444978D02*
X170028571Y-79416407D01*
X170028571Y-79416407D02*
X170014285Y-79359264D01*
X170014285Y-79359264D02*
X170014285Y-79316407D01*
X170014285Y-79316407D02*
X170028571Y-79259264D01*
X170028571Y-79259264D02*
X170042857Y-79230692D01*
X170042857Y-79230692D02*
X170071428Y-79202121D01*
X170071428Y-79202121D02*
X170114285Y-79187835D01*
X170114285Y-79187835D02*
X170142857Y-79187835D01*
X170142857Y-79187835D02*
X170185714Y-79202121D01*
X170185714Y-79202121D02*
X170200000Y-79216407D01*
X170371428Y-79316407D02*
X170342857Y-79302121D01*
X170342857Y-79302121D02*
X170328571Y-79287835D01*
X170328571Y-79287835D02*
X170314285Y-79259264D01*
X170314285Y-79259264D02*
X170314285Y-79244978D01*
X170314285Y-79244978D02*
X170328571Y-79216407D01*
X170328571Y-79216407D02*
X170342857Y-79202121D01*
X170342857Y-79202121D02*
X170371428Y-79187835D01*
X170371428Y-79187835D02*
X170428571Y-79187835D01*
X170428571Y-79187835D02*
X170457143Y-79202121D01*
X170457143Y-79202121D02*
X170471428Y-79216407D01*
X170471428Y-79216407D02*
X170485714Y-79244978D01*
X170485714Y-79244978D02*
X170485714Y-79259264D01*
X170485714Y-79259264D02*
X170471428Y-79287835D01*
X170471428Y-79287835D02*
X170457143Y-79302121D01*
X170457143Y-79302121D02*
X170428571Y-79316407D01*
X170428571Y-79316407D02*
X170371428Y-79316407D01*
X170371428Y-79316407D02*
X170342857Y-79330692D01*
X170342857Y-79330692D02*
X170328571Y-79344978D01*
X170328571Y-79344978D02*
X170314285Y-79373550D01*
X170314285Y-79373550D02*
X170314285Y-79430692D01*
X170314285Y-79430692D02*
X170328571Y-79459264D01*
X170328571Y-79459264D02*
X170342857Y-79473550D01*
X170342857Y-79473550D02*
X170371428Y-79487835D01*
X170371428Y-79487835D02*
X170428571Y-79487835D01*
X170428571Y-79487835D02*
X170457143Y-79473550D01*
X170457143Y-79473550D02*
X170471428Y-79459264D01*
X170471428Y-79459264D02*
X170485714Y-79430692D01*
X170485714Y-79430692D02*
X170485714Y-79373550D01*
X170485714Y-79373550D02*
X170471428Y-79344978D01*
X170471428Y-79344978D02*
X170457143Y-79330692D01*
X170457143Y-79330692D02*
X170428571Y-79316407D01*
X157507143Y-77136835D02*
X157407143Y-76993978D01*
X157335714Y-77136835D02*
X157335714Y-76836835D01*
X157335714Y-76836835D02*
X157450000Y-76836835D01*
X157450000Y-76836835D02*
X157478571Y-76851121D01*
X157478571Y-76851121D02*
X157492857Y-76865407D01*
X157492857Y-76865407D02*
X157507143Y-76893978D01*
X157507143Y-76893978D02*
X157507143Y-76936835D01*
X157507143Y-76936835D02*
X157492857Y-76965407D01*
X157492857Y-76965407D02*
X157478571Y-76979692D01*
X157478571Y-76979692D02*
X157450000Y-76993978D01*
X157450000Y-76993978D02*
X157335714Y-76993978D01*
X157792857Y-77136835D02*
X157621428Y-77136835D01*
X157707143Y-77136835D02*
X157707143Y-76836835D01*
X157707143Y-76836835D02*
X157678571Y-76879692D01*
X157678571Y-76879692D02*
X157650000Y-76908264D01*
X157650000Y-76908264D02*
X157621428Y-76922550D01*
X158064285Y-76836835D02*
X157921428Y-76836835D01*
X157921428Y-76836835D02*
X157907142Y-76979692D01*
X157907142Y-76979692D02*
X157921428Y-76965407D01*
X157921428Y-76965407D02*
X157950000Y-76951121D01*
X157950000Y-76951121D02*
X158021428Y-76951121D01*
X158021428Y-76951121D02*
X158050000Y-76965407D01*
X158050000Y-76965407D02*
X158064285Y-76979692D01*
X158064285Y-76979692D02*
X158078571Y-77008264D01*
X158078571Y-77008264D02*
X158078571Y-77079692D01*
X158078571Y-77079692D02*
X158064285Y-77108264D01*
X158064285Y-77108264D02*
X158050000Y-77122550D01*
X158050000Y-77122550D02*
X158021428Y-77136835D01*
X158021428Y-77136835D02*
X157950000Y-77136835D01*
X157950000Y-77136835D02*
X157921428Y-77122550D01*
X157921428Y-77122550D02*
X157907142Y-77108264D01*
X158450000Y-80108264D02*
X158435714Y-80122550D01*
X158435714Y-80122550D02*
X158392857Y-80136835D01*
X158392857Y-80136835D02*
X158364285Y-80136835D01*
X158364285Y-80136835D02*
X158321428Y-80122550D01*
X158321428Y-80122550D02*
X158292857Y-80093978D01*
X158292857Y-80093978D02*
X158278571Y-80065407D01*
X158278571Y-80065407D02*
X158264285Y-80008264D01*
X158264285Y-80008264D02*
X158264285Y-79965407D01*
X158264285Y-79965407D02*
X158278571Y-79908264D01*
X158278571Y-79908264D02*
X158292857Y-79879692D01*
X158292857Y-79879692D02*
X158321428Y-79851121D01*
X158321428Y-79851121D02*
X158364285Y-79836835D01*
X158364285Y-79836835D02*
X158392857Y-79836835D01*
X158392857Y-79836835D02*
X158435714Y-79851121D01*
X158435714Y-79851121D02*
X158450000Y-79865407D01*
X158564285Y-79865407D02*
X158578571Y-79851121D01*
X158578571Y-79851121D02*
X158607143Y-79836835D01*
X158607143Y-79836835D02*
X158678571Y-79836835D01*
X158678571Y-79836835D02*
X158707143Y-79851121D01*
X158707143Y-79851121D02*
X158721428Y-79865407D01*
X158721428Y-79865407D02*
X158735714Y-79893978D01*
X158735714Y-79893978D02*
X158735714Y-79922550D01*
X158735714Y-79922550D02*
X158721428Y-79965407D01*
X158721428Y-79965407D02*
X158550000Y-80136835D01*
X158550000Y-80136835D02*
X158735714Y-80136835D01*
X179575000Y-83359264D02*
X179560714Y-83373550D01*
X179560714Y-83373550D02*
X179517857Y-83387835D01*
X179517857Y-83387835D02*
X179489285Y-83387835D01*
X179489285Y-83387835D02*
X179446428Y-83373550D01*
X179446428Y-83373550D02*
X179417857Y-83344978D01*
X179417857Y-83344978D02*
X179403571Y-83316407D01*
X179403571Y-83316407D02*
X179389285Y-83259264D01*
X179389285Y-83259264D02*
X179389285Y-83216407D01*
X179389285Y-83216407D02*
X179403571Y-83159264D01*
X179403571Y-83159264D02*
X179417857Y-83130692D01*
X179417857Y-83130692D02*
X179446428Y-83102121D01*
X179446428Y-83102121D02*
X179489285Y-83087835D01*
X179489285Y-83087835D02*
X179517857Y-83087835D01*
X179517857Y-83087835D02*
X179560714Y-83102121D01*
X179560714Y-83102121D02*
X179575000Y-83116407D01*
X179846428Y-83087835D02*
X179703571Y-83087835D01*
X179703571Y-83087835D02*
X179689285Y-83230692D01*
X179689285Y-83230692D02*
X179703571Y-83216407D01*
X179703571Y-83216407D02*
X179732143Y-83202121D01*
X179732143Y-83202121D02*
X179803571Y-83202121D01*
X179803571Y-83202121D02*
X179832143Y-83216407D01*
X179832143Y-83216407D02*
X179846428Y-83230692D01*
X179846428Y-83230692D02*
X179860714Y-83259264D01*
X179860714Y-83259264D02*
X179860714Y-83330692D01*
X179860714Y-83330692D02*
X179846428Y-83359264D01*
X179846428Y-83359264D02*
X179832143Y-83373550D01*
X179832143Y-83373550D02*
X179803571Y-83387835D01*
X179803571Y-83387835D02*
X179732143Y-83387835D01*
X179732143Y-83387835D02*
X179703571Y-83373550D01*
X179703571Y-83373550D02*
X179689285Y-83359264D01*
X161558264Y-77692856D02*
X161572550Y-77707142D01*
X161572550Y-77707142D02*
X161586835Y-77749999D01*
X161586835Y-77749999D02*
X161586835Y-77778571D01*
X161586835Y-77778571D02*
X161572550Y-77821428D01*
X161572550Y-77821428D02*
X161543978Y-77849999D01*
X161543978Y-77849999D02*
X161515407Y-77864285D01*
X161515407Y-77864285D02*
X161458264Y-77878571D01*
X161458264Y-77878571D02*
X161415407Y-77878571D01*
X161415407Y-77878571D02*
X161358264Y-77864285D01*
X161358264Y-77864285D02*
X161329692Y-77849999D01*
X161329692Y-77849999D02*
X161301121Y-77821428D01*
X161301121Y-77821428D02*
X161286835Y-77778571D01*
X161286835Y-77778571D02*
X161286835Y-77749999D01*
X161286835Y-77749999D02*
X161301121Y-77707142D01*
X161301121Y-77707142D02*
X161315407Y-77692856D01*
X161586835Y-77407142D02*
X161586835Y-77578571D01*
X161586835Y-77492856D02*
X161286835Y-77492856D01*
X161286835Y-77492856D02*
X161329692Y-77521428D01*
X161329692Y-77521428D02*
X161358264Y-77549999D01*
X161358264Y-77549999D02*
X161372550Y-77578571D01*
X161286835Y-77150000D02*
X161286835Y-77207142D01*
X161286835Y-77207142D02*
X161301121Y-77235714D01*
X161301121Y-77235714D02*
X161315407Y-77250000D01*
X161315407Y-77250000D02*
X161358264Y-77278571D01*
X161358264Y-77278571D02*
X161415407Y-77292857D01*
X161415407Y-77292857D02*
X161529692Y-77292857D01*
X161529692Y-77292857D02*
X161558264Y-77278571D01*
X161558264Y-77278571D02*
X161572550Y-77264285D01*
X161572550Y-77264285D02*
X161586835Y-77235714D01*
X161586835Y-77235714D02*
X161586835Y-77178571D01*
X161586835Y-77178571D02*
X161572550Y-77150000D01*
X161572550Y-77150000D02*
X161558264Y-77135714D01*
X161558264Y-77135714D02*
X161529692Y-77121428D01*
X161529692Y-77121428D02*
X161458264Y-77121428D01*
X161458264Y-77121428D02*
X161429692Y-77135714D01*
X161429692Y-77135714D02*
X161415407Y-77150000D01*
X161415407Y-77150000D02*
X161401121Y-77178571D01*
X161401121Y-77178571D02*
X161401121Y-77235714D01*
X161401121Y-77235714D02*
X161415407Y-77264285D01*
X161415407Y-77264285D02*
X161429692Y-77278571D01*
X161429692Y-77278571D02*
X161458264Y-77292857D01*
X166650000Y-80108264D02*
X166635714Y-80122550D01*
X166635714Y-80122550D02*
X166592857Y-80136835D01*
X166592857Y-80136835D02*
X166564285Y-80136835D01*
X166564285Y-80136835D02*
X166521428Y-80122550D01*
X166521428Y-80122550D02*
X166492857Y-80093978D01*
X166492857Y-80093978D02*
X166478571Y-80065407D01*
X166478571Y-80065407D02*
X166464285Y-80008264D01*
X166464285Y-80008264D02*
X166464285Y-79965407D01*
X166464285Y-79965407D02*
X166478571Y-79908264D01*
X166478571Y-79908264D02*
X166492857Y-79879692D01*
X166492857Y-79879692D02*
X166521428Y-79851121D01*
X166521428Y-79851121D02*
X166564285Y-79836835D01*
X166564285Y-79836835D02*
X166592857Y-79836835D01*
X166592857Y-79836835D02*
X166635714Y-79851121D01*
X166635714Y-79851121D02*
X166650000Y-79865407D01*
X166750000Y-79836835D02*
X166950000Y-79836835D01*
X166950000Y-79836835D02*
X166821428Y-80136835D01*
X159128264Y-76442856D02*
X159142550Y-76457142D01*
X159142550Y-76457142D02*
X159156835Y-76499999D01*
X159156835Y-76499999D02*
X159156835Y-76528571D01*
X159156835Y-76528571D02*
X159142550Y-76571428D01*
X159142550Y-76571428D02*
X159113978Y-76599999D01*
X159113978Y-76599999D02*
X159085407Y-76614285D01*
X159085407Y-76614285D02*
X159028264Y-76628571D01*
X159028264Y-76628571D02*
X158985407Y-76628571D01*
X158985407Y-76628571D02*
X158928264Y-76614285D01*
X158928264Y-76614285D02*
X158899692Y-76599999D01*
X158899692Y-76599999D02*
X158871121Y-76571428D01*
X158871121Y-76571428D02*
X158856835Y-76528571D01*
X158856835Y-76528571D02*
X158856835Y-76499999D01*
X158856835Y-76499999D02*
X158871121Y-76457142D01*
X158871121Y-76457142D02*
X158885407Y-76442856D01*
X159156835Y-76157142D02*
X159156835Y-76328571D01*
X159156835Y-76242856D02*
X158856835Y-76242856D01*
X158856835Y-76242856D02*
X158899692Y-76271428D01*
X158899692Y-76271428D02*
X158928264Y-76299999D01*
X158928264Y-76299999D02*
X158942550Y-76328571D01*
X158985407Y-75985714D02*
X158971121Y-76014285D01*
X158971121Y-76014285D02*
X158956835Y-76028571D01*
X158956835Y-76028571D02*
X158928264Y-76042857D01*
X158928264Y-76042857D02*
X158913978Y-76042857D01*
X158913978Y-76042857D02*
X158885407Y-76028571D01*
X158885407Y-76028571D02*
X158871121Y-76014285D01*
X158871121Y-76014285D02*
X158856835Y-75985714D01*
X158856835Y-75985714D02*
X158856835Y-75928571D01*
X158856835Y-75928571D02*
X158871121Y-75900000D01*
X158871121Y-75900000D02*
X158885407Y-75885714D01*
X158885407Y-75885714D02*
X158913978Y-75871428D01*
X158913978Y-75871428D02*
X158928264Y-75871428D01*
X158928264Y-75871428D02*
X158956835Y-75885714D01*
X158956835Y-75885714D02*
X158971121Y-75900000D01*
X158971121Y-75900000D02*
X158985407Y-75928571D01*
X158985407Y-75928571D02*
X158985407Y-75985714D01*
X158985407Y-75985714D02*
X158999692Y-76014285D01*
X158999692Y-76014285D02*
X159013978Y-76028571D01*
X159013978Y-76028571D02*
X159042550Y-76042857D01*
X159042550Y-76042857D02*
X159099692Y-76042857D01*
X159099692Y-76042857D02*
X159128264Y-76028571D01*
X159128264Y-76028571D02*
X159142550Y-76014285D01*
X159142550Y-76014285D02*
X159156835Y-75985714D01*
X159156835Y-75985714D02*
X159156835Y-75928571D01*
X159156835Y-75928571D02*
X159142550Y-75900000D01*
X159142550Y-75900000D02*
X159128264Y-75885714D01*
X159128264Y-75885714D02*
X159099692Y-75871428D01*
X159099692Y-75871428D02*
X159042550Y-75871428D01*
X159042550Y-75871428D02*
X159013978Y-75885714D01*
X159013978Y-75885714D02*
X158999692Y-75900000D01*
X158999692Y-75900000D02*
X158985407Y-75928571D01*
X188286835Y-74090999D02*
X188501121Y-74090999D01*
X188501121Y-74090999D02*
X188543978Y-74105284D01*
X188543978Y-74105284D02*
X188572550Y-74133856D01*
X188572550Y-74133856D02*
X188586835Y-74176713D01*
X188586835Y-74176713D02*
X188586835Y-74205284D01*
X188286835Y-73805285D02*
X188286835Y-73948142D01*
X188286835Y-73948142D02*
X188429692Y-73962428D01*
X188429692Y-73962428D02*
X188415407Y-73948142D01*
X188415407Y-73948142D02*
X188401121Y-73919571D01*
X188401121Y-73919571D02*
X188401121Y-73848142D01*
X188401121Y-73848142D02*
X188415407Y-73819571D01*
X188415407Y-73819571D02*
X188429692Y-73805285D01*
X188429692Y-73805285D02*
X188458264Y-73790999D01*
X188458264Y-73790999D02*
X188529692Y-73790999D01*
X188529692Y-73790999D02*
X188558264Y-73805285D01*
X188558264Y-73805285D02*
X188572550Y-73819571D01*
X188572550Y-73819571D02*
X188586835Y-73848142D01*
X188586835Y-73848142D02*
X188586835Y-73919571D01*
X188586835Y-73919571D02*
X188572550Y-73948142D01*
X188572550Y-73948142D02*
X188558264Y-73962428D01*
X165231428Y-74436407D02*
X165202857Y-74422121D01*
X165202857Y-74422121D02*
X165174285Y-74393550D01*
X165174285Y-74393550D02*
X165131428Y-74350692D01*
X165131428Y-74350692D02*
X165102857Y-74336407D01*
X165102857Y-74336407D02*
X165074285Y-74336407D01*
X165088571Y-74407835D02*
X165060000Y-74393550D01*
X165060000Y-74393550D02*
X165031428Y-74364978D01*
X165031428Y-74364978D02*
X165017142Y-74307835D01*
X165017142Y-74307835D02*
X165017142Y-74207835D01*
X165017142Y-74207835D02*
X165031428Y-74150692D01*
X165031428Y-74150692D02*
X165060000Y-74122121D01*
X165060000Y-74122121D02*
X165088571Y-74107835D01*
X165088571Y-74107835D02*
X165145714Y-74107835D01*
X165145714Y-74107835D02*
X165174285Y-74122121D01*
X165174285Y-74122121D02*
X165202857Y-74150692D01*
X165202857Y-74150692D02*
X165217142Y-74207835D01*
X165217142Y-74207835D02*
X165217142Y-74307835D01*
X165217142Y-74307835D02*
X165202857Y-74364978D01*
X165202857Y-74364978D02*
X165174285Y-74393550D01*
X165174285Y-74393550D02*
X165145714Y-74407835D01*
X165145714Y-74407835D02*
X165088571Y-74407835D01*
X165331428Y-74136407D02*
X165345714Y-74122121D01*
X165345714Y-74122121D02*
X165374286Y-74107835D01*
X165374286Y-74107835D02*
X165445714Y-74107835D01*
X165445714Y-74107835D02*
X165474286Y-74122121D01*
X165474286Y-74122121D02*
X165488571Y-74136407D01*
X165488571Y-74136407D02*
X165502857Y-74164978D01*
X165502857Y-74164978D02*
X165502857Y-74193550D01*
X165502857Y-74193550D02*
X165488571Y-74236407D01*
X165488571Y-74236407D02*
X165317143Y-74407835D01*
X165317143Y-74407835D02*
X165502857Y-74407835D01*
X162557143Y-80108264D02*
X162542857Y-80122550D01*
X162542857Y-80122550D02*
X162500000Y-80136835D01*
X162500000Y-80136835D02*
X162471428Y-80136835D01*
X162471428Y-80136835D02*
X162428571Y-80122550D01*
X162428571Y-80122550D02*
X162400000Y-80093978D01*
X162400000Y-80093978D02*
X162385714Y-80065407D01*
X162385714Y-80065407D02*
X162371428Y-80008264D01*
X162371428Y-80008264D02*
X162371428Y-79965407D01*
X162371428Y-79965407D02*
X162385714Y-79908264D01*
X162385714Y-79908264D02*
X162400000Y-79879692D01*
X162400000Y-79879692D02*
X162428571Y-79851121D01*
X162428571Y-79851121D02*
X162471428Y-79836835D01*
X162471428Y-79836835D02*
X162500000Y-79836835D01*
X162500000Y-79836835D02*
X162542857Y-79851121D01*
X162542857Y-79851121D02*
X162557143Y-79865407D01*
X162842857Y-80136835D02*
X162671428Y-80136835D01*
X162757143Y-80136835D02*
X162757143Y-79836835D01*
X162757143Y-79836835D02*
X162728571Y-79879692D01*
X162728571Y-79879692D02*
X162700000Y-79908264D01*
X162700000Y-79908264D02*
X162671428Y-79922550D01*
X163028571Y-79836835D02*
X163057142Y-79836835D01*
X163057142Y-79836835D02*
X163085714Y-79851121D01*
X163085714Y-79851121D02*
X163100000Y-79865407D01*
X163100000Y-79865407D02*
X163114285Y-79893978D01*
X163114285Y-79893978D02*
X163128571Y-79951121D01*
X163128571Y-79951121D02*
X163128571Y-80022550D01*
X163128571Y-80022550D02*
X163114285Y-80079692D01*
X163114285Y-80079692D02*
X163100000Y-80108264D01*
X163100000Y-80108264D02*
X163085714Y-80122550D01*
X163085714Y-80122550D02*
X163057142Y-80136835D01*
X163057142Y-80136835D02*
X163028571Y-80136835D01*
X163028571Y-80136835D02*
X163000000Y-80122550D01*
X163000000Y-80122550D02*
X162985714Y-80108264D01*
X162985714Y-80108264D02*
X162971428Y-80079692D01*
X162971428Y-80079692D02*
X162957142Y-80022550D01*
X162957142Y-80022550D02*
X162957142Y-79951121D01*
X162957142Y-79951121D02*
X162971428Y-79893978D01*
X162971428Y-79893978D02*
X162985714Y-79865407D01*
X162985714Y-79865407D02*
X163000000Y-79851121D01*
X163000000Y-79851121D02*
X163028571Y-79836835D01*
X157407143Y-79636835D02*
X157307143Y-79493978D01*
X157235714Y-79636835D02*
X157235714Y-79336835D01*
X157235714Y-79336835D02*
X157350000Y-79336835D01*
X157350000Y-79336835D02*
X157378571Y-79351121D01*
X157378571Y-79351121D02*
X157392857Y-79365407D01*
X157392857Y-79365407D02*
X157407143Y-79393978D01*
X157407143Y-79393978D02*
X157407143Y-79436835D01*
X157407143Y-79436835D02*
X157392857Y-79465407D01*
X157392857Y-79465407D02*
X157378571Y-79479692D01*
X157378571Y-79479692D02*
X157350000Y-79493978D01*
X157350000Y-79493978D02*
X157235714Y-79493978D01*
X157692857Y-79636835D02*
X157521428Y-79636835D01*
X157607143Y-79636835D02*
X157607143Y-79336835D01*
X157607143Y-79336835D02*
X157578571Y-79379692D01*
X157578571Y-79379692D02*
X157550000Y-79408264D01*
X157550000Y-79408264D02*
X157521428Y-79422550D01*
X157978571Y-79636835D02*
X157807142Y-79636835D01*
X157892857Y-79636835D02*
X157892857Y-79336835D01*
X157892857Y-79336835D02*
X157864285Y-79379692D01*
X157864285Y-79379692D02*
X157835714Y-79408264D01*
X157835714Y-79408264D02*
X157807142Y-79422550D01*
X167557143Y-78386835D02*
X167457143Y-78243978D01*
X167385714Y-78386835D02*
X167385714Y-78086835D01*
X167385714Y-78086835D02*
X167500000Y-78086835D01*
X167500000Y-78086835D02*
X167528571Y-78101121D01*
X167528571Y-78101121D02*
X167542857Y-78115407D01*
X167542857Y-78115407D02*
X167557143Y-78143978D01*
X167557143Y-78143978D02*
X167557143Y-78186835D01*
X167557143Y-78186835D02*
X167542857Y-78215407D01*
X167542857Y-78215407D02*
X167528571Y-78229692D01*
X167528571Y-78229692D02*
X167500000Y-78243978D01*
X167500000Y-78243978D02*
X167385714Y-78243978D01*
X167842857Y-78386835D02*
X167671428Y-78386835D01*
X167757143Y-78386835D02*
X167757143Y-78086835D01*
X167757143Y-78086835D02*
X167728571Y-78129692D01*
X167728571Y-78129692D02*
X167700000Y-78158264D01*
X167700000Y-78158264D02*
X167671428Y-78172550D01*
X167957142Y-78115407D02*
X167971428Y-78101121D01*
X167971428Y-78101121D02*
X168000000Y-78086835D01*
X168000000Y-78086835D02*
X168071428Y-78086835D01*
X168071428Y-78086835D02*
X168100000Y-78101121D01*
X168100000Y-78101121D02*
X168114285Y-78115407D01*
X168114285Y-78115407D02*
X168128571Y-78143978D01*
X168128571Y-78143978D02*
X168128571Y-78172550D01*
X168128571Y-78172550D02*
X168114285Y-78215407D01*
X168114285Y-78215407D02*
X167942857Y-78386835D01*
X167942857Y-78386835D02*
X168128571Y-78386835D01*
X170200000Y-80737835D02*
X170100000Y-80594978D01*
X170028571Y-80737835D02*
X170028571Y-80437835D01*
X170028571Y-80437835D02*
X170142857Y-80437835D01*
X170142857Y-80437835D02*
X170171428Y-80452121D01*
X170171428Y-80452121D02*
X170185714Y-80466407D01*
X170185714Y-80466407D02*
X170200000Y-80494978D01*
X170200000Y-80494978D02*
X170200000Y-80537835D01*
X170200000Y-80537835D02*
X170185714Y-80566407D01*
X170185714Y-80566407D02*
X170171428Y-80580692D01*
X170171428Y-80580692D02*
X170142857Y-80594978D01*
X170142857Y-80594978D02*
X170028571Y-80594978D01*
X170485714Y-80737835D02*
X170314285Y-80737835D01*
X170400000Y-80737835D02*
X170400000Y-80437835D01*
X170400000Y-80437835D02*
X170371428Y-80480692D01*
X170371428Y-80480692D02*
X170342857Y-80509264D01*
X170342857Y-80509264D02*
X170314285Y-80523550D01*
X180950000Y-63886835D02*
X180850000Y-63743978D01*
X180778571Y-63886835D02*
X180778571Y-63586835D01*
X180778571Y-63586835D02*
X180892857Y-63586835D01*
X180892857Y-63586835D02*
X180921428Y-63601121D01*
X180921428Y-63601121D02*
X180935714Y-63615407D01*
X180935714Y-63615407D02*
X180950000Y-63643978D01*
X180950000Y-63643978D02*
X180950000Y-63686835D01*
X180950000Y-63686835D02*
X180935714Y-63715407D01*
X180935714Y-63715407D02*
X180921428Y-63729692D01*
X180921428Y-63729692D02*
X180892857Y-63743978D01*
X180892857Y-63743978D02*
X180778571Y-63743978D01*
X181207143Y-63686835D02*
X181207143Y-63886835D01*
X181135714Y-63572550D02*
X181064285Y-63786835D01*
X181064285Y-63786835D02*
X181250000Y-63786835D01*
X180450000Y-76936835D02*
X180350000Y-76793978D01*
X180278571Y-76936835D02*
X180278571Y-76636835D01*
X180278571Y-76636835D02*
X180392857Y-76636835D01*
X180392857Y-76636835D02*
X180421428Y-76651121D01*
X180421428Y-76651121D02*
X180435714Y-76665407D01*
X180435714Y-76665407D02*
X180450000Y-76693978D01*
X180450000Y-76693978D02*
X180450000Y-76736835D01*
X180450000Y-76736835D02*
X180435714Y-76765407D01*
X180435714Y-76765407D02*
X180421428Y-76779692D01*
X180421428Y-76779692D02*
X180392857Y-76793978D01*
X180392857Y-76793978D02*
X180278571Y-76793978D01*
X180592857Y-76936835D02*
X180650000Y-76936835D01*
X180650000Y-76936835D02*
X180678571Y-76922550D01*
X180678571Y-76922550D02*
X180692857Y-76908264D01*
X180692857Y-76908264D02*
X180721428Y-76865407D01*
X180721428Y-76865407D02*
X180735714Y-76808264D01*
X180735714Y-76808264D02*
X180735714Y-76693978D01*
X180735714Y-76693978D02*
X180721428Y-76665407D01*
X180721428Y-76665407D02*
X180707143Y-76651121D01*
X180707143Y-76651121D02*
X180678571Y-76636835D01*
X180678571Y-76636835D02*
X180621428Y-76636835D01*
X180621428Y-76636835D02*
X180592857Y-76651121D01*
X180592857Y-76651121D02*
X180578571Y-76665407D01*
X180578571Y-76665407D02*
X180564285Y-76693978D01*
X180564285Y-76693978D02*
X180564285Y-76765407D01*
X180564285Y-76765407D02*
X180578571Y-76793978D01*
X180578571Y-76793978D02*
X180592857Y-76808264D01*
X180592857Y-76808264D02*
X180621428Y-76822550D01*
X180621428Y-76822550D02*
X180678571Y-76822550D01*
X180678571Y-76822550D02*
X180707143Y-76808264D01*
X180707143Y-76808264D02*
X180721428Y-76793978D01*
X180721428Y-76793978D02*
X180735714Y-76765407D01*
X169700000Y-67617835D02*
X169600000Y-67474978D01*
X169528571Y-67617835D02*
X169528571Y-67317835D01*
X169528571Y-67317835D02*
X169642857Y-67317835D01*
X169642857Y-67317835D02*
X169671428Y-67332121D01*
X169671428Y-67332121D02*
X169685714Y-67346407D01*
X169685714Y-67346407D02*
X169700000Y-67374978D01*
X169700000Y-67374978D02*
X169700000Y-67417835D01*
X169700000Y-67417835D02*
X169685714Y-67446407D01*
X169685714Y-67446407D02*
X169671428Y-67460692D01*
X169671428Y-67460692D02*
X169642857Y-67474978D01*
X169642857Y-67474978D02*
X169528571Y-67474978D01*
X169871428Y-67446407D02*
X169842857Y-67432121D01*
X169842857Y-67432121D02*
X169828571Y-67417835D01*
X169828571Y-67417835D02*
X169814285Y-67389264D01*
X169814285Y-67389264D02*
X169814285Y-67374978D01*
X169814285Y-67374978D02*
X169828571Y-67346407D01*
X169828571Y-67346407D02*
X169842857Y-67332121D01*
X169842857Y-67332121D02*
X169871428Y-67317835D01*
X169871428Y-67317835D02*
X169928571Y-67317835D01*
X169928571Y-67317835D02*
X169957143Y-67332121D01*
X169957143Y-67332121D02*
X169971428Y-67346407D01*
X169971428Y-67346407D02*
X169985714Y-67374978D01*
X169985714Y-67374978D02*
X169985714Y-67389264D01*
X169985714Y-67389264D02*
X169971428Y-67417835D01*
X169971428Y-67417835D02*
X169957143Y-67432121D01*
X169957143Y-67432121D02*
X169928571Y-67446407D01*
X169928571Y-67446407D02*
X169871428Y-67446407D01*
X169871428Y-67446407D02*
X169842857Y-67460692D01*
X169842857Y-67460692D02*
X169828571Y-67474978D01*
X169828571Y-67474978D02*
X169814285Y-67503550D01*
X169814285Y-67503550D02*
X169814285Y-67560692D01*
X169814285Y-67560692D02*
X169828571Y-67589264D01*
X169828571Y-67589264D02*
X169842857Y-67603550D01*
X169842857Y-67603550D02*
X169871428Y-67617835D01*
X169871428Y-67617835D02*
X169928571Y-67617835D01*
X169928571Y-67617835D02*
X169957143Y-67603550D01*
X169957143Y-67603550D02*
X169971428Y-67589264D01*
X169971428Y-67589264D02*
X169985714Y-67560692D01*
X169985714Y-67560692D02*
X169985714Y-67503550D01*
X169985714Y-67503550D02*
X169971428Y-67474978D01*
X169971428Y-67474978D02*
X169957143Y-67460692D01*
X169957143Y-67460692D02*
X169928571Y-67446407D01*
X172890000Y-67637835D02*
X172790000Y-67494978D01*
X172718571Y-67637835D02*
X172718571Y-67337835D01*
X172718571Y-67337835D02*
X172832857Y-67337835D01*
X172832857Y-67337835D02*
X172861428Y-67352121D01*
X172861428Y-67352121D02*
X172875714Y-67366407D01*
X172875714Y-67366407D02*
X172890000Y-67394978D01*
X172890000Y-67394978D02*
X172890000Y-67437835D01*
X172890000Y-67437835D02*
X172875714Y-67466407D01*
X172875714Y-67466407D02*
X172861428Y-67480692D01*
X172861428Y-67480692D02*
X172832857Y-67494978D01*
X172832857Y-67494978D02*
X172718571Y-67494978D01*
X172990000Y-67337835D02*
X173190000Y-67337835D01*
X173190000Y-67337835D02*
X173061428Y-67637835D01*
X180950000Y-64886835D02*
X180850000Y-64743978D01*
X180778571Y-64886835D02*
X180778571Y-64586835D01*
X180778571Y-64586835D02*
X180892857Y-64586835D01*
X180892857Y-64586835D02*
X180921428Y-64601121D01*
X180921428Y-64601121D02*
X180935714Y-64615407D01*
X180935714Y-64615407D02*
X180950000Y-64643978D01*
X180950000Y-64643978D02*
X180950000Y-64686835D01*
X180950000Y-64686835D02*
X180935714Y-64715407D01*
X180935714Y-64715407D02*
X180921428Y-64729692D01*
X180921428Y-64729692D02*
X180892857Y-64743978D01*
X180892857Y-64743978D02*
X180778571Y-64743978D01*
X181207143Y-64586835D02*
X181150000Y-64586835D01*
X181150000Y-64586835D02*
X181121428Y-64601121D01*
X181121428Y-64601121D02*
X181107143Y-64615407D01*
X181107143Y-64615407D02*
X181078571Y-64658264D01*
X181078571Y-64658264D02*
X181064285Y-64715407D01*
X181064285Y-64715407D02*
X181064285Y-64829692D01*
X181064285Y-64829692D02*
X181078571Y-64858264D01*
X181078571Y-64858264D02*
X181092857Y-64872550D01*
X181092857Y-64872550D02*
X181121428Y-64886835D01*
X181121428Y-64886835D02*
X181178571Y-64886835D01*
X181178571Y-64886835D02*
X181207143Y-64872550D01*
X181207143Y-64872550D02*
X181221428Y-64858264D01*
X181221428Y-64858264D02*
X181235714Y-64829692D01*
X181235714Y-64829692D02*
X181235714Y-64758264D01*
X181235714Y-64758264D02*
X181221428Y-64729692D01*
X181221428Y-64729692D02*
X181207143Y-64715407D01*
X181207143Y-64715407D02*
X181178571Y-64701121D01*
X181178571Y-64701121D02*
X181121428Y-64701121D01*
X181121428Y-64701121D02*
X181092857Y-64715407D01*
X181092857Y-64715407D02*
X181078571Y-64729692D01*
X181078571Y-64729692D02*
X181064285Y-64758264D01*
X162571428Y-70086835D02*
X162571428Y-70329692D01*
X162571428Y-70329692D02*
X162585714Y-70358264D01*
X162585714Y-70358264D02*
X162600000Y-70372550D01*
X162600000Y-70372550D02*
X162628571Y-70386835D01*
X162628571Y-70386835D02*
X162685714Y-70386835D01*
X162685714Y-70386835D02*
X162714285Y-70372550D01*
X162714285Y-70372550D02*
X162728571Y-70358264D01*
X162728571Y-70358264D02*
X162742857Y-70329692D01*
X162742857Y-70329692D02*
X162742857Y-70086835D01*
X163028571Y-70086835D02*
X162885714Y-70086835D01*
X162885714Y-70086835D02*
X162871428Y-70229692D01*
X162871428Y-70229692D02*
X162885714Y-70215407D01*
X162885714Y-70215407D02*
X162914286Y-70201121D01*
X162914286Y-70201121D02*
X162985714Y-70201121D01*
X162985714Y-70201121D02*
X163014286Y-70215407D01*
X163014286Y-70215407D02*
X163028571Y-70229692D01*
X163028571Y-70229692D02*
X163042857Y-70258264D01*
X163042857Y-70258264D02*
X163042857Y-70329692D01*
X163042857Y-70329692D02*
X163028571Y-70358264D01*
X163028571Y-70358264D02*
X163014286Y-70372550D01*
X163014286Y-70372550D02*
X162985714Y-70386835D01*
X162985714Y-70386835D02*
X162914286Y-70386835D01*
X162914286Y-70386835D02*
X162885714Y-70372550D01*
X162885714Y-70372550D02*
X162871428Y-70358264D01*
X180950000Y-65859264D02*
X180935714Y-65873550D01*
X180935714Y-65873550D02*
X180892857Y-65887835D01*
X180892857Y-65887835D02*
X180864285Y-65887835D01*
X180864285Y-65887835D02*
X180821428Y-65873550D01*
X180821428Y-65873550D02*
X180792857Y-65844978D01*
X180792857Y-65844978D02*
X180778571Y-65816407D01*
X180778571Y-65816407D02*
X180764285Y-65759264D01*
X180764285Y-65759264D02*
X180764285Y-65716407D01*
X180764285Y-65716407D02*
X180778571Y-65659264D01*
X180778571Y-65659264D02*
X180792857Y-65630692D01*
X180792857Y-65630692D02*
X180821428Y-65602121D01*
X180821428Y-65602121D02*
X180864285Y-65587835D01*
X180864285Y-65587835D02*
X180892857Y-65587835D01*
X180892857Y-65587835D02*
X180935714Y-65602121D01*
X180935714Y-65602121D02*
X180950000Y-65616407D01*
X181050000Y-65587835D02*
X181235714Y-65587835D01*
X181235714Y-65587835D02*
X181135714Y-65702121D01*
X181135714Y-65702121D02*
X181178571Y-65702121D01*
X181178571Y-65702121D02*
X181207143Y-65716407D01*
X181207143Y-65716407D02*
X181221428Y-65730692D01*
X181221428Y-65730692D02*
X181235714Y-65759264D01*
X181235714Y-65759264D02*
X181235714Y-65830692D01*
X181235714Y-65830692D02*
X181221428Y-65859264D01*
X181221428Y-65859264D02*
X181207143Y-65873550D01*
X181207143Y-65873550D02*
X181178571Y-65887835D01*
X181178571Y-65887835D02*
X181092857Y-65887835D01*
X181092857Y-65887835D02*
X181064285Y-65873550D01*
X181064285Y-65873550D02*
X181050000Y-65859264D01*
X166650000Y-69086835D02*
X166650000Y-69301121D01*
X166650000Y-69301121D02*
X166635715Y-69343978D01*
X166635715Y-69343978D02*
X166607143Y-69372550D01*
X166607143Y-69372550D02*
X166564286Y-69386835D01*
X166564286Y-69386835D02*
X166535715Y-69386835D01*
X166950000Y-69386835D02*
X166778571Y-69386835D01*
X166864286Y-69386835D02*
X166864286Y-69086835D01*
X166864286Y-69086835D02*
X166835714Y-69129692D01*
X166835714Y-69129692D02*
X166807143Y-69158264D01*
X166807143Y-69158264D02*
X166778571Y-69172550D01*
X161558264Y-78942856D02*
X161572550Y-78957142D01*
X161572550Y-78957142D02*
X161586835Y-78999999D01*
X161586835Y-78999999D02*
X161586835Y-79028571D01*
X161586835Y-79028571D02*
X161572550Y-79071428D01*
X161572550Y-79071428D02*
X161543978Y-79099999D01*
X161543978Y-79099999D02*
X161515407Y-79114285D01*
X161515407Y-79114285D02*
X161458264Y-79128571D01*
X161458264Y-79128571D02*
X161415407Y-79128571D01*
X161415407Y-79128571D02*
X161358264Y-79114285D01*
X161358264Y-79114285D02*
X161329692Y-79099999D01*
X161329692Y-79099999D02*
X161301121Y-79071428D01*
X161301121Y-79071428D02*
X161286835Y-79028571D01*
X161286835Y-79028571D02*
X161286835Y-78999999D01*
X161286835Y-78999999D02*
X161301121Y-78957142D01*
X161301121Y-78957142D02*
X161315407Y-78942856D01*
X161586835Y-78657142D02*
X161586835Y-78828571D01*
X161586835Y-78742856D02*
X161286835Y-78742856D01*
X161286835Y-78742856D02*
X161329692Y-78771428D01*
X161329692Y-78771428D02*
X161358264Y-78799999D01*
X161358264Y-78799999D02*
X161372550Y-78828571D01*
X161286835Y-78385714D02*
X161286835Y-78528571D01*
X161286835Y-78528571D02*
X161429692Y-78542857D01*
X161429692Y-78542857D02*
X161415407Y-78528571D01*
X161415407Y-78528571D02*
X161401121Y-78500000D01*
X161401121Y-78500000D02*
X161401121Y-78428571D01*
X161401121Y-78428571D02*
X161415407Y-78400000D01*
X161415407Y-78400000D02*
X161429692Y-78385714D01*
X161429692Y-78385714D02*
X161458264Y-78371428D01*
X161458264Y-78371428D02*
X161529692Y-78371428D01*
X161529692Y-78371428D02*
X161558264Y-78385714D01*
X161558264Y-78385714D02*
X161572550Y-78400000D01*
X161572550Y-78400000D02*
X161586835Y-78428571D01*
X161586835Y-78428571D02*
X161586835Y-78500000D01*
X161586835Y-78500000D02*
X161572550Y-78528571D01*
X161572550Y-78528571D02*
X161558264Y-78542857D01*
X160557143Y-80108264D02*
X160542857Y-80122550D01*
X160542857Y-80122550D02*
X160500000Y-80136835D01*
X160500000Y-80136835D02*
X160471428Y-80136835D01*
X160471428Y-80136835D02*
X160428571Y-80122550D01*
X160428571Y-80122550D02*
X160400000Y-80093978D01*
X160400000Y-80093978D02*
X160385714Y-80065407D01*
X160385714Y-80065407D02*
X160371428Y-80008264D01*
X160371428Y-80008264D02*
X160371428Y-79965407D01*
X160371428Y-79965407D02*
X160385714Y-79908264D01*
X160385714Y-79908264D02*
X160400000Y-79879692D01*
X160400000Y-79879692D02*
X160428571Y-79851121D01*
X160428571Y-79851121D02*
X160471428Y-79836835D01*
X160471428Y-79836835D02*
X160500000Y-79836835D01*
X160500000Y-79836835D02*
X160542857Y-79851121D01*
X160542857Y-79851121D02*
X160557143Y-79865407D01*
X160842857Y-80136835D02*
X160671428Y-80136835D01*
X160757143Y-80136835D02*
X160757143Y-79836835D01*
X160757143Y-79836835D02*
X160728571Y-79879692D01*
X160728571Y-79879692D02*
X160700000Y-79908264D01*
X160700000Y-79908264D02*
X160671428Y-79922550D01*
X161128571Y-80136835D02*
X160957142Y-80136835D01*
X161042857Y-80136835D02*
X161042857Y-79836835D01*
X161042857Y-79836835D02*
X161014285Y-79879692D01*
X161014285Y-79879692D02*
X160985714Y-79908264D01*
X160985714Y-79908264D02*
X160957142Y-79922550D01*
X180557143Y-70887835D02*
X180457143Y-70744978D01*
X180385714Y-70887835D02*
X180385714Y-70587835D01*
X180385714Y-70587835D02*
X180500000Y-70587835D01*
X180500000Y-70587835D02*
X180528571Y-70602121D01*
X180528571Y-70602121D02*
X180542857Y-70616407D01*
X180542857Y-70616407D02*
X180557143Y-70644978D01*
X180557143Y-70644978D02*
X180557143Y-70687835D01*
X180557143Y-70687835D02*
X180542857Y-70716407D01*
X180542857Y-70716407D02*
X180528571Y-70730692D01*
X180528571Y-70730692D02*
X180500000Y-70744978D01*
X180500000Y-70744978D02*
X180385714Y-70744978D01*
X180842857Y-70887835D02*
X180671428Y-70887835D01*
X180757143Y-70887835D02*
X180757143Y-70587835D01*
X180757143Y-70587835D02*
X180728571Y-70630692D01*
X180728571Y-70630692D02*
X180700000Y-70659264D01*
X180700000Y-70659264D02*
X180671428Y-70673550D01*
X181028571Y-70587835D02*
X181057142Y-70587835D01*
X181057142Y-70587835D02*
X181085714Y-70602121D01*
X181085714Y-70602121D02*
X181100000Y-70616407D01*
X181100000Y-70616407D02*
X181114285Y-70644978D01*
X181114285Y-70644978D02*
X181128571Y-70702121D01*
X181128571Y-70702121D02*
X181128571Y-70773550D01*
X181128571Y-70773550D02*
X181114285Y-70830692D01*
X181114285Y-70830692D02*
X181100000Y-70859264D01*
X181100000Y-70859264D02*
X181085714Y-70873550D01*
X181085714Y-70873550D02*
X181057142Y-70887835D01*
X181057142Y-70887835D02*
X181028571Y-70887835D01*
X181028571Y-70887835D02*
X181000000Y-70873550D01*
X181000000Y-70873550D02*
X180985714Y-70859264D01*
X180985714Y-70859264D02*
X180971428Y-70830692D01*
X180971428Y-70830692D02*
X180957142Y-70773550D01*
X180957142Y-70773550D02*
X180957142Y-70702121D01*
X180957142Y-70702121D02*
X180971428Y-70644978D01*
X180971428Y-70644978D02*
X180985714Y-70616407D01*
X180985714Y-70616407D02*
X181000000Y-70602121D01*
X181000000Y-70602121D02*
X181028571Y-70587835D01*
X179528571Y-70387835D02*
X179528571Y-70087835D01*
X179528571Y-70087835D02*
X179600000Y-70087835D01*
X179600000Y-70087835D02*
X179642857Y-70102121D01*
X179642857Y-70102121D02*
X179671428Y-70130692D01*
X179671428Y-70130692D02*
X179685714Y-70159264D01*
X179685714Y-70159264D02*
X179700000Y-70216407D01*
X179700000Y-70216407D02*
X179700000Y-70259264D01*
X179700000Y-70259264D02*
X179685714Y-70316407D01*
X179685714Y-70316407D02*
X179671428Y-70344978D01*
X179671428Y-70344978D02*
X179642857Y-70373550D01*
X179642857Y-70373550D02*
X179600000Y-70387835D01*
X179600000Y-70387835D02*
X179528571Y-70387835D01*
X179814285Y-70116407D02*
X179828571Y-70102121D01*
X179828571Y-70102121D02*
X179857143Y-70087835D01*
X179857143Y-70087835D02*
X179928571Y-70087835D01*
X179928571Y-70087835D02*
X179957143Y-70102121D01*
X179957143Y-70102121D02*
X179971428Y-70116407D01*
X179971428Y-70116407D02*
X179985714Y-70144978D01*
X179985714Y-70144978D02*
X179985714Y-70173550D01*
X179985714Y-70173550D02*
X179971428Y-70216407D01*
X179971428Y-70216407D02*
X179800000Y-70387835D01*
X179800000Y-70387835D02*
X179985714Y-70387835D01*
X179706071Y-77387835D02*
X179706071Y-77087835D01*
X179706071Y-77087835D02*
X179777500Y-77087835D01*
X179777500Y-77087835D02*
X179820357Y-77102121D01*
X179820357Y-77102121D02*
X179848928Y-77130692D01*
X179848928Y-77130692D02*
X179863214Y-77159264D01*
X179863214Y-77159264D02*
X179877500Y-77216407D01*
X179877500Y-77216407D02*
X179877500Y-77259264D01*
X179877500Y-77259264D02*
X179863214Y-77316407D01*
X179863214Y-77316407D02*
X179848928Y-77344978D01*
X179848928Y-77344978D02*
X179820357Y-77373550D01*
X179820357Y-77373550D02*
X179777500Y-77387835D01*
X179777500Y-77387835D02*
X179706071Y-77387835D01*
X180163214Y-77387835D02*
X179991785Y-77387835D01*
X180077500Y-77387835D02*
X180077500Y-77087835D01*
X180077500Y-77087835D02*
X180048928Y-77130692D01*
X180048928Y-77130692D02*
X180020357Y-77159264D01*
X180020357Y-77159264D02*
X179991785Y-77173550D01*
X178700000Y-67637835D02*
X178600000Y-67494978D01*
X178528571Y-67637835D02*
X178528571Y-67337835D01*
X178528571Y-67337835D02*
X178642857Y-67337835D01*
X178642857Y-67337835D02*
X178671428Y-67352121D01*
X178671428Y-67352121D02*
X178685714Y-67366407D01*
X178685714Y-67366407D02*
X178700000Y-67394978D01*
X178700000Y-67394978D02*
X178700000Y-67437835D01*
X178700000Y-67437835D02*
X178685714Y-67466407D01*
X178685714Y-67466407D02*
X178671428Y-67480692D01*
X178671428Y-67480692D02*
X178642857Y-67494978D01*
X178642857Y-67494978D02*
X178528571Y-67494978D01*
X178971428Y-67337835D02*
X178828571Y-67337835D01*
X178828571Y-67337835D02*
X178814285Y-67480692D01*
X178814285Y-67480692D02*
X178828571Y-67466407D01*
X178828571Y-67466407D02*
X178857143Y-67452121D01*
X178857143Y-67452121D02*
X178928571Y-67452121D01*
X178928571Y-67452121D02*
X178957143Y-67466407D01*
X178957143Y-67466407D02*
X178971428Y-67480692D01*
X178971428Y-67480692D02*
X178985714Y-67509264D01*
X178985714Y-67509264D02*
X178985714Y-67580692D01*
X178985714Y-67580692D02*
X178971428Y-67609264D01*
X178971428Y-67609264D02*
X178957143Y-67623550D01*
X178957143Y-67623550D02*
X178928571Y-67637835D01*
X178928571Y-67637835D02*
X178857143Y-67637835D01*
X178857143Y-67637835D02*
X178828571Y-67623550D01*
X178828571Y-67623550D02*
X178814285Y-67609264D01*
X157567143Y-78436835D02*
X157467143Y-78293978D01*
X157395714Y-78436835D02*
X157395714Y-78136835D01*
X157395714Y-78136835D02*
X157510000Y-78136835D01*
X157510000Y-78136835D02*
X157538571Y-78151121D01*
X157538571Y-78151121D02*
X157552857Y-78165407D01*
X157552857Y-78165407D02*
X157567143Y-78193978D01*
X157567143Y-78193978D02*
X157567143Y-78236835D01*
X157567143Y-78236835D02*
X157552857Y-78265407D01*
X157552857Y-78265407D02*
X157538571Y-78279692D01*
X157538571Y-78279692D02*
X157510000Y-78293978D01*
X157510000Y-78293978D02*
X157395714Y-78293978D01*
X157852857Y-78436835D02*
X157681428Y-78436835D01*
X157767143Y-78436835D02*
X157767143Y-78136835D01*
X157767143Y-78136835D02*
X157738571Y-78179692D01*
X157738571Y-78179692D02*
X157710000Y-78208264D01*
X157710000Y-78208264D02*
X157681428Y-78222550D01*
X158110000Y-78236835D02*
X158110000Y-78436835D01*
X158038571Y-78122550D02*
X157967142Y-78336835D01*
X157967142Y-78336835D02*
X158152857Y-78336835D01*
X156950000Y-80408264D02*
X156935714Y-80422550D01*
X156935714Y-80422550D02*
X156892857Y-80436835D01*
X156892857Y-80436835D02*
X156864285Y-80436835D01*
X156864285Y-80436835D02*
X156821428Y-80422550D01*
X156821428Y-80422550D02*
X156792857Y-80393978D01*
X156792857Y-80393978D02*
X156778571Y-80365407D01*
X156778571Y-80365407D02*
X156764285Y-80308264D01*
X156764285Y-80308264D02*
X156764285Y-80265407D01*
X156764285Y-80265407D02*
X156778571Y-80208264D01*
X156778571Y-80208264D02*
X156792857Y-80179692D01*
X156792857Y-80179692D02*
X156821428Y-80151121D01*
X156821428Y-80151121D02*
X156864285Y-80136835D01*
X156864285Y-80136835D02*
X156892857Y-80136835D01*
X156892857Y-80136835D02*
X156935714Y-80151121D01*
X156935714Y-80151121D02*
X156950000Y-80165407D01*
X157235714Y-80436835D02*
X157064285Y-80436835D01*
X157150000Y-80436835D02*
X157150000Y-80136835D01*
X157150000Y-80136835D02*
X157121428Y-80179692D01*
X157121428Y-80179692D02*
X157092857Y-80208264D01*
X157092857Y-80208264D02*
X157064285Y-80222550D01*
X176200000Y-82887835D02*
X176057143Y-82887835D01*
X176057143Y-82887835D02*
X176057143Y-82587835D01*
X176457143Y-82887835D02*
X176285714Y-82887835D01*
X176371429Y-82887835D02*
X176371429Y-82587835D01*
X176371429Y-82587835D02*
X176342857Y-82630692D01*
X176342857Y-82630692D02*
X176314286Y-82659264D01*
X176314286Y-82659264D02*
X176285714Y-82673550D01*
D13*
%TO.C,C9*%
X164240000Y-81890580D02*
X164240000Y-81609420D01*
X165260000Y-81890580D02*
X165260000Y-81609420D01*
%TO.C,C4*%
X171627836Y-63141000D02*
X171412164Y-63141000D01*
X171627836Y-63861000D02*
X171412164Y-63861000D01*
%TO.C,C12*%
X171607836Y-64641000D02*
X171392164Y-64641000D01*
X171607836Y-65361000D02*
X171392164Y-65361000D01*
%TO.C,C14*%
X155390000Y-81392164D02*
X155390000Y-81607836D01*
X156110000Y-81392164D02*
X156110000Y-81607836D01*
%TO.C,U2*%
X128110000Y-64440000D02*
X134310000Y-64440000D01*
X128110000Y-82840000D02*
X128110000Y-64440000D01*
X128110000Y-82840000D02*
X134310000Y-82840000D01*
X152960000Y-82840000D02*
X153960000Y-82840000D01*
X153960000Y-64440000D02*
X152960000Y-64440000D01*
X153960000Y-64440000D02*
X153960000Y-65940000D01*
X153960000Y-82840000D02*
X153960000Y-81340000D01*
X134985000Y-83340000D02*
X134485000Y-82840000D01*
X134985000Y-82840000D01*
X134985000Y-83340000D01*
G36*
X134985000Y-83340000D02*
G01*
X134485000Y-82840000D01*
X134985000Y-82840000D01*
X134985000Y-83340000D01*
G37*
%TO.C,R13*%
X167390000Y-72654641D02*
X167390000Y-72347359D01*
X168150000Y-72654641D02*
X168150000Y-72347359D01*
%TO.C,C17*%
X156140000Y-75122164D02*
X156140000Y-75337836D01*
X156860000Y-75122164D02*
X156860000Y-75337836D01*
%TO.C,C8*%
X172390580Y-78841000D02*
X172109420Y-78841000D01*
X172390580Y-79861000D02*
X172109420Y-79861000D01*
%TO.C,R15*%
X156403641Y-76620000D02*
X156096359Y-76620000D01*
X156403641Y-77380000D02*
X156096359Y-77380000D01*
%TO.C,C2*%
X157990000Y-81609420D02*
X157990000Y-81890580D01*
X159010000Y-81609420D02*
X159010000Y-81890580D01*
%TO.C,C5*%
X179115000Y-81435420D02*
X179115000Y-81716580D01*
X180135000Y-81435420D02*
X180135000Y-81716580D01*
%TO.C,C16*%
X160357836Y-77140000D02*
X160142164Y-77140000D01*
X160357836Y-77860000D02*
X160142164Y-77860000D01*
%TO.C,C7*%
X166240000Y-81584420D02*
X166240000Y-81865580D01*
X167260000Y-81584420D02*
X167260000Y-81865580D01*
D14*
%TO.C,U4*%
X168770000Y-72016000D02*
X168770000Y-75566000D01*
X168770000Y-72016000D02*
X168770000Y-75566000D01*
X178770000Y-72016000D02*
X178770000Y-75566000D01*
X178770000Y-72016000D02*
X178770000Y-75566000D01*
D15*
X179625000Y-71041000D02*
G75*
G02*
X179425000Y-71041000I-100000J0D01*
G01*
X179425000Y-71041000D02*
G75*
G02*
X179625000Y-71041000I100000J0D01*
G01*
D13*
%TO.C,C18*%
X160357836Y-75890000D02*
X160142164Y-75890000D01*
X160357836Y-76610000D02*
X160142164Y-76610000D01*
%TO.C,J5*%
X186550000Y-69291000D02*
X188550000Y-69291000D01*
X186550000Y-78691000D02*
X188550000Y-78691000D01*
D14*
%TO.C,Q2*%
X164610000Y-70851000D02*
X164610000Y-71681000D01*
X164610000Y-70851000D02*
X165550000Y-70851000D01*
X164610000Y-72921000D02*
X164610000Y-73751000D01*
X165550000Y-73751000D02*
X164610000Y-73751000D01*
D15*
X166370000Y-74551000D02*
G75*
G02*
X166170000Y-74551000I-100000J0D01*
G01*
X166170000Y-74551000D02*
G75*
G02*
X166370000Y-74551000I100000J0D01*
G01*
D13*
%TO.C,C10*%
X162240000Y-81900580D02*
X162240000Y-81619420D01*
X163260000Y-81900580D02*
X163260000Y-81619420D01*
D14*
%TO.C,Q1*%
X164610000Y-75101000D02*
X164610000Y-75931000D01*
X164610000Y-75101000D02*
X165550000Y-75101000D01*
X164610000Y-77171000D02*
X164610000Y-78001000D01*
X165550000Y-78001000D02*
X164610000Y-78001000D01*
D15*
X166370000Y-78801000D02*
G75*
G02*
X166170000Y-78801000I-100000J0D01*
G01*
X166170000Y-78801000D02*
G75*
G02*
X166370000Y-78801000I100000J0D01*
G01*
D13*
%TO.C,R11*%
X156403641Y-79120000D02*
X156096359Y-79120000D01*
X156403641Y-79880000D02*
X156096359Y-79880000D01*
%TO.C,R12*%
X167390000Y-76597359D02*
X167390000Y-76904641D01*
X168150000Y-76597359D02*
X168150000Y-76904641D01*
%TO.C,R1*%
X170393641Y-80971000D02*
X170086359Y-80971000D01*
X170393641Y-81731000D02*
X170086359Y-81731000D01*
%TO.C,R4*%
X179596359Y-63370000D02*
X179903641Y-63370000D01*
X179596359Y-64130000D02*
X179903641Y-64130000D01*
%TO.C,R9*%
X180120000Y-75347359D02*
X180120000Y-75654641D01*
X180880000Y-75347359D02*
X180880000Y-75654641D01*
%TO.C,R8*%
X170370000Y-66904641D02*
X170370000Y-66597359D01*
X171130000Y-66904641D02*
X171130000Y-66597359D01*
%TO.C,R7*%
X171620000Y-66904641D02*
X171620000Y-66597359D01*
X172380000Y-66904641D02*
X172380000Y-66597359D01*
%TO.C,R2*%
X172096359Y-80971000D02*
X172403641Y-80971000D01*
X172096359Y-81731000D02*
X172403641Y-81731000D01*
%TO.C,R6*%
X179903641Y-64370000D02*
X179596359Y-64370000D01*
X179903641Y-65130000D02*
X179596359Y-65130000D01*
%TO.C,U5*%
X157600000Y-70350000D02*
X157600000Y-70875000D01*
X157600000Y-70350000D02*
X158125000Y-70350000D01*
X157600000Y-74650000D02*
X157600000Y-74125000D01*
X157600000Y-74650000D02*
X158125000Y-74650000D01*
X161435000Y-70350000D02*
X161660000Y-70350000D01*
X161900000Y-70875000D02*
X161900000Y-70650000D01*
X161900000Y-74650000D02*
X161375000Y-74650000D01*
X161900000Y-74650000D02*
X161900000Y-74125000D01*
X162230000Y-70590000D02*
X161900000Y-70350000D01*
X162230000Y-70110000D01*
X162230000Y-70590000D01*
G36*
X162230000Y-70590000D02*
G01*
X161900000Y-70350000D01*
X162230000Y-70110000D01*
X162230000Y-70590000D01*
G37*
%TO.C,C3*%
X179877836Y-65391000D02*
X179662164Y-65391000D01*
X179877836Y-66111000D02*
X179662164Y-66111000D01*
D14*
%TO.C,J1*%
X158550000Y-63600000D02*
X165950000Y-63600000D01*
X158550000Y-69350000D02*
X158550000Y-63600000D01*
X165950000Y-63600000D02*
X165950000Y-69350000D01*
X165950000Y-69350000D02*
X158550000Y-69350000D01*
D15*
X166790000Y-67000000D02*
G75*
G02*
X166590000Y-67000000I-100000J0D01*
G01*
X166590000Y-67000000D02*
G75*
G02*
X166790000Y-67000000I100000J0D01*
G01*
D13*
%TO.C,C15*%
X160357836Y-78390000D02*
X160142164Y-78390000D01*
X160357836Y-79110000D02*
X160142164Y-79110000D01*
%TO.C,C11*%
X160240000Y-81890580D02*
X160240000Y-81609420D01*
X161260000Y-81890580D02*
X161260000Y-81609420D01*
%TO.C,R10*%
X180120000Y-72164641D02*
X180120000Y-71857359D01*
X180880000Y-72164641D02*
X180880000Y-71857359D01*
%TO.C,U1*%
X174450000Y-64203500D02*
X174925000Y-64203500D01*
X174450000Y-64678500D02*
X174450000Y-64203500D01*
X174450000Y-66948500D02*
X174450000Y-67423500D01*
X174450000Y-67423500D02*
X174925000Y-67423500D01*
X177195000Y-64203500D02*
X177430000Y-64203500D01*
X177670000Y-64678500D02*
X177670000Y-64503500D01*
X177670000Y-66948500D02*
X177670000Y-67423500D01*
X177670000Y-67423500D02*
X177195000Y-67423500D01*
X178000000Y-64443500D02*
X177670000Y-64203500D01*
X178000000Y-63963500D01*
X178000000Y-64443500D01*
G36*
X178000000Y-64443500D02*
G01*
X177670000Y-64203500D01*
X178000000Y-63963500D01*
X178000000Y-64443500D01*
G37*
D16*
%TO.C,D2*%
X178712500Y-69501000D02*
G75*
G02*
X178612500Y-69501000I-50000J0D01*
G01*
X178612500Y-69501000D02*
G75*
G02*
X178712500Y-69501000I50000J0D01*
G01*
%TO.C,D1*%
X178712500Y-78001000D02*
G75*
G02*
X178612500Y-78001000I-50000J0D01*
G01*
X178612500Y-78001000D02*
G75*
G02*
X178712500Y-78001000I50000J0D01*
G01*
D13*
%TO.C,R5*%
X178903641Y-67871000D02*
X178596359Y-67871000D01*
X178903641Y-68631000D02*
X178596359Y-68631000D01*
%TO.C,R14*%
X156403641Y-77870000D02*
X156096359Y-77870000D01*
X156403641Y-78630000D02*
X156096359Y-78630000D01*
%TO.C,R3*%
X170393641Y-82221000D02*
X170086359Y-82221000D01*
X170393641Y-82981000D02*
X170086359Y-82981000D01*
%TO.C,U3*%
X174600000Y-79161000D02*
X174600000Y-78911000D01*
X174600000Y-81961000D02*
X174600000Y-82211000D01*
X175265000Y-78911000D02*
X174600000Y-78911000D01*
X175265000Y-82211000D02*
X174600000Y-82211000D01*
X177550000Y-82211000D02*
X177235000Y-82211000D01*
X177900000Y-78911000D02*
X177235000Y-78911000D01*
X177900000Y-78911000D02*
X177900000Y-79161000D01*
X178300000Y-82311000D02*
X177820000Y-82311000D01*
X178060000Y-81981000D01*
X178300000Y-82311000D01*
G36*
X178300000Y-82311000D02*
G01*
X177820000Y-82311000D01*
X178060000Y-81981000D01*
X178300000Y-82311000D01*
G37*
%TO.C,C1*%
X156640000Y-81392164D02*
X156640000Y-81607836D01*
X157360000Y-81392164D02*
X157360000Y-81607836D01*
%TO.C,C6*%
X180990000Y-81435420D02*
X180990000Y-81716580D01*
X182010000Y-81435420D02*
X182010000Y-81716580D01*
%TD*%
M02*
