%TF.GenerationSoftware,KiCad,Pcbnew,9.0.2*%
%TF.CreationDate,2025-11-10T16:04:38+08:00*%
%TF.ProjectId,TrlBoard,54726c42-6f61-4726-942e-6b696361645f,rev?*%
%TF.SameCoordinates,Original*%
%TF.FileFunction,Soldermask,Bot*%
%TF.FilePolarity,Negative*%
%FSLAX46Y46*%
G04 Gerber Fmt 4.6, Leading zero omitted, Abs format (unit mm)*
G04 Created by KiCad (PCBNEW 9.0.2) date 2025-11-10 16:04:38*
%MOMM*%
%LPD*%
G01*
G04 APERTURE LIST*
G04 Aperture macros list*
%AMRoundRect*
0 Rectangle with rounded corners*
0 $1 Rounding radius*
0 $2 $3 $4 $5 $6 $7 $8 $9 X,Y pos of 4 corners*
0 Add a 4 corners polygon primitive as box body*
4,1,4,$2,$3,$4,$5,$6,$7,$8,$9,$2,$3,0*
0 Add four circle primitives for the rounded corners*
1,1,$1+$1,$2,$3*
1,1,$1+$1,$4,$5*
1,1,$1+$1,$6,$7*
1,1,$1+$1,$8,$9*
0 Add four rect primitives between the rounded corners*
20,1,$1+$1,$2,$3,$4,$5,0*
20,1,$1+$1,$4,$5,$6,$7,0*
20,1,$1+$1,$6,$7,$8,$9,0*
20,1,$1+$1,$8,$9,$2,$3,0*%
G04 Aperture macros list end*
%ADD10C,0.200000*%
%ADD11C,0.300000*%
%ADD12C,0.000000*%
%ADD13C,0.650000*%
%ADD14O,2.100000X1.000000*%
%ADD15O,1.600000X1.000000*%
%ADD16RoundRect,0.102000X-0.787500X-0.787500X0.787500X-0.787500X0.787500X0.787500X-0.787500X0.787500X0*%
%ADD17C,1.779000*%
%ADD18C,0.600000*%
%ADD19R,1.700000X1.700000*%
%ADD20C,1.700000*%
G04 APERTURE END LIST*
D10*
X169132780Y-75439850D02*
X169132780Y-75344612D01*
X169132780Y-75344612D02*
X169085161Y-75249374D01*
X169085161Y-75249374D02*
X169037542Y-75201755D01*
X169037542Y-75201755D02*
X168942304Y-75154136D01*
X168942304Y-75154136D02*
X168751828Y-75106517D01*
X168751828Y-75106517D02*
X168513733Y-75106517D01*
X168513733Y-75106517D02*
X168323257Y-75154136D01*
X168323257Y-75154136D02*
X168228019Y-75201755D01*
X168228019Y-75201755D02*
X168180400Y-75249374D01*
X168180400Y-75249374D02*
X168132780Y-75344612D01*
X168132780Y-75344612D02*
X168132780Y-75439850D01*
X168132780Y-75439850D02*
X168180400Y-75535088D01*
X168180400Y-75535088D02*
X168228019Y-75582707D01*
X168228019Y-75582707D02*
X168323257Y-75630326D01*
X168323257Y-75630326D02*
X168513733Y-75677945D01*
X168513733Y-75677945D02*
X168751828Y-75677945D01*
X168751828Y-75677945D02*
X168942304Y-75630326D01*
X168942304Y-75630326D02*
X169037542Y-75582707D01*
X169037542Y-75582707D02*
X169085161Y-75535088D01*
X169085161Y-75535088D02*
X169132780Y-75439850D01*
X168132780Y-74154136D02*
X168132780Y-74725564D01*
X168132780Y-74439850D02*
X169132780Y-74439850D01*
X169132780Y-74439850D02*
X168989923Y-74535088D01*
X168989923Y-74535088D02*
X168894685Y-74630326D01*
X168894685Y-74630326D02*
X168847066Y-74725564D01*
X169180400Y-73011279D02*
X167894685Y-73868421D01*
X169132780Y-72487469D02*
X169132780Y-72392231D01*
X169132780Y-72392231D02*
X169085161Y-72296993D01*
X169085161Y-72296993D02*
X169037542Y-72249374D01*
X169037542Y-72249374D02*
X168942304Y-72201755D01*
X168942304Y-72201755D02*
X168751828Y-72154136D01*
X168751828Y-72154136D02*
X168513733Y-72154136D01*
X168513733Y-72154136D02*
X168323257Y-72201755D01*
X168323257Y-72201755D02*
X168228019Y-72249374D01*
X168228019Y-72249374D02*
X168180400Y-72296993D01*
X168180400Y-72296993D02*
X168132780Y-72392231D01*
X168132780Y-72392231D02*
X168132780Y-72487469D01*
X168132780Y-72487469D02*
X168180400Y-72582707D01*
X168180400Y-72582707D02*
X168228019Y-72630326D01*
X168228019Y-72630326D02*
X168323257Y-72677945D01*
X168323257Y-72677945D02*
X168513733Y-72725564D01*
X168513733Y-72725564D02*
X168751828Y-72725564D01*
X168751828Y-72725564D02*
X168942304Y-72677945D01*
X168942304Y-72677945D02*
X169037542Y-72630326D01*
X169037542Y-72630326D02*
X169085161Y-72582707D01*
X169085161Y-72582707D02*
X169132780Y-72487469D01*
X169037542Y-71773183D02*
X169085161Y-71725564D01*
X169085161Y-71725564D02*
X169132780Y-71630326D01*
X169132780Y-71630326D02*
X169132780Y-71392231D01*
X169132780Y-71392231D02*
X169085161Y-71296993D01*
X169085161Y-71296993D02*
X169037542Y-71249374D01*
X169037542Y-71249374D02*
X168942304Y-71201755D01*
X168942304Y-71201755D02*
X168847066Y-71201755D01*
X168847066Y-71201755D02*
X168704209Y-71249374D01*
X168704209Y-71249374D02*
X168132780Y-71820802D01*
X168132780Y-71820802D02*
X168132780Y-71201755D01*
D11*
G36*
X137520123Y-76555088D02*
G01*
X137639555Y-76587816D01*
X137754161Y-76642812D01*
X137832520Y-76696927D01*
X137902989Y-76762109D01*
X137966059Y-76839217D01*
X138021882Y-76929492D01*
X138064838Y-77024598D01*
X138096339Y-77129393D01*
X138115929Y-77245221D01*
X138122724Y-77373617D01*
X138115818Y-77502715D01*
X138095777Y-77620830D01*
X138063324Y-77729296D01*
X138018768Y-77829282D01*
X137961194Y-77924251D01*
X137896120Y-78005902D01*
X137823415Y-78075468D01*
X137742621Y-78133823D01*
X137654044Y-78181131D01*
X137563790Y-78214371D01*
X137471095Y-78234230D01*
X137375066Y-78240893D01*
X137089485Y-78240893D01*
X136975453Y-78233741D01*
X136872845Y-78213092D01*
X136780055Y-78179723D01*
X136695735Y-78133823D01*
X136618516Y-78075455D01*
X136551505Y-78007524D01*
X136494042Y-77929334D01*
X136445874Y-77839815D01*
X136399505Y-77712588D01*
X136370760Y-77571249D01*
X136360786Y-77413459D01*
X136365757Y-77296721D01*
X136379746Y-77196205D01*
X136402313Y-77097566D01*
X136434334Y-76989301D01*
X136581338Y-77039676D01*
X136543608Y-77165652D01*
X136521422Y-77289302D01*
X136514110Y-77411444D01*
X136521908Y-77536021D01*
X136544291Y-77646642D01*
X136580239Y-77745293D01*
X136632155Y-77835394D01*
X136698270Y-77910465D01*
X136779724Y-77972073D01*
X136871945Y-78016362D01*
X136979720Y-78044144D01*
X137106338Y-78053955D01*
X137375066Y-78053955D01*
X137477899Y-78044953D01*
X137575401Y-78018183D01*
X137669073Y-77973172D01*
X137753071Y-77912050D01*
X137826021Y-77834336D01*
X137888525Y-77737966D01*
X137933586Y-77632114D01*
X137961676Y-77511593D01*
X137971507Y-77373617D01*
X137962394Y-77238099D01*
X137936636Y-77122243D01*
X137895853Y-77022915D01*
X137838037Y-76933138D01*
X137768015Y-76860588D01*
X137684827Y-76803462D01*
X137591905Y-76762692D01*
X137488632Y-76737596D01*
X137372959Y-76728907D01*
X137215514Y-76728907D01*
X137129135Y-76734207D01*
X137062521Y-76748477D01*
X137011724Y-76769849D01*
X136969929Y-76802069D01*
X136946294Y-76840221D01*
X136938268Y-76886444D01*
X136945698Y-76946253D01*
X136965328Y-76986784D01*
X136995970Y-77013481D01*
X137061620Y-77036664D01*
X137167154Y-77045996D01*
X137616591Y-77043889D01*
X137668691Y-77144121D01*
X137700274Y-77253939D01*
X137711113Y-77375723D01*
X137703141Y-77478560D01*
X137681007Y-77562196D01*
X137646429Y-77630255D01*
X137599739Y-77685484D01*
X137541452Y-77729343D01*
X137472129Y-77761663D01*
X137389599Y-77782147D01*
X137291077Y-77789440D01*
X137169261Y-77789440D01*
X137081927Y-77783366D01*
X137008638Y-77766321D01*
X136947033Y-77739512D01*
X136895220Y-77703345D01*
X136852349Y-77656983D01*
X136821504Y-77602475D01*
X136802272Y-77538193D01*
X136795478Y-77461819D01*
X136797344Y-77442860D01*
X136946694Y-77442860D01*
X136953221Y-77496274D01*
X136970963Y-77535315D01*
X136999176Y-77563668D01*
X137036438Y-77582106D01*
X137093544Y-77595237D01*
X137177687Y-77600396D01*
X137280635Y-77600396D01*
X137376241Y-77593263D01*
X137445119Y-77574516D01*
X137493768Y-77546907D01*
X137529955Y-77506220D01*
X137553291Y-77448982D01*
X137562003Y-77369404D01*
X137554502Y-77294142D01*
X137532602Y-77226613D01*
X137032790Y-77226613D01*
X136984448Y-77293577D01*
X136956198Y-77364980D01*
X136946694Y-77442860D01*
X136797344Y-77442860D01*
X136804284Y-77372368D01*
X136830001Y-77291959D01*
X136872725Y-77218602D01*
X136934055Y-77150959D01*
X136875472Y-77112752D01*
X136826985Y-77054422D01*
X136804461Y-77007825D01*
X136790150Y-76951819D01*
X136785036Y-76884337D01*
X136791309Y-76817447D01*
X136809543Y-76757730D01*
X136839624Y-76703720D01*
X136879882Y-76656300D01*
X136928537Y-76616860D01*
X136986628Y-76585018D01*
X137082559Y-76554555D01*
X137190327Y-76544077D01*
X137394025Y-76544077D01*
X137520123Y-76555088D01*
G37*
G36*
X136627500Y-75580355D02*
G01*
X136608444Y-75672365D01*
X136602312Y-75758866D01*
X136611672Y-75862589D01*
X136636802Y-75939599D01*
X136675126Y-75996224D01*
X136726790Y-76036657D01*
X136794629Y-76062350D01*
X136883680Y-76071741D01*
X137578764Y-76071741D01*
X137578764Y-76248146D01*
X137738408Y-76248146D01*
X137738408Y-76067528D01*
X138011441Y-76050767D01*
X138011441Y-75861723D01*
X137738408Y-75861723D01*
X137738408Y-75613969D01*
X137578764Y-75613969D01*
X137578764Y-75861723D01*
X136894213Y-75861723D01*
X136835563Y-75852252D01*
X136798592Y-75827102D01*
X136776763Y-75786083D01*
X136768183Y-75718933D01*
X136771503Y-75657666D01*
X136780823Y-75605543D01*
X136627500Y-75580355D01*
G37*
G36*
X137759382Y-74810990D02*
G01*
X137753921Y-74739772D01*
X137738408Y-74678641D01*
X137541029Y-74716468D01*
X137547257Y-74783696D01*
X137540861Y-74854748D01*
X137522509Y-74916434D01*
X137492669Y-74970542D01*
X137451141Y-75016017D01*
X137391732Y-75056766D01*
X137310036Y-75092358D01*
X136627500Y-75092358D01*
X136627500Y-75302376D01*
X137738408Y-75302376D01*
X137738408Y-75142733D01*
X137557790Y-75109119D01*
X137623671Y-75074369D01*
X137673973Y-75033132D01*
X137711113Y-74985288D01*
X137737945Y-74930384D01*
X137753969Y-74872601D01*
X137759382Y-74810990D01*
G37*
G36*
X136862705Y-74258971D02*
G01*
X136816816Y-74253754D01*
X136791264Y-74241111D01*
X136776222Y-74218645D01*
X136770290Y-74179195D01*
X136772397Y-74151901D01*
X136776610Y-74128820D01*
X136627500Y-74103633D01*
X136608418Y-74172869D01*
X136602312Y-74237997D01*
X136609439Y-74307089D01*
X136629330Y-74362445D01*
X136661113Y-74407074D01*
X136704072Y-74440453D01*
X136758885Y-74461416D01*
X136829091Y-74468989D01*
X138181525Y-74468989D01*
X138181525Y-74258971D01*
X136862705Y-74258971D01*
G37*
G36*
X136322959Y-72827952D02*
G01*
X136322959Y-73871632D01*
X136493044Y-73871632D01*
X136493044Y-72827952D01*
X136322959Y-72827952D01*
G37*
G36*
X137759382Y-72064724D02*
G01*
X137753921Y-71993506D01*
X137738408Y-71932375D01*
X137541029Y-71970202D01*
X137547257Y-72037430D01*
X137540861Y-72108482D01*
X137522509Y-72170168D01*
X137492669Y-72224275D01*
X137451141Y-72269750D01*
X137391732Y-72310500D01*
X137310036Y-72346092D01*
X136627500Y-72346092D01*
X136627500Y-72556110D01*
X137738408Y-72556110D01*
X137738408Y-72396467D01*
X137557790Y-72362853D01*
X137623671Y-72328102D01*
X137673973Y-72286865D01*
X137711113Y-72239022D01*
X137737945Y-72184118D01*
X137753969Y-72126335D01*
X137759382Y-72064724D01*
G37*
G36*
X136627500Y-71449690D02*
G01*
X136627500Y-71659708D01*
X137578764Y-71659708D01*
X137578764Y-71834006D01*
X137738408Y-71834006D01*
X137738408Y-71449690D01*
X136627500Y-71449690D01*
G37*
G36*
X137929467Y-71565186D02*
G01*
X137938973Y-71615705D01*
X137967294Y-71657601D01*
X138009191Y-71685922D01*
X138059709Y-71695429D01*
X138110400Y-71685955D01*
X138153132Y-71657601D01*
X138182241Y-71615625D01*
X138191967Y-71565186D01*
X138182273Y-71514573D01*
X138153132Y-71471763D01*
X138110322Y-71442622D01*
X138059709Y-71432929D01*
X138009270Y-71442655D01*
X137967294Y-71471763D01*
X137938940Y-71514495D01*
X137929467Y-71565186D01*
G37*
G36*
X137587191Y-70379265D02*
G01*
X136795478Y-70942092D01*
X136795478Y-70364519D01*
X136627500Y-70364519D01*
X136627500Y-71173085D01*
X136785036Y-71173085D01*
X137572536Y-70608151D01*
X137572536Y-71143684D01*
X137738408Y-71143684D01*
X137738408Y-70379265D01*
X137587191Y-70379265D01*
G37*
G36*
X137738408Y-69220363D02*
G01*
X136627500Y-69220363D01*
X136627500Y-69398783D01*
X136761864Y-69413529D01*
X136690940Y-69488342D01*
X136641816Y-69569211D01*
X136612373Y-69657610D01*
X136602312Y-69755805D01*
X136613092Y-69854414D01*
X136643977Y-69938042D01*
X136694727Y-70009970D01*
X136744145Y-70053723D01*
X136800230Y-70084869D01*
X136864308Y-70104035D01*
X136938268Y-70110720D01*
X137738408Y-70110720D01*
X137738408Y-69900702D01*
X136946694Y-69900702D01*
X136891204Y-69894888D01*
X136848027Y-69878848D01*
X136814345Y-69853441D01*
X136789623Y-69819192D01*
X136773903Y-69775038D01*
X136768183Y-69718069D01*
X136778885Y-69636614D01*
X136811231Y-69559525D01*
X136862580Y-69490868D01*
X136934055Y-69430290D01*
X137738408Y-69430290D01*
X137738408Y-69220363D01*
G37*
G36*
X190341689Y-76820792D02*
G01*
X188191188Y-76820792D01*
X188191188Y-76343631D01*
X188627500Y-76343631D01*
X189870207Y-76343631D01*
X189870207Y-76654125D01*
X190133989Y-76488162D01*
X190133989Y-76058783D01*
X188627500Y-76058783D01*
X188627500Y-76343631D01*
X188191188Y-76343631D01*
X188191188Y-75168335D01*
X188627500Y-75168335D01*
X189870207Y-75168335D01*
X189870207Y-75478829D01*
X190133989Y-75312866D01*
X190133989Y-74883487D01*
X188627500Y-74883487D01*
X188627500Y-75168335D01*
X188191188Y-75168335D01*
X188191188Y-74240059D01*
X188357855Y-74240059D01*
X188357855Y-74437805D01*
X190175022Y-73760489D01*
X190175022Y-73561644D01*
X188357855Y-74240059D01*
X188191188Y-74240059D01*
X188191188Y-73472068D01*
X188627500Y-73472068D01*
X188764337Y-73472068D01*
X189237954Y-73005778D01*
X189356232Y-72895089D01*
X189445668Y-72823311D01*
X189512086Y-72780922D01*
X189582903Y-72748380D01*
X189644773Y-72730577D01*
X189699390Y-72725052D01*
X189754835Y-72731717D01*
X189801999Y-72750936D01*
X189842821Y-72782937D01*
X189873946Y-72824554D01*
X189892885Y-72873550D01*
X189899516Y-72932047D01*
X189891712Y-72990434D01*
X189868896Y-73040980D01*
X189830090Y-73085737D01*
X189780547Y-73119233D01*
X189718763Y-73141441D01*
X189641596Y-73151316D01*
X189641596Y-73431036D01*
X189763254Y-73416148D01*
X189866289Y-73385038D01*
X189953816Y-73338956D01*
X190028202Y-73277895D01*
X190089302Y-73202756D01*
X190132950Y-73118313D01*
X190159814Y-73022742D01*
X190169160Y-72913546D01*
X190162415Y-72823510D01*
X190142952Y-72743297D01*
X190111366Y-72671288D01*
X190067415Y-72606247D01*
X190012208Y-72550449D01*
X189944579Y-72503218D01*
X189869975Y-72467620D01*
X189796510Y-72446981D01*
X189723112Y-72440203D01*
X189635265Y-72448015D01*
X189539652Y-72472650D01*
X189434508Y-72516590D01*
X189335887Y-72574359D01*
X189215549Y-72664632D01*
X189069335Y-72795760D01*
X188891282Y-72964837D01*
X188891282Y-72427930D01*
X188627500Y-72427930D01*
X188627500Y-73472068D01*
X188191188Y-73472068D01*
X188191188Y-71780290D01*
X188592329Y-71780290D01*
X188599513Y-71875348D01*
X188620371Y-71961228D01*
X188654443Y-72039474D01*
X188702055Y-72111300D01*
X188761234Y-72173800D01*
X188830172Y-72224611D01*
X188910071Y-72264284D01*
X189002657Y-72292650D01*
X189002657Y-71991407D01*
X188940781Y-71950255D01*
X188897602Y-71899724D01*
X188870931Y-71840073D01*
X188861973Y-71774153D01*
X188869642Y-71713505D01*
X188892115Y-71660197D01*
X188930208Y-71612312D01*
X188979241Y-71575682D01*
X189036796Y-71553419D01*
X189105330Y-71545633D01*
X189172131Y-71552911D01*
X189228198Y-71573670D01*
X189275873Y-71607641D01*
X189313326Y-71652452D01*
X189335216Y-71701890D01*
X189342643Y-71757758D01*
X189336882Y-71803976D01*
X189319104Y-71850448D01*
X189290690Y-71894355D01*
X189248395Y-71940116D01*
X189300419Y-72173765D01*
X190133989Y-71991407D01*
X190133989Y-71285423D01*
X189870207Y-71285423D01*
X189870207Y-71777267D01*
X189597998Y-71838725D01*
X189608715Y-71788533D01*
X189612287Y-71741364D01*
X189603202Y-71641388D01*
X189576888Y-71552653D01*
X189533686Y-71472955D01*
X189472519Y-71400736D01*
X189398717Y-71341940D01*
X189315752Y-71299860D01*
X189221844Y-71273932D01*
X189114581Y-71264907D01*
X189007187Y-71274592D01*
X188910884Y-71302760D01*
X188823468Y-71349169D01*
X188743362Y-71415025D01*
X188676845Y-71494794D01*
X188630187Y-71581157D01*
X188601991Y-71675615D01*
X188592329Y-71780290D01*
X188191188Y-71780290D01*
X188191188Y-71098240D01*
X190341689Y-71098240D01*
X190341689Y-76820792D01*
G37*
D12*
%TO.C,G\u002A\u002A\u002A*%
G36*
X164906621Y-72319302D02*
G01*
X165000732Y-72392634D01*
X165011372Y-72406307D01*
X165044593Y-72484527D01*
X165068678Y-72616646D01*
X165085713Y-72817953D01*
X165097784Y-73103734D01*
X165104284Y-73294847D01*
X165115870Y-73506929D01*
X165134463Y-73662807D01*
X165165107Y-73788345D01*
X165212850Y-73909410D01*
X165282736Y-74051867D01*
X165378678Y-74230338D01*
X165481910Y-74406198D01*
X165564842Y-74531357D01*
X165603076Y-74580450D01*
X165677977Y-74649000D01*
X165770499Y-74671865D01*
X165921128Y-74664134D01*
X166161001Y-74641783D01*
X166667346Y-75157739D01*
X166779563Y-75272263D01*
X166944859Y-75444143D01*
X167057560Y-75571132D01*
X167129099Y-75670374D01*
X167170912Y-75759017D01*
X167194433Y-75854207D01*
X167211098Y-75973090D01*
X167231802Y-76112489D01*
X167264025Y-76223836D01*
X167322136Y-76324475D01*
X167421637Y-76440875D01*
X167578034Y-76599502D01*
X167659436Y-76677651D01*
X167992922Y-76941475D01*
X168318390Y-77107189D01*
X168634913Y-77174424D01*
X168941566Y-77142810D01*
X168971833Y-77133770D01*
X169070029Y-77090533D01*
X169181340Y-77016893D01*
X169319216Y-76901939D01*
X169497107Y-76734758D01*
X169728462Y-76504440D01*
X169831163Y-76400488D01*
X170167455Y-76058188D01*
X170440649Y-75776187D01*
X170657315Y-75547097D01*
X170824024Y-75363532D01*
X170947346Y-75218103D01*
X171033851Y-75103422D01*
X171090109Y-75012102D01*
X171122691Y-74936756D01*
X171147620Y-74875732D01*
X171268014Y-74720536D01*
X171432901Y-74627722D01*
X171614170Y-74615653D01*
X171719095Y-74612474D01*
X171844799Y-74527638D01*
X171861555Y-74512287D01*
X171957913Y-74437990D01*
X172122135Y-74319681D01*
X172343036Y-74165136D01*
X172609433Y-73982129D01*
X172910143Y-73778435D01*
X173233980Y-73561831D01*
X173255112Y-73547787D01*
X173627108Y-73301723D01*
X173929180Y-73105047D01*
X174173067Y-72950983D01*
X174370511Y-72832759D01*
X174533250Y-72743598D01*
X174673025Y-72676726D01*
X174801575Y-72625369D01*
X174930640Y-72582752D01*
X175224356Y-72500839D01*
X175662694Y-72414337D01*
X176075405Y-72384101D01*
X176495072Y-72406461D01*
X176810045Y-72445874D01*
X177138877Y-72504296D01*
X177433539Y-72582826D01*
X177711763Y-72689592D01*
X177991283Y-72832724D01*
X178289829Y-73020350D01*
X178625134Y-73260599D01*
X179014931Y-73561600D01*
X179045277Y-73585672D01*
X179264187Y-73769370D01*
X179407019Y-73915069D01*
X179481924Y-74035362D01*
X179497053Y-74142842D01*
X179460556Y-74250103D01*
X179392145Y-74326506D01*
X179260924Y-74434333D01*
X179092887Y-74555299D01*
X178913604Y-74671924D01*
X178748645Y-74766730D01*
X178623580Y-74822238D01*
X178565652Y-74843284D01*
X178539612Y-74883636D01*
X178586153Y-74964689D01*
X178643796Y-75086540D01*
X178651550Y-75259182D01*
X178578807Y-75407761D01*
X178562985Y-75423359D01*
X178526080Y-75446612D01*
X178468425Y-75464572D01*
X178378727Y-75477914D01*
X178245692Y-75487315D01*
X178058028Y-75493449D01*
X177804440Y-75496994D01*
X177473637Y-75498625D01*
X177054325Y-75499019D01*
X176860289Y-75498920D01*
X176446532Y-75497288D01*
X176117421Y-75492350D01*
X175862172Y-75482448D01*
X175669999Y-75465923D01*
X175530117Y-75441120D01*
X175431740Y-75406379D01*
X175364083Y-75360042D01*
X175316361Y-75300453D01*
X175277789Y-75225953D01*
X175261578Y-75181153D01*
X175230508Y-75026410D01*
X175218172Y-74851196D01*
X175218165Y-74845809D01*
X175193180Y-74577787D01*
X175110607Y-74362884D01*
X174956724Y-74165086D01*
X174811667Y-74040972D01*
X174569919Y-73930621D01*
X174307159Y-73916417D01*
X174026758Y-73998328D01*
X173732087Y-74176324D01*
X173722443Y-74183596D01*
X173533618Y-74332120D01*
X173318952Y-74509491D01*
X173123053Y-74678900D01*
X172796899Y-74947754D01*
X172440210Y-75191336D01*
X172024459Y-75426827D01*
X171965059Y-75458647D01*
X171496369Y-75753152D01*
X171009726Y-76131142D01*
X170516355Y-76582449D01*
X170027478Y-77096906D01*
X169554321Y-77664346D01*
X169494769Y-77739615D01*
X169328064Y-77940684D01*
X169179639Y-78106312D01*
X169063253Y-78221617D01*
X168992668Y-78271720D01*
X168952376Y-78273466D01*
X168817252Y-78235477D01*
X168620153Y-78147857D01*
X168372817Y-78017763D01*
X168086977Y-77852352D01*
X167774370Y-77658782D01*
X167446731Y-77444209D01*
X167115796Y-77215791D01*
X166793301Y-76980684D01*
X166490980Y-76746046D01*
X166310037Y-76596451D01*
X165812551Y-76140048D01*
X165368395Y-75663785D01*
X164985636Y-75178526D01*
X164672341Y-74695135D01*
X164436578Y-74224474D01*
X164286414Y-73777408D01*
X164207417Y-73565119D01*
X164083140Y-73393482D01*
X164040360Y-73350963D01*
X163963344Y-73243721D01*
X163949613Y-73153230D01*
X164118313Y-73153230D01*
X164273783Y-73290663D01*
X164389639Y-73428195D01*
X164486769Y-73672385D01*
X164569349Y-73957025D01*
X164786513Y-74459807D01*
X165094007Y-74971225D01*
X165487015Y-75484575D01*
X165960723Y-75993149D01*
X166510313Y-76490243D01*
X166694781Y-76638056D01*
X166995384Y-76862967D01*
X167334145Y-77102841D01*
X167687925Y-77342119D01*
X168033584Y-77565240D01*
X168347982Y-77756645D01*
X168607980Y-77900774D01*
X168936294Y-78068960D01*
X169045701Y-77938260D01*
X169111920Y-77858305D01*
X169229178Y-77715619D01*
X169376508Y-77535669D01*
X169536705Y-77339439D01*
X169979654Y-76821992D01*
X170466656Y-76318941D01*
X170954127Y-75889120D01*
X171456101Y-75520274D01*
X171986611Y-75200151D01*
X172111368Y-75128462D01*
X172428015Y-74923003D01*
X172780084Y-74667226D01*
X173145265Y-74376979D01*
X173189300Y-74340597D01*
X173468932Y-74117142D01*
X173705904Y-73941341D01*
X173890319Y-73820223D01*
X174012282Y-73760824D01*
X174096357Y-73738350D01*
X174429572Y-73704694D01*
X174736957Y-73762467D01*
X175007980Y-73908403D01*
X175232110Y-74139235D01*
X175309416Y-74257564D01*
X175362165Y-74381192D01*
X175394042Y-74535592D01*
X175415311Y-74755280D01*
X175427907Y-74901248D01*
X175452781Y-75067668D01*
X175488463Y-75169772D01*
X175540734Y-75229414D01*
X175586404Y-75245623D01*
X175723074Y-75265654D01*
X175929540Y-75281746D01*
X176190391Y-75293908D01*
X176490215Y-75302147D01*
X176813601Y-75306473D01*
X177145137Y-75306893D01*
X177469412Y-75303416D01*
X177771015Y-75296049D01*
X178034534Y-75284802D01*
X178244558Y-75269682D01*
X178385676Y-75250698D01*
X178442475Y-75227858D01*
X178444045Y-75215937D01*
X178410261Y-75128953D01*
X178320581Y-74991727D01*
X178185829Y-74821405D01*
X178045612Y-74648227D01*
X177883874Y-74410028D01*
X177792135Y-74206906D01*
X177763162Y-74025239D01*
X177771085Y-73969505D01*
X177965942Y-73969505D01*
X177989106Y-74097988D01*
X178059842Y-74276425D01*
X178154297Y-74476032D01*
X178158337Y-74285620D01*
X178158471Y-74264433D01*
X178144243Y-74112502D01*
X178110719Y-73998685D01*
X178070264Y-73941028D01*
X178010915Y-73902162D01*
X177992337Y-73906183D01*
X177965942Y-73969505D01*
X177771085Y-73969505D01*
X177786081Y-73864016D01*
X177869580Y-73743696D01*
X178010805Y-73702555D01*
X178103350Y-73716987D01*
X178239841Y-73808982D01*
X178330053Y-73973449D01*
X178363570Y-74195827D01*
X178364779Y-74239029D01*
X178397248Y-74429049D01*
X178467503Y-74555077D01*
X178567092Y-74600313D01*
X178578087Y-74599530D01*
X178682025Y-74563053D01*
X178823300Y-74484904D01*
X178976834Y-74382815D01*
X179117550Y-74274517D01*
X179220369Y-74177742D01*
X179260215Y-74110222D01*
X179236516Y-74050857D01*
X179143892Y-73942775D01*
X178998231Y-73818705D01*
X178976931Y-73802628D01*
X178798588Y-73667593D01*
X178588218Y-73507786D01*
X178386934Y-73354433D01*
X178104279Y-73155888D01*
X177613190Y-72891773D01*
X177097617Y-72716693D01*
X176544743Y-72626787D01*
X175941748Y-72618195D01*
X175885791Y-72621078D01*
X175627863Y-72640392D01*
X175395713Y-72672130D01*
X175176000Y-72722035D01*
X174955384Y-72795853D01*
X174720524Y-72899327D01*
X174458076Y-73038200D01*
X174154702Y-73218216D01*
X173797059Y-73445121D01*
X173371806Y-73724656D01*
X173308641Y-73766663D01*
X172991815Y-73979332D01*
X172697334Y-74180126D01*
X172437431Y-74360486D01*
X172224335Y-74511853D01*
X172070276Y-74625669D01*
X171987487Y-74693375D01*
X171927199Y-74747900D01*
X171790922Y-74828283D01*
X171631809Y-74850296D01*
X171464120Y-74871714D01*
X171362850Y-74949633D01*
X171301508Y-75104501D01*
X171261982Y-75169922D01*
X171158219Y-75299041D01*
X170998491Y-75481133D01*
X170790649Y-75707482D01*
X170542546Y-75969376D01*
X170262034Y-76258098D01*
X170176123Y-76345450D01*
X169896174Y-76628661D01*
X169673546Y-76850318D01*
X169498874Y-77018600D01*
X169362797Y-77141690D01*
X169255951Y-77227768D01*
X169168972Y-77285013D01*
X169092497Y-77321607D01*
X169017164Y-77345729D01*
X168750445Y-77384691D01*
X168402370Y-77348761D01*
X168050550Y-77220478D01*
X167703172Y-77003051D01*
X167368426Y-76699688D01*
X167229159Y-76549200D01*
X167124862Y-76422299D01*
X167063173Y-76316576D01*
X167029233Y-76205796D01*
X167008180Y-76063723D01*
X167006771Y-76051788D01*
X166989890Y-75933228D01*
X166963474Y-75837733D01*
X166915322Y-75746569D01*
X166833234Y-75641000D01*
X166705009Y-75502294D01*
X166518448Y-75311715D01*
X166062826Y-74849952D01*
X165837454Y-74877052D01*
X165774092Y-74882841D01*
X165634899Y-74882287D01*
X165551201Y-74862729D01*
X165489784Y-74794944D01*
X165396116Y-74659074D01*
X165284815Y-74479122D01*
X165169185Y-74278226D01*
X165062529Y-74079524D01*
X164978151Y-73906153D01*
X164929356Y-73781251D01*
X164914152Y-73710695D01*
X164891227Y-73529649D01*
X164874694Y-73301081D01*
X164867380Y-73057999D01*
X164864861Y-72920361D01*
X164853811Y-72715334D01*
X164835814Y-72576724D01*
X164812570Y-72521193D01*
X164792581Y-72525824D01*
X164710090Y-72581904D01*
X164586441Y-72687905D01*
X164439949Y-72828710D01*
X164118313Y-73153230D01*
X163949613Y-73153230D01*
X163947059Y-73136398D01*
X163996178Y-73013906D01*
X164115373Y-72861153D01*
X164309317Y-72663051D01*
X164497622Y-72489831D01*
X164667035Y-72363220D01*
X164799378Y-72307937D01*
X164906621Y-72319302D01*
G37*
G36*
X139472408Y-70924014D02*
G01*
X139564041Y-71002542D01*
X139575385Y-71015562D01*
X139622223Y-71069614D01*
X139683471Y-71140555D01*
X139748887Y-71216532D01*
X139777247Y-71249493D01*
X139834007Y-71315300D01*
X139877867Y-71365932D01*
X139901113Y-71392475D01*
X139902588Y-71394128D01*
X139927881Y-71423090D01*
X139974577Y-71476963D01*
X140036559Y-71548680D01*
X140107706Y-71631169D01*
X140184587Y-71719991D01*
X140263343Y-71810246D01*
X140332260Y-71888521D01*
X140382113Y-71944290D01*
X140436177Y-72006867D01*
X140501256Y-72100111D01*
X140533760Y-72182630D01*
X140536261Y-72262442D01*
X140511326Y-72347568D01*
X140462404Y-72420774D01*
X140383119Y-72477477D01*
X140288235Y-72506592D01*
X140189487Y-72504686D01*
X140098612Y-72468324D01*
X140075415Y-72450891D01*
X140018255Y-72397647D01*
X139963383Y-72335796D01*
X139907152Y-72266588D01*
X139814798Y-72156907D01*
X139699257Y-72022856D01*
X139564041Y-71868546D01*
X139467234Y-71758481D01*
X139338344Y-71610584D01*
X139232639Y-71487470D01*
X139151662Y-71390963D01*
X139096960Y-71322891D01*
X139070077Y-71285076D01*
X139059694Y-71263864D01*
X139042068Y-71172125D01*
X139058577Y-71076309D01*
X139105494Y-70988821D01*
X139179095Y-70922065D01*
X139269072Y-70885776D01*
X139372150Y-70884687D01*
X139472408Y-70924014D01*
G37*
G36*
X145815749Y-74166945D02*
G01*
X145830235Y-74178557D01*
X145872113Y-74221827D01*
X145935925Y-74293168D01*
X146018649Y-74389022D01*
X146117262Y-74505832D01*
X146228740Y-74640041D01*
X146350060Y-74788091D01*
X146478200Y-74946426D01*
X146569075Y-75059317D01*
X146690919Y-75210399D01*
X146803079Y-75349153D01*
X146902632Y-75471980D01*
X146986655Y-75575281D01*
X147052225Y-75655458D01*
X147096419Y-75708911D01*
X147116314Y-75732043D01*
X147117629Y-75733385D01*
X147149975Y-75775874D01*
X147183396Y-75832218D01*
X147192807Y-75852060D01*
X147216491Y-75952490D01*
X147204394Y-76047899D01*
X147162501Y-76131874D01*
X147096794Y-76198004D01*
X147013258Y-76239877D01*
X146917877Y-76251081D01*
X146816636Y-76225204D01*
X146812077Y-76221893D01*
X146781724Y-76190893D01*
X146728639Y-76131292D01*
X146656109Y-76047106D01*
X146567425Y-75942356D01*
X146465875Y-75821057D01*
X146354747Y-75687228D01*
X146237332Y-75544888D01*
X146116917Y-75398053D01*
X145996792Y-75250743D01*
X145880245Y-75106974D01*
X145770566Y-74970766D01*
X145671042Y-74846135D01*
X145584964Y-74737100D01*
X145515620Y-74647679D01*
X145466299Y-74581890D01*
X145440289Y-74543750D01*
X145422612Y-74493025D01*
X145414531Y-74428501D01*
X145421446Y-74363834D01*
X145461281Y-74271509D01*
X145529120Y-74200121D01*
X145616473Y-74155207D01*
X145714847Y-74142303D01*
X145815749Y-74166945D01*
G37*
G36*
X146832303Y-70945771D02*
G01*
X146941432Y-70971097D01*
X147021770Y-71028592D01*
X147071388Y-71116326D01*
X147088356Y-71232368D01*
X147088362Y-71239144D01*
X147087841Y-71270100D01*
X147084202Y-71298109D01*
X147074436Y-71327780D01*
X147055533Y-71363728D01*
X147024486Y-71410562D01*
X146978284Y-71472896D01*
X146913919Y-71555341D01*
X146828382Y-71662508D01*
X146718665Y-71799011D01*
X146685941Y-71839789D01*
X146601746Y-71945170D01*
X146497300Y-72076353D01*
X146377054Y-72227728D01*
X146245456Y-72393686D01*
X146106957Y-72568618D01*
X145966007Y-72746914D01*
X145827055Y-72922966D01*
X145721118Y-73057236D01*
X145560397Y-73260748D01*
X145383346Y-73484753D01*
X145196102Y-73721499D01*
X145004800Y-73963231D01*
X144815574Y-74202193D01*
X144634560Y-74430632D01*
X144467894Y-74640794D01*
X144414734Y-74707806D01*
X144269967Y-74890419D01*
X144129347Y-75067969D01*
X143996147Y-75236315D01*
X143873639Y-75391314D01*
X143765095Y-75528825D01*
X143673789Y-75644706D01*
X143602991Y-75734816D01*
X143555975Y-75795012D01*
X143533234Y-75823945D01*
X143422370Y-75951617D01*
X143322681Y-76039456D01*
X143230312Y-76088050D01*
X143141407Y-76097987D01*
X143052109Y-76069857D01*
X142958565Y-76004248D01*
X142856917Y-75901749D01*
X142782059Y-75817285D01*
X142666111Y-75686613D01*
X142570872Y-75579552D01*
X142491155Y-75490298D01*
X142421769Y-75413049D01*
X142357526Y-75342000D01*
X142293236Y-75271350D01*
X142253261Y-75227447D01*
X142124034Y-75083909D01*
X142023195Y-74968900D01*
X141949090Y-74880462D01*
X141900065Y-74816635D01*
X141874465Y-74775462D01*
X141864975Y-74749967D01*
X141855642Y-74662372D01*
X141870790Y-74569244D01*
X141907978Y-74491281D01*
X141916174Y-74481032D01*
X141991595Y-74422385D01*
X142087585Y-74390452D01*
X142188492Y-74390838D01*
X142198535Y-74392704D01*
X142220684Y-74397468D01*
X142241942Y-74404911D01*
X142265312Y-74417996D01*
X142293799Y-74439680D01*
X142330406Y-74472925D01*
X142378138Y-74520691D01*
X142439998Y-74585937D01*
X142518989Y-74671624D01*
X142618117Y-74780713D01*
X142740385Y-74916162D01*
X142888796Y-75080932D01*
X143157148Y-75378901D01*
X143696352Y-74700367D01*
X143829321Y-74532989D01*
X143988315Y-74332742D01*
X144152889Y-74125360D01*
X144320715Y-73913787D01*
X144489463Y-73700965D01*
X144656801Y-73489837D01*
X144820400Y-73283347D01*
X144977930Y-73084436D01*
X145127061Y-72896048D01*
X145265462Y-72721126D01*
X145390804Y-72562613D01*
X145500757Y-72423451D01*
X145592989Y-72306584D01*
X145665172Y-72214954D01*
X145714975Y-72151504D01*
X145740069Y-72119177D01*
X145741811Y-72116887D01*
X145772003Y-72077950D01*
X145824721Y-72010632D01*
X145895912Y-71920081D01*
X145981523Y-71811446D01*
X146077503Y-71689874D01*
X146179797Y-71560516D01*
X146197524Y-71538111D01*
X146296294Y-71413026D01*
X146385984Y-71299034D01*
X146463003Y-71200729D01*
X146523758Y-71122707D01*
X146564657Y-71069562D01*
X146582109Y-71045888D01*
X146627116Y-70998823D01*
X146706855Y-70959388D01*
X146800696Y-70944692D01*
X146832303Y-70945771D01*
G37*
G36*
X143330612Y-71055128D02*
G01*
X143368104Y-71083469D01*
X143419612Y-71136310D01*
X143473515Y-71201917D01*
X143523875Y-71267287D01*
X143584401Y-71342934D01*
X143633537Y-71401370D01*
X143666585Y-71440055D01*
X143722498Y-71506997D01*
X143794619Y-71594218D01*
X143877239Y-71694811D01*
X143964646Y-71801868D01*
X144030659Y-71882860D01*
X144136191Y-72011983D01*
X144242382Y-72141553D01*
X144339880Y-72260163D01*
X144419329Y-72356405D01*
X144440803Y-72382461D01*
X144529930Y-72495463D01*
X144591369Y-72585434D01*
X144627655Y-72658825D01*
X144641323Y-72722086D01*
X144634906Y-72781667D01*
X144610941Y-72844018D01*
X144609541Y-72846879D01*
X144544776Y-72936964D01*
X144461724Y-72991699D01*
X144367448Y-73010943D01*
X144269009Y-72994558D01*
X144173470Y-72942404D01*
X144087892Y-72854342D01*
X144065795Y-72825485D01*
X144020041Y-72767421D01*
X143958074Y-72689714D01*
X143884716Y-72598319D01*
X143804789Y-72499191D01*
X143723115Y-72398285D01*
X143644515Y-72301556D01*
X143573810Y-72214960D01*
X143515823Y-72144450D01*
X143475375Y-72095984D01*
X143457288Y-72075514D01*
X143447649Y-72065137D01*
X143414509Y-72026475D01*
X143364726Y-71966959D01*
X143304795Y-71894306D01*
X143279815Y-71864062D01*
X143221750Y-71797040D01*
X143182770Y-71759400D01*
X143157918Y-71746902D01*
X143142235Y-71755305D01*
X143139974Y-71758318D01*
X143111470Y-71793539D01*
X143064700Y-71849229D01*
X143008567Y-71914767D01*
X143002014Y-71922353D01*
X142942125Y-71991998D01*
X142864700Y-72082408D01*
X142779022Y-72182729D01*
X142694375Y-72282106D01*
X142605083Y-72387099D01*
X142499360Y-72511407D01*
X142395223Y-72633846D01*
X142305967Y-72738784D01*
X142231351Y-72826331D01*
X142144346Y-72928057D01*
X142063790Y-73021909D01*
X142000523Y-73095237D01*
X141978842Y-73120333D01*
X141901842Y-73210271D01*
X141816871Y-73310423D01*
X141738699Y-73403405D01*
X141725473Y-73419197D01*
X141663842Y-73492297D01*
X141580948Y-73590115D01*
X141482253Y-73706242D01*
X141373220Y-73834268D01*
X141259311Y-73967783D01*
X141145989Y-74100376D01*
X141038717Y-74225638D01*
X140942958Y-74337158D01*
X140901983Y-74384863D01*
X140807449Y-74495324D01*
X140705691Y-74614659D01*
X140603821Y-74734494D01*
X140508951Y-74846455D01*
X140428195Y-74942169D01*
X140368665Y-75013263D01*
X140352241Y-75032971D01*
X140275197Y-75124624D01*
X140189346Y-75225810D01*
X140110396Y-75317997D01*
X140099089Y-75331114D01*
X140043049Y-75396141D01*
X139996275Y-75450491D01*
X139953418Y-75500423D01*
X139909132Y-75552197D01*
X139858070Y-75612073D01*
X139794884Y-75686311D01*
X139714226Y-75781170D01*
X139610750Y-75902911D01*
X139524859Y-76002478D01*
X139442576Y-76095015D01*
X139371448Y-76172155D01*
X139317026Y-76227881D01*
X139284859Y-76256178D01*
X139222474Y-76285429D01*
X139125356Y-76296107D01*
X139030000Y-76272392D01*
X138947429Y-76217650D01*
X138888666Y-76135245D01*
X138876385Y-76107743D01*
X138855397Y-76057954D01*
X138846882Y-76033247D01*
X138846868Y-76025978D01*
X138863060Y-75963885D01*
X138908631Y-75879783D01*
X138984847Y-75771634D01*
X139092975Y-75637402D01*
X139144108Y-75576709D01*
X139262602Y-75436461D01*
X139390542Y-75285481D01*
X139520441Y-75132573D01*
X139644815Y-74986543D01*
X139756177Y-74856198D01*
X139847043Y-74750343D01*
X139882773Y-74708826D01*
X139989685Y-74584172D01*
X140102666Y-74451913D01*
X140214823Y-74320157D01*
X140319260Y-74197014D01*
X140409083Y-74090591D01*
X140477397Y-74008997D01*
X140493821Y-73989289D01*
X140570865Y-73897637D01*
X140656716Y-73796450D01*
X140735666Y-73704264D01*
X140766995Y-73667919D01*
X140812758Y-73614810D01*
X140852386Y-73568753D01*
X140890789Y-73524015D01*
X140932873Y-73474859D01*
X140983546Y-73415549D01*
X141047716Y-73340352D01*
X141130292Y-73243530D01*
X141236180Y-73119349D01*
X141320570Y-73020464D01*
X141403554Y-72923399D01*
X141475249Y-72839711D01*
X141530019Y-72775980D01*
X141562228Y-72738784D01*
X141596039Y-72699556D01*
X141651639Y-72634195D01*
X141719786Y-72553554D01*
X141792582Y-72466952D01*
X141797039Y-72461636D01*
X141863768Y-72382341D01*
X141920024Y-72316014D01*
X141960005Y-72269460D01*
X141977911Y-72249486D01*
X141978281Y-72249139D01*
X141997761Y-72227275D01*
X142038949Y-72179263D01*
X142096042Y-72111909D01*
X142163241Y-72032021D01*
X142231857Y-71950385D01*
X142300510Y-71869140D01*
X142357082Y-71802634D01*
X142393675Y-71760189D01*
X142420812Y-71728871D01*
X142473263Y-71667767D01*
X142542147Y-71587197D01*
X142621179Y-71494542D01*
X142704069Y-71397180D01*
X142784530Y-71302492D01*
X142856274Y-71217858D01*
X142913014Y-71150656D01*
X142934636Y-71128182D01*
X143021697Y-71071735D01*
X143126878Y-71038418D01*
X143234933Y-71031719D01*
X143330612Y-71055128D01*
G37*
G36*
X149658513Y-69745382D02*
G01*
X149684820Y-69759453D01*
X149703246Y-69785336D01*
X149700829Y-69830430D01*
X149688790Y-69884903D01*
X149670874Y-69942588D01*
X149651135Y-69993633D01*
X149555134Y-69953073D01*
X149516352Y-69935592D01*
X149475133Y-69913531D01*
X149459132Y-69899721D01*
X149466314Y-69886125D01*
X149492973Y-69850826D01*
X149532558Y-69804187D01*
X149573248Y-69760028D01*
X149602295Y-69737120D01*
X149627235Y-69733863D01*
X149658513Y-69745382D01*
G37*
G36*
X149792698Y-74788679D02*
G01*
X149840755Y-74794509D01*
X149858384Y-74805648D01*
X149848717Y-74818279D01*
X149813014Y-74848697D01*
X149757163Y-74890618D01*
X149687691Y-74938943D01*
X149672928Y-74948896D01*
X149601831Y-74996897D01*
X149555671Y-75024824D01*
X149527957Y-75032373D01*
X149512200Y-75019241D01*
X149501910Y-74985123D01*
X149490596Y-74929716D01*
X149489232Y-74923222D01*
X149479500Y-74861967D01*
X149486851Y-74827171D01*
X149517573Y-74809457D01*
X149577957Y-74799446D01*
X149634283Y-74793589D01*
X149721459Y-74788319D01*
X149792698Y-74788679D01*
G37*
G36*
X149302817Y-69601935D02*
G01*
X149341258Y-69619671D01*
X149344361Y-69623100D01*
X149360407Y-69663612D01*
X149361668Y-69718781D01*
X149350908Y-69778074D01*
X149330892Y-69830956D01*
X149304384Y-69866894D01*
X149274150Y-69875353D01*
X149272306Y-69874841D01*
X149229097Y-69864393D01*
X149173953Y-69852702D01*
X149166846Y-69851266D01*
X149120023Y-69840221D01*
X149093322Y-69831254D01*
X149089225Y-69825386D01*
X149092524Y-69793695D01*
X149110720Y-69745936D01*
X149138590Y-69692624D01*
X149170914Y-69644276D01*
X149202471Y-69611407D01*
X149206394Y-69608853D01*
X149250503Y-69597891D01*
X149302817Y-69601935D01*
G37*
G36*
X149900615Y-68036335D02*
G01*
X149905462Y-68076300D01*
X149909547Y-68146955D01*
X149912689Y-68243521D01*
X149914707Y-68361223D01*
X149915420Y-68495285D01*
X149915643Y-68583532D01*
X149916706Y-68701751D01*
X149918524Y-68802754D01*
X149920963Y-68881339D01*
X149923888Y-68932305D01*
X149927166Y-68950450D01*
X149935299Y-68947306D01*
X149972923Y-68929468D01*
X150036484Y-68897991D01*
X150121131Y-68855310D01*
X150222015Y-68803858D01*
X150334286Y-68746071D01*
X150404179Y-68710281D01*
X150510168Y-68657391D01*
X150602009Y-68613257D01*
X150674836Y-68580138D01*
X150723785Y-68560290D01*
X150743990Y-68555970D01*
X150745314Y-68569483D01*
X150732552Y-68608405D01*
X150706244Y-68660536D01*
X150692948Y-68684479D01*
X150659066Y-68748684D01*
X150615292Y-68834177D01*
X150565836Y-68932702D01*
X150514902Y-69036004D01*
X150398035Y-69288878D01*
X150233215Y-69706187D01*
X150101163Y-70126322D01*
X150002115Y-70546973D01*
X149936309Y-70965833D01*
X149903980Y-71380593D01*
X149905365Y-71788945D01*
X149940699Y-72188581D01*
X150010218Y-72577192D01*
X150114160Y-72952471D01*
X150137242Y-73018982D01*
X150181917Y-73137766D01*
X150235070Y-73270842D01*
X150291916Y-73406326D01*
X150347670Y-73532336D01*
X150511760Y-73906844D01*
X150652074Y-74261871D01*
X150767236Y-74595715D01*
X150858007Y-74911354D01*
X150925150Y-75211766D01*
X150969427Y-75499929D01*
X150991600Y-75778822D01*
X150992431Y-76051423D01*
X150984530Y-76211167D01*
X150971403Y-76353533D01*
X150951794Y-76477866D01*
X150924070Y-76594386D01*
X150886595Y-76713313D01*
X150881371Y-76728587D01*
X150863424Y-76790566D01*
X150860198Y-76830708D01*
X150870531Y-76859592D01*
X150871696Y-76861509D01*
X150879575Y-76883724D01*
X150874560Y-76906821D01*
X150853555Y-76932933D01*
X150813460Y-76964192D01*
X150751178Y-77002731D01*
X150663610Y-77050684D01*
X150547659Y-77110182D01*
X150400225Y-77183360D01*
X150092449Y-77329510D01*
X149718483Y-77491424D01*
X149422847Y-77603906D01*
X149359588Y-77627975D01*
X149010273Y-77741064D01*
X148665045Y-77832594D01*
X148318414Y-77904468D01*
X148228717Y-77919867D01*
X148099907Y-77940072D01*
X147968104Y-77958932D01*
X147841398Y-77975408D01*
X147727878Y-77988462D01*
X147635636Y-77997055D01*
X147572761Y-78000150D01*
X147500899Y-78000150D01*
X147500899Y-77860533D01*
X147500899Y-77720916D01*
X147800338Y-77708540D01*
X147812227Y-77708034D01*
X147943940Y-77700764D01*
X148082443Y-77690466D01*
X148222143Y-77677819D01*
X148357448Y-77663502D01*
X148482766Y-77648192D01*
X148592504Y-77632569D01*
X148681071Y-77617311D01*
X148742874Y-77603097D01*
X148772321Y-77590604D01*
X148776742Y-77582591D01*
X148786575Y-77540406D01*
X148795603Y-77470925D01*
X148803136Y-77381591D01*
X148808486Y-77279845D01*
X148810965Y-77173130D01*
X148810984Y-77132658D01*
X148806980Y-76999515D01*
X148796308Y-76859079D01*
X148778351Y-76708500D01*
X148752497Y-76544928D01*
X148718130Y-76365511D01*
X148674636Y-76167399D01*
X148621401Y-75947741D01*
X148601881Y-75872824D01*
X149063372Y-75872824D01*
X149080098Y-75917154D01*
X149130688Y-75948479D01*
X149144930Y-75952438D01*
X149192736Y-75954563D01*
X149264961Y-75945999D01*
X149367469Y-75926195D01*
X149423883Y-75914489D01*
X149493824Y-75901201D01*
X149542972Y-75893414D01*
X149563171Y-75892531D01*
X149576303Y-75915197D01*
X149596515Y-75962093D01*
X149619809Y-76022889D01*
X149642721Y-76087752D01*
X149661785Y-76146851D01*
X149673536Y-76190356D01*
X149674511Y-76208436D01*
X149669476Y-76210759D01*
X149636705Y-76228093D01*
X149582818Y-76257805D01*
X149516487Y-76295139D01*
X149456552Y-76331780D01*
X149362772Y-76406503D01*
X149306673Y-76481616D01*
X149288025Y-76557383D01*
X149288944Y-76573878D01*
X149307639Y-76619195D01*
X149351707Y-76643574D01*
X149422847Y-76647180D01*
X149522755Y-76630177D01*
X149653130Y-76592730D01*
X149670922Y-76586966D01*
X149962532Y-76502010D01*
X150267136Y-76431801D01*
X150357793Y-76408963D01*
X150442299Y-76372738D01*
X150490947Y-76328094D01*
X150504608Y-76274141D01*
X150484153Y-76209987D01*
X150469721Y-76190281D01*
X150414968Y-76150324D01*
X150337426Y-76118017D01*
X150247496Y-76096243D01*
X150155577Y-76087881D01*
X150072066Y-76095814D01*
X150057186Y-76098961D01*
X150003080Y-76104115D01*
X149975533Y-76092056D01*
X149975296Y-76091749D01*
X149960739Y-76064461D01*
X149940175Y-76016674D01*
X149917786Y-75959485D01*
X149897753Y-75903990D01*
X149884257Y-75861285D01*
X149881480Y-75842466D01*
X149881488Y-75842460D01*
X149899830Y-75833001D01*
X149945584Y-75810531D01*
X150011865Y-75778407D01*
X150091788Y-75739982D01*
X150171901Y-75700717D01*
X150238004Y-75664960D01*
X150281614Y-75635299D01*
X150309462Y-75607056D01*
X150328280Y-75575549D01*
X150334015Y-75563405D01*
X150349132Y-75523008D01*
X150345212Y-75493749D01*
X150321140Y-75457143D01*
X150318143Y-75453208D01*
X150283433Y-75420734D01*
X150238007Y-75403511D01*
X150175709Y-75401241D01*
X150090388Y-75413623D01*
X149975889Y-75440359D01*
X149945101Y-75448402D01*
X149833241Y-75479010D01*
X149713104Y-75513649D01*
X149591106Y-75550290D01*
X149473664Y-75586907D01*
X149367196Y-75621470D01*
X149278118Y-75651953D01*
X149212846Y-75676328D01*
X149177798Y-75692566D01*
X149174954Y-75694476D01*
X149134367Y-75732221D01*
X149097068Y-75781535D01*
X149079953Y-75812724D01*
X149079160Y-75815598D01*
X149063372Y-75872824D01*
X148601881Y-75872824D01*
X148557811Y-75703686D01*
X148522363Y-75574703D01*
X148483250Y-75432384D01*
X148397104Y-75130983D01*
X148337192Y-74927293D01*
X148795036Y-74927293D01*
X148816528Y-74973444D01*
X148822478Y-74978844D01*
X148850659Y-74992357D01*
X148892340Y-74993554D01*
X148954819Y-74981907D01*
X149045393Y-74956887D01*
X149053528Y-74954483D01*
X149117537Y-74936961D01*
X149164672Y-74926452D01*
X149185236Y-74925156D01*
X149190036Y-74941318D01*
X149197411Y-74986100D01*
X149204925Y-75048075D01*
X149210431Y-75111442D01*
X149208536Y-75149393D01*
X149196482Y-75170877D01*
X149171698Y-75186620D01*
X149153860Y-75197388D01*
X149105981Y-75233309D01*
X149055128Y-75278038D01*
X149014532Y-75323761D01*
X148985317Y-75381394D01*
X148986738Y-75428361D01*
X149018213Y-75459978D01*
X149079160Y-75471558D01*
X149084698Y-75470511D01*
X149121233Y-75455976D01*
X149183665Y-75426457D01*
X149266571Y-75384667D01*
X149364525Y-75333317D01*
X149472104Y-75275119D01*
X149489314Y-75265673D01*
X149605911Y-75201877D01*
X149719730Y-75139910D01*
X149823142Y-75083906D01*
X149908517Y-75037999D01*
X149968225Y-75006321D01*
X150067060Y-74948530D01*
X150144468Y-74885959D01*
X150187189Y-74824557D01*
X150196853Y-74762586D01*
X150177076Y-74704358D01*
X150126597Y-74657112D01*
X150044344Y-74623913D01*
X149928929Y-74604212D01*
X149778959Y-74597460D01*
X149698824Y-74598624D01*
X149518996Y-74611553D01*
X149327230Y-74639899D01*
X149112814Y-74685072D01*
X149068085Y-74696054D01*
X149026407Y-74706287D01*
X148960229Y-74725793D01*
X148914770Y-74745204D01*
X148881377Y-74768284D01*
X148851399Y-74798797D01*
X148847738Y-74803032D01*
X148805816Y-74868608D01*
X148795036Y-74927293D01*
X148337192Y-74927293D01*
X148298760Y-74796633D01*
X148270926Y-74702568D01*
X148183824Y-74399935D01*
X148109158Y-74125387D01*
X148091590Y-74055596D01*
X148570874Y-74055596D01*
X148570968Y-74122503D01*
X148594126Y-74207261D01*
X148619766Y-74261827D01*
X148688981Y-74340916D01*
X148787791Y-74398257D01*
X148914668Y-74433083D01*
X149068085Y-74444630D01*
X149157436Y-74440614D01*
X149311499Y-74416855D01*
X149459687Y-74374326D01*
X149595612Y-74315983D01*
X149712887Y-74244780D01*
X149805124Y-74163671D01*
X149865936Y-74075610D01*
X149881199Y-74033580D01*
X149894706Y-73944740D01*
X149890195Y-73853948D01*
X149867568Y-73778869D01*
X149828754Y-73729136D01*
X149768263Y-73688961D01*
X149700045Y-73667785D01*
X149635010Y-73668825D01*
X149584068Y-73695296D01*
X149576903Y-73702867D01*
X149556885Y-73739990D01*
X149565399Y-73781189D01*
X149603698Y-73835409D01*
X149636871Y-73888003D01*
X149640971Y-73941365D01*
X149609513Y-73992766D01*
X149541442Y-74045775D01*
X149533187Y-74050938D01*
X149385824Y-74123409D01*
X149225179Y-74170436D01*
X149066096Y-74187590D01*
X149019225Y-74186731D01*
X148929922Y-74174394D01*
X148868045Y-74144352D01*
X148827505Y-74092628D01*
X148802213Y-74015245D01*
X148796913Y-73992823D01*
X148775510Y-73937393D01*
X148748426Y-73915712D01*
X148714893Y-73912918D01*
X148649076Y-73932720D01*
X148598649Y-73986021D01*
X148594101Y-73993967D01*
X148570874Y-74055596D01*
X148091590Y-74055596D01*
X148045701Y-73873299D01*
X147992230Y-73638044D01*
X147947520Y-73413996D01*
X147910344Y-73195531D01*
X147883590Y-73006130D01*
X148303804Y-73006130D01*
X148306639Y-73064276D01*
X148342179Y-73119789D01*
X148349426Y-73126234D01*
X148383569Y-73146361D01*
X148437213Y-73165309D01*
X148516447Y-73184943D01*
X148627358Y-73207126D01*
X148708098Y-73222471D01*
X148782187Y-73237923D01*
X148829439Y-73250774D01*
X148855813Y-73263194D01*
X148867267Y-73277354D01*
X148869761Y-73295424D01*
X148862472Y-73323968D01*
X148834332Y-73347510D01*
X148777117Y-73371712D01*
X148691145Y-73409778D01*
X148604473Y-73464471D01*
X148534295Y-73526314D01*
X148485377Y-73590155D01*
X148462487Y-73650842D01*
X148470391Y-73703223D01*
X148490311Y-73727833D01*
X148522363Y-73738359D01*
X148570286Y-73730831D01*
X148639404Y-73704340D01*
X148735040Y-73657976D01*
X148767855Y-73641460D01*
X148917120Y-73574841D01*
X149060179Y-73527854D01*
X149211524Y-73496459D01*
X149385650Y-73476615D01*
X149432902Y-73472503D01*
X149542990Y-73459262D01*
X149620997Y-73442377D01*
X149671298Y-73420159D01*
X149698270Y-73390920D01*
X149706288Y-73352974D01*
X149706285Y-73352394D01*
X149689463Y-73305515D01*
X149671749Y-73285808D01*
X149644818Y-73255848D01*
X149633723Y-73246604D01*
X149606004Y-73226441D01*
X149577308Y-73214656D01*
X149538390Y-73209727D01*
X149480005Y-73210129D01*
X149392909Y-73214340D01*
X149341346Y-73217563D01*
X149261578Y-73224419D01*
X149199172Y-73232107D01*
X149164447Y-73239490D01*
X149159211Y-73236676D01*
X149173149Y-73212435D01*
X149207018Y-73169550D01*
X149257202Y-73112954D01*
X149310931Y-73052768D01*
X149384235Y-72959309D01*
X149426575Y-72886080D01*
X149437846Y-72833391D01*
X149417943Y-72801551D01*
X149366761Y-72790869D01*
X149363616Y-72790973D01*
X149315102Y-72805687D01*
X149249270Y-72841265D01*
X149174681Y-72891938D01*
X149099896Y-72951936D01*
X149033478Y-73015487D01*
X148978557Y-73074130D01*
X148906523Y-73037381D01*
X148892370Y-73030659D01*
X148831268Y-73006093D01*
X148821456Y-73002648D01*
X148751562Y-72978106D01*
X148666758Y-72951535D01*
X148660760Y-72949789D01*
X148544070Y-72921436D01*
X148454420Y-72912755D01*
X148386517Y-72923795D01*
X148335068Y-72954605D01*
X148334111Y-72955480D01*
X148303804Y-73006130D01*
X147883590Y-73006130D01*
X147879478Y-72977023D01*
X147853697Y-72752845D01*
X147846309Y-72676891D01*
X147832173Y-72500444D01*
X147821267Y-72318572D01*
X147813784Y-72138474D01*
X147809920Y-71967348D01*
X147809909Y-71933134D01*
X148263279Y-71933134D01*
X148295351Y-72031218D01*
X148359073Y-72116352D01*
X148451965Y-72182536D01*
X148551563Y-72220381D01*
X148680694Y-72246398D01*
X148821456Y-72257042D01*
X148962332Y-72252122D01*
X149091807Y-72231449D01*
X149198365Y-72194833D01*
X149242242Y-72169657D01*
X149314221Y-72105702D01*
X149360662Y-72030877D01*
X149380495Y-71951790D01*
X149372649Y-71875050D01*
X149336052Y-71807263D01*
X149295747Y-71775570D01*
X149269635Y-71755038D01*
X149219997Y-71734184D01*
X149163452Y-71727510D01*
X149130005Y-71747109D01*
X149123144Y-71790187D01*
X149146352Y-71853948D01*
X149147002Y-71855156D01*
X149168294Y-71900886D01*
X149170060Y-71933213D01*
X149153401Y-71970290D01*
X149129720Y-72003500D01*
X149072171Y-72045137D01*
X148989316Y-72068464D01*
X148876252Y-72075341D01*
X148872413Y-72075315D01*
X148782651Y-72070435D01*
X148710593Y-72054755D01*
X148637187Y-72024200D01*
X148624842Y-72018049D01*
X148549979Y-71971850D01*
X148507681Y-71921876D01*
X148493473Y-71859914D01*
X148502877Y-71777749D01*
X148512415Y-71716600D01*
X148507942Y-71665449D01*
X148482497Y-71638798D01*
X148433472Y-71631139D01*
X148431327Y-71631165D01*
X148373882Y-71650091D01*
X148321229Y-71698971D01*
X148281656Y-71770213D01*
X148265335Y-71828100D01*
X148263279Y-71933134D01*
X147809909Y-71933134D01*
X147809870Y-71812395D01*
X147813827Y-71680812D01*
X147821987Y-71579799D01*
X147824043Y-71563634D01*
X147871495Y-71306126D01*
X148404157Y-71306126D01*
X148405178Y-71365139D01*
X148420032Y-71404302D01*
X148449919Y-71428406D01*
X148496040Y-71442243D01*
X148559596Y-71450605D01*
X148564306Y-71451079D01*
X148636134Y-71459126D01*
X148732517Y-71470933D01*
X148841424Y-71484988D01*
X148950823Y-71499778D01*
X149025172Y-71509898D01*
X149142555Y-71524418D01*
X149230899Y-71532428D01*
X149295747Y-71533923D01*
X149342642Y-71528895D01*
X149377126Y-71517338D01*
X149404743Y-71499246D01*
X149419364Y-71486457D01*
X149437935Y-71457948D01*
X149428997Y-71427951D01*
X149421338Y-71417510D01*
X149399168Y-71401153D01*
X149381146Y-71387856D01*
X149314026Y-71361377D01*
X149217762Y-71337595D01*
X149090136Y-71316032D01*
X148928929Y-71296209D01*
X148731924Y-71277649D01*
X148603594Y-71266885D01*
X148603594Y-71188741D01*
X148604919Y-71155685D01*
X148612873Y-71080187D01*
X148625623Y-71003944D01*
X148636486Y-70928790D01*
X148635452Y-70858510D01*
X148620874Y-70811652D01*
X148593725Y-70794612D01*
X148559046Y-70804709D01*
X148520579Y-70846590D01*
X148486406Y-70922715D01*
X148455458Y-71034944D01*
X148438810Y-71109382D01*
X148415768Y-71222471D01*
X148404157Y-71306126D01*
X147871495Y-71306126D01*
X147877151Y-71275432D01*
X147963025Y-70971562D01*
X148080902Y-70654090D01*
X148149165Y-70503476D01*
X148664105Y-70503476D01*
X148691896Y-70598847D01*
X148744923Y-70683100D01*
X148819718Y-70746081D01*
X148843883Y-70758455D01*
X148914985Y-70787691D01*
X149007832Y-70820259D01*
X149112145Y-70853013D01*
X149217641Y-70882806D01*
X149314042Y-70906494D01*
X149391065Y-70920928D01*
X149399168Y-70921960D01*
X149473744Y-70920894D01*
X149519574Y-70897428D01*
X149535180Y-70852266D01*
X149534652Y-70843221D01*
X149522403Y-70812966D01*
X149490550Y-70785763D01*
X149434607Y-70759355D01*
X149350086Y-70731483D01*
X149232501Y-70699887D01*
X149106341Y-70666859D01*
X148998283Y-70635207D01*
X148921280Y-70607819D01*
X148871961Y-70583481D01*
X148846954Y-70560977D01*
X148832742Y-70518450D01*
X148839574Y-70468471D01*
X148868511Y-70434053D01*
X148904839Y-70422363D01*
X148981740Y-70415352D01*
X149083923Y-70418593D01*
X149204907Y-70431799D01*
X149338210Y-70454687D01*
X149439971Y-70472715D01*
X149528220Y-70480807D01*
X149587123Y-70474622D01*
X149620017Y-70453735D01*
X149630240Y-70417726D01*
X149617899Y-70375243D01*
X149574966Y-70333866D01*
X149499515Y-70297020D01*
X149389727Y-70263837D01*
X149243783Y-70233450D01*
X149195789Y-70225681D01*
X149045610Y-70212468D01*
X148915837Y-70218713D01*
X148809914Y-70243715D01*
X148731283Y-70286777D01*
X148683388Y-70347200D01*
X148665023Y-70407142D01*
X148664105Y-70503476D01*
X148149165Y-70503476D01*
X148230020Y-70325081D01*
X148409616Y-69986603D01*
X148425324Y-69959223D01*
X148478452Y-69871138D01*
X148928720Y-69871138D01*
X148931468Y-69923168D01*
X148950562Y-69947547D01*
X148955870Y-69949155D01*
X149000904Y-69962399D01*
X149072244Y-69983062D01*
X149161391Y-70008712D01*
X149259846Y-70036918D01*
X149359109Y-70065249D01*
X149450681Y-70091272D01*
X149526064Y-70112558D01*
X149576757Y-70126675D01*
X149631511Y-70140844D01*
X149671749Y-70146813D01*
X149697662Y-70141110D01*
X149721115Y-70123473D01*
X149742674Y-70099986D01*
X149786551Y-70031925D01*
X149826939Y-69946603D01*
X149857866Y-69857558D01*
X149873362Y-69778325D01*
X149875842Y-69742823D01*
X149874075Y-69696371D01*
X149860065Y-69666094D01*
X149829405Y-69637915D01*
X149792259Y-69617035D01*
X149717087Y-69598646D01*
X149636495Y-69598731D01*
X149568110Y-69618595D01*
X149563121Y-69621207D01*
X149532801Y-69630396D01*
X149518722Y-69614025D01*
X149487421Y-69562951D01*
X149427025Y-69511927D01*
X149351085Y-69472654D01*
X149271425Y-69451097D01*
X149199873Y-69453220D01*
X149190261Y-69456105D01*
X149128862Y-69492205D01*
X149065866Y-69554242D01*
X149009148Y-69633210D01*
X148966579Y-69720101D01*
X148941863Y-69797917D01*
X148928720Y-69871138D01*
X148478452Y-69871138D01*
X148519882Y-69802448D01*
X148632962Y-69625660D01*
X148759358Y-69436288D01*
X148893863Y-69241762D01*
X149031271Y-69049512D01*
X149166376Y-68866965D01*
X149293971Y-68701553D01*
X149408849Y-68560704D01*
X149482460Y-68474198D01*
X149596841Y-68341688D01*
X149695258Y-68230233D01*
X149776136Y-68141545D01*
X149837898Y-68077336D01*
X149878968Y-68039321D01*
X149897771Y-68029212D01*
X149900615Y-68036335D01*
G37*
%TD*%
D13*
%TO.C,J5*%
X185850000Y-76881000D03*
X185850000Y-71101000D03*
D14*
X185320000Y-78311000D03*
D15*
X189500000Y-78311000D03*
D14*
X185320000Y-69671000D03*
D15*
X189500000Y-69671000D03*
%TD*%
D16*
%TO.C,J1*%
X163500000Y-67000000D03*
D17*
X161000000Y-67000000D03*
%TD*%
D18*
%TO.C,U3*%
X176750000Y-81061000D03*
X176750000Y-80061000D03*
X176250000Y-80561000D03*
X175750000Y-81061000D03*
X175750000Y-80061000D03*
%TD*%
D19*
%TO.C,J4*%
X135740000Y-61230000D03*
D20*
X138280000Y-61230000D03*
X140820000Y-61230000D03*
X143360000Y-61230000D03*
X145900000Y-61230000D03*
X148440000Y-61230000D03*
X150980000Y-61230000D03*
X153520000Y-61230000D03*
X156060000Y-61230000D03*
X158600000Y-61230000D03*
X161140000Y-61230000D03*
X163680000Y-61230000D03*
X166220000Y-61230000D03*
X168760000Y-61230000D03*
X171300000Y-61230000D03*
X173840000Y-61230000D03*
X176380000Y-61230000D03*
X178920000Y-61230000D03*
X181460000Y-61230000D03*
X184000000Y-61230000D03*
X186540000Y-61230000D03*
X189080000Y-61230000D03*
%TD*%
D19*
%TO.C,J2*%
X135740000Y-85950000D03*
D20*
X138280000Y-85950000D03*
X140820000Y-85950000D03*
X143360000Y-85950000D03*
X145900000Y-85950000D03*
X148440000Y-85950000D03*
X150980000Y-85950000D03*
X153520000Y-85950000D03*
X156060000Y-85950000D03*
X158600000Y-85950000D03*
X161140000Y-85950000D03*
X163680000Y-85950000D03*
X166220000Y-85950000D03*
X168760000Y-85950000D03*
X171300000Y-85950000D03*
X173840000Y-85950000D03*
X176380000Y-85950000D03*
X178920000Y-85950000D03*
X181460000Y-85950000D03*
X184000000Y-85950000D03*
X186540000Y-85950000D03*
X189080000Y-85950000D03*
%TD*%
M02*
