%TF.GenerationSoftware,KiCad,Pcbnew,9.0.2*%
%TF.CreationDate,2025-11-10T16:04:38+08:00*%
%TF.ProjectId,TrlBoard,54726c42-6f61-4726-942e-6b696361645f,rev?*%
%TF.SameCoordinates,Original*%
%TF.FileFunction,Copper,L1,Top*%
%TF.FilePolarity,Positive*%
%FSLAX46Y46*%
G04 Gerber Fmt 4.6, Leading zero omitted, Abs format (unit mm)*
G04 Created by KiCad (PCBNEW 9.0.2) date 2025-11-10 16:04:38*
%MOMM*%
%LPD*%
G01*
G04 APERTURE LIST*
G04 Aperture macros list*
%AMRoundRect*
0 Rectangle with rounded corners*
0 $1 Rounding radius*
0 $2 $3 $4 $5 $6 $7 $8 $9 X,Y pos of 4 corners*
0 Add a 4 corners polygon primitive as box body*
4,1,4,$2,$3,$4,$5,$6,$7,$8,$9,$2,$3,0*
0 Add four circle primitives for the rounded corners*
1,1,$1+$1,$2,$3*
1,1,$1+$1,$4,$5*
1,1,$1+$1,$6,$7*
1,1,$1+$1,$8,$9*
0 Add four rect primitives between the rounded corners*
20,1,$1+$1,$2,$3,$4,$5,0*
20,1,$1+$1,$4,$5,$6,$7,0*
20,1,$1+$1,$6,$7,$8,$9,0*
20,1,$1+$1,$8,$9,$2,$3,0*%
G04 Aperture macros list end*
%TA.AperFunction,SMDPad,CuDef*%
%ADD10R,0.250000X0.475000*%
%TD*%
%TA.AperFunction,SMDPad,CuDef*%
%ADD11R,0.475000X0.250000*%
%TD*%
%TA.AperFunction,SMDPad,CuDef*%
%ADD12RoundRect,0.135000X-0.185000X0.135000X-0.185000X-0.135000X0.185000X-0.135000X0.185000X0.135000X0*%
%TD*%
%TA.AperFunction,SMDPad,CuDef*%
%ADD13RoundRect,0.160000X-0.222500X-0.160000X0.222500X-0.160000X0.222500X0.160000X-0.222500X0.160000X0*%
%TD*%
%TA.AperFunction,SMDPad,CuDef*%
%ADD14RoundRect,0.140000X-0.140000X-0.170000X0.140000X-0.170000X0.140000X0.170000X-0.140000X0.170000X0*%
%TD*%
%TA.AperFunction,SMDPad,CuDef*%
%ADD15RoundRect,0.140000X0.140000X0.170000X-0.140000X0.170000X-0.140000X-0.170000X0.140000X-0.170000X0*%
%TD*%
%TA.AperFunction,SMDPad,CuDef*%
%ADD16RoundRect,0.200000X0.200000X0.275000X-0.200000X0.275000X-0.200000X-0.275000X0.200000X-0.275000X0*%
%TD*%
%TA.AperFunction,SMDPad,CuDef*%
%ADD17RoundRect,0.225000X0.225000X0.250000X-0.225000X0.250000X-0.225000X-0.250000X0.225000X-0.250000X0*%
%TD*%
%TA.AperFunction,SMDPad,CuDef*%
%ADD18RoundRect,0.140000X-0.170000X0.140000X-0.170000X-0.140000X0.170000X-0.140000X0.170000X0.140000X0*%
%TD*%
%TA.AperFunction,SMDPad,CuDef*%
%ADD19RoundRect,0.225000X0.250000X-0.225000X0.250000X0.225000X-0.250000X0.225000X-0.250000X-0.225000X0*%
%TD*%
%TA.AperFunction,SMDPad,CuDef*%
%ADD20R,0.900000X1.500000*%
%TD*%
%TA.AperFunction,SMDPad,CuDef*%
%ADD21R,1.500000X0.900000*%
%TD*%
%TA.AperFunction,HeatsinkPad*%
%ADD22C,0.600000*%
%TD*%
%TA.AperFunction,HeatsinkPad*%
%ADD23R,3.900000X3.900000*%
%TD*%
%TA.AperFunction,SMDPad,CuDef*%
%ADD24RoundRect,0.135000X0.185000X-0.135000X0.185000X0.135000X-0.185000X0.135000X-0.185000X-0.135000X0*%
%TD*%
%TA.AperFunction,SMDPad,CuDef*%
%ADD25RoundRect,0.225000X-0.250000X0.225000X-0.250000X-0.225000X0.250000X-0.225000X0.250000X0.225000X0*%
%TD*%
%TA.AperFunction,SMDPad,CuDef*%
%ADD26RoundRect,0.077500X-0.232500X0.577500X-0.232500X-0.577500X0.232500X-0.577500X0.232500X0.577500X0*%
%TD*%
%TA.AperFunction,SMDPad,CuDef*%
%ADD27R,1.450000X0.600000*%
%TD*%
%TA.AperFunction,SMDPad,CuDef*%
%ADD28R,1.450000X0.300000*%
%TD*%
%TA.AperFunction,ComponentPad*%
%ADD29O,2.100000X1.000000*%
%TD*%
%TA.AperFunction,ComponentPad*%
%ADD30O,1.600000X1.000000*%
%TD*%
%TA.AperFunction,SMDPad,CuDef*%
%ADD31R,0.800000X0.600000*%
%TD*%
%TA.AperFunction,SMDPad,CuDef*%
%ADD32RoundRect,0.135000X0.135000X0.185000X-0.135000X0.185000X-0.135000X-0.185000X0.135000X-0.185000X0*%
%TD*%
%TA.AperFunction,SMDPad,CuDef*%
%ADD33RoundRect,0.135000X-0.135000X-0.185000X0.135000X-0.185000X0.135000X0.185000X-0.135000X0.185000X0*%
%TD*%
%TA.AperFunction,ComponentPad*%
%ADD34R,1.575000X1.575000*%
%TD*%
%TA.AperFunction,ComponentPad*%
%ADD35C,1.575000*%
%TD*%
%TA.AperFunction,SMDPad,CuDef*%
%ADD36RoundRect,0.062500X-0.062500X0.375000X-0.062500X-0.375000X0.062500X-0.375000X0.062500X0.375000X0*%
%TD*%
%TA.AperFunction,SMDPad,CuDef*%
%ADD37RoundRect,0.062500X-0.375000X0.062500X-0.375000X-0.062500X0.375000X-0.062500X0.375000X0.062500X0*%
%TD*%
%TA.AperFunction,HeatsinkPad*%
%ADD38R,1.600000X1.600000*%
%TD*%
%TA.AperFunction,SMDPad,CuDef*%
%ADD39R,0.280000X0.280000*%
%TD*%
%TA.AperFunction,SMDPad,CuDef*%
%ADD40O,0.850000X0.280000*%
%TD*%
%TA.AperFunction,SMDPad,CuDef*%
%ADD41R,0.230000X0.600000*%
%TD*%
%TA.AperFunction,SMDPad,CuDef*%
%ADD42R,0.250000X0.700000*%
%TD*%
%TA.AperFunction,ComponentPad*%
%ADD43C,0.600000*%
%TD*%
%TA.AperFunction,SMDPad,CuDef*%
%ADD44R,0.650000X0.900000*%
%TD*%
%TA.AperFunction,SMDPad,CuDef*%
%ADD45R,1.700000X2.150000*%
%TD*%
%TA.AperFunction,SMDPad,CuDef*%
%ADD46RoundRect,0.147500X-0.147500X-0.172500X0.147500X-0.172500X0.147500X0.172500X-0.147500X0.172500X0*%
%TD*%
%TA.AperFunction,ComponentPad*%
%ADD47R,1.700000X1.700000*%
%TD*%
%TA.AperFunction,ComponentPad*%
%ADD48C,1.700000*%
%TD*%
%TA.AperFunction,ViaPad*%
%ADD49C,0.600000*%
%TD*%
%TA.AperFunction,ViaPad*%
%ADD50C,0.400000*%
%TD*%
%TA.AperFunction,Conductor*%
%ADD51C,0.400000*%
%TD*%
%TA.AperFunction,Conductor*%
%ADD52C,0.200000*%
%TD*%
G04 APERTURE END LIST*
D10*
%TO.P,MT1,14,AP_SDA/AP_SDIO/AP_SDI*%
%TO.N,/GPIO9*%
X158750000Y-72337500D03*
%TO.P,MT1,13,AP_SCL/AP_SCLK*%
%TO.N,/GPIO10*%
X159250000Y-72337500D03*
%TO.P,MT1,12,AP_CS*%
%TO.N,/GPIO13*%
X159750000Y-72337500D03*
D11*
%TO.P,MT1,11,RESV*%
%TO.N,unconnected-(MT1-RESV-Pad10)_2*%
X160412500Y-72500000D03*
%TO.P,MT1,10,RESV*%
%TO.N,unconnected-(MT1-RESV-Pad10)_1*%
X160412500Y-73000000D03*
%TO.P,MT1,9,INT2*%
%TO.N,unconnected-(MT1-INT2-Pad9)*%
X160412500Y-73500000D03*
%TO.P,MT1,8,VDD*%
%TO.N,+3.3V*%
X160412500Y-74000000D03*
D10*
%TO.P,MT1,7,FSYNC*%
%TO.N,GND*%
X159750000Y-74162500D03*
%TO.P,MT1,6,GND*%
X159250000Y-74162500D03*
%TO.P,MT1,5,VDDIO*%
%TO.N,+3.3V*%
X158750000Y-74162500D03*
D11*
%TO.P,MT1,4,INT1/INT*%
%TO.N,Net-(MT1-INT1{slash}INT)*%
X158087500Y-74000000D03*
%TO.P,MT1,3,RESV*%
%TO.N,unconnected-(MT1-RESV-Pad10)_3*%
X158087500Y-73500000D03*
%TO.P,MT1,2,RESV*%
%TO.N,unconnected-(MT1-RESV-Pad10)*%
X158087500Y-73000000D03*
%TO.P,MT1,1,AP_SDO/AP_AD0*%
%TO.N,/GPIO12*%
X158087500Y-72500000D03*
%TD*%
D12*
%TO.P,R14,1*%
%TO.N,Net-(MT1-INT1{slash}INT)*%
X157250000Y-75480000D03*
%TO.P,R14,2*%
%TO.N,/GPIO11*%
X157250000Y-76500000D03*
%TD*%
D13*
%TO.P,D1,2,A*%
%TO.N,Net-(D1-A)*%
X180500000Y-78001000D03*
%TO.P,D1,1,K*%
%TO.N,Net-(D1-K)*%
X179355000Y-78001000D03*
%TD*%
%TO.P,D2,2,A*%
%TO.N,Net-(D2-A)*%
X180500000Y-69501000D03*
%TO.P,D2,1,K*%
%TO.N,Net-(D2-K)*%
X179355000Y-69501000D03*
%TD*%
D14*
%TO.P,C16,2*%
%TO.N,GND*%
X160710000Y-78750000D03*
%TO.P,C16,1*%
%TO.N,+3.3V*%
X159750000Y-78750000D03*
%TD*%
%TO.P,C15,1*%
%TO.N,+3.3V*%
X159750000Y-77500000D03*
%TO.P,C15,2*%
%TO.N,GND*%
X160710000Y-77500000D03*
%TD*%
D15*
%TO.P,C13,2*%
%TO.N,GND*%
X157270000Y-77500000D03*
%TO.P,C13,1*%
%TO.N,+3.3V*%
X158230000Y-77500000D03*
%TD*%
D16*
%TO.P,R3,1*%
%TO.N,+3.3V*%
X171065000Y-82601000D03*
%TO.P,R3,2*%
%TO.N,Net-(U3-PG)*%
X169415000Y-82601000D03*
%TD*%
D17*
%TO.P,C12,1*%
%TO.N,VCC*%
X172275000Y-65001000D03*
%TO.P,C12,2*%
%TO.N,GND*%
X170725000Y-65001000D03*
%TD*%
D15*
%TO.P,C8,1*%
%TO.N,Net-(U3-VAUX)*%
X172730000Y-79351000D03*
%TO.P,C8,2*%
%TO.N,GND*%
X171770000Y-79351000D03*
%TD*%
D18*
%TO.P,C7,1*%
%TO.N,Net-(U3-FB)*%
X166750000Y-81245000D03*
%TO.P,C7,2*%
%TO.N,GND*%
X166750000Y-82205000D03*
%TD*%
D19*
%TO.P,C9,1*%
%TO.N,+3.3V*%
X164750000Y-82525000D03*
%TO.P,C9,2*%
%TO.N,GND*%
X164750000Y-80975000D03*
%TD*%
D15*
%TO.P,C4,1*%
%TO.N,Net-(C4-Pad1)*%
X171500000Y-63501000D03*
%TO.P,C4,2*%
%TO.N,GND*%
X170540000Y-63501000D03*
%TD*%
D18*
%TO.P,C14,1*%
%TO.N,/EN*%
X155750000Y-81020000D03*
%TO.P,C14,2*%
%TO.N,GND*%
X155750000Y-81980000D03*
%TD*%
D20*
%TO.P,U2,1,GND*%
%TO.N,GND*%
X135750000Y-82390000D03*
%TO.P,U2,2,3V3*%
%TO.N,+3.3V*%
X137020000Y-82390000D03*
%TO.P,U2,3,EN*%
%TO.N,/EN*%
X138290000Y-82390000D03*
%TO.P,U2,4,IO4*%
%TO.N,/GPIO4*%
X139560000Y-82390000D03*
%TO.P,U2,5,IO5*%
%TO.N,/GPIO5*%
X140830000Y-82390000D03*
%TO.P,U2,6,IO6*%
%TO.N,/GPIO6*%
X142100000Y-82390000D03*
%TO.P,U2,7,IO7*%
%TO.N,/GPIO7*%
X143370000Y-82390000D03*
%TO.P,U2,8,IO15*%
%TO.N,/GPIO15*%
X144640000Y-82390000D03*
%TO.P,U2,9,IO16*%
%TO.N,/GPIO16*%
X145910000Y-82390000D03*
%TO.P,U2,10,IO17*%
%TO.N,/GPIO17*%
X147180000Y-82390000D03*
%TO.P,U2,11,IO18*%
%TO.N,/GPIO18*%
X148450000Y-82390000D03*
%TO.P,U2,12,IO8*%
%TO.N,/GPIO8*%
X149720000Y-82390000D03*
%TO.P,U2,13,USB_D-*%
%TO.N,/D-*%
X150990000Y-82390000D03*
%TO.P,U2,14,USB_D+*%
%TO.N,/D+*%
X152260000Y-82390000D03*
D21*
%TO.P,U2,15,IO3*%
%TO.N,/GPIO3*%
X153510000Y-80625000D03*
%TO.P,U2,16,IO46*%
%TO.N,/GPIO26*%
X153510000Y-79355000D03*
%TO.P,U2,17,IO9*%
%TO.N,/GPIO9*%
X153510000Y-78085000D03*
%TO.P,U2,18,IO10*%
%TO.N,/GPIO10*%
X153510000Y-76815000D03*
%TO.P,U2,19,IO11*%
%TO.N,/GPIO11*%
X153510000Y-75545000D03*
%TO.P,U2,20,IO12*%
%TO.N,/GPIO12*%
X153510000Y-74275000D03*
%TO.P,U2,21,IO13*%
%TO.N,/GPIO13*%
X153510000Y-73005000D03*
%TO.P,U2,22,IO14*%
%TO.N,/GPIO14*%
X153510000Y-71735000D03*
%TO.P,U2,23,IO21*%
%TO.N,/GPIO19*%
X153510000Y-70465000D03*
%TO.P,U2,24,IO47*%
%TO.N,/GPIO27*%
X153510000Y-69195000D03*
%TO.P,U2,25,IO48*%
%TO.N,/GPIO28*%
X153510000Y-67925000D03*
%TO.P,U2,26,IO45*%
%TO.N,/GPIO25*%
X153510000Y-66655000D03*
D20*
%TO.P,U2,27,IO0*%
%TO.N,/GPIO0*%
X152260000Y-64890000D03*
%TO.P,U2,28,IO35*%
%TO.N,unconnected-(U2-IO35-Pad28)*%
X150990000Y-64890000D03*
%TO.P,U2,29,IO36*%
%TO.N,unconnected-(U2-IO36-Pad29)*%
X149720000Y-64890000D03*
%TO.P,U2,30,IO37*%
%TO.N,unconnected-(U2-IO37-Pad30)*%
X148450000Y-64890000D03*
%TO.P,U2,31,IO38*%
%TO.N,/GPIO20*%
X147180000Y-64890000D03*
%TO.P,U2,32,IO39*%
%TO.N,/GPIO21*%
X145910000Y-64890000D03*
%TO.P,U2,33,IO40*%
%TO.N,/GPIO22*%
X144640000Y-64890000D03*
%TO.P,U2,34,IO41*%
%TO.N,/GPIO23*%
X143370000Y-64890000D03*
%TO.P,U2,35,IO42*%
%TO.N,/GPIO24*%
X142100000Y-64890000D03*
%TO.P,U2,36,RXD0*%
%TO.N,/RXD0*%
X140830000Y-64890000D03*
%TO.P,U2,37,TXD0*%
%TO.N,/TXD0*%
X139560000Y-64890000D03*
%TO.P,U2,38,IO2*%
%TO.N,/GPIO2*%
X138290000Y-64890000D03*
%TO.P,U2,39,IO1*%
%TO.N,/GPIO1*%
X137020000Y-64890000D03*
%TO.P,U2,40,GND*%
%TO.N,GND*%
X135750000Y-64890000D03*
D22*
%TO.P,U2,41,GND*%
X142770000Y-76540000D03*
X144170000Y-76540000D03*
X142070000Y-75840000D03*
X143470000Y-75840000D03*
X144870000Y-75840000D03*
X142770000Y-75140000D03*
D23*
X143470000Y-75140000D03*
D22*
X144170000Y-75140000D03*
X142070000Y-74440000D03*
X143470000Y-74440000D03*
X144870000Y-74440000D03*
X142770000Y-73740000D03*
X144170000Y-73740000D03*
%TD*%
D24*
%TO.P,R13,1*%
%TO.N,/RTS*%
X167770000Y-73011000D03*
%TO.P,R13,2*%
%TO.N,Net-(Q2-Pad1)*%
X167770000Y-71991000D03*
%TD*%
D25*
%TO.P,C2,1*%
%TO.N,+3.3V*%
X158500000Y-80975000D03*
%TO.P,C2,2*%
%TO.N,GND*%
X158500000Y-82525000D03*
%TD*%
%TO.P,C5,1*%
%TO.N,VCC*%
X179625000Y-80801000D03*
%TO.P,C5,2*%
%TO.N,GND*%
X179625000Y-82351000D03*
%TD*%
D26*
%TO.P,U4,1,GND*%
%TO.N,GND*%
X178215000Y-71041000D03*
%TO.P,U4,2,TXD*%
%TO.N,/TXD0*%
X176945000Y-71041000D03*
%TO.P,U4,3,RXD*%
%TO.N,/RXD0*%
X175675000Y-71041000D03*
%TO.P,U4,4,V3*%
%TO.N,+3.3V*%
X174405000Y-71041000D03*
%TO.P,U4,5,UD+*%
%TO.N,/D+*%
X173135000Y-71041000D03*
%TO.P,U4,6,UD-*%
%TO.N,/D-*%
X171865000Y-71041000D03*
%TO.P,U4,7,NC.*%
%TO.N,unconnected-(U4-NC.-Pad7)*%
X170595000Y-71041000D03*
%TO.P,U4,8,~{OUT}*%
%TO.N,/OUT*%
X169325000Y-71041000D03*
%TO.P,U4,9,~{CTS}*%
%TO.N,unconnected-(U4-~{CTS}-Pad9)*%
X169325000Y-76541000D03*
%TO.P,U4,10,~{DSR}*%
%TO.N,unconnected-(U4-~{DSR}-Pad10)*%
X170595000Y-76541000D03*
%TO.P,U4,11,~{RI}*%
%TO.N,unconnected-(U4-~{RI}-Pad11)*%
X171865000Y-76541000D03*
%TO.P,U4,12,~{DCD}*%
%TO.N,unconnected-(U4-~{DCD}-Pad12)*%
X173135000Y-76541000D03*
%TO.P,U4,13,~{DTR}*%
%TO.N,/DTR*%
X174405000Y-76541000D03*
%TO.P,U4,14,~{RTS}*%
%TO.N,/RTS*%
X175675000Y-76541000D03*
%TO.P,U4,15,R232*%
%TO.N,unconnected-(U4-R232-Pad15)*%
X176945000Y-76541000D03*
%TO.P,U4,16,VCC*%
%TO.N,+3.3V*%
X178215000Y-76541000D03*
%TD*%
D27*
%TO.P,J5,A1,GND*%
%TO.N,GND*%
X184405000Y-77241000D03*
%TO.P,J5,A4,VBUS*%
%TO.N,VCC*%
X184405000Y-76441000D03*
D28*
%TO.P,J5,A5,CC1*%
%TO.N,Net-(J5-CC1)*%
X184405000Y-75241000D03*
%TO.P,J5,A6,D+*%
%TO.N,/D+*%
X184405000Y-74241000D03*
%TO.P,J5,A7,D-*%
%TO.N,/D-*%
X184405000Y-73741000D03*
%TO.P,J5,A8,SBU1*%
%TO.N,unconnected-(J5-SBU1-PadA8)*%
X184405000Y-72741000D03*
D27*
%TO.P,J5,A9,VBUS*%
%TO.N,VCC*%
X184405000Y-71541000D03*
%TO.P,J5,A12,GND*%
%TO.N,GND*%
X184405000Y-70741000D03*
%TO.P,J5,B1,GND*%
X184405000Y-70741000D03*
%TO.P,J5,B4,VBUS*%
%TO.N,VCC*%
X184405000Y-71541000D03*
D28*
%TO.P,J5,B5,CC2*%
%TO.N,Net-(J5-CC2)*%
X184405000Y-72241000D03*
%TO.P,J5,B6,D+*%
%TO.N,/D+*%
X184405000Y-73241000D03*
%TO.P,J5,B7,D-*%
%TO.N,/D-*%
X184405000Y-74741000D03*
%TO.P,J5,B8,SBU2*%
%TO.N,unconnected-(J5-SBU2-PadB8)*%
X184405000Y-75741000D03*
D27*
%TO.P,J5,B9,VBUS*%
%TO.N,VCC*%
X184405000Y-76441000D03*
%TO.P,J5,B12,GND*%
%TO.N,GND*%
X184405000Y-77241000D03*
D29*
%TO.P,J5,S1,SHIELD*%
X185320000Y-78311000D03*
D30*
X189500000Y-78311000D03*
D29*
X185320000Y-69671000D03*
D30*
X189500000Y-69671000D03*
%TD*%
D31*
%TO.P,Q2,1*%
%TO.N,Net-(Q2-Pad1)*%
X166270000Y-73251000D03*
%TO.P,Q2,2*%
%TO.N,/GPIO0*%
X166270000Y-71351000D03*
%TO.P,Q2,3*%
%TO.N,/DTR*%
X164250000Y-72301000D03*
%TD*%
D19*
%TO.P,C10,1*%
%TO.N,+3.3V*%
X162750000Y-82535000D03*
%TO.P,C10,2*%
%TO.N,GND*%
X162750000Y-80985000D03*
%TD*%
D31*
%TO.P,Q1,1*%
%TO.N,Net-(Q1-Pad1)*%
X166270000Y-77501000D03*
%TO.P,Q1,2*%
%TO.N,/RTS*%
X166270000Y-75601000D03*
%TO.P,Q1,3*%
%TO.N,/EN*%
X164250000Y-76551000D03*
%TD*%
D32*
%TO.P,R11,1*%
%TO.N,+3.3V*%
X156760000Y-79500000D03*
%TO.P,R11,2*%
%TO.N,/EN*%
X155740000Y-79500000D03*
%TD*%
D12*
%TO.P,R12,1*%
%TO.N,/DTR*%
X167770000Y-76241000D03*
%TO.P,R12,2*%
%TO.N,Net-(Q1-Pad1)*%
X167770000Y-77261000D03*
%TD*%
D32*
%TO.P,R1,1*%
%TO.N,+3.3V*%
X170750000Y-81351000D03*
%TO.P,R1,2*%
%TO.N,Net-(U3-FB)*%
X169730000Y-81351000D03*
%TD*%
D33*
%TO.P,R4,1*%
%TO.N,Net-(U1-TS)*%
X179240000Y-64250000D03*
%TO.P,R4,2*%
%TO.N,GND*%
X180260000Y-64250000D03*
%TD*%
D12*
%TO.P,R9,1*%
%TO.N,Net-(J5-CC1)*%
X180500000Y-74991000D03*
%TO.P,R9,2*%
%TO.N,GND*%
X180500000Y-76011000D03*
%TD*%
D24*
%TO.P,R8,1*%
%TO.N,Net-(D2-A)*%
X170750000Y-67261000D03*
%TO.P,R8,2*%
%TO.N,VCC*%
X170750000Y-66241000D03*
%TD*%
%TO.P,R7,1*%
%TO.N,Net-(D1-A)*%
X172000000Y-67261000D03*
%TO.P,R7,2*%
%TO.N,VCC*%
X172000000Y-66241000D03*
%TD*%
D33*
%TO.P,R2,1*%
%TO.N,Net-(U3-FB)*%
X171740000Y-81351000D03*
%TO.P,R2,2*%
%TO.N,GND*%
X172760000Y-81351000D03*
%TD*%
D32*
%TO.P,R6,1*%
%TO.N,GND*%
X180260000Y-65250000D03*
%TO.P,R6,2*%
%TO.N,Net-(U1-ISET)*%
X179240000Y-65250000D03*
%TD*%
D15*
%TO.P,C3,1*%
%TO.N,VCC*%
X180250000Y-66251000D03*
%TO.P,C3,2*%
%TO.N,GND*%
X179290000Y-66251000D03*
%TD*%
D34*
%TO.P,J1,1,1*%
%TO.N,Net-(C4-Pad1)*%
X163500000Y-67000000D03*
D35*
%TO.P,J1,2,2*%
%TO.N,GND*%
X161000000Y-67000000D03*
%TD*%
D19*
%TO.P,C11,1*%
%TO.N,+3.3V*%
X160750000Y-82525000D03*
%TO.P,C11,2*%
%TO.N,GND*%
X160750000Y-80975000D03*
%TD*%
D24*
%TO.P,R10,1*%
%TO.N,Net-(J5-CC2)*%
X180500000Y-72521000D03*
%TO.P,R10,2*%
%TO.N,GND*%
X180500000Y-71501000D03*
%TD*%
D36*
%TO.P,U1,1,TS*%
%TO.N,Net-(U1-TS)*%
X176810000Y-64376000D03*
%TO.P,U1,2,BAT*%
%TO.N,Net-(C4-Pad1)*%
X176310000Y-64376000D03*
%TO.P,U1,3,BAT*%
X175810000Y-64376000D03*
%TO.P,U1,4,~{CE}*%
%TO.N,GND*%
X175310000Y-64376000D03*
D37*
%TO.P,U1,5,EN2*%
%TO.N,VCC*%
X174622500Y-65063500D03*
%TO.P,U1,6,EN1*%
%TO.N,GND*%
X174622500Y-65563500D03*
%TO.P,U1,7,~{PGOOD}*%
%TO.N,Net-(D1-K)*%
X174622500Y-66063500D03*
%TO.P,U1,8,VSS*%
%TO.N,GND*%
X174622500Y-66563500D03*
D36*
%TO.P,U1,9,~{CHG}*%
%TO.N,Net-(D2-K)*%
X175310000Y-67251000D03*
%TO.P,U1,10,OUT*%
%TO.N,VCC*%
X175810000Y-67251000D03*
%TO.P,U1,11,OUT*%
X176310000Y-67251000D03*
%TO.P,U1,12,ILIM*%
%TO.N,Net-(U1-ILIM)*%
X176810000Y-67251000D03*
D37*
%TO.P,U1,13,IN*%
%TO.N,VCC*%
X177497500Y-66563500D03*
%TO.P,U1,14,TMR*%
%TO.N,GND*%
X177497500Y-66063500D03*
%TO.P,U1,15,TD*%
X177497500Y-65563500D03*
%TO.P,U1,16,ISET*%
%TO.N,Net-(U1-ISET)*%
X177497500Y-65063500D03*
D38*
%TO.P,U1,17,VSS*%
%TO.N,GND*%
X176060000Y-65813500D03*
%TD*%
D32*
%TO.P,R5,1*%
%TO.N,GND*%
X179260000Y-68251000D03*
%TO.P,R5,2*%
%TO.N,Net-(U1-ILIM)*%
X178240000Y-68251000D03*
%TD*%
D39*
%TO.P,U3,1,L1*%
%TO.N,Net-(U3-L1)*%
X178010000Y-81561000D03*
D40*
X177725000Y-81561000D03*
D39*
%TO.P,U3,2,VIN*%
%TO.N,VCC*%
X178010000Y-81061000D03*
D40*
X177725000Y-81061000D03*
D39*
%TO.P,U3,3,EN*%
X178010000Y-80561000D03*
D40*
X177725000Y-80561000D03*
D39*
%TO.P,U3,4,PS/SYNC*%
%TO.N,GND*%
X178010000Y-80061000D03*
D40*
X177725000Y-80061000D03*
D39*
%TO.P,U3,5,PG*%
%TO.N,Net-(U3-PG)*%
X178010000Y-79561000D03*
D40*
X177725000Y-79561000D03*
%TO.P,U3,6,VAUX*%
%TO.N,Net-(U3-VAUX)*%
X174775000Y-79561000D03*
D39*
X174490000Y-79561000D03*
D40*
%TO.P,U3,7,GND*%
%TO.N,GND*%
X174775000Y-80061000D03*
D39*
X174490000Y-80061000D03*
D40*
%TO.P,U3,8,FB*%
%TO.N,Net-(U3-FB)*%
X174775000Y-80561000D03*
D39*
X174490000Y-80561000D03*
D40*
%TO.P,U3,9,VOUT*%
%TO.N,+3.3V*%
X174775000Y-81061000D03*
D39*
X174490000Y-81061000D03*
D40*
%TO.P,U3,10,L2*%
%TO.N,Net-(U3-L2)*%
X174775000Y-81561000D03*
D39*
X174490000Y-81561000D03*
D41*
%TO.P,U3,11,PGND*%
%TO.N,GND*%
X176850000Y-81986000D03*
D42*
X176850000Y-81986000D03*
D41*
X176850000Y-79136000D03*
D42*
X176850000Y-79136000D03*
D43*
X176750000Y-81061000D03*
X176750000Y-80061000D03*
D44*
X176685000Y-81121000D03*
X176685000Y-80001000D03*
D41*
X176450000Y-81986000D03*
D42*
X176450000Y-81986000D03*
D41*
X176450000Y-79136000D03*
D42*
X176450000Y-79136000D03*
D43*
X176250000Y-80561000D03*
D45*
X176250000Y-80561000D03*
D41*
X176050000Y-81986000D03*
D42*
X176050000Y-81986000D03*
D41*
X176050000Y-79136000D03*
D42*
X176050000Y-79136000D03*
D44*
X175815000Y-81121000D03*
X175815000Y-80001000D03*
D43*
X175750000Y-81061000D03*
X175750000Y-80061000D03*
D41*
X175650000Y-81986000D03*
D42*
X175650000Y-81986000D03*
D41*
X175650000Y-79136000D03*
D42*
X175650000Y-79136000D03*
%TD*%
D18*
%TO.P,C1,1*%
%TO.N,GND*%
X157000000Y-81020000D03*
%TO.P,C1,2*%
%TO.N,+3.3V*%
X157000000Y-81980000D03*
%TD*%
D46*
%TO.P,L1,1,1*%
%TO.N,Net-(U3-L2)*%
X175800000Y-83601000D03*
%TO.P,L1,2,2*%
%TO.N,Net-(U3-L1)*%
X176770000Y-83601000D03*
%TD*%
D25*
%TO.P,C6,1*%
%TO.N,VCC*%
X181500000Y-80801000D03*
%TO.P,C6,2*%
%TO.N,GND*%
X181500000Y-82351000D03*
%TD*%
D47*
%TO.P,J4,1,Pin_1*%
%TO.N,GND*%
X135740000Y-61230000D03*
D48*
%TO.P,J4,2,Pin_2*%
%TO.N,/GPIO1*%
X138280000Y-61230000D03*
%TO.P,J4,3,Pin_3*%
%TO.N,/GPIO2*%
X140820000Y-61230000D03*
%TO.P,J4,4,Pin_4*%
%TO.N,GND*%
X143360000Y-61230000D03*
%TO.P,J4,5,Pin_5*%
X145900000Y-61230000D03*
%TO.P,J4,6,Pin_6*%
%TO.N,/GPIO24*%
X148440000Y-61230000D03*
%TO.P,J4,7,Pin_7*%
%TO.N,/GPIO23*%
X150980000Y-61230000D03*
%TO.P,J4,8,Pin_8*%
%TO.N,/GPIO22*%
X153520000Y-61230000D03*
%TO.P,J4,9,Pin_9*%
%TO.N,/GPIO21*%
X156060000Y-61230000D03*
%TO.P,J4,10,Pin_10*%
%TO.N,/GPIO20*%
X158600000Y-61230000D03*
%TO.P,J4,11,Pin_11*%
%TO.N,/GPIO0*%
X161140000Y-61230000D03*
%TO.P,J4,12,Pin_12*%
%TO.N,/GPIO25*%
X163680000Y-61230000D03*
%TO.P,J4,13,Pin_13*%
%TO.N,/GPIO28*%
X166220000Y-61230000D03*
%TO.P,J4,14,Pin_14*%
%TO.N,/GPIO27*%
X168760000Y-61230000D03*
%TO.P,J4,15,Pin_15*%
%TO.N,/GPIO19*%
X171300000Y-61230000D03*
%TO.P,J4,16,Pin_16*%
%TO.N,/GPIO14*%
X173840000Y-61230000D03*
%TO.P,J4,17,Pin_17*%
%TO.N,VCC*%
X176380000Y-61230000D03*
%TO.P,J4,18,Pin_18*%
X178920000Y-61230000D03*
%TO.P,J4,19,Pin_19*%
%TO.N,+3.3V*%
X181460000Y-61230000D03*
%TO.P,J4,20,Pin_20*%
%TO.N,GND*%
X184000000Y-61230000D03*
%TO.P,J4,21,Pin_21*%
X186540000Y-61230000D03*
%TO.P,J4,22,Pin_22*%
X189080000Y-61230000D03*
%TD*%
D47*
%TO.P,J2,1,Pin_1*%
%TO.N,+3.3V*%
X135740000Y-85950000D03*
D48*
%TO.P,J2,2,Pin_2*%
X138280000Y-85950000D03*
%TO.P,J2,3,Pin_3*%
%TO.N,/EN*%
X140820000Y-85950000D03*
%TO.P,J2,4,Pin_4*%
%TO.N,/GPIO4*%
X143360000Y-85950000D03*
%TO.P,J2,5,Pin_5*%
%TO.N,/GPIO5*%
X145900000Y-85950000D03*
%TO.P,J2,6,Pin_6*%
%TO.N,/GPIO6*%
X148440000Y-85950000D03*
%TO.P,J2,7,Pin_7*%
%TO.N,/GPIO7*%
X150980000Y-85950000D03*
%TO.P,J2,8,Pin_8*%
%TO.N,/GPIO15*%
X153520000Y-85950000D03*
%TO.P,J2,9,Pin_9*%
%TO.N,/GPIO16*%
X156060000Y-85950000D03*
%TO.P,J2,10,Pin_10*%
%TO.N,/GPIO17*%
X158600000Y-85950000D03*
%TO.P,J2,11,Pin_11*%
%TO.N,/GPIO18*%
X161140000Y-85950000D03*
%TO.P,J2,12,Pin_12*%
%TO.N,/GPIO8*%
X163680000Y-85950000D03*
%TO.P,J2,13,Pin_13*%
%TO.N,/GPIO3*%
X166220000Y-85950000D03*
%TO.P,J2,14,Pin_14*%
%TO.N,/GPIO26*%
X168760000Y-85950000D03*
%TO.P,J2,15,Pin_15*%
%TO.N,/D+*%
X171300000Y-85950000D03*
%TO.P,J2,16,Pin_16*%
%TO.N,/D-*%
X173840000Y-85950000D03*
%TO.P,J2,17,Pin_17*%
%TO.N,VCC*%
X176380000Y-85950000D03*
%TO.P,J2,18,Pin_18*%
X178920000Y-85950000D03*
%TO.P,J2,19,Pin_19*%
%TO.N,+3.3V*%
X181460000Y-85950000D03*
%TO.P,J2,20,Pin_20*%
%TO.N,GND*%
X184000000Y-85950000D03*
%TO.P,J2,21,Pin_21*%
X186540000Y-85950000D03*
%TO.P,J2,22,Pin_22*%
X189080000Y-85950000D03*
%TD*%
D49*
%TO.N,/GPIO13*%
X159850000Y-71250000D03*
%TO.N,/GPIO10*%
X158964992Y-70349011D03*
%TO.N,/GPIO13*%
X155000000Y-72750000D03*
%TO.N,/GPIO10*%
X155000000Y-76500000D03*
%TO.N,/GPIO9*%
X155093793Y-77655207D03*
X158500000Y-71000000D03*
%TO.N,+3.3V*%
X177500000Y-74851000D03*
X153703523Y-81650000D03*
X176000000Y-73250000D03*
X149250000Y-79500000D03*
%TO.N,Net-(C4-Pad1)*%
X168000000Y-65750000D03*
%TO.N,Net-(U3-FB)*%
X168400000Y-80250000D03*
X169600000Y-80250000D03*
D50*
%TO.N,VCC*%
X174685000Y-64501000D03*
D49*
X176500000Y-68501000D03*
X173150000Y-66611000D03*
%TO.N,/EN*%
X138380000Y-81000000D03*
X154500000Y-81575002D03*
X161750000Y-81650000D03*
%TO.N,Net-(D1-A)*%
X180500000Y-79601000D03*
X174500000Y-68368100D03*
%TO.N,Net-(D1-K)*%
X173750000Y-67751000D03*
X179355000Y-75856000D03*
%TO.N,Net-(D2-A)*%
X171500000Y-68500000D03*
X178000000Y-72196000D03*
%TO.N,/GPIO16*%
X146000000Y-81000000D03*
%TO.N,/GPIO18*%
X148500000Y-81000000D03*
%TO.N,/GPIO17*%
X147250000Y-81000000D03*
%TO.N,/GPIO8*%
X149750000Y-81000000D03*
%TO.N,/GPIO25*%
X155000000Y-66500000D03*
%TO.N,/GPIO3*%
X154750000Y-80750000D03*
%TO.N,/GPIO23*%
X143500000Y-66500000D03*
%TO.N,/GPIO24*%
X142250000Y-66500000D03*
%TO.N,/GPIO0*%
X154750000Y-65500000D03*
%TO.N,/GPIO19*%
X155000000Y-70250000D03*
%TO.N,/GPIO20*%
X147250000Y-66500000D03*
%TO.N,/GPIO14*%
X155000000Y-71500000D03*
%TO.N,/GPIO26*%
X154970000Y-79500000D03*
%TO.N,/GPIO21*%
X146000000Y-66500000D03*
%TO.N,/GPIO27*%
X155000000Y-69000000D03*
%TO.N,/GPIO22*%
X144750000Y-66500000D03*
%TO.N,/D-*%
X150750000Y-77750000D03*
%TO.N,/D+*%
X151500000Y-78299000D03*
%TO.N,/GPIO28*%
X155000000Y-67750000D03*
%TO.N,VCC*%
X178750000Y-83622000D03*
%TD*%
D51*
%TO.N,+3.3V*%
X158750000Y-76500000D02*
X158750000Y-75250000D01*
X158230000Y-77020000D02*
X158750000Y-76500000D01*
X158230000Y-77500000D02*
X158230000Y-77020000D01*
D52*
X158750000Y-74162500D02*
X158750000Y-75250000D01*
%TO.N,Net-(C4-Pad1)*%
X168000000Y-64500000D02*
X168000000Y-65750000D01*
X169750000Y-62750000D02*
X168000000Y-64500000D01*
X171250000Y-62750000D02*
X169750000Y-62750000D01*
X171500000Y-63000000D02*
X171250000Y-62750000D01*
X171500000Y-63501000D02*
X171500000Y-63000000D01*
D51*
%TO.N,+3.3V*%
X187372000Y-80577942D02*
X183627942Y-84322000D01*
X183627942Y-84322000D02*
X181500000Y-84322000D01*
X187372000Y-66522058D02*
X187372000Y-80577942D01*
X181460000Y-62210000D02*
X182149000Y-62899000D01*
X181460000Y-61230000D02*
X181460000Y-62210000D01*
X182149000Y-62899000D02*
X183748942Y-62899000D01*
X183748942Y-62899000D02*
X187372000Y-66522058D01*
%TO.N,VCC*%
X180250000Y-63500000D02*
X179655000Y-62905000D01*
X183500000Y-63500000D02*
X180250000Y-63500000D01*
X186250000Y-66250000D02*
X183500000Y-63500000D01*
X186249000Y-66251000D02*
X180250000Y-66251000D01*
X186250000Y-66250000D02*
X186249000Y-66251000D01*
D52*
%TO.N,Net-(U1-ISET)*%
X178750000Y-65250000D02*
X178563500Y-65063500D01*
X178563500Y-65063500D02*
X177497500Y-65063500D01*
%TO.N,Net-(U1-TS)*%
X176936000Y-64250000D02*
X176810000Y-64376000D01*
X179240000Y-64250000D02*
X176936000Y-64250000D01*
%TO.N,VCC*%
X177497500Y-66747500D02*
X177497500Y-66563500D01*
X180250000Y-66750000D02*
X179936500Y-67063500D01*
X179936500Y-67063500D02*
X177813500Y-67063500D01*
X177813500Y-67063500D02*
X177497500Y-66747500D01*
X180250000Y-66251000D02*
X180250000Y-66750000D01*
%TO.N,/RXD0*%
X141500000Y-63250000D02*
X140830000Y-63920000D01*
X163239500Y-68489500D02*
X159922400Y-68489500D01*
X140830000Y-63920000D02*
X140830000Y-64890000D01*
X164401000Y-69651000D02*
X163239500Y-68489500D01*
X174939999Y-69651000D02*
X164401000Y-69651000D01*
X175675000Y-70386001D02*
X174939999Y-69651000D01*
X154682900Y-63250000D02*
X141500000Y-63250000D01*
X159922400Y-68489500D02*
X154682900Y-63250000D01*
X175675000Y-71041000D02*
X175675000Y-70386001D01*
D51*
%TO.N,VCC*%
X172000000Y-66241000D02*
X170750000Y-66241000D01*
X172000000Y-65001000D02*
X172000000Y-66201000D01*
X172000000Y-66201000D02*
X171980000Y-66221000D01*
X172640000Y-65001000D02*
X172000000Y-65001000D01*
X173150000Y-65511000D02*
X172640000Y-65001000D01*
X173150000Y-66611000D02*
X173150000Y-65511000D01*
D52*
%TO.N,Net-(C4-Pad1)*%
X176189000Y-63500000D02*
X171501000Y-63500000D01*
X171501000Y-63500000D02*
X171500000Y-63501000D01*
X176310000Y-63621000D02*
X176189000Y-63500000D01*
X176310000Y-64376000D02*
X176310000Y-63621000D01*
%TO.N,/GPIO13*%
X159750000Y-71350000D02*
X159850000Y-71250000D01*
X159750000Y-72337500D02*
X159750000Y-71350000D01*
%TO.N,/GPIO9*%
X158750000Y-71250000D02*
X158750000Y-72337500D01*
X158500000Y-71000000D02*
X158750000Y-71250000D01*
%TO.N,/GPIO13*%
X154745000Y-73005000D02*
X155000000Y-72750000D01*
X153510000Y-73005000D02*
X154745000Y-73005000D01*
%TO.N,/GPIO10*%
X154685000Y-76815000D02*
X155000000Y-76500000D01*
X153510000Y-76815000D02*
X154685000Y-76815000D01*
%TO.N,/GPIO9*%
X154664000Y-78085000D02*
X155093793Y-77655207D01*
X153510000Y-78085000D02*
X154664000Y-78085000D01*
%TO.N,/GPIO12*%
X156500000Y-72500000D02*
X154725000Y-74275000D01*
X154725000Y-74275000D02*
X153510000Y-74275000D01*
X158087500Y-72500000D02*
X156500000Y-72500000D01*
D51*
%TO.N,+3.3V*%
X158230000Y-79480000D02*
X158230000Y-77500000D01*
X158500000Y-79750000D02*
X158230000Y-79480000D01*
X160412500Y-76337500D02*
X160412500Y-74026000D01*
X159750000Y-77000000D02*
X160412500Y-76337500D01*
X159750000Y-77500000D02*
X159750000Y-77000000D01*
X159750000Y-78750000D02*
X159750000Y-77500000D01*
X159750000Y-78750000D02*
X159750000Y-79750000D01*
X156760000Y-79500000D02*
X158250000Y-79500000D01*
X158250000Y-79500000D02*
X158500000Y-79750000D01*
X156319000Y-82661000D02*
X157000000Y-81980000D01*
X162260000Y-82535000D02*
X162250000Y-82525000D01*
X172591760Y-82601000D02*
X173500000Y-81692760D01*
X162750000Y-82535000D02*
X164740000Y-82535000D01*
X153703523Y-81650000D02*
X153703523Y-82350020D01*
X158500000Y-79750000D02*
X158500000Y-80975000D01*
X174500000Y-71750000D02*
X174500000Y-71136000D01*
X138280000Y-85950000D02*
X137110000Y-84780000D01*
X177500000Y-74851000D02*
X177600000Y-74851000D01*
X165874000Y-79876000D02*
X166250000Y-79500000D01*
X181500000Y-84322000D02*
X181500000Y-85910000D01*
X166547000Y-84322000D02*
X164750000Y-82525000D01*
X137110000Y-84250000D02*
X137110000Y-82390000D01*
X137110000Y-84780000D02*
X137110000Y-84250000D01*
D52*
X173939000Y-81061000D02*
X173500000Y-81500000D01*
D51*
X176000000Y-73250000D02*
X174500000Y-71750000D01*
X153703523Y-82350020D02*
X154014503Y-82661000D01*
X167892480Y-79500000D02*
X169542480Y-77850000D01*
X177600000Y-74851000D02*
X178215000Y-75466000D01*
X170750000Y-82601000D02*
X172591760Y-82601000D01*
X178215000Y-75466000D02*
X178215000Y-76541000D01*
X177400000Y-77850000D02*
X178215000Y-77035000D01*
X169542480Y-77850000D02*
X177400000Y-77850000D01*
X137110000Y-80390000D02*
X137110000Y-82390000D01*
X138000000Y-79500000D02*
X137110000Y-80390000D01*
X158500000Y-80975000D02*
X157495000Y-81980000D01*
X162250000Y-82525000D02*
X160750000Y-82525000D01*
X165475000Y-82525000D02*
X165874000Y-82126000D01*
D52*
X174490000Y-81061000D02*
X173939000Y-81061000D01*
D51*
X157495000Y-81980000D02*
X157000000Y-81980000D01*
X137110000Y-84580000D02*
X137110000Y-84250000D01*
X166250000Y-79500000D02*
X167892480Y-79500000D01*
X164750000Y-82525000D02*
X165475000Y-82525000D01*
X178215000Y-77035000D02*
X178215000Y-76541000D01*
X154014503Y-82661000D02*
X156319000Y-82661000D01*
X166547000Y-84322000D02*
X181500000Y-84322000D01*
X149250000Y-79500000D02*
X138000000Y-79500000D01*
X135740000Y-85950000D02*
X137110000Y-84580000D01*
X165874000Y-82126000D02*
X165874000Y-79876000D01*
X170750000Y-81351000D02*
X170750000Y-82601000D01*
X173500000Y-81692760D02*
X173500000Y-81500000D01*
D52*
%TO.N,Net-(C4-Pad1)*%
X176310000Y-64376000D02*
X175810000Y-64376000D01*
%TO.N,Net-(U3-FB)*%
X169600000Y-80250000D02*
X169850000Y-80500000D01*
X171740000Y-81000000D02*
X171740000Y-81351000D01*
X171500000Y-80500000D02*
X170000000Y-80500000D01*
X169730000Y-80770000D02*
X169730000Y-81351000D01*
X168000000Y-80250000D02*
X167300000Y-80950000D01*
X174049000Y-80500000D02*
X174049000Y-80502000D01*
X171740000Y-80500000D02*
X171500000Y-80500000D01*
X174431000Y-80502000D02*
X174490000Y-80561000D01*
X168400000Y-80250000D02*
X168000000Y-80250000D01*
X167300000Y-80950000D02*
X166750000Y-80950000D01*
X174049000Y-80502000D02*
X174431000Y-80502000D01*
X171740000Y-80500000D02*
X174049000Y-80500000D01*
X170000000Y-80500000D02*
X169730000Y-80770000D01*
X171740000Y-81000000D02*
X171740000Y-80500000D01*
X169850000Y-80500000D02*
X171500000Y-80500000D01*
%TO.N,VCC*%
X174685000Y-64501000D02*
X174500000Y-64686000D01*
D51*
X178500000Y-80801000D02*
X178281000Y-81020000D01*
X179625000Y-80801000D02*
X178500000Y-80801000D01*
X178209000Y-80801000D02*
X178010000Y-80602000D01*
X184405000Y-76441000D02*
X183378000Y-76441000D01*
X178281000Y-81020000D02*
X178010000Y-81020000D01*
X182867000Y-80801000D02*
X181500000Y-80801000D01*
D52*
X176310000Y-67251000D02*
X175810000Y-67251000D01*
X174500000Y-64941000D02*
X174622500Y-65063500D01*
D51*
X183378000Y-76441000D02*
X183279000Y-76540000D01*
X183279000Y-80389000D02*
X182867000Y-80801000D01*
D52*
X174500000Y-64686000D02*
X174500000Y-64941000D01*
X175810000Y-67811000D02*
X176500000Y-68501000D01*
D51*
X179625000Y-80801000D02*
X181500000Y-80801000D01*
X178500000Y-80801000D02*
X178209000Y-80801000D01*
D52*
X175810000Y-67251000D02*
X175810000Y-67811000D01*
D51*
X183279000Y-76540000D02*
X183279000Y-80389000D01*
D52*
%TO.N,/EN*%
X154924998Y-81575002D02*
X155480000Y-81020000D01*
X161750000Y-79051000D02*
X164250000Y-76551000D01*
X138380000Y-81000000D02*
X138380000Y-82390000D01*
X161750000Y-81650000D02*
X161750000Y-79051000D01*
X138380000Y-82390000D02*
X138380000Y-83510000D01*
X155480000Y-81020000D02*
X155750000Y-81020000D01*
X155740000Y-79750000D02*
X155740000Y-81010000D01*
X138380000Y-83510000D02*
X140820000Y-85950000D01*
X154500000Y-81575002D02*
X154924998Y-81575002D01*
%TO.N,Net-(D1-A)*%
X174500000Y-68368100D02*
X174451000Y-68417100D01*
X172416100Y-68417100D02*
X172000000Y-68001000D01*
X174451000Y-68417100D02*
X172416100Y-68417100D01*
X180500000Y-78001000D02*
X180500000Y-79601000D01*
X172000000Y-68001000D02*
X172000000Y-67261000D01*
%TO.N,Net-(D1-K)*%
X173937500Y-66063500D02*
X174622500Y-66063500D01*
X173750000Y-67751000D02*
X173750000Y-66251000D01*
X173750000Y-66251000D02*
X173937500Y-66063500D01*
X179355000Y-75856000D02*
X179355000Y-78001000D01*
%TO.N,Net-(D2-K)*%
X175310000Y-67251000D02*
X175310000Y-68811000D01*
X176000000Y-69501000D02*
X179355000Y-69501000D01*
X175310000Y-68811000D02*
X176000000Y-69501000D01*
%TO.N,Net-(D2-A)*%
X178804000Y-72196000D02*
X178000000Y-72196000D01*
X180500000Y-69501000D02*
X180500000Y-70500000D01*
X171500000Y-68500000D02*
X170750000Y-67750000D01*
X170750000Y-67750000D02*
X170750000Y-67261000D01*
X180500000Y-70500000D02*
X178804000Y-72196000D01*
%TO.N,/GPIO16*%
X146000000Y-82390000D02*
X146000000Y-81000000D01*
%TO.N,/GPIO18*%
X148540000Y-81040000D02*
X148500000Y-81000000D01*
X148540000Y-82390000D02*
X148540000Y-81040000D01*
%TO.N,/GPIO17*%
X147270000Y-81020000D02*
X147250000Y-81000000D01*
X147270000Y-82390000D02*
X147270000Y-81020000D01*
%TO.N,/GPIO8*%
X149810000Y-82390000D02*
X149810000Y-81060000D01*
X149810000Y-81060000D02*
X149750000Y-81000000D01*
%TO.N,/GPIO5*%
X144749000Y-84799000D02*
X145900000Y-85950000D01*
X142094100Y-84799000D02*
X144749000Y-84799000D01*
X140920000Y-82390000D02*
X140920000Y-83624900D01*
X140920000Y-83624900D02*
X142094100Y-84799000D01*
%TO.N,/GPIO4*%
X139750000Y-83750000D02*
X140247760Y-83750000D01*
X139650000Y-83650000D02*
X139750000Y-83750000D01*
X142447760Y-85950000D02*
X143360000Y-85950000D01*
X139650000Y-82390000D02*
X139650000Y-83650000D01*
X140247760Y-83750000D02*
X142447760Y-85950000D01*
%TO.N,/GPIO15*%
X144730000Y-83340000D02*
X144986000Y-83596000D01*
X151166000Y-83596000D02*
X153520000Y-85950000D01*
X144730000Y-82390000D02*
X144730000Y-83340000D01*
X144986000Y-83596000D02*
X151166000Y-83596000D01*
%TO.N,/GPIO25*%
X154845000Y-66655000D02*
X155000000Y-66500000D01*
X153600000Y-66655000D02*
X154845000Y-66655000D01*
%TO.N,/GPIO3*%
X154625000Y-80625000D02*
X154750000Y-80750000D01*
X153600000Y-80625000D02*
X154625000Y-80625000D01*
%TO.N,/GPIO7*%
X143460000Y-83710000D02*
X143747000Y-83997000D01*
X143747000Y-83997000D02*
X149027000Y-83997000D01*
X143460000Y-82390000D02*
X143460000Y-83710000D01*
X149027000Y-83997000D02*
X150980000Y-85950000D01*
%TO.N,/GPIO23*%
X143460000Y-64890000D02*
X143460000Y-66460000D01*
X143460000Y-66460000D02*
X143500000Y-66500000D01*
%TO.N,/GPIO24*%
X142190000Y-66440000D02*
X142250000Y-66500000D01*
X142190000Y-64890000D02*
X142190000Y-66440000D01*
%TO.N,/GPIO1*%
X137110000Y-62400000D02*
X138280000Y-61230000D01*
X137110000Y-64890000D02*
X137110000Y-62400000D01*
%TO.N,/GPIO0*%
X152350000Y-64890000D02*
X154140000Y-64890000D01*
X154140000Y-64890000D02*
X154750000Y-65500000D01*
X164533900Y-71351000D02*
X166270000Y-71351000D01*
X160324000Y-69824000D02*
X163006900Y-69824000D01*
X152350000Y-64890000D02*
X155390000Y-64890000D01*
X155390000Y-64890000D02*
X160324000Y-69824000D01*
X163006900Y-69824000D02*
X164533900Y-71351000D01*
%TO.N,/GPIO19*%
X153600000Y-70465000D02*
X154785000Y-70465000D01*
X154785000Y-70465000D02*
X155000000Y-70250000D01*
%TO.N,/GPIO20*%
X147270000Y-66230000D02*
X147270000Y-64890000D01*
X147250000Y-66250000D02*
X147270000Y-66230000D01*
X147250000Y-66500000D02*
X147250000Y-66250000D01*
%TO.N,/GPIO14*%
X154765000Y-71735000D02*
X155000000Y-71500000D01*
X153600000Y-71735000D02*
X154765000Y-71735000D01*
%TO.N,/TXD0*%
X163574600Y-68088500D02*
X160088500Y-68088500D01*
X139650000Y-63850000D02*
X139650000Y-64890000D01*
X176945000Y-71041000D02*
X176945000Y-70386001D01*
X160088500Y-68088500D02*
X154750000Y-62750000D01*
X140750000Y-62750000D02*
X139650000Y-63850000D01*
X175833900Y-69902000D02*
X175181900Y-69250000D01*
X176460999Y-69902000D02*
X175833900Y-69902000D01*
X154750000Y-62750000D02*
X140750000Y-62750000D01*
X176945000Y-70386001D02*
X176460999Y-69902000D01*
X175181900Y-69250000D02*
X164736100Y-69250000D01*
X164736100Y-69250000D02*
X163574600Y-68088500D01*
%TO.N,/GPIO26*%
X153600000Y-79355000D02*
X154825000Y-79355000D01*
X154825000Y-79355000D02*
X154970000Y-79500000D01*
%TO.N,/GPIO2*%
X138380000Y-64890000D02*
X138380000Y-63120000D01*
X138380000Y-63120000D02*
X140270000Y-61230000D01*
%TO.N,/GPIO21*%
X146000000Y-64890000D02*
X146000000Y-66500000D01*
%TO.N,/GPIO27*%
X154805000Y-69195000D02*
X155000000Y-69000000D01*
X153600000Y-69195000D02*
X154805000Y-69195000D01*
%TO.N,/GPIO22*%
X144730000Y-64890000D02*
X144730000Y-66480000D01*
X144730000Y-66480000D02*
X144750000Y-66500000D01*
%TO.N,Net-(J5-CC2)*%
X183360000Y-72241000D02*
X184405000Y-72241000D01*
X180500000Y-72521000D02*
X183080000Y-72521000D01*
X183080000Y-72521000D02*
X183360000Y-72241000D01*
%TO.N,/D-*%
X172275000Y-72433501D02*
X172275000Y-73776000D01*
X183100000Y-74250000D02*
X183100000Y-74413000D01*
X151080000Y-81170000D02*
X151080000Y-82390000D01*
X183428000Y-74741000D02*
X184405000Y-74741000D01*
X171865000Y-72023501D02*
X172275000Y-72433501D01*
X172275000Y-73776000D02*
X172750000Y-74251000D01*
X171865000Y-71041000D02*
X171865000Y-72023501D01*
X184405000Y-73741000D02*
X183457000Y-73741000D01*
X183457000Y-73741000D02*
X183100000Y-74098000D01*
X183099000Y-74251000D02*
X183100000Y-74250000D01*
X150750000Y-77750000D02*
X150250000Y-78250000D01*
X183100000Y-74413000D02*
X183428000Y-74741000D01*
X150250000Y-78250000D02*
X150250000Y-80340000D01*
X183100000Y-74098000D02*
X183100000Y-74250000D01*
X172750000Y-74251000D02*
X183099000Y-74251000D01*
X150250000Y-80340000D02*
X151080000Y-81170000D01*
%TO.N,Net-(J5-CC1)*%
X183360900Y-75241000D02*
X183110900Y-74991000D01*
X183110900Y-74991000D02*
X180500000Y-74991000D01*
X184405000Y-75241000D02*
X183360900Y-75241000D01*
%TO.N,Net-(U3-L1)*%
X178010000Y-81561000D02*
X178010000Y-83046000D01*
X178010000Y-83046000D02*
X177455000Y-83601000D01*
X177455000Y-83601000D02*
X176770000Y-83601000D01*
%TO.N,Net-(U3-L2)*%
X174490000Y-81561000D02*
X174490000Y-82926000D01*
X175165000Y-83601000D02*
X175800000Y-83601000D01*
X174490000Y-82926000D02*
X175165000Y-83601000D01*
%TO.N,Net-(Q1-Pad1)*%
X167530000Y-77501000D02*
X167770000Y-77261000D01*
X166270000Y-77501000D02*
X167530000Y-77501000D01*
%TO.N,/RTS*%
X167770000Y-73501000D02*
X166270000Y-75001000D01*
X167770000Y-73011000D02*
X167770000Y-73501000D01*
X168780000Y-73011000D02*
X170421000Y-74652000D01*
X175675000Y-75886001D02*
X175675000Y-76541000D01*
X167770000Y-73011000D02*
X168780000Y-73011000D01*
X170421000Y-74652000D02*
X174440999Y-74652000D01*
X174440999Y-74652000D02*
X175675000Y-75886001D01*
X166270000Y-75001000D02*
X166270000Y-75601000D01*
%TO.N,/DTR*%
X167770000Y-75751000D02*
X167770000Y-76241000D01*
X173770000Y-75251000D02*
X168270000Y-75251000D01*
X174405000Y-75886000D02*
X173770000Y-75251000D01*
X164250000Y-75249000D02*
X164250000Y-72301000D01*
X165242000Y-76241000D02*
X164250000Y-75249000D01*
X165242000Y-76241000D02*
X167770000Y-76241000D01*
X168270000Y-75251000D02*
X167770000Y-75751000D01*
X174405000Y-76541000D02*
X174405000Y-75886000D01*
%TO.N,Net-(Q2-Pad1)*%
X166780000Y-71991000D02*
X166270000Y-72501000D01*
X166270000Y-72501000D02*
X166270000Y-73251000D01*
X167770000Y-71991000D02*
X166780000Y-71991000D01*
%TO.N,Net-(U3-PG)*%
X169000000Y-82351000D02*
X169250000Y-82601000D01*
X178010000Y-78861000D02*
X177500000Y-78351000D01*
X177500000Y-78351000D02*
X169750000Y-78351000D01*
X169750000Y-78351000D02*
X169000000Y-79101000D01*
X178010000Y-79561000D02*
X178010000Y-78861000D01*
X169000000Y-79101000D02*
X169000000Y-82351000D01*
%TO.N,Net-(U1-ILIM)*%
X176810000Y-67811000D02*
X176810000Y-67251000D01*
X177250000Y-68251000D02*
X176810000Y-67811000D01*
X178240000Y-68251000D02*
X177250000Y-68251000D01*
%TO.N,Net-(U1-ISET)*%
X179240000Y-65250000D02*
X178750000Y-65250000D01*
%TO.N,/D+*%
X152350000Y-81350000D02*
X151250000Y-80250000D01*
X184405000Y-73241000D02*
X185382000Y-73241000D01*
X151250000Y-80250000D02*
X151250000Y-78549000D01*
X172916100Y-73850000D02*
X172725000Y-73658900D01*
X182751000Y-73850000D02*
X172916100Y-73850000D01*
X173135000Y-72023500D02*
X173135000Y-71041000D01*
X172725000Y-73658900D02*
X172725000Y-72433500D01*
X183360000Y-73241000D02*
X182751000Y-73850000D01*
X185382000Y-74241000D02*
X184405000Y-74241000D01*
X151250000Y-78549000D02*
X151500000Y-78299000D01*
X185431000Y-73290000D02*
X185431000Y-74192000D01*
X152350000Y-82390000D02*
X152350000Y-81350000D01*
X185382000Y-73241000D02*
X185431000Y-73290000D01*
X172725000Y-72433500D02*
X173135000Y-72023500D01*
X185431000Y-74192000D02*
X185382000Y-74241000D01*
X184405000Y-73241000D02*
X183360000Y-73241000D01*
%TO.N,/GPIO6*%
X142642886Y-84398000D02*
X146888000Y-84398000D01*
X146888000Y-84398000D02*
X148440000Y-85950000D01*
X142190000Y-82390000D02*
X142190000Y-83945114D01*
X142190000Y-83945114D02*
X142642886Y-84398000D01*
%TO.N,/GPIO28*%
X153600000Y-67925000D02*
X154825000Y-67925000D01*
X154825000Y-67925000D02*
X155000000Y-67750000D01*
D51*
%TO.N,+3.3V*%
X160750000Y-82525000D02*
X159750000Y-81525000D01*
X159750000Y-81525000D02*
X159750000Y-79750000D01*
X158500000Y-79750000D02*
X159750000Y-79750000D01*
D52*
%TO.N,/GPIO10*%
X159250000Y-72337500D02*
X159250000Y-70634019D01*
X159250000Y-70634019D02*
X158964992Y-70349011D01*
D51*
%TO.N,VCC*%
X186771000Y-66771000D02*
X186250000Y-66250000D01*
X186771000Y-66922000D02*
X186771000Y-66771000D01*
X176380000Y-62380000D02*
X176380000Y-61230000D01*
X179655000Y-62905000D02*
X176905000Y-62905000D01*
X176905000Y-62905000D02*
X176380000Y-62380000D01*
X185192570Y-71541000D02*
X184405000Y-71541000D01*
X186771000Y-74830000D02*
X186100000Y-75501000D01*
X186771000Y-74830000D02*
X186771000Y-80329000D01*
X184405000Y-76441000D02*
X185160000Y-76441000D01*
X183478000Y-83622000D02*
X178750000Y-83622000D01*
X186100000Y-75501000D02*
X186100000Y-72448430D01*
X179655000Y-62905000D02*
X178920000Y-62170000D01*
X178920000Y-62170000D02*
X178920000Y-61230000D01*
X186100000Y-72448430D02*
X185192570Y-71541000D01*
X185160000Y-76441000D02*
X186100000Y-75501000D01*
X186771000Y-80329000D02*
X183478000Y-83622000D01*
X186771000Y-66922000D02*
X186771000Y-74830000D01*
D52*
%TO.N,Net-(MT1-INT1{slash}INT)*%
X157250000Y-74250000D02*
X157250000Y-75490000D01*
X157500000Y-74000000D02*
X157250000Y-74250000D01*
X158087500Y-74000000D02*
X157500000Y-74000000D01*
%TO.N,/GPIO11*%
X155295000Y-75545000D02*
X153510000Y-75545000D01*
X157250000Y-76510000D02*
X156260000Y-76510000D01*
X156260000Y-76510000D02*
X155295000Y-75545000D01*
%TD*%
%TA.AperFunction,Conductor*%
%TO.N,GND*%
G36*
X168098613Y-80653922D02*
G01*
X168206814Y-80716392D01*
X168334105Y-80750499D01*
X168334106Y-80750500D01*
X168334108Y-80750500D01*
X168465891Y-80750500D01*
X168465892Y-80750500D01*
X168593186Y-80716392D01*
X168593190Y-80716389D01*
X168597181Y-80714737D01*
X168653818Y-80714737D01*
X168693867Y-80754785D01*
X168699500Y-80783104D01*
X168699500Y-82390564D01*
X168719977Y-82466985D01*
X168719979Y-82466990D01*
X168750744Y-82520276D01*
X168750745Y-82520277D01*
X168754338Y-82526500D01*
X168759540Y-82535511D01*
X168794611Y-82570582D01*
X168796274Y-82572489D01*
X168804557Y-82597120D01*
X168814500Y-82621123D01*
X168814500Y-82907519D01*
X168829353Y-83001304D01*
X168829354Y-83001306D01*
X168872284Y-83085559D01*
X168886950Y-83114342D01*
X168976658Y-83204050D01*
X169089696Y-83261646D01*
X169183481Y-83276500D01*
X169646518Y-83276499D01*
X169646519Y-83276499D01*
X169740304Y-83261646D01*
X169740306Y-83261645D01*
X169796377Y-83233075D01*
X169853342Y-83204050D01*
X169943050Y-83114342D01*
X170000646Y-83001304D01*
X170015500Y-82907519D01*
X170015499Y-82294482D01*
X170013299Y-82280592D01*
X170000646Y-82200695D01*
X170000645Y-82200693D01*
X169946330Y-82094096D01*
X169943050Y-82087658D01*
X169853342Y-81997950D01*
X169853218Y-81997826D01*
X169831544Y-81945500D01*
X169853218Y-81893174D01*
X169901983Y-81872974D01*
X169901897Y-81871659D01*
X169904306Y-81871501D01*
X169904314Y-81871500D01*
X169904316Y-81871500D01*
X169953173Y-81865068D01*
X170060404Y-81815065D01*
X170144065Y-81731404D01*
X170172933Y-81669495D01*
X170191244Y-81652716D01*
X170207759Y-81634162D01*
X170211745Y-81633930D01*
X170214690Y-81631232D01*
X170239506Y-81632315D01*
X170264301Y-81630873D01*
X170267238Y-81633525D01*
X170271273Y-81633702D01*
X170306607Y-81668528D01*
X170306831Y-81668991D01*
X170335935Y-81731404D01*
X170338080Y-81733549D01*
X170342107Y-81741868D01*
X170342734Y-81752650D01*
X170349500Y-81774109D01*
X170349500Y-82653729D01*
X170376791Y-82755582D01*
X170376795Y-82755591D01*
X170429520Y-82846913D01*
X170443007Y-82860400D01*
X170463454Y-82904740D01*
X170464046Y-82904647D01*
X170464378Y-82906743D01*
X170464451Y-82906902D01*
X170464498Y-82907504D01*
X170479353Y-83001304D01*
X170479354Y-83001306D01*
X170522284Y-83085559D01*
X170536950Y-83114342D01*
X170626658Y-83204050D01*
X170739696Y-83261646D01*
X170833481Y-83276500D01*
X171296518Y-83276499D01*
X171296519Y-83276499D01*
X171390304Y-83261646D01*
X171390306Y-83261645D01*
X171446377Y-83233075D01*
X171503342Y-83204050D01*
X171593050Y-83114342D01*
X171629959Y-83041903D01*
X171673026Y-83005122D01*
X171695893Y-83001500D01*
X172644486Y-83001500D01*
X172644487Y-83001500D01*
X172746348Y-82974207D01*
X172837673Y-82921480D01*
X173820480Y-81938673D01*
X173841942Y-81901500D01*
X173873207Y-81847347D01*
X173900499Y-81745489D01*
X173900500Y-81745489D01*
X173900500Y-81555123D01*
X173922174Y-81502797D01*
X174023174Y-81401797D01*
X174075500Y-81380123D01*
X174127826Y-81401797D01*
X174149500Y-81454123D01*
X174149500Y-81720748D01*
X174161133Y-81779231D01*
X174177028Y-81803019D01*
X174189500Y-81844132D01*
X174189500Y-82965564D01*
X174209977Y-83041985D01*
X174209978Y-83041987D01*
X174209979Y-83041989D01*
X174221244Y-83061500D01*
X174221245Y-83061502D01*
X174249539Y-83110510D01*
X174934203Y-83795174D01*
X174955877Y-83847500D01*
X174934203Y-83899826D01*
X174881877Y-83921500D01*
X166743544Y-83921500D01*
X166691218Y-83899826D01*
X165731218Y-82939826D01*
X165709544Y-82887500D01*
X165731217Y-82835175D01*
X166194480Y-82371913D01*
X166247207Y-82280588D01*
X166274500Y-82178727D01*
X166274500Y-82073273D01*
X166274500Y-81734400D01*
X166296174Y-81682074D01*
X166348500Y-81660400D01*
X166379774Y-81667333D01*
X166381683Y-81668223D01*
X166381684Y-81668224D01*
X166490513Y-81718972D01*
X166540099Y-81725500D01*
X166959900Y-81725499D01*
X167009487Y-81718972D01*
X167118316Y-81668224D01*
X167203224Y-81583316D01*
X167253972Y-81474487D01*
X167260500Y-81424901D01*
X167260500Y-81324500D01*
X167282174Y-81272174D01*
X167334500Y-81250500D01*
X167339564Y-81250500D01*
X167339564Y-81250499D01*
X167415989Y-81230021D01*
X167484511Y-81190460D01*
X167540460Y-81134511D01*
X168009288Y-80665681D01*
X168027134Y-80658289D01*
X168042461Y-80646529D01*
X168052375Y-80647834D01*
X168061613Y-80644008D01*
X168098613Y-80653922D01*
G37*
%TD.AperFunction*%
%TA.AperFunction,Conductor*%
G36*
X185282201Y-76920259D02*
G01*
X185294476Y-76921875D01*
X185304842Y-76935385D01*
X185319002Y-76944845D01*
X185328954Y-76966808D01*
X185360310Y-77083831D01*
X185360312Y-77083836D01*
X185429495Y-77203665D01*
X185527335Y-77301505D01*
X185647164Y-77370688D01*
X185780814Y-77406499D01*
X185780815Y-77406500D01*
X185780817Y-77406500D01*
X185919185Y-77406500D01*
X185919185Y-77406499D01*
X186052836Y-77370688D01*
X186172665Y-77301505D01*
X186244174Y-77229996D01*
X186296500Y-77208322D01*
X186348826Y-77229996D01*
X186370500Y-77282322D01*
X186370500Y-80132455D01*
X186348826Y-80184781D01*
X183333781Y-83199826D01*
X183281455Y-83221500D01*
X179077143Y-83221500D01*
X179040143Y-83211586D01*
X178943190Y-83155610D01*
X178943181Y-83155606D01*
X178815894Y-83121500D01*
X178815892Y-83121500D01*
X178684108Y-83121500D01*
X178684106Y-83121500D01*
X178556818Y-83155606D01*
X178556809Y-83155610D01*
X178442686Y-83221500D01*
X178442682Y-83221502D01*
X178400920Y-83263263D01*
X178400909Y-83263276D01*
X178349500Y-83314686D01*
X178316201Y-83372359D01*
X178316201Y-83372361D01*
X178283610Y-83428809D01*
X178283606Y-83428818D01*
X178249500Y-83556105D01*
X178249500Y-83556108D01*
X178249500Y-83687892D01*
X178282886Y-83812490D01*
X178283609Y-83815189D01*
X178285263Y-83819181D01*
X178285263Y-83875818D01*
X178245215Y-83915867D01*
X178216896Y-83921500D01*
X177738123Y-83921500D01*
X177685797Y-83899826D01*
X177664123Y-83847500D01*
X177685797Y-83795174D01*
X177695460Y-83785511D01*
X177816509Y-83664462D01*
X178250460Y-83230511D01*
X178290022Y-83161988D01*
X178310500Y-83085562D01*
X178310500Y-83006438D01*
X178310500Y-81844132D01*
X178322971Y-81803019D01*
X178338867Y-81779231D01*
X178350500Y-81720748D01*
X178350500Y-81472787D01*
X178372174Y-81420461D01*
X178405347Y-81401309D01*
X178435588Y-81393207D01*
X178526913Y-81340480D01*
X178644219Y-81223174D01*
X178696545Y-81201500D01*
X178941524Y-81201500D01*
X178993850Y-81223174D01*
X179007458Y-81241905D01*
X179026470Y-81279217D01*
X179026470Y-81279218D01*
X179026472Y-81279220D01*
X179121780Y-81374528D01*
X179241874Y-81435719D01*
X179341511Y-81451500D01*
X179341512Y-81451500D01*
X179908489Y-81451500D01*
X179977144Y-81440626D01*
X180008126Y-81435719D01*
X180128220Y-81374528D01*
X180223528Y-81279220D01*
X180229307Y-81267876D01*
X180242542Y-81241905D01*
X180285609Y-81205122D01*
X180308476Y-81201500D01*
X180816524Y-81201500D01*
X180868850Y-81223174D01*
X180882458Y-81241905D01*
X180901470Y-81279217D01*
X180901470Y-81279218D01*
X180901472Y-81279220D01*
X180996780Y-81374528D01*
X181116874Y-81435719D01*
X181216511Y-81451500D01*
X181216512Y-81451500D01*
X181783489Y-81451500D01*
X181852144Y-81440626D01*
X181883126Y-81435719D01*
X182003220Y-81374528D01*
X182098528Y-81279220D01*
X182104307Y-81267876D01*
X182117542Y-81241905D01*
X182160609Y-81205122D01*
X182183476Y-81201500D01*
X182919726Y-81201500D01*
X182919727Y-81201500D01*
X183021588Y-81174207D01*
X183112913Y-81121480D01*
X183599480Y-80634913D01*
X183652207Y-80543588D01*
X183679500Y-80441727D01*
X183679500Y-80336273D01*
X183679500Y-77015500D01*
X183701174Y-76963174D01*
X183753500Y-76941500D01*
X185149746Y-76941500D01*
X185149748Y-76941500D01*
X185208231Y-76929867D01*
X185216360Y-76924434D01*
X185228501Y-76922019D01*
X185238323Y-76914483D01*
X185255205Y-76916705D01*
X185271908Y-76913382D01*
X185282201Y-76920259D01*
G37*
%TD.AperFunction*%
%TA.AperFunction,Conductor*%
G36*
X180022976Y-74573174D02*
G01*
X180044650Y-74625500D01*
X180037717Y-74656774D01*
X179985931Y-74767828D01*
X179981271Y-74803231D01*
X179979500Y-74816684D01*
X179979500Y-75165316D01*
X179981193Y-75178178D01*
X179985931Y-75214171D01*
X180003338Y-75251500D01*
X180035935Y-75321404D01*
X180119596Y-75405065D01*
X180226827Y-75455068D01*
X180275684Y-75461500D01*
X180275686Y-75461500D01*
X180724314Y-75461500D01*
X180724316Y-75461500D01*
X180773173Y-75455068D01*
X180880404Y-75405065D01*
X180964065Y-75321404D01*
X180964065Y-75321403D01*
X180968643Y-75316826D01*
X180970217Y-75318400D01*
X181010674Y-75292625D01*
X181023526Y-75291500D01*
X182955777Y-75291500D01*
X183008103Y-75313174D01*
X183120440Y-75425511D01*
X183176389Y-75481460D01*
X183244911Y-75521021D01*
X183244912Y-75521021D01*
X183244914Y-75521022D01*
X183283124Y-75531260D01*
X183321335Y-75541499D01*
X183321336Y-75541500D01*
X183321338Y-75541500D01*
X183405500Y-75541500D01*
X183457826Y-75563174D01*
X183479500Y-75615500D01*
X183479500Y-75910748D01*
X183481107Y-75918826D01*
X183487718Y-75952064D01*
X183476668Y-76007613D01*
X183429576Y-76039078D01*
X183415140Y-76040500D01*
X183325273Y-76040500D01*
X183292841Y-76049190D01*
X183223411Y-76067793D01*
X183223407Y-76067795D01*
X183132090Y-76120517D01*
X182958517Y-76294090D01*
X182905795Y-76385407D01*
X182905794Y-76385409D01*
X182905793Y-76385411D01*
X182905793Y-76385412D01*
X182887651Y-76453123D01*
X182883011Y-76470439D01*
X182878500Y-76487274D01*
X182878500Y-80192455D01*
X182856826Y-80244781D01*
X182722781Y-80378826D01*
X182670455Y-80400500D01*
X182183476Y-80400500D01*
X182131150Y-80378826D01*
X182117542Y-80360095D01*
X182098529Y-80322782D01*
X182098529Y-80322781D01*
X182003219Y-80227471D01*
X181883126Y-80166281D01*
X181883125Y-80166280D01*
X181783489Y-80150500D01*
X181783488Y-80150500D01*
X181216512Y-80150500D01*
X181216511Y-80150500D01*
X181116874Y-80166280D01*
X181116873Y-80166281D01*
X180996780Y-80227471D01*
X180901470Y-80322781D01*
X180901470Y-80322782D01*
X180882458Y-80360095D01*
X180839391Y-80396878D01*
X180816524Y-80400500D01*
X180308476Y-80400500D01*
X180256150Y-80378826D01*
X180242542Y-80360095D01*
X180223529Y-80322782D01*
X180223529Y-80322781D01*
X180128219Y-80227471D01*
X180008126Y-80166281D01*
X180008125Y-80166280D01*
X179908489Y-80150500D01*
X179908488Y-80150500D01*
X179341512Y-80150500D01*
X179341511Y-80150500D01*
X179241874Y-80166280D01*
X179241873Y-80166281D01*
X179121780Y-80227471D01*
X179026470Y-80322781D01*
X179026470Y-80322782D01*
X179007458Y-80360095D01*
X178964391Y-80396878D01*
X178941524Y-80400500D01*
X178411080Y-80400500D01*
X178358754Y-80378826D01*
X178342823Y-80349018D01*
X178341656Y-80349502D01*
X178338867Y-80342769D01*
X178325511Y-80322781D01*
X178294552Y-80276448D01*
X178272343Y-80261608D01*
X178228232Y-80232133D01*
X178228233Y-80232133D01*
X178189857Y-80224500D01*
X178169748Y-80220500D01*
X178169746Y-80220500D01*
X178143380Y-80220500D01*
X178124228Y-80217979D01*
X178062727Y-80201500D01*
X177957273Y-80201500D01*
X177895772Y-80217979D01*
X177876620Y-80220500D01*
X177395170Y-80220500D01*
X177308572Y-80243704D01*
X177230928Y-80288531D01*
X177167531Y-80351928D01*
X177122704Y-80429572D01*
X177099500Y-80516169D01*
X177099500Y-80605830D01*
X177122703Y-80692424D01*
X177122704Y-80692426D01*
X177122705Y-80692428D01*
X177132585Y-80709541D01*
X177169800Y-80774001D01*
X177177191Y-80830154D01*
X177169800Y-80847999D01*
X177122703Y-80929575D01*
X177099500Y-81016169D01*
X177099500Y-81105830D01*
X177122703Y-81192424D01*
X177122704Y-81192427D01*
X177122705Y-81192428D01*
X177127943Y-81201500D01*
X177169800Y-81274001D01*
X177177191Y-81330154D01*
X177169800Y-81347999D01*
X177122703Y-81429575D01*
X177099500Y-81516169D01*
X177099500Y-81605830D01*
X177122704Y-81692427D01*
X177161436Y-81759513D01*
X177167532Y-81770072D01*
X177230928Y-81833468D01*
X177308572Y-81878295D01*
X177395169Y-81901499D01*
X177395170Y-81901500D01*
X177395172Y-81901500D01*
X177635500Y-81901500D01*
X177687826Y-81923174D01*
X177709500Y-81975500D01*
X177709500Y-82890877D01*
X177687826Y-82943203D01*
X177352203Y-83278826D01*
X177299877Y-83300500D01*
X177288477Y-83300500D01*
X177236151Y-83278826D01*
X177221996Y-83259000D01*
X177214272Y-83243201D01*
X177204636Y-83223489D01*
X177122511Y-83141364D01*
X177122510Y-83141363D01*
X177018171Y-83090355D01*
X176950532Y-83080500D01*
X176950528Y-83080500D01*
X176589472Y-83080500D01*
X176589467Y-83080500D01*
X176521829Y-83090355D01*
X176521828Y-83090355D01*
X176417489Y-83141363D01*
X176337326Y-83221527D01*
X176285000Y-83243201D01*
X176232674Y-83221527D01*
X176152510Y-83141363D01*
X176048171Y-83090355D01*
X175980532Y-83080500D01*
X175980528Y-83080500D01*
X175619472Y-83080500D01*
X175619467Y-83080500D01*
X175551829Y-83090355D01*
X175551828Y-83090355D01*
X175447489Y-83141363D01*
X175365364Y-83223488D01*
X175360678Y-83233075D01*
X175318225Y-83270564D01*
X175261696Y-83267055D01*
X175241871Y-83252900D01*
X174812174Y-82823203D01*
X174790500Y-82770877D01*
X174790500Y-81975500D01*
X174812174Y-81923174D01*
X174864500Y-81901500D01*
X175104830Y-81901500D01*
X175104830Y-81901499D01*
X175191428Y-81878295D01*
X175269072Y-81833468D01*
X175332468Y-81770072D01*
X175377295Y-81692428D01*
X175400499Y-81605830D01*
X175400500Y-81605830D01*
X175400500Y-81516170D01*
X175400499Y-81516169D01*
X175400157Y-81514894D01*
X175377295Y-81429572D01*
X175362219Y-81403459D01*
X175330200Y-81347999D01*
X175322808Y-81291847D01*
X175330200Y-81274001D01*
X175355591Y-81230021D01*
X175377295Y-81192428D01*
X175400499Y-81105830D01*
X175400500Y-81105830D01*
X175400500Y-81016170D01*
X175400499Y-81016169D01*
X175398364Y-81008203D01*
X175377295Y-80929572D01*
X175361046Y-80901428D01*
X175330200Y-80847999D01*
X175322808Y-80791847D01*
X175330200Y-80774001D01*
X175343768Y-80750499D01*
X175377295Y-80692428D01*
X175377297Y-80692424D01*
X175392706Y-80634913D01*
X175400499Y-80605830D01*
X175400500Y-80605830D01*
X175400500Y-80516170D01*
X175400499Y-80516169D01*
X175396032Y-80499500D01*
X175377295Y-80429572D01*
X175332468Y-80351928D01*
X175269072Y-80288532D01*
X175269071Y-80288531D01*
X175201465Y-80249500D01*
X175191428Y-80243705D01*
X175191427Y-80243704D01*
X175104830Y-80220500D01*
X175104828Y-80220500D01*
X174649748Y-80220500D01*
X174551210Y-80220500D01*
X174532058Y-80217978D01*
X174500873Y-80209622D01*
X174470563Y-80201500D01*
X174470562Y-80201500D01*
X174105769Y-80201500D01*
X174093407Y-80199872D01*
X174093373Y-80200133D01*
X174088564Y-80199500D01*
X174088562Y-80199500D01*
X171779562Y-80199500D01*
X171539562Y-80199500D01*
X170161407Y-80199500D01*
X170109081Y-80177826D01*
X170089929Y-80144653D01*
X170066393Y-80056818D01*
X170066392Y-80056814D01*
X170000500Y-79942686D01*
X169907314Y-79849500D01*
X169879546Y-79833468D01*
X169793190Y-79783610D01*
X169793181Y-79783606D01*
X169665894Y-79749500D01*
X169665892Y-79749500D01*
X169534108Y-79749500D01*
X169534106Y-79749500D01*
X169406818Y-79783606D01*
X169402817Y-79785264D01*
X169346179Y-79785262D01*
X169306132Y-79745213D01*
X169300500Y-79716896D01*
X169300500Y-79256123D01*
X169322174Y-79203797D01*
X169384871Y-79141100D01*
X172249500Y-79141100D01*
X172249500Y-79560899D01*
X172256027Y-79610485D01*
X172256028Y-79610487D01*
X172306776Y-79719316D01*
X172391684Y-79804224D01*
X172500513Y-79854972D01*
X172550099Y-79861500D01*
X172909900Y-79861499D01*
X172959487Y-79854972D01*
X173068316Y-79804224D01*
X173153224Y-79719316D01*
X173203972Y-79610487D01*
X173210500Y-79560901D01*
X173210499Y-79401252D01*
X174149500Y-79401252D01*
X174149500Y-79720748D01*
X174155219Y-79749500D01*
X174161133Y-79779232D01*
X174186493Y-79817185D01*
X174205448Y-79845552D01*
X174246836Y-79873207D01*
X174271767Y-79889866D01*
X174271768Y-79889866D01*
X174271769Y-79889867D01*
X174330252Y-79901500D01*
X174330254Y-79901500D01*
X175104830Y-79901500D01*
X175104830Y-79901499D01*
X175191428Y-79878295D01*
X175269072Y-79833468D01*
X175332468Y-79770072D01*
X175377295Y-79692428D01*
X175400499Y-79605830D01*
X175400500Y-79605830D01*
X175400500Y-79516170D01*
X175400499Y-79516169D01*
X175377295Y-79429572D01*
X175332468Y-79351928D01*
X175269071Y-79288531D01*
X175191426Y-79243704D01*
X175191427Y-79243704D01*
X175104830Y-79220500D01*
X175104828Y-79220500D01*
X174649748Y-79220500D01*
X174330252Y-79220500D01*
X174305261Y-79225471D01*
X174271767Y-79232133D01*
X174205449Y-79276447D01*
X174205447Y-79276449D01*
X174161133Y-79342767D01*
X174161133Y-79342769D01*
X174149500Y-79401252D01*
X173210499Y-79401252D01*
X173210499Y-79349500D01*
X173210499Y-79141100D01*
X173208616Y-79126793D01*
X173203972Y-79091513D01*
X173153224Y-78982684D01*
X173068316Y-78897776D01*
X172959487Y-78847028D01*
X172959485Y-78847027D01*
X172922955Y-78842218D01*
X172909901Y-78840500D01*
X172909899Y-78840500D01*
X172550100Y-78840500D01*
X172500514Y-78847027D01*
X172500512Y-78847028D01*
X172391683Y-78897776D01*
X172306776Y-78982683D01*
X172256027Y-79091514D01*
X172249500Y-79141100D01*
X169384871Y-79141100D01*
X169852797Y-78673174D01*
X169905123Y-78651500D01*
X177344877Y-78651500D01*
X177397203Y-78673174D01*
X177687826Y-78963797D01*
X177709500Y-79016123D01*
X177709500Y-79146500D01*
X177687826Y-79198826D01*
X177635500Y-79220500D01*
X177395170Y-79220500D01*
X177308572Y-79243704D01*
X177230928Y-79288531D01*
X177167531Y-79351928D01*
X177122704Y-79429572D01*
X177099500Y-79516169D01*
X177099500Y-79605830D01*
X177122704Y-79692427D01*
X177153180Y-79745213D01*
X177167532Y-79770072D01*
X177230928Y-79833468D01*
X177308572Y-79878295D01*
X177395169Y-79901499D01*
X177395170Y-79901500D01*
X177395172Y-79901500D01*
X178169746Y-79901500D01*
X178169748Y-79901500D01*
X178228231Y-79889867D01*
X178294552Y-79845552D01*
X178338867Y-79779231D01*
X178350500Y-79720748D01*
X178350500Y-79401252D01*
X178338867Y-79342769D01*
X178322971Y-79318979D01*
X178310500Y-79277867D01*
X178310500Y-78821436D01*
X178310499Y-78821435D01*
X178301788Y-78788927D01*
X178294336Y-78761113D01*
X178290022Y-78745014D01*
X178290020Y-78745009D01*
X178250459Y-78676488D01*
X177747508Y-78173537D01*
X177725834Y-78121211D01*
X177747508Y-78068885D01*
X178398219Y-77418174D01*
X178450545Y-77396500D01*
X178489004Y-77396500D01*
X178512251Y-77393803D01*
X178607329Y-77351822D01*
X178680822Y-77278329D01*
X178722803Y-77183251D01*
X178725500Y-77160004D01*
X178725500Y-76002543D01*
X178747174Y-75950217D01*
X178799500Y-75928543D01*
X178851826Y-75950217D01*
X178870977Y-75983387D01*
X178885057Y-76035932D01*
X178888609Y-76049188D01*
X178888610Y-76049190D01*
X178954500Y-76163314D01*
X179032826Y-76241640D01*
X179054500Y-76293966D01*
X179054500Y-77431665D01*
X179032826Y-77483991D01*
X179013001Y-77498146D01*
X178920124Y-77543551D01*
X178835051Y-77628624D01*
X178782209Y-77736713D01*
X178772000Y-77806780D01*
X178772000Y-78195214D01*
X178782207Y-78265280D01*
X178782208Y-78265284D01*
X178782209Y-78265286D01*
X178835051Y-78373375D01*
X178920125Y-78458449D01*
X179028214Y-78511291D01*
X179098285Y-78521500D01*
X179611714Y-78521499D01*
X179681780Y-78511292D01*
X179681781Y-78511291D01*
X179681786Y-78511291D01*
X179789875Y-78458449D01*
X179874949Y-78373375D01*
X179874949Y-78373374D01*
X179875174Y-78373150D01*
X179927500Y-78351476D01*
X179979826Y-78373150D01*
X179980051Y-78373375D01*
X180065125Y-78458449D01*
X180158002Y-78503854D01*
X180195490Y-78546306D01*
X180199500Y-78570334D01*
X180199500Y-79163034D01*
X180177826Y-79215360D01*
X180099500Y-79293685D01*
X180033610Y-79407809D01*
X180033606Y-79407818D01*
X179999500Y-79535105D01*
X179999500Y-79666894D01*
X180033606Y-79794181D01*
X180033610Y-79794190D01*
X180068702Y-79854971D01*
X180099500Y-79908314D01*
X180192686Y-80001500D01*
X180306814Y-80067392D01*
X180434105Y-80101499D01*
X180434106Y-80101500D01*
X180434108Y-80101500D01*
X180565894Y-80101500D01*
X180565894Y-80101499D01*
X180693186Y-80067392D01*
X180807314Y-80001500D01*
X180900500Y-79908314D01*
X180966392Y-79794186D01*
X181000499Y-79666894D01*
X181000500Y-79666894D01*
X181000500Y-79535106D01*
X181000499Y-79535105D01*
X180995425Y-79516170D01*
X180966392Y-79407814D01*
X180900500Y-79293686D01*
X180822174Y-79215360D01*
X180800500Y-79163034D01*
X180800500Y-78570334D01*
X180822174Y-78518008D01*
X180841995Y-78503855D01*
X180934875Y-78458449D01*
X181019949Y-78373375D01*
X181072791Y-78265286D01*
X181083000Y-78195215D01*
X181082999Y-77806786D01*
X181081264Y-77794876D01*
X181072792Y-77736719D01*
X181072791Y-77736715D01*
X181072791Y-77736714D01*
X181019949Y-77628625D01*
X180934875Y-77543551D01*
X180826786Y-77490709D01*
X180756715Y-77480500D01*
X180756714Y-77480500D01*
X180243285Y-77480500D01*
X180173219Y-77490707D01*
X180173215Y-77490708D01*
X180065124Y-77543551D01*
X179979826Y-77628850D01*
X179927500Y-77650524D01*
X179875174Y-77628850D01*
X179789875Y-77543551D01*
X179696999Y-77498146D01*
X179659509Y-77455692D01*
X179655500Y-77431665D01*
X179655500Y-76293966D01*
X179677174Y-76241640D01*
X179713779Y-76205035D01*
X179755500Y-76163314D01*
X179821392Y-76049186D01*
X179855499Y-75921894D01*
X179855500Y-75921894D01*
X179855500Y-75790106D01*
X179855499Y-75790105D01*
X179832205Y-75703171D01*
X179821392Y-75662814D01*
X179755500Y-75548686D01*
X179662314Y-75455500D01*
X179589175Y-75413273D01*
X179548190Y-75389610D01*
X179548181Y-75389606D01*
X179420894Y-75355500D01*
X179420892Y-75355500D01*
X179289108Y-75355500D01*
X179289106Y-75355500D01*
X179161818Y-75389606D01*
X179161809Y-75389610D01*
X179047685Y-75455500D01*
X178954500Y-75548685D01*
X178888610Y-75662809D01*
X178888606Y-75662818D01*
X178854500Y-75790105D01*
X178854500Y-75846216D01*
X178832826Y-75898542D01*
X178780500Y-75920216D01*
X178728174Y-75898542D01*
X178712805Y-75876106D01*
X178708861Y-75867174D01*
X178680822Y-75803671D01*
X178637174Y-75760023D01*
X178615500Y-75707697D01*
X178615500Y-75413271D01*
X178615499Y-75413270D01*
X178609159Y-75389610D01*
X178588207Y-75311413D01*
X178535480Y-75220087D01*
X178460913Y-75145520D01*
X177993219Y-74677826D01*
X177971545Y-74625500D01*
X177993219Y-74573174D01*
X178045545Y-74551500D01*
X179970650Y-74551500D01*
X180022976Y-74573174D01*
G37*
%TD.AperFunction*%
%TA.AperFunction,Conductor*%
G36*
X156281273Y-79782702D02*
G01*
X156317067Y-79818496D01*
X156345933Y-79880402D01*
X156345935Y-79880404D01*
X156429596Y-79964065D01*
X156536827Y-80014068D01*
X156585684Y-80020500D01*
X156585686Y-80020500D01*
X156934314Y-80020500D01*
X156934316Y-80020500D01*
X156983173Y-80014068D01*
X157090404Y-79964065D01*
X157132295Y-79922174D01*
X157184621Y-79900500D01*
X158025500Y-79900500D01*
X158077826Y-79922174D01*
X158099500Y-79974500D01*
X158099500Y-80303786D01*
X158077826Y-80356112D01*
X158059096Y-80369720D01*
X157996779Y-80401472D01*
X157901471Y-80496780D01*
X157840281Y-80616873D01*
X157840280Y-80616874D01*
X157824500Y-80716511D01*
X157824500Y-81053454D01*
X157802826Y-81105780D01*
X157393712Y-81514894D01*
X157341386Y-81536568D01*
X157310113Y-81529635D01*
X157259487Y-81506028D01*
X157259485Y-81506027D01*
X157222955Y-81501218D01*
X157209901Y-81499500D01*
X157209899Y-81499500D01*
X156790100Y-81499500D01*
X156740514Y-81506027D01*
X156740512Y-81506028D01*
X156631683Y-81556776D01*
X156546776Y-81641683D01*
X156496027Y-81750514D01*
X156489500Y-81800100D01*
X156489500Y-81893454D01*
X156467826Y-81945780D01*
X156174781Y-82238826D01*
X156122455Y-82260500D01*
X154211048Y-82260500D01*
X154158722Y-82238826D01*
X154125697Y-82205801D01*
X154104023Y-82153475D01*
X154104023Y-82052484D01*
X154125697Y-82000158D01*
X154178023Y-81978484D01*
X154215022Y-81988397D01*
X154306814Y-82041394D01*
X154434105Y-82075501D01*
X154434106Y-82075502D01*
X154434108Y-82075502D01*
X154565894Y-82075502D01*
X154565894Y-82075501D01*
X154693186Y-82041394D01*
X154807314Y-81975502D01*
X154885640Y-81897176D01*
X154937966Y-81875502D01*
X154964562Y-81875502D01*
X154964562Y-81875501D01*
X155040987Y-81855023D01*
X155109509Y-81815462D01*
X155165458Y-81759513D01*
X155413454Y-81511515D01*
X155465780Y-81489842D01*
X155486490Y-81492799D01*
X155490511Y-81493971D01*
X155490513Y-81493972D01*
X155540099Y-81500500D01*
X155959900Y-81500499D01*
X156009487Y-81493972D01*
X156118316Y-81443224D01*
X156203224Y-81358316D01*
X156253972Y-81249487D01*
X156260500Y-81199901D01*
X156260499Y-80840100D01*
X156253972Y-80790513D01*
X156203224Y-80681684D01*
X156118316Y-80596776D01*
X156114267Y-80594888D01*
X156083225Y-80580412D01*
X156044962Y-80538654D01*
X156040500Y-80513346D01*
X156040500Y-80023526D01*
X156062174Y-79971200D01*
X156068975Y-79965493D01*
X156070402Y-79964065D01*
X156070404Y-79964065D01*
X156154065Y-79880404D01*
X156155049Y-79878295D01*
X156180445Y-79823832D01*
X156182933Y-79818495D01*
X156224690Y-79780232D01*
X156281273Y-79782702D01*
G37*
%TD.AperFunction*%
%TA.AperFunction,Conductor*%
G36*
X173648204Y-80822174D02*
G01*
X173669878Y-80874500D01*
X173648204Y-80926824D01*
X173571333Y-81003696D01*
X173497203Y-81077826D01*
X173451786Y-81096637D01*
X173452080Y-81098867D01*
X173447270Y-81099500D01*
X173345417Y-81126791D01*
X173345408Y-81126795D01*
X173254086Y-81179520D01*
X173179520Y-81254086D01*
X173126795Y-81345408D01*
X173126791Y-81345417D01*
X173099500Y-81447270D01*
X173099500Y-81496215D01*
X173077826Y-81548541D01*
X172447541Y-82178826D01*
X172395215Y-82200500D01*
X171695893Y-82200500D01*
X171643567Y-82178826D01*
X171629959Y-82160096D01*
X171593050Y-82087658D01*
X171503342Y-81997950D01*
X171502415Y-81997023D01*
X171480741Y-81944697D01*
X171502415Y-81892371D01*
X171554741Y-81870697D01*
X171564401Y-81871331D01*
X171565684Y-81871500D01*
X171565688Y-81871500D01*
X171914314Y-81871500D01*
X171914316Y-81871500D01*
X171963173Y-81865068D01*
X172070404Y-81815065D01*
X172154065Y-81731404D01*
X172204068Y-81624173D01*
X172210500Y-81575316D01*
X172210500Y-81126684D01*
X172204068Y-81077827D01*
X172154065Y-80970596D01*
X172110295Y-80926826D01*
X172088621Y-80874500D01*
X172110295Y-80822174D01*
X172162621Y-80800500D01*
X173595878Y-80800500D01*
X173648204Y-80822174D01*
G37*
%TD.AperFunction*%
%TA.AperFunction,Conductor*%
G36*
X169038866Y-75573174D02*
G01*
X169060540Y-75625500D01*
X169038866Y-75677826D01*
X169016430Y-75693195D01*
X168932670Y-75730178D01*
X168859178Y-75803670D01*
X168817196Y-75898751D01*
X168814500Y-75921996D01*
X168814500Y-77160003D01*
X168817196Y-77183248D01*
X168817196Y-77183250D01*
X168817197Y-77183251D01*
X168859178Y-77278329D01*
X168932671Y-77351822D01*
X169027749Y-77393803D01*
X169050996Y-77396500D01*
X169251925Y-77396500D01*
X169304251Y-77418174D01*
X169325925Y-77470500D01*
X169304251Y-77522826D01*
X169296972Y-77529210D01*
X169296563Y-77529523D01*
X167748261Y-79077826D01*
X167695935Y-79099500D01*
X166302727Y-79099500D01*
X166197273Y-79099500D01*
X166146342Y-79113146D01*
X166095411Y-79126793D01*
X166095407Y-79126795D01*
X166004090Y-79179517D01*
X165553517Y-79630090D01*
X165500792Y-79721412D01*
X165500793Y-79721413D01*
X165473500Y-79823273D01*
X165473500Y-81929454D01*
X165451826Y-81981780D01*
X165420003Y-82013603D01*
X165367677Y-82035277D01*
X165315351Y-82013603D01*
X165253219Y-81951471D01*
X165133126Y-81890281D01*
X165133125Y-81890280D01*
X165033489Y-81874500D01*
X165033488Y-81874500D01*
X164466512Y-81874500D01*
X164466511Y-81874500D01*
X164366874Y-81890280D01*
X164366873Y-81890281D01*
X164246780Y-81951471D01*
X164151472Y-82046779D01*
X164127363Y-82094096D01*
X164084296Y-82130878D01*
X164061429Y-82134500D01*
X163433476Y-82134500D01*
X163381150Y-82112826D01*
X163367542Y-82094095D01*
X163348529Y-82056782D01*
X163348529Y-82056781D01*
X163253219Y-81961471D01*
X163133126Y-81900281D01*
X163133125Y-81900280D01*
X163033489Y-81884500D01*
X163033488Y-81884500D01*
X162466512Y-81884500D01*
X162466511Y-81884500D01*
X162366876Y-81900280D01*
X162366874Y-81900280D01*
X162366874Y-81900281D01*
X162322970Y-81922651D01*
X162266508Y-81927094D01*
X162223441Y-81890311D01*
X162217898Y-81837564D01*
X162250499Y-81715894D01*
X162250500Y-81715894D01*
X162250500Y-81584106D01*
X162250499Y-81584105D01*
X162248143Y-81575314D01*
X162216392Y-81456814D01*
X162150500Y-81342686D01*
X162072174Y-81264360D01*
X162050500Y-81212034D01*
X162050500Y-79206123D01*
X162072174Y-79153797D01*
X164152797Y-77073174D01*
X164205123Y-77051500D01*
X164669746Y-77051500D01*
X164669748Y-77051500D01*
X164728231Y-77039867D01*
X164794552Y-76995552D01*
X164838867Y-76929231D01*
X164850500Y-76870748D01*
X164850500Y-76453123D01*
X164872174Y-76400797D01*
X164924500Y-76379123D01*
X164976826Y-76400797D01*
X165001540Y-76425511D01*
X165057489Y-76481460D01*
X165126011Y-76521021D01*
X165126012Y-76521021D01*
X165126014Y-76521022D01*
X165164224Y-76531260D01*
X165202435Y-76541499D01*
X165202436Y-76541500D01*
X165202438Y-76541500D01*
X167246474Y-76541500D01*
X167298800Y-76563174D01*
X167304506Y-76569975D01*
X167305935Y-76571404D01*
X167389596Y-76655065D01*
X167451504Y-76683933D01*
X167489767Y-76725691D01*
X167487297Y-76782274D01*
X167451504Y-76818066D01*
X167436419Y-76825101D01*
X167389595Y-76846935D01*
X167305935Y-76930595D01*
X167255931Y-77037828D01*
X167249500Y-77086685D01*
X167249500Y-77126500D01*
X167227826Y-77178826D01*
X167175500Y-77200500D01*
X166935059Y-77200500D01*
X166882733Y-77178826D01*
X166862481Y-77140938D01*
X166859585Y-77126380D01*
X166858867Y-77122769D01*
X166858866Y-77122767D01*
X166858866Y-77122766D01*
X166822973Y-77069051D01*
X166814552Y-77056448D01*
X166786684Y-77037827D01*
X166748232Y-77012133D01*
X166748233Y-77012133D01*
X166718989Y-77006316D01*
X166689748Y-77000500D01*
X165850252Y-77000500D01*
X165821010Y-77006316D01*
X165791767Y-77012133D01*
X165725449Y-77056447D01*
X165725447Y-77056449D01*
X165681133Y-77122767D01*
X165677802Y-77139516D01*
X165670241Y-77177530D01*
X165669500Y-77181253D01*
X165669500Y-77820746D01*
X165681133Y-77879232D01*
X165694008Y-77898500D01*
X165725448Y-77945552D01*
X165769560Y-77975027D01*
X165791767Y-77989866D01*
X165791768Y-77989866D01*
X165791769Y-77989867D01*
X165850252Y-78001500D01*
X165850254Y-78001500D01*
X166689746Y-78001500D01*
X166689748Y-78001500D01*
X166748231Y-77989867D01*
X166814552Y-77945552D01*
X166858867Y-77879231D01*
X166862481Y-77861061D01*
X166893948Y-77813971D01*
X166935059Y-77801500D01*
X167569564Y-77801500D01*
X167569564Y-77801499D01*
X167645989Y-77781021D01*
X167714511Y-77741460D01*
X167714511Y-77741459D01*
X167714590Y-77741414D01*
X167751590Y-77731500D01*
X167994314Y-77731500D01*
X167994316Y-77731500D01*
X168043173Y-77725068D01*
X168150404Y-77675065D01*
X168234065Y-77591404D01*
X168284068Y-77484173D01*
X168290500Y-77435316D01*
X168290500Y-77086684D01*
X168284068Y-77037827D01*
X168234065Y-76930596D01*
X168150404Y-76846935D01*
X168150402Y-76846933D01*
X168103581Y-76825101D01*
X168088495Y-76818066D01*
X168050232Y-76776310D01*
X168052702Y-76719727D01*
X168088495Y-76683933D01*
X168150404Y-76655065D01*
X168234065Y-76571404D01*
X168284068Y-76464173D01*
X168290500Y-76415316D01*
X168290500Y-76066684D01*
X168284068Y-76017827D01*
X168234065Y-75910596D01*
X168187045Y-75863576D01*
X168165371Y-75811250D01*
X168187044Y-75758926D01*
X168372797Y-75573174D01*
X168425123Y-75551500D01*
X168986540Y-75551500D01*
X169038866Y-75573174D01*
G37*
%TD.AperFunction*%
%TA.AperFunction,Conductor*%
G36*
X155335789Y-65264326D02*
G01*
X155351115Y-65276086D01*
X160139489Y-70064460D01*
X160208012Y-70104022D01*
X160284438Y-70124500D01*
X160363562Y-70124500D01*
X162851777Y-70124500D01*
X162904103Y-70146174D01*
X164293440Y-71535511D01*
X164349389Y-71591460D01*
X164417911Y-71631021D01*
X164417912Y-71631021D01*
X164417914Y-71631022D01*
X164456124Y-71641260D01*
X164494335Y-71651499D01*
X164494336Y-71651500D01*
X164494338Y-71651500D01*
X164573462Y-71651500D01*
X165604941Y-71651500D01*
X165657267Y-71673174D01*
X165677519Y-71711062D01*
X165681133Y-71729233D01*
X165706922Y-71767827D01*
X165725448Y-71795552D01*
X165769560Y-71825027D01*
X165791767Y-71839866D01*
X165791768Y-71839866D01*
X165791769Y-71839867D01*
X165850252Y-71851500D01*
X166315877Y-71851500D01*
X166368203Y-71873174D01*
X166389877Y-71925500D01*
X166368203Y-71977826D01*
X166029540Y-72316488D01*
X165989979Y-72385009D01*
X165989977Y-72385014D01*
X165969500Y-72461435D01*
X165969500Y-72676500D01*
X165947826Y-72728826D01*
X165895500Y-72750500D01*
X165850252Y-72750500D01*
X165821010Y-72756316D01*
X165791767Y-72762133D01*
X165725449Y-72806447D01*
X165725447Y-72806449D01*
X165681133Y-72872767D01*
X165673377Y-72911757D01*
X165669500Y-72931252D01*
X165669500Y-73570748D01*
X165677255Y-73609736D01*
X165681133Y-73629232D01*
X165710608Y-73673343D01*
X165725448Y-73695552D01*
X165769560Y-73725027D01*
X165791767Y-73739866D01*
X165791768Y-73739866D01*
X165791769Y-73739867D01*
X165850252Y-73751500D01*
X165850254Y-73751500D01*
X166689746Y-73751500D01*
X166689748Y-73751500D01*
X166748231Y-73739867D01*
X166814552Y-73695552D01*
X166858867Y-73629231D01*
X166870500Y-73570748D01*
X166870500Y-72931252D01*
X166858867Y-72872769D01*
X166814552Y-72806448D01*
X166760813Y-72770540D01*
X166748232Y-72762133D01*
X166748233Y-72762133D01*
X166718989Y-72756316D01*
X166689748Y-72750500D01*
X166689746Y-72750500D01*
X166644500Y-72750500D01*
X166592174Y-72728826D01*
X166570500Y-72676500D01*
X166570500Y-72656123D01*
X166592174Y-72603797D01*
X166882797Y-72313174D01*
X166935123Y-72291500D01*
X167246474Y-72291500D01*
X167298800Y-72313174D01*
X167304506Y-72319975D01*
X167305935Y-72321404D01*
X167389596Y-72405065D01*
X167451504Y-72433933D01*
X167489767Y-72475691D01*
X167487297Y-72532274D01*
X167451504Y-72568066D01*
X167444671Y-72571253D01*
X167389595Y-72596935D01*
X167305935Y-72680595D01*
X167255931Y-72787828D01*
X167249500Y-72836685D01*
X167249500Y-73185314D01*
X167255931Y-73234171D01*
X167305935Y-73341404D01*
X167352953Y-73388422D01*
X167374627Y-73440748D01*
X167352953Y-73493074D01*
X166085489Y-74760540D01*
X166029540Y-74816488D01*
X165989979Y-74885009D01*
X165989977Y-74885014D01*
X165969500Y-74961435D01*
X165969500Y-75026500D01*
X165947826Y-75078826D01*
X165895500Y-75100500D01*
X165850252Y-75100500D01*
X165821010Y-75106316D01*
X165791767Y-75112133D01*
X165725449Y-75156447D01*
X165725447Y-75156449D01*
X165681133Y-75222767D01*
X165669500Y-75281253D01*
X165669500Y-75866500D01*
X165647826Y-75918826D01*
X165595500Y-75940500D01*
X165397123Y-75940500D01*
X165344797Y-75918826D01*
X164572174Y-75146203D01*
X164550500Y-75093877D01*
X164550500Y-72875500D01*
X164572174Y-72823174D01*
X164624500Y-72801500D01*
X164669746Y-72801500D01*
X164669748Y-72801500D01*
X164728231Y-72789867D01*
X164794552Y-72745552D01*
X164838867Y-72679231D01*
X164850500Y-72620748D01*
X164850500Y-71981252D01*
X164838867Y-71922769D01*
X164835342Y-71917494D01*
X164818136Y-71891743D01*
X164794552Y-71856448D01*
X164769736Y-71839866D01*
X164728232Y-71812133D01*
X164728233Y-71812133D01*
X164698989Y-71806316D01*
X164669748Y-71800500D01*
X163830252Y-71800500D01*
X163801010Y-71806316D01*
X163771767Y-71812133D01*
X163705449Y-71856447D01*
X163705447Y-71856449D01*
X163661133Y-71922767D01*
X163653533Y-71960977D01*
X163649500Y-71981252D01*
X163649500Y-72620748D01*
X163654319Y-72644975D01*
X163661133Y-72679232D01*
X163690608Y-72723343D01*
X163705448Y-72745552D01*
X163729256Y-72761460D01*
X163771767Y-72789866D01*
X163771768Y-72789866D01*
X163771769Y-72789867D01*
X163830252Y-72801500D01*
X163875500Y-72801500D01*
X163927826Y-72823174D01*
X163949500Y-72875500D01*
X163949500Y-75288564D01*
X163969976Y-75364981D01*
X163969978Y-75364988D01*
X163971137Y-75366994D01*
X163971138Y-75366996D01*
X164009540Y-75433511D01*
X164500203Y-75924174D01*
X164521877Y-75976500D01*
X164500203Y-76028826D01*
X164447877Y-76050500D01*
X163830252Y-76050500D01*
X163801010Y-76056316D01*
X163771767Y-76062133D01*
X163705449Y-76106447D01*
X163705447Y-76106449D01*
X163661133Y-76172767D01*
X163649500Y-76231253D01*
X163649500Y-76695877D01*
X163627826Y-76748203D01*
X161509540Y-78866488D01*
X161469979Y-78935009D01*
X161469977Y-78935014D01*
X161449500Y-79011435D01*
X161449500Y-81212034D01*
X161427826Y-81264360D01*
X161349500Y-81342685D01*
X161283610Y-81456809D01*
X161283606Y-81456818D01*
X161249500Y-81584105D01*
X161249500Y-81715894D01*
X161278998Y-81825982D01*
X161271606Y-81882135D01*
X161226673Y-81916613D01*
X161173927Y-81911070D01*
X161133126Y-81890281D01*
X161133124Y-81890280D01*
X161133123Y-81890280D01*
X161033489Y-81874500D01*
X161033488Y-81874500D01*
X160696544Y-81874500D01*
X160644218Y-81852826D01*
X160172174Y-81380781D01*
X160150500Y-81328455D01*
X160150500Y-79171692D01*
X160170209Y-79124109D01*
X160169510Y-79123620D01*
X160171718Y-79120466D01*
X160172174Y-79119366D01*
X160173224Y-79118316D01*
X160223972Y-79009487D01*
X160230500Y-78959901D01*
X160230499Y-78540100D01*
X160223972Y-78490513D01*
X160173224Y-78381684D01*
X160172174Y-78380634D01*
X160171718Y-78379533D01*
X160169510Y-78376380D01*
X160170209Y-78375890D01*
X160150500Y-78328308D01*
X160150500Y-77921692D01*
X160170209Y-77874109D01*
X160169510Y-77873620D01*
X160171718Y-77870466D01*
X160172174Y-77869366D01*
X160173224Y-77868316D01*
X160223972Y-77759487D01*
X160230500Y-77709901D01*
X160230499Y-77290100D01*
X160223972Y-77240513D01*
X160198774Y-77186476D01*
X160196304Y-77129893D01*
X160213513Y-77102878D01*
X160732980Y-76583413D01*
X160747459Y-76558335D01*
X160785707Y-76492087D01*
X160788555Y-76481460D01*
X160806278Y-76415314D01*
X160812999Y-76390229D01*
X160813000Y-76390229D01*
X160813000Y-75074000D01*
X160834674Y-75021674D01*
X160887000Y-75000000D01*
X161250000Y-75000000D01*
X161250000Y-71500000D01*
X160397607Y-71500000D01*
X160345281Y-71478326D01*
X160323607Y-71426000D01*
X160326129Y-71406847D01*
X160329973Y-71392498D01*
X160350499Y-71315894D01*
X160350500Y-71315894D01*
X160350500Y-71184106D01*
X160350499Y-71184105D01*
X160338979Y-71141113D01*
X160316392Y-71056814D01*
X160250500Y-70942686D01*
X160157314Y-70849500D01*
X160083380Y-70806814D01*
X160043190Y-70783610D01*
X160043181Y-70783606D01*
X159915894Y-70749500D01*
X159915892Y-70749500D01*
X159784108Y-70749500D01*
X159784106Y-70749500D01*
X159656818Y-70783606D01*
X159652817Y-70785264D01*
X159596179Y-70785262D01*
X159556132Y-70745213D01*
X159550500Y-70716896D01*
X159550500Y-70594455D01*
X159550499Y-70594454D01*
X159530022Y-70518033D01*
X159530020Y-70518028D01*
X159490459Y-70449507D01*
X159487166Y-70446214D01*
X159465492Y-70393888D01*
X159465492Y-70283117D01*
X159465491Y-70283116D01*
X159451306Y-70230178D01*
X159431384Y-70155825D01*
X159365492Y-70041697D01*
X159272306Y-69948511D01*
X159173491Y-69891460D01*
X159158182Y-69882621D01*
X159158173Y-69882617D01*
X159030886Y-69848511D01*
X159030884Y-69848511D01*
X158899100Y-69848511D01*
X158899098Y-69848511D01*
X158771810Y-69882617D01*
X158771801Y-69882621D01*
X158657677Y-69948511D01*
X158564492Y-70041696D01*
X158498602Y-70155820D01*
X158498598Y-70155829D01*
X158464492Y-70283116D01*
X158464492Y-70414903D01*
X158465125Y-70419712D01*
X158463778Y-70419889D01*
X158457056Y-70470916D01*
X158412127Y-70505388D01*
X158306818Y-70533606D01*
X158306809Y-70533610D01*
X158192685Y-70599500D01*
X158099500Y-70692685D01*
X158033610Y-70806809D01*
X158033606Y-70806818D01*
X157999500Y-70934105D01*
X157999500Y-71065894D01*
X158033606Y-71193181D01*
X158033610Y-71193190D01*
X158099500Y-71307314D01*
X158165860Y-71373674D01*
X158187534Y-71426000D01*
X158165860Y-71478326D01*
X158113534Y-71500000D01*
X157250000Y-71500000D01*
X157250000Y-72125500D01*
X157228326Y-72177826D01*
X157176000Y-72199500D01*
X156460436Y-72199500D01*
X156384014Y-72219977D01*
X156384009Y-72219979D01*
X156347638Y-72240979D01*
X156315488Y-72259540D01*
X155601115Y-72973913D01*
X155548789Y-72995587D01*
X155496463Y-72973913D01*
X155474789Y-72921587D01*
X155477311Y-72902434D01*
X155485260Y-72872769D01*
X155500499Y-72815894D01*
X155500500Y-72815894D01*
X155500500Y-72684106D01*
X155500499Y-72684105D01*
X155499941Y-72682024D01*
X155466392Y-72556814D01*
X155400500Y-72442686D01*
X155307314Y-72349500D01*
X155271611Y-72328887D01*
X155193190Y-72283610D01*
X155193181Y-72283606D01*
X155065894Y-72249500D01*
X155065892Y-72249500D01*
X154934108Y-72249500D01*
X154934106Y-72249500D01*
X154806818Y-72283606D01*
X154806809Y-72283610D01*
X154692685Y-72349500D01*
X154599499Y-72442686D01*
X154578599Y-72478885D01*
X154533665Y-72513363D01*
X154477513Y-72505969D01*
X154452969Y-72482972D01*
X154448883Y-72476852D01*
X154448867Y-72476769D01*
X154404978Y-72411086D01*
X154399497Y-72383471D01*
X154393946Y-72355565D01*
X154393954Y-72355545D01*
X154393952Y-72355534D01*
X154393969Y-72355507D01*
X154404996Y-72328887D01*
X154413281Y-72316489D01*
X154448867Y-72263231D01*
X154460500Y-72204748D01*
X154460500Y-72109500D01*
X154482174Y-72057174D01*
X154534500Y-72035500D01*
X154804564Y-72035500D01*
X154804564Y-72035499D01*
X154880989Y-72015021D01*
X154889576Y-72010062D01*
X154929257Y-72002170D01*
X154929257Y-72000500D01*
X155065894Y-72000500D01*
X155065894Y-72000499D01*
X155193186Y-71966392D01*
X155307314Y-71900500D01*
X155400500Y-71807314D01*
X155466392Y-71693186D01*
X155500499Y-71565894D01*
X155500500Y-71565894D01*
X155500500Y-71434106D01*
X155500499Y-71434105D01*
X155498949Y-71428322D01*
X155466392Y-71306814D01*
X155400500Y-71192686D01*
X155307314Y-71099500D01*
X155249107Y-71065894D01*
X155193190Y-71033610D01*
X155193181Y-71033606D01*
X155065894Y-70999500D01*
X155065892Y-70999500D01*
X154934108Y-70999500D01*
X154934106Y-70999500D01*
X154806818Y-71033606D01*
X154806809Y-71033610D01*
X154692685Y-71099500D01*
X154599501Y-71192684D01*
X154583424Y-71220531D01*
X154538490Y-71255009D01*
X154482337Y-71247616D01*
X154456792Y-71223077D01*
X154449962Y-71212275D01*
X154448867Y-71206769D01*
X154404552Y-71140448D01*
X154404544Y-71140443D01*
X154403978Y-71139547D01*
X154399301Y-71112487D01*
X154393946Y-71085565D01*
X154394441Y-71084367D01*
X154394333Y-71083737D01*
X154395229Y-71082465D01*
X154404996Y-71058887D01*
X154406379Y-71056818D01*
X154448867Y-70993231D01*
X154460500Y-70934748D01*
X154460500Y-70839500D01*
X154482174Y-70787174D01*
X154534500Y-70765500D01*
X154824564Y-70765500D01*
X154824564Y-70765499D01*
X154880542Y-70750500D01*
X154888171Y-70748456D01*
X154926475Y-70748455D01*
X154934108Y-70750500D01*
X155065894Y-70750500D01*
X155065894Y-70750499D01*
X155193186Y-70716392D01*
X155307314Y-70650500D01*
X155400500Y-70557314D01*
X155466392Y-70443186D01*
X155500499Y-70315894D01*
X155500500Y-70315894D01*
X155500500Y-70184106D01*
X155500499Y-70184105D01*
X155495065Y-70163826D01*
X155466392Y-70056814D01*
X155400500Y-69942686D01*
X155307314Y-69849500D01*
X155292599Y-69841004D01*
X155193190Y-69783610D01*
X155193181Y-69783606D01*
X155065894Y-69749500D01*
X155065892Y-69749500D01*
X154934108Y-69749500D01*
X154934106Y-69749500D01*
X154806818Y-69783606D01*
X154806809Y-69783610D01*
X154692685Y-69849500D01*
X154599500Y-69942685D01*
X154586646Y-69964948D01*
X154541711Y-69999425D01*
X154485559Y-69992031D01*
X154458330Y-69964694D01*
X154452338Y-69954221D01*
X154448867Y-69936769D01*
X154404552Y-69870448D01*
X154404321Y-69870294D01*
X154402293Y-69866748D01*
X154399006Y-69841004D01*
X154393946Y-69815565D01*
X154395331Y-69812219D01*
X154395121Y-69810567D01*
X154397047Y-69808076D01*
X154404996Y-69788887D01*
X154408524Y-69783608D01*
X154448867Y-69723231D01*
X154460500Y-69664748D01*
X154460500Y-69569500D01*
X154482174Y-69517174D01*
X154534500Y-69495500D01*
X154844563Y-69495500D01*
X154849852Y-69494082D01*
X154860848Y-69491135D01*
X154899156Y-69491135D01*
X154919726Y-69496646D01*
X154934105Y-69500499D01*
X154934106Y-69500500D01*
X154934108Y-69500500D01*
X155065894Y-69500500D01*
X155065894Y-69500499D01*
X155193186Y-69466392D01*
X155307314Y-69400500D01*
X155400500Y-69307314D01*
X155466392Y-69193186D01*
X155500499Y-69065894D01*
X155500500Y-69065894D01*
X155500500Y-68934106D01*
X155500499Y-68934105D01*
X155495295Y-68914685D01*
X155466392Y-68806814D01*
X155400500Y-68692686D01*
X155307314Y-68599500D01*
X155261716Y-68573174D01*
X155193190Y-68533610D01*
X155193181Y-68533606D01*
X155065894Y-68499500D01*
X155065892Y-68499500D01*
X154934108Y-68499500D01*
X154934106Y-68499500D01*
X154806818Y-68533606D01*
X154806809Y-68533610D01*
X154692685Y-68599500D01*
X154599499Y-68692687D01*
X154589605Y-68709823D01*
X154544671Y-68744301D01*
X154488519Y-68736907D01*
X154459944Y-68707112D01*
X154455017Y-68697691D01*
X154448867Y-68666769D01*
X154404552Y-68600448D01*
X154403961Y-68600053D01*
X154400948Y-68594290D01*
X154398754Y-68569736D01*
X154393946Y-68545565D01*
X154396124Y-68540304D01*
X154395908Y-68537878D01*
X154398329Y-68534980D01*
X154404996Y-68518887D01*
X154406063Y-68517291D01*
X154448867Y-68453231D01*
X154460500Y-68394748D01*
X154460500Y-68299500D01*
X154482174Y-68247174D01*
X154534500Y-68225500D01*
X154785438Y-68225500D01*
X154831063Y-68225500D01*
X154850213Y-68228020D01*
X154934108Y-68250500D01*
X154934109Y-68250500D01*
X155065894Y-68250500D01*
X155065894Y-68250499D01*
X155193186Y-68216392D01*
X155307314Y-68150500D01*
X155400500Y-68057314D01*
X155466392Y-67943186D01*
X155500499Y-67815894D01*
X155500500Y-67815894D01*
X155500500Y-67684106D01*
X155500499Y-67684105D01*
X155494800Y-67662837D01*
X155466392Y-67556814D01*
X155400500Y-67442686D01*
X155307314Y-67349500D01*
X155228435Y-67303959D01*
X155193190Y-67283610D01*
X155193181Y-67283606D01*
X155065894Y-67249500D01*
X155065892Y-67249500D01*
X154934108Y-67249500D01*
X154934106Y-67249500D01*
X154806818Y-67283606D01*
X154806809Y-67283610D01*
X154692685Y-67349500D01*
X154599500Y-67442685D01*
X154592564Y-67454699D01*
X154547630Y-67489176D01*
X154491477Y-67481782D01*
X154461901Y-67449999D01*
X154457755Y-67441454D01*
X154448867Y-67396769D01*
X154404552Y-67330448D01*
X154403584Y-67329801D01*
X154399946Y-67322302D01*
X154398553Y-67298725D01*
X154393946Y-67275565D01*
X154396780Y-67268721D01*
X154396606Y-67265763D01*
X154399228Y-67262810D01*
X154404996Y-67248887D01*
X154405582Y-67248011D01*
X154448867Y-67183231D01*
X154460500Y-67124748D01*
X154460500Y-67029500D01*
X154482174Y-66977174D01*
X154534500Y-66955500D01*
X154768120Y-66955500D01*
X154802281Y-66964654D01*
X154802331Y-66964535D01*
X154803236Y-66964909D01*
X154805121Y-66965415D01*
X154806810Y-66966390D01*
X154806811Y-66966390D01*
X154806814Y-66966392D01*
X154934108Y-67000500D01*
X154934109Y-67000500D01*
X155065894Y-67000500D01*
X155065894Y-67000499D01*
X155193186Y-66966392D01*
X155307314Y-66900500D01*
X155400500Y-66807314D01*
X155466392Y-66693186D01*
X155500499Y-66565894D01*
X155500500Y-66565894D01*
X155500500Y-66434106D01*
X155500499Y-66434105D01*
X155490927Y-66398383D01*
X155466392Y-66306814D01*
X155400500Y-66192686D01*
X155307314Y-66099500D01*
X155301375Y-66096071D01*
X155193190Y-66033610D01*
X155193181Y-66033606D01*
X155104852Y-66009938D01*
X155059919Y-65975459D01*
X155052527Y-65919307D01*
X155071677Y-65886136D01*
X155150500Y-65807314D01*
X155216392Y-65693186D01*
X155250499Y-65565894D01*
X155250500Y-65565894D01*
X155250500Y-65434106D01*
X155250499Y-65434105D01*
X155234324Y-65373740D01*
X155227311Y-65347564D01*
X155234703Y-65291412D01*
X155279636Y-65256934D01*
X155335789Y-65264326D01*
G37*
%TD.AperFunction*%
%TA.AperFunction,Conductor*%
G36*
X158358246Y-75021674D02*
G01*
X158379920Y-75074000D01*
X158377399Y-75093152D01*
X158376793Y-75095412D01*
X158376793Y-75095413D01*
X158368510Y-75126326D01*
X158349500Y-75197273D01*
X158349500Y-76303455D01*
X158327826Y-76355781D01*
X157909516Y-76774091D01*
X157909516Y-76774092D01*
X157877261Y-76829957D01*
X157851387Y-76849810D01*
X157852731Y-76880568D01*
X157843987Y-76913207D01*
X157830599Y-76963174D01*
X157829500Y-76967274D01*
X157829500Y-77078308D01*
X157809790Y-77125890D01*
X157810490Y-77126380D01*
X157808281Y-77129533D01*
X157807826Y-77130634D01*
X157806776Y-77131683D01*
X157756027Y-77240514D01*
X157749500Y-77290100D01*
X157749500Y-77709899D01*
X157756027Y-77759485D01*
X157756028Y-77759487D01*
X157806776Y-77868316D01*
X157807826Y-77869366D01*
X157808281Y-77870466D01*
X157810490Y-77873620D01*
X157809790Y-77874109D01*
X157829500Y-77921692D01*
X157829500Y-79025500D01*
X157807826Y-79077826D01*
X157755500Y-79099500D01*
X157184621Y-79099500D01*
X157132295Y-79077826D01*
X157090404Y-79035935D01*
X157012269Y-78999500D01*
X156983173Y-78985932D01*
X156983171Y-78985931D01*
X156947178Y-78981193D01*
X156934316Y-78979500D01*
X156585684Y-78979500D01*
X156574318Y-78980996D01*
X156536828Y-78985931D01*
X156429595Y-79035935D01*
X156345935Y-79119595D01*
X156342579Y-79126793D01*
X156317994Y-79179517D01*
X156317067Y-79181504D01*
X156275309Y-79219767D01*
X156218726Y-79217297D01*
X156182933Y-79181504D01*
X156182008Y-79179520D01*
X156154065Y-79119596D01*
X156070404Y-79035935D01*
X155963173Y-78985932D01*
X155963171Y-78985931D01*
X155927178Y-78981193D01*
X155914316Y-78979500D01*
X155565684Y-78979500D01*
X155554318Y-78980996D01*
X155516828Y-78985931D01*
X155409595Y-79035935D01*
X155361030Y-79084501D01*
X155308704Y-79106175D01*
X155271704Y-79096261D01*
X155163190Y-79033610D01*
X155163181Y-79033606D01*
X155035894Y-78999500D01*
X155035892Y-78999500D01*
X154904108Y-78999500D01*
X154904106Y-78999500D01*
X154776818Y-79033606D01*
X154776809Y-79033610D01*
X154757799Y-79044586D01*
X154720799Y-79054500D01*
X154534500Y-79054500D01*
X154482174Y-79032826D01*
X154460500Y-78980500D01*
X154460500Y-78885253D01*
X154460500Y-78885252D01*
X154448867Y-78826769D01*
X154404995Y-78761112D01*
X154393946Y-78705565D01*
X154404996Y-78678887D01*
X154406599Y-78676489D01*
X154448867Y-78613231D01*
X154460500Y-78554748D01*
X154460500Y-78459500D01*
X154482174Y-78407174D01*
X154534500Y-78385500D01*
X154703564Y-78385500D01*
X154703564Y-78385499D01*
X154779989Y-78365021D01*
X154848511Y-78325460D01*
X154904460Y-78269511D01*
X154996589Y-78177380D01*
X155048915Y-78155707D01*
X155159687Y-78155707D01*
X155159687Y-78155706D01*
X155286979Y-78121599D01*
X155401107Y-78055707D01*
X155494293Y-77962521D01*
X155560185Y-77848393D01*
X155594292Y-77721101D01*
X155594293Y-77721101D01*
X155594293Y-77589313D01*
X155594292Y-77589312D01*
X155585585Y-77556818D01*
X155560185Y-77462021D01*
X155494293Y-77347893D01*
X155401107Y-77254707D01*
X155376519Y-77240511D01*
X155286983Y-77188817D01*
X155286974Y-77188813D01*
X155159687Y-77154707D01*
X155159685Y-77154707D01*
X155027901Y-77154707D01*
X154942723Y-77177530D01*
X154886571Y-77170137D01*
X154852092Y-77125203D01*
X154859485Y-77069051D01*
X154871241Y-77053729D01*
X154902797Y-77022173D01*
X154955122Y-77000500D01*
X155065894Y-77000500D01*
X155065894Y-77000499D01*
X155193186Y-76966392D01*
X155307314Y-76900500D01*
X155400500Y-76807314D01*
X155466392Y-76693186D01*
X155500499Y-76565894D01*
X155500500Y-76565894D01*
X155500500Y-76434106D01*
X155500499Y-76434105D01*
X155479512Y-76355781D01*
X155477311Y-76347564D01*
X155484703Y-76291412D01*
X155529636Y-76256934D01*
X155585789Y-76264326D01*
X155601115Y-76276086D01*
X156019540Y-76694511D01*
X156075489Y-76750460D01*
X156144011Y-76790021D01*
X156144012Y-76790021D01*
X156144014Y-76790022D01*
X156178218Y-76799187D01*
X156220435Y-76810499D01*
X156220436Y-76810500D01*
X156220438Y-76810500D01*
X156299562Y-76810500D01*
X156735379Y-76810500D01*
X156787705Y-76832174D01*
X156869596Y-76914065D01*
X156976827Y-76964068D01*
X157025684Y-76970500D01*
X157025686Y-76970500D01*
X157474314Y-76970500D01*
X157474316Y-76970500D01*
X157523173Y-76964068D01*
X157630404Y-76914065D01*
X157714065Y-76830404D01*
X157714184Y-76830147D01*
X157714351Y-76829994D01*
X157717778Y-76825101D01*
X157718862Y-76825860D01*
X157730650Y-76815057D01*
X157742827Y-76799187D01*
X157746109Y-76761684D01*
X157764068Y-76723173D01*
X157770500Y-76674316D01*
X157770500Y-76325684D01*
X157764068Y-76276827D01*
X157714065Y-76169596D01*
X157630404Y-76085935D01*
X157630402Y-76085933D01*
X157579361Y-76062133D01*
X157568495Y-76057066D01*
X157530232Y-76015310D01*
X157532702Y-75958727D01*
X157568495Y-75922933D01*
X157630404Y-75894065D01*
X157714065Y-75810404D01*
X157764068Y-75703173D01*
X157770500Y-75654316D01*
X157770500Y-75305684D01*
X157764068Y-75256827D01*
X157714065Y-75149596D01*
X157690795Y-75126326D01*
X157669121Y-75074000D01*
X157690795Y-75021674D01*
X157743121Y-75000000D01*
X158305920Y-75000000D01*
X158358246Y-75021674D01*
G37*
%TD.AperFunction*%
%TA.AperFunction,Conductor*%
G36*
X186106781Y-66673174D02*
G01*
X186348826Y-66915219D01*
X186370500Y-66967545D01*
X186370500Y-70699678D01*
X186348826Y-70752004D01*
X186296500Y-70773678D01*
X186244174Y-70752004D01*
X186172665Y-70680495D01*
X186052836Y-70611312D01*
X186052831Y-70611310D01*
X185919185Y-70575500D01*
X185919183Y-70575500D01*
X185780817Y-70575500D01*
X185780815Y-70575500D01*
X185647168Y-70611310D01*
X185647163Y-70611312D01*
X185527334Y-70680495D01*
X185429495Y-70778334D01*
X185360312Y-70898163D01*
X185360310Y-70898168D01*
X185328954Y-71015191D01*
X185294476Y-71060124D01*
X185238323Y-71067516D01*
X185216363Y-71057566D01*
X185208232Y-71052133D01*
X185208233Y-71052133D01*
X185178989Y-71046316D01*
X185149748Y-71040500D01*
X183660252Y-71040500D01*
X183631010Y-71046316D01*
X183601767Y-71052133D01*
X183535449Y-71096447D01*
X183535447Y-71096449D01*
X183491133Y-71162767D01*
X183485182Y-71192685D01*
X183479644Y-71220531D01*
X183479500Y-71221253D01*
X183479500Y-71864383D01*
X183477789Y-71864383D01*
X183462923Y-71913432D01*
X183412979Y-71940142D01*
X183405709Y-71940500D01*
X183320436Y-71940500D01*
X183244014Y-71960977D01*
X183244009Y-71960979D01*
X183209701Y-71980788D01*
X183175488Y-72000540D01*
X182977203Y-72198826D01*
X182924877Y-72220500D01*
X181023526Y-72220500D01*
X180971200Y-72198826D01*
X180965493Y-72192024D01*
X180880404Y-72106935D01*
X180773173Y-72056932D01*
X180773171Y-72056931D01*
X180737178Y-72052193D01*
X180724316Y-72050500D01*
X180275684Y-72050500D01*
X180264318Y-72051996D01*
X180226828Y-72056931D01*
X180119595Y-72106935D01*
X180035935Y-72190595D01*
X179985931Y-72297828D01*
X179979500Y-72346685D01*
X179979500Y-72695314D01*
X179985931Y-72744171D01*
X180014972Y-72806449D01*
X180035935Y-72851404D01*
X180119596Y-72935065D01*
X180226827Y-72985068D01*
X180275684Y-72991500D01*
X180275686Y-72991500D01*
X180724314Y-72991500D01*
X180724316Y-72991500D01*
X180773173Y-72985068D01*
X180880404Y-72935065D01*
X180964065Y-72851404D01*
X180964065Y-72851403D01*
X180968643Y-72846826D01*
X180970217Y-72848400D01*
X181010674Y-72822625D01*
X181023526Y-72821500D01*
X183119564Y-72821500D01*
X183119564Y-72821499D01*
X183195989Y-72801021D01*
X183264511Y-72761460D01*
X183320460Y-72705511D01*
X183353174Y-72672797D01*
X183405500Y-72651123D01*
X183457826Y-72672797D01*
X183479500Y-72725123D01*
X183479500Y-72866500D01*
X183457826Y-72918826D01*
X183405500Y-72940500D01*
X183320436Y-72940500D01*
X183244014Y-72960977D01*
X183244009Y-72960979D01*
X183194611Y-72989500D01*
X183175488Y-73000540D01*
X182648203Y-73527826D01*
X182595877Y-73549500D01*
X176533104Y-73549500D01*
X176480778Y-73527826D01*
X176459104Y-73475500D01*
X176464737Y-73447181D01*
X176466390Y-73443189D01*
X176466389Y-73443189D01*
X176466392Y-73443186D01*
X176500500Y-73315892D01*
X176500500Y-73184108D01*
X176500500Y-73184106D01*
X176500499Y-73184105D01*
X176466393Y-73056818D01*
X176466392Y-73056814D01*
X176400500Y-72942686D01*
X176307314Y-72849500D01*
X176285116Y-72836684D01*
X176193187Y-72783608D01*
X176193182Y-72783606D01*
X176085044Y-72754630D01*
X176051871Y-72735478D01*
X175338539Y-72022146D01*
X175316865Y-71969820D01*
X175338539Y-71917494D01*
X175390865Y-71895820D01*
X175399395Y-71896314D01*
X175400996Y-71896500D01*
X175400999Y-71896500D01*
X175949004Y-71896500D01*
X175972251Y-71893803D01*
X176067329Y-71851822D01*
X176140822Y-71778329D01*
X176182803Y-71683251D01*
X176185500Y-71660004D01*
X176185500Y-70421996D01*
X176182803Y-70398749D01*
X176142021Y-70306388D01*
X176141663Y-70290855D01*
X176135717Y-70276500D01*
X176141034Y-70263661D01*
X176140714Y-70249768D01*
X176151444Y-70238529D01*
X176157391Y-70224174D01*
X176170229Y-70218855D01*
X176179827Y-70208805D01*
X176209717Y-70202500D01*
X176305876Y-70202500D01*
X176358202Y-70224174D01*
X176430629Y-70296601D01*
X176452303Y-70348927D01*
X176445998Y-70378817D01*
X176437196Y-70398751D01*
X176434500Y-70421996D01*
X176434500Y-71660003D01*
X176437196Y-71683248D01*
X176437196Y-71683250D01*
X176437197Y-71683251D01*
X176479178Y-71778329D01*
X176552671Y-71851822D01*
X176647749Y-71893803D01*
X176670996Y-71896500D01*
X177219004Y-71896500D01*
X177242251Y-71893803D01*
X177337329Y-71851822D01*
X177410822Y-71778329D01*
X177452803Y-71683251D01*
X177455500Y-71660004D01*
X177455500Y-70421996D01*
X177452803Y-70398749D01*
X177410822Y-70303671D01*
X177337329Y-70230178D01*
X177242251Y-70188197D01*
X177242250Y-70188196D01*
X177242248Y-70188196D01*
X177219004Y-70185500D01*
X177200122Y-70185500D01*
X177147796Y-70163826D01*
X176911796Y-69927826D01*
X176890122Y-69875500D01*
X176911796Y-69823174D01*
X176964122Y-69801500D01*
X178753720Y-69801500D01*
X178806046Y-69823174D01*
X178820201Y-69843000D01*
X178835049Y-69873373D01*
X178835051Y-69873375D01*
X178920125Y-69958449D01*
X179028214Y-70011291D01*
X179098285Y-70021500D01*
X179611714Y-70021499D01*
X179681780Y-70011292D01*
X179681781Y-70011291D01*
X179681786Y-70011291D01*
X179789875Y-69958449D01*
X179874949Y-69873375D01*
X179874949Y-69873374D01*
X179875174Y-69873150D01*
X179927500Y-69851476D01*
X179979826Y-69873150D01*
X179980051Y-69873375D01*
X180065125Y-69958449D01*
X180158002Y-70003854D01*
X180195490Y-70046306D01*
X180199500Y-70070334D01*
X180199500Y-70344877D01*
X180177826Y-70397203D01*
X178701203Y-71873826D01*
X178648877Y-71895500D01*
X178437966Y-71895500D01*
X178385640Y-71873826D01*
X178307314Y-71795500D01*
X178193190Y-71729610D01*
X178193181Y-71729606D01*
X178065894Y-71695500D01*
X178065892Y-71695500D01*
X177934108Y-71695500D01*
X177934106Y-71695500D01*
X177806818Y-71729606D01*
X177806809Y-71729610D01*
X177692685Y-71795500D01*
X177599500Y-71888685D01*
X177533610Y-72002809D01*
X177533606Y-72002818D01*
X177499500Y-72130105D01*
X177499500Y-72261894D01*
X177533606Y-72389181D01*
X177533610Y-72389190D01*
X177592390Y-72491000D01*
X177599500Y-72503314D01*
X177692686Y-72596500D01*
X177806814Y-72662392D01*
X177934105Y-72696499D01*
X177934106Y-72696500D01*
X177934108Y-72696500D01*
X178065894Y-72696500D01*
X178065894Y-72696499D01*
X178193186Y-72662392D01*
X178307314Y-72596500D01*
X178385640Y-72518174D01*
X178437966Y-72496500D01*
X178843564Y-72496500D01*
X178843564Y-72496499D01*
X178919989Y-72476021D01*
X178988511Y-72436460D01*
X179044460Y-72380511D01*
X180740460Y-70684511D01*
X180751134Y-70666023D01*
X180780021Y-70615989D01*
X180800499Y-70539564D01*
X180800500Y-70539564D01*
X180800500Y-70070334D01*
X180822174Y-70018008D01*
X180841995Y-70003855D01*
X180934875Y-69958449D01*
X181019949Y-69873375D01*
X181072791Y-69765286D01*
X181083000Y-69695215D01*
X181082999Y-69306786D01*
X181072791Y-69236714D01*
X181019949Y-69128625D01*
X180934875Y-69043551D01*
X180826786Y-68990709D01*
X180756715Y-68980500D01*
X180756714Y-68980500D01*
X180243285Y-68980500D01*
X180173219Y-68990707D01*
X180173215Y-68990708D01*
X180065124Y-69043551D01*
X179979826Y-69128850D01*
X179927500Y-69150524D01*
X179875174Y-69128850D01*
X179789875Y-69043551D01*
X179681786Y-68990709D01*
X179681772Y-68990707D01*
X179611715Y-68980500D01*
X179611714Y-68980500D01*
X179098285Y-68980500D01*
X179028219Y-68990707D01*
X179028215Y-68990708D01*
X178920124Y-69043551D01*
X178835050Y-69128626D01*
X178835049Y-69128626D01*
X178820201Y-69159000D01*
X178777748Y-69196490D01*
X178753720Y-69200500D01*
X176155123Y-69200500D01*
X176102797Y-69178826D01*
X175632174Y-68708203D01*
X175610500Y-68655877D01*
X175610500Y-68215123D01*
X175632174Y-68162797D01*
X175684500Y-68141123D01*
X175736826Y-68162797D01*
X175977826Y-68403797D01*
X175999500Y-68456123D01*
X175999500Y-68566894D01*
X176033606Y-68694181D01*
X176033610Y-68694190D01*
X176074532Y-68765068D01*
X176099500Y-68808314D01*
X176192686Y-68901500D01*
X176306814Y-68967392D01*
X176434105Y-69001499D01*
X176434106Y-69001500D01*
X176434108Y-69001500D01*
X176565894Y-69001500D01*
X176565894Y-69001499D01*
X176693186Y-68967392D01*
X176807314Y-68901500D01*
X176900500Y-68808314D01*
X176966392Y-68694186D01*
X177000500Y-68566892D01*
X177000500Y-68566889D01*
X177001750Y-68562224D01*
X177036229Y-68517290D01*
X177092381Y-68509897D01*
X177110230Y-68517291D01*
X177134007Y-68531019D01*
X177134009Y-68531019D01*
X177134011Y-68531021D01*
X177134012Y-68531021D01*
X177134014Y-68531022D01*
X177159601Y-68537878D01*
X177210435Y-68551499D01*
X177210436Y-68551500D01*
X177210438Y-68551500D01*
X177741532Y-68551500D01*
X177793858Y-68573174D01*
X177808599Y-68594227D01*
X177825933Y-68631402D01*
X177825935Y-68631404D01*
X177909596Y-68715065D01*
X178016827Y-68765068D01*
X178065684Y-68771500D01*
X178065686Y-68771500D01*
X178414314Y-68771500D01*
X178414316Y-68771500D01*
X178463173Y-68765068D01*
X178570404Y-68715065D01*
X178654065Y-68631404D01*
X178704068Y-68524173D01*
X178710500Y-68475316D01*
X178710500Y-68026684D01*
X178704068Y-67977827D01*
X178654065Y-67870596D01*
X178570404Y-67786935D01*
X178463173Y-67736932D01*
X178463171Y-67736931D01*
X178427178Y-67732193D01*
X178414316Y-67730500D01*
X178065684Y-67730500D01*
X178054318Y-67731996D01*
X178016828Y-67736931D01*
X177909595Y-67786935D01*
X177825933Y-67870597D01*
X177808599Y-67907773D01*
X177766842Y-67946037D01*
X177741532Y-67950500D01*
X177405123Y-67950500D01*
X177352797Y-67928826D01*
X177153575Y-67729604D01*
X177131901Y-67677278D01*
X177133324Y-67662837D01*
X177135500Y-67651901D01*
X177135499Y-66989120D01*
X177157173Y-66936795D01*
X177209499Y-66915121D01*
X177261823Y-66936794D01*
X177573040Y-67248011D01*
X177628989Y-67303960D01*
X177697511Y-67343521D01*
X177697512Y-67343521D01*
X177697514Y-67343522D01*
X177708871Y-67346565D01*
X177773935Y-67363999D01*
X177773936Y-67364000D01*
X177773938Y-67364000D01*
X179976064Y-67364000D01*
X179976064Y-67363999D01*
X180052489Y-67343521D01*
X180121011Y-67303960D01*
X180176960Y-67248011D01*
X180490460Y-66934511D01*
X180513006Y-66895460D01*
X180530021Y-66865989D01*
X180550499Y-66789564D01*
X180550500Y-66789564D01*
X180550500Y-66769000D01*
X180572174Y-66716674D01*
X180574346Y-66714589D01*
X180582800Y-66706795D01*
X180588316Y-66704224D01*
X180620425Y-66672114D01*
X180621538Y-66671089D01*
X180646814Y-66661804D01*
X180671692Y-66651500D01*
X186054455Y-66651500D01*
X186106781Y-66673174D01*
G37*
%TD.AperFunction*%
%TA.AperFunction,Conductor*%
G36*
X190527826Y-59842174D02*
G01*
X190549500Y-59894500D01*
X190549500Y-87285500D01*
X190527826Y-87337826D01*
X190475500Y-87359500D01*
X134524500Y-87359500D01*
X134472174Y-87337826D01*
X134450500Y-87285500D01*
X134450500Y-85080253D01*
X134689500Y-85080253D01*
X134689500Y-86819746D01*
X134701133Y-86878232D01*
X134730608Y-86922343D01*
X134745448Y-86944552D01*
X134789560Y-86974027D01*
X134811767Y-86988866D01*
X134811768Y-86988866D01*
X134811769Y-86988867D01*
X134870252Y-87000500D01*
X134870254Y-87000500D01*
X136609746Y-87000500D01*
X136609748Y-87000500D01*
X136668231Y-86988867D01*
X136734552Y-86944552D01*
X136778867Y-86878231D01*
X136790500Y-86819748D01*
X136790500Y-85496543D01*
X136812173Y-85444218D01*
X136957673Y-85298717D01*
X137009999Y-85277044D01*
X137062325Y-85298718D01*
X137275126Y-85511519D01*
X137296800Y-85563845D01*
X137291167Y-85592163D01*
X137269871Y-85643575D01*
X137269868Y-85643586D01*
X137229500Y-85846535D01*
X137229500Y-86053464D01*
X137269868Y-86256413D01*
X137269870Y-86256420D01*
X137349059Y-86447598D01*
X137464023Y-86619655D01*
X137610345Y-86765977D01*
X137782402Y-86880941D01*
X137973580Y-86960130D01*
X138176535Y-87000500D01*
X138176536Y-87000500D01*
X138383464Y-87000500D01*
X138383465Y-87000500D01*
X138586420Y-86960130D01*
X138777598Y-86880941D01*
X138949655Y-86765977D01*
X139095977Y-86619655D01*
X139210941Y-86447598D01*
X139290130Y-86256420D01*
X139330500Y-86053465D01*
X139330500Y-85846535D01*
X139290130Y-85643580D01*
X139210941Y-85452402D01*
X139095977Y-85280345D01*
X138949655Y-85134023D01*
X138897987Y-85099500D01*
X138777598Y-85019059D01*
X138586420Y-84939870D01*
X138586413Y-84939868D01*
X138433516Y-84909455D01*
X138383465Y-84899500D01*
X138176535Y-84899500D01*
X138136385Y-84907486D01*
X137973586Y-84939868D01*
X137973575Y-84939871D01*
X137922163Y-84961167D01*
X137865526Y-84961167D01*
X137841519Y-84945126D01*
X137532175Y-84635782D01*
X137510501Y-84583457D01*
X137510501Y-84565323D01*
X137510501Y-84527273D01*
X137510500Y-84527269D01*
X137510500Y-84197273D01*
X137510500Y-83393631D01*
X137532174Y-83341305D01*
X137543387Y-83332103D01*
X137548229Y-83328867D01*
X137548231Y-83328867D01*
X137613890Y-83284994D01*
X137669434Y-83273945D01*
X137696107Y-83284992D01*
X137761769Y-83328867D01*
X137820252Y-83340500D01*
X138005500Y-83340500D01*
X138057826Y-83362174D01*
X138079500Y-83414500D01*
X138079500Y-83549564D01*
X138099977Y-83625985D01*
X138099979Y-83625990D01*
X138122552Y-83665087D01*
X138122553Y-83665089D01*
X138122556Y-83665093D01*
X138135719Y-83687892D01*
X138139541Y-83694512D01*
X139856548Y-85411519D01*
X139878222Y-85463845D01*
X139872589Y-85492164D01*
X139809870Y-85643579D01*
X139809868Y-85643586D01*
X139769500Y-85846535D01*
X139769500Y-86053464D01*
X139809868Y-86256413D01*
X139809870Y-86256420D01*
X139889059Y-86447598D01*
X140004023Y-86619655D01*
X140150345Y-86765977D01*
X140322402Y-86880941D01*
X140513580Y-86960130D01*
X140716535Y-87000500D01*
X140716536Y-87000500D01*
X140923464Y-87000500D01*
X140923465Y-87000500D01*
X141126420Y-86960130D01*
X141317598Y-86880941D01*
X141489655Y-86765977D01*
X141635977Y-86619655D01*
X141750941Y-86447598D01*
X141830130Y-86256420D01*
X141870500Y-86053465D01*
X141870500Y-85976363D01*
X141892174Y-85924037D01*
X141944500Y-85902363D01*
X141996826Y-85924037D01*
X142207300Y-86134511D01*
X142263249Y-86190460D01*
X142319432Y-86222897D01*
X142350799Y-86258664D01*
X142429059Y-86447598D01*
X142544023Y-86619655D01*
X142690345Y-86765977D01*
X142862402Y-86880941D01*
X143053580Y-86960130D01*
X143256535Y-87000500D01*
X143256536Y-87000500D01*
X143463464Y-87000500D01*
X143463465Y-87000500D01*
X143666420Y-86960130D01*
X143857598Y-86880941D01*
X144029655Y-86765977D01*
X144175977Y-86619655D01*
X144290941Y-86447598D01*
X144370130Y-86256420D01*
X144410500Y-86053465D01*
X144410500Y-85846535D01*
X144370130Y-85643580D01*
X144290941Y-85452402D01*
X144175977Y-85280345D01*
X144121458Y-85225826D01*
X144099784Y-85173500D01*
X144121458Y-85121174D01*
X144173784Y-85099500D01*
X144593877Y-85099500D01*
X144646203Y-85121174D01*
X144936548Y-85411519D01*
X144958222Y-85463845D01*
X144952589Y-85492164D01*
X144889870Y-85643579D01*
X144889868Y-85643586D01*
X144849500Y-85846535D01*
X144849500Y-86053464D01*
X144889868Y-86256413D01*
X144889870Y-86256420D01*
X144969059Y-86447598D01*
X145084023Y-86619655D01*
X145230345Y-86765977D01*
X145402402Y-86880941D01*
X145593580Y-86960130D01*
X145796535Y-87000500D01*
X145796536Y-87000500D01*
X146003464Y-87000500D01*
X146003465Y-87000500D01*
X146206420Y-86960130D01*
X146397598Y-86880941D01*
X146569655Y-86765977D01*
X146715977Y-86619655D01*
X146830941Y-86447598D01*
X146910130Y-86256420D01*
X146950500Y-86053465D01*
X146950500Y-85846535D01*
X146910130Y-85643580D01*
X146830941Y-85452402D01*
X146715977Y-85280345D01*
X146569655Y-85134023D01*
X146517987Y-85099500D01*
X146397598Y-85019059D01*
X146206420Y-84939870D01*
X146206413Y-84939868D01*
X146053516Y-84909455D01*
X146003465Y-84899500D01*
X145796535Y-84899500D01*
X145756385Y-84907486D01*
X145593586Y-84939868D01*
X145593579Y-84939870D01*
X145442164Y-85002589D01*
X145385526Y-85002589D01*
X145361519Y-84986548D01*
X145199797Y-84824826D01*
X145178123Y-84772500D01*
X145199797Y-84720174D01*
X145252123Y-84698500D01*
X146732877Y-84698500D01*
X146785203Y-84720174D01*
X147476548Y-85411519D01*
X147498222Y-85463845D01*
X147492589Y-85492164D01*
X147429870Y-85643579D01*
X147429868Y-85643586D01*
X147389500Y-85846535D01*
X147389500Y-86053464D01*
X147429868Y-86256413D01*
X147429870Y-86256420D01*
X147509059Y-86447598D01*
X147624023Y-86619655D01*
X147770345Y-86765977D01*
X147942402Y-86880941D01*
X148133580Y-86960130D01*
X148336535Y-87000500D01*
X148336536Y-87000500D01*
X148543464Y-87000500D01*
X148543465Y-87000500D01*
X148746420Y-86960130D01*
X148937598Y-86880941D01*
X149109655Y-86765977D01*
X149255977Y-86619655D01*
X149370941Y-86447598D01*
X149450130Y-86256420D01*
X149490500Y-86053465D01*
X149490500Y-85846535D01*
X149450130Y-85643580D01*
X149370941Y-85452402D01*
X149255977Y-85280345D01*
X149109655Y-85134023D01*
X149057987Y-85099500D01*
X148937598Y-85019059D01*
X148746420Y-84939870D01*
X148746413Y-84939868D01*
X148593516Y-84909455D01*
X148543465Y-84899500D01*
X148336535Y-84899500D01*
X148296385Y-84907486D01*
X148133586Y-84939868D01*
X148133579Y-84939870D01*
X147982164Y-85002589D01*
X147925526Y-85002589D01*
X147901519Y-84986548D01*
X147338797Y-84423826D01*
X147317123Y-84371500D01*
X147338797Y-84319174D01*
X147391123Y-84297500D01*
X148871877Y-84297500D01*
X148924203Y-84319174D01*
X150016548Y-85411519D01*
X150038222Y-85463845D01*
X150032589Y-85492164D01*
X149969870Y-85643579D01*
X149969868Y-85643586D01*
X149929500Y-85846535D01*
X149929500Y-86053464D01*
X149969868Y-86256413D01*
X149969870Y-86256420D01*
X150049059Y-86447598D01*
X150164023Y-86619655D01*
X150310345Y-86765977D01*
X150482402Y-86880941D01*
X150673580Y-86960130D01*
X150876535Y-87000500D01*
X150876536Y-87000500D01*
X151083464Y-87000500D01*
X151083465Y-87000500D01*
X151286420Y-86960130D01*
X151477598Y-86880941D01*
X151649655Y-86765977D01*
X151795977Y-86619655D01*
X151910941Y-86447598D01*
X151990130Y-86256420D01*
X152030500Y-86053465D01*
X152030500Y-85846535D01*
X151990130Y-85643580D01*
X151910941Y-85452402D01*
X151795977Y-85280345D01*
X151649655Y-85134023D01*
X151597987Y-85099500D01*
X151477598Y-85019059D01*
X151286420Y-84939870D01*
X151286413Y-84939868D01*
X151133516Y-84909455D01*
X151083465Y-84899500D01*
X150876535Y-84899500D01*
X150836385Y-84907486D01*
X150673586Y-84939868D01*
X150673579Y-84939870D01*
X150522164Y-85002589D01*
X150465526Y-85002589D01*
X150441519Y-84986548D01*
X149477797Y-84022826D01*
X149456123Y-83970500D01*
X149477797Y-83918174D01*
X149530123Y-83896500D01*
X151010877Y-83896500D01*
X151063203Y-83918174D01*
X152556548Y-85411519D01*
X152578222Y-85463845D01*
X152572589Y-85492164D01*
X152509870Y-85643579D01*
X152509868Y-85643586D01*
X152469500Y-85846535D01*
X152469500Y-86053464D01*
X152509868Y-86256413D01*
X152509870Y-86256420D01*
X152589059Y-86447598D01*
X152704023Y-86619655D01*
X152850345Y-86765977D01*
X153022402Y-86880941D01*
X153213580Y-86960130D01*
X153416535Y-87000500D01*
X153416536Y-87000500D01*
X153623464Y-87000500D01*
X153623465Y-87000500D01*
X153826420Y-86960130D01*
X154017598Y-86880941D01*
X154189655Y-86765977D01*
X154335977Y-86619655D01*
X154450941Y-86447598D01*
X154530130Y-86256420D01*
X154570500Y-86053465D01*
X154570500Y-85846535D01*
X155009500Y-85846535D01*
X155009500Y-86053464D01*
X155049868Y-86256413D01*
X155049870Y-86256420D01*
X155129059Y-86447598D01*
X155244023Y-86619655D01*
X155390345Y-86765977D01*
X155562402Y-86880941D01*
X155753580Y-86960130D01*
X155956535Y-87000500D01*
X155956536Y-87000500D01*
X156163464Y-87000500D01*
X156163465Y-87000500D01*
X156366420Y-86960130D01*
X156557598Y-86880941D01*
X156729655Y-86765977D01*
X156875977Y-86619655D01*
X156990941Y-86447598D01*
X157070130Y-86256420D01*
X157110500Y-86053465D01*
X157110500Y-85846535D01*
X157549500Y-85846535D01*
X157549500Y-86053464D01*
X157589868Y-86256413D01*
X157589870Y-86256420D01*
X157669059Y-86447598D01*
X157784023Y-86619655D01*
X157930345Y-86765977D01*
X158102402Y-86880941D01*
X158293580Y-86960130D01*
X158496535Y-87000500D01*
X158496536Y-87000500D01*
X158703464Y-87000500D01*
X158703465Y-87000500D01*
X158906420Y-86960130D01*
X159097598Y-86880941D01*
X159269655Y-86765977D01*
X159415977Y-86619655D01*
X159530941Y-86447598D01*
X159610130Y-86256420D01*
X159650500Y-86053465D01*
X159650500Y-85846535D01*
X160089500Y-85846535D01*
X160089500Y-86053464D01*
X160129868Y-86256413D01*
X160129870Y-86256420D01*
X160209059Y-86447598D01*
X160324023Y-86619655D01*
X160470345Y-86765977D01*
X160642402Y-86880941D01*
X160833580Y-86960130D01*
X161036535Y-87000500D01*
X161036536Y-87000500D01*
X161243464Y-87000500D01*
X161243465Y-87000500D01*
X161446420Y-86960130D01*
X161637598Y-86880941D01*
X161809655Y-86765977D01*
X161955977Y-86619655D01*
X162070941Y-86447598D01*
X162150130Y-86256420D01*
X162190500Y-86053465D01*
X162190500Y-85846535D01*
X162629500Y-85846535D01*
X162629500Y-86053464D01*
X162669868Y-86256413D01*
X162669870Y-86256420D01*
X162749059Y-86447598D01*
X162864023Y-86619655D01*
X163010345Y-86765977D01*
X163182402Y-86880941D01*
X163373580Y-86960130D01*
X163576535Y-87000500D01*
X163576536Y-87000500D01*
X163783464Y-87000500D01*
X163783465Y-87000500D01*
X163986420Y-86960130D01*
X164177598Y-86880941D01*
X164349655Y-86765977D01*
X164495977Y-86619655D01*
X164610941Y-86447598D01*
X164690130Y-86256420D01*
X164730500Y-86053465D01*
X164730500Y-85846535D01*
X165169500Y-85846535D01*
X165169500Y-86053464D01*
X165209868Y-86256413D01*
X165209870Y-86256420D01*
X165289059Y-86447598D01*
X165404023Y-86619655D01*
X165550345Y-86765977D01*
X165722402Y-86880941D01*
X165913580Y-86960130D01*
X166116535Y-87000500D01*
X166116536Y-87000500D01*
X166323464Y-87000500D01*
X166323465Y-87000500D01*
X166526420Y-86960130D01*
X166717598Y-86880941D01*
X166889655Y-86765977D01*
X167035977Y-86619655D01*
X167150941Y-86447598D01*
X167230130Y-86256420D01*
X167270500Y-86053465D01*
X167270500Y-85846535D01*
X167709500Y-85846535D01*
X167709500Y-86053464D01*
X167749868Y-86256413D01*
X167749870Y-86256420D01*
X167829059Y-86447598D01*
X167944023Y-86619655D01*
X168090345Y-86765977D01*
X168262402Y-86880941D01*
X168453580Y-86960130D01*
X168656535Y-87000500D01*
X168656536Y-87000500D01*
X168863464Y-87000500D01*
X168863465Y-87000500D01*
X169066420Y-86960130D01*
X169257598Y-86880941D01*
X169429655Y-86765977D01*
X169575977Y-86619655D01*
X169690941Y-86447598D01*
X169770130Y-86256420D01*
X169810500Y-86053465D01*
X169810500Y-85846535D01*
X170249500Y-85846535D01*
X170249500Y-86053464D01*
X170289868Y-86256413D01*
X170289870Y-86256420D01*
X170369059Y-86447598D01*
X170484023Y-86619655D01*
X170630345Y-86765977D01*
X170802402Y-86880941D01*
X170993580Y-86960130D01*
X171196535Y-87000500D01*
X171196536Y-87000500D01*
X171403464Y-87000500D01*
X171403465Y-87000500D01*
X171606420Y-86960130D01*
X171797598Y-86880941D01*
X171969655Y-86765977D01*
X172115977Y-86619655D01*
X172230941Y-86447598D01*
X172310130Y-86256420D01*
X172350500Y-86053465D01*
X172350500Y-85846535D01*
X172789500Y-85846535D01*
X172789500Y-86053464D01*
X172829868Y-86256413D01*
X172829870Y-86256420D01*
X172909059Y-86447598D01*
X173024023Y-86619655D01*
X173170345Y-86765977D01*
X173342402Y-86880941D01*
X173533580Y-86960130D01*
X173736535Y-87000500D01*
X173736536Y-87000500D01*
X173943464Y-87000500D01*
X173943465Y-87000500D01*
X174146420Y-86960130D01*
X174337598Y-86880941D01*
X174509655Y-86765977D01*
X174655977Y-86619655D01*
X174770941Y-86447598D01*
X174850130Y-86256420D01*
X174890500Y-86053465D01*
X174890500Y-85846535D01*
X175329500Y-85846535D01*
X175329500Y-86053464D01*
X175369868Y-86256413D01*
X175369870Y-86256420D01*
X175449059Y-86447598D01*
X175564023Y-86619655D01*
X175710345Y-86765977D01*
X175882402Y-86880941D01*
X176073580Y-86960130D01*
X176276535Y-87000500D01*
X176276536Y-87000500D01*
X176483464Y-87000500D01*
X176483465Y-87000500D01*
X176686420Y-86960130D01*
X176877598Y-86880941D01*
X177049655Y-86765977D01*
X177195977Y-86619655D01*
X177310941Y-86447598D01*
X177390130Y-86256420D01*
X177430500Y-86053465D01*
X177430500Y-85846535D01*
X177869500Y-85846535D01*
X177869500Y-86053464D01*
X177909868Y-86256413D01*
X177909870Y-86256420D01*
X177989059Y-86447598D01*
X178104023Y-86619655D01*
X178250345Y-86765977D01*
X178422402Y-86880941D01*
X178613580Y-86960130D01*
X178816535Y-87000500D01*
X178816536Y-87000500D01*
X179023464Y-87000500D01*
X179023465Y-87000500D01*
X179226420Y-86960130D01*
X179417598Y-86880941D01*
X179589655Y-86765977D01*
X179735977Y-86619655D01*
X179850941Y-86447598D01*
X179930130Y-86256420D01*
X179970500Y-86053465D01*
X179970500Y-85846535D01*
X179930130Y-85643580D01*
X179850941Y-85452402D01*
X179735977Y-85280345D01*
X179589655Y-85134023D01*
X179537987Y-85099500D01*
X179417598Y-85019059D01*
X179226420Y-84939870D01*
X179226413Y-84939868D01*
X179073516Y-84909455D01*
X179023465Y-84899500D01*
X178816535Y-84899500D01*
X178776385Y-84907486D01*
X178613586Y-84939868D01*
X178613579Y-84939870D01*
X178422401Y-85019059D01*
X178250345Y-85134022D01*
X178250344Y-85134024D01*
X178104024Y-85280344D01*
X178104022Y-85280345D01*
X177989059Y-85452401D01*
X177909870Y-85643579D01*
X177909868Y-85643586D01*
X177869500Y-85846535D01*
X177430500Y-85846535D01*
X177390130Y-85643580D01*
X177310941Y-85452402D01*
X177195977Y-85280345D01*
X177049655Y-85134023D01*
X176997987Y-85099500D01*
X176877598Y-85019059D01*
X176686420Y-84939870D01*
X176686413Y-84939868D01*
X176533516Y-84909455D01*
X176483465Y-84899500D01*
X176276535Y-84899500D01*
X176236385Y-84907486D01*
X176073586Y-84939868D01*
X176073579Y-84939870D01*
X175882401Y-85019059D01*
X175710345Y-85134022D01*
X175710344Y-85134024D01*
X175564024Y-85280344D01*
X175564022Y-85280345D01*
X175449059Y-85452401D01*
X175369870Y-85643579D01*
X175369868Y-85643586D01*
X175329500Y-85846535D01*
X174890500Y-85846535D01*
X174850130Y-85643580D01*
X174770941Y-85452402D01*
X174655977Y-85280345D01*
X174509655Y-85134023D01*
X174457987Y-85099500D01*
X174337598Y-85019059D01*
X174146420Y-84939870D01*
X174146413Y-84939868D01*
X173993516Y-84909455D01*
X173943465Y-84899500D01*
X173736535Y-84899500D01*
X173696385Y-84907486D01*
X173533586Y-84939868D01*
X173533579Y-84939870D01*
X173342401Y-85019059D01*
X173170345Y-85134022D01*
X173170344Y-85134024D01*
X173024024Y-85280344D01*
X173024022Y-85280345D01*
X172909059Y-85452401D01*
X172829870Y-85643579D01*
X172829868Y-85643586D01*
X172789500Y-85846535D01*
X172350500Y-85846535D01*
X172310130Y-85643580D01*
X172230941Y-85452402D01*
X172115977Y-85280345D01*
X171969655Y-85134023D01*
X171917987Y-85099500D01*
X171797598Y-85019059D01*
X171606420Y-84939870D01*
X171606413Y-84939868D01*
X171453516Y-84909455D01*
X171403465Y-84899500D01*
X171196535Y-84899500D01*
X171156385Y-84907486D01*
X170993586Y-84939868D01*
X170993579Y-84939870D01*
X170802401Y-85019059D01*
X170630345Y-85134022D01*
X170630344Y-85134024D01*
X170484024Y-85280344D01*
X170484022Y-85280345D01*
X170369059Y-85452401D01*
X170289870Y-85643579D01*
X170289868Y-85643586D01*
X170249500Y-85846535D01*
X169810500Y-85846535D01*
X169770130Y-85643580D01*
X169690941Y-85452402D01*
X169575977Y-85280345D01*
X169429655Y-85134023D01*
X169377987Y-85099500D01*
X169257598Y-85019059D01*
X169066420Y-84939870D01*
X169066413Y-84939868D01*
X168913516Y-84909455D01*
X168863465Y-84899500D01*
X168656535Y-84899500D01*
X168616385Y-84907486D01*
X168453586Y-84939868D01*
X168453579Y-84939870D01*
X168262401Y-85019059D01*
X168090345Y-85134022D01*
X168090344Y-85134024D01*
X167944024Y-85280344D01*
X167944022Y-85280345D01*
X167829059Y-85452401D01*
X167749870Y-85643579D01*
X167749868Y-85643586D01*
X167709500Y-85846535D01*
X167270500Y-85846535D01*
X167230130Y-85643580D01*
X167150941Y-85452402D01*
X167035977Y-85280345D01*
X166889655Y-85134023D01*
X166837987Y-85099500D01*
X166717598Y-85019059D01*
X166526420Y-84939870D01*
X166526413Y-84939868D01*
X166373516Y-84909455D01*
X166323465Y-84899500D01*
X166116535Y-84899500D01*
X166076385Y-84907486D01*
X165913586Y-84939868D01*
X165913579Y-84939870D01*
X165722401Y-85019059D01*
X165550345Y-85134022D01*
X165550344Y-85134024D01*
X165404024Y-85280344D01*
X165404022Y-85280345D01*
X165289059Y-85452401D01*
X165209870Y-85643579D01*
X165209868Y-85643586D01*
X165169500Y-85846535D01*
X164730500Y-85846535D01*
X164690130Y-85643580D01*
X164610941Y-85452402D01*
X164495977Y-85280345D01*
X164349655Y-85134023D01*
X164297987Y-85099500D01*
X164177598Y-85019059D01*
X163986420Y-84939870D01*
X163986413Y-84939868D01*
X163833516Y-84909455D01*
X163783465Y-84899500D01*
X163576535Y-84899500D01*
X163536385Y-84907486D01*
X163373586Y-84939868D01*
X163373579Y-84939870D01*
X163182401Y-85019059D01*
X163010345Y-85134022D01*
X163010344Y-85134024D01*
X162864024Y-85280344D01*
X162864022Y-85280345D01*
X162749059Y-85452401D01*
X162669870Y-85643579D01*
X162669868Y-85643586D01*
X162629500Y-85846535D01*
X162190500Y-85846535D01*
X162150130Y-85643580D01*
X162070941Y-85452402D01*
X161955977Y-85280345D01*
X161809655Y-85134023D01*
X161757987Y-85099500D01*
X161637598Y-85019059D01*
X161446420Y-84939870D01*
X161446413Y-84939868D01*
X161293516Y-84909455D01*
X161243465Y-84899500D01*
X161036535Y-84899500D01*
X160996385Y-84907486D01*
X160833586Y-84939868D01*
X160833579Y-84939870D01*
X160642401Y-85019059D01*
X160470345Y-85134022D01*
X160470344Y-85134024D01*
X160324024Y-85280344D01*
X160324022Y-85280345D01*
X160209059Y-85452401D01*
X160129870Y-85643579D01*
X160129868Y-85643586D01*
X160089500Y-85846535D01*
X159650500Y-85846535D01*
X159610130Y-85643580D01*
X159530941Y-85452402D01*
X159415977Y-85280345D01*
X159269655Y-85134023D01*
X159217987Y-85099500D01*
X159097598Y-85019059D01*
X158906420Y-84939870D01*
X158906413Y-84939868D01*
X158753516Y-84909455D01*
X158703465Y-84899500D01*
X158496535Y-84899500D01*
X158456385Y-84907486D01*
X158293586Y-84939868D01*
X158293579Y-84939870D01*
X158102401Y-85019059D01*
X157930345Y-85134022D01*
X157930344Y-85134024D01*
X157784024Y-85280344D01*
X157784022Y-85280345D01*
X157669059Y-85452401D01*
X157589870Y-85643579D01*
X157589868Y-85643586D01*
X157549500Y-85846535D01*
X157110500Y-85846535D01*
X157070130Y-85643580D01*
X156990941Y-85452402D01*
X156875977Y-85280345D01*
X156729655Y-85134023D01*
X156677987Y-85099500D01*
X156557598Y-85019059D01*
X156366420Y-84939870D01*
X156366413Y-84939868D01*
X156213516Y-84909455D01*
X156163465Y-84899500D01*
X155956535Y-84899500D01*
X155916385Y-84907486D01*
X155753586Y-84939868D01*
X155753579Y-84939870D01*
X155562401Y-85019059D01*
X155390345Y-85134022D01*
X155390344Y-85134024D01*
X155244024Y-85280344D01*
X155244022Y-85280345D01*
X155129059Y-85452401D01*
X155049870Y-85643579D01*
X155049868Y-85643586D01*
X155009500Y-85846535D01*
X154570500Y-85846535D01*
X154530130Y-85643580D01*
X154450941Y-85452402D01*
X154335977Y-85280345D01*
X154189655Y-85134023D01*
X154137987Y-85099500D01*
X154017598Y-85019059D01*
X153826420Y-84939870D01*
X153826413Y-84939868D01*
X153673516Y-84909455D01*
X153623465Y-84899500D01*
X153416535Y-84899500D01*
X153376385Y-84907486D01*
X153213586Y-84939868D01*
X153213579Y-84939870D01*
X153062164Y-85002589D01*
X153005526Y-85002589D01*
X152981519Y-84986548D01*
X151453984Y-83459013D01*
X151432310Y-83406687D01*
X151453984Y-83354361D01*
X151472853Y-83340682D01*
X151481907Y-83336092D01*
X151518231Y-83328867D01*
X151584552Y-83284552D01*
X151585046Y-83283812D01*
X151591543Y-83280519D01*
X151615688Y-83278669D01*
X151639435Y-83273946D01*
X151645354Y-83276397D01*
X151648015Y-83276194D01*
X151650959Y-83278719D01*
X151666111Y-83284995D01*
X151699405Y-83307242D01*
X151731767Y-83328866D01*
X151731768Y-83328866D01*
X151731769Y-83328867D01*
X151790252Y-83340500D01*
X151790254Y-83340500D01*
X152729746Y-83340500D01*
X152729748Y-83340500D01*
X152788231Y-83328867D01*
X152854552Y-83284552D01*
X152898867Y-83218231D01*
X152910500Y-83159748D01*
X152910500Y-81620252D01*
X152898867Y-81561769D01*
X152892027Y-81551533D01*
X152873945Y-81524471D01*
X152854552Y-81495448D01*
X152819869Y-81472273D01*
X152788232Y-81451133D01*
X152788233Y-81451133D01*
X152758989Y-81445316D01*
X152729748Y-81439500D01*
X152729746Y-81439500D01*
X152724500Y-81439500D01*
X152672174Y-81417826D01*
X152650500Y-81365500D01*
X152650500Y-81347816D01*
X152672174Y-81295490D01*
X152724500Y-81273816D01*
X152738931Y-81275237D01*
X152740252Y-81275500D01*
X153213641Y-81275500D01*
X153265967Y-81297174D01*
X153287641Y-81349500D01*
X153277727Y-81386500D01*
X153237133Y-81456809D01*
X153237129Y-81456818D01*
X153203023Y-81584105D01*
X153203023Y-81715894D01*
X153237129Y-81843181D01*
X153237133Y-81843190D01*
X153253381Y-81871332D01*
X153292258Y-81938669D01*
X153293109Y-81940142D01*
X153303023Y-81977142D01*
X153303023Y-82297293D01*
X153303023Y-82402747D01*
X153324305Y-82482173D01*
X153330316Y-82504608D01*
X153330318Y-82504612D01*
X153383040Y-82595929D01*
X153383041Y-82595930D01*
X153383043Y-82595933D01*
X153768590Y-82981480D01*
X153768592Y-82981481D01*
X153768593Y-82981482D01*
X153802926Y-83001304D01*
X153859915Y-83034207D01*
X153961776Y-83061500D01*
X153961777Y-83061500D01*
X156371726Y-83061500D01*
X156371727Y-83061500D01*
X156473588Y-83034207D01*
X156564913Y-82981480D01*
X157064219Y-82482172D01*
X157116545Y-82460499D01*
X157209900Y-82460499D01*
X157259487Y-82453972D01*
X157368316Y-82403224D01*
X157369366Y-82402174D01*
X157370466Y-82401718D01*
X157373620Y-82399510D01*
X157374109Y-82400209D01*
X157421692Y-82380500D01*
X157547726Y-82380500D01*
X157547727Y-82380500D01*
X157649588Y-82353207D01*
X157740913Y-82300480D01*
X158394218Y-81647173D01*
X158446544Y-81625500D01*
X158783489Y-81625500D01*
X158833307Y-81617609D01*
X158883126Y-81609719D01*
X159003220Y-81548528D01*
X159098528Y-81453220D01*
X159159719Y-81333126D01*
X159175500Y-81233488D01*
X159175500Y-80716512D01*
X159171685Y-80692428D01*
X159159719Y-80616874D01*
X159159718Y-80616873D01*
X159154091Y-80605830D01*
X159098528Y-80496780D01*
X159003220Y-80401472D01*
X158958775Y-80378826D01*
X158940904Y-80369720D01*
X158933172Y-80360667D01*
X158922174Y-80356112D01*
X158915480Y-80339952D01*
X158904122Y-80326653D01*
X158900500Y-80303786D01*
X158900500Y-80224500D01*
X158922174Y-80172174D01*
X158974500Y-80150500D01*
X159275500Y-80150500D01*
X159327826Y-80172174D01*
X159349500Y-80224500D01*
X159349500Y-81472273D01*
X159349500Y-81577727D01*
X159366637Y-81641683D01*
X159376793Y-81679588D01*
X159376795Y-81679592D01*
X159429517Y-81770909D01*
X159429518Y-81770910D01*
X159429520Y-81770913D01*
X159752703Y-82094095D01*
X160052826Y-82394218D01*
X160074500Y-82446544D01*
X160074500Y-82783488D01*
X160090280Y-82883125D01*
X160090281Y-82883126D01*
X160151470Y-83003218D01*
X160151472Y-83003220D01*
X160246780Y-83098528D01*
X160366874Y-83159719D01*
X160466511Y-83175500D01*
X160466512Y-83175500D01*
X161033489Y-83175500D01*
X161118787Y-83161990D01*
X161133126Y-83159719D01*
X161253220Y-83098528D01*
X161348528Y-83003220D01*
X161362446Y-82975905D01*
X161367542Y-82965905D01*
X161410609Y-82929122D01*
X161433476Y-82925500D01*
X162061429Y-82925500D01*
X162113755Y-82947174D01*
X162127363Y-82965904D01*
X162145399Y-83001301D01*
X162151472Y-83013220D01*
X162246780Y-83108528D01*
X162366874Y-83169719D01*
X162466511Y-83185500D01*
X162466512Y-83185500D01*
X163033489Y-83185500D01*
X163113471Y-83172832D01*
X163133126Y-83169719D01*
X163253220Y-83108528D01*
X163348528Y-83013220D01*
X163354601Y-83001301D01*
X163367542Y-82975905D01*
X163410609Y-82939122D01*
X163433476Y-82935500D01*
X164071620Y-82935500D01*
X164123946Y-82957174D01*
X164137553Y-82975903D01*
X164151472Y-83003220D01*
X164246780Y-83098528D01*
X164366874Y-83159719D01*
X164466511Y-83175500D01*
X164466512Y-83175500D01*
X164803455Y-83175500D01*
X164855781Y-83197174D01*
X166223931Y-84565323D01*
X166223936Y-84565329D01*
X166226520Y-84567913D01*
X166301087Y-84642480D01*
X166346748Y-84668842D01*
X166346750Y-84668844D01*
X166346750Y-84668843D01*
X166392412Y-84695207D01*
X166494273Y-84722500D01*
X181025500Y-84722500D01*
X181077826Y-84744174D01*
X181099500Y-84796500D01*
X181099500Y-84912824D01*
X181077826Y-84965150D01*
X181053819Y-84981191D01*
X180962407Y-85019056D01*
X180962403Y-85019058D01*
X180962402Y-85019059D01*
X180957384Y-85022412D01*
X180790345Y-85134022D01*
X180790344Y-85134024D01*
X180644024Y-85280344D01*
X180644022Y-85280345D01*
X180529059Y-85452401D01*
X180449870Y-85643579D01*
X180449868Y-85643586D01*
X180409500Y-85846535D01*
X180409500Y-86053464D01*
X180449868Y-86256413D01*
X180449870Y-86256420D01*
X180529059Y-86447598D01*
X180644023Y-86619655D01*
X180790345Y-86765977D01*
X180962402Y-86880941D01*
X181153580Y-86960130D01*
X181356535Y-87000500D01*
X181356536Y-87000500D01*
X181563464Y-87000500D01*
X181563465Y-87000500D01*
X181766420Y-86960130D01*
X181957598Y-86880941D01*
X182129655Y-86765977D01*
X182275977Y-86619655D01*
X182390941Y-86447598D01*
X182470130Y-86256420D01*
X182510500Y-86053465D01*
X182510500Y-85846535D01*
X182470130Y-85643580D01*
X182390941Y-85452402D01*
X182275977Y-85280345D01*
X182129655Y-85134023D01*
X182129654Y-85134022D01*
X181957596Y-85019057D01*
X181946177Y-85014327D01*
X181935771Y-85003920D01*
X181922174Y-84998288D01*
X181916540Y-84984687D01*
X181906131Y-84974277D01*
X181900500Y-84945962D01*
X181900500Y-84796500D01*
X181922174Y-84744174D01*
X181974500Y-84722500D01*
X183680668Y-84722500D01*
X183680669Y-84722500D01*
X183782530Y-84695207D01*
X183873855Y-84642480D01*
X187617910Y-80898423D01*
X187617913Y-80898422D01*
X187692480Y-80823855D01*
X187745207Y-80732529D01*
X187755952Y-80692428D01*
X187772501Y-80630669D01*
X187772501Y-80525215D01*
X187772501Y-80520686D01*
X187772500Y-80520668D01*
X187772500Y-66580756D01*
X187772501Y-66580743D01*
X187772501Y-66469329D01*
X187772500Y-66469328D01*
X187770241Y-66460899D01*
X187758696Y-66417809D01*
X187745208Y-66367473D01*
X187745205Y-66367466D01*
X187715195Y-66315489D01*
X187715194Y-66315487D01*
X187692480Y-66276145D01*
X187615334Y-66198999D01*
X187615323Y-66198989D01*
X185818805Y-64402471D01*
X183994855Y-62578520D01*
X183994852Y-62578518D01*
X183994851Y-62578517D01*
X183903534Y-62525795D01*
X183903530Y-62525793D01*
X183898596Y-62524471D01*
X183801669Y-62498500D01*
X183801668Y-62498500D01*
X182345545Y-62498500D01*
X182293219Y-62476826D01*
X182033187Y-62216794D01*
X182011513Y-62164468D01*
X182033187Y-62112142D01*
X182044395Y-62102944D01*
X182129655Y-62045977D01*
X182275977Y-61899655D01*
X182390941Y-61727598D01*
X182470130Y-61536420D01*
X182510500Y-61333465D01*
X182510500Y-61126535D01*
X182470130Y-60923580D01*
X182390941Y-60732402D01*
X182275977Y-60560345D01*
X182129655Y-60414023D01*
X181957598Y-60299059D01*
X181766420Y-60219870D01*
X181766413Y-60219868D01*
X181613516Y-60189455D01*
X181563465Y-60179500D01*
X181356535Y-60179500D01*
X181316385Y-60187486D01*
X181153586Y-60219868D01*
X181153579Y-60219870D01*
X180962401Y-60299059D01*
X180790345Y-60414022D01*
X180790344Y-60414024D01*
X180644024Y-60560344D01*
X180644022Y-60560345D01*
X180529059Y-60732401D01*
X180449870Y-60923579D01*
X180449868Y-60923586D01*
X180409500Y-61126535D01*
X180409500Y-61333464D01*
X180449868Y-61536413D01*
X180449870Y-61536420D01*
X180529059Y-61727598D01*
X180644023Y-61899655D01*
X180790345Y-62045977D01*
X180962402Y-62160941D01*
X181005061Y-62178611D01*
X181013818Y-62182238D01*
X181053867Y-62222286D01*
X181059500Y-62250605D01*
X181059500Y-62262727D01*
X181076795Y-62327273D01*
X181086793Y-62364588D01*
X181086795Y-62364592D01*
X181139517Y-62455909D01*
X181139518Y-62455910D01*
X181139520Y-62455913D01*
X181443147Y-62759540D01*
X181656781Y-62973174D01*
X181678455Y-63025500D01*
X181656781Y-63077826D01*
X181604455Y-63099500D01*
X180446545Y-63099500D01*
X180394219Y-63077826D01*
X179517166Y-62200773D01*
X179495492Y-62148447D01*
X179517166Y-62096121D01*
X179528377Y-62086920D01*
X179589655Y-62045977D01*
X179735977Y-61899655D01*
X179850941Y-61727598D01*
X179930130Y-61536420D01*
X179970500Y-61333465D01*
X179970500Y-61126535D01*
X179930130Y-60923580D01*
X179850941Y-60732402D01*
X179735977Y-60560345D01*
X179589655Y-60414023D01*
X179417598Y-60299059D01*
X179226420Y-60219870D01*
X179226413Y-60219868D01*
X179073516Y-60189455D01*
X179023465Y-60179500D01*
X178816535Y-60179500D01*
X178776385Y-60187486D01*
X178613586Y-60219868D01*
X178613579Y-60219870D01*
X178422401Y-60299059D01*
X178250345Y-60414022D01*
X178250344Y-60414024D01*
X178104024Y-60560344D01*
X178104022Y-60560345D01*
X177989059Y-60732401D01*
X177909870Y-60923579D01*
X177909868Y-60923586D01*
X177869500Y-61126535D01*
X177869500Y-61333464D01*
X177909868Y-61536413D01*
X177909870Y-61536420D01*
X177989059Y-61727598D01*
X178104023Y-61899655D01*
X178250345Y-62045977D01*
X178422402Y-62160941D01*
X178465061Y-62178611D01*
X178479284Y-62184502D01*
X178519333Y-62224550D01*
X178522442Y-62233708D01*
X178546793Y-62324588D01*
X178546794Y-62324590D01*
X178546795Y-62324592D01*
X178586579Y-62393500D01*
X178593971Y-62449653D01*
X178559493Y-62494586D01*
X178522493Y-62504500D01*
X177101545Y-62504500D01*
X177049219Y-62482826D01*
X176849656Y-62283263D01*
X176827982Y-62230937D01*
X176849656Y-62178611D01*
X176873665Y-62162569D01*
X176877598Y-62160941D01*
X177049655Y-62045977D01*
X177195977Y-61899655D01*
X177310941Y-61727598D01*
X177390130Y-61536420D01*
X177430500Y-61333465D01*
X177430500Y-61126535D01*
X177390130Y-60923580D01*
X177310941Y-60732402D01*
X177195977Y-60560345D01*
X177049655Y-60414023D01*
X176877598Y-60299059D01*
X176686420Y-60219870D01*
X176686413Y-60219868D01*
X176533516Y-60189455D01*
X176483465Y-60179500D01*
X176276535Y-60179500D01*
X176236385Y-60187486D01*
X176073586Y-60219868D01*
X176073579Y-60219870D01*
X175882401Y-60299059D01*
X175710345Y-60414022D01*
X175710344Y-60414024D01*
X175564024Y-60560344D01*
X175564022Y-60560345D01*
X175449059Y-60732401D01*
X175369870Y-60923579D01*
X175369868Y-60923586D01*
X175329500Y-61126535D01*
X175329500Y-61333464D01*
X175369868Y-61536413D01*
X175369870Y-61536420D01*
X175449059Y-61727598D01*
X175564023Y-61899655D01*
X175710345Y-62045977D01*
X175882402Y-62160941D01*
X175925061Y-62178611D01*
X175933818Y-62182238D01*
X175973867Y-62222286D01*
X175979500Y-62250605D01*
X175979500Y-62327273D01*
X175979500Y-62432727D01*
X175998275Y-62502796D01*
X176006793Y-62534588D01*
X176006795Y-62534592D01*
X176059517Y-62625909D01*
X176059518Y-62625910D01*
X176059520Y-62625913D01*
X176659087Y-63225480D01*
X176659089Y-63225481D01*
X176659090Y-63225482D01*
X176686858Y-63241514D01*
X176750412Y-63278207D01*
X176852273Y-63305500D01*
X176957727Y-63305500D01*
X179458455Y-63305500D01*
X179510781Y-63327174D01*
X180004087Y-63820480D01*
X180004089Y-63820481D01*
X180004090Y-63820482D01*
X180060011Y-63852768D01*
X180095412Y-63873207D01*
X180197273Y-63900500D01*
X183303455Y-63900500D01*
X183355781Y-63922174D01*
X185157781Y-65724174D01*
X185179455Y-65776500D01*
X185157781Y-65828826D01*
X185105455Y-65850500D01*
X180671692Y-65850500D01*
X180619366Y-65828826D01*
X180588316Y-65797776D01*
X180543614Y-65776931D01*
X180479487Y-65747028D01*
X180479485Y-65747027D01*
X180442955Y-65742218D01*
X180429901Y-65740500D01*
X180429899Y-65740500D01*
X180070100Y-65740500D01*
X180020514Y-65747027D01*
X180020512Y-65747028D01*
X179911683Y-65797776D01*
X179826776Y-65882683D01*
X179776027Y-65991514D01*
X179769500Y-66041100D01*
X179769500Y-66460899D01*
X179776027Y-66510485D01*
X179776028Y-66510487D01*
X179826776Y-66619316D01*
X179838918Y-66631458D01*
X179848621Y-66654883D01*
X179860592Y-66683777D01*
X179860590Y-66683780D01*
X179860592Y-66683784D01*
X179838923Y-66736105D01*
X179833708Y-66741321D01*
X179781384Y-66763000D01*
X178203570Y-66763000D01*
X178151244Y-66741326D01*
X178129570Y-66689000D01*
X178130992Y-66674564D01*
X178132187Y-66668555D01*
X178135500Y-66651901D01*
X178135499Y-66475100D01*
X178120240Y-66398383D01*
X178062112Y-66311388D01*
X178055272Y-66306818D01*
X177975117Y-66253260D01*
X177898401Y-66238000D01*
X177898399Y-66238000D01*
X177096600Y-66238000D01*
X177019882Y-66253260D01*
X176932888Y-66311387D01*
X176932887Y-66311388D01*
X176874760Y-66398382D01*
X176874760Y-66398383D01*
X176860648Y-66469331D01*
X176859500Y-66475100D01*
X176859500Y-66539000D01*
X176837826Y-66591326D01*
X176785501Y-66613000D01*
X176721600Y-66613000D01*
X176644882Y-66628260D01*
X176644879Y-66628261D01*
X176601111Y-66657506D01*
X176545562Y-66668555D01*
X176518889Y-66657506D01*
X176475118Y-66628260D01*
X176449545Y-66623173D01*
X176398401Y-66613000D01*
X176398399Y-66613000D01*
X176221600Y-66613000D01*
X176144882Y-66628260D01*
X176144879Y-66628261D01*
X176101111Y-66657506D01*
X176045562Y-66668555D01*
X176018889Y-66657506D01*
X175975118Y-66628260D01*
X175949545Y-66623173D01*
X175898401Y-66613000D01*
X175898399Y-66613000D01*
X175721600Y-66613000D01*
X175644882Y-66628260D01*
X175644879Y-66628261D01*
X175601111Y-66657506D01*
X175545562Y-66668555D01*
X175518889Y-66657506D01*
X175475118Y-66628260D01*
X175449545Y-66623173D01*
X175398401Y-66613000D01*
X175398399Y-66613000D01*
X175221600Y-66613000D01*
X175144882Y-66628260D01*
X175057888Y-66686387D01*
X175057887Y-66686388D01*
X174999760Y-66773382D01*
X174999760Y-66773383D01*
X174985130Y-66846935D01*
X174984500Y-66850100D01*
X174984500Y-67651899D01*
X174999760Y-67728617D01*
X175002549Y-67735350D01*
X175000560Y-67736173D01*
X175009500Y-67765641D01*
X175009500Y-67991134D01*
X174987826Y-68043460D01*
X174935500Y-68065134D01*
X174883174Y-68043460D01*
X174807314Y-67967600D01*
X174693190Y-67901710D01*
X174693181Y-67901706D01*
X174565894Y-67867600D01*
X174565892Y-67867600D01*
X174434108Y-67867600D01*
X174343652Y-67891837D01*
X174287500Y-67884444D01*
X174253021Y-67839510D01*
X174250500Y-67820358D01*
X174250500Y-67685106D01*
X174250499Y-67685105D01*
X174250396Y-67684722D01*
X174216392Y-67557814D01*
X174150500Y-67443686D01*
X174072174Y-67365360D01*
X174050500Y-67313034D01*
X174050500Y-66445135D01*
X174072174Y-66392809D01*
X174124500Y-66371135D01*
X174138937Y-66372557D01*
X174144882Y-66373739D01*
X174144883Y-66373740D01*
X174221599Y-66389000D01*
X175023400Y-66388999D01*
X175100117Y-66373740D01*
X175187112Y-66315612D01*
X175245240Y-66228617D01*
X175260500Y-66151901D01*
X175260499Y-65975100D01*
X175245240Y-65898383D01*
X175187112Y-65811388D01*
X175166740Y-65797776D01*
X175100117Y-65753260D01*
X175023401Y-65738000D01*
X175023399Y-65738000D01*
X174221600Y-65738000D01*
X174144882Y-65753260D01*
X174138147Y-65756050D01*
X174137324Y-65754063D01*
X174107858Y-65763000D01*
X173897936Y-65763000D01*
X173821514Y-65783477D01*
X173821509Y-65783479D01*
X173773171Y-65811388D01*
X173752988Y-65823040D01*
X173676826Y-65899203D01*
X173624500Y-65920877D01*
X173572174Y-65899203D01*
X173550500Y-65846877D01*
X173550500Y-65458273D01*
X173523207Y-65356413D01*
X173523207Y-65356412D01*
X173470482Y-65265090D01*
X173470481Y-65265089D01*
X173470480Y-65265087D01*
X173180493Y-64975100D01*
X173984500Y-64975100D01*
X173984500Y-65151899D01*
X173999760Y-65228617D01*
X174031477Y-65276086D01*
X174057888Y-65315612D01*
X174144883Y-65373740D01*
X174221599Y-65389000D01*
X175023400Y-65388999D01*
X175100117Y-65373740D01*
X175187112Y-65315612D01*
X175245240Y-65228617D01*
X175260500Y-65151901D01*
X175260499Y-64975100D01*
X175245240Y-64898383D01*
X175187112Y-64811388D01*
X175100117Y-64753260D01*
X175100116Y-64753259D01*
X175100115Y-64753259D01*
X175098179Y-64752457D01*
X175096696Y-64750974D01*
X175094057Y-64749211D01*
X175094407Y-64748685D01*
X175058130Y-64712409D01*
X175058130Y-64660587D01*
X175056951Y-64660272D01*
X175058130Y-64655871D01*
X175058130Y-64655772D01*
X175058134Y-64655763D01*
X175058205Y-64655590D01*
X175058204Y-64655590D01*
X175058207Y-64655587D01*
X175085500Y-64553727D01*
X175085500Y-64448273D01*
X175085500Y-64448271D01*
X175085499Y-64448270D01*
X175073227Y-64402471D01*
X175058207Y-64346413D01*
X175005480Y-64255087D01*
X174930913Y-64180520D01*
X174839591Y-64127795D01*
X174839582Y-64127791D01*
X174737729Y-64100500D01*
X174737727Y-64100500D01*
X174632273Y-64100500D01*
X174632271Y-64100500D01*
X174530417Y-64127791D01*
X174530408Y-64127795D01*
X174439086Y-64180520D01*
X174364520Y-64255086D01*
X174311795Y-64346408D01*
X174311791Y-64346417D01*
X174284500Y-64448270D01*
X174283867Y-64453080D01*
X174281637Y-64452786D01*
X174262826Y-64498203D01*
X174259540Y-64501488D01*
X174219979Y-64570009D01*
X174219977Y-64570014D01*
X174199500Y-64646435D01*
X174199500Y-64681665D01*
X174177826Y-64733991D01*
X174150780Y-64748454D01*
X174151616Y-64750471D01*
X174144884Y-64753259D01*
X174057888Y-64811387D01*
X174057887Y-64811388D01*
X173999760Y-64898382D01*
X173984500Y-64975100D01*
X173180493Y-64975100D01*
X172942990Y-64737597D01*
X172922227Y-64696847D01*
X172919822Y-64681665D01*
X172909719Y-64617874D01*
X172848528Y-64497780D01*
X172753220Y-64402472D01*
X172753219Y-64402471D01*
X172633126Y-64341281D01*
X172633125Y-64341280D01*
X172533489Y-64325500D01*
X172533488Y-64325500D01*
X172016512Y-64325500D01*
X172016511Y-64325500D01*
X171916874Y-64341280D01*
X171916873Y-64341281D01*
X171796780Y-64402471D01*
X171701471Y-64497780D01*
X171640281Y-64617873D01*
X171640280Y-64617874D01*
X171624500Y-64717511D01*
X171624500Y-64845226D01*
X171621979Y-64864378D01*
X171599500Y-64948274D01*
X171599500Y-65766500D01*
X171577826Y-65818826D01*
X171525500Y-65840500D01*
X171173109Y-65840500D01*
X171136590Y-65828985D01*
X171136271Y-65829671D01*
X171131065Y-65827243D01*
X171130664Y-65827117D01*
X171130404Y-65826935D01*
X171107767Y-65816379D01*
X171023173Y-65776932D01*
X171023171Y-65776931D01*
X170987178Y-65772193D01*
X170974316Y-65770500D01*
X170525684Y-65770500D01*
X170514318Y-65771996D01*
X170476828Y-65776931D01*
X170369595Y-65826935D01*
X170285935Y-65910595D01*
X170235931Y-66017828D01*
X170230500Y-66059090D01*
X170229500Y-66066684D01*
X170229500Y-66415316D01*
X170231193Y-66428178D01*
X170235931Y-66464171D01*
X170235932Y-66464173D01*
X170285935Y-66571404D01*
X170369596Y-66655065D01*
X170431504Y-66683933D01*
X170469767Y-66725691D01*
X170467297Y-66782274D01*
X170431504Y-66818066D01*
X170403531Y-66831110D01*
X170369595Y-66846935D01*
X170285935Y-66930595D01*
X170235931Y-67037828D01*
X170229500Y-67086685D01*
X170229500Y-67435314D01*
X170235931Y-67484171D01*
X170285935Y-67591404D01*
X170369597Y-67675066D01*
X170406773Y-67692401D01*
X170445037Y-67734158D01*
X170449500Y-67759468D01*
X170449500Y-67789564D01*
X170469978Y-67865988D01*
X170491917Y-67903989D01*
X170491918Y-67903989D01*
X170509537Y-67934507D01*
X170509538Y-67934508D01*
X170509540Y-67934511D01*
X170977826Y-68402797D01*
X170999500Y-68455122D01*
X170999500Y-68565894D01*
X171033606Y-68693181D01*
X171033610Y-68693190D01*
X171099500Y-68807314D01*
X171115360Y-68823174D01*
X171137034Y-68875500D01*
X171115360Y-68927826D01*
X171063034Y-68949500D01*
X164891223Y-68949500D01*
X164838897Y-68927826D01*
X164025397Y-68114326D01*
X164003723Y-68062000D01*
X164025397Y-68009674D01*
X164077723Y-67988000D01*
X164307246Y-67988000D01*
X164307248Y-67988000D01*
X164365731Y-67976367D01*
X164432052Y-67932052D01*
X164476367Y-67865731D01*
X164488000Y-67807248D01*
X164488000Y-66192752D01*
X164476367Y-66134269D01*
X164475309Y-66132686D01*
X164450843Y-66096071D01*
X164432052Y-66067948D01*
X164394039Y-66042548D01*
X164365732Y-66023633D01*
X164365733Y-66023633D01*
X164335979Y-66017715D01*
X164307248Y-66012000D01*
X162692752Y-66012000D01*
X162664021Y-66017715D01*
X162634267Y-66023633D01*
X162567949Y-66067947D01*
X162567947Y-66067949D01*
X162523633Y-66134267D01*
X162515877Y-66173257D01*
X162512014Y-66192685D01*
X162512000Y-66192753D01*
X162512000Y-67714000D01*
X162490326Y-67766326D01*
X162438000Y-67788000D01*
X160243623Y-67788000D01*
X160191297Y-67766326D01*
X158109076Y-65684105D01*
X167499500Y-65684105D01*
X167499500Y-65815894D01*
X167533606Y-65943181D01*
X167533610Y-65943190D01*
X167572147Y-66009938D01*
X167599500Y-66057314D01*
X167692686Y-66150500D01*
X167806814Y-66216392D01*
X167934105Y-66250499D01*
X167934106Y-66250500D01*
X167934108Y-66250500D01*
X168065894Y-66250500D01*
X168065894Y-66250499D01*
X168193186Y-66216392D01*
X168307314Y-66150500D01*
X168400500Y-66057314D01*
X168466392Y-65943186D01*
X168500499Y-65815894D01*
X168500500Y-65815894D01*
X168500500Y-65684106D01*
X168500499Y-65684105D01*
X168485170Y-65626897D01*
X168466392Y-65556814D01*
X168400500Y-65442686D01*
X168322174Y-65364360D01*
X168300500Y-65312034D01*
X168300500Y-64655123D01*
X168322174Y-64602797D01*
X169852797Y-63072174D01*
X169905123Y-63050500D01*
X170998942Y-63050500D01*
X171051268Y-63072174D01*
X171072942Y-63124500D01*
X171066009Y-63155774D01*
X171026027Y-63241514D01*
X171019500Y-63291100D01*
X171019500Y-63710899D01*
X171026027Y-63760485D01*
X171026028Y-63760487D01*
X171076776Y-63869316D01*
X171161684Y-63954224D01*
X171270513Y-64004972D01*
X171320099Y-64011500D01*
X171679900Y-64011499D01*
X171729487Y-64004972D01*
X171838316Y-63954224D01*
X171923224Y-63869316D01*
X171932236Y-63849988D01*
X171935391Y-63843225D01*
X171977149Y-63804962D01*
X172002457Y-63800500D01*
X175429556Y-63800500D01*
X175481882Y-63822174D01*
X175503556Y-63874500D01*
X175500263Y-63891052D01*
X175501182Y-63891235D01*
X175499760Y-63898382D01*
X175499760Y-63898383D01*
X175488653Y-63954224D01*
X175484500Y-63975100D01*
X175484500Y-64776899D01*
X175499760Y-64853617D01*
X175529671Y-64898383D01*
X175557888Y-64940612D01*
X175644883Y-64998740D01*
X175721599Y-65014000D01*
X175898400Y-65013999D01*
X175975117Y-64998740D01*
X176018888Y-64969492D01*
X176074437Y-64958444D01*
X176101111Y-64969492D01*
X176144883Y-64998740D01*
X176221599Y-65014000D01*
X176398400Y-65013999D01*
X176475117Y-64998740D01*
X176518888Y-64969492D01*
X176574437Y-64958444D01*
X176601111Y-64969492D01*
X176644883Y-64998740D01*
X176721599Y-65014000D01*
X176785500Y-65013999D01*
X176837825Y-65035672D01*
X176859500Y-65087998D01*
X176859500Y-65151899D01*
X176874760Y-65228617D01*
X176906477Y-65276086D01*
X176932888Y-65315612D01*
X177019883Y-65373740D01*
X177096599Y-65389000D01*
X177898400Y-65388999D01*
X177975117Y-65373740D01*
X177975120Y-65373737D01*
X177981853Y-65370950D01*
X177982675Y-65372936D01*
X178012142Y-65364000D01*
X178408377Y-65364000D01*
X178460703Y-65385674D01*
X178509540Y-65434511D01*
X178565489Y-65490460D01*
X178634011Y-65530021D01*
X178634012Y-65530021D01*
X178634014Y-65530022D01*
X178672224Y-65540260D01*
X178710435Y-65550499D01*
X178710436Y-65550500D01*
X178710438Y-65550500D01*
X178741532Y-65550500D01*
X178793858Y-65572174D01*
X178808599Y-65593227D01*
X178825933Y-65630402D01*
X178825935Y-65630404D01*
X178909596Y-65714065D01*
X179016827Y-65764068D01*
X179065684Y-65770500D01*
X179065686Y-65770500D01*
X179414314Y-65770500D01*
X179414316Y-65770500D01*
X179463173Y-65764068D01*
X179570404Y-65714065D01*
X179654065Y-65630404D01*
X179704068Y-65523173D01*
X179710500Y-65474316D01*
X179710500Y-65025684D01*
X179704068Y-64976827D01*
X179654065Y-64869596D01*
X179586795Y-64802326D01*
X179565121Y-64750000D01*
X179586795Y-64697674D01*
X179602804Y-64681665D01*
X179654065Y-64630404D01*
X179704068Y-64523173D01*
X179710500Y-64474316D01*
X179710500Y-64025684D01*
X179704068Y-63976827D01*
X179654065Y-63869596D01*
X179570404Y-63785935D01*
X179463173Y-63735932D01*
X179463171Y-63735931D01*
X179427178Y-63731193D01*
X179414316Y-63729500D01*
X179065684Y-63729500D01*
X179054318Y-63730996D01*
X179016828Y-63735931D01*
X178909595Y-63785935D01*
X178825933Y-63869597D01*
X178808599Y-63906773D01*
X178766842Y-63945037D01*
X178741532Y-63949500D01*
X177190858Y-63949500D01*
X177138532Y-63927826D01*
X177122490Y-63903816D01*
X177120240Y-63898385D01*
X177120240Y-63898383D01*
X177062112Y-63811388D01*
X177060690Y-63810438D01*
X176975117Y-63753260D01*
X176898401Y-63738000D01*
X176898399Y-63738000D01*
X176721601Y-63738000D01*
X176698933Y-63742509D01*
X176643385Y-63731457D01*
X176611921Y-63684363D01*
X176610500Y-63669930D01*
X176610500Y-63581436D01*
X176610499Y-63581435D01*
X176590022Y-63505014D01*
X176590020Y-63505009D01*
X176550459Y-63436488D01*
X176373511Y-63259540D01*
X176340463Y-63240460D01*
X176304990Y-63219979D01*
X176304985Y-63219977D01*
X176228564Y-63199500D01*
X176228562Y-63199500D01*
X172001524Y-63199500D01*
X171949198Y-63177826D01*
X171934457Y-63156773D01*
X171923225Y-63132685D01*
X171838316Y-63047776D01*
X171833013Y-63044063D01*
X171835048Y-63041156D01*
X171804947Y-63008263D01*
X171800500Y-62982998D01*
X171800500Y-62960436D01*
X171800499Y-62960435D01*
X171793814Y-62935488D01*
X171780021Y-62884011D01*
X171740460Y-62815489D01*
X171684511Y-62759540D01*
X171434511Y-62509540D01*
X171415389Y-62498500D01*
X171388241Y-62482826D01*
X171365990Y-62469979D01*
X171365985Y-62469977D01*
X171289564Y-62449500D01*
X171289562Y-62449500D01*
X169789562Y-62449500D01*
X169710438Y-62449500D01*
X169634012Y-62469978D01*
X169634011Y-62469978D01*
X169634009Y-62469979D01*
X169634007Y-62469980D01*
X169565492Y-62509537D01*
X167815489Y-64259540D01*
X167759540Y-64315488D01*
X167719979Y-64384009D01*
X167719977Y-64384014D01*
X167699500Y-64460435D01*
X167699500Y-65312034D01*
X167677826Y-65364360D01*
X167599500Y-65442685D01*
X167533610Y-65556809D01*
X167533606Y-65556818D01*
X167499500Y-65684105D01*
X158109076Y-65684105D01*
X154934511Y-62509540D01*
X154915389Y-62498500D01*
X154865990Y-62469979D01*
X154865985Y-62469977D01*
X154789564Y-62449500D01*
X154789562Y-62449500D01*
X140710438Y-62449500D01*
X140710436Y-62449500D01*
X140634014Y-62469977D01*
X140634009Y-62469979D01*
X140584611Y-62498500D01*
X140565488Y-62509540D01*
X139409540Y-63665488D01*
X139369979Y-63734009D01*
X139369977Y-63734014D01*
X139349500Y-63810435D01*
X139349500Y-63865500D01*
X139327826Y-63917826D01*
X139275500Y-63939500D01*
X139090252Y-63939500D01*
X139066858Y-63944153D01*
X139031766Y-63951133D01*
X138966113Y-63995003D01*
X138910564Y-64006053D01*
X138883887Y-63995003D01*
X138818233Y-63951133D01*
X138787584Y-63945037D01*
X138759748Y-63939500D01*
X138759746Y-63939500D01*
X138754500Y-63939500D01*
X138702174Y-63917826D01*
X138680500Y-63865500D01*
X138680500Y-63275122D01*
X138702173Y-63222797D01*
X139962343Y-61962626D01*
X140014669Y-61940953D01*
X140066995Y-61962627D01*
X140150345Y-62045977D01*
X140322402Y-62160941D01*
X140513580Y-62240130D01*
X140716535Y-62280500D01*
X140716536Y-62280500D01*
X140923464Y-62280500D01*
X140923465Y-62280500D01*
X141126420Y-62240130D01*
X141317598Y-62160941D01*
X141489655Y-62045977D01*
X141635977Y-61899655D01*
X141750941Y-61727598D01*
X141830130Y-61536420D01*
X141870500Y-61333465D01*
X141870500Y-61126535D01*
X147389500Y-61126535D01*
X147389500Y-61333464D01*
X147429868Y-61536413D01*
X147429870Y-61536420D01*
X147509059Y-61727598D01*
X147624023Y-61899655D01*
X147770345Y-62045977D01*
X147942402Y-62160941D01*
X148133580Y-62240130D01*
X148336535Y-62280500D01*
X148336536Y-62280500D01*
X148543464Y-62280500D01*
X148543465Y-62280500D01*
X148746420Y-62240130D01*
X148937598Y-62160941D01*
X149109655Y-62045977D01*
X149255977Y-61899655D01*
X149370941Y-61727598D01*
X149450130Y-61536420D01*
X149490500Y-61333465D01*
X149490500Y-61126535D01*
X149929500Y-61126535D01*
X149929500Y-61333464D01*
X149969868Y-61536413D01*
X149969870Y-61536420D01*
X150049059Y-61727598D01*
X150164023Y-61899655D01*
X150310345Y-62045977D01*
X150482402Y-62160941D01*
X150673580Y-62240130D01*
X150876535Y-62280500D01*
X150876536Y-62280500D01*
X151083464Y-62280500D01*
X151083465Y-62280500D01*
X151286420Y-62240130D01*
X151477598Y-62160941D01*
X151649655Y-62045977D01*
X151795977Y-61899655D01*
X151910941Y-61727598D01*
X151990130Y-61536420D01*
X152030500Y-61333465D01*
X152030500Y-61126535D01*
X152469500Y-61126535D01*
X152469500Y-61333464D01*
X152509868Y-61536413D01*
X152509870Y-61536420D01*
X152589059Y-61727598D01*
X152704023Y-61899655D01*
X152850345Y-62045977D01*
X153022402Y-62160941D01*
X153213580Y-62240130D01*
X153416535Y-62280500D01*
X153416536Y-62280500D01*
X153623464Y-62280500D01*
X153623465Y-62280500D01*
X153826420Y-62240130D01*
X154017598Y-62160941D01*
X154189655Y-62045977D01*
X154335977Y-61899655D01*
X154450941Y-61727598D01*
X154530130Y-61536420D01*
X154570500Y-61333465D01*
X154570500Y-61126535D01*
X155009500Y-61126535D01*
X155009500Y-61333464D01*
X155049868Y-61536413D01*
X155049870Y-61536420D01*
X155129059Y-61727598D01*
X155244023Y-61899655D01*
X155390345Y-62045977D01*
X155562402Y-62160941D01*
X155753580Y-62240130D01*
X155956535Y-62280500D01*
X155956536Y-62280500D01*
X156163464Y-62280500D01*
X156163465Y-62280500D01*
X156366420Y-62240130D01*
X156557598Y-62160941D01*
X156729655Y-62045977D01*
X156875977Y-61899655D01*
X156990941Y-61727598D01*
X157070130Y-61536420D01*
X157110500Y-61333465D01*
X157110500Y-61126535D01*
X157549500Y-61126535D01*
X157549500Y-61333464D01*
X157589868Y-61536413D01*
X157589870Y-61536420D01*
X157669059Y-61727598D01*
X157784023Y-61899655D01*
X157930345Y-62045977D01*
X158102402Y-62160941D01*
X158293580Y-62240130D01*
X158496535Y-62280500D01*
X158496536Y-62280500D01*
X158703464Y-62280500D01*
X158703465Y-62280500D01*
X158906420Y-62240130D01*
X159097598Y-62160941D01*
X159269655Y-62045977D01*
X159415977Y-61899655D01*
X159530941Y-61727598D01*
X159610130Y-61536420D01*
X159650500Y-61333465D01*
X159650500Y-61126535D01*
X160089500Y-61126535D01*
X160089500Y-61333464D01*
X160129868Y-61536413D01*
X160129870Y-61536420D01*
X160209059Y-61727598D01*
X160324023Y-61899655D01*
X160470345Y-62045977D01*
X160642402Y-62160941D01*
X160833580Y-62240130D01*
X161036535Y-62280500D01*
X161036536Y-62280500D01*
X161243464Y-62280500D01*
X161243465Y-62280500D01*
X161446420Y-62240130D01*
X161637598Y-62160941D01*
X161809655Y-62045977D01*
X161955977Y-61899655D01*
X162070941Y-61727598D01*
X162150130Y-61536420D01*
X162190500Y-61333465D01*
X162190500Y-61126535D01*
X162629500Y-61126535D01*
X162629500Y-61333464D01*
X162669868Y-61536413D01*
X162669870Y-61536420D01*
X162749059Y-61727598D01*
X162864023Y-61899655D01*
X163010345Y-62045977D01*
X163182402Y-62160941D01*
X163373580Y-62240130D01*
X163576535Y-62280500D01*
X163576536Y-62280500D01*
X163783464Y-62280500D01*
X163783465Y-62280500D01*
X163986420Y-62240130D01*
X164177598Y-62160941D01*
X164349655Y-62045977D01*
X164495977Y-61899655D01*
X164610941Y-61727598D01*
X164690130Y-61536420D01*
X164730500Y-61333465D01*
X164730500Y-61126535D01*
X165169500Y-61126535D01*
X165169500Y-61333464D01*
X165209868Y-61536413D01*
X165209870Y-61536420D01*
X165289059Y-61727598D01*
X165404023Y-61899655D01*
X165550345Y-62045977D01*
X165722402Y-62160941D01*
X165913580Y-62240130D01*
X166116535Y-62280500D01*
X166116536Y-62280500D01*
X166323464Y-62280500D01*
X166323465Y-62280500D01*
X166526420Y-62240130D01*
X166717598Y-62160941D01*
X166889655Y-62045977D01*
X167035977Y-61899655D01*
X167150941Y-61727598D01*
X167230130Y-61536420D01*
X167270500Y-61333465D01*
X167270500Y-61126535D01*
X167709500Y-61126535D01*
X167709500Y-61333464D01*
X167749868Y-61536413D01*
X167749870Y-61536420D01*
X167829059Y-61727598D01*
X167944023Y-61899655D01*
X168090345Y-62045977D01*
X168262402Y-62160941D01*
X168453580Y-62240130D01*
X168656535Y-62280500D01*
X168656536Y-62280500D01*
X168863464Y-62280500D01*
X168863465Y-62280500D01*
X169066420Y-62240130D01*
X169257598Y-62160941D01*
X169429655Y-62045977D01*
X169575977Y-61899655D01*
X169690941Y-61727598D01*
X169770130Y-61536420D01*
X169810500Y-61333465D01*
X169810500Y-61126535D01*
X170249500Y-61126535D01*
X170249500Y-61333464D01*
X170289868Y-61536413D01*
X170289870Y-61536420D01*
X170369059Y-61727598D01*
X170484023Y-61899655D01*
X170630345Y-62045977D01*
X170802402Y-62160941D01*
X170993580Y-62240130D01*
X171196535Y-62280500D01*
X171196536Y-62280500D01*
X171403464Y-62280500D01*
X171403465Y-62280500D01*
X171606420Y-62240130D01*
X171797598Y-62160941D01*
X171969655Y-62045977D01*
X172115977Y-61899655D01*
X172230941Y-61727598D01*
X172310130Y-61536420D01*
X172350500Y-61333465D01*
X172350500Y-61126535D01*
X172789500Y-61126535D01*
X172789500Y-61333464D01*
X172829868Y-61536413D01*
X172829870Y-61536420D01*
X172909059Y-61727598D01*
X173024023Y-61899655D01*
X173170345Y-62045977D01*
X173342402Y-62160941D01*
X173533580Y-62240130D01*
X173736535Y-62280500D01*
X173736536Y-62280500D01*
X173943464Y-62280500D01*
X173943465Y-62280500D01*
X174146420Y-62240130D01*
X174337598Y-62160941D01*
X174509655Y-62045977D01*
X174655977Y-61899655D01*
X174770941Y-61727598D01*
X174850130Y-61536420D01*
X174890500Y-61333465D01*
X174890500Y-61126535D01*
X174850130Y-60923580D01*
X174770941Y-60732402D01*
X174655977Y-60560345D01*
X174509655Y-60414023D01*
X174337598Y-60299059D01*
X174146420Y-60219870D01*
X174146413Y-60219868D01*
X173993516Y-60189455D01*
X173943465Y-60179500D01*
X173736535Y-60179500D01*
X173696385Y-60187486D01*
X173533586Y-60219868D01*
X173533579Y-60219870D01*
X173342401Y-60299059D01*
X173170345Y-60414022D01*
X173170344Y-60414024D01*
X173024024Y-60560344D01*
X173024022Y-60560345D01*
X172909059Y-60732401D01*
X172829870Y-60923579D01*
X172829868Y-60923586D01*
X172789500Y-61126535D01*
X172350500Y-61126535D01*
X172310130Y-60923580D01*
X172230941Y-60732402D01*
X172115977Y-60560345D01*
X171969655Y-60414023D01*
X171797598Y-60299059D01*
X171606420Y-60219870D01*
X171606413Y-60219868D01*
X171453516Y-60189455D01*
X171403465Y-60179500D01*
X171196535Y-60179500D01*
X171156385Y-60187486D01*
X170993586Y-60219868D01*
X170993579Y-60219870D01*
X170802401Y-60299059D01*
X170630345Y-60414022D01*
X170630344Y-60414024D01*
X170484024Y-60560344D01*
X170484022Y-60560345D01*
X170369059Y-60732401D01*
X170289870Y-60923579D01*
X170289868Y-60923586D01*
X170249500Y-61126535D01*
X169810500Y-61126535D01*
X169770130Y-60923580D01*
X169690941Y-60732402D01*
X169575977Y-60560345D01*
X169429655Y-60414023D01*
X169257598Y-60299059D01*
X169066420Y-60219870D01*
X169066413Y-60219868D01*
X168913516Y-60189455D01*
X168863465Y-60179500D01*
X168656535Y-60179500D01*
X168616385Y-60187486D01*
X168453586Y-60219868D01*
X168453579Y-60219870D01*
X168262401Y-60299059D01*
X168090345Y-60414022D01*
X168090344Y-60414024D01*
X167944024Y-60560344D01*
X167944022Y-60560345D01*
X167829059Y-60732401D01*
X167749870Y-60923579D01*
X167749868Y-60923586D01*
X167709500Y-61126535D01*
X167270500Y-61126535D01*
X167230130Y-60923580D01*
X167150941Y-60732402D01*
X167035977Y-60560345D01*
X166889655Y-60414023D01*
X166717598Y-60299059D01*
X166526420Y-60219870D01*
X166526413Y-60219868D01*
X166373516Y-60189455D01*
X166323465Y-60179500D01*
X166116535Y-60179500D01*
X166076385Y-60187486D01*
X165913586Y-60219868D01*
X165913579Y-60219870D01*
X165722401Y-60299059D01*
X165550345Y-60414022D01*
X165550344Y-60414024D01*
X165404024Y-60560344D01*
X165404022Y-60560345D01*
X165289059Y-60732401D01*
X165209870Y-60923579D01*
X165209868Y-60923586D01*
X165169500Y-61126535D01*
X164730500Y-61126535D01*
X164690130Y-60923580D01*
X164610941Y-60732402D01*
X164495977Y-60560345D01*
X164349655Y-60414023D01*
X164177598Y-60299059D01*
X163986420Y-60219870D01*
X163986413Y-60219868D01*
X163833516Y-60189455D01*
X163783465Y-60179500D01*
X163576535Y-60179500D01*
X163536385Y-60187486D01*
X163373586Y-60219868D01*
X163373579Y-60219870D01*
X163182401Y-60299059D01*
X163010345Y-60414022D01*
X163010344Y-60414024D01*
X162864024Y-60560344D01*
X162864022Y-60560345D01*
X162749059Y-60732401D01*
X162669870Y-60923579D01*
X162669868Y-60923586D01*
X162629500Y-61126535D01*
X162190500Y-61126535D01*
X162150130Y-60923580D01*
X162070941Y-60732402D01*
X161955977Y-60560345D01*
X161809655Y-60414023D01*
X161637598Y-60299059D01*
X161446420Y-60219870D01*
X161446413Y-60219868D01*
X161293516Y-60189455D01*
X161243465Y-60179500D01*
X161036535Y-60179500D01*
X160996385Y-60187486D01*
X160833586Y-60219868D01*
X160833579Y-60219870D01*
X160642401Y-60299059D01*
X160470345Y-60414022D01*
X160470344Y-60414024D01*
X160324024Y-60560344D01*
X160324022Y-60560345D01*
X160209059Y-60732401D01*
X160129870Y-60923579D01*
X160129868Y-60923586D01*
X160089500Y-61126535D01*
X159650500Y-61126535D01*
X159610130Y-60923580D01*
X159530941Y-60732402D01*
X159415977Y-60560345D01*
X159269655Y-60414023D01*
X159097598Y-60299059D01*
X158906420Y-60219870D01*
X158906413Y-60219868D01*
X158753516Y-60189455D01*
X158703465Y-60179500D01*
X158496535Y-60179500D01*
X158456385Y-60187486D01*
X158293586Y-60219868D01*
X158293579Y-60219870D01*
X158102401Y-60299059D01*
X157930345Y-60414022D01*
X157930344Y-60414024D01*
X157784024Y-60560344D01*
X157784022Y-60560345D01*
X157669059Y-60732401D01*
X157589870Y-60923579D01*
X157589868Y-60923586D01*
X157549500Y-61126535D01*
X157110500Y-61126535D01*
X157070130Y-60923580D01*
X156990941Y-60732402D01*
X156875977Y-60560345D01*
X156729655Y-60414023D01*
X156557598Y-60299059D01*
X156366420Y-60219870D01*
X156366413Y-60219868D01*
X156213516Y-60189455D01*
X156163465Y-60179500D01*
X155956535Y-60179500D01*
X155916385Y-60187486D01*
X155753586Y-60219868D01*
X155753579Y-60219870D01*
X155562401Y-60299059D01*
X155390345Y-60414022D01*
X155390344Y-60414024D01*
X155244024Y-60560344D01*
X155244022Y-60560345D01*
X155129059Y-60732401D01*
X155049870Y-60923579D01*
X155049868Y-60923586D01*
X155009500Y-61126535D01*
X154570500Y-61126535D01*
X154530130Y-60923580D01*
X154450941Y-60732402D01*
X154335977Y-60560345D01*
X154189655Y-60414023D01*
X154017598Y-60299059D01*
X153826420Y-60219870D01*
X153826413Y-60219868D01*
X153673516Y-60189455D01*
X153623465Y-60179500D01*
X153416535Y-60179500D01*
X153376385Y-60187486D01*
X153213586Y-60219868D01*
X153213579Y-60219870D01*
X153022401Y-60299059D01*
X152850345Y-60414022D01*
X152850344Y-60414024D01*
X152704024Y-60560344D01*
X152704022Y-60560345D01*
X152589059Y-60732401D01*
X152509870Y-60923579D01*
X152509868Y-60923586D01*
X152469500Y-61126535D01*
X152030500Y-61126535D01*
X151990130Y-60923580D01*
X151910941Y-60732402D01*
X151795977Y-60560345D01*
X151649655Y-60414023D01*
X151477598Y-60299059D01*
X151286420Y-60219870D01*
X151286413Y-60219868D01*
X151133516Y-60189455D01*
X151083465Y-60179500D01*
X150876535Y-60179500D01*
X150836385Y-60187486D01*
X150673586Y-60219868D01*
X150673579Y-60219870D01*
X150482401Y-60299059D01*
X150310345Y-60414022D01*
X150310344Y-60414024D01*
X150164024Y-60560344D01*
X150164022Y-60560345D01*
X150049059Y-60732401D01*
X149969870Y-60923579D01*
X149969868Y-60923586D01*
X149929500Y-61126535D01*
X149490500Y-61126535D01*
X149450130Y-60923580D01*
X149370941Y-60732402D01*
X149255977Y-60560345D01*
X149109655Y-60414023D01*
X148937598Y-60299059D01*
X148746420Y-60219870D01*
X148746413Y-60219868D01*
X148593516Y-60189455D01*
X148543465Y-60179500D01*
X148336535Y-60179500D01*
X148296385Y-60187486D01*
X148133586Y-60219868D01*
X148133579Y-60219870D01*
X147942401Y-60299059D01*
X147770345Y-60414022D01*
X147770344Y-60414024D01*
X147624024Y-60560344D01*
X147624022Y-60560345D01*
X147509059Y-60732401D01*
X147429870Y-60923579D01*
X147429868Y-60923586D01*
X147389500Y-61126535D01*
X141870500Y-61126535D01*
X141830130Y-60923580D01*
X141750941Y-60732402D01*
X141635977Y-60560345D01*
X141489655Y-60414023D01*
X141317598Y-60299059D01*
X141126420Y-60219870D01*
X141126413Y-60219868D01*
X140973516Y-60189455D01*
X140923465Y-60179500D01*
X140716535Y-60179500D01*
X140676385Y-60187486D01*
X140513586Y-60219868D01*
X140513579Y-60219870D01*
X140322401Y-60299059D01*
X140150345Y-60414022D01*
X140150344Y-60414024D01*
X140004024Y-60560344D01*
X140004022Y-60560345D01*
X139889059Y-60732401D01*
X139809870Y-60923579D01*
X139809868Y-60923586D01*
X139769500Y-61126535D01*
X139769500Y-61274877D01*
X139747826Y-61327203D01*
X139377488Y-61697540D01*
X139325162Y-61719214D01*
X139272836Y-61697540D01*
X139251162Y-61645214D01*
X139256794Y-61616899D01*
X139290130Y-61536420D01*
X139330500Y-61333465D01*
X139330500Y-61126535D01*
X139290130Y-60923580D01*
X139210941Y-60732402D01*
X139095977Y-60560345D01*
X138949655Y-60414023D01*
X138777598Y-60299059D01*
X138586420Y-60219870D01*
X138586413Y-60219868D01*
X138433516Y-60189455D01*
X138383465Y-60179500D01*
X138176535Y-60179500D01*
X138136385Y-60187486D01*
X137973586Y-60219868D01*
X137973579Y-60219870D01*
X137782401Y-60299059D01*
X137610345Y-60414022D01*
X137610344Y-60414024D01*
X137464024Y-60560344D01*
X137464022Y-60560345D01*
X137349059Y-60732401D01*
X137269870Y-60923579D01*
X137269868Y-60923586D01*
X137229500Y-61126535D01*
X137229500Y-61333464D01*
X137269868Y-61536413D01*
X137269871Y-61536424D01*
X137332588Y-61687836D01*
X137332588Y-61744473D01*
X137316547Y-61768480D01*
X136925489Y-62159540D01*
X136869540Y-62215488D01*
X136829979Y-62284009D01*
X136829977Y-62284014D01*
X136809500Y-62360435D01*
X136809500Y-63865500D01*
X136787826Y-63917826D01*
X136735500Y-63939500D01*
X136550252Y-63939500D01*
X136522416Y-63945037D01*
X136491767Y-63951133D01*
X136425449Y-63995447D01*
X136425447Y-63995449D01*
X136381133Y-64061767D01*
X136381133Y-64061769D01*
X136369500Y-64120252D01*
X136369500Y-65659748D01*
X136374345Y-65684105D01*
X136381133Y-65718232D01*
X136406403Y-65756050D01*
X136425448Y-65784552D01*
X136445239Y-65797776D01*
X136491767Y-65828866D01*
X136491768Y-65828866D01*
X136491769Y-65828867D01*
X136550252Y-65840500D01*
X136550254Y-65840500D01*
X137489746Y-65840500D01*
X137489748Y-65840500D01*
X137548231Y-65828867D01*
X137613887Y-65784995D01*
X137669435Y-65773946D01*
X137696111Y-65784995D01*
X137715239Y-65797776D01*
X137761767Y-65828866D01*
X137761768Y-65828866D01*
X137761769Y-65828867D01*
X137820252Y-65840500D01*
X137820254Y-65840500D01*
X138759746Y-65840500D01*
X138759748Y-65840500D01*
X138818231Y-65828867D01*
X138883887Y-65784995D01*
X138939435Y-65773946D01*
X138966111Y-65784995D01*
X138985239Y-65797776D01*
X139031767Y-65828866D01*
X139031768Y-65828866D01*
X139031769Y-65828867D01*
X139090252Y-65840500D01*
X139090254Y-65840500D01*
X140029746Y-65840500D01*
X140029748Y-65840500D01*
X140088231Y-65828867D01*
X140153887Y-65784995D01*
X140209435Y-65773946D01*
X140236111Y-65784995D01*
X140255239Y-65797776D01*
X140301767Y-65828866D01*
X140301768Y-65828866D01*
X140301769Y-65828867D01*
X140360252Y-65840500D01*
X140360254Y-65840500D01*
X141299746Y-65840500D01*
X141299748Y-65840500D01*
X141358231Y-65828867D01*
X141423887Y-65784995D01*
X141479435Y-65773946D01*
X141506111Y-65784995D01*
X141525239Y-65797776D01*
X141571767Y-65828866D01*
X141571768Y-65828866D01*
X141571769Y-65828867D01*
X141630252Y-65840500D01*
X141815500Y-65840500D01*
X141867826Y-65862174D01*
X141889500Y-65914500D01*
X141889500Y-66122034D01*
X141867826Y-66174360D01*
X141849500Y-66192685D01*
X141783610Y-66306809D01*
X141783606Y-66306818D01*
X141749500Y-66434105D01*
X141749500Y-66565894D01*
X141783606Y-66693181D01*
X141783610Y-66693190D01*
X141795965Y-66714589D01*
X141849500Y-66807314D01*
X141942686Y-66900500D01*
X142056814Y-66966392D01*
X142184105Y-67000499D01*
X142184106Y-67000500D01*
X142184108Y-67000500D01*
X142315894Y-67000500D01*
X142315894Y-67000499D01*
X142443186Y-66966392D01*
X142557314Y-66900500D01*
X142650500Y-66807314D01*
X142716392Y-66693186D01*
X142750499Y-66565894D01*
X142750500Y-66565894D01*
X142750500Y-66434106D01*
X142750499Y-66434105D01*
X142740927Y-66398383D01*
X142716392Y-66306814D01*
X142650500Y-66192686D01*
X142557314Y-66099500D01*
X142530499Y-66084018D01*
X142527498Y-66082285D01*
X142521411Y-66074352D01*
X142512174Y-66070526D01*
X142504780Y-66052676D01*
X142493021Y-66037350D01*
X142490500Y-66018200D01*
X142490500Y-65914500D01*
X142512174Y-65862174D01*
X142564500Y-65840500D01*
X142569746Y-65840500D01*
X142569748Y-65840500D01*
X142628231Y-65828867D01*
X142693887Y-65784995D01*
X142749435Y-65773946D01*
X142776111Y-65784995D01*
X142795239Y-65797776D01*
X142841767Y-65828866D01*
X142841768Y-65828866D01*
X142841769Y-65828867D01*
X142900252Y-65840500D01*
X143085500Y-65840500D01*
X143137826Y-65862174D01*
X143159500Y-65914500D01*
X143159500Y-66102034D01*
X143137826Y-66154360D01*
X143099500Y-66192685D01*
X143033610Y-66306809D01*
X143033606Y-66306818D01*
X142999500Y-66434105D01*
X142999500Y-66565894D01*
X143033606Y-66693181D01*
X143033610Y-66693190D01*
X143045965Y-66714589D01*
X143099500Y-66807314D01*
X143192686Y-66900500D01*
X143306814Y-66966392D01*
X143434105Y-67000499D01*
X143434106Y-67000500D01*
X143434108Y-67000500D01*
X143565894Y-67000500D01*
X143565894Y-67000499D01*
X143693186Y-66966392D01*
X143807314Y-66900500D01*
X143900500Y-66807314D01*
X143966392Y-66693186D01*
X144000499Y-66565894D01*
X144000500Y-66565894D01*
X144000500Y-66434106D01*
X144000499Y-66434105D01*
X143990927Y-66398383D01*
X143966392Y-66306814D01*
X143900500Y-66192686D01*
X143807314Y-66099500D01*
X143797499Y-66093833D01*
X143791412Y-66085900D01*
X143782174Y-66082074D01*
X143774780Y-66064225D01*
X143763021Y-66048899D01*
X143760500Y-66029748D01*
X143760500Y-65914500D01*
X143782174Y-65862174D01*
X143834500Y-65840500D01*
X143839746Y-65840500D01*
X143839748Y-65840500D01*
X143898231Y-65828867D01*
X143963887Y-65784995D01*
X144019435Y-65773946D01*
X144046111Y-65784995D01*
X144065239Y-65797776D01*
X144111767Y-65828866D01*
X144111768Y-65828866D01*
X144111769Y-65828867D01*
X144170252Y-65840500D01*
X144355500Y-65840500D01*
X144407826Y-65862174D01*
X144429500Y-65914500D01*
X144429500Y-66082034D01*
X144407826Y-66134360D01*
X144349500Y-66192685D01*
X144283610Y-66306809D01*
X144283606Y-66306818D01*
X144249500Y-66434105D01*
X144249500Y-66565894D01*
X144283606Y-66693181D01*
X144283610Y-66693190D01*
X144295965Y-66714589D01*
X144349500Y-66807314D01*
X144442686Y-66900500D01*
X144556814Y-66966392D01*
X144684105Y-67000499D01*
X144684106Y-67000500D01*
X144684108Y-67000500D01*
X144815894Y-67000500D01*
X144815894Y-67000499D01*
X144943186Y-66966392D01*
X145057314Y-66900500D01*
X145150500Y-66807314D01*
X145216392Y-66693186D01*
X145250499Y-66565894D01*
X145250500Y-66565894D01*
X145250500Y-66434106D01*
X145250499Y-66434105D01*
X145240927Y-66398383D01*
X145216392Y-66306814D01*
X145150500Y-66192686D01*
X145057314Y-66099500D01*
X145053885Y-66096071D01*
X145054312Y-66095643D01*
X145052174Y-66094758D01*
X145043050Y-66072732D01*
X145031133Y-66052088D01*
X145030500Y-66042432D01*
X145030500Y-65914500D01*
X145052174Y-65862174D01*
X145104500Y-65840500D01*
X145109746Y-65840500D01*
X145109748Y-65840500D01*
X145168231Y-65828867D01*
X145233887Y-65784995D01*
X145289435Y-65773946D01*
X145316111Y-65784995D01*
X145335239Y-65797776D01*
X145381767Y-65828866D01*
X145381768Y-65828866D01*
X145381769Y-65828867D01*
X145440252Y-65840500D01*
X145625500Y-65840500D01*
X145677826Y-65862174D01*
X145699500Y-65914500D01*
X145699500Y-66062034D01*
X145677826Y-66114360D01*
X145599500Y-66192685D01*
X145533610Y-66306809D01*
X145533606Y-66306818D01*
X145499500Y-66434105D01*
X145499500Y-66565894D01*
X145533606Y-66693181D01*
X145533610Y-66693190D01*
X145545965Y-66714589D01*
X145599500Y-66807314D01*
X145692686Y-66900500D01*
X145806814Y-66966392D01*
X145934105Y-67000499D01*
X145934106Y-67000500D01*
X145934108Y-67000500D01*
X146065894Y-67000500D01*
X146065894Y-67000499D01*
X146193186Y-66966392D01*
X146307314Y-66900500D01*
X146400500Y-66807314D01*
X146466392Y-66693186D01*
X146500499Y-66565894D01*
X146500500Y-66565894D01*
X146500500Y-66434106D01*
X146500499Y-66434105D01*
X146490927Y-66398383D01*
X146466392Y-66306814D01*
X146400500Y-66192686D01*
X146322174Y-66114360D01*
X146300500Y-66062034D01*
X146300500Y-65914500D01*
X146322174Y-65862174D01*
X146374500Y-65840500D01*
X146379746Y-65840500D01*
X146379748Y-65840500D01*
X146438231Y-65828867D01*
X146503887Y-65784995D01*
X146559435Y-65773946D01*
X146586111Y-65784995D01*
X146605239Y-65797776D01*
X146651767Y-65828866D01*
X146651768Y-65828866D01*
X146651769Y-65828867D01*
X146710252Y-65840500D01*
X146895500Y-65840500D01*
X146947826Y-65862174D01*
X146969500Y-65914500D01*
X146969500Y-66042432D01*
X146947826Y-66094758D01*
X146944590Y-66097595D01*
X146849500Y-66192685D01*
X146783610Y-66306809D01*
X146783606Y-66306818D01*
X146749500Y-66434105D01*
X146749500Y-66565894D01*
X146783606Y-66693181D01*
X146783610Y-66693190D01*
X146795965Y-66714589D01*
X146849500Y-66807314D01*
X146942686Y-66900500D01*
X147056814Y-66966392D01*
X147184105Y-67000499D01*
X147184106Y-67000500D01*
X147184108Y-67000500D01*
X147315894Y-67000500D01*
X147315894Y-67000499D01*
X147443186Y-66966392D01*
X147557314Y-66900500D01*
X147650500Y-66807314D01*
X147716392Y-66693186D01*
X147750499Y-66565894D01*
X147750500Y-66565894D01*
X147750500Y-66434106D01*
X147750499Y-66434105D01*
X147740927Y-66398383D01*
X147716392Y-66306814D01*
X147650500Y-66192686D01*
X147592174Y-66134360D01*
X147570500Y-66082034D01*
X147570500Y-65914500D01*
X147592174Y-65862174D01*
X147644500Y-65840500D01*
X147649746Y-65840500D01*
X147649748Y-65840500D01*
X147708231Y-65828867D01*
X147773887Y-65784995D01*
X147829435Y-65773946D01*
X147856111Y-65784995D01*
X147875239Y-65797776D01*
X147921767Y-65828866D01*
X147921768Y-65828866D01*
X147921769Y-65828867D01*
X147980252Y-65840500D01*
X147980254Y-65840500D01*
X148919746Y-65840500D01*
X148919748Y-65840500D01*
X148978231Y-65828867D01*
X149043887Y-65784995D01*
X149099435Y-65773946D01*
X149126111Y-65784995D01*
X149145239Y-65797776D01*
X149191767Y-65828866D01*
X149191768Y-65828866D01*
X149191769Y-65828867D01*
X149250252Y-65840500D01*
X149250254Y-65840500D01*
X150189746Y-65840500D01*
X150189748Y-65840500D01*
X150248231Y-65828867D01*
X150313887Y-65784995D01*
X150369435Y-65773946D01*
X150396111Y-65784995D01*
X150415239Y-65797776D01*
X150461767Y-65828866D01*
X150461768Y-65828866D01*
X150461769Y-65828867D01*
X150520252Y-65840500D01*
X150520254Y-65840500D01*
X151459746Y-65840500D01*
X151459748Y-65840500D01*
X151518231Y-65828867D01*
X151583887Y-65784995D01*
X151639435Y-65773946D01*
X151666111Y-65784995D01*
X151685239Y-65797776D01*
X151731767Y-65828866D01*
X151731768Y-65828866D01*
X151731769Y-65828867D01*
X151790252Y-65840500D01*
X151790254Y-65840500D01*
X152729746Y-65840500D01*
X152729748Y-65840500D01*
X152788231Y-65828867D01*
X152854552Y-65784552D01*
X152898867Y-65718231D01*
X152910500Y-65659748D01*
X152910500Y-65264500D01*
X152932174Y-65212174D01*
X152984500Y-65190500D01*
X153984877Y-65190500D01*
X154037203Y-65212174D01*
X154227826Y-65402797D01*
X154249500Y-65455123D01*
X154249500Y-65565894D01*
X154283606Y-65693181D01*
X154283610Y-65693190D01*
X154298068Y-65718231D01*
X154349500Y-65807314D01*
X154442686Y-65900500D01*
X154556814Y-65966392D01*
X154556818Y-65966393D01*
X154645147Y-65990061D01*
X154659557Y-66001118D01*
X154676559Y-66007510D01*
X154681187Y-66017715D01*
X154690080Y-66024539D01*
X154692450Y-66042548D01*
X154699953Y-66059090D01*
X154695959Y-66069201D01*
X154697472Y-66080692D01*
X154680023Y-66112104D01*
X154679161Y-66113024D01*
X154599500Y-66192686D01*
X154591276Y-66206929D01*
X154585467Y-66213137D01*
X154566827Y-66221590D01*
X154550588Y-66234051D01*
X154541882Y-66232904D01*
X154533887Y-66236531D01*
X154514730Y-66229329D01*
X154494436Y-66226657D01*
X154489090Y-66219690D01*
X154480873Y-66216601D01*
X154472419Y-66197961D01*
X154459959Y-66181722D01*
X154458860Y-66177008D01*
X154453866Y-66151901D01*
X154448867Y-66126769D01*
X154440575Y-66114360D01*
X154428017Y-66095565D01*
X154404552Y-66060448D01*
X154358607Y-66029748D01*
X154338232Y-66016133D01*
X154338233Y-66016133D01*
X154307087Y-66009938D01*
X154279748Y-66004500D01*
X152740252Y-66004500D01*
X152712913Y-66009938D01*
X152681767Y-66016133D01*
X152615449Y-66060447D01*
X152615447Y-66060449D01*
X152571133Y-66126767D01*
X152559500Y-66185253D01*
X152559500Y-67124746D01*
X152571133Y-67183233D01*
X152615003Y-67248887D01*
X152626053Y-67304436D01*
X152615003Y-67331113D01*
X152571133Y-67396766D01*
X152559500Y-67455253D01*
X152559500Y-68394746D01*
X152571133Y-68453233D01*
X152615003Y-68518887D01*
X152626053Y-68574436D01*
X152615003Y-68601113D01*
X152571133Y-68666766D01*
X152559500Y-68725253D01*
X152559500Y-69664746D01*
X152571133Y-69723233D01*
X152615003Y-69788887D01*
X152626053Y-69844436D01*
X152615003Y-69871113D01*
X152571133Y-69936766D01*
X152559500Y-69995253D01*
X152559500Y-70934746D01*
X152571133Y-70993233D01*
X152615003Y-71058887D01*
X152626053Y-71114436D01*
X152615003Y-71141113D01*
X152571133Y-71206766D01*
X152568252Y-71221252D01*
X152559500Y-71265252D01*
X152559500Y-72204748D01*
X152561375Y-72214173D01*
X152571133Y-72263233D01*
X152615003Y-72328887D01*
X152626053Y-72384436D01*
X152615003Y-72411113D01*
X152571133Y-72476766D01*
X152570712Y-72478885D01*
X152560093Y-72532274D01*
X152559500Y-72535253D01*
X152559500Y-73474746D01*
X152571133Y-73533233D01*
X152615003Y-73598887D01*
X152626053Y-73654436D01*
X152615003Y-73681113D01*
X152571133Y-73746766D01*
X152559500Y-73805253D01*
X152559500Y-74744746D01*
X152571133Y-74803233D01*
X152615003Y-74868887D01*
X152626053Y-74924436D01*
X152615003Y-74951113D01*
X152571133Y-75016766D01*
X152564802Y-75048597D01*
X152559500Y-75075252D01*
X152559500Y-76014748D01*
X152563252Y-76033610D01*
X152571133Y-76073233D01*
X152615003Y-76138887D01*
X152626053Y-76194436D01*
X152615003Y-76221113D01*
X152571133Y-76286766D01*
X152563392Y-76325684D01*
X152559500Y-76345252D01*
X152559500Y-77284748D01*
X152560565Y-77290100D01*
X152571133Y-77343233D01*
X152615003Y-77408887D01*
X152626053Y-77464436D01*
X152615003Y-77491113D01*
X152571133Y-77556766D01*
X152559500Y-77615253D01*
X152559500Y-78554746D01*
X152571133Y-78613233D01*
X152615003Y-78678887D01*
X152626053Y-78734436D01*
X152615003Y-78761113D01*
X152571133Y-78826766D01*
X152567103Y-78847027D01*
X152559500Y-78885252D01*
X152559500Y-79824748D01*
X152565316Y-79853989D01*
X152571133Y-79883233D01*
X152615003Y-79948887D01*
X152626053Y-80004436D01*
X152615003Y-80031113D01*
X152571133Y-80096766D01*
X152559500Y-80155253D01*
X152559500Y-80955877D01*
X152537826Y-81008203D01*
X152485500Y-81029877D01*
X152433174Y-81008203D01*
X151572174Y-80147203D01*
X151550500Y-80094877D01*
X151550500Y-78860406D01*
X151572174Y-78808080D01*
X151605345Y-78788928D01*
X151693186Y-78765392D01*
X151807314Y-78699500D01*
X151900500Y-78606314D01*
X151966392Y-78492186D01*
X152000499Y-78364894D01*
X152000500Y-78364894D01*
X152000500Y-78233106D01*
X152000499Y-78233105D01*
X151994425Y-78210438D01*
X151966392Y-78105814D01*
X151900500Y-77991686D01*
X151807314Y-77898500D01*
X151742470Y-77861062D01*
X151693190Y-77832610D01*
X151693181Y-77832606D01*
X151565894Y-77798500D01*
X151565892Y-77798500D01*
X151434108Y-77798500D01*
X151343652Y-77822737D01*
X151287500Y-77815344D01*
X151253021Y-77770410D01*
X151250500Y-77751258D01*
X151250500Y-77684106D01*
X151250499Y-77684105D01*
X151235633Y-77628625D01*
X151216392Y-77556814D01*
X151150500Y-77442686D01*
X151057314Y-77349500D01*
X151011716Y-77323174D01*
X150943190Y-77283610D01*
X150943181Y-77283606D01*
X150815894Y-77249500D01*
X150815892Y-77249500D01*
X150684108Y-77249500D01*
X150684106Y-77249500D01*
X150556818Y-77283606D01*
X150556809Y-77283610D01*
X150442685Y-77349500D01*
X150349500Y-77442685D01*
X150283610Y-77556809D01*
X150283606Y-77556818D01*
X150249500Y-77684105D01*
X150249500Y-77794876D01*
X150227826Y-77847202D01*
X150065489Y-78009540D01*
X150009540Y-78065488D01*
X149969979Y-78134009D01*
X149969977Y-78134014D01*
X149949500Y-78210435D01*
X149949500Y-80379564D01*
X149961284Y-80423541D01*
X149953892Y-80479693D01*
X149908959Y-80514172D01*
X149870654Y-80514173D01*
X149815892Y-80499500D01*
X149684108Y-80499500D01*
X149684106Y-80499500D01*
X149556818Y-80533606D01*
X149556809Y-80533610D01*
X149442685Y-80599500D01*
X149349500Y-80692685D01*
X149283610Y-80806809D01*
X149283606Y-80806818D01*
X149249500Y-80934105D01*
X149249500Y-81065894D01*
X149283606Y-81193181D01*
X149283610Y-81193190D01*
X149349500Y-81307314D01*
X149355360Y-81313174D01*
X149377034Y-81365500D01*
X149355360Y-81417826D01*
X149303034Y-81439500D01*
X149250252Y-81439500D01*
X149229504Y-81443627D01*
X149191766Y-81451133D01*
X149126113Y-81495003D01*
X149070564Y-81506053D01*
X149043887Y-81495003D01*
X148978233Y-81451133D01*
X148929221Y-81441384D01*
X148882130Y-81409917D01*
X148871081Y-81354368D01*
X148891333Y-81316480D01*
X148900500Y-81307314D01*
X148966392Y-81193186D01*
X149000499Y-81065894D01*
X149000500Y-81065894D01*
X149000500Y-80934106D01*
X149000499Y-80934105D01*
X148999284Y-80929572D01*
X148966392Y-80806814D01*
X148900500Y-80692686D01*
X148807314Y-80599500D01*
X148774253Y-80580412D01*
X148693190Y-80533610D01*
X148693181Y-80533606D01*
X148565894Y-80499500D01*
X148565892Y-80499500D01*
X148434108Y-80499500D01*
X148434106Y-80499500D01*
X148306818Y-80533606D01*
X148306809Y-80533610D01*
X148192685Y-80599500D01*
X148099500Y-80692685D01*
X148033610Y-80806809D01*
X148033606Y-80806818D01*
X147999500Y-80934105D01*
X147999500Y-81065894D01*
X148033606Y-81193181D01*
X148033610Y-81193190D01*
X148099500Y-81307314D01*
X148105360Y-81313174D01*
X148127034Y-81365500D01*
X148105360Y-81417826D01*
X148053034Y-81439500D01*
X147980252Y-81439500D01*
X147959504Y-81443627D01*
X147921766Y-81451133D01*
X147856113Y-81495003D01*
X147846334Y-81496948D01*
X147838843Y-81503529D01*
X147823425Y-81501505D01*
X147800564Y-81506053D01*
X147782324Y-81499870D01*
X147775146Y-81496337D01*
X147774552Y-81495448D01*
X147708231Y-81451133D01*
X147666376Y-81442807D01*
X147657664Y-81438520D01*
X147644896Y-81423984D01*
X147628812Y-81413238D01*
X147626866Y-81403459D01*
X147620286Y-81395968D01*
X147621535Y-81376660D01*
X147617762Y-81357689D01*
X147623453Y-81347041D01*
X147623945Y-81339449D01*
X147630668Y-81333543D01*
X147638014Y-81319799D01*
X147650500Y-81307314D01*
X147716392Y-81193186D01*
X147750499Y-81065894D01*
X147750500Y-81065894D01*
X147750500Y-80934106D01*
X147750499Y-80934105D01*
X147749284Y-80929572D01*
X147716392Y-80806814D01*
X147650500Y-80692686D01*
X147557314Y-80599500D01*
X147524253Y-80580412D01*
X147443190Y-80533610D01*
X147443181Y-80533606D01*
X147315894Y-80499500D01*
X147315892Y-80499500D01*
X147184108Y-80499500D01*
X147184106Y-80499500D01*
X147056818Y-80533606D01*
X147056809Y-80533610D01*
X146942685Y-80599500D01*
X146849500Y-80692685D01*
X146783610Y-80806809D01*
X146783606Y-80806818D01*
X146749500Y-80934105D01*
X146749500Y-81065894D01*
X146783606Y-81193181D01*
X146783610Y-81193190D01*
X146849500Y-81307314D01*
X146855360Y-81313174D01*
X146877034Y-81365500D01*
X146855360Y-81417826D01*
X146803034Y-81439500D01*
X146710252Y-81439500D01*
X146689504Y-81443627D01*
X146651766Y-81451133D01*
X146586113Y-81495003D01*
X146575053Y-81497203D01*
X146566320Y-81504337D01*
X146550831Y-81502021D01*
X146530564Y-81506053D01*
X146509968Y-81498658D01*
X146504863Y-81495914D01*
X146504552Y-81495448D01*
X146438231Y-81451133D01*
X146411732Y-81445862D01*
X146401990Y-81440626D01*
X146390540Y-81426609D01*
X146375493Y-81416555D01*
X146373293Y-81405495D01*
X146366160Y-81396763D01*
X146367974Y-81378756D01*
X146364444Y-81361006D01*
X146370999Y-81348741D01*
X146371839Y-81340411D01*
X146378253Y-81335171D01*
X146384695Y-81323118D01*
X146400500Y-81307314D01*
X146466392Y-81193186D01*
X146500499Y-81065894D01*
X146500500Y-81065894D01*
X146500500Y-80934106D01*
X146500499Y-80934105D01*
X146499284Y-80929572D01*
X146466392Y-80806814D01*
X146400500Y-80692686D01*
X146307314Y-80599500D01*
X146274253Y-80580412D01*
X146193190Y-80533610D01*
X146193181Y-80533606D01*
X146065894Y-80499500D01*
X146065892Y-80499500D01*
X145934108Y-80499500D01*
X145934106Y-80499500D01*
X145806818Y-80533606D01*
X145806809Y-80533610D01*
X145692685Y-80599500D01*
X145599500Y-80692685D01*
X145533610Y-80806809D01*
X145533606Y-80806818D01*
X145499500Y-80934105D01*
X145499500Y-81065894D01*
X145533606Y-81193181D01*
X145533610Y-81193190D01*
X145599500Y-81307314D01*
X145605360Y-81313174D01*
X145627034Y-81365500D01*
X145605360Y-81417826D01*
X145553034Y-81439500D01*
X145440252Y-81439500D01*
X145419504Y-81443627D01*
X145381766Y-81451133D01*
X145316113Y-81495003D01*
X145260564Y-81506053D01*
X145233887Y-81495003D01*
X145168233Y-81451133D01*
X145138989Y-81445316D01*
X145109748Y-81439500D01*
X144170252Y-81439500D01*
X144149504Y-81443627D01*
X144111766Y-81451133D01*
X144046113Y-81495003D01*
X143990564Y-81506053D01*
X143963887Y-81495003D01*
X143898233Y-81451133D01*
X143868989Y-81445316D01*
X143839748Y-81439500D01*
X142900252Y-81439500D01*
X142879504Y-81443627D01*
X142841766Y-81451133D01*
X142776113Y-81495003D01*
X142720564Y-81506053D01*
X142693887Y-81495003D01*
X142628233Y-81451133D01*
X142598989Y-81445316D01*
X142569748Y-81439500D01*
X141630252Y-81439500D01*
X141609504Y-81443627D01*
X141571766Y-81451133D01*
X141506113Y-81495003D01*
X141450564Y-81506053D01*
X141423887Y-81495003D01*
X141358233Y-81451133D01*
X141328989Y-81445316D01*
X141299748Y-81439500D01*
X140360252Y-81439500D01*
X140339504Y-81443627D01*
X140301766Y-81451133D01*
X140236113Y-81495003D01*
X140180564Y-81506053D01*
X140153887Y-81495003D01*
X140088233Y-81451133D01*
X140058989Y-81445316D01*
X140029748Y-81439500D01*
X139090252Y-81439500D01*
X139069504Y-81443627D01*
X139031766Y-81451133D01*
X138966113Y-81495003D01*
X138955053Y-81497203D01*
X138946320Y-81504337D01*
X138930831Y-81502021D01*
X138910564Y-81506053D01*
X138889968Y-81498658D01*
X138884863Y-81495914D01*
X138884552Y-81495448D01*
X138818231Y-81451133D01*
X138791732Y-81445862D01*
X138781990Y-81440626D01*
X138770540Y-81426609D01*
X138755493Y-81416555D01*
X138753293Y-81405495D01*
X138746160Y-81396763D01*
X138747974Y-81378756D01*
X138744444Y-81361006D01*
X138750999Y-81348741D01*
X138751839Y-81340411D01*
X138758253Y-81335171D01*
X138764695Y-81323118D01*
X138780500Y-81307314D01*
X138846392Y-81193186D01*
X138880499Y-81065894D01*
X138880500Y-81065894D01*
X138880500Y-80934106D01*
X138880499Y-80934105D01*
X138879284Y-80929572D01*
X138846392Y-80806814D01*
X138780500Y-80692686D01*
X138687314Y-80599500D01*
X138654253Y-80580412D01*
X138573190Y-80533610D01*
X138573181Y-80533606D01*
X138445894Y-80499500D01*
X138445892Y-80499500D01*
X138314108Y-80499500D01*
X138314106Y-80499500D01*
X138186818Y-80533606D01*
X138186809Y-80533610D01*
X138072685Y-80599500D01*
X137979500Y-80692685D01*
X137913610Y-80806809D01*
X137913606Y-80806818D01*
X137879500Y-80934105D01*
X137879500Y-81065894D01*
X137913606Y-81193181D01*
X137913610Y-81193190D01*
X137979500Y-81307314D01*
X137985360Y-81313174D01*
X138007034Y-81365500D01*
X137985360Y-81417826D01*
X137933034Y-81439500D01*
X137820252Y-81439500D01*
X137799504Y-81443627D01*
X137761766Y-81451133D01*
X137696113Y-81495003D01*
X137681675Y-81497874D01*
X137669436Y-81506053D01*
X137655000Y-81503181D01*
X137640564Y-81506053D01*
X137613887Y-81495003D01*
X137543387Y-81447895D01*
X137511922Y-81400803D01*
X137510500Y-81386367D01*
X137510500Y-80586545D01*
X137532174Y-80534219D01*
X138144219Y-79922174D01*
X138196545Y-79900500D01*
X148922857Y-79900500D01*
X148959857Y-79910414D01*
X148969347Y-79915893D01*
X149056814Y-79966392D01*
X149184105Y-80000499D01*
X149184106Y-80000500D01*
X149184108Y-80000500D01*
X149315894Y-80000500D01*
X149315894Y-80000499D01*
X149443186Y-79966392D01*
X149557314Y-79900500D01*
X149650500Y-79807314D01*
X149716392Y-79693186D01*
X149750499Y-79565894D01*
X149750500Y-79565894D01*
X149750500Y-79434106D01*
X149750499Y-79434105D01*
X149749284Y-79429572D01*
X149716392Y-79306814D01*
X149650500Y-79192686D01*
X149557314Y-79099500D01*
X149543478Y-79091512D01*
X149443190Y-79033610D01*
X149443181Y-79033606D01*
X149315894Y-78999500D01*
X149315892Y-78999500D01*
X149184108Y-78999500D01*
X149184106Y-78999500D01*
X149056818Y-79033606D01*
X149056809Y-79033610D01*
X148959857Y-79089586D01*
X148922857Y-79099500D01*
X138052727Y-79099500D01*
X137947273Y-79099500D01*
X137896342Y-79113146D01*
X137845411Y-79126793D01*
X137845407Y-79126795D01*
X137754090Y-79179517D01*
X136789517Y-80144090D01*
X136736792Y-80235412D01*
X136736793Y-80235413D01*
X136709500Y-80337273D01*
X136709500Y-81365500D01*
X136687826Y-81417826D01*
X136635500Y-81439500D01*
X136550252Y-81439500D01*
X136521010Y-81445316D01*
X136491767Y-81451133D01*
X136425449Y-81495447D01*
X136425447Y-81495449D01*
X136381133Y-81561767D01*
X136378438Y-81575316D01*
X136369500Y-81620252D01*
X136369500Y-83159748D01*
X136377255Y-83198736D01*
X136381133Y-83218232D01*
X136404298Y-83252900D01*
X136425448Y-83284552D01*
X136469560Y-83314027D01*
X136491767Y-83328866D01*
X136491768Y-83328866D01*
X136491769Y-83328867D01*
X136550252Y-83340500D01*
X136635500Y-83340500D01*
X136687826Y-83362174D01*
X136709500Y-83414500D01*
X136709500Y-84383455D01*
X136687826Y-84435781D01*
X136245782Y-84877826D01*
X136193456Y-84899500D01*
X134870252Y-84899500D01*
X134841010Y-84905316D01*
X134811767Y-84911133D01*
X134745449Y-84955447D01*
X134745447Y-84955449D01*
X134701133Y-85021767D01*
X134689500Y-85080253D01*
X134450500Y-85080253D01*
X134450500Y-59894500D01*
X134472174Y-59842174D01*
X134524500Y-59820500D01*
X188210118Y-59820500D01*
X190475500Y-59820500D01*
X190527826Y-59842174D01*
G37*
%TD.AperFunction*%
%TD*%
M02*
